<svg xmlns="http://www.w3.org/2000/svg" viewBox="0 0 977.155 977.155" height="3693.184" width="3693.184"><path d="M260.755 647.269c1.988 13.916 5.396 23.005 17.893 22.721 12.497-.284 17.893-13.917 17.325-22.153-.568-8.237-35.218-.568-35.218-.568zM173.845 647.269c2.557 13.348 8.805 23.573 19.882 23.29 11.076-.285 20.165-14.486 19.881-24.142-.284-9.657-39.763.852-39.763.852z" fill="#0c0c0c"/><path d="M819.42 640.452c.567 8.805 2.271 17.893 11.644 17.893 9.372 0 13.349-11.928 13.349-16.757 0-4.828-24.994-1.136-24.994-1.136zM652.7 644.428c.852 6.817 5.68 15.905 12.497 15.621 6.817-.284 16.19-7.668 15.905-15.053-.284-7.384-28.402-.568-28.402-.568z" fill="#121212"/><path d="M920.703 630.549c-.933 5.29-2.767 13.363-6.199 13.722-3.485.364-3.217.411-23.6 1.634-20.384 1.223-186.714 4.077-209.136 4.485-22.421.407-445.992 5.3-455.776 4.484-9.784-.815 7.746-19.568 7.746-19.568l47.29-64.412 642.082 8.153z" fill="#121212"/><path d="M333.413 669.346c-11.619.14-12.748.672-16.802-7.012-6.157-11.67-8.165-33.353-7.35-40.08.816-6.726 19.26 7.345 19.26 7.345z" fill="#0f0f0f"/><path d="M315.068 622.668c-.407 19.568 5.708 46.475 17.53 46.678 11.823.204 18.55-22.625 18.753-36.282.204-13.657-36.283-10.396-36.283-10.396z" fill="#181818"/><path d="M785.928 659.053c-2.65.102-4.484.102-5.809 0-1.325-.102-3.057-.917-4.382-3.262-1.325-2.344-5.096-12.74-5.198-24.46-.102-11.72 3.77-22.32 6.625-24.154 2.853-1.835 8.56-1.835 9.376-1.835.815 0-3.771 3.975-3.771 3.975l-5.096 27.722z" fill="#171717"/><path d="M786.744 605.342c-7.13.242-12.026 12.638-12.23 25.276-.181 11.211 4.076 28.333 11.21 28.333 7.135 0 11.008-20.791 10.6-29.352-.408-8.562-4.674-24.423-9.58-24.257z" fill="#1c1c1c"/><path d="M410.386 666.97c-6.725 0-9.092.095-11.365-3.598-2.273-3.694-6.25-6.535-6.63-25.382-.135-6.725 6.156.853 6.156.853z" fill="#0f0f0f"/><path d="M396.602 634.694c.408 16.307 4.485 32.818 13.657 32.206 9.173-.611 14.88-18.956 14.88-28.333 0-9.376-8.968-11.21-14.88-13.249-5.91-2.038-13.657 9.376-13.657 9.376z" fill="#181818"/><path d="M398.845 638.771c19.364.204 39.187.459 43.264.459 4.076 0 5.452-19.212-.459-19.416-5.911-.203-37.506 0-39.952-.203-2.446-.204-2.853 19.16-2.853 19.16z" fill="#131313"/><path d="M911.395 578.78c2.882 8.215 3.315 11.386 2.882 19.025-.432 7.64-1.441 21.909-1.585 28.106-.144 6.198.242 9.794 5.575 9.794 1.008-4.469.767-7.487.767-7.487l3.315-48.43z" fill="#4d1f05"/><path d="M855.246 607.495c-6.918 0-9.768 1.474-11.353 4.501-1.586 3.027-4.324 13.693-4.468 20.611-.144 6.919 2.45 16 4.9 19.602 2.45 3.604 4.468 4.324 8.792 4.469 4.324.144 2.129-49.183 2.129-49.183z" fill="#171717"/><path d="M852.99 656.709c7.746 0 10.804-12.638 10.804-20.384s1.63-28.74-8.358-28.74-12.637 14.268-12.434 25.886c.204 11.619 4.077 23.034 9.988 23.238z" fill="#1c1c1c"/><path d="M463.053 604.12c5.911 0 8.357 1.426 10.497 2.343 2.14.917 14.167 7.44 16.307 8.969 2.14 1.529-4.994 11.619-9.784 13.453-4.79 1.835-13.453 3.567-15.797 3.67-2.344.101-1.223-28.436-1.223-28.436z" fill="#1d1d1d"/><path d="M458.721 604.476c-4.943 1.07-7.796 5.249-8.816 7.083-1.019 1.835-1.732 3.465-.815 5.504.917 2.038 4.892 9.784 6.727 12.026 1.834 2.242 2.955 2.956 4.178 3.261 1.223.306 6.523-11.007 6.523-11.007l-.815-8.459z" fill="#191919"/><path d="M463.002 619.305c.815-1.733.153-2.497-.306-3.313-.458-.815-4.23-7.95-5.045-9.121-.815-1.172-.56-2.191 1.274-2.446 1.835-.255 2.497-.255 3.771-.357 1.274-.102 2.191-.102 3.414 1.784 1.092 1.682 4.179 8.204 4.638 9.886.458 1.681.56 2.955.305 4.025-.254 1.07-8.051-.458-8.051-.458z" fill="#292929"/><path d="M377.646 632.656c-23.034.204-48.513.815-54.628.612-6.115-.204-6.32-6.116-6.523-10.6-.204-4.484 1.02-48.105 1.02-49.94 0-1.834 35.059-4.076 35.059-4.076s34.856 61.558 25.072 64.004z" fill="#101010"/><path d="M339.803 575.497c-.432 9.224-2.636 30.38 9.903 30.524 12.54.144 17.873 2.883 19.602 6.198 1.73 3.315 4.901 25.944 11.387 26.232 6.486.288 16.864.577 22.052.144 5.19-.432 11.099-9.08 11.099-17.008 0-7.927-12.108-49.582-12.108-49.582s-61.358-3.715-61.935 3.492z" fill="#151515"/><path d="M311.943 628.145c-10.017.36-32.718.577-33.439.289-.72-.289.865-40.286 5.766-41.439 4.9-1.153 26.088-1.585 28.97-1.657 2.883-.072-1.297 42.807-1.297 42.807z" fill="#232323"/><path d="M228.591 654.466c7.083-.203 7.338-.458 7.644-1.528.306-1.07 1.172-11.058 2.548-11.925 1.376-.866-6.727.51-6.727.51z" fill="#ad5701"/><path d="M99.779 642.054l125.396-.864-4.612-77.833-119.343-.576z" fill="#0c0c0c"/><path d="M125.212 609.014c-7.929-.068-15.344-.254-16.641-.543-1.297-.288-.865-29.691 3.027-29.98 3.891-.288 11.1-.463 12.782-.463 1.682 0 .832 30.986.832 30.986z" fill="#111"/><path d="M928.557 428.402c.094-4.972.344-12.539-1.501-19.323-2.656-9.766-21.76-17.146-41.792-19.666-20.03-2.52-50.409-6.633-55.45-7.163-5.04-.531 19.766 4.642 19.766 4.642l44.838 12.072 13.398 26.266z" fill="#fcaf2e"/><path d="M300.845 602.562c2.739 0 3.387.648 3.531 2.81.144 2.162.289 11.243.216 13.044-.072 1.802-.864 2.667-2.594 2.811-1.73.144-22.124.216-23.35-.072-1.225-.288-.864-17.728 3.892-18.017 4.756-.288 14.918-.648 18.305-.576z" fill="#3c3c3c"/><path d="M289.992 574.847c0 2.398 0 3.118-1.2 4.077-1.199.96-1.798 2.159-2.758 11.633s-5.636 46.65-5.996 49.168c-.36 2.518-.78 2.698-1.859 2.818-1.079.12-9.653.06-11.392.06-1.74 0 .54-4.437.54-4.437l-1.484-65.246z" fill="#b77614"/><path d="M931.253 533.234c-.34-7.97-1.357-42.399-2.205-45.282-.848-2.883-.17 45.198-.17 45.198z" fill="#732c59"/><path d="M440.799 576.33c.144 10.233.144 9.512.144 20.466 0 10.955-.288 11.243-4.036 11.387-3.747.144-6.054 0-9.08.288-3.027.289-6.054 1.153-6.198 11.53-.144 10.379-2.162 13.55-6.054 14.126-3.891.577-8.936-3.892-8.792-14.702.144-10.81-3.17-11.098-8.792-10.954-5.621.144-11.242-2.738-11.387-11.819-.144-9.08 1.01-17.152 1.298-20.034.288-2.883 52.897-8.216 52.897-.289z" fill="#171717"/><path d="M556.206 623.891c.217 6.736 2.242 7.134 7.338 7.542 5.096.408 18.549.408 23.033.204 4.485-.204 4.28-1.63 4.688-6.523.408-4.892.816-40.563.408-44.64-.408-4.077-35.875-9.58-36.079-2.65-.204 6.93.42 40.103.612 46.067z" fill="#1c1c1c"/><path d="M628.893 596.076c12.251-.433 14.27.288 14.557 4.036.289 3.747.721 33.294.577 37.474-.144 4.18-.432 4.757-5.765 5.189-5.333.432-8.072-1.009-8.216-3.892-.144-2.882.72-11.53.577-12.972-.145-1.44-1.73-29.835-1.73-29.835z" fill="#212121"/><path d="M611.038 579.251c.203 12.842.407 41.786.611 48.513.204 6.727 1.223 7.95 10.192 8.153 8.969.204 9.376-1.223 9.58-6.726.204-5.504.612-49.94.204-52.386-.408-2.446-20.587 2.446-20.587 2.446z" fill="#1f1f1f"/><path d="M655.78 579.863c-.204 4.79-.306 46.168-.102 49.94.203 3.77.815 5.707 4.178 5.91 3.363.204 11.211.102 14.88-.101 3.67-.204 3.567-1.937 3.771-4.485.204-2.548.204-52.182 0-53.303-.204-1.12-22.728 2.039-22.728 2.039z" fill="#1d1d1d"/><path d="M707.86 579.659c-.204 9.988-.408 38.932-.408 44.028 0 5.096 1.63 7.746 15.899 7.95 14.268.204 14.472-2.242 14.472-5.911 0-3.67-.204-43.825-.407-46.679-.204-2.853-29.557.612-29.557.612z" fill="#1b1b1b"/><path d="M787.296 608.039c.144-2.883.144-3.748 3.026-3.748 2.883 0 19.459-.144 21.332.145 1.874.288 4.757 6.918 4.613 11.963-.145 5.044.144 18.016-7.207 18.881-7.35.865-15.278 1.009-15.999.865-.72-.144-5.765-28.106-5.765-28.106z" fill="#171717"/><path d="M852.379 630.618c10.701-.51 30.881-1.427 35.162-1.427 4.28 0 6.522-.815 6.828-9.478.306-8.664-.204-37.506-.612-40.36-.407-2.854-43.416 1.63-43.416 1.63z" fill="#1c1c1c"/><path d="M792.917 580.365c-.288 10.234.576 18.593.72 21.476.145 2.883 1.01 5.045 3.604 5.045 2.594 0 13.26.288 14.557 2.738 1.298 2.45 2.595 10.954 2.307 15.278-.289 4.324-1.01 5.91 4.468 6.198 5.477.288 30.268 0 34.592-.432 4.324-.433 4.035-1.874 4.324-4.468.288-2.595-1.442-42.664-1.442-44.97 0-2.306-63.13-.865-63.13-.865z" fill="#1d1d1d"/><path d="M917.016 581.23c2.306 5.621 3.17 8.071 2.45 15.422-.72 7.351-2.162 27.818-2.45 32.286-.288 4.468 0 6.63 1.153 6.774 1.153.145 2.018-1.44 2.45-4.18.433-2.738 4.468-31.853 5.333-37.762.865-5.91 1.874-11.243 1.874-14.99 0-3.748-10.81 2.45-10.81 2.45z" fill="#94601d"/><path d="M781.036 581.493c0 7.95.612 40.156.612 43.01 0 2.853 2.854 3.057 6.115 3.057s4.484-.611 4.484-3.261c0-2.65.204-12.23.204-14.473 0-2.242 4.892-3.26 9.173-3.669 4.28-.407 2.853-20.79 2.853-23.44 0-2.65-23.44-1.224-23.44-1.224z" fill="#101010"/><path d="M265.928 574.7c18.316.51 329.016 5.767 360.73 6.106 31.715.34 292.553 3.053 296.454 2.883 3.9-.17 4.58-.509 4.58-4.918 0-4.41.169-9.837 0-10.854-.17-1.018-22.388-.509-22.388-.509l-646.012-13.787z" fill="#a65600"/><path d="M845.656 571.117c2.595 0 22.01.365 23.54.383 1.53.019 1.168-2.962 1.168-2.962l-1.41-145.49-24.409-.484z" fill="#e3e3e3"/><path d="M845.656 571.117c.742-.081.822-.202.822-1.008 0-.805-.073-28.937-.073-33.152 0-4.216-.57-64.94-.57-68.585V425.99c0-1.595.57-2.506 3.19-2.506s4.102.114 5.355.228c1.253.114 1.595.342 1.71 2.62.113 2.279.54 141.072.54 143.123 0 2.05.125 1.858.689 1.858s.765.08.846-1.732c.08-1.813-.253-140.173-.253-142.223 0-2.051.114-3.304 1.937-3.19 1.823.113 3.987.227 5.582.455 1.595.228 1.937.57 2.05 3.76.115 3.19.115 88.75.229 95.016.114 6.266.157 44.173.157 45.703 0 1.53-.08 2.3 1.33 2.398 1.41.1.966-5.097.966-5.097l.564-59.735-.08-86.843-27.069-1.289-.16 21.59s-1.807 130.025 2.238 130.99z" fill="#1c1c1c"/><path d="M346.08 562.184c4.684.072 34.786.788 36.631.862.917-.569 1.371-2.932 1.371-2.932l.505-87.128-1.73-93.399-36.178-1.585z" fill="#e3e3e3"/><path d="M344.828 374.397s-4.02 186.212 1.252 187.787c1.821.033 2.617.165 2.617-1.493 0-1.657.721-173.753.721-177.212 0-3.46.505-4.396 3.712-4.216 1.324.075 5.284.471 8.052.68 2.617.197 2.596.977 2.65 2.599.071 2.09-.505 175.05-.505 177.644 0 2.595.169 2.442 1.754 2.473 1.617.031 1.921.122 1.921-1.896s.505-175.41.505-177.356c0-1.766.358-2.86 1.827-2.802 3.738.148 7.123.596 8.334.712 3.027.288 3.748.864 3.748 4.9 0 4.036-1.153 166.186-1.297 171.087-.145 4.9-.449 5.65 2.592 5.742 3.029-.121 2.452-7.328 2.452-7.328l.229-177.652z" fill="#1c1c1c"/><path d="M927.86 572.326c3.817 0 4.325.085 4.41-2.12.085-2.204-1.017-33.325-1.017-36.039 0-2.713-.51-3.561-2.544-3.561-2.035 0-.848 41.72-.848 41.72z" fill="#805008"/><path d="M790.855 379.812c0-8.067.09-14.277 5.264-14.808 5.174-.53 4.643 8.623 4.909 15.388.265 6.766-10.173-.58-10.173-.58zM708.699 370.045c-.266-6.5-.266-11.541 4.775-12.072 5.041-.53 5.572 5.174 5.705 13.266.132 8.092-10.48-1.194-10.48-1.194z" fill="#d5d5d5"/><path d="M230.362 318.093c-9.77-.024 32.812 5.615 32.812 5.615l65.02 36.347-46.002 3.516-6.007 196.899c10.976.308 39.531.996 69.895 1.714.142-15.94.285-87.256.427-96.208.146-9.23.732-81.895.732-84.972 0-3.076.147-5.127 2.784-4.98 2.637.146 25.344 2.197 28.567 2.49 3.224.293 4.396 1.026 4.542 2.93.147 1.905-.293 63.143-.146 72.959.14 9.363-.238 96.693-.275 108.643 28.845.672 55.688 1.29 66.2 1.526 19.234.432 266.325 4.426 396.745 6.545-.09-22.797-.95-144.529-.95-147.586 0-3.222.644-3.545 2.578-3.706 1.933-.16 15.629.645 18.206.967 2.578.322 3.706.967 3.706 4.512V571.5c32.434.528 55.854.912 56.558.934 3.315.104 3.522-.207 3.73-2.59.207-2.383.414-41.437.207-54.904-.207-13.467-.983-83.392-1.13-86.469-.146-3.076-.293-3.076-3.37-3.369-3.076-.293-13.478-1.319-15.382-1.612-1.905-.293-2.052-.878-2.198-4.248-.147-3.37 1.319-21.39-25.052-28.422-26.37-7.032-140.935-18.752-200.122-25.784-59.187-7.032-437.288-46.508-450.963-46.922-.427-.013-.797-.02-1.112-.02z" fill="gray"/><path d="M58.949 514.33l17.428.917-2.752 34.448-16.918-1.121zM241.462 512.767l-1.441 35.096h15.278l1.874-35.169z" fill="#111"/><path d="M277.736 509.628l-.194 6.35c3.958.21 29.777 1.188 68.726 2.626l.022-6.334c-36.85-1.388-61.832-2.347-68.554-2.642zm105.157 4.017l-.024 6.304c130.458 4.777 345.04 12.478 462.585 16.66l-.037-5.722c-118.564-4.454-332.82-12.382-462.524-17.242zm-105.49 6.928l-.185 6.039c9.423.27 36.673 1.125 69.014 2.148l.02-5.78c-37.659-1.272-66.189-2.25-68.162-2.359-.24-.013-.463-.03-.688-.048zm105.45 3.645l-.02 5.7c130.842 4.165 344.492 11.046 462.674 14.764l-.033-5.16c-119.405-3.893-334.04-10.99-462.62-15.304zm-105.763 6.609l-.154 5.047c6.594.112 32.366.799 69.264 1.818l.017-4.8c-37.265-1.115-65.609-1.961-67.835-2.016-.446-.01-.874-.028-1.292-.05zm592.106.956v5.672c34.992 1.242 58.103 2.053 60.569 2.122.005-1.856.006-3.635.008-5.456-5.749-.255-28.889-1.141-60.577-2.338zm-486.378 2.206l-.017 4.72c129.628 3.626 343.834 9.78 462.75 13.072-.01-1.462-.014-2.454-.024-4.012-119.858-3.493-334.42-9.934-462.709-13.78zm-106.016 6.252l-.189 6.207c8.55.146 34.07.72 69.546 1.547l.026-5.969c-37.604-.977-66.304-1.719-68.974-1.773-.143-.003-.27-.008-.409-.012zm592.394.051v5.132c31.802.993 54.91 1.697 60.542 1.824.008-1.653.013-3.328.018-5.021-7.266-.213-30.331-.954-60.56-1.935zm-486.411 2.685l-.022 5.876c130.428 3.075 344.078 8.258 462.836 11.085l-.029-4.899c-118.175-3.058-332.813-8.676-462.785-12.062zm486.411 5.476v3.98c31.361.859 53.555 1.442 60.504 1.567l.022-3.86c-8.114-.188-31.09-.837-60.526-1.687zm-592.681 1.228l-.18 5.88c7.564.187 35.637.8 69.777 1.537.011-1.757.021-3.503.032-5.721-37.804-.886-63.52-1.507-69.63-1.696zm106.236 2.549l-.02 5.658c130.411 2.793 344.674 7.299 462.91 9.708l-.025-4.879c-117.4-2.608-331.71-7.448-462.865-10.487zm486.445 3.42v4.847c30.148.714 53.143 1.249 60.438 1.393.015-1.395.029-3.066.042-4.706-5.12-.112-28.255-.702-60.48-1.533zm0 7.592v4.831c31.683.64 54.732 1.091 60.315 1.165.03-.814.06-2.583.088-4.691-3.23-.05-26.305-.55-60.403-1.305z" fill="#8d8d8d"/><path d="M282.252 388.956c-.294-.017-.584.388-.87 1.159l-3.522 115.47c10.084.369 36.048 1.382 68.445 2.68.067-19.65.135-38.06.202-42.289.11-6.94.467-49.672.638-71.793-36.583-2.962-63.972-5.173-64.893-5.227zm101.42 8.068c-.071 19.303.148 50.25.25 57.09.073 4.85.187 30.283.101 55.66 54.744 2.227 109.695 4.559 117.888 5.155 11.303.822 221.25 8.07 343.483 12.383-.234-35.899-.506-75.75-.615-92.56-119.036-9.85-333.902-27.41-461.108-37.728zm485.524 39.751v91.38c31.002 1.102 53.765 1.928 60.578 2.228-.003-6.189-.027-11.784-.083-15.443-.155-10.047-.625-51.443-.915-73.136-6.546-.6-28.455-2.443-59.58-5.029z" fill="#2d2d2d"/><path d="M877.622 493.436l3.76-3.646-.684-18.912-2.735.684-1.823 20.849z" fill="#6d1167"/><path d="M876.824 492.069l7.747-6.722.912 12.304-9-1.595z" fill="#a854aa"/><path d="M904.804 482.5l7.572-4.994.484 14.5-7.412-3.705zM920.593 512.146l1.128 12.407 8.043 2.54c-.009-4.785-.028-9.196-.073-12.153-.008-.501-.023-1.762-.032-2.408zM889.713 540.954l-1.247 5.064 2.38.073-.524-5.117-.609-.02zm-1.977 8.027l-.966 3.924 4.788.128-.406-3.955-3.416-.097zm-1.749 7.1l-1.177 4.782 7.568.177-.493-4.808-5.898-.15zm-1.844 7.49l-1.177 4.776 10.181.202-.491-4.792-8.513-.187zM873.066 555.75c-.163 1.614-.33 3.233-.496 4.826 2.205.053 3.58.084 5.704.134l-2.033-4.879-3.175-.081zm-.786 7.56c-.179 1.685-.352 3.283-.522 4.814 3.824.077 6.134.121 9.685.193l-2.021-4.85-7.142-.157z" fill="#6d1167"/><path d="M873.778 548.584c-.125 1.286-.257 2.615-.391 3.963 2.732.075 4.31.114 6.89.184l-.996-3.99-5.503-.157zm1.131 7.213l1.239 4.863 6.144.144-1.21-4.848-3.33-.086-2.843-.073zm1.939 7.613l1.232 4.84 6.1.12-1.204-4.825-6.128-.135z" fill="#510a4c"/><path d="M881.805 445.946l-.686 4.975 11.278 1.128-.083-5.413c-3.638-.24-7.205-.477-10.509-.69z" fill="#6d1167"/><path d="M869.196 445.147v7.587l7.895 40.24 6.172-46.935c-5.502-.357-10.443-.672-14.067-.892z" fill="#85077a"/><path d="M869.196 445.147v49.911l9.345-1.601-8.037-48.228c-.361-.022-.969-.062-1.308-.082z" fill="#6d1167"/><path d="M869.196 489.831v35.325c1.341 1.633 2.511 3.124 3.453 4.455l4.925-36.638z" fill="#510a4c"/><path d="M877.091 493.779l-5.616 34.243a51.92 51.92 0 011.36 1.847l8.925.323-2.735-36.09zm-2.785 38.472c.447.87.695 1.61.695 2.2 0 .388-.093 1.633-.222 3.201 3.08.11 4.686.165 7.567.267l-.409-5.396zm.232 8.213a921.965 921.965 0 01-.472 5.11l5.755.178 1.863-5.057-7.146-.23z" fill="#85077a"/><path d="M882.624 540.725l-1.344.423-3.719 4.534c4.356.135 7.406.227 11.357.35l.708-5.081-7.002-.226zm-4.58 7.98l.636 3.984 9.277.248.548-3.934c-3.603-.103-6.566-.186-10.461-.298zm1.15 7.202l.773 4.843c2.53.06 4.484.105 6.879.16l.667-4.79-8.319-.213zm1.21 7.581l.77 4.823 4.628.092.667-4.782-6.064-.133z" fill="#85077a"/><path d="M926.362 550.055l-.51 3.86c1.298.029 3.002.07 3.849.085.008-1.231.014-2.559.021-3.86-.784-.018-2.294-.058-3.36-.085zm-.927 7.024l-.621 4.704c1.213.025 4.003.09 4.82.107.01-.924.019-2.041.028-3.12l.014-1.586c-.546-.011-3.281-.081-4.24-.105zm-.971 7.36l-.622 4.704c2.365.042 4.585.08 5.669.095v-.007c.03-.816.06-2.58.088-4.685-.448-.007-3.922-.082-5.135-.107z" fill="#6d1167"/><path d="M923.877 514.171l-2.507 6.038-.441 11.4 8.844.32c0-3.43-.005-6.707-.018-9.626zm-3.037 19.741l-.207 5.352c3.319.114 8.5.295 9.132.313v-.041c.003-1.129.003-2.221.005-3.32h.003v-1.985zm2.998 8.13l5.911 2.19c.003-.495.004-.983.005-1.482 0-.175.003-.348.003-.523-1.004-.03-4.304-.136-5.918-.186z" fill="#a854aa"/><path d="M923.534 537.64l-.202 1.716 2.121.073zm-.516 4.376l-.595 5.034c3.396.097 5.945.167 7.315.198.006-1.255.01-2.533.014-3.813l-1.342-1.25-5.392-.17zm-.937 7.929l-.458 3.874c3.195.078 5.555.13 7.284.164l.66-3.847c-1.777-.041-4.37-.108-7.486-.191zm-.83 7.03l-.558 4.716c2.178.048 5.455.124 6.867.153l.804-4.692c-1.134-.026-4.861-.12-7.114-.176zm-.872 7.38l-.557 4.714c2.785.052 4.76.086 6.48.115l.803-4.689c-1.083-.02-4.392-.091-6.726-.14z" fill="#510a4c"/><path d="M923.534 537.64l-1.522 1.67 1.587.055zm-3.892 4.27l-4.49 4.924c3.351.1 6.42.19 8.735.256l-.189-5.053-4.056-.127zm-6.611 7.788l.823 3.926c4.096.104 7.553.19 10.286.253l-.145-3.883c-2.98-.078-6.633-.177-10.964-.296zm1.491 7.111l1 4.766c3.508.08 6.614.15 8.913.2l-.177-4.725c-2.455-.06-5.357-.13-9.736-.24zm1.563 7.457l.997 4.752c3.044.057 5.596.104 7.628.14l-.176-4.717c-1.979-.04-4.595-.093-8.449-.175z" fill="#85077a"/><path d="M924.104 514.285l-3.304.455-2.738 16.765 5.617.203zm-6.416 19.515l-.871 5.332c2.56.09 3.699.128 5.403.186l1.314-1.678.089-3.628zm-1.308 8.008l-.822 5.038.745.022 3.872-4.942-3.795-.118z" fill="#6d1167"/><path d="M912.1 513.436s-.541 8.926-.31 17.823l.123.024 7.644.277 3.016-17.964zm-.229 20.156c.08 1.852.197 3.666.366 5.364.197.007.38.02.558.038 2.875.101 2.958.101 5.158.178l.756-5.336zm.702 8.096c.31 2.062.725 3.824 1.273 5.092.075.003.15.01.224.022l2.45.072c.359-1.427 1.106-3.877 1.258-5.023l-5.205-.163zM904.934 447.476l2.77 5.54 4.889-5.021c-2.461-.168-5.023-.341-7.659-.519z" fill="#a854aa"/><path d="M896.36 446.902l11.344 6.114-.215-5.367c-3.737-.252-7.258-.49-11.128-.747zM889.44 446.446l-2.36 5.28 4.673 4.996 3.945-9.864c-2.138-.142-4.176-.275-6.258-.412z" fill="#b05ea7"/><path d="M892.913 446.675l-3.416 9.563-.161 39.313 16.112-11.761c5.726-1.615-5.7-31.623-7.652-36.793l-4.883-.322z" fill="#85077a"/><path d="M896.36 446.902l8.605 35.277 4.833-17.885-2.094-11.278-6.894-5.819-4.45-.295z" fill="#6d1167"/><path d="M904.32 482.34l3.384-29.324 5.156 4.189-2.74 26.585z" fill="#510a4c"/><path d="M905.655 483.467l-1.773 4.995 7.918 42.798.101.023 4.351.157.198-19.777-1.611-22.557zm6.579 50.138l.996 5.386c.103.004.196.014.284.028 1.136.04.99.033 2.016.07l.352-5.354zm1.502 8.12l.94 5.08c.011 0 .03.01.048.016l.798.024-.025-5.065-1.762-.055z" fill="#85077a"/><path d="M912.94 550.514l-1.016 3.061c1.42.037 2.513.064 3.793.096l-.84-3.157zm-2.058 6.205l-1.564 4.718c4.06.094 5.45.121 8.518.19l-1.27-4.767c-2.335-.059-2.755-.067-5.684-.141zm-2.447 7.384l-1.565 4.718c4.977.097 9.443.183 12.947.248l-1.265-4.752c-3.263-.07-5.22-.108-10.117-.214z" fill="#6d1167"/><path d="M898.737 541.245l.437 5.102c4.77.146 10.286.317 14.066.43l-5.094-5.229c-2.613-.083-6.46-.208-9.409-.303zm.69 8.07l.338 3.938c4.895.13 10.302.274 14.131.372l.95-3.878c-4.284-.118-9.916-.277-15.418-.433zm.611 7.126l.41 4.789c4.172.097 8.09.188 11.521.266l1.156-4.721-13.087-.334zm.642 7.492l.408 4.774 9.072.18 1.156-4.721c-2.698-.058-7.439-.163-10.636-.233z" fill="#510a4c"/><path d="M904.857 483.44c-1.851.214-5.3 33.964-6.599 47.35l14.084.509-7.377-47.832a.16.16 0 00-.108-.027zm-6.823 49.658c-.189 1.982-.32 3.378-.32 3.378l1.25 2.03 14.568.514-.832-5.399zm3.56 8.239l10.466 5.406 2.676.079-.785-5.09-12.357-.395z" fill="#6d1167"/><path d="M905.078 482.955l-8.658 8.43-4.964 39.158 9.772.354zm-13.915 49.898l-.678 5.354 10.127.357.43-5.358z" fill="#85077a"/><path d="M877.091 494.101l.39 35.936 13.032.472zm.415 38.264l.022 5.384c5.347.19 8.765.31 13.442.475l.122-5.374-.104-.004zm.034 8.196l.021 5.12c.37.012.597.02.964.03l8.074-4.857-9.06-.293z" fill="#6d1167"/><path d="M890.303 490.879l-13.212 3.544 10.411 35.977 3.967.144zm-2.122 41.867l1.573 5.435.172.006 1.666-3.484-.055-1.837z" fill="#85077a"/><path d="M905.448 483.145l-16.918 7.734 1.18 39.6 2.728.1zm-15.668 49.658l.16 5.385.407.014 1.46-5.327z" fill="#a854aa"/><path d="M877.637 490.776c-1.106 0-1.264 1.438-1.21 2.484.052 1.046.052 2.877 1.052 2.877s1.159-1.308 1.159-2.68c0-1.373-.264-2.746-1-2.68z" fill="#d6d6d6"/><path d="M913.74 549.718c.071 1.072.207 2.045 1.375 1.984.985.061 1.402-1.003 1.51-1.905l-2.884-.08zM905.25 479.65c-1.397.191-1.482.855-1.482 2.564s.342 3.304 1.481 3.304c1.14 0 1.595-1.595 1.595-2.962 0-1.367-.466-3.06-1.595-2.905z" fill="#d8d8d8"/><path d="M890.124 540.967l.194 5.107 3.5.109-2.644-5.182-1.05-.034zm.309 8.091l.15 3.95 6.811.181-2.037-3.99-4.924-.14zm.272 7.144l.184 4.804c3.564.083 7.443.175 10.621.248l-2.47-4.839-8.335-.213zm.287 7.518l.183 4.79c4.745.094 10.197.204 14.182.281l-2.455-4.81-11.91-.26z" fill="#b05ea7"/><path d="M890.479 540.979l1.811 5.156 9.38.29-.18-5.091-11.011-.355zm2.867 8.162l1.398 3.977c2.32.062 5.047.137 7.169.193l-.139-3.93c-2.54-.071-5.65-.161-8.428-.24zm2.528 7.193l1.696 4.828c1.449.034 3.253.077 4.625.108l-.17-4.778-6.151-.158zm2.653 7.551l1.687 4.805 2.245.044-.169-4.766-3.763-.083z" fill="#a854aa"/><path d="M890.067 535.734c-.814 0-1.34.953-1.45 2.407l3.41.12c-.212-1.23-.935-2.527-1.96-2.527zm-1.019 5.198c.333.706.828 1.193 1.422 1.28.592.087 1.014-.458 1.28-1.193l-2.702-.087z" fill="#d8d8d8"/><path d="M321.056 360.6l-38.864 2.97-.067 2.199c1.402-.413 3.034-.654 4.61-.545 5.911.407 37.913 2.446 45.455 3.465 7.374.996 547.724 49.33 575.469 51.487-.017-.29-.033-.588-.048-.934-.032-.738.013-2.178-.174-4.05-24.856-2.475-494.364-46.477-586.381-54.591zm-39.046 8.915l-.167 5.476a24.21 24.21 0 011.834.017c1.655.077 25.725 2.123 63.568 5.383.03-2.725.324-4.504 2.778-4.368 2.637.147 25.344 2.198 28.567 2.491 3.224.293 4.396 1.026 4.542 2.93.014.173.02.978.025 2.047 127.573 11.03 343.169 29.83 461.55 40.187v-.147c0-3.222.644-3.545 2.578-3.706.336-.028 1.111-.019 2.038.004-161.729-14.457-557.851-49.86-567.312-50.314zm-.285 9.376l-.169 5.508c.735.158 1.506.291 2.326.393 1.62.11 28.224 2.323 63.293 5.248.018-2.455.033-4.48.04-5.692-33.763-2.848-57.75-4.851-65.49-5.457zm101.433 8.494c-.002 1.682-.004 3.404-.01 5.655a906577.55 906577.55 0 01461.611 38.718c-.008-1.317-.029-4.341-.032-4.99-118.098-10.145-332.81-28.482-461.569-39.383zm484.726 34.102c.896.593 1.312 1.672 1.312 3.817v.517c31.955 2.799 54.813 4.807 59.421 5.226a160.973 160.973 0 00-.056-2.576c-.031-.655-.064-1.164-.124-1.573-1.775-.156-36.891-3.296-60.553-5.41zm1.312 7.385v4.943c33.099 2.79 56.01 4.73 59.538 5.048-.024-1.775-.048-3.47-.07-4.831-4.16-.388-27-2.365-59.468-5.16z" fill="#949494"/><path d="M292.035 329.145c-3.873.408 37.098 27.721 37.098 27.721 12.37 1.42 567.304 54.396 577.833 55.343a24.127 24.127 0 00-1.435-4.498c-24.114-2.602-572.794-56.555-577.621-56.756-4.892-.204-11.211-3.873-1.223-3.261 9.521.583 525.872 52.626 577.458 57.312a24.297 24.297 0 00-2.924-3.927c-30.015-3.226-576.633-58.889-580.65-58.889-4.076 0-8.764-2.038 2.243-1.427 10.782.6 551.08 55.826 576.558 58.48a30.821 30.821 0 00-4.62-3.414c-34.717-3.309-580.584-59.958-584.576-59.958-4.077 0-17.937-2.853-1.63-1.63 16.156 1.212 569.858 58.727 583.691 60.19-2.123-1.077-4.538-2.063-7.29-2.921-24.55-2.59-589.078-62.769-592.912-62.365z" fill="#9d9d9d"/><path d="M321.183 341.579l-25.878 3.387-13.379 9.287-1.754 40.951 1.051.114-3.363 110.267c10.084.369 36.048 1.382 68.445 2.68.067-19.65.135-38.06.202-42.289.11-6.94.467-49.672.638-71.793l.1-13.792c.03-2.725.324-4.504 2.778-4.368 2.637.147 25.344 2.198 28.567 2.491 3.223.293 4.396 1.026 4.542 2.93.014.173.02.978.025 2.047l-.026 13.605c-.07 19.304-.248 50.467-.146 57.307.073 4.85.008 29.964-.078 55.34 6.92.282 13.633.56 20.495.843 6.486-20.894 25.264-80.992 26.63-86.454 1.63-6.523 16.102-51.978 16.306-59.52.204-7.542-3.873-10.599-8.561-11.21-4.688-.612-89.688-9.377-89.688-9.377zm-43.447 168.05l-.194 6.35c3.958.208 29.777 1.187 68.726 2.625l.022-6.334c-36.85-1.388-61.832-2.347-68.554-2.642zm105.157 4.016l-.024 6.304c5.497.202 12.394.451 18.188.663-.197-.857-.208-1.638.03-2.512.068-.249.5-1.658 1.142-3.734l-19.336-.721zm-105.49 6.928l-.185 6.039c9.423.27 36.673 1.125 69.014 2.148l.02-5.78c-37.659-1.272-66.189-2.25-68.162-2.359-.24-.013-.463-.03-.688-.048zm105.45 3.645l-.02 5.7 21.886.7c-.755-2.397-1.334-4.154-1.594-4.772-.145-.345-.279-.653-.414-.964-6.37-.213-13.848-.462-19.857-.664zm-105.763 6.609l-.154 5.047c6.594.112 32.366.799 69.264 1.818l.017-4.8c-37.265-1.115-65.609-1.961-67.835-2.016-.446-.01-.874-.028-1.292-.05zm105.728 3.162l-.017 4.72 24.615.693c-.49-1.622-.998-3.304-1.433-4.719l-23.165-.694zm-106.016 6.252l-.189 6.207c8.55.146 34.07.72 69.546 1.547l.026-5.969c-37.604-.977-66.304-1.719-68.974-1.773-.143-.003-.27-.008-.409-.012zm105.983 2.736l-.022 5.876c8.412.198 18.622.442 27.691.657-.59-1.976-1.184-3.97-1.75-5.857l-25.919-.676zm-106.27 6.704l-.18 5.88c7.564.187 35.637.8 69.777 1.537.011-1.757.021-3.503.032-5.722-37.804-.885-63.52-1.506-69.63-1.695zm106.236 2.549l-.02 5.658c8.665.185 21.043.446 30.407.646-.584-1.969-1.074-3.629-1.674-5.643l-28.713-.661z" fill="#5a1755"/><path d="M278.815 474.273l-.29 9.486 5.913 22.075c2.504.094 5.278.2 8.552.327l4.14-16.394-9.784-14.676zm6.725 35.674l1.724 6.436 3.113.121 1.593-6.305c-2.195-.086-4.685-.182-6.43-.252zm2.962 11.058l.38 1.419.352-1.393-.732-.026z" fill="#6d1167"/><path d="M318.417 404.368l7.075 11.83 15.566-2.883-.883-7.568-7.691-.767a2274.79 2274.79 0 01-14.067-.612z" fill="#a854aa"/><path d="M346.282 514.433l-5.02 3.985 5.006.186.015-4.171zm-10.325 8.197l-7.035 5.585 17.31.545.02-5.78c-4.084-.137-6.448-.22-10.295-.35zm-12.086 9.595l-1.465 1.163.67 3.67c7.136.194 14.746.403 23.124.634l.017-4.8-22.346-.667zm.007 9.223l1.106 6.062c7.17.164 12.804.29 21.175.485.01-1.99.017-3.754.026-5.969l-22.307-.578zm1.723 9.44l1.056 5.787 19.456.423c.01-1.757.02-3.503.031-5.722-8.315-.194-13.478-.32-20.543-.487z" fill="#510a4c"/><path d="M337.515 405.482l1.237 5.959 7.7-5.069z" fill="#973c90"/><path d="M345.303 406.258l-6.55 5.183-5.136 6.984 8.153 31.187 4.947-4.398c.11-12.178.226-26.178.327-38.783z" fill="#85077a"/><path d="M346.796 436.549l-4.618 13.063 4.482 1.854c.043-4.547.087-9.319.136-14.917z" fill="#6d1167"/><path d="M342.382 447.166l.204 14.065 3.922 4.668c.034-2.198.095-8.347.164-15.683z" fill="#973c90"/><path d="M342.586 449.408l-3.255 58.58c2.561.103 4.322.17 6.974.277.067-19.65.135-38.06.202-42.289.016-1.02.045-3.966.07-6.334z" fill="#85077a"/><path d="M342.79 448.796l-15.848 58.701c6.589.262 11.999.473 19.363.768l.018-4.708zm-16.927 62.699l-1.698 6.289c6.877.256 14.016.521 22.103.82l.022-6.334c-8.258-.31-13.433-.51-20.427-.775zm-2.887 10.694l-.162.6 1.495 5.28 8.9.282 7.77-5.55c-6.94-.234-11.909-.405-18.003-.612zm2.523 10.085l.373 1.318 1.756-1.255-2.13-.063z" fill="#6d1167"/><path d="M343.076 448.915l-4.324-37.474-18.449 3.17s10.954 49.006 22.773 34.304z" fill="#510a4c"/><path d="M343.809 448.389l-20.791-23.441.407 45.863z" fill="#6d1167"/><path d="M278.67 479.006l-.81 26.58c2.397.087 5.817.216 9.882.372-2.873-10.706-7.219-22.21-9.072-26.952zm-.934 30.622l-.007.234 4.78 6.332c1.848.076 4.763.189 7.517.296-.293-1.997-.722-4.161-1.248-6.415-5.018-.198-9.053-.36-11.042-.447zm8.34 11.292l3.717 4.926c.502-1.18.697-2.815.655-4.773-1.408-.049-3.204-.111-4.373-.153z" fill="#973c90"/><path d="M292.918 485.958l-2.347 20.11c4.494.172 9.886.382 15.808.614l-2.651-18.13zm-2.821 24.168l-.74 6.338c4.833.19 11.06.427 18.557.71l-.936-6.397c-6.365-.244-12.45-.478-16.881-.651zm-1.272 10.89l-.231 1.984 20.467 2.018-.486-3.32c-7.601-.26-14.932-.512-19.75-.681z" fill="#a854aa"/><path d="M343.605 448.185l-22.625 9.988-1.835 44.436 1.21 4.627 10.742.426zm-22.182 63.14l1.677 6.419 5.831.216 1.325-6.299-8.833-.335zm2.85 10.908l1.537 5.884.98.03 1.216-5.787-3.733-.127z" fill="#85077a"/><path d="M303.728 487.399l6.37 19.43c4.32.17 9.704.385 14.59.58l-1.647-19.145zm7.719 23.548l2.11 6.44 12.027.45-.548-6.374c-4.617-.175-9.587-.363-13.59-.516zm3.596 10.971l1.941 5.921 9.486.3-.503-5.849-10.924-.372zm7.263 10.26l4.627 1.344-.104-1.208-4.523-.136z" fill="#a854aa"/><path d="M305.89 486.534l-5.045.432 3.586 19.64c3.034.118 7.489.297 10.864.43zm-.71 24.175l1.17 6.406c4.386.166 8.559.324 13.807.52l-2.968-6.47c-3.77-.144-8.736-.33-12.009-.456zm1.997 10.942l.01.052 13.8 6.263 3.967.125-2.72-5.928c-5.063-.172-10.744-.364-15.057-.512z" fill="#6d1167"/><path d="M325.872 532.285l-.908 4.825 3.53.097-1.53-4.89c-.381-.01-.713-.02-1.092-.032zm-1.726 9.17l-1.132 6.01 8.753.2-1.897-6.062-5.724-.148zm-1.762 9.357l-1.083 5.747 13.34.29-1.811-5.789-10.446-.248z" fill="#85077a"/><path d="M316.989 532.02l-2.372 4.81c3.88.104 7.882.213 12.24.332l.034-4.589-1.061-.29c-3.062-.09-6.017-.18-8.841-.263zm-4.504 9.133l-2.96 6.002c5.035.114 11.325.26 17.257.396l.044-6.026-14.341-.372zm-4.593 9.315l-2.829 5.738c6.17.135 14.209.308 21.653.47l.041-5.76c-6.556-.155-13.484-.319-18.865-.448z" fill="#6d1167"/><path d="M301.383 521.453l-1.003 5.865c6.287.196 14.683.46 22.502.707l-9.19-6.153c-3.806-.13-9.05-.307-12.31-.419zm-1.718 10.049l-.84 4.906c6.496.17 14.036.372 22.786.61l3.387-4.76-25.333-.756zm-1.587 9.279l-1.042 6.093c4.7.104 11.358.257 17.281.391l4.238-5.955-20.477-.53zm-1.61 9.413l-.991 5.799 12.433.275 4.059-5.703c-5.155-.123-11.403-.271-15.5-.371z" fill="#85077a"/><path d="M294.133 521.202l-5.156 2.096.595 3.685c4.234.13 9.085.281 14.651.455l.711-5.864c-3.828-.131-7.729-.265-10.801-.372zm-3.877 10.023l.805 4.983c3.581.092 7.359.188 12.061.313l.594-4.898c-6.75-.202-9.323-.276-13.46-.398zm1.517 9.396l.994 6.16c2.91.063 5.58.12 9.088.198l.737-6.082c-5.21-.134-7.11-.181-10.819-.276zm1.532 9.495l.944 5.85c2.665.058 3.345.076 6.499.146l.702-5.797c-3.07-.074-5.582-.136-8.145-.2z" fill="#510a4c"/><path d="M289.028 523.12l-.972 3.817 2.108.065zm-2.381 8l-1.664 4.934c1.973.048 4.849.123 7.378.188l-1.186-4.99-4.528-.133zm-3.133 9.292l-2.066 6.131c3.408.068 7.863.162 13.43.284l-1.465-6.165c-4.613-.118-7.592-.192-9.899-.25zm-3.159 9.373l-1.963 5.823c3.459.083 10.385.237 18.675.42l-1.392-5.854c-6.936-.17-11.936-.297-15.32-.39z" fill="#6d1167"/><path d="M277.957 502.385l-.097 3.2 1.905.072zm-.22 7.243l-.195 6.35c1.072.057 4.013.18 8.115.343l-3.6-6.516c-1.463-.06-3.453-.139-4.32-.177zm-.335 10.945l-.184 6.039c.938.026 2.786.083 4.064.121l8.51-2.925-1.553-2.812c-5.446-.192-9.521-.34-10.15-.375-.238-.013-.462-.03-.687-.048z" fill="#b05ea7"/><path d="M289.17 523l-11.874 3.614c2.464.07 6.215.183 10.856.325zm-12.08 7.827l-.154 5.047c1.697.029 4.753.099 8.853.2l1.278-4.942c-2.59-.076-8.22-.244-8.684-.256-.447-.01-.875-.028-1.293-.05zm-.288 9.414l-.189 6.207c1.456.025 4.055.078 6.46.127l1.587-6.134c-1.954-.049-6.984-.179-7.45-.188-.142-.003-.27-.008-.408-.012zm-.287 9.44l-.18 5.88c.666.017 3.415.077 4.389.1l1.506-5.826c-2.24-.058-4.643-.12-5.715-.154z" fill="#510a4c"/><path d="M342.994 444.516c-1.325 0-1.937 2.242-1.937 4.077 0 1.834.204 3.363 1.325 3.567 2.344.204 2.548-2.243 2.548-3.873 0-1.631-.611-3.771-1.936-3.771zm-54.36 76.494c-.268.415-.472.994-.472 1.728 0 1.682.153 2.14.714 2.191 1.172.102 1.426-.815 1.58-2.395.06-.626.024-1.106-.07-1.463l-1.752-.061zm35.976 11.237c-.009 1.537.123 2.605 1.459 2.716 1.421-.095 1.968-1.373 2.177-2.607l-3.636-.109z" fill="#d8d8d8"/><path d="M387.277 402.76l-.79 11.326 14.223 16.227 6.615-25.762z" fill="#510a4c"/><path d="M409.872 482.595l-16.857 2.833 5.686 24.964 4.701.194c1.696-5.464 4.25-13.67 7.097-22.816zM401.113 524.829l-2.431 1.394.14 4.206 5.897.189c-.755-2.397-1.334-4.154-1.594-4.772-.145-.345-.279-.653-.414-.964l-1.598-.053zm-2.155 9.644l.157 4.695 8.301.234c-.491-1.622-.998-3.304-1.433-4.719l-7.025-.21zm.299 8.934l.196 5.842 11.001.261c-.59-1.976-1.184-3.97-1.75-5.857l-9.447-.246zm.308 9.21l.189 5.632 13.384.285c-.584-1.969-1.074-3.629-1.674-5.643l-11.899-.274z" fill="#6d1167"/><path d="M403.316 526.351c-.77.642-1.62 2.129-2.502 4.141l3.743.12-.008-.522c-.525-1.654-.961-2.992-1.233-3.739zm-4.06 8.13a124.81 124.81 0 00-1.542 4.648l6.973.196-.07-4.682-5.361-.161zm-2.797 8.853a289.575 289.575 0 00-1.6 5.806l9.977.237-.087-5.827-8.29-.216zm-2.472 9.155c-.52 2.038-.995 3.953-1.394 5.608l12.376.263-.083-5.62-10.9-.251z" fill="#85077a"/><path d="M395.78 524.65l-4.737 5.53c4.339.14 8.578.275 12.495.4l.603-1.759c-.451-1.395-.832-2.539-1.016-2.975-.145-.345-.279-.653-.414-.964l-6.93-.232zm-8.128 9.484l-.87 1.013-.076 3.673 13.872.39 1.591-4.64-14.517-.436zm-1.035 8.943l-.122 5.864 10.658.254 1.987-5.791-12.523-.327zm-.192 9.237l-.117 5.65 7.781.165 1.919-5.594-9.583-.22z" fill="#510a4c"/><path d="M388.908 483.303l1.218 26.737 13.122.54-7.258-25.01zm1.394 30.618l.288 6.31 10.467.381c-.197-.856-.208-1.638.03-2.512.068-.249.5-1.658 1.142-3.734l-11.927-.445zm.482 10.562l.259 5.697 12.536-3.075a23.609 23.609 0 00-.454-1.259c-.145-.345-.279-.653-.414-.964l-11.927-.399zM382.854 524.218l-.021 5.7 7.296.233-4.867-5.852-2.408-.081zm-.036 9.77l-.017 4.722c2.103.058 4.627.13 6.935.195l.211-4.702-7.129-.214zm-.033 8.989l-.022 5.876 6.518.155.264-5.855-6.76-.176zm-.034 9.253l-.02 5.658 6.145.13.254-5.642-6.379-.146z" fill="#85077a"/><path d="M393.157 460.78l-10.166 19.747c-.02 8.906-.049 18.865-.084 29.216 2.867.117 5.67.233 8.491.35l.626-35.29zm-10.264 52.865l-.024 6.304 8.35.305.111-6.294-8.437-.315zm-.04 10.573l-.003 1.055 7.28 4.878.913.03.1-5.686-8.29-.277z" fill="#6d1167"/><path d="M383.006 457.09c.027 6.531-.003 21.511-.054 38.321l10.747-29.24z" fill="#973c90"/><path d="M382.961 443.167c-.007 5.022-.005 9.28.025 11.236.022 1.53.028 5.555.028 10.492l13.49 3.68-9.817-24.44z" fill="#a854aa"/><path d="M383.626 412.563l-.56.213c-.05 11.623-.102 23.672-.109 32.196l12.4 25.685.931-15.64-6.89-42.454z" fill="#85077a"/><path d="M427.957 406.395l-1.087 12.173 3.998 2.561c.947-3.269 2.478-8.346 4.203-14.098z" fill="#85467e"/><path d="M424.478 406.084l-1.29 11.35 6.516 4.25 1.41-15.007z" fill="#510a4c"/><path d="M407.454 404.563l-.982 7.772 18.84 11.899 1.726-17.921z" fill="#85467e"/><path d="M399.956 403.893l.354 18.206 13.621-6.41-2.003-10.726zM383.068 412.465l10.134 48.704 1.419-57.752s-11.55 1.685-11.553 9.048z" fill="#6d1167"/><path d="M383.11 402.388l-.042 10.077 11.553-9.048z" fill="#85077a"/><path d="M279.397 504.24c-.204 8.765-.102 49.532-.102 52.691 0 3.16-.102 3.465-1.529 3.567-1.427.102-10.191-.102-12.943 0-2.752.102 2.752-58.704 2.752-58.704z" fill="#c37d06"/><path d="M321.183 341.579l-3.027.396c.742.13 1.588.215 2.416.215 1.183 0 51.824 5.076 120.131 11.976a11.48 11.48 0 00-2.926-.765c-4.688-.611-89.688-9.376-89.688-9.376zm-12.053 1.578l-2.75.36 11.98 17.29 2.696-.206c22.58 1.99 68.043 6.158 123.937 11.327.332-1.397.618-2.675.836-3.774-65.035-6.242-113.22-10.889-116.696-11.288 0 0-10.244-6.83-20.003-13.71zm15.204 4.47c-6.487.1-.867 3.143 3.576 3.328 1.405.059 51.141 4.896 118.356 11.47a12.681 12.681 0 00-.636-3c-66.533-6.638-116.122-11.558-118.943-11.731a35.376 35.376 0 00-1.687-.066 24.631 24.631 0 00-.666 0zm-27.957 13.655l-14.839 2.033-1.366 31.89 1.051.113.159-5.203c.286-.77.576-1.176.87-1.16.921.055 28.31 2.266 64.893 5.228l.1-13.792c-37.844-3.26-61.913-5.306-63.568-5.383-.66-.03-1.267-.033-1.834-.016l.167-5.477c3.712.178 71.889 6.183 159.933 13.995.45-1.612.882-3.183 1.286-4.688-62.976-5.674-108.968-9.853-111.039-10.133-7.542-1.02-39.544-3.058-45.455-3.465-1.576-.11-3.208.132-4.61.545l.067-2.198 21.451-1.64zm146.852 17.54h.003c.32-1.189.618-2.326.899-3.42-.28 1.088-.586 2.242-.902 3.42zm3.081-15.835zm.027.638c.003.123.007.247.007.373 0-.127-.004-.25-.007-.373zm0 .987zm-.046.674c-.017.167-.044.362-.069.552.025-.189.052-.385.069-.552zm-.111.873zm-.16.976zm-1.661 7.37l-.125.493.127-.493zm-162.635 4.386c7.74.606 31.727 2.61 65.49 5.457-.007 1.212-.022 3.237-.04 5.692-35.07-2.925-61.672-5.138-63.293-5.248-.82-.102-1.59-.235-2.326-.393zm101.432 4.6l-.026 13.605c15.11 1.226 36.294 2.951 53.605 4.357.378-1.27.754-2.535 1.137-3.832-17.665-1.478-39.376-3.298-54.726-4.58.007-2.252.01-3.974.011-5.656 17.01 1.44 36.68 3.11 56.315 4.778.362-1.243.716-2.475 1.068-3.7-20.117-1.745-40.118-3.48-57.384-4.972zm57.384 4.972h.002c.03-.102.056-.198.085-.3l-.086.3zm-1.067 3.7a1354.454 1354.454 0 000 0z" fill="#6f1a68"/><path d="M317.718 403.545c10.6.407 10.6 5.707 11.211 15.288.612 9.58-.204 56.462-.408 62.373-.203 5.911-.815 10.192-8.357 10.192s-27.988-1.41-33.492-2.02c-5.503-.612-7.745-4.077-8.153-13.658-.408-9.58 1.427-64.004 1.834-68.285.408-4.28 2.65-5.91 7.542-5.91 4.892 0 23.3 1.408 29.823 2.02z" fill="#161616"/><path d="M316.903 409.252c6.319.612 7.542 2.039 7.95 6.523.407 4.484-.816 58.5-1.224 62.781-.407 4.28-1.019 7.338-4.892 7.338s-21.402-1.019-26.09-1.426c-4.689-.408-7.339-2.854-7.95-9.173-.612-6.319 1.427-54.424 1.834-59.52.408-5.096 1.427-8.153 6.115-8.153 4.689 0 18.957 1.019 24.257 1.63z" fill="#a9a9a9"/><path d="M286.939 363.185c-.408 15.084-.815 24.868-.815 27.518 0 2.65-.816 3.262-2.65 3.262-1.835 0-1.427 1.019-1.631 3.669-.204 2.65-2.446 104.567-2.446 106.606 0 2.038-.306 2.038-2.242 2.242-1.937.204-9.173-.204-10.498-.306-1.325-.102 4.587-100.389 4.587-100.389l2.853-45.251z" fill="#6e1c64"/><path d="M279.091 363.593c5.911.204 6.727-.408 7.134 1.427.408 1.834.51 2.242 2.854 2.446 2.344.204 39.544 3.669 41.888 3.77 2.345.103 2.752-.305 2.752-3.26 0-2.956-.815-12.434-4.994-20.996-4.178-8.56-20.995-17.427-44.028-22.727-23.034-5.3-103.345-9.784-111.906-9.58-8.561.203 24.664 4.28 24.664 4.28l50.755 9.988 28.945 18.549z" fill="#efad27"/><path d="M139.64 507.852l50.43-1.75 4.875-138.199-55.655.619z" fill="#6b1564"/><path d="M141.954 505.41c10.075.11 41.266-.182 45.639-1.348 4.372-1.166 1.02 7.58 1.02 7.58l-1.312 43.142-47.66-.874s-1.641-48.754 2.313-48.5z" fill="#ddd"/><path d="M141.835 367.955c-1.603-.084-7.698 3.555-7.698 3.555l-2.989 52.562-2.576 71.939-.289 11.39 13.667-.839c.084-25.509.18-52.399.123-56.93-.103-8.245.515-70.701.412-73.071-.103-2.37.31-7.42-.309-8.452-.058-.096-.176-.145-.341-.154z" fill="#42023f"/><path d="M141.954 505.41c-4.32.203-7.844.448-11.578.42-.931-.007-3.119 1.254-3.638 3.394l-.897 43.471 16.026-.103c-.047-5.11.016-25.827.087-47.181z" fill="#ccc"/><path d="M47.049 503.328c-.618 11.75-2.267 51.532-2.164 54.211.103 2.68.515 3.195 2.885 2.99 2.37-.207 4.123-.31 4.947-.825.825-.516-1.546-2.99-1.546-2.99v-52.767z" fill="#fedd30"/><path d="M51.171 504.05c-4.019 2.576-4.431 4.019-4.122-.928.31-4.947 2.886-79.152 3.298-83.893.412-4.741 1.649-46.173 2.061-48.955.412-2.783 1.65 2.782 1.752 6.596.103 3.813-1.546 84.718-1.546 84.718z" fill="#5c233d"/><path d="M116.723 642.297c-6.464-10.488-6.464-16.586-6.098-25.49.366-8.902 3.78-42.441 4.39-48.051.61-5.61-10.122 1.951-10.122 1.951l-3.293 18.782-2.805 45.247 11.586 8.903z" fill="#b55a00"/><path d="M214.418 633.713c-1.792 1.85-1.965 2.254-4.161 2.254-2.196 0-97.666-1.181-100.608-1.181-2.942 0-2.779 1.062-1.39 3.106 1.39 2.043 4.414 5.149 5.15 6.13.735.98 98.812.653 98.812.653z" fill="#c67501"/><path d="M234.778 640.997c-2.37 2.861-2.615 4.823-3.024 8.746-.408 3.923-.327 4.413-2.533 4.658-2.207.245-65.14-.408-73.803-.408-8.663 0-59.091-.409-62.687-.409-3.596 0-3.515-1.144-3.433-3.106.082-1.961.409-5.72.572-7.274.164-1.553.327-2.86.98-3.514.655-.654 29.996 1.144 29.996 1.144z" fill="#e59926"/><path d="M210.314 639.665c3.237-6.357 5.895-8.668 5.317-14.448-.578-5.779-5.779-26.122-6.126-29.936-.346-3.814-.693-10.98-.578-12.599.116-1.618 4.161 1.619 4.161 1.619l4.508 29.474 2.774 19.071z" fill="#ab6606"/><path d="M263.73 642.592c6.43.017 6.805.756 6.805-6.237s-3.236-57.192-3.28-61.354c-.047-4.321.01-2.976-2.993-2.705-3.77.34-51.18 3.583-52.314 9.441-1.134 5.86-.208 14.79 1.89 23.435 3.118 12.851 6.357 22.594 1.821 27.508-4.08 4.42-4.733 5.218-6.337 6.971-1.468 1.606-1.201 3.005 4.15 2.907 16.747-.307 33.507-.01 50.259.034z" fill="#f29c0d"/><path d="M267.378 577.93l-50.302 52.522a7.581 7.581 0 01-1.417 2.228c-4.08 4.42-4.733 5.218-6.337 6.971-1.468 1.606-1.201 3.005 4.15 2.907 4.939-.09 9.879-.125 14.82-.132l40.31-43.101c-.518-8.82-1.011-17.171-1.224-21.394zm-41.738 1.083l-14.085 11.624c.263 4.516 1.079 9.571 2.283 14.535.45 1.855.9 3.636 1.331 5.356l28.383-29.179zm44.16 41.248l-21.701 22.244c5.21.037 10.422.073 15.632.087 6.428.016 6.804.756 6.804-6.237 0-2.132-.316-8.46-.735-16.094z" fill="#d7d7d7"/><path d="M51.84 582.903c.122 6.83 5.123 28.05 6.586 35.612 1.464 7.562 3.537 17.318 4.147 20.123.61 2.805 1.585 3.415 4.878 3.537 3.293.122 34.056.32 38.282.234 4.226-.087 4.743-.518 3.104-2.329-1.638-1.81-6.295-6.381-6.812-13.022-.518-6.64 2.845-41.567 3.363-44.412.517-2.846-53.548.257-53.548.257z" fill="#f29c0d"/><path d="M92.35 581.448c-5.542.014-12.148.195-18.414.426l28.924 27.222a889.437 889.437 0 011.589-17.97zm-40.503 1.617c.098 3.552 1.418 10.697 2.886 17.863 8.69 7.741 24.43 20.388 26.118 21.835 1.501 1.287 10.414 13.153 15.072 19.651 4.618.016 8.536.02 9.81-.006 4.225-.086 4.743-.517 3.104-2.328-1.54-1.703-5.75-5.847-6.676-11.856-3.373-4.352-8.346-10.78-9.593-12.512-1.752-2.433-2.726-3.31-5.062-4.964-2.035-1.441-26.321-20.576-35.66-27.683zm7.336 39.286c1.345 6.725 2.88 13.94 3.39 16.287.61 2.805 1.585 3.415 4.878 3.537 1.178.044 6.218.095 11.954.141-1.107-3.455-2.897-5.99-5.713-8.264-2.109-1.704-8.799-7.222-14.509-11.701z" fill="#d7d7d7"/><path d="M206.5 580.602c0 3.352-.462 4.045 3.468 4.276 3.93.232 47.274.347 50.857.232 3.583-.116 4.16-.925 4.16-4.161 0-3.237 0-6.01 1.272-6.01s.925-1.503.925-3.584v-12.599c0-1.965-7.86-.924-7.86-.924l-55.48.23-69.582-2.08s-82.296.232-82.99 2.543c-.693 2.312-.983 8.973-.954 12.956.023 3.123.036 5.243.235 9.423.178 3.737.257 3.974 2.569 4.09 2.311.116 48.545-.231 51.55-.347 3.005-.115 3.583-1.156 3.815-3.583.23-2.427.115-6.01.693-7.86.578-1.849 1.387-3.93 7.513-4.276 6.126-.347 73.165-.578 79.869-.463 6.704.116 9.94 4.855 9.94 12.137z" fill="#e7931a"/><path d="M251.313 359.271c-26.349-.002-64.603 1.483-64.603 1.483s-125.735 1.725-129.184 2.07c-3.45.345-4.83 1.552-4.83 3.795 0 2.187-1.477 84.292-2.35 102.23 3.388 12.254 9.263 19.84 21.84 25.23 15.578 6.676 34.171 10.34 58.19 11.751.035-1.016.075-2.156.107-3.127.518-15.523 5.002-123.321 5.347-127.115.345-3.795.517-5.347 6.727-5.52 6.209-.172 38.56-.716 44.17-.716 5.61 0 5.123 1.464 5.123 6.586s-3.415 77.781-4.104 96.064c-.277 7.342-.637 20.298-.98 33.504 27.841-1.988 49.303-6.67 60.311-11.772 11.54-5.348 16.65-11.159 23.948-26.605 1.55-30.575 3.276-64.954 3.476-72.052.345-12.246 1.38-30.528 1.208-34.15-.06-1.245-10.595-1.655-24.396-1.656zm-64.547 146.235c-.26 9.992-.498 19.6-.694 27.547.195-7.87.44-17.764.694-27.547zm-56.39.324c-.514 15.219-1.219 34.68-1.445 40.337.226-5.657.931-25.118 1.445-40.337zm-80.094-35.725zm-.113 2.342zm-.172 5.006c-.014.461-.027.947-.04 1.433l.04-1.433zm-.09 3.418zm-.137 6.109a2196.931 2196.931 0 010-.001zm-.134 7.303a3421.929 3421.929 0 00-.04 2.64c.013-.868.026-1.79.04-2.64zm-.148 9.702a5660.4 5660.4 0 00-.172 13.721c.008-.726.019-1.457.027-2.187.046-3.863.092-7.707.145-11.534zm-.172 13.721c-.19 16.583-.31 32.011-.377 36.762.069-4.755.192-20.214.38-36.756zm201.612-1.233l.129.04-.129-.04zm.275.095l.158.058-.158-.058zm-184.226.229c-.027.003-.054.003-.08.004.026-.003.053-.003.08-.004zm184.861.048l.089.044-.089-.044zm-185.404.006l-.084.014.084-.014zm-.529.102l-.062.017.062-.017zm186.459.193l.098.063c-.032-.022-.066-.042-.098-.063zm-187.407.14l-.036.016.036-.016zm187.66.032l.092.065-.092-.065zm-188.095.194zm188.369.014l.054.043-.054-.043zm-188.807.27l-.02.017.02-.016zm-.761.666zm-.349.396l-.02.025.02-.025zm-.563.805zm-.305.543c-.046.09-.09.184-.134.277.044-.093.088-.187.134-.277zm-.276.584c-.044.101-.084.208-.126.313.042-.105.082-.212.126-.313zm193.36.278c.003.012.008.023.01.034-.002-.011-.007-.022-.01-.034zm-12.483 1.709zm-169.401.244zm169.249.733zm-169.166.929zm168.964.846l-.009.11.01-.11zm-168.934.8c.003.255.003.513 0 .78.003-.268 0-.525 0-.78zm168.814.716l-.02.287.02-.287zm-168.824.986c-.003.229-.009.463-.014.697l.014-.697zm168.714.877zm-168.756.902l-.024.6.024-.6zm168.655 2.044c-.008.367-.016.73-.021 1.092.005-.361.012-.726.02-1.092zm-.033 2.216l-.001.698v-.698zm-181.891 2.527v0zm.01 1.119zm125.833.57c-.05 2.04-.098 3.92-.136 5.423l.136-5.424zm-113.614 3.1zm-1.367 3.629l-.055.07.055-.07zm-.183.222a4.875 4.875 0 01-.072.08l.072-.08zm-.2.214zm-.309.275c-.044.036-.089.073-.135.107.046-.034.09-.07.135-.107zm-.257.196zm-.266.173zm-.394.207zm-.327.143zm-.339.122zm-.489.133zm-.41.085zm-.42.064zm-.6.054zm-.505.02zm38.024 13.08c2.213.008 4.917.013 7.932.017l-.006-.003c-2.953-.004-5.647-.009-7.926-.015zm7.932.017c4.188.006 9.31.008 14.508.01-1.68 0-2.95-.003-4.566-.004-3.327-.003-7.113-.003-9.942-.006zm14.508.01c14.601.005 31.089.003 44.261.013-13.01-.012-29.65-.008-44.264-.014h.003zm48.325.017c2.843.003 5.61.007 7.827.013-2.177-.006-5.038-.009-7.827-.013zm8.662.016zm6.309.034c.475.005 1.513.012 2.166.017.003 0 .004-.003.006-.003-.53-.005-1.773-.01-2.172-.015zm2.166.017c5.408.048 16.515.109 28.57.17-.48-.004-.939-.006-1.46-.009-4.49-.022-8.49-.044-12.41-.066-2.554-.015-4.048-.026-5.998-.039-1.948-.012-4.335-.026-5.85-.037-.739-.006-2.249-.013-2.852-.019zm29.155.172c8.274.041 12.184.059 19.614.092-6.416-.03-12.772-.058-19.614-.093z" fill="#842a81"/><path d="M271.025 467.129c-7.298 15.446-12.408 21.257-23.948 26.605-11.008 5.101-32.47 9.784-60.311 11.772-.512 19.68-.987 39.91-1.09 42.903-.173 5.002-.345 5.52-3.622 5.692-3.277.172-43.292-.173-48.984-.69-5.691-.518-4.415-.342-4.139-7.244.226-5.657.931-25.118 1.445-40.337-24.019-1.412-42.612-5.075-58.19-11.751-12.577-5.39-18.452-12.976-21.84-25.23-.022.448-.043.89-.064 1.256-.256 4.453-.469 13.554-.646 24.179 3.185 9.59 7.236 19.982 11.742 27.744 1.028-3.381 3.085-5.3 6.1-5.242.112.003.225.007.339.015 3.659.244 5.245 3.171 5.488 6.22.21 2.616.147 7.477-.26 12.195 12.182 9.61 28.824 17.254 48.8 23.417 1.618.5 3.246.962 4.876 1.397 24.397.009 55.966-.014 63.3.067.399.005 1.64.01 2.171.015 11.876-4.027 28.3-10.698 43.563-20.016a100.086 100.086 0 006.237-4.113c-.047-4.228.152-10.113.715-13.206.708-3.899 2.791-6.653 6.358-6.6.115.004.231.007.35.015 3.736.24 5.92 3.459 6.089 6.712 5.868-7.977 9.958-18.059 14.36-32.833l1.161-22.942zM49.634 494.42zm219.585 8.455l-.175 3.48.175-3.48zM49.343 515.52c-.008.73-.019 1.461-.027 2.187l.004.006c.009-.758.014-1.43.023-2.193zm206.17 7.502zm-194.526.61zm-.229 1.414zm-.152 1.173zm-.25 2.672a84.004 84.004 0 010 0zm-.128 2.169zm-.083 2.093zm12.84 2.725zm-.354 3.32zm169.466.045zm-169.72 1.847l-.05.297.05-.297zm-.173.924zm-.14.587zm-.394 1.176zm-.544 1.01zm-.166.228zm-.793.792zm-.24.171zm-.246.153zm42.53 13.889l.006.003c2.829.004 6.614.004 9.941.006-3.523-.003-6.93-.004-9.948-.008zm82.828.114zm24.259.142l2.043.011-2.043-.01z" fill="#e6e6e6"/><path d="M269.864 490.07c-4.402 14.775-8.491 24.857-14.36 32.834.002.04.007.078.009.117.122 3.293.244 6.708-.366 13.416-.61 6.707-1.22 10.488-7.074 10.488-5-.244-5.732-4.025-5.976-7.683a62.714 62.714 0 01-.105-3.26 100.091 100.091 0 01-6.237 4.113c-15.265 9.32-31.692 15.992-43.568 20.02 14.578.127 70.69.367 73 .367 2.415 0 1.833-.347 1.984-3.19.366-6.903.949-30.788 1.466-42.516.139-3.148.619-12.694 1.227-24.706zm-220.228 4.213c-.42 25.185-.637 59.144-.723 61.545-.122 3.415-.243 4.147 3.294 4.147 3.536 0 34.88-.122 46.588 0 3.995.041 15.257.051 27.93.056-1.632-.436-3.261-.898-4.88-1.398-19.976-6.163-36.618-13.808-48.8-23.417-.067.78-.14 1.557-.227 2.318-.61 5.366-.732 9.513-7.074 9.39-3.903-.365-5.488-4.633-5.61-8.048-.122-3.415 0-10.733.853-15.245.107-.566.238-1.1.391-1.603-4.506-7.762-8.557-18.155-11.742-27.745z" fill="#fab62e"/><path d="M100.624 543.266c.39-3.885.366-4.085 2.805-4.573 2.44-.488 3.171-.55 3.537 2.866.366 3.415.61 4.756.854 6.951.244 2.196 1.22 2.805 4.756 2.805 3.537 0 73.908.366 77.688.366 3.781 0 5.245-.122 5.732-3.536.488-3.415.732-4.757.854-6.586.122-1.83 1.22-2.44 2.44-2.561 1.219-.122 2.195-.244 2.804 2.073.61 2.317 1.342 7.317 1.586 9.879.244 2.56.122 4.268-6.952 4.512-7.074.244-39.759-.122-47.442.122s-40.125-.122-44.271 0c-4.147.122-5.488-.976-5.245-4.147.244-3.17.43-3.953.854-8.17z" fill="#171717"/><path d="M194.644 472.692c-.095 4.831-.172 6.209 3.967 6.209 4.14 0 54.848.172 58.987-.173 4.14-.345 4.83-1.034 5.175-5.346.345-4.312 2.587-82.272 2.587-86.239 0-3.967-1.38-5.001-6.21-5.001-4.829 0-53.153.016-56.934.382-3.78.366-4.268 1.83-4.634 5.854-.366 4.025-2.87 80.94-2.938 84.314z" fill="#1c1c1c"/><path d="M200.997 467.042c-.366 4.512-.122 6.098 4.512 6.098 4.635 0 41.71-.366 46.345-.366 4.634 0 5.366-1.098 5.488-4.513.122-3.415 2.181-67.801 2.44-71.956.365-5.895.487-7.561-5.123-7.683-5.61-.122-41.07.311-45.958.525-3.642.16-4.168.152-4.655 5.03-.488 4.878-2.805 66.767-3.05 72.865z" fill="#a6a6a6"/><path d="M122.004 383.379c5.83 0 6.267.874 6.122 5.392-.146 4.519-1.75 80.165-2.041 84.829-.292 4.664-1.02 5.539-6.267 5.684-5.248.146-52.617.583-57.281.438-4.665-.146-4.519-2.478-4.373-6.414.146-3.935 2.915-76.812 3.207-82.35.291-5.539.874-6.268 5.83-6.56 4.955-.29 48.827-1.02 54.803-1.02z" fill="#1c1c1c"/><path d="M67.055 397.808c.583-5.393 0-6.121 6.267-6.559 6.268-.437 39.937-.583 44.31-.437 4.372.146 5.1 1.166 5.1 4.227 0 3.06-2.477 67.192-2.623 72.294-.146 5.1-1.603 6.121-6.122 6.413-4.518.291-38.333.437-43.726.291-5.392-.146-5.975-1.457-5.83-7.725.146-6.267 2.04-60.779 2.624-68.504z" fill="#a6a6a6"/><path d="M151.446 470.54c-.146 3.351-.146 4.226 3.935 4.372 4.081.145 17.345-.146 21.135-.292 3.79-.146 4.518-.583 4.81-3.935.291-3.353.437-72.44.437-75.792 0-3.352-.729-4.81-3.353-4.955-2.623-.146-20.697.145-23.612.291-2.915.146-3.06 2.04-3.06 4.373 0 2.332-.438 71.856-.292 75.937z" fill="#a1a1a1"/><path d="M269.688 363.514c5.772.062 8.222.06 9.871.06 1.65 0 1.856-.412 1.856-2.68 0-2.266.515-6.492-.825-12.47-1.34-5.977-7.731-14.601-23.181-20.432-15.45-5.83-52.763-12.243-77.978-13.117-25.216-.875-45.038-.146-69.233 5.975-24.195 6.122-35.305 11.078-44.693 17.647-8.787 6.148-13.025 16.751-13.608 22.436-.583 5.684-.656 6.121.874 6.048 1.53-.072 98.092-1.676 112.084-1.822 13.993-.145 97.072-1.728 104.833-1.645z" fill="#fcc754"/><path d="M270.526 360.787c3.28-.039 3.207-.073 3.426-2.697.218-2.623.218-4.59-.146-7.214-.364-2.624-2.988-12.972-22.81-18.803-19.823-5.83-54.804-13.846-84.1-13.992-29.885-.149-49.556 5.102-74.189 12.243-23.019 6.675-35.272 20.552-35.855 26.673-.583 6.122.875 6.122 3.79 6.268 2.915.145 96.78-1.687 108.877-1.75 33.644-.173 67.366-.33 101.007-.728z" fill="#feba37"/><path d="M219.989 354.402c7.833-.31 10.925-2.474 10.925-7.42 0-4.948-3.092-6.081-9.07-7.627-5.978-1.546-16.439-3.865-18.86-4.432-2.423-.567-3.608-.773-6.7-.67-3.092.103-60.215.444-63.276.59-3.06.146-4.08.51-7.36 1.384-3.28.875-16.835 4.446-20.843 5.612-4.008 1.166-6.923 4.008-6.705 8.016.219 4.009 3.936 5.83 8.746 6.05 4.81.218 107.862-1.256 113.143-1.503z" fill="#222"/><path d="M146.865 336.853l37.441-.158c6.817 12.45-.691 10.575-1.037 15.862l-37.194.563c.26-5.421-2.398-8.895.79-16.267z" fill="#a0a0a0"/><g fill="#e3e3e3"><path d="M169.348 345.204c.183-4.146 2.988-7.378 7.5-7.561 4.513-.183 7.196 3.049 7.257 6.89.061 3.842-1.951 7.623-6.464 7.745-4.512.122-8.232-2.927-8.293-7.074zM157.48 352.529c-4.148-.138-7.41-2.908-7.642-7.418-.232-4.51 3.458-7.29 7.3-7.392 3.84-.103 7.155 1.93 7.326 6.44.17 4.511-2.837 8.264-6.983 8.37z"/></g><path d="M195.755 336.665c-.792 0-5.4.012-11.449.03l-1.037 15.862c18.375-.284 34.411-.54 36.025-.588 5.245-.16 9.037-.874 9.037-4.227 0-3.352-1.166-4.445-5.903-5.684-4.737-1.24-17.126-4.3-19.677-4.81-2.55-.51-4.081-.583-6.996-.583zm-11.597.03zm-24.094.093c-4.658.021-9.436.041-13.199.065 3.78-.024 8.569-.044 13.199-.065zm-13.199.065c-5.318.033-9.343.068-10.577.103-4.304.123-6.486.583-10.64 1.749-3.684 1.034-18.001 5.175-20.333 6.122-2.332.948-4.154 2.478-4.154 4.81 0 2.332 2.113 4.008 6.996 4.008 1.852 0 18.771-.242 37.918-.525zm-.79 16.267z" fill="#6e6e6e"/><path d="M248.236 544.764c4.036-.144 5.694-2.378 5.91-6.053.216-3.676-1.73-6.558-5.045-6.847-3.315-.288-5.333 3.243-5.405 6.414-.072 3.171 1.802 6.414 4.54 6.486z" fill="#d2d2d2"/><path d="M248.74 530.063c3.604-.145 5.91-2.883 5.838-6.198-.072-3.315-2.45-6.126-5.333-6.198-2.882-.072-5.405 2.739-5.405 6.126 0 3.387 1.442 6.414 4.9 6.27zM66.695 531.197c3.821.153 5.35-2.956 5.707-5.962.357-3.007-1.427-6.268-4.688-6.727-3.262-.459-5.708 2.7-6.013 6.217-.306 3.516 2.242 6.37 4.994 6.472z" fill="#ee3328"/><path d="M67.18 532.879c-3.823-.102-5.708 2.598-5.912 6.064-.204 3.465 1.325 6.268 4.026 6.42 2.7.153 5.81-.458 6.42-4.994.612-4.535-1.171-7.389-4.535-7.49z" fill="#d2d2d2"/><g fill="#7b1375"><path d="M181.415 522.718l-11.55.08-11.548.08-.575.246c-.815.348-1.438.83-1.936 1.5-.282.379-1.589 3.059-3.794 7.781-1.85 3.962-3.39 7.29-3.421 7.397-.056.184.052.191 2.413.154l2.472-.04 3.045-6.526c1.674-3.59 3.226-6.819 3.448-7.176a4.325 4.325 0 011.934-1.656c.52-.227.573-.228 10.017-.299l9.495-.071v-.735zm-13.874 3.983c-.18-.028-1.337 1.316-1.742 2.035-.503.892-.851 1.913-1.467 4.296-.253.98-.544 1.981-.648 2.227-.216.514-.91 1.617-1.148 1.825-.157.138-.217.325-.103.324.032 0 .305-.202.608-.449.644-.524 1.374-1.493 1.69-2.24.122-.289.478-1.567.791-2.84.6-2.434.966-3.414 1.677-4.48.23-.344.39-.655.356-.69a.024.024 0 00-.014-.008zm-6.828 2.627c-.753.003-.961.132-.504.312.254.1.273.167 1.028 3.703l.286 1.338.41-.002.41-.001 1.219-2.623c.67-1.442 1.218-2.65 1.218-2.684 0-.034-.146-.061-.325-.06-.324.001-.332.015-1.236 1.975l-.91 1.974-.228-1.05-.427-1.968-.198-.918zm6.72-.03c-.467.002-.849.039-.848.082 0 .044.135.158.299.256.247.146.29.228.25.471a164.59 164.59 0 00-.303 2.187 83.993 83.993 0 01-.302 2.129l-.049.236 1.489-.006 1.489-.007.114-.263.114-.263-1 .004-1 .005v-.306c0-.268.412-3.467.546-4.24l.05-.29zm3.547-.016a.573.573 0 00-.588.58c0 .531.537.748.902.364.384-.404.204-.946-.314-.944zm-.332 1.472c-.72.003-.883.126-.546.41l.226.191-.17 1.25c-.093.688-.197 1.428-.231 1.645l-.062.394.462-.002c.398-.002.469-.035.51-.238.101-.494.457-3.132.457-3.387 0-.257-.022-.266-.646-.263zm1.76-.008c-.567.003-.713.036-.713.16 0 .088.043.158.096.158.262-.001.285.415.097 1.738a47.945 47.945 0 01-.246 1.598c-.048.22-.018.236.432.234l.483-.002.16-1.049c.17-1.106.412-1.669.849-1.97.222-.154.26-.155.401-.007.142.148.139.297-.038 1.592l-.195 1.429.464-.002.464-.002.172-1.34c.238-1.854.228-2.063-.108-2.34-.39-.32-.94-.227-1.398.237l-.347.351.07-.394.069-.394zm4.74.007c-.445.01-.922.18-1.231.454-.552.49-.807 1.984-.46 2.687.271.548.69.738 1.534.695.63-.032.766-.073.927-.284.105-.135.19-.284.19-.33 0-.045-.268-.056-.596-.024-.563.056-.612.042-.901-.26-.242-.252-.307-.41-.307-.748v-.428l1.052-.005 1.053-.005v-.48c0-.794-.268-1.143-.96-1.253a1.681 1.681 0 00-.3-.02zm-.031.502c.214.013.39.186.39.487 0 .223-.043.242-.551.244-.304.002-.552-.038-.552-.088 0-.05.094-.216.208-.369.149-.198.338-.285.505-.274z" paint-order="fill markers stroke"/></g><path d="M237.565 594.296l17.62-.292 2.044 19.859-17.522.535z" fill="#9e2800"/><path d="M249.977 596.633c-5.403.292-6.717 5.11-6.571 7.641.146 2.531 3.066 6.669 6.765 6.571 3.7-.097 6.571-3.699 6.085-8.128-.487-4.43-3.602-6.133-6.28-6.084z" fill="#dbdbdb"/><path d="M252.654 592.934c-2.97.048-11.292.097-14.261.243-2.97.146-2.97 1.509-2.92 3.212.048 1.704.973 12.51 1.41 15.43.488 3.31.877 3.942 4.77 3.894 3.894-.05 11.877-.195 14.505-.292 2.629-.098 2.288-1.315 2.19-3.846-.097-2.53-1.508-14.163-1.8-15.818-.292-1.655-.925-2.872-3.894-2.823zm-3.315 1.74c.457.003.9.005 1.32.011 3.358.05 3.893 1.315 4.234 3.457.34 2.141 1.265 10.27 1.265 12.022 0 1.752-.243 2.433-1.8 2.58-1.558.145-10.173.291-11.73.291-1.558 0-2.143-.438-2.483-2.969-.341-2.19-1.022-11.146-1.071-12.8-.049-1.656.097-2.24 1.752-2.386 1.448-.127 5.319-.218 8.513-.206z" fill="#bb5300"/><path d="M63.381 593.317l18.714-.158 1.998 19.924-18.084.893z" fill="#9e2800"/><path d="M76.26 596.103c4.311-.105 6.309 2.839 6.73 7.044.42 4.206-1.052 7.097-5.889 7.36-4.836.263-6.991-3.207-7.149-7.254-.158-4.048 2.891-6.94 6.308-7.15z" fill="#dddbd9"/><path d="M77.991 591.872c-4.674.022-12.402.17-13.98.289-2.102.157-2.523.893-2.312 3.784.21 2.892 1.564 12.665 1.84 15.088.407 3.57.578 4.205 3.26 4.205 2.68 0 13.93-.157 16.295-.368 2.366-.21 2.629-.578 2.524-3.522-.105-2.944-1.21-16.454-1.42-17.82-.21-1.367-.736-1.525-2.891-1.63-.539-.027-1.758-.033-3.316-.026zm-3.27 2.219c1.913.007 3.596.04 4.325.12 1.946.21 1.998.84 2.314 2.208.315 1.367 1.314 12.248 1.366 13.668.053 1.419-.315 1.84-1.471 1.997-1.157.158-10.935.526-12.197.42-1.261-.105-2.418-.052-2.733-1.577-.316-1.524-1.577-11.775-1.735-14.14-.21-2.313.21-2.471 1.998-2.576 1.117-.066 4.945-.132 8.133-.12z" fill="#bb5300"/><path d="M390.162 479.377c-.08 13.385 1.862 12.978 8.52 13.396 6.657.418 22.097.782 28.897.914 6.799.132 8.315.985 8.295-13.47-.012-7.934-.739-46.191-.93-55.058-.19-8.868-1.558-11.068-7.507-12.352-5.95-1.284-23.587-2.882-29.747-2.454-4.965.346-5.866.67-6.516 10.752-.642 9.97-.95 47.784-1.012 58.272z" fill="#161616"/><path d="M393.47 479.149c.313 8.222 1.841 9.874 7.79 10.167 5.95.292 19.974.971 24.79.864 4.816-.108 6.374-2.267 6.657-7.656.284-5.39.117-54.564-.166-58.807-.283-4.244-.613-5.724-5.241-6.4-5.4-.787-21.648-2.325-26.04-2.51-4.39-.186-6.232.564-6.374 4.108-.141 3.545-1.67 53.587-1.416 60.234z" fill="#a9a9a9"/><path d="M439.772 475.459c0 14.18.17 18.621 8.883 19.305 8.713.683 20.843 1.366 26.651 1.537 5.809.17 8.371-1.88 8.884-14.35.512-12.471.276-42.283.17-54.241-.08-9.172-2.562-9.823-9.908-11.19-7.346-1.367-18.812-2.136-24.998-1.994-7.694.176-7.74-.117-8.23 8.715-.616 11.104-1.452 41.112-1.452 52.218z" fill="#161616"/><path d="M472.743 420.962c6.147.878 8.2.342 8.372 8.2.17 7.859-.171 52.447-.684 57.401-.512 4.955-1.88 6.663-6.492 6.492-4.612-.17-15.717-.854-21.867-1.367-6.15-.512-9.225-1.366-9.225-9.225 0-7.858 1.025-50.482 1.538-56.632.512-6.15 1.195-7.09 6.32-6.92 5.126.172 16.227 1.22 22.038 2.05z" fill="#a9a9a9"/><path d="M498.198 429.333c.684-7.004 2.392-9.738 7.346-9.738 4.955 0 26.822 1.709 32.801 2.563 5.98.854 8.2 3.587 8.542 10.25.341 6.663-.171 53.301-.513 59.451-.341 6.15-1.537 8.371-6.32 8.542-4.784.171-26.651-.683-32.289-1.537-5.638-.855-8.542-2.05-9.225-10.934-.683-8.883-.854-50.226-.342-58.597z" fill="#161616"/><path d="M501.786 486.222c.17 6.15 2.05 8.2 7.517 8.712 5.466.513 20.67 1.367 26.992 1.538 6.32.17 6.492-2.563 6.833-7.517.342-4.954 1.025-47.663.513-53.13-.513-5.467-1.367-8.884-7.346-9.738-5.98-.854-24.43-2.392-29.213-2.392-4.784 0-5.809 3.246-5.98 9.055-.17 5.808.171 47.663.684 53.472z" fill="#a9a9a9"/><path d="M550.474 434.8c.171-9.055 2.05-10.421 7.346-10.421s27.164 1.708 31.947 2.391c4.783.684 6.833 3.759 7.004 9.567.171 5.809-.512 52.276-.854 57.402-.342 5.125-1.196 8.37-5.467 8.541-4.27.171-29.725-.683-33.996-1.195-4.271-.513-5.809-1.709-6.15-12.3-.342-10.593-.513-47.664.17-53.985z" fill="#161616"/><path d="M553.55 434.116c.512-5.125 2.05-5.296 5.979-5.296 3.929 0 24.942 1.538 28.53 1.88 3.587.341 4.783 2.05 5.296 7.004.512 4.954-.342 48.518-.513 54.497-.17 5.98-2.392 6.492-5.808 6.492-3.417 0-22.55-.854-26.822-1.196-4.27-.342-6.32-1.88-6.663-6.834-.341-4.954-.512-50.567 0-56.547z" fill="#a9a9a9"/><path d="M600.359 491.005c-.171 9.909 1.537 11.617 6.492 11.959 4.954.341 26.48 1.366 30.921 1.196 4.442-.171 5.296-1.196 5.467-7.688.17-6.492 1.025-51.764.683-57.06-.341-5.296-2.562-8.883-6.15-9.567-3.587-.683-25.625-2.733-29.555-2.733-3.929 0-7.175.854-8.029 7.517-.854 6.663 0 49.201.17 56.376zM647.852 440.096c.17-8.03 3.416-8.713 8.029-8.542 4.613.17 23.063 1.708 28.017 2.392 4.955.683 5.98 2.904 6.321 8.37.342 5.467.171 49.202-.17 56.377-.342 7.175-2.392 8.713-6.492 8.713s-24.43-1.026-29.384-1.538c-4.955-.513-6.834-3.075-7.005-9.738-.17-6.662.342-50.055.684-56.034z" fill="#161616"/><path d="M649.902 443.17c.512-7.004 1.025-8.2 5.979-8.029 4.954.171 22.209 1.538 26.992 2.221 4.784.684 5.125 3.246 5.296 9.225.171 5.98 0 44.076-.683 49.885-.684 5.808-2.05 6.833-6.834 6.833-4.783 0-19.817-.854-24.088-1.195-4.27-.342-6.662-1.538-6.833-8.713-.171-7.175 0-43.393.17-50.226zM601.726 438.387c.512-6.662 2.562-7.004 6.15-6.833 3.587.17 24.942 2.05 28.7 2.392 3.759.341 4.955 2.22 5.125 8.541.171 6.321-.17 46.297-.512 51.422-.342 5.125-1.538 6.663-5.809 6.834-4.27.17-22.892-.683-26.821-1.025-3.93-.342-5.296-2.734-5.638-8.884-.341-6.15-1.366-47.322-1.195-52.447z" fill="#a9a9a9"/><path d="M693.277 449.134c0-9.422 1.208-14.013 7.731-14.013s20.707 1.308 26.264 1.791c5.557.484 6.352 3.524 6.594 10.29.241 6.764.241 42.883 0 50.856-.242 7.973-2.658 10.751-6.04 10.751-3.383 0-23.073-.845-27.543-1.208-4.47-.362-6.523-1.691-6.644-12.2-.12-10.51-.483-38.173-.362-46.267z" fill="#161616"/><path d="M696.901 498.662c.12 3.986.966 5.436 4.59 5.678 3.624.241 20.295 1.208 24.04 1.208 3.744 0 5.194-.846 5.556-5.436.363-4.59.604-49.89.242-53.273-.362-3.383-1.45-5.92-5.436-6.282-3.986-.362-20.294-1.45-23.798-1.329-3.503.121-5.436 2.658-5.677 9.664-.242 7.007.241 44.576.483 49.77z" fill="#a9a9a9"/><path d="M737.246 497.816c.236 7.852 1.176 11.476 6.585 11.718 5.41.242 22.106 1.087 27.045.966 4.938-.12 5.762-2.416 5.997-9.18.235-6.765-.118-48.562-.47-53.273-.353-4.711-2-7.852-6.233-8.215-4.233-.362-21.753-1.208-26.104-1.208-4.35 0-5.996 1.088-6.467 6.524-.47 5.436-.47 46.266-.353 52.668z" fill="#161616"/><path d="M740.147 500.353c.145 3.621 1.208 5.799 4.832 5.92 3.624.12 18.724.845 22.47.724 3.744-.12 6.522-.845 6.885-5.557.362-4.71.241-45.783 0-50.01-.242-4.229-1.208-6.886-5.557-7.249-4.349-.362-19.449-.966-23.918-.966-4.47 0-4.108 3.02-4.35 6.402-.24 3.383-.58 45.293-.362 50.736z" fill="#a9a9a9"/><path d="M782.307 440.799c3.744.362 3.624 1.208 3.624 6.281 0 5.074.604 54.723.604 58.588 0 3.866-.967 5.074-3.383 5.074s-4.349.483-4.47-5.074c-.12-5.556-.483-56.896-.362-60.158.121-3.262-.12-4.832 3.987-4.711zM788.347 448.41c.362-5.8 2.295-6.766 6.523-6.766s16.912.725 21.02 1.45c4.106.725 5.435 3.02 5.677 8.577.241 5.557.604 49.89.12 54.48-.483 4.591-2.536 5.799-5.436 5.92-2.899.12-19.69-.363-22.83-.846-3.142-.483-4.833-1.208-5.074-7.852-.242-6.644-.242-49.528 0-54.964z" fill="#161616"/><path d="M790.763 452.033c.241-4.832 1.087-5.798 4.832-5.798 3.744 0 14.737.483 18.12.725 3.382.241 4.832 2.536 4.832 6.04 0 3.503.241 46.387 0 49.89-.242 3.503-.604 5.557-3.745 5.92-3.14.362-13.771-.122-17.637-.484-3.866-.362-5.194-.483-5.678-4.349-.483-3.865-.724-47.353-.724-51.944z" fill="#a9a9a9"/><path d="M835.821 444.544c4.59.483 5.195 2.295 5.436 8.456.242 6.16.12 48.561-.362 53.876-.483 5.316-2.295 5.92-5.074 6.161-2.778.242-4.832 0-6.644-.362-1.812-.363-3.624-1.208-4.107-7.852-.483-6.644-.483-46.508-.362-51.944.12-5.436.604-8.456 3.382-8.577 2.778-.12 5.194 0 7.731.242z" fill="#161616"/><path d="M832.197 447.443c6.403.362 7.248 2.899 7.369 9.06.12 6.16-.362 42.159-.604 46.629-.242 4.47-1.45 6.764-5.074 6.885-3.624.121-6.764-.483-7.127-7.127-.362-6.644-.362-44.696 0-49.045.363-4.349 1.329-6.523 5.436-6.402z" fill="#a9a9a9"/><path d="M356.048 410c3.892 0 4.468 6.774 4.612 12.971.145 6.198.145 45.69.145 52.033 0 6.341-1.154 13.692-4.324 13.98-3.171.289-4.469-5.765-4.613-14.557-.144-8.792.289-45.979.433-53.473.144-7.495 1.297-10.955 3.747-10.955zM373.777 410.864c3.17.144 3.747 3.748 4.324 12.972.576 9.225.288 48.861 0 55.492-.289 6.63-2.162 10.089-3.892 10.233-1.73.144-3.46-1.73-4.036-10.09-.576-8.359-.72-50.302-.432-57.653.288-7.35 1.585-10.954 4.036-10.954z" fill="#333"/><path d="M356.141 413.227c1.835 0 2.65 4.28 2.854 9.988.204 5.707.102 49.328.102 54.016 0 4.689-1.02 9.173-2.65 9.275-1.63.102-2.752-3.67-2.956-10.294-.204-6.624.306-51.06.51-55.137.204-4.077.51-7.746 2.14-7.848zM371.021 424.234c.204-4.79 1.02-10.395 2.752-10.395 1.732 0 2.14 3.872 2.446 10.395.306 6.523.306 49.43.204 53.507-.102 4.077-.408 9.478-1.937 9.478-1.528 0-2.65-1.528-3.057-7.032-.408-5.504-.612-51.876-.408-55.953z" fill="#a8a8a8"/><g><path d="M367.999 541.688c-.267-.006-.483-.652-.483-1.44v-11.965c0-.789.216-1.423.483-1.417l1.263.031c.536.014.994.555 1.328 1.567.316.959.49 2.278.49 3.714 0 2.912-.789 5.173-1.796 5.148l-.803-.02v2.965c0 .79-.216 1.424-.482 1.417zm1.242-6.966c.507.012.875-1.068.875-2.568 0-1.272-.238-2.638-.903-2.655l-.732-.018v5.222z" fill="#161616" fill-rule="evenodd"/><path d="M372.55 540.372c0 .79.216 1.435.482 1.441.267.007.483-.627.483-1.417v-10.662l.916.022c.254.007.46-.6.46-1.354 0-.754-.206-1.37-.46-1.376l-2.797-.07c-.255-.006-.461.6-.461 1.354 0 .754.206 1.37.46 1.377l.917.023v10.662" fill="#161616"/><path d="M379.277 530.063c.207-.261.352-.868.352-1.579s-.145-1.326-.352-1.597l-4.173-5.437c-.245-.319-.529.008-.634.73-.106.722.007 1.565.252 1.884l3.361 4.381-3.361 4.215c-.245.306-.358 1.144-.252 1.871.105.727.39 1.069.634.762l4.173-5.23" fill="#d92b26"/></g><path d="M904.522 524.27s.443 5.439 1.37 5.439c.887 0 20.746 1.013 23.88 1.134 0-1.81-.006-3.496-.01-5.166-5.09-.3-19.935-1.035-25.24-1.406z" fill="#cfcfcf"/><path d="M278.076 498.491l-.205 6.712 68.436 2.684.024-6.635c-35.883-1.462-62.723-2.55-68.255-2.76zm104.854 4.252l-.021 6.58c112.469 4.414 350.518 13.753 462.486 18.105l-.038-5.65c-106.072-4.427-328.985-13.585-462.427-19.035zm486.266 20.037v5.57c21.038.813 36.522 1.408 36.957 1.408 2.883 0 2.883-.34 2.883-2.714s-1.018-2.374-3.9-2.713c-.397-.047-15.361-.685-35.94-1.551z" fill="#d6d6d6"/><path d="M148.822 310.353c3.417.114 8.202.911 9.57.911 1.367 0 2.05 6.494-.342 6.95-2.393.456-6.039.912-7.861 1.253-1.823.342-1.368-9.114-1.368-9.114zM169.556 309.1c8.203 1.025 10.14 1.709 10.14 3.076s1.14 4.215-7.177 4.785c-8.317.57-2.963-7.861-2.963-7.861z" fill="#161616"/><path d="M164.43 323.113c6.38.114 8.772-2.165 9-7.291.228-5.127-2.962-9.115-8.659-9.229-5.696-.114-8.886 3.874-8.772 8.431.114 4.557 3.646 8.203 8.43 8.089zM148.366 321.29c4.215-.228 5.127-3.304 5.24-6.038.114-2.734-2.278-6.038-5.354-6.152-3.076-.114-4.785 2.392-4.9 5.696-.113 3.304 1.71 6.608 5.014 6.494z" fill="#101010"/><path d="M183.473 318.965c7.25-.161 7.895-.645 7.895-2.256 0-1.611-.08-4.592-.241-5.559-.162-.966-.967-2.094-2.417-2.094-1.45 0-6.687-.08-7.976.161-1.289.242 2.74 9.748 2.74 9.748z" fill="#161616"/><path d="M180.09 319.85c4.833 0 6.042-2.335 5.961-5.88-.08-3.545-1.208-6.042-4.994-6.203-3.787-.161-5.8 1.933-5.8 6.767 0 4.834 3.302 5.317 4.833 5.317z" fill="#101010"/><g fill="#d5d5d5"><path d="M130.062 340.676c-1.852.04-2.739 1.41-3.06 2.82-.323 1.409-.363 4.712-.202 6.726.16 2.014 1.45 2.82 3.464 2.698 2.014-.12 3.262-1.369 3.383-2.658s.121-3.585-.04-5.88c-.161-2.297-1.128-3.706-3.545-3.706zm.081 2.094c.967.04.967.644 1.128 2.014.16 1.37.12 3.021.08 3.988-.04.967-.483 1.812-1.208 1.852-.725.04-1.168-.603-1.249-1.65-.08-1.048.08-3.989.202-4.794.12-.806.242-1.33 1.047-1.41zM120.96 341.159c-1.37.08-1.491.282-1.45 1.49.04 1.209.2 1.45.925 1.49.726.04 1.209-.04 1.974-.04.766 0 1.49-.12.685 1.209-.806 1.329-2.135 4.712-2.377 5.88-.241 1.169.202 1.45 1.29 1.531 1.087.08 1.57-.201 1.731-.967.162-.765 1.773-6.525 2.377-8.056.604-1.53.403-2.416-.161-2.497-.564-.08-3.867-.161-4.995-.04zM136.749 340.837c.846 0 .967.12 1.007.966.04.846-.242 9.265-.282 10.11-.04.846-.363.967-1.41.967s-1.087-.403-1.087-1.208c0-.806.2-5.438.241-6.525.04-1.088.161-1.652-.403-1.49-.564.16-.564-.202-.604-.766-.04-.564 0-.725.403-.806.403-.08 1.047-.362 1.37-.765.322-.403.322-.524.765-.483zM142.157 340.8c2.307.086 3.275 1.111 3.247 2.934-.029 1.823-.798 2.99-2.023 4.187-1.224 1.196-1.965 2.222-.598 2.136 1.367-.085 2.165-.285 2.222.883.057 1.168-.057 1.453-.912 1.538-.854.086-3.788.114-4.756.114-.968 0-1.025-.513-.997-1.168.029-.655.655-2.278 1.88-3.503 1.225-1.225 2.535-2.307 2.592-3.332.057-1.026-.143-1.68-.712-1.71-.57-.028-.883.542-.855 1.453.029.912-.057 1.168-1.196 1.196-1.14.029-1.054-.37-1.082-.94-.029-.57.626-3.702 3.19-3.788z"/></g><g fill="#d5d5d5"><path d="M195.268 339.87c-1.845.04-2.727 1.41-3.048 2.82-.32 1.41-.361 4.712-.2 6.726.16 2.014 1.443 2.82 3.449 2.699 2.005-.121 3.248-1.37 3.368-2.658.12-1.29.12-3.585-.04-5.881-.16-2.296-1.123-3.706-3.53-3.706zm.08 2.094c.963.04.962.645 1.123 2.014.16 1.37.12 3.021.08 3.988-.04.967-.481 1.813-1.203 1.853-.722.04-1.163-.604-1.243-1.651-.08-1.048.08-3.988.2-4.794.12-.805.241-1.329 1.043-1.41zM186.205 340.353c-1.364.08-1.484.282-1.444 1.49.04 1.209.2 1.45.922 1.491.722.04 1.203-.04 1.965-.04s1.484-.121.682 1.208c-.802 1.33-2.125 4.713-2.366 5.881-.24 1.168.2 1.45 1.283 1.53 1.083.081 1.564-.2 1.725-.966.16-.765 1.764-6.525 2.366-8.056.601-1.53.4-2.417-.16-2.497-.562-.081-3.85-.162-4.973-.04zM201.925 340.031c.842 0 .962.12 1.002.967.04.846-.24 9.264-.28 10.11-.04.846-.361.967-1.404.967s-1.083-.403-1.083-1.209c0-.805.2-5.437.24-6.525.041-1.088.161-1.651-.4-1.49-.562.16-.562-.202-.602-.766-.04-.564 0-.725.401-.805.401-.08 1.043-.363 1.364-.766.32-.402.32-.523.762-.483zM207.309 339.995c2.297.085 3.26 1.11 3.233 2.933-.029 1.823-.794 2.991-2.014 4.187-1.22 1.197-1.956 2.222-.595 2.137 1.36-.086 2.155-.285 2.212.882.056 1.168-.057 1.453-.908 1.538-.85.086-3.771.114-4.735.114-.965 0-1.021-.512-.993-1.167.028-.655.652-2.279 1.872-3.504 1.219-1.224 2.523-2.307 2.58-3.332.057-1.025-.142-1.68-.709-1.709-.567-.028-.879.541-.85 1.453.028.911-.057 1.167-1.192 1.196-1.134.028-1.049-.37-1.077-.94-.028-.57.624-3.703 3.176-3.788z"/></g><path d="M928.813 444.759l-17 1.168-.806 3.867 15.226 66.3 3.474.253c-.006-.465-.01-.99-.016-1.407-.149-9.66-.586-47.937-.878-70.181z" fill="#3c0739"/><path d="M833.76 395.685c3.976 4.339 9.377 16.406 12.126 24.4.364-.148.823-.212 1.398-.26 1.933-.16 15.629.645 18.206.967 2.578.322 3.706.967 3.706 4.512v19.843c14.11.859 47.748 3.107 59.672 3.985-.138-10.802-.26-19.666-.307-20.66-.146-3.077-.293-3.077-3.37-3.37-3.076-.293-13.478-1.319-15.382-1.612-1.905-.293-2.052-.879-2.198-4.248-.087-2.008.396-9.216-4.776-16.203z" fill="#7c1c74"/><path d="M906.939 440.005c-.725 0 .442 4.552.442 4.552 4.824.41 17.49 1.366 21.447 1.622l-.06-4.515c-5.004-.466-21.197-1.659-21.83-1.659z" fill="#cfcfcf"/><path d="M289.192 388.181c-1.851 0-1.99.855-2.065 3.526-.084 3.052.424 3.476 2.46 3.646l57.512 4.658.056-7.138-9.827-.827c-9.837-.848-41.89-3.731-47.233-3.816a9.753 9.753 0 00-.903-.049zm93.944 7.724c-.007 2.09-.019 4.658-.028 7.023 48.974 3.965 99.016 8.018 104.312 8.452 7.883.646 243.7 19.383 357.39 28.34l-.031-4.963c-87.888-7.397-365.048-30.715-461.643-38.852zm486.06 40.906v4.824c20.426 1.602 35.806 2.802 36.363 2.816 3.222.085 3.053.763 3.222-1.696.17-2.459-.254-2.628-2.205-2.798l-37.38-3.146z" fill="#d6d6d6"/><path d="M896.127 564.108c-.043 2.824.038 3.14.63 3.15.59.01 2.064.246 2.631.047.568-.199.718-.3.77-2.288.05-1.987.312-16.736.294-18.306-.02-1.57-.293-1.26-.648-1.267-.355-.006-2.426-.043-2.842.054-.417.097-.592 1.14-.619 2.187-.027 1.045-.205 13.703-.216 16.423z" fill="#515151"/><path d="M879.347 506.185c.16 7.573 1.45 8.378 8.056 8.7 6.606.323 6.444-2.255 6.928-7.41.483-5.157.161-46.887 0-52.203-.161-5.317-2.578-6.767-7.573-7.25-4.994-.484-7.411 1.288-7.895 6.283-.483 4.994.484 46.885.484 51.88z" fill="#161616"/><path d="M881.267 506.88c.228 4.443 1.253 4.898 5.355 5.012 4.101.114 5.468-.797 5.582-3.645.114-2.849.114-48.876-.114-52.18-.227-3.303-1.025-5.126-5.24-5.354-4.216-.228-5.81 2.278-6.038 6.494-.228 4.215.113 45.002.455 49.673z" fill="#a9a9a9"/><path d="M908.154 508.133c0 8.317 2.051 9.342 5.697 9.684 3.645.341 10.025.455 12.304.341 2.279-.113 2.62-.341 2.734-8.316.114-7.975-.066-49.575-.294-53.335-.228-3.76-1.481-6.494-4.9-7.177-3.417-.684-9-1.026-11.506-.912-2.506.114-4.557 1.823-4.785 7.861-.228 6.038.409 45.93.75 51.854z" fill="#161616"/><path d="M909.744 457.555c.134-4.366.656-4.847 3.732-4.847s8.374.594 10.436.992c2.776.537 2.21 1.287 2.551 4.933.342 3.645.49 47.335.376 50.64-.114 3.303-.912 4.442-3.076 4.67-2.165.228-7.975-.114-10.026-.228-2.05-.114-3.418-.683-3.646-4.101-.228-3.418-.453-48.643-.347-52.059z" fill="#a9a9a9"/><path d="M833.76 395.685c.642.702 1.323 1.608 2.023 2.664 34.085 3.37 59.015 5.808 68.362 6.657l-.091-.149a23.85 23.85 0 00-1.096-1.646l-.124-.172zm3.586 5.217a83.819 83.819 0 012.604 4.935c37.134 3.54 64.905 6.182 67.016 6.372a24.296 24.296 0 00-1.19-3.91c0-.003-.003-.003-.003-.005-.05-.125-.104-.252-.158-.378l-.086-.205c-4.635-.5-32.395-3.263-68.184-6.809zm4.065 8.037a138.69 138.69 0 012.425 5.677c34.876 3.082 58.573 5.152 63.823 5.56-.017-.29-.033-.588-.048-.934-.015-.347-.014-.861-.027-1.491 0-.038 0-.07-.003-.108v-.013a37.91 37.91 0 00-.081-1.693c-.018-.24-.04-.49-.065-.746-5.03-.5-31.418-2.995-66.025-6.252zm4.27 10.564c.067.193.14.394.205.583.086-.035.179-.065.276-.092l.037-.009c.087-.023.18-.043.277-.06l.058-.01c.056-.01.117-.018.176-.026.178-.025.366-.046.573-.063.093-.008.227-.012.382-.015.377-.009.983.003 1.649.018h.007l-3.641-.325zm22.203 1.984l.021.016a2.4 2.4 0 01.509.465c.02.024.04.047.059.072a2.45 2.45 0 01.17.263 2.832 2.832 0 01.175.362c.018.045.037.09.054.137.033.092.062.188.09.288a5.372 5.372 0 01.1.446l.024.143c.015.094.027.194.039.294.016.138.029.284.04.435.003.066.01.13.013.198.011.22.018.45.018.698v.517c31.954 2.799 54.811 4.807 59.42 5.226l-.002-.121c-.022-1.21-.041-2.187-.054-2.455a33.574 33.574 0 00-.054-.905 9.965 9.965 0 00-.07-.668c-1.775-.156-36.891-3.296-60.553-5.41zm1.312 7.385v4.943c33.095 2.79 56.003 4.73 59.535 5.048l-.05-3.739-.017-1.092c-4.164-.388-27.002-2.365-59.468-5.16z" fill="#6a1863"/><g fill="#7b1375"><path d="M855.416 542.589l-3.114-.051-3.113-.051-.155.191c-.22.271-.388.651-.522 1.182-.076.3-.428 2.433-1.023 6.192-.499 3.153-.914 5.802-.922 5.887-.015.148.014.154.65.148l.667-.007.82-5.195c.452-2.857.87-5.427.93-5.711.12-.572.307-1.037.521-1.307.14-.176.155-.176 2.701-.14l2.56.038v-.588zm-3.74 3.05c-.049-.024-.361 1.04-.47 1.612-.136.71-.23 1.523-.396 3.425-.068.781-.146 1.58-.174 1.776-.059.41-.246 1.286-.31 1.45-.042.109-.058.258-.028.259.009 0 .083-.16.164-.354.174-.413.37-1.182.456-1.776.033-.23.129-1.25.213-2.266.162-1.943.26-2.724.452-3.57.062-.273.105-.52.096-.55 0-.003-.002-.005-.004-.006zm-1.841 2.035c-.203-.005-.26.097-.136.245.068.083.073.136.277 2.975l.077 1.074.11.003.111.003.329-2.088c.18-1.148.328-2.11.328-2.136 0-.028-.04-.05-.088-.052-.087-.002-.089.009-.333 1.569l-.245 1.571-.061-.842-.116-1.58-.053-.737zm1.811.043c-.126-.003-.228.023-.228.058 0 .034.036.128.08.207.067.12.078.186.068.38-.008.13-.044.916-.082 1.748-.038.832-.074 1.597-.081 1.701l-.014.189.402.01.401.009.031-.21.03-.21-.269-.006-.27-.006v-.244c0-.215.112-2.772.148-3.39l.013-.23zm.957.023c-.091-.003-.159.194-.159.458 0 .425.145.604.243.3.104-.32.055-.755-.084-.758zm-.09 1.175c-.194-.005-.238.092-.147.323l.06.155-.045 1-.062 1.314-.017.315.124.002c.108.003.127-.023.138-.186.027-.394.123-2.502.123-2.706 0-.206-.006-.213-.174-.217zm.474.011c-.152-.004-.192.021-.192.122 0 .069.012.126.026.126.07.002.077.336.026 1.393-.029.598-.058 1.173-.066 1.277-.013.175-.005.189.116.192l.13.003.044-.838c.046-.884.11-1.333.229-1.57.06-.12.07-.121.108-.001.038.12.037.24-.01 1.274l-.053 1.142.125.003.125.003.047-1.071c.064-1.482.061-1.65-.03-1.874-.105-.26-.253-.191-.377.176l-.093.277.019-.315.018-.314zm1.278.052c-.12.004-.248.136-.332.352-.148.386-.217 1.58-.123 2.146.073.442.186.598.413.572.17-.02.206-.051.25-.218.028-.107.051-.225.051-.262 0-.037-.072-.048-.16-.025-.152.039-.165.027-.244-.218a1.68 1.68 0 01-.082-.602v-.343l.284.007.283.007v-.384c0-.636-.072-.918-.258-1.013a.166.166 0 00-.082-.019zm-.008.402c.058.013.105.153.105.394 0 .179-.012.193-.149.19-.081-.002-.148-.036-.148-.076s.025-.172.056-.293c.04-.158.091-.225.136-.215z" paint-order="fill markers stroke"/></g><path d="M850.936 511.792c1.782 0 2.58-3.705 2.673-8.677.094-4.971.328-44.321.047-47.839-.282-3.517-.985-6.144-2.486-6.19-1.5-.048-2.486 3.095-2.673 6.05-.188 2.954-.188 47.604-.047 50.512.14 2.908 1.032 6.144 2.486 6.144z" fill="#333"/><path d="M849.388 504.522c.063 3.333.656 5.16 1.407 5.113.75-.047 1.688-2.252 1.782-4.597.094-2.345.054-47.24-.012-49.164-.067-1.924-.465-5.041-1.128-5.107-.663-.067-1.879 1.652-1.923 4.841-.23 16.3-.434 32.615-.126 48.914z" fill="#a8a8a8"/><path d="M862.708 512.074c2.157 0 2.157-3.94 2.439-8.912.28-4.971.375-44.18.187-47.557-.187-3.377-1.032-6.473-2.533-6.754-1.5-.282-2.72 3.47-3.001 6.941-.282 3.47 0 44.181.187 48.12.188 3.94 1.032 8.255 2.72 8.162z" fill="#333"/><path d="M861.207 503.162c.187 4.972.281 5.816 1.22 5.816.937 0 1.313-2.345 1.406-5.534.094-3.19.188-43.055.094-45.87-.094-2.814-.281-4.877-1.313-5.065-1.032-.187-1.782 2.064-1.876 5.253-.094 3.19.281 41.648.469 45.4z" fill="#a8a8a8"/><path d="M680.851 403.445c3.262.338 5.504 2.542 5.198 7.806-.306 5.264-1.63 8.605-4.077 8.454-2.446-.15-22.883-2.053-24.757-2.28-1.874-.226-4.036-2.034-3.675-8.315.36-6.281 3.027-7.954 4.9-7.902 1.874.052 19.887 1.803 22.411 2.237z" fill="#a6a6a6"/><path d="M659.45 403.441c-2.74-.144-3.676 3.027-3.82 5.838-.144 2.81.937 6.414 2.666 6.558 1.73.144 20.395 1.874 22.485 2.018 2.09.144 3.747-1.73 4.036-5.261.288-3.531-.793-6.63-2.378-6.919-1.586-.288-20.18-2.09-22.99-2.234z" fill="#1b1b1b"/><path d="M661.395 405.17c-3.027-.215-4.324 1.658-4.468 4.18-.144 2.523.865 4.757 2.522 5.045 1.658.289 18.161 1.73 20.107 1.874 1.946.144 3.531-1.225 3.747-4.036.217-2.81-.36-4.612-2.018-4.972-1.657-.36-17.656-2.018-19.89-2.09z" fill="#2d2d2d"/><g fill="#c87617"><path d="M659.965 406.82c.266.04.312.058.312.344 0 .287-.03.448-.183.433a4.72 4.72 0 00-.615-.02c-.16.012-.258.139-.266.684-.007.545.038.864.289.888.25.025.805.667.812 1.732.008 1.066-.326 1.73-.698 1.733a7.83 7.83 0 01-1.11-.095c-.144-.028-.136-.123-.136-.341 0-.219-.015-.438.137-.437.152.001.638.063.782.077.144.014.236-.195.236-.892 0-.696-.076-.949-.38-.993-.304-.043-.752-.633-.76-1.726-.007-1.093.296-1.514.593-1.498.296.015.729.072.987.11zM661.856 406.992c.274.04.335.006.335.306s-.023.517-.175.502c-.152-.015-.144.204-.144.45 0 .245-.016 3.657-.016 4.025 0 .369-.022.53-.38.509-.356-.022-.394-.107-.41-.464-.015-.356 0-3.986 0-4.218 0-.232-.022-.343-.151-.356-.13-.013-.16-.152-.16-.48 0-.328.015-.394.16-.394.144 0 .676.08.941.12zM663.52 407.161a4.98 4.98 0 00-.32-.01c-.31-.002-.561.464-.584 1.158-.023.694-.03 2.25 0 3.318.03 1.067.342 1.275.54 1.322.197.047.508.105.82.067.31-.037.577-.612.584-1.157.008-.545 0-2.703-.023-3.36-.022-.658-.296-1.258-.736-1.302-.13-.02-.202-.03-.28-.036zm.097.728c.174.028.215.228.222.663a159.9 159.9 0 01-.008 3.317c-.015.408-.099.482-.205.471-.106-.01-.22-.062-.228-.555-.007-.492-.03-3.129-.007-3.454.022-.325.038-.46.19-.446a.26.26 0 01.036.004zM664.955 407.939c0-.519.046-.637.357-.593.312.044.418.014.448.249.03.235.304 1.381.486 1.836.168.418.244.229.244-.058v-1.57c0-.177.045-.282.402-.26.357.021.38.16.38.405 0 .246-.015 4.313-.015 4.804 0 .492-.061.513-.357.497-.297-.015-.38-.146-.388-.379-.007-.233 0-.437-.007-.697-.008-.26-.205-.744-.41-1.337-.205-.594-.373-1.074-.373-.269 0 .806-.007 1.788-.007 2.129 0 .341-.107.495-.388.467-.28-.028-.349-.198-.364-.5-.015-.302-.023-4.289-.008-4.724zM668.031 407.56c.342.033.395.147.395.611v1.461c0 .273.054.442.373.473.319.032.417 0 .417-.272 0-.273-.007-1.516-.007-1.762s.03-.38.372-.346c.342.034.387.148.395.462.007.315.015.985.007 1.448-.007.463-.303.98-.44 1.185-.137.205-.312.407-.312.912v1.283c0 .314-.06.485-.41.45-.349-.033-.38-.214-.38-.5 0-.287.023-1.323.016-1.61-.008-.287-.22-.486-.433-.752-.213-.267-.35-.444-.357-1.005-.008-.56 0-1.365.007-1.637.008-.272.046-.433.357-.402zM675.1 408.301a5.012 5.012 0 00-.32-.01c-.311-.003-.562.464-.585 1.158-.023.694-.03 2.25 0 3.317.03 1.068.342 1.276.54 1.323.197.047.508.105.82.067.311-.038.577-.612.585-1.157.007-.546 0-2.703-.023-3.36-.023-.658-.296-1.259-.737-1.302a3.76 3.76 0 00-.28-.036zm.096.728c.174.028.215.227.222.663.008.465.008 2.909-.008 3.317-.015.408-.098.481-.205.471-.106-.01-.22-.063-.227-.555-.008-.492-.03-3.129-.008-3.454.023-.326.038-.46.19-.446.013 0 .025.002.036.004zM681.556 408.931c.274.04.335.006.335.306s-.023.517-.175.502c-.152-.015-.145.204-.145.45 0 .245-.015 3.657-.015 4.025 0 .369-.022.53-.38.509-.356-.022-.394-.107-.41-.464-.015-.356 0-3.986 0-4.218 0-.232-.022-.343-.152-.356-.129-.013-.159-.152-.159-.48 0-.328.015-.394.16-.394.144 0 .675.08.941.12zM677.738 409.197c0-.519.045-.637.357-.593.311.045.417.014.448.25.03.234.304 1.38.486 1.835.167.418.243.229.243-.058v-1.57c0-.177.046-.282.403-.26.357.021.38.16.38.406 0 .245-.016 4.312-.016 4.803 0 .492-.06.513-.357.498-.296-.016-.38-.147-.387-.38-.008-.233 0-.437-.008-.697-.007-.26-.205-.743-.41-1.337s-.372-1.074-.372-.269c0 .806-.008 1.788-.008 2.13 0 .34-.106.494-.387.466-.281-.028-.35-.198-.365-.5-.015-.302-.023-4.289-.007-4.724zM672.545 408.034a6.593 6.593 0 00-.42-.031c-.182-.004-.212.075-.212.402 0 .328-.038 4.556-.03 4.94.007.382.075.43.417.463.342.034.365-.128.372-.4.008-.272 0-1.283.015-1.705.016-.422.167-.407.517-.386.35.02.607-.718.607-1.646 0-.929-.326-1.534-.767-1.578a11.505 11.505 0 00-.499-.059zm.317.765c.12.024.213.158.213.73 0 .656-.015 1.064-.19 1.047-.175-.017-.22-.008-.22-1.005 0-.71 0-.778.144-.777.018 0 .036.001.053.005zM676.926 408.462c.296.029.341.129.349.703.008.574.015 4.302.008 4.615-.008.313-.092.482-.342.471-.25-.01-.334-.046-.342-.58-.008-.532-.015-4.3-.008-4.723.008-.423.061-.5.335-.486z"/></g><path d="M159.81 606.525c5.982.145 14.774.073 17.368-.144 2.595-.216 3.676-1.08 3.748-3.82.072-2.738-.072-19.025-.144-20.682-.072-1.658-1.225-3.676-3.892-3.748-2.666-.072-17.368-.072-19.386.288-2.018.36 2.306 28.106 2.306 28.106z" fill="#171717"/><path d="M154.694 609.048c5.044 0 5.333-.577 5.62-3.46.29-2.882.433-19.602.577-23.205.144-3.603-1.153-4.756-3.747-4.756-2.595 0-31.277.144-33.872.432-2.594.288-2.738 1.586-2.882 4.756-.144 3.171.144 18.161.144 21.476 0 3.315 1.297 4.469 4.18 4.757 2.882.288 24.79.432 29.98 0z" fill="#1c1c1c"/><path d="M131.488 584.975c6.271 0 9.227 5.657 9.299 9.637.072 3.98-2.379 10.335-8.506 10.474-6.127.14-8.794-4.539-8.578-11.103.216-6.564 3.532-8.868 7.785-9.008z" fill="#222"/><path d="M149.144 584.975c6.272 0 9.227 5.657 9.3 9.637.071 3.98-2.38 10.335-8.507 10.474-6.127.14-8.794-4.539-8.578-11.103.216-6.564 3.532-8.868 7.785-9.008z" fill="#121212"/><path d="M308.412 623.821c0 3.388-.504 4.324 3.387 4.324 3.892 0 11.675-.072 14.341-.216 2.667-.144 2.811-.36 3.1-3.675.288-3.315.36-33.079.143-35.529-.216-2.45-.864-3.46-4.324-3.531-3.459-.072-10.377-.144-12.972.216-2.594.36-3.603.865-3.82 3.747-.215 2.883-.143 30.413.145 34.664z" fill="#2d2d2d"/><path d="M527.465 607.992c15.9.408 19.976 8.357 19.976 17.122s-6.115 15.492-17.53 15.695c-11.415.204-14.88-.407-15.695-2.853-.816-2.446-1.02-4.28-16.307-4.077-15.288.204-24.257 1.63-24.46-6.523-.204-8.153-.408-13.045 10.395-13.657 10.803-.611 18.753-.203 22.422-.407 3.67-.204 5.504-1.427 6.115-3.262.612-1.834 3.873-2.242 15.084-2.038z" fill="#191919"/><path d="M497.299 603.715c0 5.621 1.874 5.765 5.477 5.91 3.603.143 4.468-1.298 4.468-7.496 0-6.197-.144-10.665-.216-14.917-.057-3.365-1.513-3.388-4.108-3.388-4.612 0-5.189.063-5.189 4.252 0 4.9-.432 10.882-.432 15.639z" fill="#1d1d1d"/><path d="M459.392 627.641c-1.153 3.027-1.874 4.324 1.585 4.756 3.46.433 4.468.289 5.622-2.162 1.153-2.45 3.603-7.495 4.18-9.8.576-2.307.432-2.595-2.595-3.027-3.027-.433-4.468.288-5.621 2.594-1.153 2.306-2.162 3.892-3.171 7.639z" fill="#1f1f1f"/><path d="M442.72 619.967c-3.465.102-3.924 5.25-4.025 9.326-.102 4.076.458 9.886 3.21 10.09 2.752.203 4.128-5.402 4.128-9.886 0-4.485-.561-9.326-3.313-9.53z" fill="#232323"/><path d="M305.816 407.268c5.63.382 5.821 2.004 6.298 5.821.477 3.817-.572 21.185-1.336 24.43-.763 3.244-1.813 4.961-7.443 4.866-5.63-.096-9.447-2.386-9.734-8.111-.286-5.726 1.527-21.853 2.386-24.239.859-2.385 3.817-3.053 9.829-2.767z" fill="#161616"/><path d="M280.337 436.946c8.437-.066 12.406.286 14.696.19 2.29-.095 2.576-1.145 2.863-4.103.286-2.958.858-28.055.763-31.109-.095-3.054-.954-3.34-2.672-3.626-1.718-.286-13.073-.176-15.006-.191-1.385-.01-1.509-.286-1.526-1.05-.015-.64-.079-1.133 1.455-1.145 3.149-.024 12.405 0 15.554.382 3.15.382 3.913 1.908 4.008 4.485.096 2.576-.763 31.586-.954 34.353-.191 2.768-1.336 3.913-3.34 4.2-2.004.285-15.602.023-16.843.023-1.24 0-1.567-.304-1.55-1.217.02-1.152.252-1.175 2.552-1.193z" fill="#101010"/></svg>