<svg xmlns="http://www.w3.org/2000/svg" width="2037.108" height="1874.671" viewBox="0 0 538.985 496.007"><path d="M22.283 85.359c-.268 5.78-1.812 22.312-4.08 50.093C15.935 163.233 1.903 286.947.3 324.899c-1.604 37.952 3.207 90.872 14.967 128.824 11.76 37.952 11.225 32.34 13.63 36.883 2.406 4.544 5.88 5.078 10.691 5.345 4.811.268 106.64-.534 112.253-.267 5.613.267 6.682 0 7.484-4.276.802-4.277 4.81-5.346 22.45-5.613 17.64-.267 173.993-1.069 186.02-.802 12.027.268 16.036 2.673 17.64 6.415 1.604 3.742 1.87 4.543 9.889 4.276 8.018-.267 104.77-1.336 111.451-1.336 6.682 0 7.484 1.336 9.622-5.613 2.138-6.949 20.313-60.136 22.183-96.217 1.871-36.081-3.207-113.59-5.88-146.998-2.672-33.409-17.34-162-18.492-168.344-1.27-6.014-8.502 5.243-8.502 5.243l-253.104.334z" fill="#eeba00"/><path d="M260.486.136c78.245-.843 229.98 1.055 243.039 40.444 11.528 34.774 11.292 39.782 11.292 43.184 0 3.401-2.599 3.307-12.426 3.307-9.828 0-192.768-1.89-245.685-1.512-52.917.378-223.006 3.024-229.431 3.402-6.426.378-5.292-1.89-3.78-10.206 1.512-8.315 7.56-55.562 49.893-62.744C115.72 8.83 198.5.805 260.486.136z" fill="#e7b801"/><path d="M23.686 281.601c-.268 6.95-1.203 8.286-3.475 8.954-2.272.668-2.94 1.336-2.405 6.147.534 4.81.534 16.437 13.096 23.386 12.562 6.949 40.491 18.976 51.45 23.252 10.957 4.277 29.666 6.95 50.513 7.484 20.847.535 272.883 0 292.126-1.07 19.243-1.068 44.1-8.552 64.946-18.44 20.847-9.89 30.202-18.442 32.073-31.271 1.87-12.83 1.336-9.89-.936-11.226-2.271-1.336-1.87-.534-2.672-9.888-.802-9.355-8.152-80.983-9.221-91.941-1.07-10.958-.365-12.416 1.525-14.116 1.89-1.701 3.024-3.402 2.646-10.584-.378-7.181.756-40.254-44.223-40.065-44.98.189-122.465 2.268-203.73 3.024-81.264.755-186.121-.132-203.627.269-17.507.4-29.935 8.552-33.142 25.658-3.207 17.105-3.007 19.778-1.403 20.379 1.604.601 4.076 1.002 4.276 3.274.2 2.272-1.804 22.852-2.873 39.155-1.069 16.303-4.142 59.735-4.944 67.62z" fill="#222"/><path d="M44.283 279.839c.19 14.363 5.103 21.544 20.978 21.922 15.875.378 103.755 0 122.653-.756 18.9-.756 30.805-3.59 30.994-23.434.19-19.844-.566-101.298-1.322-114.716-.756-13.418-6.804-17.576-26.837-17.765-20.032-.189-101.486-.378-117.74 0-16.252.378-18.898 8.883-20.599 30.238-1.7 21.356-8.316 92.605-8.127 104.51zM322.894 167.21c.534-17.907 7.75-24.322 25.925-24.856 18.174-.535 107.442-.267 120.806.534 13.363.802 21.381 6.95 23.787 27.262 2.405 20.312 9.354 95.95 10.156 108.511.802 12.562-6.949 23.52-26.46 23.52-19.51 0-109.045.534-126.418.802-17.373.267-24.054-5.88-25.658-24.589-1.604-18.709-2.405-96.217-2.138-111.184z" fill="#303030"/><path d="M98.901 92.268c8.599 0 18.237 3.78 18.52 15.214.284 11.433-6.52 13.985-17.48 14.74-10.962.757-21.829.473-30.428-.094s-11.15-7.843-11.339-14.93c-.189-7.087 3.969-14.08 11.434-14.74 7.465-.662 23.812-.379 29.293-.19zM436.056 89.622c-12.562.764-15.686 8.694-16.159 14.363-.472 5.67 5.386 15.97 15.78 16.442 10.395.473 24.286-.189 30.711-.378 6.426-.189 14.08-6.236 14.174-14.93.095-8.693-6.614-15.591-15.213-15.875-8.599-.283-24.75.102-29.293.378z" fill="#dfaa02"/><path d="M450.797 89.906c8.504.283 13.89 6.614 14.268 14.457.378 7.843-4.535 15.308-13.607 15.025-9.071-.284-15.497-6.331-15.78-14.647-.284-8.315 7.087-15.024 15.119-14.835z" fill="#b8b8b8"/><path d="M450.419 93.591c5.87.1 10.678 4.63 10.961 10.867.284 6.236-3.496 10.772-8.977 11.434-5.48.661-11.811-2.646-12.567-11.34-.756-8.693 5.289-11.05 10.583-10.961z" fill="#dedede"/><path d="M101.965 107.291c-.155 8.508-6.404 13.989-14.24 14.485-7.837.496-15.375-4.305-15.228-13.38.146-9.074 6.275-15.233 14.586-15.641 8.31-.41 14.95 6.502 14.882 14.536z" fill="#b8b8b8"/><path d="M98.275 106.969c-.011 5.87-4.47 10.746-10.7 11.123-6.232.378-10.824-3.333-11.568-8.804-.744-5.47 2.467-11.85 11.148-12.736 8.682-.887 11.13 5.122 11.12 10.417z" fill="#dedede"/><path d="M127.228 26.717c.091-4.007.728-4.735 4.918-4.826 4.189-.092 264.464-1.822 269.564-1.73 5.1.09 5.373.637 5.828 6.1.455 5.465-.182 46.264-.455 49.907-.274 3.642-.729 3.825-6.193 4.189-5.464.364-267.196 2.368-270.566 2.277-3.37-.092-3.005-1.822-3.37-5.465-.364-3.642.183-46.354.274-50.452z" fill="#2d2d2d"/><path d="M142.8 41.106c-.09-4.462.638-4.553 3.917-4.735 3.278-.183 239.055-1.275 242.06-1.184 3.006.09 4.19.364 4.19 5.373s-.364 19.853-.455 23.04c-.092 3.188-.82 3.916-3.916 4.098-3.097.182-237.053 1.093-240.878 1.093-3.825 0-4.37-.637-4.553-4.28-.182-3.643-.364-19.034-.364-23.405z" fill="#3b3b3b"/><path d="M522.831 354.201c4.736.091 5.373-.273 2.004 4.28-3.37 4.554-28.323 42.803-35.062 53.73-6.739 10.93-42.256 63.84-43.622 66.39-1.366 2.55-2.277 3.187-5.555 3.096-3.279-.09-75.952.82-79.321.638-3.37-.182-3.187 0-.82-3.096 2.368-3.097 78.684-119.483 80.596-121.942 1.913-2.459 2.732-2.823 5.464-3.005 2.732-.182 72.127-.091 76.316-.091zM350.347 354.565c5.008-.182 5.19.182 2.276 3.825-2.914 3.643-32.784 50.452-39.432 60.743-6.648 10.29-41.437 61.745-42.439 63.384-1.001 1.64-1.639 1.548-3.096.182s-41.618-61.38-47.72-70.943c-6.102-9.562-33.422-51.818-35.062-54.094-1.639-2.277-.637-2.824 1.275-2.915 1.913-.09 159.28-.455 164.198-.182zM94.17 353.928c3.734-.091 4.553.273 6.01 3.187 1.458 2.914 26.228 42.894 34.789 55.825 8.56 12.932 43.895 63.293 45.352 65.57 1.457 2.277 1.64 3.734-2.003 3.825-3.643.091-74.404.182-77.045.273-2.64.091-3.005-.82-5.1-3.096-2.094-2.277-39.706-57.192-47.082-67.847-7.377-10.655-32.239-52.455-34.151-54.823-1.913-2.368-1.548-2.732 1.548-3.005 3.096-.274 74.13 0 77.682.09z" fill="#2775ab"/><path d="M408.63 438.258c.092-4.007.456-5.1 5.374-5.191 4.918-.091 98.718-.82 102.088-.638 3.37.182 3.916.364 3.096 4.098-.82 3.734-10.837 36.883-11.565 39.25-.729 2.369-1.913 3.28-5.464 3.462-3.552.182-85.15-.456-88.337-.456-3.188 0-3.916-1.093-4.28-4.007-.365-2.914-.82-32.33-.911-36.518z" fill="none" stroke="#515151" stroke-width="3" stroke-opacity=".441"/><path d="M436.042 438.53c-13.842.092-19.306 10.474-19.124 20.582.182 10.109 9.313 16.097 18.967 15.915 9.653-.182 19.464-6.17 19.646-18.01.182-11.838-9.38-18.122-19.489-18.486z" fill="#8f8f8f"/><path d="M485.948 438.622c-12.02.273-18.031 9.744-18.214 19.489-.182 9.744 7.013 17.12 16.575 17.303 9.562.182 19.033-5.191 19.216-16.757.182-11.566-5.829-20.217-17.577-20.035z" fill="#dbdbdb"/><path d="M105.33 476.76c10.431-.258 19.318-7.084 19.06-19.706-.257-12.621-10.045-18.803-18.674-18.803-8.63 0-20.22 7.727-19.577 21.508.644 13.78 10.69 16.871 19.19 17z" fill="#8f8f8f"/><path d="M56.904 437.993c13.91 0 20.349 9.144 20.735 18.804.386 9.659-5.924 18.674-19.319 18.674-13.394 0-19.705-8.242-19.705-18.932 0-10.69 7.213-18.803 18.289-18.546z" fill="#dbdbdb"/><path d="M24.229 437.711c-1.184-4.189-.182-4.735 3.005-4.735 3.188 0 96.806.455 100.905.546 4.098.091 4.735-.182 5.373 4.007.637 4.19 1.821 37.338 1.912 40.252.091 2.915-1.457 3.097-4.28 3.006-2.823-.091-85.605-.547-88.246-.638-2.64-.09-3.734-1.457-5.282-4.917-1.548-3.461-12.294-33.97-13.387-37.52z" fill="none" stroke="#515151" stroke-width="3" stroke-opacity=".439"/></svg>