<svg xmlns="http://www.w3.org/2000/svg" width="2808.423" height="2968.895"><path d="M88.238 100.122l811.095-67.294 629.392-6.232 1106.457 37.392 125.405 105.945 16.555 567.116 20.983 1180.973-5.266 133.989-224.151 28.044L19.62 2055.127l-6.844-84.912 16.547-729.928L49.24 545.413l9.463-415.989z" fill="#1d1d1d"/><path d="M2807.2 1988.132c.19 26.486 1.088 42.845 1.223 61.542.135 18.696-74.285 69.331-74.285 69.331l-243.608 138.663-434.539 20.254-1645.271-1.558L34.53 2178.21S.281 2073.823.028 2038.768c-.253-35.056 1.26-41.288 2.633-66.995 1.372-25.707 10.116-1.558 10.116-1.558s-1.212-59.983 2.941-24.15c4.154 35.835 7.562 76.343 56.656 78.68 49.095 2.337 630.272 7.79 727.654 8.57 97.38.779 1124.133 3.895 1263.553.779 139.419-3.116 542.966 0 615.386-3.895 72.42-3.896 101.08-26.487 106.975-73.227 5.895-46.74 21.257 31.16 21.257 31.16z" fill="#212121"/><path d="M2801.079 2543.563c-2.13 28.823 4.237 47.52 3.537 58.426-.7 10.906-53.763-1.558-53.763-1.558l-811.332 7.116 7.139 302.41s16.594 11.035-2.5 9.866c-19.094-1.169-32.327.195-41.869.39-9.541.194 11.79-12.465 11.79-12.465l-3.739-297.998-1062.555-3.087-4.265 272.652s20.752 32.846.37 32.57c-20.384-.275-33.604-.275-48.193.827-14.59 1.102 13.408-12.118 13.408-12.118l.652-291.395-788.367-15.974s-17.585 5.784-17.689-8.538c-.103-14.322-2.453-34.703-2.517-43.517-.064-8.813 12.21 12.67 12.21 12.67l353.441 10.756 433.952 6.232-195.363-300.696s-32.372-21.182-1.53-21.733c30.844-.551 44.617-.276 60.597.55 15.98.827-3.523 7.988-3.523 7.988l181.795 301.427 1064.195 10.127 185.532-306.149s-9.02-8.569 11.237-8.18c20.257.39 49.45-2.336 69.707-1.947 20.256.39-43.756 35.834-43.756 35.834l-172.062 283.558 602.933-2.337z" fill="#555"/><path d="M7.542 2575.587c-2.755.06-4.126 1.55-4.101 8.162.04 10.58.698 315.343 2.849 351.116 2.151 35.773 20.763 28.278 43.913 22.312 23.15-5.966 35.2-15.999 117.779-25.793 82.577-9.793 265.94-10.68 360.637-12.877 94.697-2.196 268.983-5.13 278.548-6.609 9.566-1.479 14.093-3.478 13.55-13.555-.541-10.076.216-75.559 1.387-164.717 1.172-89.157 1.08-112.834 2.027-128.95.946-16.117-2.59-19.151-23.748-19.223-30.733-1.112-432.227-1.974-594.937-1.52-162.71.454-184.4-7.177-191.454-7.705-2.645-.198-4.797-.676-6.45-.64zm2787.033 5.579c-5.665.01-14.806 1.82-29.57 2.912-45.259 3.349-167.724 6.48-344.039 5.88-176.315-.6-462.44.947-477.045 1.905-14.605.958-14.587 5.491-14.525 21.611.06 16.12-.974 273.526-.918 288.135.056 14.609-.436 17.63 16.694 18.191 17.13.562 466.988 3.1 636.28 11.233 169.291 8.132 169.9 35.838 191.064 37.422 21.164 1.583 24.182.586 27.078-32.65 2.895-33.238 4.425-293.16 4.293-327.919-.084-21.724.129-26.731-9.312-26.72zm-1940.782 5.416c-4.427-.01-7.186 0-8.068.033-14.103.455-15.1 3.474-16.082 10.02-.982 6.544-2.835 49.356-2.678 90.663.157 41.307-.748 199.983-.2 211.57.548 11.588 1.56 13.103 19.192 13.163 17.632.06 518.886 5.795 609.562 6.103 90.676.309 425.679 2.455 446.835 2.023 21.156-.431 19.138-.941 19.59-14.54.452-13.6 2.993-272.513 1.91-292.163-1.082-19.65-2.094-20.66-33.329-21.27-31.736-.107-327.942-.109-431.718-.966-97.29-.803-538.608-4.547-605.014-4.637z" fill="#d7d7d7"/><path d="M2799.926 2017.984c-1.514-.01-3.248.656-5.203 1.896-7.818 4.96-10.616 18.486-22.665 34.83-12.048 16.345-52.438 73.199-194.711 128.282-142.272 55.082-255.493 68.945-347.396 68.632-91.902-.312-94.032 1.818-103.247 13.897-9.215 12.08-167.097 270.853-177.704 291.477-13.45 22.75-7.731 27.756 13.639 27.117 21.37-.64 309.19 1.053 418.895-.711 109.705-1.764 226.536-2.792 272.132-2.637 45.594.155 125.35-8.836 136.024-12.361 10.672-3.526 10.647-9.937 11.292-27.744.644-17.808 7.42-482.978 6.635-502.215-.59-14.428-3.149-20.448-7.69-20.463zM4.338 2022.226c-3.524.36-4.077 7.96-3.599 22.344.805 24.224-.271 489.412.49 502.238.761 12.826 2.918 17.82 17.887 20.008 14.969 2.188 54.167 6.596 178.846 8.445 124.679 1.85 556.94 3.535 589.804 4.608 29.72-.403 36.77-1.386 19.043-26.633-17.728-25.247-157.7-271.046-168.343-287.705-10.642-16.66-8.633-18.164-32.308-17.74-23.674.423-122.918-.922-213.154-17.852-90.236-16.93-133.766-26.339-232.967-72.27-99.2-45.93-129.362-109.437-143.673-125.87-5.814-6.677-9.615-9.82-12.026-9.573zm646.591 226.053c-14.543-.147-10.733 6.694 1.47 24.693 13.85 20.431 157.402 270.176 167.433 285.17 10.031 14.995 14.32 18.571 31.418 18.629 17.098.058 409.643 2.107 520.069 2.482 110.425.376 506.537 3.15 528.62 2.512 22.082-.637 24.216-1.343 32.006-13.428 7.79-12.084 169.892-285.092 179.812-299.306 9.92-14.214 9.915-15.638-11.457-15.711-21.373-.073-467.326 4.11-694.594 1.912-227.268-2.198-733.45-5.702-751.622-6.832a60.571 60.571 0 00-3.155-.121z" fill="#e1e1e1"/><path d="M7.542 2575.587c-2.755.06-4.126 1.55-4.101 8.162.025 6.74.304 132.76 1.057 232.682 68.48 16.594 166.13 8.716 417.286 11.154 89.908.873 232.115 1.74 399.153 2.532.28-26.824.672-58.82 1.167-96.49 1.172-89.158 1.08-112.835 2.027-128.952.946-16.116-2.59-19.15-23.748-19.222-30.733-1.112-432.227-1.974-594.937-1.52-162.71.454-184.4-7.177-191.454-7.705-2.645-.198-4.797-.676-6.45-.64zm2787.033 5.579c-5.665.01-14.806 1.82-29.57 2.912-45.259 3.349-167.724 6.48-344.039 5.88-176.315-.6-462.44.947-477.045 1.905-14.605.958-14.587 5.491-14.525 21.611.043 11.26-.438 137.998-.72 219.73 292.094.248 527.809-.152 596.79-1.59 105.332-2.194 206.029 17.12 276.445 19.55 1.375-89.888 2.066-219.455 1.975-243.278-.082-21.724.13-26.731-9.311-26.72zm-1940.782 5.416c-4.427-.01-7.186 0-8.068.033-14.103.455-15.1 3.474-16.082 10.02-.982 6.544-2.835 49.356-2.678 90.663.095 24.935-.175 90.545-.302 142.846 326.53 1.537 749.737 2.753 1096.161 3.056.821-82.254 1.77-206.318 1.03-219.746-1.082-19.65-2.094-20.66-33.329-21.27-31.737-.107-327.942-.109-431.718-.966-97.29-.803-538.608-4.547-605.014-4.637z" fill="#dedede"/><path d="M2204.444 2508.71c65.268-.858 67.51-47.237 67.306-75.58-.205-28.343-15.937-66.134-69.187-66.134s-71.836 42.944-69.883 75.581c1.954 32.638 27.09 64.416 71.764 66.134zM2402.035 2504.534c48.205-1.58 62.978-35.57 62.739-68.767-.24-33.199-12.33-65.606-64.516-67.978-52.185-2.37-65.303 41.893-65.104 69.558.2 27.666 23.413 67.978 66.88 67.187z" fill="#c5c5c5"/><path d="M2202.39 2486.338c42.406.275 52.452-34.099 52.318-52.698-.134-18.6-13.783-48.565-52.015-48.565s-51.448 29.966-51.3 50.631c.15 20.666 13.779 50.39 50.997 50.632zM2399.277 2482.696c35.55.867 51.804-29.476 51.654-50.283-.15-20.807-16.804-45.949-51.482-45.949s-47.47 29.477-47.32 50.284c.15 20.807 17.665 45.081 47.148 45.948z" fill="#e2e2e2"/><path d="M571.333 2501.154c65.243-.859 67.485-47.22 67.28-75.552-.204-28.332-15.93-66.108-69.16-66.108s-71.809 42.927-69.856 75.552c1.952 32.625 27.08 64.39 71.736 66.108zM367.77 2500.755c51.902-1.702 67.808-38.298 67.55-74.043-.257-35.745-13.275-70.639-69.464-73.192-56.189-2.553-70.313 45.107-70.099 74.894.215 29.788 25.21 73.192 72.012 72.341z" fill="#c5c5c5"/><path d="M569.714 2482.432c43.947.285 54.36-35.338 54.22-54.614-.139-19.275-14.284-50.33-53.906-50.33-39.621 0-53.319 31.055-53.164 52.472.155 21.417 14.279 52.222 52.85 52.472zM364.843 2476.297c37.58.916 54.761-31.159 54.603-53.153-.159-21.994-17.763-48.571-54.42-48.571s-50.179 31.159-50.02 53.153c.158 21.994 18.672 47.654 49.837 48.57z" fill="#e2e2e2"/><path d="M2507.866 2366.497c.343-13.894.233-17.102 19.827-16.602 19.595.5 103.783-1.544 155.918-1.706 33.459-.105 86.454-.543 95.009-.447 12.314.137 14.39-.275 14.285 10.982-.12 12.868-1.256 131.311-1.912 139.155-.656 7.845-2.068 9.498-13.097 11.399-11.029 1.9-94.745.645-151.438 2.067-50.968 1.279-97.95.983-107.207 1.44-9.258.457-11.772-2.366-12.192-11.267-.42-8.901.326-115.42.807-135.02z" fill="#c5c5c5"/><path d="M2561.106 2476.608c.738 14.004.758 16.87 15.09 17.35 14.333.482 130.04-2.413 153.134-3.188 15.072-.506 13.58-5.713 14.778-16.235 1.198-10.522 4.458-88.301 3.766-95.936-.692-7.636-2.268-12.543-16.87-12.308-21.342.343-121.317-.432-144.87 1.098-23.552 1.53-23.857 3.444-24.445 10.138-.589 6.693-.668 87.3-.583 99.081z" fill="#e48d32"/><path d="M242.652 2343.987c14.608 0 17.645 2.015 18.24 14.609.595 12.593-.6 126.44-.527 136.515.073 10.075-6.454 13.098-16.018 14.105-9.564 1.008-160.18 1.512-190.424-1.007-30.243-2.519-40.332-4.534-40.934-18.135-.602-13.601-.46-133.493 0-139.538.461-6.045 2.45-9.572 14.54-9.572s177.334 2.015 215.123 3.023z" fill="#c5c5c5"/><path d="M193.135 2364.988c17.221 0 20.77 2.208 20.855 14.13.086 11.922-.694 87.427-1.062 97.583-.368 10.156-6.096 11.922-15.807 12.363-9.71.442-117.02-1.324-128.06-1.324-11.038 0-20.346-4.858-21.33-18.987-.986-14.13-.984-75.064.264-85.661 1.249-10.598 7.834-15.896 21.512-17.22 13.679-1.326 109.499-.884 123.628-.884z" fill="#e48d32"/><path d="M1132.487 2752.968c.606-44.165 5.722-46.821 47.035-46.821 41.313 0 372.396 3.856 401.04 3.856 28.643 0 36.937 4.407 37.227 44.618.29 40.211-.438 91.99.236 109.066.522 13.225-.42 18.178-12.534 18.729-12.115.55-440.122 0-456.65-.55-16.53-.552-16.57-6.06-16.142-23.136.428-17.076-.499-84.834-.212-105.762z" fill="#d2d2d2"/><path d="M1557.964 2860.933c23.686 0 24.772-2.203 25.722-23.135.951-20.932-.053-83.728-.156-98.05-.103-14.322-1.257-21.482-24.392-21.482-23.135 0-363.012-1.102-375.673 0-12.661 1.101-10.39 10.465-11.932 25.889-1.541 15.424-2.142 84.83-2.067 95.295.076 10.466 2.91 21.483 24.392 21.483 21.483 0 343.72-.55 364.106 0z" fill="#e4e4e4" stroke="#375185" stroke-width="5"/><path d="M2776.323 2007.13c-14.032 40.212-18.942 46.822 2.37 23.136 21.312-23.686 29.008-25.89 28.29-49.025-.717-23.135-6.787-559.103-9.769-667.067-2.982-107.965-8.268-535.417-8.375-702.872-.106-167.456-1.862-410.927-7.791-469.316-5.93-58.39 2.708-82.626-127.37-93.643-130.077-11.017-503.682-29.746-807.825-40.762-304.144-11.017-728.29-11.017-1053.16 6.61-324.868 17.627-636.532 33.05-686.036 42.965-49.504 9.915-63.66 33.05-64.276 100.253-.617 67.203-7.867 589.4-13.095 781.092-5.227 191.692-13.624 402.113-13.812 528.806C15.286 1594 5.63 1935.521 3.65 1966.368c-1.98 30.848-1.989 29.746 9.171 49.576 11.16 19.83 17.822 26.991 14.845-3.856-2.977-30.847-11.917-48.474-8.13-134.405 3.786-85.93 18.196-551.706 20.514-662.325 2.318-110.618 20.13-665.27 25.676-760.31 5.547-95.038-1.854-257.071 43.025-299.137 44.879-42.067 68.17-52.973 429.516-68.553 361.347-15.58 646.395-24.928 884.794-21.812 238.398 3.116 804.09 21.812 1000.445 28.044 196.355 6.232 307.142 29.602 320.55 160.475 13.408 130.873 19.967 824.188 26.473 1078.144 6.506 253.956 11.409 501.68 13.394 560.884 1.985 59.205 2.44 81.622-7.6 114.038z" fill="#d1d1d1"/><path d="M89.026 667.487c4.057-48.474 7.322-53.982 51.39-53.982 44.066 0 775.574-1.102 954.047-1.102 178.472 0 1010.257 2.204 1127.035 2.204 116.778 0 378.994 2.203 431.882 3.305 52.889 1.101 64.983-2.204 69.645 33.05 4.66 35.254 12.5 511.18 17.678 618.043 5.177 106.863 13.112 596.009 12.305 636.771-.808 40.762.492 68.304-54.592 68.304-55.084 0-677.525 1.102-797.6 2.204-120.076 1.101-878.008 4.406-1043.284 1.101-165.276-3.305-716.18-12.118-760.255-13.22-44.075-1.101-57.39-14.322-57.955-92.541-.564-78.22 13.053-481.434 16.832-568.467 3.779-87.033 22.49-547.535 32.872-635.67z" fill="#454545"/><path d="M104.51 523.167c-.887 29.745.254 35.254 30 35.254 29.745 0 849.403 1.102 1004.732 0 155.33-1.102 1455.384 8.813 1509.358 7.712 53.974-1.102 58.405 2.203 60.338-35.254 1.933-37.457 2.105-166.354-5.037-240.166-7.143-73.813-31.793-131.1-197.109-139.914-165.315-8.813-705.29-29.745-1028.098-31.949-322.808-2.203-988.08 17.627-1160.949 30.847-172.868 13.22-190.225 50.678-198.395 139.914-8.17 89.236-15.118 194.997-14.84 233.556z" fill="#292929"/><path d="M366.593 146.523c-18.864 1.088-35.483 2.152-48.847 3.174-172.868 13.22-190.226 50.678-198.396 139.914-8.17 89.236-15.119 194.998-14.84 233.557-.888 29.745.255 35.253 30 35.253 9.182 0 102.945.103 219.884.215 3.178-115.17 7.386-324.918 12.199-412.113zm2069.573.828c.892 90.35-1.357 311.512-2.455 418.006 119.23.672 202.208 1.034 214.889.775 53.974-1.101 58.406 2.204 60.339-35.253 1.933-37.458 2.104-166.354-5.039-240.167-7.142-73.812-31.792-131.1-197.108-139.914-18.803-1.002-43-2.176-70.626-3.447z" fill="#353535"/><path d="M2539.413 207.342c55.57.713 64.138 7.837 69.224 44.17 5.087 36.332 2.292 56.28.926 77.652-1.367 21.372-15.58 34.195-67.59 32.77-52.009-1.424-57.007-5.699-62.793-37.045-5.785-31.346-1.616-69.816 2.598-91.9 4.214-22.085 21.304-24.934 57.635-25.647z" fill="#ccc"/><path d="M2544.644 527.32c-55.57-.712-60.559-1.424-65.645-37.757-5.087-36.333-2.317-65.542-.95-86.914 1.365-21.372 10.597-32.058 62.607-30.633 52.01 1.424 62.698 2.137 68.483 33.483 5.785 31.346.915 74.09-3.299 96.175-4.214 22.084-24.866 24.934-61.196 25.646z" fill="#cd7b1b"/><path d="M267.544 203.025c55.57.712 64.139 7.836 69.225 44.169 5.086 36.333 2.291 56.28.925 77.652-1.366 21.373-15.58 34.196-67.589 32.771-52.01-1.425-57.008-5.7-62.793-37.045-5.785-31.346-1.616-69.816 2.598-91.9 4.214-22.085 21.304-24.935 57.634-25.647z" fill="#ccc"/><path d="M272.775 523.003c-55.57-.713-60.558-1.425-65.645-37.758-5.086-36.333-2.317-65.541-.95-86.913 1.366-21.373 10.598-32.059 62.608-30.634 52.01 1.425 62.697 2.137 68.482 33.483 5.786 31.346.916 74.09-3.298 96.175-4.214 22.085-24.866 24.934-61.197 25.647z" fill="#cd7b1b"/><path d="M1414.358 118.689c-245.88.298-625.26 9.916-877.615 19.906-1.371 115.593-4.217 319.242-6.275 420.19 244.866.176 523.622.24 608.775-.364 103.669-.735 712.174 3.395 1124.887 5.924.912-92.386 1.306-305.399.828-424.224-235.284-9.244-562.746-19.744-786.263-21.27-20.176-.138-41.69-.19-64.337-.162z" fill="#292929"/><path d="M1056.16 179.83c-237.583.022-438.57.405-519.958 1.468-1.368 108.982-3.512 259.958-5.29 354.125 114.162.31 1626.468 5.628 1676.796 4.696 30.663-.568 44.783-1.146 56.631-2.112.668-89.882.978-245.858.738-356.511a1824.68 1824.68 0 00-27.65-.213c-32.382 0-684.664-1.5-1181.266-1.453z" fill="#242424"/><path d="M535.8 212.99c-1.165 89.738-2.708 197.648-4.145 281.176 105.613.3 1584.012 6.096 1732.925 5.73.44-81.101.65-191.773.549-283.2-205.977-1.004-1634.506-3.575-1729.329-3.706z" fill="#2a2a2a"/></svg>