<?xml version="1.0" encoding="UTF-8" standalone="no"?>
<svg
   xmlns:dc="http://purl.org/dc/elements/1.1/"
   xmlns:cc="http://creativecommons.org/ns#"
   xmlns:rdf="http://www.w3.org/1999/02/22-rdf-syntax-ns#"
   xmlns:svg="http://www.w3.org/2000/svg"
   xmlns="http://www.w3.org/2000/svg"
   viewBox="0 0 2808.4226 2968.895"
   height="2968.895"
   width="2808.4226"
   id="svg6343"
   version="1.1">
  <metadata
     id="metadata6349">
    <rdf:RDF>
      <cc:Work
         rdf:about="">
        <dc:format>image/svg+xml</dc:format>
        <dc:type
           rdf:resource="http://purl.org/dc/dcmitype/StillImage" />
        <dc:title></dc:title>
      </cc:Work>
    </rdf:RDF>
  </metadata>
  <defs
     id="defs6347" />
  <path
     id="path6980"
     d="m 88.238178,100.12175 811.094412,-67.294001 629.39191,-6.2321 1106.4577,37.3923 125.4052,105.944801 16.5548,567.1162 20.9825,1180.97265 -5.2655,133.989 -224.1515,28.0442 -2549.086649,-24.9282 -6.84452,-84.9116 16.54713,-729.9284 19.916021,-694.87315 9.46353,-415.989 z"
     style="fill:#1d1d1d;fill-opacity:1;stroke:none;stroke-width:1px;stroke-linecap:butt;stroke-linejoin:miter;stroke-opacity:1" />
  <path
     id="path6974"
     d="m 2807.1994,1988.1321 c 0.1911,26.4862 1.0881,42.8454 1.2231,61.5415 0.1351,18.6961 -74.2847,69.3315 -74.2847,69.3315 l -243.6074,138.663 -434.5392,20.2542 -1645.27146,-1.558 -376.188789,-98.1548 c 0,0 -34.25019197,-104.3867 -34.50305417,-139.442 -0.2528518,-35.0552 1.26021567,-41.2873 2.63279217,-66.9945 1.3725865,-25.7072 10.115842,-1.558 10.115842,-1.558 0,0 -1.211672,-59.9834 2.941835,-24.1492 4.153495,35.8343 7.561716,76.3426 56.655928,78.6796 49.094236,2.337 630.271896,7.7901 727.653216,8.5691 97.38134,0.779 1124.13339,3.895 1263.55299,0.779 139.4195,-3.116 542.967,0 615.3864,-3.895 72.4195,-3.8951 101.0798,-26.4862 106.9747,-73.2266 5.895,-46.7403 21.2578,31.1602 21.2578,31.1602 z"
     style="fill:#212121;fill-opacity:1;stroke:none;stroke-width:1px;stroke-linecap:butt;stroke-linejoin:miter;stroke-opacity:1" />
  <path
     id="path6966"
     d="m 2801.0788,2543.5633 c -2.1291,28.8232 4.2377,47.5193 3.5374,58.4254 -0.7004,10.9061 -53.7627,-1.558 -53.7627,-1.558 l -811.3327,7.1159 7.139,302.4113 c 0,0 16.5941,11.0337 -2.5,9.8651 -19.094,-1.1685 -32.3272,0.1948 -41.8686,0.3895 -9.5415,0.1948 11.7899,-12.464 11.7899,-12.464 l -3.7389,-297.9985 -1062.55482,-3.0873 -4.26529,272.652 c 0,0 20.75238,32.8466 0.36932,32.5712 -20.38315,-0.2755 -33.60335,-0.2755 -48.19253,0.8262 -14.58938,1.1017 13.4082,-12.1185 13.4082,-12.1185 l 0.65234,-291.3945 -788.367706,-15.9743 c 0,0 -17.5851761,5.7838 -17.6884802,-8.5381 -0.1033338,-14.3218 -2.4536767,-34.7029 -2.5172406,-43.5163 -0.063544,-8.8135 12.2098668,12.6693 12.2098668,12.6693 l 353.44158,10.7567 433.95117,6.2321 -195.36245,-300.6963 c 0,0 -32.37252,-21.1826 -1.52933,-21.7334 30.84309,-0.5509 44.61615,-0.2755 60.59631,0.5508 15.98036,0.8263 -3.52272,7.9872 -3.52272,7.9872 l 181.79465,301.4276 1064.19493,10.127 185.5322,-306.1492 c 0,0 -9.0206,-8.5691 11.2366,-8.1796 20.2568,0.3895 49.4499,-2.337 69.7069,-1.9475 20.2568,0.3895 -43.7555,35.8343 -43.7555,35.8343 l -172.0624,283.5581 602.9336,-2.3371 z"
     style="fill:#555555;fill-opacity:1;stroke:none;stroke-width:1px;stroke-linecap:butt;stroke-linejoin:miter;stroke-opacity:1" />
  <path
     id="path6915"
     d="m 7.5421267,2575.5874 c -2.7546556,0.06 -4.1264724,1.5505 -4.1012803,8.1621 0.04028,10.5786 0.6977145,315.3426 2.8490319,351.1153 2.1513277,35.7728 20.7630777,28.2786 43.9128937,22.3125 23.149806,-5.966 35.200952,-15.9991 117.778798,-25.793 82.57785,-9.7937 265.9408,-10.6804 360.63758,-12.8769 94.69689,-2.1965 268.98245,-5.1308 278.548,-6.6094 9.56565,-1.4787 14.09297,-3.4782 13.55066,-13.5547 -0.54209,-10.0767 0.21499,-75.5591 1.38618,-164.7168 1.17155,-89.1578 1.08069,-112.8348 2.02684,-128.9512 0.94605,-16.1164 -2.59017,-19.1506 -23.74806,-19.2226 -30.73304,-1.112 -432.22683,-1.9735 -594.9367,-1.5196 -162.709848,0.4539 -184.399493,-7.1772 -191.454008,-7.705 -2.645443,-0.1979 -4.7971231,-0.6764 -6.4499353,-0.6407 z m 2787.0325733,5.5782 c -5.6648,0.01 -14.8053,1.8196 -29.569,2.9121 -45.2595,3.3491 -167.7245,6.4807 -344.0396,5.8808 -176.3151,-0.5999 -462.4398,0.9465 -477.0448,1.9043 -14.6056,0.9578 -14.587,5.4915 -14.5257,21.6114 0.061,16.1198 -0.9733,273.5261 -0.9179,288.1347 0.056,14.6087 -0.4358,17.6294 16.6938,18.1914 17.1298,0.5621 466.9889,3.1005 636.2802,11.2324 169.2913,8.1322 169.9012,35.8387 191.0648,37.4219 21.1637,1.5833 24.1813,0.5865 27.0771,-32.6504 2.8958,-33.237 4.4252,-293.1595 4.2929,-327.9179 -0.083,-21.7241 0.1292,-26.7317 -9.3118,-26.7207 z m -1940.78133,5.416 c -4.42704,-0.01 -7.1867,0 -8.06821,0.033 -14.10326,0.4557 -15.09949,3.4743 -16.08196,10.0195 -0.98267,6.5453 -2.83549,49.3569 -2.67803,90.6641 0.15716,41.307 -0.74856,199.9825 -0.20062,211.5703 0.54795,11.5879 1.5612,13.1021 19.19267,13.1621 17.63155,0.06 518.88528,5.795 609.56158,6.1035 90.6764,0.3085 425.679,2.4552 446.835,2.0234 21.156,-0.4318 19.1385,-0.9416 19.5903,-14.541 0.452,-13.5994 2.9925,-272.5126 1.9102,-292.1621 -1.0825,-19.6495 -2.0941,-20.6595 -33.3291,-21.2695 -31.7366,-0.108 -327.942,-0.1099 -431.7181,-0.9668 -97.29,-0.8033 -538.6083,-4.5473 -605.01374,-4.6367 z"
     style="fill:#d7d7d7;fill-opacity:1;stroke:none;stroke-width:1px;stroke-linecap:butt;stroke-linejoin:miter;stroke-opacity:1" />
  <path
     id="path6921"
     d="m 2799.9264,2017.9839 c -1.5139,-0.01 -3.2487,0.6565 -5.2032,1.8965 -7.8177,4.9601 -10.616,18.4861 -22.6647,34.8301 -12.0488,16.3441 -52.439,73.1985 -194.7115,128.2812 -142.2724,55.0827 -255.4933,68.9455 -347.3955,68.6328 -91.9024,-0.3127 -94.0322,1.8171 -103.2474,13.8965 -9.2154,12.0794 -167.0966,270.8533 -177.7042,291.4766 -13.4492,22.7508 -7.7312,27.7569 13.6389,27.1172 21.3698,-0.6396 309.1906,1.0529 418.8952,-0.711 109.7048,-1.764 226.5365,-2.7918 272.1315,-2.6367 45.5949,0.1551 125.3513,-8.8357 136.0241,-12.3613 10.6726,-3.5257 10.6474,-9.9364 11.2921,-27.7441 0.6445,-17.8077 7.4209,-482.9776 6.6352,-502.2149 -0.5893,-14.428 -3.1489,-20.4474 -7.6905,-20.4629 z M 4.3378026,2022.2261 c -3.52344327,0.3602 -4.07639207,7.9607 -3.59860027,22.3438 0.80472087,24.2242 -0.2714205,489.4124 0.48987507,502.2382 0.7612751,12.8256 2.9175267,17.8199 17.8865106,20.0079 14.968964,2.1881 54.167,6.5962 178.846072,8.4453 124.67906,1.849 556.94028,3.5345 589.80472,4.6074 29.71969,-0.4025 36.7698,-1.3855 19.04224,-26.6328 -17.72747,-25.2472 -157.70052,-271.0456 -168.34286,-287.7051 -10.64213,-16.6596 -8.63275,-18.1634 -32.30749,-17.7402 -23.67465,0.4232 -122.91843,-0.9212 -213.15425,-17.8516 -90.23595,-16.9303 -133.76636,-26.3387 -232.96659,-72.2695 -99.200223,-45.9308 -129.362705,-109.4373 -143.673544,-125.8711 -5.81379,-6.6763 -9.6153085,-9.8187 -12.0260834,-9.5723 z M 650.9292,2248.2788 c -14.5435,-0.1466 -10.73306,6.6944 1.46914,24.6934 13.85117,20.4311 157.40304,270.1755 167.43402,285.1699 10.03077,14.9944 14.31937,18.5709 31.41752,18.6289 17.09806,0.058 409.64342,2.1068 520.06872,2.4825 110.4253,0.3757 506.5373,3.149 528.6196,2.5117 22.0824,-0.6372 24.2164,-1.3435 32.0068,-13.4278 7.7905,-12.0842 169.8921,-285.0925 179.8117,-299.3066 9.9196,-14.2141 9.9154,-15.6379 -11.4571,-15.7109 -21.3726,-0.073 -467.3259,4.1102 -694.5936,1.9121 -227.2676,-2.198 -733.45077,-5.7017 -751.62157,-6.8321 -1.1356,-0.071 -2.18561,-0.1113 -3.15523,-0.1211 z"
     style="fill:#e1e1e1;fill-opacity:1;stroke:none;stroke-width:1px;stroke-linecap:butt;stroke-linejoin:miter;stroke-opacity:1" />
  <path
     id="path6935"
     d="m 7.5421267,2575.5874 c -2.7546556,0.06 -4.1264624,1.5505 -4.1012803,8.1621 0.025463,6.7397 0.3038879,132.7596 1.0572593,232.6817 68.4793883,16.594 166.1297943,8.716 417.2855343,11.1543 89.90863,0.8728 232.11531,1.7403 399.15308,2.5312 0.28021,-26.8239 0.67226,-58.8204 1.16727,-96.4902 1.17155,-89.1578 1.08069,-112.8348 2.02684,-128.9512 0.94605,-16.1164 -2.59017,-19.1506 -23.74806,-19.2226 -30.73304,-1.112 -432.22683,-1.9735 -594.9367,-1.5196 -162.709848,0.4539 -184.399493,-7.1772 -191.454008,-7.705 -2.645443,-0.1979 -4.7971231,-0.6764 -6.4499353,-0.6407 z m 2787.0325733,5.5782 c -5.6648,0.01 -14.8053,1.8196 -29.569,2.9121 -45.2595,3.3491 -167.7245,6.4807 -344.0396,5.8808 -176.3151,-0.5999 -462.4398,0.9465 -477.0448,1.9043 -14.6056,0.9578 -14.587,5.4915 -14.5257,21.6114 0.043,11.2595 -0.4381,137.9979 -0.7198,219.7304 292.0943,0.2475 527.8088,-0.1525 596.7894,-1.5898 105.3326,-2.1948 206.0293,17.1201 276.4455,19.5488 1.3756,-89.8876 2.0665,-219.4544 1.9758,-243.2773 -0.083,-21.7241 0.1292,-26.7317 -9.3118,-26.7207 z m -1940.78133,5.416 c -4.42704,-0.01 -7.1867,0 -8.06821,0.033 -14.10326,0.4557 -15.09949,3.4743 -16.08196,10.0195 -0.98267,6.5453 -2.83549,49.3569 -2.67803,90.6641 0.0953,24.9353 -0.17554,90.5452 -0.30182,142.8457 326.52955,1.537 749.73665,2.7533 1096.16075,3.0566 0.8214,-82.2545 1.7698,-206.3188 1.0302,-219.7461 -1.0825,-19.6495 -2.0941,-20.6595 -33.3292,-21.2695 -31.7366,-0.108 -327.942,-0.1099 -431.718,-0.9668 -97.29,-0.8033 -538.60834,-4.5473 -605.01378,-4.6367 z"
     style="fill:#dedede;fill-opacity:1;stroke:none;stroke-width:1px;stroke-linecap:butt;stroke-linejoin:miter;stroke-opacity:1" />
  <path
     id="path6941"
     d="m 2204.4439,2508.7108 c 65.2683,-0.8589 67.5104,-47.2382 67.3059,-75.5809 -0.2045,-28.3429 -15.9368,-66.1334 -69.1869,-66.1334 -53.2503,0 -71.8358,42.9437 -69.8826,75.5809 1.9533,32.6374 27.0897,64.4156 71.7636,66.1334 z"
     style="fill:#c5c5c5;fill-opacity:1;stroke:none;stroke-width:0.85248393px;stroke-linecap:butt;stroke-linejoin:miter;stroke-opacity:1" />
  <path
     id="path6943"
     d="m 2402.0349,2504.5342 c 48.205,-1.5809 62.978,-35.5694 62.7386,-68.7676 -0.2394,-33.1983 -12.3296,-65.6058 -64.5152,-67.9772 -52.1858,-2.3713 -65.3038,41.893 -65.1042,69.558 0.1996,27.6653 23.4128,67.9773 66.8808,67.1868 z"
     style="fill:#c5c5c5;fill-opacity:1;stroke:none;stroke-width:0.7845515px;stroke-linecap:butt;stroke-linejoin:miter;stroke-opacity:1" />
  <path
     id="path6945"
     d="m 2202.3902,2486.3378 c 42.4056,0.2749 52.4523,-34.0987 52.3181,-52.6981 -0.1339,-18.5991 -13.7833,-48.5648 -52.0151,-48.5648 -38.2319,0 -51.4485,29.9657 -51.2996,50.6314 0.1496,20.666 13.7784,50.3901 50.9966,50.6315 z"
     style="fill:#e2e2e2;fill-opacity:1;stroke:none;stroke-width:1.02560627px;stroke-linecap:butt;stroke-linejoin:miter;stroke-opacity:1" />
  <path
     id="path6947"
     d="m 2399.2766,2482.6962 c 35.5513,0.8669 51.8047,-29.4766 51.6546,-50.2834 -0.15,-20.8069 -16.8037,-45.9485 -51.4818,-45.9485 -34.6781,0 -47.4699,29.4764 -47.3198,50.2833 0.15,20.8069 17.6644,45.0816 47.147,45.9486 z"
     style="fill:#e2e2e2;fill-opacity:1;stroke:none;stroke-width:0.86050266px;stroke-linecap:butt;stroke-linejoin:miter;stroke-opacity:1" />
  <path
     style="fill:#c5c5c5;fill-opacity:1;stroke:none;stroke-width:0.85215908px;stroke-linecap:butt;stroke-linejoin:miter;stroke-opacity:1"
     d="m 571.33314,2501.1538 c 65.24334,-0.8586 67.48464,-47.2201 67.28022,-75.5522 -0.20431,-28.332 -15.9307,-66.1081 -69.1606,-66.1081 -53.2299,0 -71.80829,42.9274 -69.85582,75.5522 1.95237,32.6248 27.0793,64.391 71.7362,66.1081 z"
     id="path6949" />
  <path
     style="fill:#c5c5c5;fill-opacity:1;stroke:none;stroke-width:0.84473658px;stroke-linecap:butt;stroke-linejoin:miter;stroke-opacity:1"
     d="m 367.76905,2500.7551 c 51.90287,-1.7021 67.80928,-38.298 67.55145,-74.043 -0.25783,-35.7448 -13.27561,-70.6386 -69.46454,-73.1918 -56.189,-2.5532 -70.31337,45.1066 -70.09851,74.894 0.21487,29.7874 25.20894,73.1919 72.0116,72.3408 z"
     id="path6951" />
  <path
     style="fill:#e2e2e2;fill-opacity:1;stroke:none;stroke-width:1.06288803px;stroke-linecap:butt;stroke-linejoin:miter;stroke-opacity:1"
     d="m 569.71445,2482.4318 c 43.94678,0.2849 54.3587,-35.3381 54.21959,-54.6136 -0.1388,-19.2754 -14.28418,-50.3302 -53.90578,-50.3302 -39.6217,0 -53.31882,31.0548 -53.16436,52.4719 0.15467,21.4172 14.27907,52.2218 52.85055,52.4719 z"
     id="path6953" />
  <path
     style="fill:#e2e2e2;fill-opacity:1;stroke:none;stroke-width:0.90961236px;stroke-linecap:butt;stroke-linejoin:miter;stroke-opacity:1"
     d="m 364.84333,2476.2969 c 37.58034,0.9165 54.76113,-31.1586 54.6025,-53.153 -0.15866,-21.9944 -17.76253,-48.5709 -54.41983,-48.5709 -36.65718,0 -50.17894,31.1586 -50.0203,53.153 0.15866,21.9943 18.67235,47.6544 49.83763,48.5709 z"
     id="path6955" />
  <path
     id="path6958"
     d="m 2507.8656,2366.497 c 0.3432,-13.8943 0.2329,-17.1017 19.8277,-16.602 19.5948,0.4996 103.7823,-1.5441 155.9176,-1.7064 33.4587,-0.1044 86.4541,-0.5423 95.0091,-0.4469 12.3137,0.1374 14.3898,-0.2747 14.2847,10.9823 -0.1192,12.8683 -1.2554,131.3112 -1.9113,139.1554 -0.6559,7.8441 -2.0688,9.4972 -13.0974,11.3981 -11.0286,1.9009 -94.7449,0.6453 -151.4384,2.0675 -50.9676,1.2786 -97.9489,0.9827 -107.2069,1.4398 -9.258,0.4568 -11.7716,-2.3658 -12.1921,-11.267 -0.4205,-8.9012 0.3261,-115.4195 0.807,-135.0205 z"
     style="fill:#c5c5c5;fill-opacity:1;stroke:none;stroke-width:1px;stroke-linecap:butt;stroke-linejoin:miter;stroke-opacity:1" />
  <path
     id="path6960"
     d="m 2561.1059,2476.608 c 0.7378,14.0037 0.7585,16.8695 15.0909,17.3507 14.3325,0.4812 130.0398,-2.4136 153.1331,-3.189 15.0717,-0.5059 13.58,-5.7131 14.7779,-16.235 1.1977,-10.5217 4.4578,-88.3007 3.7658,-95.936 -0.6919,-7.6352 -2.2673,-12.5425 -16.8704,-12.3078 -21.3409,0.3429 -121.3167,-0.4314 -144.869,1.0982 -23.5523,1.5296 -23.8569,3.4436 -24.4454,10.1375 -0.5887,6.6937 -0.6678,87.2998 -0.5829,99.0814 z"
     style="fill:#e48d32;fill-opacity:1;stroke:none;stroke-width:0.89393371px;stroke-linecap:butt;stroke-linejoin:miter;stroke-opacity:1" />
  <path
     id="path6964"
     d="m 242.65172,2343.9869 c 14.60869,0 17.64572,2.015 18.2403,14.6087 0.59459,12.5937 -0.59921,126.4408 -0.52654,136.5157 0.0727,10.075 -6.45424,13.0975 -16.01819,14.105 -9.56395,1.0075 -160.181003,1.5112 -190.424064,-1.0075 -30.243059,-2.5188 -40.332549,-4.5338 -40.934409,-18.135 -0.60186,-13.6012 -0.459098,-133.4932 0.001,-139.5382 0.46014,-6.045 2.449701,-9.5712 14.539651,-9.5712 12.08996,0 177.333872,2.015 215.122252,3.0225 z"
     style="fill:#c5c5c5;fill-opacity:1;stroke:none;stroke-width:1px;stroke-linecap:butt;stroke-linejoin:miter;stroke-opacity:1" />
  <path
     id="path6962"
     d="m 193.13543,2364.9879 c 17.22054,0 20.76888,2.2079 20.85487,14.1298 0.086,11.9219 -0.69403,87.4274 -1.06233,97.5831 -0.36829,10.1557 -6.09574,11.9219 -15.80671,12.3634 -9.71096,0.4416 -117.020878,-1.3246 -128.059688,-1.3246 -11.03881,0 -20.346446,-4.8572 -21.331453,-18.9868 -0.985028,-14.1296 -0.983003,-75.0639 0.265204,-85.6611 1.248229,-10.5973 7.833294,-15.8959 21.511855,-17.2206 13.678561,-1.3247 109.498582,-0.8832 123.628252,-0.8832 z"
     style="fill:#e48d32;fill-opacity:1;stroke:none;stroke-width:0.87653375px;stroke-linecap:butt;stroke-linejoin:miter;stroke-opacity:1" />
  <path
     id="path6968"
     d="m 1132.4871,2752.9684 c 0.6056,-44.1653 5.7215,-46.8214 47.0345,-46.8214 41.3131,0 372.3959,3.8559 401.0396,3.8559 28.6436,0 36.9379,4.4067 37.228,44.6181 0.29,40.2113 -0.438,91.9903 0.2358,109.0664 0.5219,13.2247 -0.4197,18.1777 -12.5343,18.7285 -12.1145,0.5509 -440.1214,0 -456.6505,-0.5508 -16.5292,-0.5509 -16.5689,-6.0593 -16.1413,-23.1353 0.4278,-17.0761 -0.4989,-84.834 -0.2117,-105.7614 z"
     style="fill:#d2d2d2;fill-opacity:1;stroke:none;stroke-width:1px;stroke-linecap:butt;stroke-linejoin:miter;stroke-opacity:1" />
  <path
     id="path6970"
     d="m 1557.9637,2860.9331 c 23.6862,0 24.7719,-2.2033 25.7225,-23.1353 0.9508,-20.9319 -0.053,-83.7277 -0.1563,-98.0495 -0.1031,-14.3219 -1.2566,-21.4828 -24.3919,-21.4828 -23.1353,0 -363.0117,-1.1017 -375.6731,0 -12.6613,1.1017 -10.3904,10.466 -11.9317,25.8895 -1.5413,15.4235 -2.1424,84.8294 -2.0669,95.2954 0.076,10.4659 2.9092,21.4827 24.392,21.4827 21.4828,0 343.7204,-0.5508 364.1054,0 z"
     style="fill:#e4e4e4;fill-opacity:1;stroke:#375185;stroke-width:5;stroke-linecap:butt;stroke-linejoin:miter;stroke-miterlimit:4;stroke-dasharray:none;stroke-opacity:1" />
  <path
     id="path6972"
     d="m 2776.323,2007.1307 c -14.0318,40.2114 -18.9417,46.8214 2.3703,23.1353 21.312,-23.6861 29.0077,-25.8895 28.29,-49.0248 -0.7177,-23.1353 -6.7869,-559.1028 -9.7691,-667.0675 -2.9821,-107.9647 -8.2686,-535.41675 -8.3749,-702.87215 -0.1062,-167.4555 -1.8623,-410.9268 -7.7918,-469.3159 -5.9296,-58.389101 2.7089,-82.626101 -127.3688,-93.642901 -130.0778,-11.0168 -503.6826,-29.7453 -807.8258,-40.7621003 -304.1435,-11.0168 -728.2905,-11.0168 -1053.15896,6.6100003 -324.86872,17.6269 -636.533,33.0505 -686.03711,42.9656 -49.504101,9.9151 -63.659073,33.0504 -64.276015,100.252901 -0.616943,67.2025 -7.867112,589.3991 -13.094502,781.0915 -5.227389,191.69235 -13.624731,402.11335 -13.812571,528.80665 -0.187831,126.6932 -9.8429021,468.2142 -11.8237584,499.0612 -1.980856,30.8471 -1.988804,29.7454 9.1710404,49.5757 11.159834,19.8302 17.82158,26.9911 14.844867,-3.8559 -2.976704,-30.8471 -11.917283,-48.474 -8.130396,-134.405 3.786897,-85.9311 18.19632,-551.7061 20.514436,-662.3249 2.318126,-110.6188 20.129546,-665.27085 25.676072,-760.30955 5.546517,-95.0387 -1.854285,-257.0719 43.024627,-299.1382 44.87891,-42.0664 68.17041,-52.9724 429.51674,-68.552501 361.34622,-15.5802 646.39503,-24.9282 884.79323,-21.8122 238.3982,3.116 804.0913,21.8122 1000.4456,28.0442 196.3546,6.232 307.1419,29.602201 320.5499,160.475201 13.4082,130.873 19.9671,824.18805 26.4729,1078.14395 6.5059,253.9559 11.4087,501.6797 13.3938,560.8841 1.985,59.2045 2.4403,81.6215 -7.5998,114.0373 z"
     style="fill:#d1d1d1;fill-opacity:1;stroke:none;stroke-width:1px;stroke-linecap:butt;stroke-linejoin:miter;stroke-opacity:1" />
  <path
     id="path6976"
     d="m 89.025586,667.48725 c 4.057069,-48.4739 7.322381,-53.9823 51.389604,-53.9823 44.06722,0 775.57522,-1.1017 954.04741,-1.1017 178.4723,0 1010.2569,2.2033 1127.035,2.2033 116.7781,0 378.9941,2.2034 431.8827,3.3051 52.8885,1.1017 64.9831,-2.2034 69.6443,33.0504 4.661,35.2538 12.5006,511.17975 17.6781,618.04275 5.1775,106.863 13.1126,596.0091 12.3049,636.7713 -0.8077,40.7622 0.4926,68.3042 -54.5915,68.3042 -55.084,0 -677.5255,1.1017 -797.6008,2.2034 -120.0751,1.1016 -878.0075,4.4067 -1043.2834,1.1016 -165.27595,-3.305 -716.17979,-12.1184 -760.254963,-13.2201 -44.075168,-1.1017 -57.390694,-14.3219 -57.954891,-92.5412 -0.564207,-78.2193 13.052585,-481.4344 16.831534,-568.4671 3.778939,-87.0328 22.490916,-547.53525 32.872006,-635.66965 z"
     style="fill:#454545;fill-opacity:1;stroke:none;stroke-width:1px;stroke-linecap:butt;stroke-linejoin:miter;stroke-opacity:1" />
  <path
     id="path6978"
     d="m 104.5098,523.16705 c -0.88713,29.7454 0.25429,35.2538 29.99967,35.2538 29.74538,0 849.40367,1.1017 1004.73273,0 155.3289,-1.1017 1455.3835,8.8135 1509.3579,7.7118 53.9744,-1.1017 58.4049,2.2033 60.3381,-35.2538 1.9331,-37.4571 2.105,-166.3537 -5.0375,-240.1663 -7.1424,-73.8126 -31.7926,-131.1 -197.1083,-139.9135 -165.3155,-8.8134 -705.29,-29.7453 -1028.0983,-31.9487 -322.8083,-2.2034 -988.08037,17.6269 -1160.94879,30.847 -172.86848,13.2202 -190.22518,50.6774 -198.39497,139.9135 -8.16977,89.2361 -15.11866,194.9974 -14.84054,233.5562 z"
     style="fill:#292929;fill-opacity:1;stroke:none;stroke-width:1px;stroke-linecap:butt;stroke-linejoin:miter;stroke-opacity:1" />
  <path
     id="path6982"
     d="m 366.5929,146.52305 c -18.86412,1.0878 -35.48266,2.1518 -48.84678,3.1738 -172.86848,13.2202 -190.22622,50.678 -198.39601,139.9141 -8.16977,89.2361 -15.11876,194.9978 -14.84064,233.5566 -0.88713,29.7454 0.25549,35.2539 30.00087,35.2539 9.18169,0 102.94509,0.1021 219.8834,0.2149 3.17788,-115.1698 7.38586,-324.9183 12.19916,-412.1133 z m 2069.5727,0.8281 c 0.8922,90.3489 -1.3565,311.5118 -2.4545,418.0059 119.2302,0.6716 202.2083,1.0342 214.8887,0.7754 53.9744,-1.1017 58.4058,2.2032 60.339,-35.2539 1.9331,-37.4571 2.1037,-166.3535 -5.0388,-240.1661 -7.1424,-73.8126 -31.7923,-131.1005 -197.1079,-139.914 -18.8035,-1.0025 -42.9996,-2.1766 -70.6265,-3.4473 z"
     style="fill:#353535;fill-opacity:1;stroke:none;stroke-width:1px;stroke-linecap:butt;stroke-linejoin:miter;stroke-opacity:1" />
  <path
     id="path6992"
     d="m 2539.4129,207.34215 c 55.5698,0.7124 64.1383,7.8365 69.2246,44.1693 5.0864,36.3328 2.2915,56.2802 0.9252,77.6524 -1.3662,21.3722 -15.5794,34.1955 -67.589,32.7707 -52.0097,-1.4248 -57.0082,-5.6992 -62.7933,-37.0452 -5.7852,-31.3459 -1.616,-69.8159 2.5979,-91.9005 4.214,-22.0847 21.3039,-24.9343 57.6346,-25.6467 z"
     style="fill:#cccccc;fill-opacity:1;stroke:none;stroke-width:1px;stroke-linecap:butt;stroke-linejoin:miter;stroke-opacity:1" />
  <path
     style="fill:#cd7b1b;fill-opacity:1;stroke:none;stroke-width:1px;stroke-linecap:butt;stroke-linejoin:miter;stroke-opacity:1"
     d="m 2544.6438,527.32035 c -55.5698,-0.7124 -60.5586,-1.4248 -65.6451,-37.7576 -5.0864,-36.3328 -2.3168,-65.5415 -0.9505,-86.9137 1.3662,-21.3722 10.5983,-32.0583 62.6079,-30.6335 52.0097,1.4248 62.6978,2.1372 68.4829,33.4832 5.7852,31.3459 0.9154,74.0903 -3.2985,96.1749 -4.214,22.0847 -24.866,24.9343 -61.1967,25.6467 z"
     id="path6994" />
  <path
     style="fill:#cccccc;fill-opacity:1;stroke:none;stroke-width:1px;stroke-linecap:butt;stroke-linejoin:miter;stroke-opacity:1"
     d="m 267.54444,203.02465 c 55.56974,0.7124 64.13816,7.8365 69.2246,44.1693 5.08632,36.3328 2.29137,56.2802 0.92512,77.6524 -1.36626,21.3722 -15.57932,34.1955 -67.58893,32.7707 -52.0097,-1.4248 -57.00821,-5.6992 -62.79338,-37.0452 -5.78517,-31.3459 -1.61606,-69.8159 2.59784,-91.9005 4.214,-22.0847 21.30399,-24.9343 57.63475,-25.6467 z"
     id="path6996" />
  <path
     id="path6998"
     d="m 272.77519,523.00285 c -55.56975,-0.7124 -60.55859,-1.4248 -65.64503,-37.7576 -5.08633,-36.3328 -2.31674,-65.5415 -0.9505,-86.9137 1.36626,-21.3722 10.59829,-32.0583 62.60789,-30.6335 52.0097,1.4248 62.69776,2.1372 68.48293,33.4832 5.78517,31.3459 0.91536,74.0903 -3.29854,96.1749 -4.214,22.0847 -24.866,24.9343 -61.19675,25.6467 z"
     style="fill:#cd7b1b;fill-opacity:1;stroke:none;stroke-width:1px;stroke-linecap:butt;stroke-linejoin:miter;stroke-opacity:1" />
  <path
     id="path7672"
     d="m 1414.3584,118.68905 c -245.8812,0.2978 -625.26113,9.9159 -877.61536,19.9063 -1.37104,115.5929 -4.21676,319.242 -6.27472,420.1894 244.86528,0.1759 523.62158,0.2407 608.77448,-0.3633 103.6691,-0.7353 712.174,3.3949 1124.8872,5.9239 0.9117,-92.3867 1.3058,-305.3993 0.8282,-424.2247 -235.2846,-9.2437 -562.746,-19.7438 -786.2634,-21.2695 -20.1755,-0.1377 -41.6891,-0.1895 -64.3364,-0.1621 z"
     style="fill:#292929;fill-opacity:1;stroke:none;stroke-width:1px;stroke-linecap:butt;stroke-linejoin:miter;stroke-opacity:1" />
  <path
     id="path7677"
     d="m 1056.1607,179.82965 c -237.58404,0.022 -438.5698,0.4052 -519.95889,1.4688 -1.36814,108.9811 -3.51216,259.9579 -5.28958,354.125 114.16224,0.3096 1626.46807,5.6273 1676.79607,4.6953 30.6625,-0.5679 44.7829,-1.1457 56.6309,-2.1113 0.6681,-89.8828 0.9781,-245.8581 0.7381,-356.5118 -8.2667,-0.123 -17.2762,-0.2129 -27.6509,-0.2129 -32.3815,0 -684.6636,-1.4999 -1181.2657,-1.4531 z"
     style="fill:#242424;fill-opacity:1;stroke:none;stroke-width:1px;stroke-linecap:butt;stroke-linejoin:miter;stroke-opacity:1" />
  <path
     id="path7679"
     d="m 535.80034,212.98985 c -1.16548,89.7384 -2.70876,197.6485 -4.14574,281.1758 105.61303,0.3008 1584.0119,6.0963 1732.9259,5.7304 0.4389,-81.1011 0.6486,-191.773 0.5484,-283.1992 -205.977,-1.0049 -1634.50621,-3.5758 -1729.32856,-3.707 z"
     style="fill:#2a2a2a;fill-opacity:1;stroke:none;stroke-width:1px;stroke-linecap:butt;stroke-linejoin:miter;stroke-opacity:1" />
</svg>
