<?xml version="1.0" encoding="UTF-8" standalone="no"?>
<svg
   xmlns:dc="http://purl.org/dc/elements/1.1/"
   xmlns:cc="http://creativecommons.org/ns#"
   xmlns:rdf="http://www.w3.org/1999/02/22-rdf-syntax-ns#"
   xmlns:svg="http://www.w3.org/2000/svg"
   xmlns="http://www.w3.org/2000/svg"
   viewBox="0 0 4032 5376"
   height="5376"
   width="4032"
   id="svg949"
   version="1.1">
  <metadata
     id="metadata955">
    <rdf:RDF>
      <cc:Work
         rdf:about="">
        <dc:format>image/svg+xml</dc:format>
        <dc:type
           rdf:resource="http://purl.org/dc/dcmitype/StillImage" />
        <dc:title></dc:title>
      </cc:Work>
    </rdf:RDF>
  </metadata>
  <defs
     id="defs953" />
  <path
     id="path1765"
     d="m 562.86316,3017.4316 c -62.65263,0 -69.72632,2.021 -76.8,-84.8842 -7.07369,-86.9053 -9.09474,-203.1158 -2.02105,-254.6527 7.07368,-51.5368 16.16842,-61.6421 63.66315,-61.6421 47.49474,0 71.74737,6.0632 70.73685,34.3579 -1.01053,28.2948 -55.57895,366.8211 -55.57895,366.8211 z"
     style="fill:#121212;stroke:none;stroke-width:1px;stroke-linecap:butt;stroke-linejoin:miter;stroke-opacity:1;fill-opacity:1" />
  <path
     id="path1552"
     d="M 1715 1804.6836 L 1715 1804.7012 L 1094.6914 1828.9746 L 831.73633 1906.1445 L 697.40039 2269.1367 L 631.66211 2572.1055 L 583.07227 2975.1113 L 614.51367 3235.209 L 1715 3397.0586 L 1715 3397.127 L 1715.2324 3397.0918 L 1715.4648 3397.127 L 1715.4648 3397.0586 L 2815.9512 3235.209 L 2847.3926 2975.1113 L 2798.8027 2572.1055 L 2733.0645 2269.1367 L 2598.7285 1906.1445 L 2335.7734 1828.9746 L 1715.4648 1804.7012 L 1715.4648 1804.6836 L 1715.2324 1804.6934 L 1715 1804.6836 z "
     style="fill:#1b1b1b;fill-opacity:1;stroke:none;stroke-width:1px;stroke-linecap:butt;stroke-linejoin:miter;stroke-opacity:1" />
  <path
     id="path1550"
     d="M 1692.7891 1909.1445 C 1518.1574 1909.1995 1205.8101 1922.0216 1059.0312 1950.3164 C 891.28396 1982.6532 838.73661 2063.4954 776.08398 2316.127 C 713.43135 2568.7586 687.15864 2793.0939 689.17969 2958.8203 C 691.20074 3124.5466 696.25355 3143.7478 717.47461 3151.832 C 738.69566 3159.9162 851.87419 3185.1799 889.26367 3195.2852 C 1119.6637 3257.9378 1436.9687 3302.4008 1592.5898 3304.4219 C 1644.0511 3305.0902 1683.3849 3305.7575 1715 3306.4258 L 1715 3306.4355 C 1715.0728 3306.434 1715.1596 3306.4332 1715.2324 3306.4316 C 1715.3053 3306.4332 1715.3921 3306.434 1715.4648 3306.4355 L 1715.4648 3306.4258 C 1747.08 3305.7575 1786.4138 3305.0902 1837.875 3304.4219 C 1993.4961 3302.4008 2310.8012 3257.9378 2541.2012 3195.2852 C 2578.5907 3185.1799 2691.7691 3159.9162 2712.9902 3151.832 C 2734.2113 3143.7478 2739.2642 3124.5466 2741.2852 2958.8203 C 2743.3063 2793.0939 2717.0336 2568.7586 2654.3809 2316.127 C 2591.7283 2063.4954 2539.1809 1982.6532 2371.4336 1950.3164 C 2224.6547 1922.0216 1912.3075 1909.1995 1737.6758 1909.1445 C 1729.8699 1909.1416 1722.4585 1909.1764 1715.2324 1909.2246 C 1708.0063 1909.1764 1700.5949 1909.1416 1692.7891 1909.1445 z "
     style="fill:#3f3f3f;fill-opacity:1;stroke:none;stroke-width:1px;stroke-linecap:butt;stroke-linejoin:miter;stroke-opacity:1" />
  <path
     id="path1541"
     d="M 1390.291 3393.752 L 858.73828 3731.0059 C 858.73828 3731.0059 573.53493 3646.2674 546 3684.6094 C 548.13559 3712.3721 550.27148 3747.2546 550.27148 3758.6445 C 550.27148 3770.0343 578.74609 3716.6445 578.74609 3716.6445 L 810.41602 3753.1543 L 1033.9102 3854.834 L 1217.1348 4062.2188 L 1277.5391 4149.8047 C 1277.5391 4149.8047 1282.5723 4156.8521 1300.6934 4157.3555 C 1318.8145 4157.8589 1355.0563 4157.3563 1374.6875 4156.3496 C 1394.3187 4155.3428 1365.123 4110.543 1365.123 4110.543 L 1233.2422 3914.2305 L 918.13672 3745.0996 L 1443.6484 3433.0137 L 1715 3443.127 L 1715 3443.1445 L 1715.2324 3443.1367 L 1715.4648 3443.1445 L 1715.4648 3443.127 L 1986.8164 3433.0137 L 2512.3281 3745.0996 L 2197.2227 3914.2305 L 2065.3418 4110.543 C 2065.3418 4110.543 2036.1461 4155.3428 2055.7773 4156.3496 C 2075.4085 4157.3563 2111.6504 4157.8589 2129.7715 4157.3555 C 2147.8926 4156.8521 2152.9258 4149.8047 2152.9258 4149.8047 L 2213.3301 4062.2188 L 2396.5547 3854.834 L 2620.0488 3753.1543 L 2851.7188 3716.6445 C 2851.7188 3716.6445 2880.1934 3770.0343 2880.1934 3758.6445 C 2880.1934 3747.2546 2882.3292 3712.3721 2884.4648 3684.6094 C 2856.9299 3646.2674 2571.7266 3731.0059 2571.7266 3731.0059 L 2040.1738 3393.752 L 1715.2324 3399.4707 L 1390.291 3393.752 z "
     style="fill:#222222;fill-opacity:1;stroke:none;stroke-width:1px;stroke-linecap:butt;stroke-linejoin:miter;stroke-opacity:1" />
  <path
     id="path1523"
     d="m 922.16406,1818.2229 c -90.60554,20.1346 -157.05139,108.7261 -199.33398,251.6816 -42.28259,142.9554 -114.76669,465.1094 -142.95508,666.4551 -28.18839,201.3457 -36.24219,503.3628 -36.24219,680.5468 0,177.1843 -1.19121,213.6024 1.65625,253.4668 2.84745,39.8644 1.42367,45.5598 27.05078,34.17 25.62712,-11.3899 135.25361,-3e-4 214.98243,22.7793 79.72881,22.7797 51.25446,29.8976 115.32226,-8.543 64.0678,-38.4407 190.77887,-108.2033 242.03317,-139.5254 51.2542,-31.322 224.2378,-135.9657 244.17,-147.3555 19.9322,-11.3898 27.4066,-18.5078 55.5253,-18.5078 27.3661,0 243.9465,8.0787 270.627,7.8555 v 0 c 0.053,7e-4 0.1776,0 0.2324,0 0.055,-6e-4 0.1794,0 0.2324,0 v 0 c 26.6806,0.2232 243.261,-7.8555 270.627,-7.8555 28.1187,0 35.5932,7.118 55.5254,18.5078 19.9322,11.3898 192.9157,116.0335 244.1699,147.3555 51.2543,31.3221 177.9654,101.0847 242.0332,139.5254 64.0678,38.4406 35.5935,31.3227 115.3223,8.543 79.7289,-22.7796 189.3552,-34.1692 214.9824,-22.7793 25.6271,11.3898 24.2034,5.6944 27.0508,-34.17 2.8475,-39.8644 1.6562,-76.2825 1.6562,-253.4668 0,-177.184 -8.0538,-479.2011 -36.2422,-680.5468 -28.1884,-201.3457 -100.6724,-523.4997 -142.955,-666.4551 -42.2826,-142.9555 -108.7284,-231.547 -199.334,-251.6816 -272.7363,-30.3602 -533.7204,-58.164 -793.0684,-57.7168 -263.1771,0.4538 -534.3379,5.986 -793.06834,57.7168 z m 787.00764,13.0768 c 143.8379,1.0065 240.8216,3.4908 391.5295,12.4288 200.7457,12.8136 357.3571,34.1702 437.0859,93.9668 79.7288,59.7966 128.1355,185.0844 165.1524,330.3047 37.017,145.2203 86.8465,398.6449 98.2363,543.8652 11.3899,145.2203 0,314.6427 -5.6934,343.1172 -5.6949,28.4746 -7.1186,32.747 -55.5254,45.5606 -48.4068,12.8135 -351.6617,108.2031 -569.4922,135.2539 -208.5565,25.8992 -376.2683,26.3467 -455.2324,26.9629 -78.964,-0.6162 -246.6759,-1.0637 -455.2324,-26.9629 -217.8305,-27.0508 -521.08541,-122.4404 -569.49219,-135.2539 -48.40678,-12.8136 -49.83047,-17.086 -55.52539,-45.5606 -5.69491,-28.4745 -17.08319,-197.8969 -5.69336,-343.1172 11.38983,-145.2203 61.21938,-398.6449 98.23633,-543.8652 37.01694,-145.2203 85.42352,-270.5081 165.15234,-330.3047 79.72881,-59.7966 236.34027,-81.1532 437.08597,-93.9668 106.1167,-6.7734 237.8719,-13.4192 379.408,-12.4288 z"
     style="fill:#d3d3d3;fill-opacity:1;stroke:none;stroke-width:1px;stroke-linecap:butt;stroke-linejoin:miter;stroke-opacity:1" />
  <path
     id="path1525"
     d="M 1459.7988 3419.0469 C 1458.7722 3419.0469 1457.8974 3419.062 1457.1855 3419.084 C 1434.4059 3419.7959 1423.7293 3416.9485 1393.1191 3435.457 C 1362.509 3453.9655 1186.6786 3563.5932 1127.5938 3597.0508 C 1068.5087 3630.5085 906.20296 3724.4756 889.83008 3737.2891 C 873.4572 3750.1027 869.89901 3753.6606 891.9668 3760.7793 C 914.0346 3767.8979 992.33821 3794.237 1067.084 3846.2031 C 1141.8298 3898.1692 1199.4918 3966.5082 1250.7461 4042.6777 C 1302.0003 4118.8472 1301.6996 4121.6158 1314.7871 4136.7168 C 1327.8745 4151.8177 1333.9151 4158.8659 1380.2246 4155.8457 C 1425.5075 4152.8925 1632.618 4151.8642 1715.2324 4150.8789 C 1797.8469 4151.8642 2004.9574 4152.8925 2050.2402 4155.8457 C 2096.5497 4158.8659 2102.5903 4151.8177 2115.6777 4136.7168 C 2128.7652 4121.6158 2128.4646 4118.8472 2179.7188 4042.6777 C 2230.9731 3966.5082 2288.6351 3898.1692 2363.3809 3846.2031 C 2438.1267 3794.237 2516.4302 3767.8979 2538.498 3760.7793 C 2560.5658 3753.6606 2557.0077 3750.1027 2540.6348 3737.2891 C 2524.2619 3724.4756 2361.9561 3630.5085 2302.8711 3597.0508 C 2243.7863 3563.5932 2067.9558 3453.9655 2037.3457 3435.457 C 2006.7355 3416.9485 1996.0589 3419.7959 1973.2793 3419.084 C 1972.5674 3419.062 1971.6926 3419.0469 1970.666 3419.0469 C 1939.9276 3418.9461 1772.6273 3427.0173 1715.2324 3427.5703 C 1657.8375 3427.0173 1490.5372 3418.9461 1459.7988 3419.0469 z "
     style="fill:#d2d2d2;fill-opacity:1;stroke:none;stroke-width:1px;stroke-linecap:butt;stroke-linejoin:miter;stroke-opacity:1" />
  <path
     id="path1527"
     d="m 606.0918,3703.9414 c -15.71735,0.118 -25.46077,1.581 -30.7461,2.9024 -14.09419,3.5234 -25.54535,5.9112 -25.67187,30.2031 -0.37766,72.5115 17.11327,256.7152 26.17383,306.0449 9.06055,49.3297 13.08851,74.4975 46.31054,79.5312 33.22203,5.0336 30.20148,4.0265 188.25782,14.0938 158.05635,10.0672 468.12838,19.1286 494.80668,20.6387 26.6783,1.5101 -1.0065,-14.0935 -25.168,-48.3223 -24.1614,-34.2287 -57.383,-95.1374 -122.8203,-170.1387 -65.4374,-75.0012 -161.58038,-129.867 -214.43362,-151.5117 -52.85323,-21.6446 -95.13586,-43.29 -201.3457,-65.9414 -66.38115,-14.1571 -109.1677,-17.6966 -135.36328,-17.5 z"
     style="fill:#d2d2d2;fill-opacity:1;stroke:none;stroke-width:1px;stroke-linecap:butt;stroke-linejoin:miter;stroke-opacity:1" />
  <path
     id="path1529"
     d="M 646.01562 3182.9668 C 646.11811 3183.7663 646.21206 3184.5475 646.32031 3185.3594 C 654.37414 3245.7631 686.23725 3405.5601 895.52539 3539.3906 C 950.08515 3574.2792 1004.4519 3604.0278 1058.5742 3629.2402 C 1076.7015 3618.9268 1093.9955 3609.0469 1109.1621 3600.2559 C 918.1633 3515.9938 784.7258 3410.1803 714.77734 3318.248 C 679.97943 3272.5136 665.81529 3227.2873 659.65039 3191.0195 C 653.51278 3188.5186 649.20214 3185.9733 646.01562 3182.9668 z M 2784.4492 3182.9668 C 2781.2627 3185.9733 2776.9521 3188.5186 2770.8145 3191.0195 C 2764.6496 3227.2873 2750.4854 3272.5136 2715.6875 3318.248 C 2645.739 3410.1803 2512.3015 3515.9938 2321.3027 3600.2559 C 2336.4693 3609.0469 2353.7633 3618.9268 2371.8906 3629.2402 C 2426.0129 3604.0278 2480.3798 3574.2792 2534.9395 3539.3906 C 2744.2277 3405.5601 2776.0907 3245.7631 2784.1445 3185.3594 C 2784.2527 3184.5475 2784.3467 3183.7663 2784.4492 3182.9668 z M 1116.4121 3603.4238 C 1102.2442 3611.4907 1085.242 3621.2277 1065.6699 3632.5195 C 1216.7319 3701.8113 1365.8748 3735.8541 1512 3747.2539 C 1607.3777 3754.6947 1671.9925 3758.5802 1715 3760.4766 L 1715 3760.498 C 1715.0728 3760.4948 1715.1595 3760.4895 1715.2324 3760.4863 C 1715.3054 3760.4895 1715.392 3760.4948 1715.4648 3760.498 L 1715.4648 3760.4766 C 1758.4723 3758.5802 1823.0871 3754.6947 1918.4648 3747.2539 C 2064.59 3735.8541 2213.7329 3701.8113 2364.7949 3632.5195 C 2345.2228 3621.2277 2328.2206 3611.4907 2314.0527 3603.4238 C 2130.4852 3682.8951 1921.7285 3695.7065 1715.2324 3703.6719 C 1508.7364 3695.7065 1299.9797 3682.8951 1116.4121 3603.4238 z "
     style="fill:#dedede;fill-opacity:1;stroke:none;stroke-width:1px;stroke-linecap:butt;stroke-linejoin:miter;stroke-opacity:1" />
  <path
     id="path1537"
     d="m 698.66944,3765.2347 c 49.32969,2.0135 76.51135,36.2422 74.4979,83.5585 -2.01346,47.3162 -33.22204,73.4911 -71.47771,72.4844 -38.25568,-1.0067 -73.49117,-25.1682 -74.4979,-81.545 -1.00673,-56.3768 31.20858,-73.4912 71.47771,-74.4979 z"
     style="fill:#e9e9e9;fill-opacity:1;stroke:none;stroke-width:1px;stroke-linecap:butt;stroke-linejoin:miter;stroke-opacity:1" />
  <path
     id="path1539"
     d="m 848.67196,3825.6384 c 36.24222,1.0067 57.38351,28.1884 58.39024,65.4374 1.00673,37.2489 -26.17494,58.3902 -53.3566,59.3969 -27.18166,1.0068 -61.41043,-8.0538 -61.41043,-60.4037 0,-52.3498 30.20185,-64.4306 56.37679,-64.4306 z"
     style="fill:#d67b1b;fill-opacity:1;stroke:none;stroke-width:1px;stroke-linecap:butt;stroke-linejoin:miter;stroke-opacity:1" />
  <path
     id="path1543"
     d="M 1525.209 3859.0723 C 1497.2766 3858.8722 1501.3203 3861.736 1501.3203 3883.3066 C 1501.3203 3904.5897 1501.8965 3970.1646 1503.0469 3982.2441 C 1504.1974 3994.3237 1507.0726 3998.9268 1521.4531 3999.502 C 1534.6525 4000.0299 1668.4215 4004.4278 1715.2324 4002.9238 C 1762.0434 4004.4278 1895.8124 4000.0299 1909.0117 3999.502 C 1923.3922 3998.9268 1926.2675 3994.3237 1927.418 3982.2441 C 1928.5684 3970.1646 1929.1445 3904.5897 1929.1445 3883.3066 C 1929.1445 3861.736 1933.1883 3858.8722 1905.2559 3859.0723 C 1903.3938 3859.0853 1901.3894 3859.1124 1899.2324 3859.1484 C 1866.9687 3859.6863 1743.5708 3860.721 1715.2324 3861.3242 C 1686.894 3860.721 1563.4961 3859.6863 1531.2324 3859.1484 C 1529.0754 3859.1124 1527.0711 3859.0853 1525.209 3859.0723 z "
     style="fill:#c6c6c6;fill-opacity:1;stroke:none;stroke-width:1px;stroke-linecap:butt;stroke-linejoin:miter;stroke-opacity:1" />
  <path
     id="path1545"
     d="m 1514.6465,3859.248 c -16.2195,0.918 -13.3262,5.743 -13.3262,24.0586 0,21.2831 0.5762,86.858 1.7266,98.9375 0.4789,5.0288 1.2721,8.7458 3.0547,11.4317 3.3233,0.9708 4.9292,-2.4735 4.4238,-12.582 -1.0001,-19.9999 3.6434,-94.7013 4.1211,-121.8458 z"
     style="fill:#999999;fill-opacity:1;stroke:none;stroke-width:1px;stroke-linecap:butt;stroke-linejoin:miter;stroke-opacity:1" />
  <path
     id="path1556"
     d="m 1059.0312,1950.3164 c -150.72641,29.0557 -208.44457,97.3015 -264.05659,294.1152 232.01569,-1.0852 636.79789,-0.5077 920.25779,-1.7871 283.4599,1.2794 688.2421,0.7019 920.2578,1.7871 -55.612,-196.8137 -113.3301,-265.0595 -264.0566,-294.1152 -216.5863,-28.3218 -440.354,-41.5001 -656.2012,-41.0919 -226.3138,0.428 -442.787,2.3707 -656.2012,41.0919 z"
     style="fill:#343434;fill-opacity:1;stroke:none;stroke-width:1px;stroke-linecap:butt;stroke-linejoin:miter;stroke-opacity:1" />
  <path
     id="path1561"
     d="m 1715,1950.3145 c -144.362,-0.01 -580.0272,0.2022 -613.1602,1.4765 -38.7422,1.4901 -44.7032,1.4906 -46.1933,23.8418 -1.4901,22.3513 -4.4707,156.4586 -4.4707,190.7305 0,34.2719 2.9803,41.7226 40.2324,41.7226 0,0 415.7279,0 623.5918,0 208.0189,0 416.0377,0 624.0566,0 37.2521,0 40.2325,-7.4507 40.2325,-41.7226 0,-34.2719 -2.9806,-168.3792 -4.4707,-190.7305 -1.4901,-22.3512 -7.4512,-22.3517 -46.1934,-23.8418 -204.5347,-1.5467 -409.0838,-1.4663 -613.625,-1.4765 z"
     style="fill:#292929;fill-opacity:1;stroke:none;stroke-width:1px;stroke-linecap:butt;stroke-linejoin:miter;stroke-opacity:1" />
  <path
     id="path1569"
     d="m 1021.7871,1958.8496 c -62.69038,16.9401 -107.10447,43.9734 -142.27538,89.9961 -0.7789,37.3443 -0.25431,65.3027 0.5625,77.1465 1.08117,15.677 4.32551,31.8949 28.11133,32.4355 23.78581,0.5406 66.49205,1.0817 81.08789,0.5411 14.59586,-0.5406 29.73286,-1.6225 30.27346,-20.543 0.489,-17.1169 2.2986,-147.5852 2.2402,-179.5762 z"
     style="fill:#2a2a2a;fill-opacity:1;stroke:none;stroke-width:1px;stroke-linecap:butt;stroke-linejoin:miter;stroke-opacity:1" />
  <path
     id="path1565"
     d="m 951.00954,2074.8809 c 46.93759,0.745 50.66276,5.2153 51.40776,39.4872 0.7451,34.2719 -6.7053,33.5268 -51.40776,33.5268 -44.70247,0 -49.91775,3.7252 -49.17271,-34.2719 0.74504,-37.9971 2.98016,-37.252 49.17271,-38.7421 z"
     style="fill:#d5d5d5;fill-opacity:1;stroke:none;stroke-width:1px;stroke-linecap:butt;stroke-linejoin:miter;stroke-opacity:1" />
  <path
     id="path1567"
     d="m 951.59143,2059.9107 c 47.68267,1.4901 50.66277,-12.6657 50.66277,-23.8413 0,-11.1757 -9.68551,-16.3909 -51.40781,-17.881 -41.7223,-1.4901 -47.68263,9.6855 -47.68263,19.371 0,9.6856 5.96033,23.8414 48.42767,22.3513 z"
     style="fill:#ba6722;fill-opacity:1;stroke:none;stroke-width:1px;stroke-linecap:butt;stroke-linejoin:miter;stroke-opacity:1" />
  <path
     style="fill:#d2d2d2;fill-opacity:1;stroke:none;stroke-width:1px;stroke-linecap:butt;stroke-linejoin:miter;stroke-opacity:1"
     d="m 2824.373,3703.9414 c 15.7174,0.118 25.4608,1.581 30.7461,2.9024 14.0942,3.5234 25.5454,5.9112 25.6719,30.2031 0.3776,72.5115 -17.1133,256.7152 -26.1739,306.0449 -9.0605,49.3297 -13.0885,74.4975 -46.3105,79.5312 -33.222,5.0336 -30.2015,4.0265 -188.2578,14.0938 -158.0564,10.0672 -468.1284,19.1286 -494.8067,20.6387 -26.6783,1.5101 1.0065,-14.0935 25.168,-48.3223 24.1614,-34.2287 57.383,-95.1374 122.8203,-170.1387 65.4374,-75.0012 161.5804,-129.867 214.4336,-151.5117 52.8533,-21.6446 95.1359,-43.29 201.3457,-65.9414 66.3812,-14.1571 109.1677,-17.6966 135.3633,-17.5 z"
     id="path1700" />
  <path
     style="fill:#e9e9e9;fill-opacity:1;stroke:none;stroke-width:1px;stroke-linecap:butt;stroke-linejoin:miter;stroke-opacity:1"
     d="m 2731.7954,3765.2347 c -49.3297,2.0135 -76.5114,36.2422 -74.4979,83.5585 2.0134,47.3162 33.222,73.4911 71.4777,72.4844 38.2557,-1.0067 73.4911,-25.1682 74.4979,-81.545 1.0067,-56.3768 -31.2086,-73.4912 -71.4777,-74.4979 z"
     id="path1704" />
  <path
     style="fill:#d67b1b;fill-opacity:1;stroke:none;stroke-width:1px;stroke-linecap:butt;stroke-linejoin:miter;stroke-opacity:1"
     d="m 2581.7928,3825.6384 c -36.2422,1.0067 -57.3835,28.1884 -58.3902,65.4374 -1.0067,37.2489 26.1749,58.3902 53.3566,59.3969 27.1817,1.0068 61.4104,-8.0538 61.4104,-60.4037 0,-52.3498 -30.2018,-64.4306 -56.3768,-64.4306 z"
     id="path1706" />
  <path
     style="fill:#999999;fill-opacity:1;stroke:none;stroke-width:1px;stroke-linecap:butt;stroke-linejoin:miter;stroke-opacity:1"
     d="m 1915.8183,3859.248 c 16.2195,0.918 13.3262,5.743 13.3262,24.0586 0,21.2831 -0.5762,86.858 -1.7266,98.9375 -0.4789,5.0288 -1.2721,8.7458 -3.0547,11.4317 -3.3233,0.9708 -4.9292,-2.4735 -4.4238,-12.582 1.0001,-19.9999 -3.6434,-94.7013 -4.1211,-121.8458 z"
     id="path1710" />
  <path
     style="fill:#2a2a2a;fill-opacity:1;stroke:none;stroke-width:1px;stroke-linecap:butt;stroke-linejoin:miter;stroke-opacity:1"
     d="m 2408.6777,1958.8496 c 62.6904,16.9401 107.1045,43.9734 142.2754,89.9961 0.7789,37.3443 0.2543,65.3027 -0.5625,77.1465 -1.0812,15.677 -4.3255,31.8949 -28.1113,32.4355 -23.7859,0.5406 -66.4921,1.0817 -81.0879,0.5411 -14.5959,-0.5406 -29.7329,-1.6225 -30.2735,-20.543 -0.489,-17.1169 -2.2986,-147.5852 -2.2402,-179.5762 z"
     id="path1716" />
  <path
     style="fill:#d5d5d5;fill-opacity:1;stroke:none;stroke-width:1px;stroke-linecap:butt;stroke-linejoin:miter;stroke-opacity:1"
     d="m 2479.4553,2074.8809 c -46.9376,0.745 -50.6628,5.2153 -51.4078,39.4872 -0.7451,34.2719 6.7053,33.5268 51.4078,33.5268 44.7024,0 49.9177,3.7252 49.1727,-34.2719 -0.7451,-37.9971 -2.9802,-37.252 -49.1727,-38.7421 z"
     id="path1718" />
  <path
     style="fill:#ba6722;fill-opacity:1;stroke:none;stroke-width:1px;stroke-linecap:butt;stroke-linejoin:miter;stroke-opacity:1"
     d="m 2478.8734,2059.9107 c -47.6827,1.4901 -50.6628,-12.6657 -50.6628,-23.8413 0,-11.1757 9.6855,-16.3909 51.4078,-17.881 41.7223,-1.4901 47.6826,9.6855 47.6826,19.371 0,9.6856 -5.9603,23.8414 -48.4276,22.3513 z"
     id="path1720" />
</svg>
