<svg xmlns="http://www.w3.org/2000/svg" width="2407.439" height="2397.052"><path d="M83.223 1256.93c-62.653 0-69.727 2.022-76.8-84.883-7.074-86.906-9.095-203.116-2.021-254.653 7.073-51.537 16.168-61.642 63.663-61.642 47.494 0 71.747 6.063 70.737 34.358-1.01 28.295-55.58 366.82-55.58 366.82z" fill="#121212"/><path d="M1235.36 44.183v.018L615.05 68.474l-262.954 77.17L217.76 508.636l-65.738 302.97-48.59 403.005 31.441 260.098 1100.487 161.849v.068l.232-.035.232.035v-.068l1100.487-161.85 31.441-260.098-48.59-403.005-65.738-302.97-134.336-362.991-262.955-77.17L1235.824 44.2v-.018l-.232.01z" fill="#1b1b1b"/><path d="M1213.149 148.644c-174.632.055-486.98 12.877-633.758 41.172-167.748 32.336-220.295 113.179-282.948 365.81-62.652 252.632-88.925 476.967-86.904 642.693 2.021 165.727 7.074 184.928 28.295 193.012 21.221 8.084 134.4 33.348 171.79 43.453 230.4 62.653 547.704 107.116 703.325 109.137 51.462.668 90.795 1.336 122.41 2.004v.01h.465v-.01c31.616-.668 70.95-1.336 122.41-2.004 155.622-2.021 472.927-46.484 703.327-109.137 37.39-10.105 150.568-35.369 171.789-43.453 21.22-8.084 26.274-27.285 28.295-193.011 2.02-165.727-24.252-390.062-86.905-642.694-62.652-252.631-115.2-333.474-282.947-365.81-146.779-28.295-459.126-41.117-633.758-41.172-7.806 0-15.217.032-22.443.08-7.226-.048-14.638-.083-22.443-.08z" fill="#3f3f3f"/><path d="M910.65 1633.251l-531.552 337.254s-285.204-84.738-312.739-46.396c2.136 27.762 4.272 62.645 4.272 74.035 0 11.39 28.475-42 28.475-42l231.67 36.51 223.494 101.68 183.224 207.384 60.405 87.586s5.033 7.047 23.154 7.55c18.121.504 54.363.002 73.994-1.005s-9.565-45.807-9.565-45.807l-131.88-196.312-315.106-169.131 525.512-312.086 271.352 10.113v.017l.232-.01.232.01v-.017l271.352-10.113 525.512 312.086-315.106 169.13-131.88 196.313s-29.196 44.8-9.565 45.807c19.631 1.006 55.873 1.51 73.994 1.006 18.121-.504 23.154-7.551 23.154-7.551l60.405-87.586 183.224-207.385 223.494-101.68 231.67-36.51s28.475 53.39 28.475 42 2.136-46.272 4.271-74.034c-27.535-38.342-312.738 46.396-312.738 46.396l-531.553-337.254-324.941 5.719z" fill="#222"/><path d="M442.524 57.722C351.918 77.857 285.472 166.448 243.19 309.404c-42.283 142.955-114.767 465.11-142.956 666.455-28.188 201.346-36.242 503.363-36.242 680.547 0 177.184-1.19 213.602 1.657 253.466 2.847 39.865 1.423 45.56 27.05 34.17 25.627-11.39 135.254 0 214.983 22.78 79.729 22.78 51.254 29.897 115.322-8.543 64.068-38.441 190.779-108.204 242.033-139.526 51.254-31.322 224.238-135.965 244.17-147.355 19.932-11.39 27.407-18.508 55.525-18.508 27.367 0 243.947 8.079 270.628 7.856h.464c26.68.223 243.261-7.856 270.627-7.856 28.119 0 35.594 7.118 55.526 18.508 19.932 11.39 192.915 116.033 244.17 147.355 51.254 31.322 177.965 101.085 242.033 139.526 64.068 38.44 35.593 31.322 115.322 8.543 79.729-22.78 189.355-34.17 214.983-22.78 25.627 11.39 24.203 5.695 27.05-34.17 2.848-39.864 1.657-76.282 1.657-253.466 0-177.184-8.054-479.201-36.243-680.547-28.188-201.346-100.672-523.5-142.955-666.455-42.282-142.956-108.728-231.547-199.334-251.682C1755.924 27.362 1494.94-.442 1235.592.005 972.415.46 701.254 5.991 442.524 57.722zM1229.53 70.8c143.838 1.006 240.822 3.49 391.53 12.429 200.745 12.813 357.357 34.17 437.086 93.967 79.728 59.796 128.135 185.084 165.152 330.304 37.017 145.22 86.847 398.645 98.236 543.865 11.39 145.22 0 314.643-5.693 343.118-5.695 28.474-7.119 32.747-55.526 45.56-48.406 12.814-351.661 108.203-569.492 135.254-208.556 25.9-376.268 26.347-455.232 26.963-78.964-.616-246.676-1.064-455.233-26.963-217.83-27.05-521.085-122.44-569.492-135.254-48.407-12.813-49.83-17.086-55.525-45.56-5.695-28.475-17.083-197.897-5.693-343.118 11.39-145.22 61.219-398.644 98.236-543.865 37.017-145.22 85.423-270.508 165.152-330.304 79.729-59.797 236.34-81.154 437.086-93.967 106.117-6.774 237.872-13.42 379.408-12.43z" fill="#d3d3d3"/><path d="M980.158 1658.546c-1.026 0-1.901.015-2.613.037-22.78.712-33.456-2.135-64.066 16.373-30.61 18.509-206.44 128.136-265.526 161.594-59.085 33.458-221.39 127.425-237.763 140.238-16.373 12.814-19.932 16.372 2.136 23.49 22.068 7.119 100.372 33.458 175.117 85.424 74.746 51.966 132.408 120.305 183.663 196.475 51.254 76.17 50.953 78.938 64.04 94.039 13.088 15.1 19.129 22.149 65.438 19.129 45.283-2.953 252.393-3.982 335.008-4.967 82.614.985 289.725 2.014 335.008 4.967 46.31 3.02 52.35-4.028 65.437-19.13 13.088-15.1 12.787-17.869 64.041-94.038 51.255-76.17 108.917-144.509 183.662-196.475 74.746-51.966 153.05-78.305 175.117-85.424 22.068-7.118 18.51-10.676 2.137-23.49-16.373-12.813-178.678-106.78-237.763-140.238-59.085-33.458-234.916-143.085-265.526-161.594-30.61-18.508-41.287-15.661-64.066-16.373a85.378 85.378 0 00-2.613-.037c-30.739-.1-198.04 7.97-255.434 8.523-57.395-.553-224.695-8.624-255.434-8.523z" fill="#d2d2d2"/><path d="M126.451 1943.44c-15.717.119-25.46 1.582-30.746 2.903-14.094 3.523-25.545 5.911-25.672 30.203-.377 72.512 17.114 256.715 26.174 306.045 9.06 49.33 13.089 74.498 46.31 79.531 33.223 5.034 30.202 4.027 188.258 14.094 158.057 10.067 468.129 19.129 494.807 20.639 26.678 1.51-1.006-14.094-25.168-48.323-24.161-34.228-57.383-95.137-122.82-170.138-65.438-75.001-161.58-129.867-214.434-151.512-52.853-21.645-95.136-43.29-201.345-65.941-66.382-14.157-109.168-17.697-135.364-17.5z" fill="#d2d2d2"/><path d="M166.375 1422.466c.103.8.197 1.58.305 2.393 8.054 60.403 39.917 220.2 249.205 354.03 54.56 34.89 108.926 64.638 163.049 89.85 18.127-10.313 35.421-20.193 50.588-28.984-191-84.262-324.437-190.076-394.385-282.008-34.798-45.734-48.962-90.96-55.127-127.228-6.138-2.501-10.448-5.047-13.635-8.053zm2138.434 0c-3.187 3.006-7.497 5.552-13.635 8.053-6.165 36.267-20.33 81.494-55.127 127.228-69.948 91.932-203.386 197.746-394.385 282.008 15.167 8.791 32.46 18.671 50.588 28.984 54.122-25.212 108.49-54.96 163.049-89.85 209.288-133.83 241.151-293.627 249.205-354.03.108-.812.202-1.593.305-2.393zM636.772 1842.923a10355.885 10355.885 0 00-50.743 29.096c151.062 69.292 300.205 103.334 446.33 114.734 95.378 7.44 159.993 11.326 203 13.223v.02c.073 0 .16-.01.233-.011.073 0 .16.01.232.012v-.021c43.008-1.897 107.623-5.782 203-13.223 146.125-11.4 295.268-45.442 446.33-114.734a10355.885 10355.885 0 00-50.742-29.096c-183.567 79.471-392.324 92.283-598.82 100.248-206.496-7.965-415.253-20.777-598.82-100.248z" fill="#dedede"/><path d="M219.029 2004.734c49.33 2.013 76.511 36.242 74.498 83.558-2.014 47.317-33.222 73.491-71.478 72.485-38.256-1.007-73.491-25.168-74.498-81.545-1.007-56.377 31.209-73.491 71.478-74.498z" fill="#e9e9e9"/><path d="M369.031 2065.138c36.243 1.006 57.384 28.188 58.39 65.437 1.007 37.249-26.174 58.39-53.356 59.397-27.182 1.007-61.41-8.054-61.41-60.404s30.201-64.43 56.376-64.43z" fill="#d67b1b"/><path d="M1045.569 2098.572c-27.933-.2-23.89 2.663-23.89 24.234 0 21.283.577 86.858 1.727 98.937 1.15 12.08 4.026 16.683 18.407 17.258 13.199.528 146.968 4.926 193.779 3.422 46.81 1.504 180.58-2.894 193.78-3.422 14.38-.575 17.255-5.178 18.405-17.258 1.15-12.08 1.727-77.654 1.727-98.937 0-21.57 4.044-24.435-23.889-24.234-1.862.012-3.866.04-6.023.075-32.264.538-155.662 1.573-184 2.176-28.339-.603-151.736-1.638-184-2.175a626.606 626.606 0 00-6.024-.077z" fill="#c6c6c6"/><path d="M1035.006 2098.747c-16.22.918-13.326 5.743-13.326 24.059 0 21.283.576 86.858 1.726 98.937.48 5.03 1.273 8.746 3.055 11.432 3.323.97 4.93-2.474 4.424-12.582-1-20 3.643-94.701 4.121-121.846z" fill="#999"/><path d="M579.39 189.816C428.665 218.87 370.947 287.117 315.335 483.93c232.016-1.085 636.798-.508 920.258-1.787 283.46 1.28 688.242.702 920.258 1.787-55.612-196.814-113.33-265.06-264.057-294.115-216.586-28.322-440.354-41.5-656.201-41.092-226.314.428-442.787 2.37-656.201 41.092z" fill="#343434"/><path d="M1235.36 189.814c-144.362-.01-580.028.202-613.16 1.476-38.743 1.49-44.704 1.49-46.194 23.842-1.49 22.351-4.47 156.459-4.47 190.73 0 34.272 2.98 41.723 40.232 41.723H1859.416c37.252 0 40.233-7.45 40.233-41.722s-2.981-168.38-4.471-190.731c-1.49-22.351-7.451-22.352-46.194-23.842-204.534-1.546-409.083-1.466-613.624-1.476z" fill="#292929"/><path d="M542.147 198.349c-62.69 16.94-107.105 43.973-142.276 89.996-.779 37.344-.254 65.303.563 77.146 1.08 15.677 4.325 31.895 28.111 32.436 23.786.54 66.492 1.082 81.088.541 14.596-.54 29.733-1.622 30.273-20.543.49-17.117 2.299-147.585 2.24-179.576z" fill="#2a2a2a"/><path d="M471.369 314.38c46.938.745 50.663 5.215 51.408 39.487.745 34.272-6.706 33.527-51.408 33.527s-49.918 3.725-49.173-34.272c.745-37.997 2.98-37.252 49.173-38.742z" fill="#d5d5d5"/><path d="M471.95 299.41c47.684 1.49 50.664-12.666 50.664-23.841 0-11.176-9.686-16.391-51.408-17.881-41.722-1.49-47.683 9.685-47.683 19.37 0 9.686 5.96 23.842 48.428 22.352z" fill="#ba6722"/><path d="M2344.733 1943.44c15.717.119 25.46 1.582 30.746 2.903 14.094 3.523 25.545 5.911 25.672 30.203.377 72.512-17.114 256.715-26.174 306.045-9.06 49.33-13.089 74.498-46.31 79.531-33.223 5.034-30.202 4.027-188.259 14.094-158.056 10.067-468.128 19.129-494.806 20.639-26.679 1.51 1.006-14.094 25.168-48.323 24.161-34.228 57.383-95.137 122.82-170.138 65.437-75.001 161.58-129.867 214.434-151.512 52.853-21.645 95.135-43.29 201.345-65.941 66.381-14.157 109.168-17.697 135.363-17.5z" fill="#d2d2d2"/><path d="M2252.155 2004.734c-49.33 2.013-76.512 36.242-74.498 83.558 2.013 47.317 33.222 73.491 71.478 72.485 38.255-1.007 73.49-25.168 74.498-81.545 1.006-56.377-31.209-73.491-71.478-74.498z" fill="#e9e9e9"/><path d="M2102.152 2065.138c-36.242 1.006-57.383 28.188-58.39 65.437-1.007 37.249 26.175 58.39 53.357 59.397 27.181 1.007 61.41-8.054 61.41-60.404s-30.202-64.43-56.377-64.43z" fill="#d67b1b"/><path d="M1436.178 2098.747c16.22.918 13.326 5.743 13.326 24.059 0 21.283-.576 86.858-1.727 98.937-.479 5.03-1.272 8.746-3.054 11.432-3.324.97-4.93-2.474-4.424-12.582 1-20-3.643-94.701-4.121-121.846z" fill="#999"/><path d="M1929.037 198.349c62.69 16.94 107.105 43.973 142.276 89.996.779 37.344.254 65.303-.563 77.146-1.081 15.677-4.325 31.895-28.111 32.436-23.786.54-66.492 1.082-81.088.541-14.596-.54-29.733-1.622-30.274-20.543-.489-17.117-2.298-147.585-2.24-179.576z" fill="#2a2a2a"/><path d="M1999.815 314.38c-46.938.745-50.663 5.215-51.408 39.487-.745 34.272 6.705 33.527 51.408 33.527 44.702 0 49.918 3.725 49.173-34.272-.746-37.997-2.98-37.252-49.173-38.742z" fill="#d5d5d5"/><path d="M1999.233 299.41c-47.683 1.49-50.663-12.666-50.663-23.841 0-11.176 9.686-16.391 51.408-17.881 41.722-1.49 47.682 9.685 47.682 19.37 0 9.686-5.96 23.842-48.427 22.352z" fill="#ba6722"/></svg>