<svg xmlns="http://www.w3.org/2000/svg" viewBox="0 0 193.448 210.428" height="795.319" width="731.141"><path d="M96.624 151.284l-49.425.233-15.716 7.68-10.752 19.614-1.181 31.49c2.127-.06 3.485-.06 4.962-.119 1.477-.059 2.245-5.612 2.245-5.612l2.245-23.514 11.462-19.614 23.868-4.608 32.392-.21 32.392.21 23.868 4.608 11.461 19.614 2.246 23.514s.767 5.553 2.244 5.612c1.477.06 2.836.06 4.963.118l-1.181-31.489-10.753-19.614-15.715-7.68-49.425-.232v-.001h-.1z" fill="#191919"/><path d="M91.511.557c-16.049.034-42.88 1.145-47.34 2.308-5.489 1.432-12.569 11.217-12.569 11.217l-.795 11.455 65.917-.935 65.917.935-.796-11.455s-7.08-9.785-12.568-11.217c-4.46-1.163-31.291-2.274-47.34-2.308C100 .553 98.285.57 96.723.599 95.162.569 93.448.553 91.51.557z" fill="#292929"/><path d="M31.125 126.088L6.465 138.02 3.6 147.407l6.045 38.502s.16 10.182 1.273 14.955c1.114 4.773 5.25 10.024 9.228 9.387 3.978-.636 4.614-10.819 5.569-23.07.954-12.25 7.318-27.523 17.819-30.387 9.905-2.701 42.117-2.995 53.09-2.753v.004c.029 0 .069 0 .099-.002l.1.002v-.004c10.972-.242 43.184.052 53.089 2.753 10.5 2.864 16.864 18.137 17.819 30.388.954 12.25 1.591 22.433 5.569 23.07 3.977.636 8.114-4.615 9.227-9.388 1.114-4.773 1.273-14.955 1.273-14.955l6.046-38.502-2.864-9.387-24.66-11.932-8.433 3.5-57.066-1.556v-.006l-.1.003-.1-.003v.006l-57.067 1.556z" fill="#282828"/><path d="M65.212 21.122c-15.95 0-31.542.12-32.814.438-2.546.636-1.75 46.775-1.75 46.775l7.11 59.487c3.825 4.388 5.512 5.175 6.637 5.738 1.005.502 42.992-.563 52.329-.806 9.337.243 51.323 1.308 52.328.806 1.125-.563 2.813-1.35 6.638-5.738l7.11-59.487s.796-46.139-1.75-46.775c-1.273-.318-16.865-.438-32.814-.438-12.644 0-25.374.076-31.512.186-6.138-.11-18.869-.186-31.512-.186z" fill="#212121"/><path d="M65.212 21.122c-11.238 0-22.19.062-28.19.208-.228 2.116-.403 5.181-.646 9.935-.637 12.41-.237 29.904.477 39.138 1.878 24.306 5.243 34.253 6.303 38.1.855 3.103 1.432 3.66 5.091 3.66 3.552 0 32.355.081 48.477-.064 16.121.145 44.925.064 48.476.064 3.66 0 4.237-.557 5.092-3.66 1.06-3.847 4.425-13.794 6.303-38.1.714-9.234 1.114-26.728.477-39.138-.244-4.754-.418-7.819-.647-9.935-5.999-.146-16.95-.208-28.19-.208-12.642 0-25.372-.166-31.511-.166-6.14 0-18.869.166-31.512.166z" fill="#1b1b1b"/><path d="M34.945 19.935c1.463-6.413 5.063-11.813 8.325-14.963 3.263-3.15 2.25-3.375.788-4.387-1.463-1.013-3.713-.45-4.444-.225-.731.225-3.544 10.462-3.544 10.462zM20.433 137.16c-10.575 6.187-16.425 10.687-12.825 29.587 3.6 18.9 4.95 26.55 5.512 30.488.563 3.937.338 4.612-.675 5.4-1.012.787-1.125-.45-2.025-3.6-.9-3.15-6.975-37.575-7.537-40.613-.563-3.037 1.912-11.362 1.912-11.362l5.288-7.425z" fill="#a3a3a3"/><path d="M96.624 129.272v.002c-3.12.009-53.181.396-54.203.553-1.034.16-2.227.637-1.83 1.99.371 1.26 4.684 18.422 6.683 24.217 12.595-1.993 39.488-2.21 49.35-1.993v.004l.1-.002c.03 0 .07 0 .1.002v-.004c9.862-.217 36.755 0 49.35 1.993 2-5.795 6.311-22.957 6.682-24.218.398-1.352-.795-1.83-1.83-1.989-1.021-.157-51.082-.544-54.202-.553v-.002h-.2z" fill="#ffb412"/><path d="M34.546 132.93c8.16-2.272 10.102-3.422 8.193-12.172-1.909-8.75-6.523-27.763-8.114-45.741-1.59-17.978-1.59-40.093.318-51.707 1.91-11.614 2.864-16.07 4.773-20.047 1.91-3.977.478-3.182-2.386-2.227-2.864.955-19.888 9.387-24.66 17.66-4.773 8.273-8.433 31.502-9.546 48.684C2.01 84.563-.536 118.928.1 134.043c.636 15.114 1.75 20.046 2.863 24.978 1.114 4.932.478 1.432 1.75-4.932 1.273-6.364 4.137-10.978 10.66-14.16 6.523-3.182 14.517-5.705 19.172-7z" fill="#b2b2b2"/><path d="M29.357 4.96c-6.08 3.432-13.732 8.612-16.688 13.736-.993 1.722-1.937 4.098-2.821 6.927-.67 18.753-1.352 51.284-1.474 61.645-.159 13.523.477 17.023 1.909 20.524 1.432 3.5 7 2.863 11.455 2.704 4.455-.16 6.205-49.32 5.887-58.23-.298-8.325-.455-30.539 1.732-47.306z" fill="#49b3f1"/><path d="M19.51 44.63c.644-7.829 2.705-8.274 4.615-8.274 1.909 0 3.023.318 3.34 9.864.319 9.546 1.433 31.343 3.183 42.957 1.75 11.614 3.818 21.478 4.773 26.092.954 4.614.159 7.796-5.569 7-5.727-.795-9.387-3.977-10.182-10.977-.796-7-1.426-51.253-.16-66.663z" fill="#1c1c1c"/><path d="M42.985 92.566a.267.267 0 00-.274.312c.178 1.37 1.164 5.301 1.394 6.247.723 2.97 1.456 5.53 1.95 6.933.985 2.804 1.743 3.56 3.334 3.718 1.5.15 34.087.295 47.235.27h.2c13.148.025 45.734-.12 47.234-.27 1.591-.159 2.35-.914 3.336-3.718.493-1.404 1.225-3.963 1.949-6.933.23-.946 1.216-4.876 1.394-6.247a.267.267 0 00-.274-.312c-.493.079-2.555 3.229-3.931 3.181-2.894-.1-40.654.69-49.808.849-9.154-.16-46.914-.949-49.808-.849-1.376.048-3.438-3.102-3.931-3.18z" fill="#252525"/><path d="M76.586 46.534c-13.447.005-28.135.057-31.915.315-7 .478-6.178-.044-6.107 4.25.042 2.523.157 13.185 1.029 22.956.903 10.127 3.47 20.095 3.788 21.686.637 3.182 1.114 4.137 4.296 4.137 3.04 0 36.786.11 48.947.092h.2c12.16.018 45.907-.092 48.947-.092 3.182 0 3.659-.955 4.295-4.137.319-1.59 2.886-11.559 3.789-21.686.871-9.771.987-20.433 1.029-22.955.07-4.295.893-3.773-6.107-4.25-6.025-.412-39.695-.301-51.953-.308h-.2c-4.566.003-12.057-.01-20.038-.008z" fill="#343434"/><path d="M57.91 22.477c-4.909.003-8.368.017-8.902.045-2.138.113-2.588.225-2.7 1.913-.113 1.687-.563 13.05-.338 15.525.225 2.475.45 2.7 2.925 2.7 2.425 0 28.78-.107 47.73-.006v.001h.199c18.948-.102 45.303.005 47.728.005 2.475 0 2.7-.225 2.925-2.7.225-2.475-.225-13.838-.337-15.525-.113-1.688-.563-1.8-2.7-1.913-.535-.028-3.994-.042-8.902-.045-11.407-.009-30.3-.134-38.814-.134-8.515 0-27.408.125-38.815.134z" fill="#282828"/><path d="M54.295 25.335c-3.037.112-3.375 1.237-3.375 2.7v14.62c4.752-.01 27.886-.097 45.704 0h.2c17.818-.097 40.952-.01 45.703 0v-14.62c0-1.463-.337-2.588-3.375-2.7-15.1-.096-27.668-.205-42.428-.188-13.77.016-27.756-.235-42.429.188z" fill="#3b3b3b"/><path d="M95.522 154.458c-1.128 0-16.362.013-23.746.308-7.385.296-19.733 1.063-23.81 1.772-4.076.71-8.33 1.89-11.047 4.845-2.718 2.954-6.676 9.511-7.799 12.997-1.122 3.486-2.54 11.107-3.071 16.838-.532 5.73-.891 11.194-1.537 14.001-.318 1.384-.981 2.882-1.57 3.636-1.006 1.288-1.383 1.386.212 1.386s50.633.237 52.7.178c2.068-.06 2.955-.71 3.9-2.009.945-1.3 2.307-1.785 7.8-1.89 1.963-.039 8.393-.018 9.17-.027.777.008 7.207-.012 9.169.026 5.493.106 6.856.591 7.8 1.891.946 1.3 1.833 1.95 3.9 2.009 2.068.059 51.106-.178 52.701-.178 1.595 0 1.218-.098.212-1.386-.589-.754-1.252-2.252-1.57-3.636-.646-2.807-1.005-8.27-1.537-14.001-.532-5.73-1.949-13.352-3.072-16.838-1.122-3.486-5.08-10.043-7.798-12.997-2.718-2.954-6.971-4.136-11.048-4.845-4.076-.709-16.424-1.476-23.809-1.772-7.385-.295-22.619-.308-23.747-.308-.555 0-.913.009-1.201.019a32.64 32.64 0 00-1.202-.02z" fill="#282828"/><path d="M95.522 154.457c-1.128 0-16.362.013-23.746.309-7.385.295-19.733 1.063-23.81 1.772-.147.026-.296.057-.445.084.873 3.292 1.277 3.851 1.881 5.814.669 2.173 2.34 4.01 6.517 4.01 3.693 0 32.337.129 40.805-.187 8.468.316 37.112.188 40.805.188 4.177 0 5.848-1.838 6.517-4.01.604-1.964 1.007-2.523 1.88-5.815-.148-.027-.297-.058-.445-.084-4.076-.709-16.424-1.477-23.809-1.772-7.385-.296-22.619-.309-23.747-.309-.555 0-.913.01-1.201.02-.289-.01-.646-.02-1.202-.02z" fill="#ffb412"/><path d="M67.196 129.509l-.913.009c0 .028-.003.053-.003.083.418 2.507 1.712 5.39 3.508 6.434 1.796 1.044 3.217 1.337 5.39 1.378 2.11.041 19.802.003 21.545.001 1.744.002 19.435.04 21.546 0 2.173-.042 3.593-.335 5.39-1.38 1.796-1.044 3.09-3.926 3.508-6.433 0-.03-.003-.055-.003-.083l-.913-.01v.001c-.101.792-.352 2.345-1.59 4.145-1.378 2.005-4.303 2.673-5.849 2.799-1.514.122-18.607.007-21.989.002v-.001h-.2c-3.381.006-20.474.121-21.988-.001-1.546-.126-4.47-.794-5.85-2.8-1.236-1.799-1.488-3.352-1.589-4.144z" fill="#4e3d21"/><path d="M75.232 135.654c.531 0 .56-.34.56-.576 0-.236-.147-.517-.487-.532a.492.492 0 00-.531.473c0 .221 0 .635.458.635z" fill="#4e3d21"/><path d="M26.166 99.114c3.072.065 3.9-1.123 3.9-3.132 0-2.008-1.03-4.426-3.629-4.308-2.6.118-3.647 1.358-3.815 3.6-.178 2.363 1.06 3.787 3.544 3.84zM26.816 110.988c3.072.066 3.9-1.122 3.9-3.13 0-2.01-.444-4.678-3.545-4.727-2.602-.041-3.731 1.776-3.9 4.017-.177 2.363 1.062 3.788 3.545 3.84z" fill="#d2d2d2"/><path d="M21.389 41.884c.549.012.69.373.69.733 0 .361-.205.946-.78.933-.574-.012-.868-.323-.88-.858-.013-.535.319-.833.97-.808zM21.177 44.224c.549.012.69.373.69.734 0 .36-.205.945-.78.932-.574-.012-.868-.323-.88-.858-.014-.535.319-.833.97-.808zM20.967 46.342c.53.012.666.36.666.709 0 .348-.198.912-.753.9-.554-.012-.838-.312-.85-.828-.013-.517.308-.805.937-.78zM20.917 48.365c.535.012.672.363.672.715 0 .351-.2.92-.76.908-.559-.012-.845-.315-.857-.836-.013-.52.31-.811.945-.787zM20.759 50.388c.52.012.654.354.654.696 0 .342-.194.896-.739.885-.545-.012-.823-.307-.835-.814-.013-.507.302-.79.92-.767zM20.657 52.355c.51.011.642.347.642.683 0 .336-.19.88-.726.869-.535-.012-.808-.301-.82-.8-.012-.497.297-.775.904-.752zM20.55 54.5c.51.011.641.347.641.683 0 .336-.19.88-.725.869-.535-.012-.808-.302-.82-.8-.012-.497.297-.775.903-.752zM20.51 56.761c.51.012.641.348.641.683 0 .336-.19.88-.725.869-.535-.012-.808-.301-.82-.8-.012-.497.297-.775.903-.752zM20.47 58.794c.51.011.644.347.647.683.003.336-.184.88-.719.868-.535-.011-.81-.3-.826-.799-.016-.498.291-.775.898-.752zM20.372 60.93c.511.01.644.347.647.683.003.335-.183.88-.718.868-.536-.012-.811-.301-.827-.799-.016-.498.291-.776.898-.753zM20.384 63.003c.51.012.642.347.642.683 0 .336-.19.88-.726.869-.535-.012-.808-.301-.82-.8-.012-.497.297-.775.904-.752zM20.315 65.064c.512.012.642.348.642.683 0 .336-.19.88-.725.869-.535-.012-.808-.301-.82-.8-.012-.497.297-.775.903-.752zM20.304 67.246c.511.012.642.347.642.683 0 .336-.19.88-.725.869-.535-.012-.808-.301-.82-.8-.012-.497.297-.775.903-.752zM20.309 69.347c.511.012.642.347.642.683 0 .336-.19.88-.725.869-.535-.012-.809-.301-.82-.8-.013-.497.297-.775.903-.752zM20.326 71.5c.512.012.642.348.642.684 0 .335-.19.88-.725.868-.535-.012-.808-.301-.82-.799-.012-.498.297-.776.903-.753zM20.24 73.636c.512.012.643.347.643.683 0 .336-.19.88-.726.869-.535-.012-.808-.301-.82-.8-.012-.497.297-.775.904-.752zM20.24 75.772c.512.011.643.347.643.683 0 .336-.19.88-.726.869-.535-.012-.808-.301-.82-.8-.012-.497.297-.775.904-.752zM20.247 77.696c.511.012.642.348.642.683 0 .336-.19.88-.725.869-.535-.012-.809-.301-.82-.8-.012-.497.297-.775.903-.752zM20.201 79.89c.511.01.642.347.642.682 0 .336-.19.88-.725.869-.535-.012-.809-.301-.82-.799-.013-.498.297-.776.903-.753zM20.27 81.968c.51.011.641.347.641.683 0 .336-.19.88-.725.869-.535-.012-.808-.301-.82-.8-.012-.497.297-.775.903-.752zM20.315 84.064c.512.011.642.347.642.683 0 .336-.19.88-.725.869-.535-.012-.808-.302-.82-.8-.012-.497.297-.775.903-.752zM20.298 86.25c.511.012.642.348.642.684 0 .336-.19.88-.725.868-.535-.011-.809-.3-.82-.799-.013-.498.297-.776.903-.752zM20.327 88.347c.51.011.642.347.642.683 0 .336-.19.88-.726.868-.535-.011-.808-.3-.82-.799-.012-.498.297-.776.904-.752zM20.355 90.328c.512.012.642.348.642.683 0 .336-.19.88-.725.869-.535-.012-.808-.301-.82-.8-.012-.497.297-.775.903-.752zM20.441 92.499c.512.012.642.347.642.683 0 .336-.19.88-.725.869-.535-.012-.808-.301-.82-.8-.012-.497.297-.775.903-.752zM20.567 94.84c.511.011.642.347.642.683 0 .336-.19.88-.725.869-.535-.012-.809-.301-.82-.8-.012-.497.297-.775.903-.752zM20.618 97.388c.511.011.642.347.642.683 0 .336-.19.88-.725.868-.535-.011-.809-.3-.82-.799-.013-.498.297-.776.903-.752zM20.69 100.083c.512.012.643.348.643.683 0 .336-.19.88-.725.869-.535-.012-.809-.301-.82-.799-.013-.498.297-.776.903-.753zM20.805 102.632c.512.011.642.347.642.683 0 .336-.19.88-.725.868-.535-.011-.808-.3-.82-.799-.012-.498.297-.775.903-.752zM20.891 105.066c.512.011.642.347.642.683 0 .336-.19.88-.725.868-.535-.011-.808-.3-.82-.799-.012-.498.297-.775.903-.752zM21.034 107.7c.512.012.642.347.642.683 0 .336-.19.88-.725.869-.535-.012-.808-.301-.82-.8-.012-.497.297-.775.903-.752zM21.32 110.034c.49.011.616.333.616.655s-.183.844-.695.833c-.513-.012-.775-.289-.787-.766-.011-.478.285-.744.866-.722zM21.683 112.46c.498.011.625.338.625.665s-.185.857-.706.846c-.521-.011-.788-.293-.8-.778-.01-.485.29-.756.88-.733zM22.408 114.874c.485.01.609.329.609.647s-.18.834-.687.823c-.507-.011-.766-.285-.778-.757-.011-.472.282-.735.856-.713zM23.53 116.882c.458.01.575.31.575.611 0 .3-.17.788-.65.778-.478-.01-.723-.27-.734-.716-.01-.445.266-.694.81-.673zM25.42 118.142c.458.01.575.31.575.611 0 .3-.17.788-.65.778-.478-.01-.723-.27-.734-.716-.01-.445.266-.694.81-.673zM27.825 119.243c.458.01.575.311.575.612 0 .3-.17.788-.65.778-.478-.01-.723-.27-.733-.716-.011-.446.266-.694.808-.674zM30.23 119.944c.458.01.575.311.575.612 0 .3-.17.788-.649.778-.479-.01-.724-.27-.734-.716-.011-.446.266-.694.809-.674zM32.808 120.059c.457.01.575.31.575.612 0 .3-.17.787-.65.777-.479-.01-.723-.27-.734-.715-.01-.446.266-.695.809-.674z" fill="#c6c6c6"/><path d="M96.672 135.654c.532 0 .561-.34.561-.576 0-.236-.147-.517-.487-.532a.492.492 0 00-.532.473c0 .221 0 .635.458.635z" fill="#4e3d21"/><path d="M158.503 19.935c-1.463-6.413-5.063-11.813-8.325-14.963-3.263-3.15-2.25-3.375-.788-4.387 1.463-1.013 3.713-.45 4.444-.225.731.225 3.544 10.462 3.544 10.462zM173.015 137.16c10.575 6.187 16.425 10.687 12.825 29.587-3.6 18.9-4.95 26.55-5.512 30.488-.563 3.937-.338 4.612.675 5.4 1.012.787 1.125-.45 2.025-3.6.9-3.15 6.975-37.575 7.537-40.613.563-3.037-1.912-11.362-1.912-11.362l-5.288-7.425z" fill="#a3a3a3"/><path d="M158.902 132.93c-8.16-2.272-10.103-3.422-8.193-12.172 1.909-8.75 6.523-27.763 8.114-45.741 1.59-17.978 1.59-40.093-.319-51.707-1.909-11.614-2.863-16.07-4.773-20.047-1.909-3.977-.477-3.182 2.387-2.227 2.864.955 19.887 9.387 24.66 17.66s8.432 31.502 9.546 48.684c1.114 17.183 3.66 51.548 3.023 66.663-.636 15.114-1.75 20.046-2.864 24.978-1.113 4.932-.477 1.432-1.75-4.932-1.273-6.364-4.136-10.978-10.66-14.16-6.523-3.182-14.517-5.705-19.17-7z" fill="#b2b2b2"/><path d="M164.091 4.96c6.08 3.432 13.731 8.612 16.687 13.736.994 1.722 1.938 4.098 2.822 6.927.67 18.753 1.352 51.284 1.474 61.645.159 13.523-.477 17.023-1.91 20.524-1.431 3.5-7 2.863-11.454 2.704-4.455-.16-6.205-49.32-5.887-58.23.297-8.325.455-30.539-1.732-47.306z" fill="#49b3f1"/><path d="M173.937 44.63c-.643-7.829-2.705-8.274-4.614-8.274-1.91 0-3.023.318-3.341 9.864-.318 9.546-1.432 31.343-3.182 42.957s-3.818 21.478-4.773 26.092c-.955 4.614-.159 7.796 5.569 7 5.727-.795 9.386-3.977 10.182-10.977.795-7 1.426-51.253.159-66.663z" fill="#1c1c1c"/><path d="M118.216 135.654c-.532 0-.561-.34-.561-.576 0-.236.148-.517.487-.532a.492.492 0 01.532.473c0 .221 0 .635-.458.635z" fill="#4e3d21"/><path d="M167.281 99.114c-3.071.065-3.899-1.123-3.899-3.132 0-2.008 1.029-4.426 3.628-4.308 2.6.118 3.648 1.358 3.816 3.6.177 2.363-1.061 3.787-3.545 3.84zM166.631 110.988c-3.071.066-3.899-1.122-3.899-3.13 0-2.01.444-4.678 3.545-4.727 2.602-.041 3.731 1.776 3.9 4.017.176 2.363-1.062 3.788-3.546 3.84z" fill="#d2d2d2"/><path d="M172.059 41.884c-.55.012-.69.373-.69.733 0 .361.205.946.78.933.574-.012.867-.323.88-.858.013-.535-.32-.833-.97-.808zM172.271 44.224c-.55.012-.69.373-.69.734 0 .36.205.945.78.932.574-.012.868-.323.88-.858.013-.535-.319-.833-.97-.808zM172.481 46.342c-.53.012-.666.36-.666.709 0 .348.197.912.752.9.555-.012.839-.312.85-.828.013-.517-.307-.805-.936-.78zM172.53 48.365c-.534.012-.67.363-.67.715 0 .351.198.92.758.908.56-.012.846-.315.858-.836.013-.52-.31-.811-.945-.787zM172.689 50.388c-.52.012-.654.354-.654.696 0 .342.194.896.738.885.545-.012.824-.307.836-.814.012-.507-.303-.79-.92-.767zM172.791 52.355c-.511.011-.642.347-.642.683 0 .336.19.88.725.869.535-.012.809-.301.82-.8.013-.497-.297-.775-.903-.752zM172.898 54.5c-.51.011-.642.347-.642.683 0 .336.19.88.726.869.535-.012.808-.302.82-.8.012-.497-.297-.775-.904-.752zM172.938 56.761c-.51.012-.642.348-.642.683 0 .336.19.88.726.869.535-.012.808-.301.82-.8.012-.497-.297-.775-.904-.752zM172.978 58.794c-.511.011-.644.347-.647.683-.003.336.183.88.718.868.535-.011.811-.3.827-.799.016-.498-.291-.775-.898-.752zM173.076 60.93c-.511.01-.645.347-.647.683-.003.335.183.88.718.868.535-.012.811-.301.827-.799.016-.498-.292-.776-.898-.753zM173.064 63.003c-.511.012-.642.347-.642.683 0 .336.19.88.725.869.535-.012.809-.301.82-.8.013-.497-.297-.775-.903-.752zM173.132 65.064c-.51.012-.642.348-.642.683 0 .336.19.88.726.869.535-.012.808-.301.82-.8.012-.497-.297-.775-.904-.752zM173.143 67.246c-.51.012-.642.347-.642.683 0 .336.19.88.726.869.535-.012.808-.301.82-.8.012-.497-.297-.775-.904-.752zM173.139 69.347c-.512.012-.642.347-.642.683 0 .336.19.88.725.869.535-.012.808-.301.82-.8.012-.497-.297-.775-.903-.752zM173.121 71.5c-.511.012-.642.348-.642.684 0 .335.19.88.725.868.535-.012.809-.301.82-.799.013-.498-.296-.776-.903-.753zM173.207 73.636c-.511.012-.642.347-.642.683 0 .336.19.88.725.869.535-.012.809-.301.82-.8.013-.497-.297-.775-.903-.752zM173.207 75.772c-.511.011-.642.347-.642.683 0 .336.19.88.725.869.535-.012.809-.301.82-.8.013-.497-.297-.775-.903-.752zM173.2 77.696c-.51.012-.641.348-.641.683 0 .336.19.88.725.869.535-.012.808-.301.82-.8.012-.497-.297-.775-.903-.752zM173.247 79.89c-.511.01-.642.347-.642.682 0 .336.19.88.725.869.535-.012.808-.301.82-.799.012-.498-.297-.776-.903-.753zM173.178 81.968c-.51.011-.642.347-.642.683 0 .336.19.88.726.869.535-.012.808-.301.82-.8.012-.497-.297-.775-.904-.752zM173.132 84.064c-.51.011-.642.347-.642.683 0 .336.19.88.726.869.535-.012.808-.302.82-.8.012-.497-.297-.775-.904-.752zM173.15 86.25c-.511.012-.642.348-.642.684 0 .336.19.88.725.868.535-.011.808-.3.82-.799.012-.498-.297-.776-.903-.752zM173.121 88.347c-.511.011-.642.347-.642.683 0 .336.19.88.725.868.535-.011.809-.3.82-.799.013-.498-.297-.776-.903-.752zM173.092 90.328c-.51.012-.642.348-.642.683 0 .336.19.88.726.869.535-.012.808-.301.82-.8.012-.497-.297-.775-.904-.752zM173.006 92.499c-.51.012-.642.347-.642.683 0 .336.19.88.726.869.535-.012.808-.301.82-.8.012-.497-.297-.775-.904-.752zM172.88 94.84c-.51.011-.641.347-.641.683 0 .336.19.88.725.869.535-.012.808-.301.82-.8.012-.497-.297-.775-.903-.752zM172.83 97.388c-.511.011-.642.347-.642.683 0 .336.19.88.725.868.535-.011.809-.3.82-.799.012-.498-.297-.776-.903-.752zM172.757 100.083c-.511.012-.642.348-.642.683 0 .336.19.88.725.869.535-.012.808-.301.82-.799.012-.498-.297-.776-.903-.753zM172.642 102.632c-.51.011-.642.347-.642.683 0 .336.19.88.726.868.535-.011.808-.3.82-.799.012-.498-.297-.775-.904-.752zM172.556 105.066c-.51.011-.642.347-.642.683 0 .336.19.88.726.868.535-.011.808-.3.82-.799.012-.498-.297-.775-.904-.752zM172.413 107.7c-.511.012-.642.347-.642.683 0 .336.19.88.725.869.535-.012.809-.301.82-.8.013-.497-.296-.775-.903-.752zM172.127 110.034c-.49.011-.615.333-.615.655s.182.844.695.833c.513-.012.775-.289.786-.766.012-.478-.284-.744-.866-.722zM171.765 112.46c-.498.011-.625.338-.625.665s.185.857.706.846c.521-.011.787-.293.799-.778.012-.485-.29-.756-.88-.733zM171.04 114.874c-.485.01-.61.329-.61.647s.181.834.688.823c.507-.011.766-.285.777-.757.012-.472-.281-.735-.856-.713zM169.918 116.882c-.458.01-.575.31-.575.611 0 .3.17.788.649.778.479-.01.724-.27.734-.716.011-.445-.266-.694-.808-.673zM168.028 118.142c-.458.01-.575.31-.575.611 0 .3.17.788.65.778.478-.01.723-.27.733-.716.011-.445-.266-.694-.808-.673zM165.622 119.243c-.457.01-.574.311-.574.612 0 .3.17.788.649.778.479-.01.724-.27.734-.716.011-.446-.266-.694-.809-.674zM163.217 119.944c-.458.01-.575.311-.575.612 0 .3.17.788.65.778.478-.01.723-.27.734-.716.01-.446-.266-.694-.809-.674zM160.64 120.059c-.458.01-.575.31-.575.612 0 .3.17.787.65.777.478-.01.723-.27.734-.715.01-.446-.266-.695-.81-.674z" fill="#c6c6c6"/></svg>