<?xml version="1.0" encoding="UTF-8" standalone="no"?>
<svg
   xmlns:dc="http://purl.org/dc/elements/1.1/"
   xmlns:cc="http://creativecommons.org/ns#"
   xmlns:rdf="http://www.w3.org/1999/02/22-rdf-syntax-ns#"
   xmlns:svg="http://www.w3.org/2000/svg"
   xmlns="http://www.w3.org/2000/svg"
   id="svg8"
   version="1.1"
   viewBox="0 0 477.4765 667.84815"
   height="667.84814mm"
   width="477.4765mm">
  <defs
     id="defs2" />
  <metadata
     id="metadata5">
    <rdf:RDF>
      <cc:Work
         rdf:about="">
        <dc:format>image/svg+xml</dc:format>
        <dc:type
           rdf:resource="http://purl.org/dc/dcmitype/StillImage" />
        <dc:title></dc:title>
      </cc:Work>
    </rdf:RDF>
  </metadata>
  <g
     transform="translate(37.827204,230.74158)"
     id="layer1">
    <path
       id="path1358"
       d="m -32.714542,269.42351 c 0.33643,25.5687 1.345719,115.39548 2.018579,124.14266 0.67286,8.74717 2.018579,11.77504 14.466486,22.20436 12.4479056,10.42932 16.82149315,13.79363 30.95155,14.13004 14.130057,0.33645 38.016579,0.33645 59.211662,0.67287 21.195082,0.33644 212.287255,0.33644 229.108745,0.33644 16.82152,0 89.82681,-0.67286 100.25613,-0.67286 10.42932,0 14.46649,-1.34573 22.20436,-8.41076 7.7379,-7.06501 7.7379,-9.75646 7.7379,-25.56867 0,-15.81219 -0.47578,-123.94555 -0.81223,-128.992 -0.33641,-5.04645 -465.143182,2.15792 -465.143182,2.15792 z"
       style="fill:#9b8d78;fill-opacity:1;stroke:none;stroke-width:0.26458332px;stroke-linecap:butt;stroke-linejoin:miter;stroke-opacity:1" />
    <path
       id="path1371"
       transform="matrix(0.26458333,0,0,0.26458333,-27.331664,-220.45848)"
       d="m 1635.9785,1837.7578 -620.0137,563.0723 193.2754,16.5312 47.0469,-76.2929 481.9492,-468.2129 c -0.1923,-15.917 -0.3825,-26.818 -0.5605,-29.4883 -0.1853,-2.7791 -37.8378,-4.5689 -101.6973,-5.6094 z m -1221.31248,7.6836 c -71.46081,0.9215 -136.20798,1.7917 -194.19922,2.5957 l 63.08789,13.6582 514.97656,487.002 151.31445,-30.5176 483.1875,-460.2988 -190.7324,7.6289 -367.47658,424.6953 -186.91797,-180.5586 z m -331.177739,4.5391 c -63.520926,0.9258 -103.833984,1.5429 -103.833984,1.5429 0.09305,7.0716 0.281603,22.574 0.400391,32.0313 l 578.154292,545.25 92.82227,-71.207 z m 1655.896519,170.4121 -465.6426,441.3886 c 35.1638,-0.1541 90.8311,-0.5596 148.4297,-1.0019 l 317.9785,-296.2305 c -0.2173,-47.0901 -0.4807,-96.8557 -0.7656,-144.1562 z m -1757.453159,11.3066 c 0.704935,53.8547 1.488174,110.1759 2.28125,159.0625 l 278.789059,268.5781 c 33.59177,0.2713 69.39173,0.5602 104.03711,1.0372 l 37.3125,-22.6719 z"
       style="fill:#871b1b;fill-opacity:1;stroke:none;stroke-width:0.99999994px;stroke-linecap:butt;stroke-linejoin:miter;stroke-opacity:1" />
    <path
       id="path1351"
       d="m 381.76708,293.81468 c 0.67286,11.77507 5.04645,32.80193 6.39218,47.77306 1.34572,14.97113 0.50464,26.57795 -10.09291,37.34371 -10.59754,10.76577 -12.95254,11.94327 -15.30754,13.62541 -2.35501,1.68214 2.52322,4.03717 9.58823,0 7.06504,-4.03714 25.56867,-17.15791 35.49338,-33.81121 9.92468,-16.65327 6.39215,-29.77404 4.03714,-39.3623 -2.355,-9.58824 -0.84108,-26.07331 -0.67286,-29.60582 0.16822,-3.5325 -6.72859,-9.25181 -6.56037,1.51392 0.1682,10.76577 2.355,24.22298 3.70073,31.79263 1.34572,7.56967 2.69142,23.04547 -5.04645,34.98871 -7.7379,11.94326 -10.42932,13.45721 -13.45721,16.14866 -3.02787,2.69142 -4.71001,3.02786 -1.1775,-5.04645 3.53253,-8.07432 4.71003,-13.28899 3.02786,-28.0919 -1.68214,-14.80294 -3.86892,-23.55011 -4.54178,-32.29729 -0.67287,-8.74718 0.33641,-15.30755 0.50464,-19.00828 0.16822,-3.70072 -5.88754,4.03715 -5.88754,4.03715 z"
       style="fill:#111111;fill-opacity:1;stroke:none;stroke-width:0.26458332px;stroke-linecap:butt;stroke-linejoin:miter;stroke-opacity:1" />
    <path
       id="path1353"
       transform="matrix(0.26458333,0,0,0.26458333,-27.331664,-220.45848)"
       d="m 1646.4258,1911.582 -7.8301,0.3008 c -3.5602,2.5269 -6.1348,9.1638 -5.9297,22.291 0.1833,11.7289 1.0129,24.3046 2.2051,36.9473 7.0598,0.3548 14.602,0.088 20.4258,-0.9395 0.5362,-19.3365 1.8741,-35.6416 2.164,-41.7304 0.2952,-6.1977 -5.1643,-14.1686 -11.0351,-16.8692 z m -79.791,13.084 c -5.3251,-0.2623 -20.4356,19.043 -20.4356,19.043 0.5454,9.5437 1.7589,20.7599 3.3399,32.9492 6.0349,-1.5885 11.456,-2.4927 16.1757,-3.0098 0.2462,-19.891 2.2853,-35.2755 2.7364,-45.1972 0.1192,-2.6226 -0.5876,-3.7246 -1.8164,-3.7852 z"
       style="fill:#4f4f4f;fill-opacity:1;stroke:none;stroke-width:0.99999994px;stroke-linecap:butt;stroke-linejoin:miter;stroke-opacity:1" />
    <path
       id="path1349"
       d="m 378.90744,274.8064 c -0.16822,12.95255 0,17.15792 0.33642,19.1765 0.33644,2.01859 2.52322,1.68214 5.21467,1.85036 2.69145,0.16823 4.03717,-0.50464 4.03717,-3.5325 0,-3.02787 0.84106,-4.03717 7.23323,-4.03717 6.39218,0 7.23323,-0.33642 7.40146,2.85967 0.16822,3.19608 2.01858,4.71 6.22395,4.54178 4.20536,-0.16819 5.21467,-1.1775 5.38287,-8.57895 0.16822,-7.40146 0.50466,-11.4386 1.0093,-15.30755 0.50464,-3.86895 -36.83907,3.02786 -36.83907,3.02786 z"
       style="fill:#721616;fill-opacity:1;stroke:none;stroke-width:0.26458332px;stroke-linecap:butt;stroke-linejoin:miter;stroke-opacity:1" />
    <path
       id="path1330"
       d="m 336.64287,272.13538 c 0,15.93877 0,49.71942 0,52.57411 0,2.8547 0.4758,5.23362 4.99573,5.70939 4.51996,0.4758 22.12396,0.4758 27.83337,0 5.70939,-0.47577 5.94728,-3.33047 6.42308,-7.13674 0.47577,-3.80627 -0.4758,-51.38464 -0.4758,-53.52568 0,-2.14101 -38.77638,2.37892 -38.77638,2.37892 z"
       style="fill:#772017;fill-opacity:1;stroke:none;stroke-width:0.26458332px;stroke-linecap:butt;stroke-linejoin:miter;stroke-opacity:1" />
    <path
       id="path1328"
       d="m 278.81953,401.30404 c 0,-8.74718 3.70073,-8.07432 16.14863,-7.40146 12.44791,0.67287 17.49436,4.71001 16.48508,14.80291 -1.00928,10.0929 -3.36431,9.75649 -17.49435,8.41076 -14.13005,-1.34572 -15.13936,-3.70073 -15.13936,-15.81221 z"
       style="fill:#42150f;fill-opacity:1;stroke:none;stroke-width:0.26458332px;stroke-linecap:butt;stroke-linejoin:miter;stroke-opacity:1" />
    <path
       id="path1261"
       d="m -13.538038,293.47826 c -0.168215,12.44791 -3.700729,30.11048 -1.850365,42.55839 1.850365,12.4479 8.5789627,23.8865 19.1765038,29.94226 10.5975412,6.05573 26.0733162,8.24254 31.2879812,14.97113 5.214663,6.72859 5.382877,5.38287 7.233243,7.40145 1.850363,2.01859 17.998998,3.36429 20.017578,-1.1775 2.018581,-4.54181 3.868944,-11.60685 0.672859,-20.52222 -3.196084,-8.9154 -13.96184,-14.63471 -25.064026,-21.86794 C 26.83355,337.55057 19.600307,321.90658 19.600307,321.90658 l -3.868944,-30.4469 c 0,0 -1.177504,-6.89682 -3.70073,-0.33642 -2.5232223,6.56037 -3.3642983,13.28896 0.168215,25.73686 3.532515,12.44794 7.906104,19.00831 20.69044,29.43763 12.784336,10.42934 26.409747,12.2797 27.082607,25.73689 0.672859,13.45718 0.168214,16.14863 -4.037161,16.98971 -4.205372,0.84106 -6.560381,-0.84108 -9.924679,-3.02786 C 42.645753,383.80968 38.776809,375.0625 26.16069,370.85714 13.544569,366.65177 -5.9683656,357.23173 -9.3326646,344.44738 -12.696964,331.66306 -7.650515,295.83326 -7.650515,292.8054 c 0,-3.02787 -5.887523,0.67286 -5.887523,0.67286 z"
       style="fill:#111111;fill-opacity:1;stroke:none;stroke-width:0.26458332px;stroke-linecap:butt;stroke-linejoin:miter;stroke-opacity:1" />
    <path
       id="path1135"
       d="m 76.627079,-203.17255 c -0.237892,-6.42308 -1.189458,-10.94303 7.612539,-13.79773 8.801999,-2.8547 32.353292,-8.802 43.058432,-11.18092 10.70513,-2.37892 18.07978,-2.37892 28.78491,-2.37892 10.70514,0 100.39037,-0.47578 110.61971,0 10.22935,0.47579 32.82908,9.27779 40.67951,13.55984 7.85045,4.28205 -91.35047,13.55984 -91.35047,13.55984 l -88.01999,4.75783 z"
       style="fill:#1e1e1e;fill-opacity:1;stroke:none;stroke-width:0.26458332px;stroke-linecap:butt;stroke-linejoin:miter;stroke-opacity:1" />
    <path
       id="path1294"
       d="m 268.84371,271.65961 c 0.23789,8.56411 -0.23789,9.27777 6.66096,16.17665 6.89886,6.89885 8.32623,9.03989 8.56412,16.41454 0.23788,7.37462 -0.23789,7.85042 15.70085,7.85042 15.93876,0 18.79346,-0.4758 18.79346,-5.9473 0,-5.4715 -0.23789,-29.26069 -0.23789,-32.59119 0,-3.33047 -49.4815,-1.90312 -49.4815,-1.90312 z"
       style="fill:#7e1818;fill-opacity:1;stroke:none;stroke-width:0.26458332px;stroke-linecap:butt;stroke-linejoin:miter;stroke-opacity:1" />
    <path
       id="path1369"
       d="m 159.0505,353.19456 c 17.83078,19.84936 35.998,31.62443 37.68015,33.97943 1.68215,2.355 2.01857,4.03715 8.07431,-1.34572 6.05574,-5.38287 34.65227,-30.61512 35.998,-33.97943 1.34572,-3.36429 -81.75246,1.34572 -81.75246,1.34572 z"
       style="fill:#0f0f0f;fill-opacity:1;stroke:none;stroke-width:0.26458332px;stroke-linecap:butt;stroke-linejoin:miter;stroke-opacity:1" />
    <path
       id="path1365"
       d="m 142.90186,273.46068 c -0.33643,25.56867 -1.34572,69.30456 -0.67286,74.68743 0.67286,5.38289 1.34572,7.06504 7.73789,7.06504 6.39217,0 91.17251,-0.33642 96.55538,-0.67287 5.38287,-0.33641 7.40145,0 8.07431,-13.79363 0.67287,-13.79362 0.33645,-70.65028 0.33645,-75.36029 0,-4.71 -112.03117,8.07432 -112.03117,8.07432 z"
       style="fill:#741c16;fill-opacity:1;stroke:none;stroke-width:0.26458332px;stroke-linecap:butt;stroke-linejoin:miter;stroke-opacity:1" />
    <path
       id="path1066"
       d="m -20.78869,-136.72768 c -15.308035,15.11905 -16.819941,15.11905 -16.441965,35.52976 0.377978,20.410718 0.94494,89.958337 0.755954,108.2901815 -0.188989,18.3318455 -0.755954,131.7246985 -0.566965,150.0565485 0.188989,18.33184 -0.566965,106.21131 -0.755952,111.12501 -0.188989,4.91368 0.377976,4.91368 6.236608,5.10267 5.858629,0.18899 219.22619,2.64584 247.19642,2.45684 27.97024,-0.18899 196.94547,1.42072 209.79668,1.04273 12.85118,-0.37795 14.36309,-3.21278 14.36309,-8.88243 0,-5.66964 -0.39786,-144.10673 -0.39786,-166.40732 0,-22.300597 0.56695,-149.300596 0,-172.73512 -0.56698,-23.434523 -0.37798,-30.42708 -0.56698,-39.30952 -0.18899,-8.88244 -5.10267,-12.09524 -13.60712,-19.84375 -8.50448,-7.74851 -45.16816,-44.60119 -62.17708,-60.85417 -17.00895,-16.25297 -17.38691,-18.14286 -27.2143,-22.30059 -9.82737,-4.15774 -19.46577,-6.23661 -44.60119,-6.80358 -25.13541,-0.56696 -44.22321,0.18899 -54.23958,0.94495 -10.01637,0.75595 -12.47322,4.91369 -15.49702,7.9375 -3.02381,3.0238 -5.85864,4.15773 -15.30804,4.53571 -9.4494,0.37798 -139.095237,0.75595 -148.733629,0.75595 -9.638392,0 -11.528274,2.64584 -19.276787,10.01637 -7.748511,7.37054 -53.48363,53.29464 -58.964284,59.34226 z"
       style="fill:#d69b1c;fill-opacity:1;stroke:none;stroke-width:0.26458332px;stroke-linecap:butt;stroke-linejoin:miter;stroke-opacity:1" />
    <path
       id="path1068"
       transform="scale(0.26458333)"
       d="m 1033.9277,-833.22852 c -62.14281,0.0335 -109.82,2.17744 -138.21286,4.32032 -37.85714,2.85713 -47.14373,18.57142 -58.57226,30 -11.42858,11.42853 -22.14316,15.71399 -57.85742,17.14258 -35.71427,1.42858 -525.71401,2.85742 -562.14258,2.85742 -36.42857,0 -43.57171,10.0003 -72.85742,37.85742 -29.28571,27.85716 -202.143143,201.42801 -222.857426,224.28516 -9.667149,9.5478 -17.762893,17.40703 -24.728514,24.39062 122.151441,0.74433 772.5207,2.13614 874.01562,4.17969 101.05743,2.0347 752.20606,3.38629 845.09966,3.52148 -2.7815,-2.48499 -5.6464,-5.05004 -8.6719,-7.80664 -32.1429,-29.28571 -170.7143,-168.57141 -235,-230 -64.2858,-61.42855 -65.7146,-68.5709 -102.8574,-84.28515 -37.1429,-15.7143 -73.5703,-23.57197 -168.5704,-25.71485 -23.7499,-0.53571 -46.0728,-0.75921 -66.7871,-0.74805 z"
       style="fill:#ce9018;fill-opacity:1;stroke:none;stroke-width:0.99999994px;stroke-linecap:butt;stroke-linejoin:miter;stroke-opacity:1" />
    <path
       id="path1092"
       d="m 44.767645,-150.27555 c 0.133636,-11.49259 8.15172,-17.63979 18.842503,-17.77342 10.69078,-0.13364 48.375782,0.53453 59.734742,0.66817 11.35895,0.13363 20.17885,6.41447 20.17885,16.57071 0,10.15624 -4.14268,18.04069 -15.50164,18.30796 -11.35895,0.26727 -54.79025,0.4009 -65.347397,-0.40091 -10.557145,-0.8018 -17.907058,-7.21627 -17.907058,-17.37251 z"
       style="fill:#121212;fill-opacity:1;stroke:none;stroke-width:0.26458332px;stroke-linecap:butt;stroke-linejoin:miter;stroke-opacity:1" />
    <path
       id="path1094"
       d="m 49.177593,-149.60738 c 0.267269,-6.94901 4.677217,-13.49711 13.898015,-13.76438 9.220797,-0.26727 54.656622,-0.26727 63.075612,0.53454 8.41899,0.80181 11.75985,4.27631 12.29439,12.02713 0.53454,7.75081 -3.0736,13.63074 -11.62622,14.16528 -8.55263,0.53454 -55.458427,0.80181 -63.342878,-0.13363 -7.884451,-0.93544 -14.03165,-5.87993 -14.298919,-12.82894 z"
       style="fill:#1b1b1b;fill-opacity:1;stroke:none;stroke-width:0.26458332px;stroke-linecap:butt;stroke-linejoin:miter;stroke-opacity:1" />
    <path
       id="path1096"
       d="m 257.02381,-149.76786 c -0.18899,-12.85119 6.42559,-16.06398 17.57588,-16.44196 11.15031,-0.37797 49.89287,-1.13393 61.23215,-0.37797 11.3393,0.75595 20.41072,5.66964 20.22173,17.3869 -0.18899,11.71726 -6.2366,17.19791 -17.5759,17.76488 -11.33927,0.56696 -53.48361,0.56696 -62.93302,0.37798 -9.44941,-0.18899 -18.14287,-7.18155 -18.52084,-18.70983 z"
       style="fill:#121212;fill-opacity:1;stroke:none;stroke-width:0.26458332px;stroke-linecap:butt;stroke-linejoin:miter;stroke-opacity:1" />
    <path
       id="path1098"
       d="m 261.37053,-149.95684 c 0.56697,-8.50447 4.15773,-11.90625 13.98513,-12.28423 9.82736,-0.37798 51.78274,-0.75595 59.90923,-0.37798 8.12646,0.37798 15.30802,4.15774 15.49701,12.85119 0.189,8.69346 -4.53572,13.22917 -12.47322,13.79613 -7.9375,0.56697 -55.5625,0.75596 -63.12202,0.18899 -7.55951,-0.56696 -13.79613,-4.91369 -13.79613,-14.1741 z"
       style="fill:#1b1b1b;fill-opacity:1;stroke:none;stroke-width:0.26458332px;stroke-linecap:butt;stroke-linejoin:miter;stroke-opacity:1" />
    <path
       id="path1100"
       transform="scale(0.26458333)"
       d="m 1119.3398,-813.08789 c -67.9289,-0.0204 -176.52785,3.64316 -220.05464,10.60742 -53.57144,8.57144 -50.71426,48.57225 -50,98.57227 -0.71426,20.00001 -1.42774,38.57116 -1.42774,52.14258 0,13.57145 7.85745,14.28515 27.85742,14.28515 20.00002,0 118.57122,-5.9e-4 187.14256,-0.71484 59.3712,-0.61846 295.7235,0.36537 394.3106,-1.21289 -26.9805,-26.62185 -52.9984,-52.19814 -73.6524,-72.13868 -2.0071,1.90851 -3.9473,3.35356 -5.6582,4.06641 -8.5714,3.57143 -2.8571,10.71401 -65,-37.85742 -62.1428,-48.57143 -100.7137,-64.9997 -154.2851,-67.14258 -10.0447,-0.40178 -23.5565,-0.60271 -39.2325,-0.60742 z"
       style="fill:#976515;fill-opacity:1;stroke:none;stroke-width:0.99999994px;stroke-linecap:butt;stroke-linejoin:miter;stroke-opacity:1" />
    <path
       style="fill:#704f17;fill-opacity:1;stroke:none;stroke-width:0.30050537px;stroke-linecap:butt;stroke-linejoin:miter;stroke-opacity:1"
       d="m 262.96412,-195.67329 c -9.17165,-0.21099 -12.88396,4.43067 -13.10234,11.60414 -0.21838,7.17347 2.62047,11.39316 12.01049,11.60414 9.39002,0.21099 11.79211,-5.2746 11.57376,-11.81513 -0.21838,-6.54051 -5.24095,-11.39315 -10.48191,-11.39315 z"
       id="path1110" />
    <path
       id="path1125"
       d="m 200.98668,-204.13036 c 19.37704,-0.13364 20.44612,5.07812 21.1143,17.63979 0.66817,12.56166 0.66817,35.54684 0.13363,43.03039 -0.53454,7.48355 -4.27631,13.09621 -21.38156,12.96257 -17.10525,-0.13363 -21.5152,-3.34087 -23.38609,-15.23436 -1.87088,-11.8935 -0.80181,-39.02135 0,-46.10399 0.80181,-7.08265 4.00905,-12.02713 23.51972,-12.2944 z"
       style="fill:#af781d;fill-opacity:1;stroke:none;stroke-width:0.26458332px;stroke-linecap:butt;stroke-linejoin:miter;stroke-opacity:1" />
    <path
       id="path1102"
       d="m 237.74702,-178.30506 c 10.58333,-0.18898 18.70982,-6.80357 18.89881,-18.89881 0.18899,-12.09524 -7.55952,-18.70982 -18.70982,-18.52083 -11.1503,0.18899 -17.76488,10.39434 -18.33185,18.89881 -0.56696,8.50446 9.26042,18.52083 18.14286,18.52083 z"
       style="fill:#674214;fill-opacity:1;stroke:none;stroke-width:0.26458332px;stroke-linecap:butt;stroke-linejoin:miter;stroke-opacity:1" />
    <path
       id="path1108"
       d="m 305.02677,-194.74702 c -7.9375,-0.18899 -11.15028,3.96875 -11.33927,10.39434 -0.189,6.4256 2.26785,10.20536 10.39434,10.39435 8.12649,0.18899 10.20535,-4.7247 10.01638,-10.58334 -0.18899,-5.85862 -4.53572,-10.20535 -9.07145,-10.20535 z"
       style="fill:#704f17;fill-opacity:1;stroke:none;stroke-width:0.26458332px;stroke-linecap:butt;stroke-linejoin:miter;stroke-opacity:1" />
    <path
       id="path1120"
       d="m 262.58015,-180.23408 c 2.74579,-0.11553 3.5303,-1.8485 3.46493,-3.06159 -0.0654,-1.21307 -1.17678,-3.11934 -2.74579,-3.17711 -1.56904,-0.0578 -3.26881,0.63543 -3.33418,2.94605 -0.0654,2.31063 1.24214,3.06158 2.61504,3.29265 z"
       style="fill:#372210;fill-opacity:1;stroke:none;stroke-width:0.17206882px;stroke-linecap:butt;stroke-linejoin:miter;stroke-opacity:1" />
    <path
       id="path1104"
       d="m 259.29166,-197.20387 c 0.75596,-13.79613 10.39434,-21.54464 21.92261,-21.54464 11.52829,0 22.11163,6.23661 22.30062,20.03274 0.18896,13.79613 -9.26042,23.8125 -20.03274,23.8125 -10.77233,0 -23.43453,-7.37054 -24.19049,-22.3006 z"
       style="fill:#674214;fill-opacity:1;stroke:none;stroke-width:0.26458332px;stroke-linecap:butt;stroke-linejoin:miter;stroke-opacity:1" />
    <path
       id="path1106"
       d="m 309.3735,-197.95982 c 0.189,-12.28422 8.50448,-16.06399 17.7649,-16.06399 9.26041,0 16.06399,8.88244 15.875,16.06399 -0.189,7.18155 -4.15775,17.3869 -15.49705,17.57589 -11.33927,0.18899 -18.14285,-7.55952 -18.14285,-17.57589 z"
       style="fill:#674214;fill-opacity:1;stroke:none;stroke-width:0.26458332px;stroke-linecap:butt;stroke-linejoin:miter;stroke-opacity:1" />
    <path
       id="path1112"
       d="m 282.6317,-192.38467 c 3.96875,-0.18899 5.10267,-3.02381 5.00819,-5.00819 -0.0945,-1.98437 -1.7009,-5.10267 -3.96875,-5.19717 -2.26788,-0.0945 -4.72472,1.03944 -4.8192,4.8192 -0.0945,3.77976 1.79538,5.00818 3.77976,5.38616 z"
       style="fill:#372210;fill-opacity:1;stroke:none;stroke-width:0.26458332px;stroke-linecap:butt;stroke-linejoin:miter;stroke-opacity:1" />
    <path
       style="fill:#372210;fill-opacity:1;stroke:none;stroke-width:0.28020003px;stroke-linecap:butt;stroke-linejoin:miter;stroke-opacity:1"
       d="m 239.25926,-192.51831 c 4.45108,-0.18899 5.72281,-3.02381 5.61685,-5.00819 -0.10599,-1.98437 -1.90762,-5.10267 -4.45108,-5.19717 -2.5435,-0.0945 -5.29892,1.03944 -5.40489,4.8192 -0.10598,3.77976 2.01358,5.00818 4.23912,5.38616 z"
       id="path1114" />
    <path
       id="path1116"
       d="m 327.32771,-192.7073 c 4.45108,-0.18899 5.72281,-3.02381 5.61685,-5.00819 -0.10599,-1.98437 -1.90762,-5.10267 -4.45108,-5.19717 -2.5435,-0.0945 -5.29892,1.03944 -5.40489,4.8192 -0.10598,3.77976 2.01358,5.00818 4.23912,5.38616 z"
       style="fill:#372210;fill-opacity:1;stroke:none;stroke-width:0.28020003px;stroke-linecap:butt;stroke-linejoin:miter;stroke-opacity:1" />
    <path
       style="fill:#372210;fill-opacity:1;stroke:none;stroke-width:0.17206882px;stroke-linecap:butt;stroke-linejoin:miter;stroke-opacity:1"
       d="m 303.77955,-181.557 c 2.74579,-0.11553 3.5303,-1.8485 3.46493,-3.06159 -0.0654,-1.21307 -1.17678,-3.11934 -2.74579,-3.17711 -1.56904,-0.0578 -3.26881,0.63543 -3.33418,2.94605 -0.0654,2.31063 1.24214,3.06158 2.61504,3.29265 z"
       id="path1118" />
    <path
       id="path1127"
       d="m 200.31851,-199.31951 c 10.55715,0.13363 14.69982,7.08264 14.83346,14.96709 0.13363,7.88445 -6.05271,14.63776 -13.93716,14.77139 -7.88445,0.13364 -15.01573,-5.49523 -15.41663,-14.84967 -0.40091,-9.35443 5.29953,-14.75518 14.52033,-14.88881 z"
       style="fill:#9b7632;fill-opacity:1;stroke:none;stroke-width:0.26458332px;stroke-linecap:butt;stroke-linejoin:miter;stroke-opacity:1" />
    <path
       id="path1129"
       d="m 187.57068,-185.39211 c 0.56697,9.92187 7.37054,13.89062 12.7567,14.07961 5.38616,0.18899 12.47321,-3.77976 12.85119,-12.85119 0.37798,-9.07143 -4.91369,-13.22917 -12.56771,-13.22917 -7.65402,0 -12.85119,4.8192 -13.04018,12.00075 z"
       style="fill:#e3e3e3;fill-opacity:1;stroke:none;stroke-width:0.26458332px;stroke-linecap:butt;stroke-linejoin:miter;stroke-opacity:1" />
    <path
       style="fill:#9b7632;fill-opacity:1;stroke:none;stroke-width:0.26458332px;stroke-linecap:butt;stroke-linejoin:miter;stroke-opacity:1"
       d="m 215.32166,-149.20143 c -0.70903,10.53417 -7.87356,14.2918 -15.75358,13.99537 -7.88001,-0.29644 -14.28598,-6.84178 -13.98954,-14.72179 0.29643,-7.88001 6.30574,-14.69379 15.66812,-14.58407 9.36237,0.1097 14.44429,6.09612 14.075,15.31049 z"
       id="path1131" />
    <path
       style="fill:#e3e3e3;fill-opacity:1;stroke:none;stroke-width:0.26458332px;stroke-linecap:butt;stroke-linejoin:miter;stroke-opacity:1"
       d="m 202.11,-162.68964 c -9.93802,0.0252 -14.27181,6.60223 -14.75418,11.97008 -0.48237,5.36785 3.09408,12.66074 12.1314,13.53275 9.03733,0.87199 13.4774,-4.18511 13.8947,-11.82775 0.41732,-7.64263 -4.11136,-13.09482 -11.27192,-13.67508 z"
       id="path1133" />
    <path
       id="path1183"
       transform="matrix(0.26458333,0,0,0.26458333,-27.331664,-220.45848)"
       d="m -34.435547,835.55469 c -0.0199,9.47319 -0.05474,18.04412 -0.121094,24.48047 -0.487718,47.30847 -1.62265,260.56524 -2.078125,414.13864 l 1359.148466,4.0703 441.3769,-38.4394 c 0.077,-9.2105 0.125,-17.0153 0.125,-22.627 0,-47.4562 0.6619,-219.80647 0.8731,-377.65817 z"
       style="fill:#c7901a;fill-opacity:1;stroke:none;stroke-width:0.99999994px;stroke-linecap:butt;stroke-linejoin:miter;stroke-opacity:1" />
    <path
       transform="matrix(0.26458333,0,0,0.26458333,-27.331664,-220.45848)"
       id="path1137"
       d="m 1764.707,940.90234 c -141.7823,62.41296 -480.3497,195.94536 -492.0039,201.12496 -12.138,5.3947 -22.0279,5.8438 -36.8633,5.8438 -14.8355,0 -733.23223,-7.1927 -756.60933,-8.0918 -23.37709,-0.8991 -30.57095,-6.2941 -50.35156,-12.5879 -17.48889,-5.5646 -363.015959,-145.99562 -464.017582,-184.07226 -0.25489,42.31961 -0.526945,93.84396 -0.789062,149.83006 l 451.320314,192.4883 882.93552,14.3848 466.0254,-220.834 c 0.1199,-41.8699 0.2419,-89.09108 0.3535,-138.08596 z"
       style="fill:#c7c7c7;fill-opacity:1;stroke:none;stroke-width:0.99999994px;stroke-linecap:butt;stroke-linejoin:miter;stroke-opacity:1" />
    <path
       id="path1239"
       d="m 78.811969,272.4514 c -0.504645,12.11146 -0.504645,31.45618 -0.168217,34.82049 0.336431,3.36428 1.345721,3.5325 4.541806,3.86895 3.196082,0.33642 22.204372,0.33642 26.073312,0 3.86895,-0.33645 4.87824,-1.34573 5.21467,-5.04645 0.33643,-3.70073 -1.17751,-13.28899 2.85965,-15.47577 4.03716,-2.18681 10.59754,-11.27041 10.42933,-17.99902 -0.16822,-6.7286 -48.950551,-0.1682 -48.950551,-0.1682 z"
       style="fill:#7e1818;fill-opacity:1;stroke:none;stroke-width:0.26458332px;stroke-linecap:butt;stroke-linejoin:miter;stroke-opacity:1" />
    <path
       id="path1263"
       transform="matrix(0.26458333,0,0,0.26458333,-27.331664,-220.45848)"
       d="m 156.24023,1922.8457 c -2.00619,0.1622 -4.48856,2.9429 -7.46875,10.6914 -4.84815,12.6052 -8.04607,25.3819 -8.27148,41.0723 8.7089,-0.3957 18.46075,-0.8688 27.13867,-1.3965 l -4.88086,-38.4043 c 0,0 -2.10395,-12.3198 -6.51758,-11.9629 z m -86.144527,12.5508 c -6.466189,-0.1848 -17.962891,7.041 -17.962891,7.041 -0.131131,9.7037 -0.817322,20.2738 -1.740234,31.3086 7.00628,1.2721 14.254347,2.2253 20.373047,2.7559 1.984265,-19.2064 3.619141,-33.2682 3.619141,-36.6075 0,-3.2186 -1.758815,-4.4257 -4.289063,-4.498 z"
       style="fill:#4f4f4f;fill-opacity:1;stroke:none;stroke-width:0.99999994px;stroke-linecap:butt;stroke-linejoin:miter;stroke-opacity:1" />
    <path
       id="path1259"
       d="m -19.257346,285.40394 c 2.186794,-0.16822 3.196084,2.01859 3.532513,5.88751 0.33643,3.86895 1.34572,4.2054 5.046449,4.2054 3.7007288,0 5.2146632,-2.52323 5.2146632,-5.21468 0,-2.69144 0.6728597,-4.37359 5.71930866,-4.54181 5.04644814,-0.16819 7.40145674,1.34573 7.40145674,4.71004 0,3.36428 1.1775043,4.37358 4.8782344,4.54181 3.700729,0.16819 5.046448,-3.36431 5.046448,-3.36431 v -20.69045 l -37.511933,0.16823 z"
       style="fill:#721616;fill-opacity:1;stroke:none;stroke-width:0.26458332px;stroke-linecap:butt;stroke-linejoin:miter;stroke-opacity:1" />
    <path
       id="path1245"
       transform="matrix(0.26458333,0,0,0.26458333,-27.331664,-220.45848)"
       d="m 153.57812,1845.7012 c -24.5652,-0.1 -62.725506,5.0914 -91.744136,9.7011 34.884487,-3.7959 100.756926,-9.5538 100.289066,1.2071 -0.63578,14.6228 -5.08689,87.7359 -5.72266,116.3457 -0.63578,28.6098 4.44942,74.3859 20.34375,90.916 15.89432,16.5301 13.98838,29.2451 -8.26367,29.8809 -22.25206,0.6357 -96.002735,2.5429 -120.162111,2.5429 -24.159374,0 -16.529297,-33.6952 -16.529297,-75.6562 10e-7,-41.6036 4.997616,-123.1478 8.800782,-161.7149 -11.429315,1.979 -18.972656,3.4063 -18.972656,3.4063 -2.543093,69.2993 -0.635774,446.3124 0,467.2929 0.635772,20.9805 -9.9e-4,22.8887 20.34375,22.8887 20.344734,0 139.233512,-2.5439 157.035152,-4.4512 17.80165,-1.9073 13.98828,-12.7153 13.98829,-22.2519 0,-9.5366 -1.90814,-204.0828 -3.17969,-228.2422 -1.27154,-24.1594 -13.98684,-42.5961 -23.52344,-54.6758 -9.53659,-12.0797 -12.07907,-28.6108 -12.71484,-58.4922 -0.63577,-29.8812 4.44922,-111.2588 4.44921,-131.6035 0,-5.0862 -9.77498,-7.0341 -24.4375,-7.0937 z m 8.39063,264.4277 c 3.92888,0.024 7.22583,0.073 9.68945,0.1523 19.70896,0.6358 24.15909,4.452 26.06641,28.6114 1.90731,24.1593 3.81451,141.1415 2.54297,164.0293 -1.27155,22.8878 -5.08496,28.6093 -25.42969,29.8808 -20.34474,1.2716 -97.274526,3.8155 -115.076171,3.1797 -17.801643,-0.6358 -27.972657,-6.9949 -27.972657,-31.1543 0,-24.1593 -0.635773,-137.3259 0,-162.1211 0.635774,-24.1594 2.542867,-29.246 24.794922,-30.5175 19.470551,-1.1127 77.882616,-2.2258 105.384766,-2.0606 z"
       style="fill:#921c1c;fill-opacity:1;stroke:none;stroke-width:0.99999994px;stroke-linecap:butt;stroke-linejoin:miter;stroke-opacity:1" />
    <path
       id="path1193"
       transform="matrix(0.26458333,0,0,0.26458333,-37.827204,-230.74158)"
       d="M 2.6835938 1602.7305 C 2.3439343 1662.0591 1.8457095 1726.907 1.3496094 1780.9824 C 1.3194363 1784.3003 1.2936373 1786.9502 1.2636719 1790.168 C 1.0677573 1811.0391 0.88689737 1828.8173 0.71484375 1843.9551 C 0.65305249 1849.4384 0.58977477 1855.2494 0.53320312 1859.7676 C 0.47639563 1864.279 0.42139255 1868.6747 0.37109375 1872.0977 C 0.35100993 1873.4719 0.33142863 1874.9477 0.3125 1876.1348 C 0.23613286 1880.9021 0.16552089 1884.6339 0.11132812 1886.043 C -0.15653025 1893.0072 -0.021910201 1897.3592 1.4179688 1900.1172 C 1.5379464 1900.347 1.6660505 1900.5652 1.8046875 1900.7734 C 2.0822078 1901.1905 2.3972491 1901.5646 2.7558594 1901.9023 C 3.1140486 1902.2397 3.5154156 1902.541 3.9628906 1902.8086 C 4.8578925 1903.3438 5.9398243 1903.7478 7.2421875 1904.0605 C 7.5677665 1904.1387 7.9061104 1904.2121 8.2597656 1904.2793 C 9.6748694 1904.5484 11.318013 1904.7344 13.224609 1904.875 C 14.177456 1904.9453 15.195033 1905.0043 16.283203 1905.0566 C 18.46008 1905.1613 20.914856 1905.2388 23.683594 1905.3281 C 40.290731 1905.8638 498.05792 1911.2209 770.50195 1913.5645 C 815.90929 1913.955 856.16966 1914.2623 888.38086 1914.4492 C 920.59206 1914.6361 944.75447 1914.7026 957.96875 1914.6133 C 1049.8111 1913.9928 1554.9778 1918.4983 1717.9434 1918.7559 C 1733.7329 1918.7501 1745.9943 1918.699 1750.9004 1918.5547 C 1799.4718 1917.1262 1805.1875 1906.413 1805.1875 1884.9844 C 1805.1875 1874.7901 1804.8295 1744.2446 1804.4727 1608.2031 L 2.6835938 1602.7305 z "
       style="fill:#842121;fill-opacity:1;stroke:none;stroke-width:0.99999994px;stroke-linecap:butt;stroke-linejoin:miter;stroke-opacity:1" />
    <path
       id="path1235"
       d="m 88.063792,200.11897 c -12.952553,1.00928 -13.625412,0 -13.961843,19.51292 -0.336428,19.51294 -0.336428,30.78334 0,34.14765 0.336431,3.36429 1.850366,4.54179 6.560383,4.87823 4.71002,0.33642 31.119768,0.67286 36.839078,0.67286 5.7193,0 6.89681,-2.01858 7.23324,-5.38289 0.33643,-3.36428 1.1775,-42.72658 0.84107,-46.93195 -0.33643,-4.20539 -2.01857,-6.72862 -8.91539,-6.89682 -6.89681,-0.16822 -28.596538,0 -28.596538,0 z"
       style="fill:#913d35;fill-opacity:1;stroke:none;stroke-width:0.26458332px;stroke-linecap:butt;stroke-linejoin:miter;stroke-opacity:1" />
    <path
       id="path1142"
       transform="matrix(0.26458333,0,0,0.26458333,-37.827204,-230.74158)"
       d="M 1804.123 1080.6172 C 1677.1771 1133.5744 1337.1831 1268.8804 1324.5645 1273.6875 C 1311.2133 1278.7737 1304.8556 1279.4092 1282.6035 1278.7734 C 1260.3515 1278.1376 524.12607 1273.0517 502.50977 1272.416 C 480.89349 1271.7802 474.53596 1266.6945 458.00586 1262.2441 C 445.20488 1258.7977 146.66233 1138.3966 3.9804688 1081.2031 C 3.9789021 1081.5133 3.9781287 1081.8614 3.9765625 1082.1719 C 3.7972254 1117.7281 3.6217175 1155.5528 3.4628906 1193.0977 C 3.4347342 1199.7695 3.4117229 1206.1812 3.3847656 1212.8242 C 3.2671408 1241.7542 3.1665239 1269.9558 3.0800781 1296.9258 C 3.022391 1314.9985 2.9662701 1332.9104 2.9277344 1349.2402 C 2.9194337 1352.7469 2.9076907 1356.6028 2.9003906 1360.0098 C 2.8535484 1381.9537 2.8330989 1401.0359 2.8339844 1417.7871 C 2.8343098 1424.2758 2.8370638 1430.4681 2.8457031 1435.9883 C 2.8504985 1439.0541 2.8538224 1442.3406 2.8613281 1445.082 C 2.8847221 1453.5982 2.9169518 1461.0186 2.96875 1466.043 C 3.0090531 1469.9524 3.0342329 1474.9356 3.0527344 1480.416 C 3.0585563 1482.1309 3.0625797 1484.045 3.0664062 1485.9004 C 3.0730359 1489.1471 3.0734467 1492.7385 3.0742188 1496.3887 C 3.0765475 1506.2605 3.0651666 1517.0445 3.0292969 1529.4082 C 3.0291048 1529.474 3.0294899 1529.5182 3.0292969 1529.584 C 3.0283844 1529.8974 3.0263254 1530.2634 3.0253906 1530.5781 C 2.992233 1541.7435 2.9356683 1554.164 2.8769531 1566.8086 C 2.8050896 1582.2396 2.7189306 1598.4056 2.6171875 1615.2305 C 2.5946434 1618.9618 2.5784467 1622.3223 2.5546875 1626.0957 C 12.244859 1627.3212 25.451955 1628.1674 43.482422 1628.4492 C 124.86137 1629.7207 786.0652 1632.2637 891.60352 1632.2637 C 983.25923 1632.2637 1620.7232 1635.1316 1804.5391 1634.2227 C 1804.1194 1475.3447 1803.6836 1304.0007 1803.6836 1256.043 C 1803.6836 1243.8628 1803.7346 1221.8168 1803.8047 1195.4844 C 1803.8881 1163.5375 1803.999 1125.1415 1804.123 1080.6172 z "
       style="fill:#c2342c;fill-opacity:1;stroke:none;stroke-width:0.99999994px;stroke-linecap:butt;stroke-linejoin:miter;stroke-opacity:1" />
    <g
       id="g1157">
      <path
         style="fill:#a6a6a6;fill-opacity:1;stroke:none;stroke-width:0.26458332px;stroke-linecap:butt;stroke-linejoin:miter;stroke-opacity:1"
         d="M 4.1245317,21.474689 C 12.703493,21.306475 15.226718,28.035072 15.394932,33.586165 15.563149,39.137258 10.853129,44.68836 4.1245317,44.351915 -2.6040666,44.015492 -6.9776552,38.800828 -6.8094403,32.745089 c 0.1682149,-6.055738 4.8782334,-10.765755 10.933972,-11.2704 z"
         id="path1147" />
      <path
         style="fill:#d33232;fill-opacity:1;stroke:none;stroke-width:0.26458332px;stroke-linecap:butt;stroke-linejoin:miter;stroke-opacity:1"
         d="m 4.2086374,24.754879 c 3.9530523,0.08411 7.4014596,3.784838 7.8219956,8.074319 0.420537,4.28948 -3.1119757,8.494855 -8.1584239,8.326641 -5.0464486,-0.168217 -7.2332431,-4.205375 -7.4855653,-7.99021 -0.2523226,-3.784839 2.1867942,-8.158427 7.8219936,-8.41075 z"
         id="path1149" />
    </g>
    <g
       id="g1161">
      <path
         id="path1151"
         d="m 30.702494,21.222367 c 8.578961,-0.168214 11.102186,6.560383 11.2704,12.111476 0.168217,5.551093 -4.541803,11.102195 -11.2704,10.76575 -6.728598,-0.336423 -11.102187,-5.551087 -10.933972,-11.606826 0.168215,-6.055738 4.878233,-10.765755 10.933972,-11.2704 z"
         style="fill:#a6a6a6;fill-opacity:1;stroke:none;stroke-width:0.26458332px;stroke-linecap:butt;stroke-linejoin:miter;stroke-opacity:1" />
      <path
         id="path1153"
         d="m 30.7866,24.502557 c 3.953052,0.08411 7.401459,3.784838 7.821995,8.074319 0.420537,4.28948 -3.111976,8.494855 -8.158424,8.326641 C 25.403723,40.7353 23.216928,36.698142 22.964606,32.913307 22.712283,29.128468 25.1514,24.75488 30.7866,24.502557 Z"
         style="fill:#d7d7d7;fill-opacity:1;stroke:none;stroke-width:0.26458332px;stroke-linecap:butt;stroke-linejoin:miter;stroke-opacity:1" />
    </g>
    <g
       transform="rotate(-90,200.89069,-162.32774)"
       id="g1167">
      <path
         id="path1163"
         d="M 4.1245317,21.474689 C 12.703493,21.306475 15.226718,28.035072 15.394932,33.586165 15.563149,39.137258 10.853129,44.68836 4.1245317,44.351915 -2.6040666,44.015492 -6.9776552,38.800828 -6.8094403,32.745089 c 0.1682149,-6.055738 4.8782334,-10.765755 10.933972,-11.2704 z"
         style="fill:#a6a6a6;fill-opacity:1;stroke:none;stroke-width:0.26458332px;stroke-linecap:butt;stroke-linejoin:miter;stroke-opacity:1" />
      <path
         id="path1165"
         d="m 4.2086374,24.754879 c 3.9530523,0.08411 7.4014596,3.784838 7.8219956,8.074319 0.420537,4.28948 -3.1119757,8.494855 -8.1584239,8.326641 -5.0464486,-0.168217 -7.2332431,-4.205375 -7.4855653,-7.99021 -0.2523226,-3.784839 2.1867942,-8.158427 7.8219936,-8.41075 z"
         style="fill:#d33232;fill-opacity:1;stroke:none;stroke-width:0.26458332px;stroke-linecap:butt;stroke-linejoin:miter;stroke-opacity:1" />
    </g>
    <g
       transform="rotate(-90,201.14302,-135.74978)"
       id="g1173">
      <path
         style="fill:#a6a6a6;fill-opacity:1;stroke:none;stroke-width:0.26458332px;stroke-linecap:butt;stroke-linejoin:miter;stroke-opacity:1"
         d="m 30.702494,21.222367 c 8.578961,-0.168214 11.102186,6.560383 11.2704,12.111476 0.168217,5.551093 -4.541803,11.102195 -11.2704,10.76575 -6.728598,-0.336423 -11.102187,-5.551087 -10.933972,-11.606826 0.168215,-6.055738 4.878233,-10.765755 10.933972,-11.2704 z"
         id="path1169" />
      <path
         style="fill:#d7d7d7;fill-opacity:1;stroke:none;stroke-width:0.26458332px;stroke-linecap:butt;stroke-linejoin:miter;stroke-opacity:1"
         d="m 30.7866,24.502557 c 3.953052,0.08411 7.401459,3.784838 7.821995,8.074319 0.420537,4.28948 -3.111976,8.494855 -8.158424,8.326641 C 25.403723,40.7353 23.216928,36.698142 22.964606,32.913307 22.712283,29.128468 25.1514,24.75488 30.7866,24.502557 Z"
         id="path1171" />
    </g>
    <path
       id="path1175"
       d="m 384.63911,0.37666049 c 20.21067,0.2041472 33.07199,-8.98251409 33.07199,-35.52176149 0,-26.539248 -0.61243,-43.279388 -1.42904,-55.324123 -0.81659,-12.044736 -5.51199,-31.030506 -43.89184,-31.438806 -38.37982,-0.40829 -110.8524,-1.22488 -133.92113,-0.20414 -23.06872,1.02074 -30.2139,18.78162 -29.60145,39.400571 0.61244,20.618955 -0.20415,37.359095 1.02074,51.649458 1.22489,14.290365 9.18666,31.43880149 29.8056,31.84709855 20.61898,0.40829445 130.65477,0 144.94513,-0.40829706 z"
       style="fill:#1c1c1c;fill-opacity:1;stroke:none;stroke-width:0.26458332px;stroke-linecap:butt;stroke-linejoin:miter;stroke-opacity:1" />
    <path
       id="path1177"
       d="m 219.48334,-43.719319 c 1.02074,18.985767 1.42903,32.255391 25.92681,32.867836 24.49777,0.612444 122.08052,0.612444 137.18748,0.204149 15.10697,-0.408297 23.68116,-7.145184 23.88532,-25.518509 0.20415,-18.373322 0.20415,-41.442055 -0.61243,-52.670198 -0.81659,-11.228139 -6.53275,-21.231399 -30.00976,-21.435549 -23.47703,-0.20415 -116.97684,-0.81659 -132.08381,0 -15.10695,0.8166 -24.08947,8.37007 -24.49776,23.068734 -0.4083,14.69866 -0.20415,32.867838 0.20415,43.483537 z"
       style="fill:#333333;fill-opacity:1;stroke:none;stroke-width:0.26458332px;stroke-linecap:butt;stroke-linejoin:miter;stroke-opacity:1" />
    <path
       id="path1179"
       d="m 153.13522,-121.29558 c 25.31436,1.02074 36.74665,13.06547 36.74665,32.459539 0,19.394066 0.20415,37.767391 -1.83733,56.140717 -2.04148,18.373325 -10.81985,33.07198449 -35.11347,32.86783728 -24.29362,-0.20414985 -117.997577,-0.81659411 -139.228974,-0.81659411 -21.2313985,0 -31.234653,-12.65718017 -32.459542,-34.50102017 -1.224888,-21.843841 1.633185,-47.158201 2.858073,-61.448566 1.224888,-14.290363 13.8820681,-24.497763 43.279388,-24.701913 29.397319,-0.20415 111.873135,-0.20415 125.755205,0 z"
       style="fill:#1c1c1c;fill-opacity:1;stroke:none;stroke-width:0.26458332px;stroke-linecap:butt;stroke-linejoin:miter;stroke-opacity:1" />
    <path
       id="path1181"
       d="m 145.58174,-111.70062 c 21.43555,1.02074 33.48028,4.49126 34.50102,27.968282 1.02074,23.477024 -1.02074,44.504277 -2.44977,55.119974 -1.42904,10.615699 -7.14519,16.740142 -21.2314,17.760881 -14.08622,1.0207409 -125.959354,0.612444 -139.433125,-0.408295 -13.4737713,-1.020741 -21.6396948,-3.878813 -22.0479908,-18.781623 -0.4082963,-14.902807 0.2041481,-52.670198 1.8373324,-63.898342 1.6331845,-11.228137 10.6156999,-16.535997 24.2936184,-17.148437 13.677921,-0.61244 107.790175,-1.42904 124.530315,-0.61244 z"
       style="fill:#333333;fill-opacity:1;stroke:none;stroke-width:0.26458332px;stroke-linecap:butt;stroke-linejoin:miter;stroke-opacity:1" />
    <path
       id="path1237"
       d="m 98.997761,222.9962 c -10.933969,-0.16822 -14.466485,-0.33645 -14.466485,14.63468 0,14.97113 1.00929,15.30758 13.793626,15.4758 12.784338,0.1682 14.971128,-0.33644 15.643988,-14.80293 0.67286,-14.46647 -0.33643,-15.30755 -14.971129,-15.30755 z"
       style="fill:#8d3d2d;fill-opacity:1;stroke:none;stroke-width:0.26458332px;stroke-linecap:butt;stroke-linejoin:miter;stroke-opacity:1" />
    <path
       id="path1188"
       transform="matrix(0.26458333,0,0,0.26458333,-37.827204,-230.74158)"
       d="M 24.507812 1739.7891 C 16.061923 1739.8011 8.4506993 1739.8281 1.7089844 1739.8711 C 1.5950343 1753.477 1.485375 1766.1986 1.3710938 1778.7246 C 146.25413 1780.0888 465.17386 1785.3745 521.9082 1784.7578 C 592.89385 1783.9862 1109.0832 1787.8437 1207.0742 1787.8438 C 1287.5906 1787.8438 1636.9909 1789.679 1804.9395 1789.1523 C 1804.9086 1777.1469 1804.8689 1761.29 1804.8281 1745.8262 C 1763.0585 1745.2693 1713.6935 1744.4511 1683.9121 1743.8633 C 1566.6315 1741.5486 947.82215 1745.4062 842.11523 1745.4062 C 749.62171 1745.4062 253.05976 1740.0902 52.3125 1739.7949 C 42.23426 1739.7799 32.953702 1739.7771 24.507812 1739.7891 z "
       style="fill:#c7c7c7;fill-opacity:1;stroke:none;stroke-width:0.99999994px;stroke-linecap:butt;stroke-linejoin:miter;stroke-opacity:1" />
    <path
       id="path1206"
       d="m 333.98758,118.46519 c 6.64031,0 6.49596,2.74273 6.64031,7.50642 0.14436,4.76369 -0.14435,25.11769 -0.28871,28.5822 -0.14436,3.46451 -1.29918,3.75322 -5.48548,3.89755 -4.18626,0.14436 -20.20961,0.28871 -23.96283,-0.14433 -3.75322,-0.43307 -4.76369,-2.02097 -5.05241,-6.78468 -0.28871,-4.76369 0.14436,-25.55074 0.28872,-29.01524 0.14435,-3.46451 1.44354,-4.04194 4.90805,-4.04194 3.4645,0 16.31205,-0.14434 22.95235,2e-5 z"
       style="fill:#9e362a;fill-opacity:1;stroke:none;stroke-width:0.26458332px;stroke-linecap:butt;stroke-linejoin:miter;stroke-opacity:1" />
    <path
       id="path1214"
       d="m 343.60535,164.71585 c 0,-4.08297 1.6332,-4.89956 8.57422,-5.10371 6.94103,-0.20415 13.67793,-0.20415 18.98576,0.4083 5.30786,0.61244 5.71617,2.24563 6.12445,5.71614 0.4083,3.47052 0.4083,23.68119 0,27.1517 -0.40828,3.47052 0,4.49125 -4.08295,4.89956 -4.08297,0.40828 -22.66045,0 -25.72266,0 -3.06223,0 -4.08297,-2.24563 -4.28712,-5.10371 -0.20413,-2.85808 0,-22.25215 0.4083,-27.96828 z"
       style="fill:#9e362a;fill-opacity:1;stroke:none;stroke-width:0.26458332px;stroke-linecap:butt;stroke-linejoin:miter;stroke-opacity:1" />
    <g
       transform="translate(208.39328,0.47578376)"
       id="g1304">
      <path
         id="path1300"
         d="m 94.287744,281.70322 c 7.401456,0.33642 10.765756,4.87823 11.102186,12.11146 0.33643,7.23326 -4.71002,10.42934 -11.438617,10.59754 -6.728597,0.16822 -10.597541,-6.05573 -10.765755,-11.94324 -0.168217,-5.88753 3.700727,-10.59754 11.102186,-10.76576 z"
         style="fill:#b5b5b5;fill-opacity:1;stroke:none;stroke-width:0.26458332px;stroke-linecap:butt;stroke-linejoin:miter;stroke-opacity:1" />
      <path
         id="path1302"
         d="m 94.45596,285.23572 c 6.22395,0.16822 7.73789,4.37359 7.9061,8.07432 0.16822,3.70073 -3.196082,7.40145 -8.242533,7.7379 -5.046448,0.33641 -7.906102,-4.20537 -7.737887,-7.90612 0.168216,-3.70073 2.691441,-7.73788 8.07432,-7.9061 z"
         style="fill:#767676;fill-opacity:1;stroke:none;stroke-width:0.26458332px;stroke-linecap:butt;stroke-linejoin:miter;stroke-opacity:1" />
    </g>
    <g
       id="g1298">
      <path
         style="fill:#b5b5b5;fill-opacity:1;stroke:none;stroke-width:0.26458332px;stroke-linecap:butt;stroke-linejoin:miter;stroke-opacity:1"
         d="m 94.287744,281.70322 c 7.401456,0.33642 10.765756,4.87823 11.102186,12.11146 0.33643,7.23326 -4.71002,10.42934 -11.438617,10.59754 -6.728597,0.16822 -10.597541,-6.05573 -10.765755,-11.94324 -0.168217,-5.88753 3.700727,-10.59754 11.102186,-10.76576 z"
         id="path1241" />
      <path
         style="fill:#767676;fill-opacity:1;stroke:none;stroke-width:0.26458332px;stroke-linecap:butt;stroke-linejoin:miter;stroke-opacity:1"
         d="m 94.45596,285.23572 c 6.22395,0.16822 7.73789,4.37359 7.9061,8.07432 0.16822,3.70073 -3.196082,7.40145 -8.242533,7.7379 -5.046448,0.33641 -7.906102,-4.20537 -7.737887,-7.90612 0.168216,-3.70073 2.691441,-7.73788 8.07432,-7.9061 z"
         id="path1243" />
    </g>
    <path
       id="path1253"
       d="m 48.436895,283.3163 c 5.114673,0 5.352566,-0.23788 5.82835,4.75785 0.475784,4.99573 0.237892,16.89031 0.118946,20.33973 -0.118946,3.44946 -0.356838,4.8768 -4.638892,4.99573 -4.282054,0.11896 -20.696592,0.59473 -23.313403,-0.11893 -2.616811,-0.71368 -2.8547,-2.02207 -2.973647,-4.99573 -0.118946,-2.97365 -0.118946,-18.43661 0.23789,-20.81553 0.356838,-2.37893 0.832623,-3.68734 3.806272,-3.80627 2.973647,-0.11896 16.771376,-0.35685 20.934484,-0.35685 z"
       style="fill:#551a19;fill-opacity:1;stroke:none;stroke-width:0.26458332px;stroke-linecap:butt;stroke-linejoin:miter;stroke-opacity:1" />
    <path
       id="path1257"
       d="m 33.568653,294.61615 c -5.233622,5.47153 -5.475136,12.35562 5.23362,12.13251 11.418809,-0.2379 9.277784,-8.44517 4.401,-11.77566 -4.876784,-3.33047 -9.63462,-0.35685 -9.63462,-0.35685 z"
       style="fill:#1c1c1c;fill-opacity:1;stroke:none;stroke-width:0.26458332px;stroke-linecap:butt;stroke-linejoin:miter;stroke-opacity:1" />
    <path
       id="path1255"
       d="m 38.088599,296.87615 c -8.445161,-0.23789 -9.515676,-4.51996 -9.515676,-6.1852 0,-1.66523 1.189461,-4.04415 9.39673,-4.16311 8.207269,-0.11895 10.110404,2.73577 10.22935,4.401 0.118946,1.66524 -2.497865,5.70942 -10.110404,5.94731 z"
       style="fill:#7e2a24;fill-opacity:1;stroke:none;stroke-width:0.26458332px;stroke-linecap:butt;stroke-linejoin:miter;stroke-opacity:1" />
    <path
       id="path1268"
       d="m 36.253587,392.72508 c 0.336431,-6.89681 -0.67286,-8.41076 8.915392,-8.74718 9.588251,-0.33644 12.27969,-0.33644 16.148634,0 3.868944,0.33642 5.046448,3.19609 4.71002,11.94327 -0.336431,8.74718 -1.850366,9.08359 -6.392169,9.42004 -4.541803,0.33642 -15.139345,0.33642 -18.503643,0.16819 -3.364299,-0.16819 -4.541803,-0.50464 -4.878234,-12.78432 z"
       style="fill:#6b1d17;fill-opacity:1;stroke:none;stroke-width:0.26458332px;stroke-linecap:butt;stroke-linejoin:miter;stroke-opacity:1" />
    <path
       id="path1270"
       d="m 83.353772,322.24302 c 0.504645,-7.23326 -0.336431,-8.57896 7.233242,-8.41076 7.569674,0.16822 21.026866,-0.33642 27.755466,0 6.7286,0.33644 6.89681,4.54181 7.06503,10.0929 0.16821,5.55109 0.33643,7.7379 -4.71002,8.07432 -5.04645,0.33644 -27.755467,0 -31.960839,0 -4.205375,0 -5.551093,-3.36429 -5.382879,-9.75646 z"
       style="fill:#721616;fill-opacity:1;stroke:none;stroke-width:0.26458332px;stroke-linecap:butt;stroke-linejoin:miter;stroke-opacity:1" />
    <path
       id="path1284"
       d="m 87.222716,395.41653 c 0,-4.87826 0.504645,-5.88754 5.046448,-6.22395 4.541803,-0.33645 20.690436,-0.33645 24.222956,0.16819 3.53251,0.50464 5.21466,1.34573 5.55109,6.72859 0.33643,5.3829 0,9.58827 -0.50465,12.44794 -0.50464,2.85964 -1.34571,4.20536 -6.05573,4.54178 -4.71002,0.33644 -20.354013,0.50464 -23.045452,0.16822 -2.691437,-0.33642 -4.037158,-1.51394 -4.710017,-4.71 -0.67286,-3.19609 -0.336431,-9.08363 -0.504645,-13.12077 z"
       style="fill:#42150f;fill-opacity:1;stroke:none;stroke-width:0.26458332px;stroke-linecap:butt;stroke-linejoin:miter;stroke-opacity:1" />
    <path
       id="path1272"
       d="m 93.614885,331.66306 c -3.364302,-5.88754 -4.037161,-7.06504 -1.177507,-8.24254 2.859656,-1.1775 3.02787,0.67286 6.055738,5.21467 3.027874,4.54179 13.457194,20.18578 13.457194,32.46549 0,12.27968 -5.38288,27.08259 -9.42003,31.79262 -4.037164,4.71001 -7.065032,5.71929 -10.092902,4.20537 -3.027868,-1.51395 -1.513933,-4.37359 0.672862,-6.22395 2.186794,-1.85037 11.10219,-7.40146 11.2704,-20.85867 0.16821,-13.45718 -5.382879,-28.93295 -10.765755,-38.35299 z"
       style="fill:#111111;fill-opacity:1;stroke:none;stroke-width:0.26458332px;stroke-linecap:butt;stroke-linejoin:miter;stroke-opacity:1" />
    <path
       id="path1274"
       d="m 111.95031,331.99948 c 0.16822,-5.71932 2.35501,-7.40146 6.39217,-6.89682 4.03716,0.50464 3.86894,3.19609 3.02787,8.74718 -0.84108,5.55109 -1.85037,12.61613 6.05574,26.24153 7.9061,13.62541 12.61612,20.52222 9.42004,23.55009 -3.19609,3.02789 -7.40146,1.34572 -12.2797,4.71003 -4.87823,3.36429 -5.88752,6.22396 -8.41074,8.74718 -2.52323,2.52323 -5.71931,0.84108 -7.23325,-1.68214 -1.51393,-2.52323 -3.02786,-4.54181 1.17751,-6.72862 4.20537,-2.18678 9.25182,-7.06501 13.62541,-8.07432 4.37359,-1.00927 4.87823,-2.01855 1.85036,-7.90609 -3.02786,-5.88753 -9.75646,-19.34472 -11.60683,-28.0919 -1.85036,-8.74717 -2.18679,-8.41076 -2.01858,-12.61612 z"
       style="fill:#111111;fill-opacity:1;stroke:none;stroke-width:0.26458332px;stroke-linecap:butt;stroke-linejoin:miter;stroke-opacity:1" />
    <path
       id="path1276"
       transform="matrix(0.26458333,0,0,0.26458333,-27.331664,-220.45848)"
       d="m 457.81445,2054.3008 c -1.44958,0.038 -3.118,0.4702 -5.14453,1.3047 -10.80814,4.4504 -8.2643,8.9002 4.45117,31.1523 3.708,6.489 7.43722,13.7455 11.05274,21.5703 8.09966,-5.3622 14.88261,-8.7997 21.57617,-10.7617 -5.88572,-9.7589 -11.08293,-17.5893 -14.19141,-22.2519 -9.29817,-13.9473 -11.46262,-21.1792 -17.74414,-21.0137 z m 87.37305,7.3476 c -11.81271,0.2347 -18.21126,7.4666 -18.76758,26.3809 -0.16459,4.1149 -0.19825,7.0757 -0.041,9.7832 11.99356,2.0436 25.05013,4.9538 34.32812,6.8691 0.38474,-3.3739 0.85136,-6.5889 1.31641,-9.6582 3.17884,-20.9805 3.8152,-31.1532 -11.44336,-33.0605 -1.90732,-0.2384 -3.70505,-0.348 -5.39258,-0.3145 z"
       style="fill:#4f4f4f;fill-opacity:1;stroke:none;stroke-width:0.99999994px;stroke-linecap:butt;stroke-linejoin:miter;stroke-opacity:1" />
    <path
       id="path1286"
       transform="matrix(0.26458333,0,0,0.26458333,-27.331664,-220.45848)"
       d="m 546.30469,2284.4219 c -9.28416,6.3666 -18.52089,13.5171 -26.87891,17.8633 -15.89431,8.2651 -10.17116,15.895 -4.44922,25.4316 5.72198,9.5366 17.80128,15.894 27.33789,6.3574 6.98105,-6.981 10.91867,-14.6469 19.74805,-23.2402 -12.98472,-4.1989 -16.52814,-15.4113 -15.75781,-26.4121 z m -91.61914,26.5996 c -7.97042,6.9996 -13.21073,17.4551 -2.01563,23.0527 7.9548,3.9774 15.91242,3.3308 25.14844,-3.4023 -8.90409,-1.8131 -16.77429,-8.9021 -23.13281,-19.6504 z"
       style="fill:#4f4f4f;fill-opacity:1;stroke:none;stroke-width:0.99999994px;stroke-linecap:butt;stroke-linejoin:miter;stroke-opacity:1" />
    <path
       id="path1306"
       d="m 314.81755,321.40194 c 0.33642,7.23325 1.1775,10.59754 -3.86895,10.93398 -5.04645,0.33642 -24.55939,0.50464 -31.79262,0.50464 -7.23326,0 -9.25182,-2.355 -9.42004,-9.25182 -0.16822,-6.89681 -0.67286,-10.26112 5.04645,-10.59754 5.71931,-0.33644 29.2694,-0.33644 34.14763,0 4.87822,0.33642 5.55109,2.69142 5.88753,8.41074 z"
       style="fill:#721616;fill-opacity:1;stroke:none;stroke-width:0.26458332px;stroke-linecap:butt;stroke-linejoin:miter;stroke-opacity:1" />
    <path
       id="path1308"
       d="m 271.41808,329.13983 c 3.36431,-5.38289 4.54181,-6.56039 7.56967,-5.21467 3.02787,1.34572 3.86895,3.53251 1.00928,7.56968 -2.85964,4.03717 -10.42931,20.01758 -8.91537,30.27868 1.51392,10.26112 3.53251,14.97113 9.42004,19.0083 5.88751,4.03717 8.91537,10.0929 9.58824,13.96185 0.67286,3.86892 1.0093,7.56967 -3.02787,7.40145 -4.03714,-0.16822 -4.20537,-1.34572 -4.37359,-5.38289 -0.16822,-4.03715 -5.21467,-10.42932 -11.10218,-13.96183 -5.88753,-3.53253 -7.56968,-12.95254 -7.90609,-21.53152 -0.33645,-8.57896 4.71,-25.56868 7.73787,-32.12905 z"
       style="fill:#111111;fill-opacity:1;stroke:none;stroke-width:0.26458332px;stroke-linecap:butt;stroke-linejoin:miter;stroke-opacity:1" />
    <path
       id="path1310"
       d="m 298.33247,332.67234 c 2.01859,-6.56037 2.01859,-7.73787 5.21468,-7.23323 3.19608,0.50464 2.01856,4.87823 0.50464,10.76573 -1.51395,5.88754 -8.57896,25.40048 -7.9061,40.20339 0.67284,14.80291 2.35501,15.64399 5.04643,19.0083 2.69144,3.36428 6.39217,6.89681 5.21467,8.57896 -1.1775,1.68214 -3.19609,3.70072 -5.21467,1.85036 -2.01856,-1.85036 -6.39215,-6.39218 -8.74718,-13.96185 -2.355,-7.56968 -2.5232,-18.50364 -1.3457,-28.0919 1.1775,-9.58823 5.71929,-25.73689 7.23323,-31.11976 z"
       style="fill:#111111;fill-opacity:1;stroke:none;stroke-width:0.26458332px;stroke-linecap:butt;stroke-linejoin:miter;stroke-opacity:1" />
    <path
       id="path1312"
       transform="matrix(0.26458333,0,0,0.26458333,-27.331664,-220.45848)"
       d="m 1150.2324,2055.5859 c -6.6756,0.06 -11.563,6.3782 -21.0996,21.6368 -2.6302,5.6988 -5.667,13.5403 -8.7637,22.539 11.5892,1.1162 21.9876,3.2531 29.8028,6.7988 4.3975,-9.1501 8.5186,-16.3911 11.3847,-20.4375 10.8082,-15.2585 7.6295,-23.5231 -3.8144,-28.6093 -2.861,-1.2716 -5.2846,-1.9476 -7.5098,-1.9278 z m 96.3301,7.2598 c -8.1968,-0.087 -9.0294,6.0309 -15.7051,27.7266 -0.1299,0.4619 -0.3371,1.2058 -0.4785,1.7089 8.2113,-1.1233 17.3443,-0.832 24.791,0.959 4.0448,-16.6984 5.4443,-28.4193 -4.6035,-30.0058 -1.51,-0.2384 -2.8329,-0.3763 -4.0039,-0.3887 z"
       style="fill:#4f4f4f;fill-opacity:1;stroke:none;stroke-width:0.99999994px;stroke-linecap:butt;stroke-linejoin:miter;stroke-opacity:1" />
    <path
       id="path1320"
       transform="matrix(0.26458333,0,0,0.26458333,-27.331664,-220.45848)"
       d="m 1195.3008,2311.0449 c -4.28,4.3728 -15.4251,8.28 -27.2696,8.9453 2.2275,4.6222 3.5402,8.9958 3.6993,12.8125 0.6358,15.2586 1.2708,19.7099 16.5293,20.3457 15.2586,0.6358 13.9864,-13.3519 11.4433,-27.9746 -0.7234,-4.1594 -2.1948,-8.9977 -4.4023,-14.1289 z m 56.0996,28.2852 c -2.9446,7.7605 -12.2061,14.2703 -19.4668,17.6582 3.8055,4.4848 7.2438,7.867 9.7305,10.1465 7.6292,6.9935 15.2586,-0.6365 19.7089,-6.9942 3.0885,-4.4121 -2.7391,-12.2122 -9.9726,-20.8105 z"
       style="fill:#4f4f4f;fill-opacity:1;stroke:none;stroke-width:0.99999994px;stroke-linecap:butt;stroke-linejoin:miter;stroke-opacity:1" />
    <path
       id="path1347"
       d="m 349.25114,398.57491 c 0.23791,-7.85042 0.35684,-8.68304 7.13676,-8.68304 6.77993,0 12.1325,0 15.70088,0.23789 3.56836,0.23788 4.51993,2.73574 4.87677,9.8725 0.35685,7.13677 -0.11895,8.68304 -4.40099,9.03989 -4.28205,0.35684 -16.0577,0.71368 -19.15031,0.4758 -3.09258,-0.23792 -4.04415,-2.37892 -4.16311,-10.94304 z"
       style="fill:#6b1d17;fill-opacity:1;stroke:none;stroke-width:0.26458332px;stroke-linecap:butt;stroke-linejoin:miter;stroke-opacity:1" />
    <path
       id="path1360"
       transform="matrix(0.26458333,0,0,0.26458333,-27.331664,-220.45848)"
       d="m 859.55664,2280.9863 c -15.73458,-0.2247 -31.46871,3.3709 -52.14844,11.4629 -38.68229,15.1366 -335.30679,104.1988 -513.30859,167.1563 29.49879,0.248 59.5689,0.5269 88.63672,0.9883 80.10739,1.2715 802.34457,1.2714 865.92187,1.2714 23.7776,0 79.3269,-0.3866 139.0273,-0.832 -104.5114,-42.2228 -438.75434,-155.6365 -475.97847,-168.584 -20.67972,-7.1929 -36.41581,-11.2381 -52.15039,-11.4629 z"
       style="fill:#9a8f7f;fill-opacity:1;stroke:none;stroke-width:0.99999994px;stroke-linecap:butt;stroke-linejoin:miter;stroke-opacity:1" />
    <path
       id="path1334"
       transform="matrix(0.26458333,0,0,0.26458333,-27.331664,-220.45848)"
       d="m 1445.0645,1907.4336 c -9.1567,0.067 -19.0254,2.5801 -19.0254,2.5801 -3.8146,33.0601 1.9071,97.9092 2.5429,136.6914 0.2128,12.9763 0.1557,31.7616 0.3868,44.6836 0.6076,33.9873 1.2365,57.6259 -7.3809,81.1992 -10.9098,29.8444 -67.3919,129.0617 -81.3789,166.5723 -13.987,37.5106 -24.7943,123.3408 24.1601,141.1425 48.9546,17.8016 74.3861,-14.6239 89.6446,-57.2207 15.2586,-42.5968 26.7014,-118.2529 20.3437,-200.2675 -6.3578,-82.0147 -14.6221,-291.1848 -13.9863,-306.4434 0.298,-7.1525 -7.2273,-8.9969 -15.3066,-8.9375 z m -2.0137,295.1797 c 2.559,-0.3122 2.1982,12.5397 3.1816,33.1914 1.7982,37.763 4.4951,113.2897 -12.1386,161.3926 -16.6338,48.1029 -33.7162,62.0389 -55.295,57.0937 -21.5788,-4.9451 -32.8188,-34.1665 -22.0293,-80.0215 10.7894,-45.8551 62.4893,-119.1321 71.4805,-140.7109 8.5557,-21.3892 12.6805,-30.6867 14.8008,-30.9453 z"
       style="fill:#111111;fill-opacity:1;stroke:none;stroke-width:0.99999994px;stroke-linecap:butt;stroke-linejoin:miter;stroke-opacity:1" />
    <path
       id="path1332"
       d="m 357.37591,287.75895 c -9.58823,-0.67286 -9.75646,-1.68214 -9.75646,-3.86895 0,-2.18678 1.85037,-2.69142 8.74718,-2.85964 6.89682,-0.16823 9.0836,0.16822 9.25182,2.01858 0.16822,1.85037 -0.50464,4.87823 -8.24254,4.71001 z"
       style="fill:#7e2a24;fill-opacity:1;stroke:none;stroke-width:0.26458332px;stroke-linecap:butt;stroke-linejoin:miter;stroke-opacity:1" />
    <path
       id="path1336"
       transform="matrix(0.26458333,0,0,0.26458333,-27.331664,-220.45848)"
       d="m 1445.0645,1907.4336 c -9.1567,0.067 -19.0254,2.5801 -19.0254,2.5801 -3.6207,31.3792 1.3419,91.3547 2.4004,130.539 13.8301,-3.2465 24.9999,-3.0822 36.0429,-2.3027 -2.6272,-61.6526 -4.4183,-114.5104 -4.1113,-121.8789 0.298,-7.1525 -7.2273,-8.9969 -15.3066,-8.9375 z"
       style="fill:#4f4f4f;fill-opacity:1;stroke:none;stroke-width:0.99999994px;stroke-linecap:butt;stroke-linejoin:miter;stroke-opacity:1" />
    <path
       id="path1210"
       d="m 321.14003,144.59333 c 0.86614,11.40402 3.75322,32.47977 -9.38302,53.12246 -13.13627,20.64269 -29.30398,43.59505 -24.68462,66.69177 4.61933,23.0967 25.69509,42.72892 49.94664,42.15152 24.25155,-0.57743 51.3902,-14.72417 51.67889,-44.17248 0.28871,-29.44831 -12.41446,-50.81278 -16.45639,-59.76276 -4.04194,-8.94998 -3.32016,-8.80563 -4.1863,-10.82659 -0.86611,-2.02094 0.28872,-4.33062 2.16533,-6.20723 1.87661,-1.87661 3.03144,-4.33065 2.30968,-7.79516 -0.72178,-3.46451 -6.92902,-9.23867 -14.00239,-9.09431 -7.07337,0.14436 -10.24916,2.88708 -9.23869,9.96045 1.0105,7.07337 7.07337,10.82659 9.52741,11.83706 2.45401,1.0105 3.32015,4.18629 6.20723,11.83706 2.88708,7.6508 11.04109,20.35877 14.9199,39.34455 3.87882,18.98576 2.44978,38.58398 -13.06546,48.99552 -15.51525,10.41156 -43.68769,14.08623 -61.65271,-4.69541 -17.96505,-18.7816 -12.86134,-45.11672 -2.44978,-61.2444 10.41154,-16.1277 19.39407,-27.1517 22.66043,-43.07525 3.26636,-15.92355 6.12444,-32.25538 8.37007,-37.15493 2.24562,-4.89956 -12.66622,0.0881 -12.66622,0.0881 z"
       style="fill:#2c2c2c;fill-opacity:1;stroke:none;stroke-width:0.26458332px;stroke-linecap:butt;stroke-linejoin:miter;stroke-opacity:1" />
    <path
       id="path1367"
       d="m 190.67491,292.63718 c 20.18579,-0.33642 32.6337,15.47577 33.30656,31.96084 0.67286,16.48508 -4.03716,27.92368 -31.28798,26.9144 -27.25082,-1.00928 -29.94226,-10.0929 -30.27869,-25.23226 -0.33643,-15.13932 0.33643,-33.30654 28.26011,-33.64298 z"
       style="fill:#121212;fill-opacity:1;stroke:none;stroke-width:0.26458332px;stroke-linecap:butt;stroke-linejoin:miter;stroke-opacity:1" />
    <path
       id="path1376"
       d="m -13.771828,134.396 c 0.475783,-6.66097 2.378919,-5.70942 7.3746477,-6.18519 4.9957291,-0.47578 32.5911843,-0.47578 37.8248063,-0.23789 5.23362,0.23789 6.185189,1.66524 6.423081,9.03989 0.237892,7.37465 0.713674,22.59973 0,27.59546 -0.713677,4.99573 -6.423081,20.69658 -24.740753,20.69658 -18.3176748,0 -26.881782,-9.51566 -27.119674,-22.59973 -0.237892,-13.08404 -0.475784,-20.69658 0.237892,-28.30912 z"
       style="fill:#9f3229;fill-opacity:1;stroke:none;stroke-width:0.26458332px;stroke-linecap:butt;stroke-linejoin:miter;stroke-opacity:1" />
    <path
       id="path1208"
       d="m 325.47068,124.095 c -10.97095,0.57743 -12.234,7.65215 -12.12577,11.98142 0.14435,5.77419 7.21772,10.82659 14.14674,11.11531 6.92901,0.28871 11.83706,-6.06291 11.54835,-11.40402 -0.28872,-5.34109 -4.47498,-11.25964 -13.56932,-11.69271 z"
       style="fill:#b6563d;fill-opacity:1;stroke:none;stroke-width:0.26458332px;stroke-linecap:butt;stroke-linejoin:miter;stroke-opacity:1" />
    <path
       id="path1212"
       d="m 362.79527,177.57716 c 10.41156,-0.40828 12.24888,-3.67466 12.04473,-7.96176 -0.20413,-4.28712 -5.30783,-8.37007 -14.69866,-7.96176 -9.39081,0.40828 -11.024,4.89953 -10.41154,8.16591 0.61243,3.26636 3.47051,7.14518 13.06547,7.75761 z"
       style="fill:#b6563d;fill-opacity:1;stroke:none;stroke-width:0.26458332px;stroke-linecap:butt;stroke-linejoin:miter;stroke-opacity:1" />
  </g>
</svg>
