<svg xmlns="http://www.w3.org/2000/svg" width="1804.636" height="2524.15" viewBox="0 0 477.476 667.848"><path d="M5.113 500.165c.336 25.569 1.345 115.396 2.018 124.143.673 8.747 2.019 11.775 14.467 22.204 12.448 10.43 16.821 13.794 30.951 14.13 14.13.337 38.017.337 59.212.673s212.287.336 229.109.336c16.821 0 89.826-.672 100.256-.672 10.43 0 14.466-1.346 22.204-8.411 7.738-7.065 7.738-9.757 7.738-25.569s-.476-123.945-.812-128.992c-.337-5.046-465.143 2.158-465.143 2.158z" fill="#9b8d78"/><path d="M443.348 496.523l-164.045 148.98 51.137 4.374 12.448-20.186 127.516-123.882c-.051-4.21-.101-7.095-.148-7.802-.05-.735-10.012-1.209-26.908-1.484zm-323.139 2.033c-18.907.244-36.038.474-51.382.687l16.692 3.614 136.255 128.852 40.035-8.074 127.843-121.788-50.464 2.019-97.229 112.367-49.455-47.773zm-87.624 1.201c-16.806.245-27.473.408-27.473.408.025 1.871.075 5.973.106 8.475l152.97 144.264 24.56-18.84zm438.123 45.088L347.506 661.63c9.304-.04 24.033-.148 39.273-.265l84.131-78.377c-.057-12.46-.127-25.627-.202-38.142zM5.715 547.837c.186 14.249.394 29.15.604 42.085l73.762 71.061c8.888.072 18.36.149 27.527.275l9.872-5.999z" fill="#871b1b"/><path d="M419.594 524.556c.673 11.775 5.047 32.802 6.392 47.773 1.346 14.971.505 26.578-10.092 37.344-10.598 10.766-12.953 11.943-15.308 13.625-2.355 1.683 2.523 4.038 9.588 0 7.065-4.037 25.569-17.157 35.494-33.81 9.924-16.654 6.392-29.775 4.037-39.363-2.355-9.588-.841-26.073-.673-29.606.168-3.532-6.729-9.252-6.56 1.514.168 10.766 2.355 24.223 3.7 31.793 1.346 7.57 2.692 23.045-5.046 34.988-7.738 11.944-10.43 13.458-13.457 16.149-3.028 2.691-4.71 3.028-1.178-5.046 3.533-8.075 4.71-13.29 3.028-28.092-1.682-14.803-3.869-23.55-4.542-32.298-.673-8.747.337-15.307.505-19.008.168-3.7-5.888 4.037-5.888 4.037z" fill="#111"/><path d="M446.112 516.056l-2.071.08c-.942.668-1.624 2.424-1.57 5.897.05 3.104.269 6.43.584 9.776 1.868.094 3.864.023 5.405-.249.141-5.116.495-9.43.572-11.04.078-1.64-1.366-3.75-2.92-4.464zm-21.111 3.462c-1.409-.07-5.407 5.038-5.407 5.038.144 2.525.465 5.493.884 8.718 1.596-.42 3.03-.66 4.28-.796.065-5.263.604-9.334.724-11.959.031-.694-.156-.985-.481-1.001z" fill="#4f4f4f"/><path d="M416.735 505.548c-.169 12.953 0 17.158.336 19.176.337 2.02 2.523 1.683 5.215 1.85 2.691.17 4.037-.504 4.037-3.532s.841-4.037 7.233-4.037c6.392 0 7.233-.336 7.402 2.86.168 3.196 2.018 4.71 6.224 4.542 4.205-.169 5.214-1.178 5.382-8.58.169-7.4.505-11.438 1.01-15.307.504-3.869-36.84 3.028-36.84 3.028z" fill="#721616"/><path d="M374.47 502.877v52.574c0 2.855.476 5.234 4.996 5.71 4.52.475 22.124.475 27.833 0 5.71-.476 5.947-3.331 6.423-7.137.476-3.807-.476-51.385-.476-53.526 0-2.141-38.776 2.379-38.776 2.379z" fill="#772017"/><path d="M316.647 632.046c0-8.748 3.7-8.075 16.148-7.402 12.448.673 17.495 4.71 16.485 14.803-1.009 10.093-3.364 9.757-17.494 8.41-14.13-1.345-15.14-3.7-15.14-15.811z" fill="#42150f"/><path d="M24.29 524.22c-.169 12.448-3.702 30.11-1.851 42.558 1.85 12.448 8.579 23.887 19.176 29.942 10.598 6.056 26.074 8.243 31.288 14.972 5.215 6.728 5.383 5.382 7.234 7.401 1.85 2.019 17.999 3.364 20.017-1.177 2.019-4.542 3.87-11.607.673-20.523-3.196-8.915-13.962-14.634-25.064-21.868-11.102-7.233-18.335-22.877-18.335-22.877l-3.87-30.447s-1.177-6.897-3.7-.336c-2.523 6.56-3.364 13.289.168 25.737 3.533 12.448 7.906 19.008 20.69 29.437 12.785 10.43 26.41 12.28 27.083 25.737.673 13.457.168 16.149-4.037 16.99-4.205.841-6.56-.841-9.925-3.028-3.364-2.187-7.233-10.934-19.85-15.14-12.615-4.205-32.128-13.625-35.492-26.409-3.365-12.784 1.682-48.614 1.682-51.642 0-3.028-5.888.673-5.888.673z" fill="#111"/><path d="M114.454 27.569c-.238-6.423-1.19-10.943 7.613-13.798 8.802-2.854 32.353-8.802 43.058-11.18C175.83.21 183.205.21 193.91.21c10.705 0 100.39-.475 110.62 0 10.23.476 32.829 9.278 40.68 13.56 7.85 4.282-91.351 13.56-91.351 13.56l-88.02 4.758z" fill="#1e1e1e"/><path d="M306.67 502.401c.239 8.564-.237 9.278 6.662 16.177 6.899 6.899 8.326 9.04 8.564 16.414.238 7.375-.238 7.85 15.7 7.85 15.94 0 18.794-.475 18.794-5.946 0-5.472-.238-29.261-.238-32.592 0-3.33-49.481-1.903-49.481-1.903z" fill="#7e1818"/><path d="M196.878 583.936c17.83 19.85 35.998 31.625 37.68 33.98 1.682 2.355 2.018 4.037 8.074-1.346s34.652-30.615 35.998-33.98c1.346-3.364-81.752 1.346-81.752 1.346z" fill="#0f0f0f"/><path d="M180.73 504.202c-.337 25.569-1.347 69.305-.674 74.688.673 5.383 1.346 7.065 7.738 7.065s91.173-.337 96.555-.673c5.383-.337 7.402 0 8.075-13.794.673-13.793.336-70.65.336-75.36 0-4.71-112.03 8.074-112.03 8.074z" fill="#741c16"/><path d="M17.039 94.014C1.73 109.133.219 109.133.597 129.544c.378 20.41.944 89.958.756 108.29-.19 18.332-.756 131.725-.567 150.056C.975 406.222.219 494.102.03 499.015c-.19 4.914.378 4.914 6.236 5.103 5.859.19 219.226 2.646 247.197 2.457 27.97-.19 196.945 1.42 209.796 1.043 12.851-.378 14.363-3.213 14.363-8.883 0-5.67-.397-144.107-.397-166.407 0-22.3.566-149.3 0-172.735-.567-23.435-.378-30.427-.567-39.31-.19-8.882-5.103-12.095-13.608-19.843-8.504-7.749-45.168-44.602-62.177-60.855s-17.387-18.143-27.214-22.3c-9.827-4.158-19.466-6.237-44.601-6.804-25.136-.567-44.223.19-54.24.945-10.016.756-12.473 4.914-15.497 7.938-3.024 3.023-5.858 4.157-15.308 4.535-9.45.378-139.095.756-148.733.756-9.639 0-11.529 2.646-19.277 10.017-7.749 7.37-53.484 53.294-58.964 59.342z" fill="#d69b1c"/><path d="M311.387 10.283c-16.442.01-29.056.576-36.569 1.143-10.016.756-12.473 4.914-15.497 7.938-3.024 3.024-5.859 4.157-15.308 4.535-9.45.378-139.095.756-148.733.756-9.639 0-11.529 2.646-19.277 10.017-7.749 7.37-53.484 53.294-58.965 59.342-2.557 2.526-4.7 4.606-6.542 6.453 32.319.197 204.396.566 231.25 1.106 26.738.539 199.02.896 223.599.932a310.788 310.788 0 01-2.295-2.066c-8.504-7.748-45.168-44.6-62.177-60.854-17.009-16.253-17.387-18.142-27.214-22.3-9.827-4.158-19.466-6.237-44.601-6.804-6.284-.142-12.19-.2-17.67-.198z" fill="#ce9018"/><path d="M82.595 80.466c.133-11.493 8.152-17.64 18.842-17.773 10.691-.134 48.376.534 59.735.668 11.359.133 20.179 6.414 20.179 16.57 0 10.157-4.143 18.041-15.502 18.308-11.359.268-54.79.401-65.347-.4-10.557-.802-17.907-7.217-17.907-17.373z" fill="#121212"/><path d="M87.005 81.134c.267-6.949 4.677-13.497 13.898-13.764 9.22-.267 54.656-.267 63.075.534 8.42.802 11.76 4.277 12.295 12.027.534 7.751-3.074 13.631-11.626 14.166-8.553.534-55.459.802-63.343-.134-7.885-.935-14.032-5.88-14.3-12.829z" fill="#1b1b1b"/><path d="M294.851 80.974c-.189-12.851 6.426-16.064 17.576-16.442 11.15-.378 49.893-1.134 61.232-.378 11.34.756 20.41 5.67 20.222 17.387-.19 11.717-6.237 17.198-17.576 17.765-11.34.567-53.484.567-62.933.378-9.45-.19-18.143-7.182-18.521-18.71z" fill="#121212"/><path d="M299.198 80.785c.567-8.505 4.157-11.907 13.985-12.284 9.827-.378 51.783-.756 59.91-.378 8.126.378 15.307 4.157 15.496 12.85.19 8.694-4.536 13.23-12.473 13.797-7.938.567-55.563.756-63.122.189-7.56-.567-13.796-4.914-13.796-14.174z" fill="#1b1b1b"/><path d="M333.986 15.612c-17.973-.005-46.706.964-58.223 2.807-14.174 2.267-13.418 12.851-13.23 26.08-.188 5.292-.377 10.205-.377 13.796 0 3.591 2.08 3.78 7.37 3.78 5.292 0 31.373 0 49.516-.19 15.708-.163 78.243.097 104.328-.32-7.139-7.044-14.023-13.81-19.488-19.087-.53.505-1.044.887-1.497 1.076-2.268.945-.756 2.835-17.198-10.016-16.442-12.852-26.647-17.198-40.82-17.765-2.659-.107-6.234-.16-10.381-.16z" fill="#976515"/><path d="M300.791 35.068c-9.171-.21-12.884 4.431-13.102 11.604-.218 7.174 2.62 11.394 12.01 11.605 9.39.21 11.793-5.275 11.574-11.816-.218-6.54-5.24-11.393-10.482-11.393z" fill="#704f17"/><path d="M238.814 26.611c19.377-.133 20.446 5.078 21.114 17.64.668 12.562.668 35.547.134 43.03-.535 7.484-4.276 13.097-21.382 12.963-17.105-.134-21.515-3.34-23.386-15.234-1.87-11.894-.802-39.022 0-46.104.802-7.083 4.01-12.028 23.52-12.295z" fill="#af781d"/><path d="M275.574 52.437c10.584-.19 18.71-6.804 18.899-18.9.189-12.095-7.56-18.71-18.71-18.52-11.15.189-17.765 10.394-18.332 18.899-.567 8.504 9.26 18.52 18.143 18.52z" fill="#674214"/><path d="M342.854 35.995c-7.938-.19-11.15 3.968-11.34 10.394-.188 6.426 2.269 10.205 10.395 10.394 8.127.19 10.205-4.724 10.016-10.583-.189-5.859-4.535-10.205-9.071-10.205z" fill="#704f17"/><path d="M300.407 50.507c2.746-.115 3.53-1.848 3.465-3.061-.065-1.213-1.176-3.12-2.746-3.177-1.569-.058-3.268.635-3.334 2.946-.065 2.31 1.242 3.061 2.615 3.292z" fill="#372210"/><path d="M297.119 33.538c.756-13.796 10.394-21.545 21.922-21.545 11.529 0 22.112 6.237 22.301 20.033.19 13.796-9.26 23.812-20.033 23.812-10.772 0-23.434-7.37-24.19-22.3zM347.2 32.782c.19-12.284 8.505-16.064 17.766-16.064 9.26 0 16.064 8.882 15.875 16.064-.19 7.181-4.158 17.387-15.497 17.576-11.34.189-18.143-7.56-18.143-17.576z" fill="#674214"/><path d="M320.459 38.357c3.969-.19 5.103-3.024 5.008-5.008-.094-1.985-1.7-5.103-3.969-5.197-2.268-.095-4.724 1.039-4.819 4.819-.094 3.78 1.796 5.008 3.78 5.386zM277.086 38.223c4.452-.189 5.723-3.024 5.617-5.008-.106-1.984-1.907-5.103-4.45-5.197-2.544-.095-5.3 1.04-5.406 4.82-.106 3.779 2.014 5.007 4.24 5.385zM365.155 38.034c4.451-.189 5.723-3.024 5.617-5.008-.106-1.984-1.908-5.103-4.451-5.197-2.544-.095-5.3 1.04-5.405 4.82-.106 3.779 2.013 5.007 4.239 5.385zM341.607 49.185c2.746-.116 3.53-1.849 3.465-3.062-.066-1.213-1.177-3.12-2.746-3.177-1.57-.058-3.269.635-3.334 2.946-.066 2.31 1.242 3.062 2.615 3.293z" fill="#372210"/><path d="M238.146 31.422c10.557.134 14.7 7.083 14.833 14.967.134 7.885-6.053 14.638-13.937 14.772-7.884.133-15.016-5.496-15.417-14.85-.4-9.355 5.3-14.755 14.52-14.889z" fill="#9b7632"/><path d="M225.398 45.35c.567 9.921 7.37 13.89 12.757 14.08 5.386.188 12.473-3.78 12.85-12.852.379-9.072-4.913-13.23-12.567-13.23s-12.851 4.82-13.04 12.001z" fill="#e3e3e3"/><path d="M253.149 81.54c-.71 10.534-7.874 14.292-15.754 13.996-7.88-.297-14.286-6.842-13.99-14.722.297-7.88 6.306-14.694 15.669-14.584 9.362.11 14.444 6.096 14.075 15.31z" fill="#9b7632"/><path d="M239.937 68.052c-9.938.025-14.272 6.602-14.754 11.97-.482 5.368 3.094 12.66 12.131 13.533 9.038.872 13.478-4.185 13.895-11.828.417-7.643-4.111-13.095-11.272-13.675z" fill="#e3e3e3"/><path d="M1.384 231.357a852.35 852.35 0 01-.032 6.477c-.129 12.517-.429 68.941-.55 109.574l359.609 1.077 116.78-10.17c.021-2.437.034-4.502.034-5.987 0-12.556.175-58.157.23-99.922z" fill="#c7901a"/><path d="M477.408 259.23c-37.514 16.514-127.093 51.844-130.176 53.214-3.212 1.428-5.829 1.547-9.754 1.547s-194-1.903-200.186-2.141c-6.185-.238-8.089-1.666-13.322-3.33-4.628-1.473-96.048-38.629-122.772-48.703-.067 11.197-.139 24.83-.208 39.642L120.4 350.39l233.61 3.805 123.303-58.429c.032-11.078.064-23.572.094-36.535z" fill="#c7c7c7"/><path d="M116.64 503.193c-.505 12.111-.505 31.456-.169 34.82.336 3.365 1.346 3.533 4.542 3.87 3.196.336 22.204.336 26.073 0 3.869-.337 4.878-1.346 5.215-5.047.336-3.7-1.178-13.289 2.86-15.476 4.037-2.187 10.597-11.27 10.429-17.999-.168-6.728-48.95-.168-48.95-.168z" fill="#7e1818"/><path d="M51.834 519.036c-.53.043-1.187.779-1.976 2.829-1.283 3.335-2.129 6.715-2.189 10.867 2.305-.105 4.885-.23 7.18-.37l-1.29-10.16s-.557-3.26-1.725-3.166zm-22.792 3.32c-1.711-.048-4.753 1.864-4.753 1.864-.035 2.567-.216 5.364-.46 8.283 1.853.337 3.771.59 5.39.73.525-5.082.958-8.803.958-9.686 0-.852-.466-1.171-1.135-1.19z" fill="#4f4f4f"/><path d="M18.57 516.146c2.187-.169 3.196 2.018 3.532 5.887.337 3.869 1.346 4.205 5.047 4.205 3.7 0 5.214-2.523 5.214-5.214 0-2.692.673-4.374 5.72-4.542 5.046-.168 7.401 1.346 7.401 4.71s1.178 4.374 4.878 4.542c3.701.168 5.047-3.365 5.047-3.365v-20.69l-37.512.168z" fill="#721616"/><path d="M51.13 498.625c-6.5-.027-16.596 1.347-24.274 2.567 9.23-1.005 26.658-2.528 26.535.319-.169 3.869-1.346 23.213-1.515 30.783-.168 7.57 1.178 19.681 5.383 24.055 4.205 4.374 3.701 7.738-2.186 7.906-5.888.168-25.401.673-31.793.673-6.392 0-4.374-8.915-4.374-20.018 0-11.007 1.323-32.582 2.329-42.787-3.024.524-5.02.902-5.02.902-.673 18.335-.168 118.086 0 123.638.168 5.55 0 6.055 5.383 6.055s36.839-.673 41.549-1.177c4.71-.505 3.7-3.364 3.7-5.888 0-2.523-.504-53.997-.84-60.389-.337-6.392-3.701-11.27-6.225-14.466-2.523-3.196-3.195-7.57-3.364-15.476-.168-7.906 1.178-29.437 1.178-34.82 0-1.346-2.587-1.861-6.466-1.877zm2.22 69.963c1.04.006 1.912.02 2.563.04 5.215.169 6.393 1.178 6.897 7.57.505 6.393 1.01 37.344.673 43.4-.336 6.056-1.345 7.57-6.728 7.906-5.383.336-25.737 1.01-30.448.841-4.71-.168-7.4-1.85-7.4-8.243 0-6.392-.169-36.334 0-42.894.168-6.393.672-7.738 6.56-8.075 5.151-.294 20.606-.589 27.883-.545z" fill="#921c1c"/><path d="M.71 424.056C.62 439.753.488 456.91.357 471.218l-.023 2.43c-.051 5.523-.1 10.227-.145 14.232-.016 1.45-.033 2.988-.048 4.184-.015 1.193-.03 2.356-.043 3.262l-.015 1.068c-.02 1.261-.04 2.249-.054 2.622-.07 1.842-.035 2.994.346 3.723a1.704 1.704 0 00.673.712c.237.142.524.249.868.332.086.02.176.04.27.058.374.07.809.12 1.313.157.252.019.521.034.81.048.575.028 1.225.048 1.957.072 4.394.142 125.512 1.56 197.596 2.18 12.014.103 22.666.184 31.189.233 8.522.05 14.915.067 18.412.044 24.3-.164 157.958 1.028 201.076 1.096 4.178-.002 7.422-.015 8.72-.053 12.851-.378 14.364-3.213 14.364-8.883 0-2.697-.095-37.237-.19-73.231L.71 424.056z" fill="#842121"/><path d="M125.891 430.86c-12.953 1.01-13.625 0-13.962 19.513-.336 19.513-.336 30.784 0 34.148.337 3.364 1.85 4.542 6.56 4.878 4.71.337 31.12.673 36.84.673 5.719 0 6.896-2.018 7.233-5.383.336-3.364 1.177-42.726.84-46.932-.336-4.205-2.018-6.728-8.914-6.896-6.897-.169-28.597 0-28.597 0z" fill="#913d35"/><path d="M477.34 285.913c-33.587 14.012-123.544 49.812-126.882 51.083-3.533 1.346-5.215 1.514-11.102 1.346-5.888-.168-200.681-1.514-206.4-1.682-5.72-.168-7.402-1.514-11.775-2.691-3.387-.912-82.377-32.768-120.128-47.9v.256c-.048 9.407-.095 19.415-.137 29.349l-.02 5.22a25900.094 25900.094 0 00-.121 36.092l-.008 2.85a7018.169 7018.169 0 00-.014 20.103l.004 2.406c.006 2.253.015 4.216.028 5.546a584.16 584.16 0 01.026 5.253 2753.644 2753.644 0 01-.01 11.511v.31a9226.934 9226.934 0 01-.108 22.398c-.007.987-.01 1.876-.017 2.875 2.564.324 6.058.548 10.829.623 21.531.336 196.475 1.009 224.398 1.009 24.251 0 192.913.759 241.548.518-.111-42.036-.226-87.371-.226-100.06 0-3.223.013-9.056.032-16.023.022-8.452.051-18.611.084-30.392z" fill="#c2342c"/><path d="M41.952 252.216c8.579-.168 11.102 6.56 11.27 12.112.168 5.55-4.542 11.102-11.27 10.765-6.729-.336-11.102-5.55-10.934-11.606.168-6.056 4.878-10.766 10.934-11.27z" fill="#a6a6a6"/><path d="M42.036 255.496c3.953.085 7.401 3.785 7.822 8.075.42 4.29-3.112 8.495-8.159 8.326-5.046-.168-7.233-4.205-7.485-7.99-.252-3.785 2.187-8.158 7.822-8.41z" fill="#d33232"/><path d="M68.53 251.964c8.579-.168 11.102 6.56 11.27 12.111.168 5.552-4.542 11.103-11.27 10.766-6.729-.336-11.102-5.55-10.934-11.607.168-6.055 4.878-10.765 10.934-11.27z" fill="#a6a6a6"/><path d="M68.614 255.244c3.953.084 7.401 3.785 7.822 8.074.42 4.29-3.112 8.495-8.159 8.327-5.046-.168-7.233-4.205-7.485-7.99-.253-3.785 2.187-8.159 7.822-8.41z" fill="#d7d7d7"/><path d="M422.52 265.18c-.168-8.579 6.56-11.102 12.112-11.27 5.55-.169 11.102 4.541 10.766 11.27-.337 6.729-5.552 11.102-11.607 10.934-6.056-.168-10.766-4.878-11.27-10.934z" fill="#a6a6a6"/><path d="M425.8 265.096c.085-3.953 3.785-7.402 8.075-7.822 4.29-.42 8.495 3.112 8.326 8.158-.168 5.047-4.205 7.234-7.99 7.486-3.785.252-8.158-2.187-8.41-7.822z" fill="#d33232"/><path d="M395.942 265.432c-.168-8.579 6.56-11.102 12.112-11.27 5.55-.168 11.102 4.542 10.766 11.27-.337 6.729-5.551 11.103-11.607 10.934-6.056-.168-10.766-4.878-11.27-10.934z" fill="#a6a6a6"/><path d="M399.223 265.348c.084-3.953 3.784-7.401 8.074-7.822 4.29-.42 8.495 3.112 8.327 8.159-.169 5.046-4.206 7.233-7.99 7.485-3.786.253-8.16-2.187-8.411-7.822z" fill="#d7d7d7"/><path d="M422.466 231.118c20.211.204 33.072-8.982 33.072-35.522 0-26.539-.612-43.279-1.429-55.324-.816-12.044-5.512-31.03-43.892-31.438-38.38-.409-110.852-1.225-133.92-.205-23.07 1.021-30.215 18.782-29.602 39.401.612 20.619-.204 37.36 1.02 51.65 1.225 14.29 9.187 31.438 29.806 31.847 20.62.408 130.655 0 144.945-.409z" fill="#1c1c1c"/><path d="M257.31 187.022c1.021 18.986 1.43 32.256 25.927 32.868 24.498.613 122.08.613 137.188.204 15.107-.408 23.681-7.145 23.885-25.518.204-18.374.204-41.442-.612-52.67-.817-11.229-6.533-21.232-30.01-21.436-23.477-.204-116.977-.817-132.084 0s-24.09 8.37-24.498 23.069c-.408 14.698-.204 32.868.205 43.483z" fill="#333"/><path d="M190.962 109.446c25.315 1.02 36.747 13.065 36.747 32.46 0 19.394.204 37.767-1.837 56.14-2.042 18.374-10.82 33.072-35.114 32.868-24.293-.204-117.997-.817-139.229-.817-21.231 0-31.234-12.657-32.46-34.5-1.224-21.844 1.634-47.159 2.859-61.45 1.225-14.29 13.882-24.497 43.28-24.701 29.397-.204 111.872-.204 125.754 0z" fill="#1c1c1c"/><path d="M183.409 119.041c21.435 1.02 33.48 4.491 34.501 27.968 1.02 23.477-1.02 44.505-2.45 55.12-1.429 10.616-7.145 16.74-21.231 17.761-14.086 1.02-125.96.613-139.433-.408-13.474-1.02-21.64-3.879-22.048-18.782-.409-14.903.204-52.67 1.837-63.898 1.633-11.228 10.616-16.536 24.294-17.149 13.678-.612 107.79-1.429 124.53-.612z" fill="#333"/><path d="M136.825 453.738c-10.934-.168-14.467-.337-14.467 14.634 0 14.972 1.01 15.308 13.794 15.476 12.784.168 14.971-.336 15.644-14.803.673-14.466-.336-15.307-14.971-15.307z" fill="#8d3d2d"/><path d="M6.484 460.32c-2.234.002-4.248.01-6.032.02-.03 3.6-.059 6.967-.09 10.28 38.334.362 122.715 1.76 137.726 1.597 18.782-.204 155.357.817 181.284.817 21.303 0 113.749.485 158.185.346l-.03-11.463a5688.61 5688.61 0 01-31.992-.52c-31.03-.612-194.757.408-222.725.408-24.473 0-155.855-1.406-208.969-1.484a2552.6 2552.6 0 00-7.357-.002z" fill="#c7c7c7"/><path d="M371.815 349.207c6.64 0 6.496 2.743 6.64 7.506.144 4.764-.144 25.118-.289 28.582-.144 3.465-1.299 3.754-5.485 3.898-4.186.144-20.21.289-23.963-.144-3.753-.433-4.764-2.021-5.052-6.785-.289-4.764.144-25.55.288-29.015.145-3.465 1.444-4.042 4.908-4.042 3.465 0 16.312-.145 22.953 0zM381.433 395.457c0-4.083 1.633-4.9 8.574-5.103 6.94-.204 13.678-.204 18.986.408 5.307.612 5.716 2.246 6.124 5.716.408 3.47.408 23.681 0 27.152-.408 3.47 0 4.491-4.083 4.9-4.083.408-22.66 0-25.723 0-3.062 0-4.083-2.246-4.287-5.104-.204-2.858 0-22.252.409-27.969z" fill="#9e362a"/><path d="M340.508 512.92c7.402.337 10.766 4.879 11.102 12.112.337 7.233-4.71 10.43-11.438 10.598-6.729.168-10.598-6.056-10.766-11.944-.168-5.887 3.7-10.597 11.102-10.765z" fill="#b5b5b5"/><path d="M340.676 516.453c6.224.168 7.738 4.374 7.907 8.074.168 3.701-3.197 7.402-8.243 7.738-5.046.337-7.906-4.205-7.738-7.906.168-3.7 2.692-7.738 8.074-7.906z" fill="#767676"/><path d="M132.115 512.445c7.401.336 10.766 4.878 11.102 12.111.337 7.234-4.71 10.43-11.438 10.598-6.73.168-10.598-6.056-10.766-11.943-.168-5.888 3.7-10.598 11.102-10.766z" fill="#b5b5b5"/><path d="M132.283 515.977c6.224.169 7.738 4.374 7.906 8.075.168 3.7-3.196 7.401-8.242 7.738-5.047.336-7.906-4.206-7.738-7.907.168-3.7 2.691-7.737 8.074-7.906z" fill="#767676"/><path d="M86.264 514.058c5.115 0 5.353-.238 5.828 4.758.476 4.995.238 16.89.12 20.34-.12 3.449-.357 4.876-4.64 4.995-4.282.12-20.696.595-23.313-.119-2.617-.713-2.855-2.022-2.974-4.995-.118-2.974-.118-18.437.238-20.816.357-2.379.833-3.687 3.807-3.806 2.973-.12 16.771-.357 20.934-.357z" fill="#551a19"/><path d="M71.396 525.358c-5.234 5.471-5.475 12.355 5.233 12.132 11.42-.238 9.278-8.445 4.401-11.775-4.876-3.33-9.634-.357-9.634-.357z" fill="#1c1c1c"/><path d="M75.916 527.618c-8.445-.238-9.516-4.52-9.516-6.185 0-1.666 1.19-4.045 9.397-4.164 8.207-.119 10.11 2.736 10.23 4.401.118 1.666-2.499 5.71-10.111 5.948z" fill="#7e2a24"/><path d="M74.08 623.467c.337-6.897-.672-8.411 8.916-8.748 9.588-.336 12.28-.336 16.149 0 3.869.337 5.046 3.197 4.71 11.944-.337 8.747-1.85 9.083-6.392 9.42-4.542.336-15.14.336-18.504.168-3.364-.168-4.542-.505-4.878-12.784z" fill="#6b1d17"/><path d="M121.181 552.985c.505-7.234-.336-8.58 7.233-8.411 7.57.168 21.027-.337 27.756 0 6.728.336 6.896 4.542 7.065 10.093.168 5.55.336 7.738-4.71 8.074-5.047.337-27.756 0-31.961 0-4.206 0-5.551-3.364-5.383-9.756z" fill="#721616"/><path d="M125.05 626.158c0-4.878.505-5.887 5.046-6.224 4.542-.336 20.69-.336 24.223.168 3.533.505 5.215 1.346 5.551 6.729.337 5.383 0 9.588-.504 12.448-.505 2.86-1.346 4.205-6.056 4.542-4.71.336-20.354.504-23.045.168-2.692-.337-4.038-1.514-4.71-4.71-.673-3.196-.337-9.084-.505-13.12z" fill="#42150f"/><path d="M131.442 562.405c-3.364-5.888-4.037-7.065-1.177-8.243 2.86-1.177 3.027.673 6.055 5.215 3.028 4.542 13.458 20.186 13.458 32.465 0 12.28-5.383 27.083-9.42 31.793-4.038 4.71-7.066 5.72-10.093 4.205-3.028-1.514-1.514-4.373.672-6.224 2.187-1.85 11.103-7.401 11.27-20.858.17-13.458-5.382-28.933-10.765-38.353z" fill="#111"/><path d="M149.778 562.741c.168-5.72 2.355-7.401 6.392-6.897 4.037.505 3.869 3.196 3.028 8.747-.842 5.552-1.85 12.617 6.055 26.242 7.906 13.625 12.616 20.522 9.42 23.55-3.196 3.028-7.401 1.346-12.28 4.71-4.878 3.364-5.887 6.224-8.41 8.747-2.523 2.523-5.72.841-7.233-1.682-1.514-2.523-3.028-4.542 1.177-6.729 4.206-2.186 9.252-7.065 13.626-8.074 4.373-1.01 4.878-2.018 1.85-7.906-3.028-5.887-9.757-19.345-11.607-28.092-1.85-8.747-2.187-8.41-2.018-12.616z" fill="#111"/><path d="M131.626 553.817c-.384.01-.825.124-1.362.345-2.86 1.178-2.186 2.355 1.178 8.242a74.867 74.867 0 012.925 5.708c2.143-1.42 3.937-2.329 5.708-2.848a149.896 149.896 0 00-3.755-5.887c-2.46-3.69-3.032-5.604-4.694-5.56zm23.117 1.944c-3.125.062-4.818 1.975-4.966 6.98-.043 1.089-.052 1.872-.01 2.588 3.173.541 6.627 1.311 9.082 1.818a69.39 69.39 0 01.349-2.556c.84-5.55 1.009-8.242-3.028-8.747a9.952 9.952 0 00-1.427-.083zM155.039 614.703c-2.457 1.685-4.9 3.576-7.112 4.726-4.205 2.187-2.691 4.206-1.177 6.73 1.514 2.522 4.71 4.204 7.233 1.681 1.847-1.847 2.889-3.875 5.225-6.149-3.436-1.11-4.373-4.077-4.17-6.988zm-24.241 7.038c-2.11 1.852-3.496 4.618-.534 6.1 2.105 1.052 4.21.88 6.654-.901-2.356-.48-4.438-2.355-6.12-5.2z" fill="#4f4f4f"/><path d="M352.645 552.144c.336 7.233 1.177 10.597-3.87 10.934-5.046.336-24.559.504-31.792.504-7.233 0-9.252-2.355-9.42-9.252-.168-6.896-.673-10.26 5.047-10.597 5.719-.337 29.269-.337 34.147 0 4.878.336 5.551 2.691 5.888 8.41z" fill="#721616"/><path d="M309.245 559.881c3.365-5.382 4.542-6.56 7.57-5.214 3.028 1.345 3.869 3.532 1.01 7.57-2.86 4.037-10.43 20.017-8.916 30.278 1.514 10.261 3.532 14.971 9.42 19.008 5.887 4.038 8.915 10.093 9.588 13.962.673 3.87 1.01 7.57-3.028 7.402-4.037-.169-4.205-1.346-4.373-5.383-.169-4.037-5.215-10.43-11.102-13.962-5.888-3.533-7.57-12.953-7.907-21.532-.336-8.579 4.71-25.568 7.738-32.129zM336.16 563.414c2.018-6.56 2.018-7.738 5.214-7.233 3.196.504 2.019 4.878.505 10.765-1.514 5.888-8.579 25.4-7.906 40.204.673 14.803 2.355 15.644 5.046 19.008 2.692 3.364 6.392 6.897 5.215 8.58-1.178 1.681-3.196 3.7-5.215 1.85-2.018-1.85-6.392-6.393-8.747-13.962-2.355-7.57-2.523-18.504-1.346-28.092 1.178-9.589 5.72-25.737 7.234-31.12z" fill="#111"/><path d="M314.828 554.157c-1.766.016-3.06 1.687-5.583 5.725-.696 1.507-1.5 3.582-2.318 5.963 3.066.295 5.817.86 7.885 1.799 1.163-2.421 2.254-4.337 3.012-5.408 2.86-4.037 2.019-6.223-1.01-7.57-.756-.336-1.397-.514-1.986-.51zm25.487 1.92c-2.169-.022-2.389 1.596-4.155 7.337l-.127.452c2.173-.297 4.59-.22 6.56.254 1.07-4.419 1.44-7.52-1.218-7.94-.4-.063-.75-.099-1.06-.102zM326.752 621.747c-1.132 1.157-4.081 2.19-7.215 2.367.59 1.223.937 2.38.979 3.39.168 4.037.336 5.215 4.373 5.383 4.037.168 3.7-3.533 3.028-7.402-.191-1.1-.58-2.38-1.165-3.738zm14.843 7.484c-.779 2.053-3.23 3.776-5.15 4.672a29.824 29.824 0 002.574 2.685c2.019 1.85 4.037-.169 5.215-1.851.817-1.167-.725-3.231-2.639-5.506z" fill="#4f4f4f"/><path d="M387.078 629.316c.238-7.85.357-8.683 7.137-8.683 6.78 0 12.133 0 15.701.238 3.568.238 4.52 2.736 4.877 9.873.357 7.137-.12 8.683-4.401 9.04-4.282.357-16.058.713-19.15.476-3.093-.238-4.045-2.38-4.164-10.944z" fill="#6b1d17"/><path d="M237.92 613.794c-4.163-.06-8.326.892-13.798 3.033-10.234 4.005-88.716 27.57-135.813 44.227 7.805.065 15.761.14 23.452.261 21.195.337 212.287.337 229.109.337 6.29 0 20.988-.103 36.784-.22-27.652-11.172-116.087-41.18-125.936-44.605-5.471-1.903-9.635-2.973-13.798-3.033z" fill="#9a8f7f"/><path d="M392.836 514.958c-2.423.018-5.034.683-5.034.683-1.01 8.747.504 25.905.673 36.166.056 3.433.04 8.404.102 11.823.16 8.992.327 15.247-1.953 21.484-2.887 7.896-17.83 34.147-21.531 44.072-3.701 9.925-6.56 32.634 6.392 37.344 12.952 4.71 19.681-3.87 23.718-15.14 4.037-11.27 7.065-31.288 5.383-52.987-1.682-21.7-3.869-77.043-3.7-81.08.078-1.892-1.913-2.38-4.05-2.365zm-.533 78.1c.677-.083.581 3.318.842 8.782.475 9.991 1.189 29.974-3.212 42.702-4.401 12.727-8.92 16.414-14.63 15.106-5.71-1.309-8.684-9.04-5.829-21.173 2.855-12.132 16.534-31.52 18.913-37.23 2.263-5.659 3.355-8.119 3.916-8.187z" fill="#111"/><path d="M395.203 518.5c-9.588-.672-9.756-1.682-9.756-3.868 0-2.187 1.85-2.692 8.747-2.86 6.897-.168 9.083.168 9.252 2.019.168 1.85-.505 4.878-8.243 4.71z" fill="#7e2a24"/><path d="M392.836 514.958c-2.423.018-5.034.683-5.034.683-.958 8.302.355 24.17.635 34.538 3.659-.859 6.614-.815 9.536-.609-.695-16.312-1.169-30.297-1.088-32.247.08-1.892-1.912-2.38-4.05-2.365z" fill="#4f4f4f"/><path d="M358.967 375.335c.866 11.404 3.753 32.48-9.383 53.122-13.136 20.643-29.304 43.595-24.684 66.692 4.619 23.097 25.695 42.73 49.946 42.152 24.252-.578 51.39-14.725 51.68-44.173.288-29.448-12.415-50.813-16.457-59.763-4.042-8.95-3.32-8.805-4.187-10.826-.866-2.021.29-4.33 2.166-6.207 1.876-1.877 3.031-4.331 2.31-7.796-.722-3.464-6.93-9.238-14.003-9.094-7.073.144-10.25 2.887-9.239 9.96 1.01 7.074 7.074 10.827 9.528 11.838 2.454 1.01 3.32 4.186 6.207 11.837 2.887 7.65 11.041 20.358 14.92 39.344 3.879 18.986 2.45 38.584-13.066 48.996-15.515 10.411-43.687 14.086-61.652-4.696-17.965-18.781-12.862-45.116-2.45-61.244 10.411-16.128 19.394-27.152 22.66-43.075 3.267-15.924 6.125-32.256 8.37-37.155 2.246-4.9-12.666.088-12.666.088z" fill="#2c2c2c"/><path d="M228.502 523.379c20.186-.337 32.634 15.476 33.307 31.96.673 16.486-4.037 27.924-31.288 26.915-27.251-1.01-29.943-10.093-30.279-25.232-.336-15.14.336-33.307 28.26-33.643z" fill="#121212"/><path d="M24.055 365.138c.476-6.661 2.38-5.71 7.375-6.186 4.996-.475 32.591-.475 37.825-.238 5.233.238 6.185 1.666 6.423 9.04.238 7.375.714 22.6 0 27.596-.714 4.996-6.423 20.696-24.74 20.696-18.319 0-26.883-9.515-27.12-22.6-.238-13.083-.476-20.696.237-28.308z" fill="#9f3229"/><path d="M363.298 354.837c-10.971.577-12.234 7.652-12.126 11.981.144 5.774 7.218 10.827 14.147 11.115 6.929.289 11.837-6.063 11.548-11.404-.289-5.34-4.475-11.26-13.57-11.692zM400.622 408.319c10.412-.409 12.25-3.675 12.045-7.962-.204-4.287-5.308-8.37-14.698-7.962-9.391.408-11.024 4.9-10.412 8.166.612 3.266 3.47 7.145 13.065 7.758z" fill="#b6563d"/></svg>