<?xml version="1.0" encoding="UTF-8" standalone="no"?>
<!-- Created with Inkscape (http://www.inkscape.org/) -->

<svg
   xmlns:dc="http://purl.org/dc/elements/1.1/"
   xmlns:cc="http://creativecommons.org/ns#"
   xmlns:rdf="http://www.w3.org/1999/02/22-rdf-syntax-ns#"
   xmlns:svg="http://www.w3.org/2000/svg"
   xmlns="http://www.w3.org/2000/svg"
   xmlns:sodipodi="http://sodipodi.sourceforge.net/DTD/sodipodi-0.dtd"
   xmlns:inkscape="http://www.inkscape.org/namespaces/inkscape"
   width="654.66913mm"
   height="723.8653mm"
   viewBox="0 0 654.66913 723.8653"
   version="1.1"
   id="svg8"
   inkscape:version="0.92.2 5c3e80d, 2017-08-06"
   sodipodi:docname="optare.svg">
  <defs
     id="defs2" />
  <sodipodi:namedview
     id="base"
     pagecolor="#ffffff"
     bordercolor="#666666"
     borderopacity="1.0"
     inkscape:pageopacity="0.0"
     inkscape:pageshadow="2"
     inkscape:zoom="0.12211884"
     inkscape:cx="1263.5491"
     inkscape:cy="1416.2763"
     inkscape:document-units="mm"
     inkscape:current-layer="layer1"
     showgrid="false"
     inkscape:window-width="1440"
     inkscape:window-height="855"
     inkscape:window-x="0"
     inkscape:window-y="1"
     inkscape:window-maximized="1"
     inkscape:snap-global="false" />
  <metadata
     id="metadata5">
    <rdf:RDF>
      <cc:Work
         rdf:about="">
        <dc:format>image/svg+xml</dc:format>
        <dc:type
           rdf:resource="http://purl.org/dc/dcmitype/StillImage" />
        <dc:title></dc:title>
      </cc:Work>
    </rdf:RDF>
  </metadata>
  <g
     inkscape:label="Layer 1"
     inkscape:groupmode="layer"
     id="layer1"
     transform="translate(354.59514,268.34452)">
    <path
       style="fill:#4f4f4f;fill-opacity:1;stroke:none;stroke-width:0.99999994px;stroke-linecap:butt;stroke-linejoin:miter;stroke-opacity:1"
       d="m 928.39844,3403.4473 -46.06055,28.6601 -82.91211,69.6055 c 0,0 -16.66338,102.5632 -18.01562,154.3555 2.36201,19.1362 2.45395,37.4656 3.17773,51.9414 0.72378,14.4758 500.13871,62.9687 500.13871,62.9687 l 102.0546,294.582 c 0,0 15.7418,16.2862 50.3028,23.1622 37.6371,-0.7238 90.1114,8.6844 107.4824,9.4082 14.4757,-8.3236 -72.3789,-52.836 -72.3789,-52.836 l -176.3184,-378.7851 -118.7363,-169.916 -221.09764,-53.2266 23.54296,-21.4961 z m 2138.60746,0 -51.1797,18.4238 23.5429,21.4961 -221.0976,53.2266 -118.7363,169.916 -176.3184,378.7851 c 0,0 -86.8547,44.5124 -72.3789,52.836 17.371,-0.7238 69.8453,-10.132 107.4824,-9.4082 34.561,-6.876 50.3027,-23.1622 50.3027,-23.1622 l 102.0547,-294.582 c 0,0 499.4149,-48.4929 500.1387,-62.9687 0.7238,-14.4758 0.8157,-32.8052 3.1777,-51.9414 -1.3522,-51.7923 -18.0156,-154.3555 -18.0156,-154.3555 l -82.9121,-69.6055 z"
       transform="matrix(0.26458333,0,0,0.26458333,-555.81925,-634.18214)"
       id="path1329"
       inkscape:connector-curvature="0" />
    <path
       style="fill:#f9f9f9;fill-opacity:1;stroke:none;stroke-width:0.26458332px;stroke-linecap:butt;stroke-linejoin:miter;stroke-opacity:1"
       d="m 254.04151,268.00124 c 0.26728,7.75084 0.53454,13.63075 0.53454,16.30344 0,2.67272 1.06908,2.40544 5.3454,1.47 4.2763,-0.93546 15.23437,-4.27633 20.98064,2.67269 5.7463,6.94902 6.54812,10.28988 5.21176,22.71792 -1.33633,12.42803 -2.40543,24.05425 -2.93997,27.12786 -0.53453,3.07359 0.80182,3.34087 5.34541,2.80633 4.54358,-0.53454 5.21176,-1.33636 5.87991,-6.68176 0.66818,-5.34538 4.14269,-40.22405 5.21176,-51.44937 1.06908,-11.22532 0.40093,-26.59332 -3.20722,-41.15951 -3.60815,-14.56619 -12.96257,-25.92514 -16.30344,-29.53328 -3.34087,-3.60814 -26.05879,55.72568 -26.05879,55.72568 z"
       id="path2302"
       inkscape:connector-curvature="0" />
    <path
       style="fill:#cdcdcd;fill-opacity:1;stroke:none;stroke-width:0.99999994px;stroke-linecap:butt;stroke-linejoin:miter;stroke-opacity:1"
       d="m 1071.209,3908.498 -37.6367,123.045 c 0,0 -0.7247,68.7598 35.4648,63.6933 36.1895,-5.0665 356.1046,-6.5136 369.1328,-6.5136 13.0282,0 24.6098,0 18.0957,-7.9629 -6.5141,-7.9617 -11.582,-13.0269 -34.0195,-47.045 -22.4374,-34.0181 -47.0465,-86.1308 -62.2461,-122.3203 z m 1852.9863,0 -288.791,2.8965 c -15.1996,36.1895 -39.8087,88.3022 -62.2461,122.3203 -22.4375,34.0181 -27.5054,39.0833 -34.0195,47.045 -6.5141,7.9617 5.0675,7.9629 18.0957,7.9629 13.0282,0 332.9433,1.4471 369.1328,6.5136 36.1895,5.0665 35.4648,-63.6933 35.4648,-63.6933 z"
       transform="matrix(0.26458333,0,0,0.26458333,-555.81925,-634.18214)"
       id="path1248"
       inkscape:connector-curvature="0" />
    <path
       style="fill:#cdcdcd;fill-opacity:1;stroke:none;stroke-width:0.99999994px;stroke-linecap:butt;stroke-linejoin:miter;stroke-opacity:1"
       d="m 1376.6484,3919.3555 c 25.3326,60.7984 57.1785,122.3197 85.4063,147.6523 28.2278,25.3327 45.5995,28.2279 81.7891,31.1231 36.1895,2.895 108.5677,4.3429 120.1484,3.6191 11.5806,-0.7238 11.5058,-162.1289 11.5058,-162.1289 z m 1242.1075,0 -298.8497,20.2656 c 0,0 -0.075,161.4051 11.5059,162.1289 11.5807,0.7238 83.9589,-0.7241 120.1484,-3.6191 36.1895,-2.8952 53.5613,-5.7904 81.7891,-31.1231 28.2278,-25.3326 60.0737,-86.8539 85.4063,-147.6523 z"
       transform="matrix(0.26458333,0,0,0.26458333,-555.81925,-634.18214)"
       id="path1250"
       inkscape:connector-curvature="0" />
    <path
       inkscape:connector-curvature="0"
       id="path1252"
       d="m -342.63541,341.03423 c 27.59226,3.77976 115.09375,13.79612 120.00744,14.1741 4.91369,0.37799 5.66964,0 2.64583,-7.37055 -3.02381,-7.37052 -6.4256,-18.14285 -15.11905,-27.21427 -8.69345,-9.07143 -10.39434,-11.52827 -46.49106,-21.73364 -36.09674,-10.20535 -40.25448,-10.29984 -46.1131,-10.29984 -5.85864,0 -13.41815,4.5357 -13.89062,18.33185 -0.47247,13.79611 -1.03944,34.11235 -1.03944,34.11235 z"
       style="fill:#b4b4b4;fill-opacity:1;stroke:none;stroke-width:0.26458332px;stroke-linecap:butt;stroke-linejoin:miter;stroke-opacity:1" />
    <path
       inkscape:connector-curvature="0"
       id="path1254"
       d="m -308.56266,268.00124 c -0.26728,7.75084 -0.53454,13.63075 -0.53454,16.30344 0,2.67272 -1.06908,2.40544 -5.3454,1.47 -4.2763,-0.93546 -15.23437,-4.27633 -20.98064,2.67269 -5.7463,6.94902 -6.54812,10.28988 -5.21176,22.71792 1.33633,12.42803 2.40543,24.05425 2.93997,27.12786 0.53453,3.07359 -0.80182,3.34087 -5.34541,2.80633 -4.54358,-0.53454 -5.21176,-1.33636 -5.87991,-6.68176 -0.66818,-5.34538 -4.14269,-40.22405 -5.21176,-51.44937 -1.06908,-11.22532 -0.40093,-26.59332 3.20722,-41.15951 3.60815,-14.56619 12.96257,-25.92514 16.30344,-29.53328 3.34087,-3.60814 26.05879,55.72568 26.05879,55.72568 z"
       style="fill:#f9f9f9;fill-opacity:1;stroke:none;stroke-width:0.26458332px;stroke-linecap:butt;stroke-linejoin:miter;stroke-opacity:1" />
    <path
       style="fill:#d8d8d8;fill-opacity:1;stroke:none;stroke-width:0.99999994px;stroke-linecap:butt;stroke-linejoin:miter;stroke-opacity:1"
       d="m 1996.7012,3925.3809 v 0.1113 l -332.709,18.4726 c -76.7217,10.133 -78.8926,2.8948 -78.8926,51.3887 0,48.494 3.618,75.9972 4.3418,89.0254 0.7237,13.0282 0.7252,20.2676 20.2676,20.2676 17.9795,0 340.4262,1.1349 386.9922,1.3301 v 0.01 c 0.1078,-5e-4 0.8888,0 1,0 0.1114,4e-4 0.8939,0 1.0019,0 v -0.01 c 46.566,-0.1952 369.0127,-1.3301 386.9922,-1.3301 19.5424,0 19.5439,-7.2394 20.2676,-20.2676 0.7238,-13.0282 4.3418,-40.5314 4.3418,-89.0254 0,-48.4939 -2.1709,-41.2557 -78.8926,-51.3887 l -332.709,-18.4726 v -0.1113 l -1,0.055 z"
       transform="matrix(0.26458333,0,0,0.26458333,-555.81925,-634.18214)"
       id="path1256"
       inkscape:connector-curvature="0" />
    <path
       style="fill:#e6e6e6;fill-opacity:1;stroke:none;stroke-width:0.99999994px;stroke-linecap:butt;stroke-linejoin:miter;stroke-opacity:1"
       d="m 950.11133,3431.0742 c -10.89472,-0.026 -11.22713,3.8169 -11.5586,13.0977 -0.50509,14.1422 -1.00942,19.6981 0.50586,30.3047 1.51522,10.6066 4.03993,11.6168 27.27344,17.6777 23.23348,6.0609 121.21947,32.8301 190.91997,60.6094 69.7005,27.7792 87.3771,68.6899 102.5292,100.5097 15.1524,31.8198 67.7384,155.7989 87.7383,200.7989 20,45 23.9294,54.9986 28.5723,65.7129 4.6428,10.7143 6.7849,12.8583 21.4277,13.9296 14.6429,1.0715 348.572,17.1421 415.7149,21.4278 60.4444,3.8581 149.6691,6.52 183.4668,7.0195 v 0.035 c 0.2751,0 0.7183,-0.014 1.0019,-0.018 0.283,0 0.7255,0.014 1,0.018 v -0.035 c 33.7977,-0.4995 123.0224,-3.1614 183.4668,-7.0195 67.1429,-4.2857 401.072,-20.3563 415.7149,-21.4278 14.6428,-1.0713 16.7849,-3.2153 21.4277,-13.9296 4.6429,-10.7143 8.5723,-20.7129 28.5723,-65.7129 19.9999,-45 72.5859,-168.9791 87.7382,-200.7989 15.1522,-31.8198 32.8288,-72.7305 102.5293,-100.5097 69.7005,-27.7793 167.6865,-54.5485 190.92,-60.6094 23.2335,-6.0609 25.7582,-7.0711 27.2734,-17.6777 1.5153,-10.6066 1.011,-16.1625 0.5059,-30.3047 -0.3315,-9.2808 -0.6639,-13.1241 -11.5586,-13.0977 -5.7068,0.013 -14.3125,1.0863 -27.334,2.9961 l -1020.2559,42.3203 -1020.25779,-42.3203 c -13.02153,-1.9098 -21.62724,-2.983 -27.33398,-2.9961 z"
       transform="matrix(0.26458333,0,0,0.26458333,-555.81925,-634.18214)"
       id="path1258"
       inkscape:connector-curvature="0" />
    <path
       id="path1260"
       d="m -334.25299,212.1178 c -0.14094,-0.006 -0.26403,0.0449 -0.36843,0.15761 -3.34087,3.60814 -12.69527,14.96741 -16.30341,29.5336 -1.82039,7.34895 -2.89063,14.90028 -3.36879,22.02243 3.1064,-7.85891 7.71359,-11.83876 23.91342,-13.13947 l 5.21554,-22.92913 c -4.00473,-8.80041 -7.57028,-15.57561 -9.08833,-15.64504 z"
       style="fill:#f0a980;fill-opacity:1;stroke:none;stroke-width:0.26458332px;stroke-linecap:butt;stroke-linejoin:miter;stroke-opacity:1"
       inkscape:connector-curvature="0"
       sodipodi:nodetypes="ccscccc" />
    <path
       id="path1262"
       d="m -331.54773,224.56975 c -6.67994,0.92325 -11.06458,2.04513 -13.95211,3.26699 -1.84275,3.49519 -3.54045,7.41479 -4.78833,11.64063 0.3016,0.92467 0.56584,1.52962 0.56584,1.52962 l 24.72253,-4.00906 z"
       style="fill:#f8be97;fill-opacity:1;stroke:none;stroke-width:0.26458332px;stroke-linecap:butt;stroke-linejoin:miter;stroke-opacity:1"
       inkscape:connector-curvature="0" />
    <path
       id="path1264"
       d="m -331.52551,233.92422 c -8.8266,0.0614 -14.46056,1.12613 -17.97047,3.0794 -0.53739,1.55732 -1.02118,3.15964 -1.42885,4.80539 -1.31456,5.30697 -2.23756,10.71935 -2.8298,16.00006 l 22.98779,-6.99286 0.9565,-16.89199 c -0.58468,-0.004 -1.15634,-0.004 -1.71517,0 z"
       style="fill:#f9c5a1;fill-opacity:1;stroke:none;stroke-width:0.26458332px;stroke-linecap:butt;stroke-linejoin:miter;stroke-opacity:1"
       inkscape:connector-curvature="0"
       sodipodi:nodetypes="scccccs" />
    <path
       style="fill:#f39353;fill-opacity:1;stroke:none;stroke-width:0.26458332px;stroke-linecap:butt;stroke-linejoin:miter;stroke-opacity:1"
       d="m -342.86745,249.03028 c -4.76375,0.0565 -8.14949,0.94171 -10.23141,3.77961 -0.0709,0.46962 -0.13862,0.9391 -0.20413,1.40767 -0.019,0.13734 -0.037,0.27411 -0.0558,0.41134 -0.0492,0.36004 -0.0982,0.71984 -0.14417,1.079 -0.006,0.0424 -0.0101,0.0847 -0.0156,0.12713 -0.054,0.42506 -0.10639,0.84973 -0.15608,1.2733 -0.0132,0.11253 -0.0254,0.22453 -0.0382,0.33693 -0.0416,0.36232 -0.0825,0.72419 -0.12092,1.08521 -0.0116,0.10852 -0.0222,0.21665 -0.0336,0.32504 -0.0388,0.37363 -0.0766,0.74678 -0.11213,1.1188 -0.008,0.0793 -0.0148,0.15846 -0.0222,0.23771 -0.0399,0.4251 -0.0781,0.84956 -0.11369,1.27227 -0.0613,0.72762 -0.11481,1.45033 -0.16381,2.1699 1.99544,-4.64672 5.68844,-6.73015 15.56208,-7.45854 5.10426,-0.37654 9.07653,-0.21998 12.06095,-0.91474 0,-1.37274 -0.48051,-4.1828 -1.4174,-5.32046 -5.91333,-0.45102 -10.83029,-0.97716 -14.79394,-0.93017 z"
       id="path1266"
       inkscape:connector-curvature="0"
       sodipodi:nodetypes="scccccccccccccsccs" />
    <g
       id="g2566">
      <path
         id="path2308"
         d="m 279.73184,212.1178 c 0.14095,-0.006 0.26403,0.0449 0.36843,0.15761 3.34087,3.60814 12.69527,14.96741 16.30342,29.5336 1.82038,7.34895 2.89062,14.90028 3.36878,22.02243 -3.1064,-7.85891 -7.71358,-11.83876 -23.91341,-13.13947 l -5.21555,-22.92913 c 4.00473,-8.80041 7.57029,-15.57561 9.08833,-15.64504 z"
         style="fill:#f0a980;fill-opacity:1;stroke:none;stroke-width:0.26458332px;stroke-linecap:butt;stroke-linejoin:miter;stroke-opacity:1"
         inkscape:connector-curvature="0"
         sodipodi:nodetypes="ccscccc" />
      <path
         id="path2310"
         d="m 277.02658,224.56975 c 6.67994,0.92325 11.06459,2.04513 13.95212,3.26699 1.84274,3.49519 3.54044,7.41479 4.78832,11.64063 -0.3016,0.92467 -0.56584,1.52962 -0.56584,1.52962 l -24.72253,-4.00906 z"
         style="fill:#f8be97;fill-opacity:1;stroke:none;stroke-width:0.26458332px;stroke-linecap:butt;stroke-linejoin:miter;stroke-opacity:1"
         inkscape:connector-curvature="0" />
      <path
         id="path2312"
         d="m 277.00436,233.92422 c 8.8266,0.0614 14.46056,1.12613 17.97047,3.0794 0.5374,1.55732 1.02119,3.15964 1.42886,4.80539 1.31455,5.30697 2.23755,10.71935 2.8298,16.00006 l -22.9878,-6.99286 -0.95649,-16.89199 c 0.58467,-0.004 1.15633,-0.004 1.71516,0 z"
         style="fill:#f9c5a1;fill-opacity:1;stroke:none;stroke-width:0.26458332px;stroke-linecap:butt;stroke-linejoin:miter;stroke-opacity:1"
         inkscape:connector-curvature="0"
         sodipodi:nodetypes="scccccs" />
      <path
         style="fill:#f39353;fill-opacity:1;stroke:none;stroke-width:0.26458332px;stroke-linecap:butt;stroke-linejoin:miter;stroke-opacity:1"
         d="m 288.3463,249.03028 c 4.76375,0.0565 8.14949,0.94171 10.23142,3.77961 0.0709,0.46962 0.13861,0.9391 0.20412,1.40767 0.019,0.13734 0.037,0.27411 0.0558,0.41134 0.0492,0.36004 0.0982,0.71984 0.14417,1.079 0.006,0.0424 0.0101,0.0847 0.0156,0.12713 0.054,0.42506 0.10639,0.84973 0.15608,1.2733 0.0132,0.11253 0.0254,0.22453 0.0382,0.33693 0.0416,0.36232 0.0825,0.72419 0.12092,1.08521 0.0116,0.10852 0.0222,0.21665 0.0336,0.32504 0.0388,0.37363 0.0766,0.74678 0.11213,1.1188 0.008,0.0793 0.0148,0.15846 0.0222,0.23771 0.0399,0.4251 0.0781,0.84956 0.11369,1.27227 0.0613,0.72762 0.1148,1.45033 0.1638,2.1699 -1.99543,-4.64672 -5.68843,-6.73015 -15.56208,-7.45854 -5.10426,-0.37654 -9.07653,-0.21998 -12.06095,-0.91474 0,-1.37274 0.48051,-4.1828 1.4174,-5.32046 5.91333,-0.45102 10.8303,-0.97716 14.79394,-0.93017 z"
         id="path2314"
         inkscape:connector-curvature="0"
         sodipodi:nodetypes="scccccccccccccsccs" />
    </g>
    <path
       style="fill:#f4f4f4;fill-opacity:1;stroke:none;stroke-width:0.99999994px;stroke-linecap:butt;stroke-linejoin:miter;stroke-opacity:1"
       d="m 1996.7012,1382.6934 v 0 c 0,0 0,0.041 0,0.041 -198.4058,4.3979 -419.3718,5.2476 -558.8242,6.6914 -62.5747,0.6479 -148.4602,-0.2765 -200.1153,-0.019 -69.6488,0.3451 -142.6862,2.7893 -212.3359,8.041 -87.11703,6.5688 -130.31067,22.4117 -159.01369,128.666 -30.73285,113.7684 -35.23683,135.1343 -43.07617,301.2832 -6.21835,131.7934 -9.53666,386.9147 -15.59766,533.3868 -6.06089,146.4721 -4.03944,437.3973 2.02149,537.4023 6.061,100.0051 23.2329,344.4605 32.32421,427.293 9.09139,82.8324 29.29373,89.9043 104.04493,89.9043 l -16.82422,-1221.668 c 0,0 270.64111,-679.3255 254.26371,-696.7266 181.1556,-8.2388 681.052,-33.2374 813.8964,-37.414 0.072,0.6467 0.1523,0.6925 0.2383,0.1113 0.086,0.5808 0.1645,0.5352 0.2364,-0.1113 132.8444,4.1766 632.7408,29.1752 813.8964,37.414 -16.3774,17.4011 254.2637,696.7266 254.2637,696.7266 l -16.8242,1221.668 c 74.7512,0 94.9535,-7.0719 104.0449,-89.9043 9.0913,-82.8325 26.2632,-327.2879 32.3242,-427.293 6.061,-100.005 8.0824,-390.9302 2.0215,-537.4023 -6.061,-146.4721 -9.3793,-401.5934 -15.5976,-533.3868 -7.8394,-166.1489 -12.3434,-187.5148 -43.0762,-301.2832 -28.703,-106.2543 -71.8967,-122.0972 -159.0137,-128.666 -69.6497,-5.2517 -142.6871,-7.6959 -212.3359,-8.041 -51.6551,-0.257 -137.5406,0.6674 -200.1153,0.019 -139.4524,-1.4438 -360.4184,-2.2935 -558.8242,-6.6914 0,-10e-5 0,-0.041 0,-0.041 v 0 c -0.3311,0.01 -0.6687,0.014 -1,0.021 -0.3319,-0.01 -0.6701,-0.014 -1.0019,-0.021 z"
       transform="matrix(0.26458333,0,0,0.26458333,-555.81925,-634.18214)"
       id="path1270"
       inkscape:connector-curvature="0" />
    <path
       style="fill:#181818;fill-opacity:1;stroke:none;stroke-width:0.99999994px;stroke-linecap:butt;stroke-linejoin:miter;stroke-opacity:1"
       d="m 1996.7012,1431.6895 v 0.01 c -105.7352,0.293 -576.7957,3.6789 -765.6367,9.2696 -159.1899,4.7127 -232.35865,12.3882 -264.22661,63.7167 -36.07763,58.1088 -48.00503,117.5805 -60.66992,378.1075 -13.81383,284.1613 -22.57756,782.3496 3.13672,1142.3496 25.71432,359.9999 25.71258,351.8548 26.72265,374.0781 1.01023,22.2234 5.05248,28.2848 36.36719,34.3457 31.31467,6.0609 168.33927,38.7193 472.62497,54.4336 273.1314,14.1053 495.2386,17.8283 551.6817,18.4473 v 0.027 c 0.2414,0 0.7537,-0.011 1.0019,-0.014 0.2478,0 0.759,0.011 1,0.014 v -0.027 c 56.4431,-0.619 278.5503,-4.342 551.6817,-18.4473 304.2856,-15.7143 441.3103,-48.3727 472.625,-54.4336 31.3147,-6.0609 35.3569,-12.1223 36.3672,-34.3457 1.01,-22.2233 1.0083,-14.0782 26.7226,-374.0781 25.7143,-360 16.9506,-858.1883 3.1367,-1142.3496 -12.6649,-260.527 -24.5923,-319.9987 -60.6699,-378.1075 -31.8679,-51.3285 -105.0367,-59.004 -264.2266,-63.7167 -188.841,-5.5907 -659.9015,-8.9766 -765.6367,-9.2696 v -0.01 c -0.2348,6e-4 -0.7612,0 -1,0 -0.2392,-7e-4 -0.7666,0 -1.0019,0 z"
       transform="matrix(0.26458333,0,0,0.26458333,-555.81925,-634.18214)"
       id="path1272"
       inkscape:connector-curvature="0" />
    <path
       style="fill:#2e2e2e;fill-opacity:1;stroke:none;stroke-width:0.99999994px;stroke-linecap:butt;stroke-linejoin:miter;stroke-opacity:1"
       d="m 1996.7012,1996.9082 v 0.018 c -275.7006,2.6779 -989.0727,4.675 -1010.96682,5.3594 -22.85711,0.7141 -22.14384,-0.714 -23.57227,22.8574 -1.42862,23.5714 -22.8572,272.8568 -25,452.1426 -2.14288,179.2857 9.3676,419.1037 18.57227,544.2871 7.14285,97.1428 8.5717,99.2849 12.85742,131.4277 3.88887,29.1667 8.57176,36.4289 32.8574,37.8574 24.2858,1.4286 451.4283,19.9991 567.1426,21.4278 81.0215,1.0001 321.0564,2.6914 428.1094,3.1308 v 0.01 c 0.2646,0 0.7356,0 1.0019,-0.01 0.2658,0 0.7359,0 1,0.01 v -0.01 c 107.053,-0.4394 347.0879,-2.1307 428.1094,-3.1308 115.7143,-1.4287 542.8568,-19.9992 567.1426,-21.4278 24.2856,-1.4285 28.9685,-8.6907 32.8574,-37.8574 4.2857,-32.1428 5.7146,-34.2849 12.8574,-131.4277 9.2047,-125.1834 20.7152,-365.0014 18.5723,-544.2871 -2.1428,-179.2858 -23.5714,-428.5712 -25,-452.1426 -1.4284,-23.5714 -0.7152,-22.1433 -23.5723,-22.8574 -21.8941,-0.6844 -735.2662,-2.6815 -1010.9668,-5.3594 v -0.018 c -0.3043,0 -0.6946,0.01 -1,0.01 -0.306,0 -0.697,-0.01 -1.0019,-0.01 z"
       transform="matrix(0.26458333,0,0,0.26458333,-555.81925,-634.18214)"
       id="path1274"
       inkscape:connector-curvature="0" />
    <path
       style="fill:#393939;fill-opacity:1;stroke:none;stroke-width:0.99999994px;stroke-linecap:butt;stroke-linejoin:miter;stroke-opacity:1"
       d="m 1996.7012,1537.373 v 0.02 c -233.825,2.7217 -586.7678,-1.7838 -822.0996,9.4023 -126.8371,6.029 -150.7306,100.5121 -165.8828,161.2422 -12.99974,52.1026 -19.15202,108.2748 -30.26372,160.8027 -11.1117,52.528 -5.05131,54.5472 47.47652,53.5372 49.9562,-0.9608 732.5099,-4.6551 970.7696,-3.2774 v 0.01 c 0.3001,0 0.7003,0 1.0019,0 0.301,0 0.7005,0 1,0 v -0.01 c 238.2597,-1.3777 920.8134,2.3166 970.7696,3.2774 52.5278,1.01 58.5882,-1.0092 47.4765,-53.5372 -11.1117,-52.5279 -17.264,-108.7001 -30.2637,-160.8027 -15.1522,-60.7301 -39.0457,-155.2132 -165.8828,-161.2422 -235.3318,-11.1861 -588.2746,-6.6806 -822.0996,-9.4023 v -0.02 c -0.3233,0 -0.6762,0.01 -1,0.01 -0.3244,0 -0.678,-0.01 -1.0019,-0.01 z"
       transform="matrix(0.26458333,0,0,0.26458333,-555.81925,-634.18214)"
       id="path1276"
       inkscape:connector-curvature="0" />
    <path
       sodipodi:nodetypes="sssssssssssssssss"
       inkscape:connector-curvature="0"
       id="path1278"
       d="m -319.57885,300.87424 c 7.95742,0.0695 11.90624,4.15775 13.60712,7.65403 1.70089,3.49629 3.02382,4.15774 4.8192,4.6302 1.79538,0.47247 3.30728,1.13392 6.33111,-0.37798 3.02381,-1.51189 6.99257,-4.34672 13.51264,-2.45684 6.5201,1.88988 7.27604,4.53572 8.97694,7.08705 1.7009,2.55135 1.88987,2.64583 4.06323,3.30729 2.17337,0.66146 4.25226,0.94497 6.33111,-0.18896 2.07888,-1.13395 7.65402,-4.53573 13.79613,-3.02382 6.14212,1.51191 13.19868,9.9873 8.69346,19.65476 -4.53572,9.73289 -12.66221,10.48884 -17.85938,8.88243 -5.19717,-1.6064 -7.7485,-5.85862 -9.44941,-8.40997 -1.70089,-2.55132 -7.08705,-2.92932 -11.52826,-0.18899 -4.44122,2.74033 -11.90626,4.44121 -18.70981,-3.21279 -6.13625,-6.90328 -9.35494,-7.08706 -14.17412,-4.06325 -3.52278,2.21038 -11.15032,4.44122 -19.46579,-4.15774 -8.31547,-8.59896 -2.65052,-25.25513 11.05583,-25.13542 z"
       style="fill:#5c5c5c;fill-opacity:0.6161137;stroke:none;stroke-width:0.26458332px;stroke-linecap:butt;stroke-linejoin:miter;stroke-opacity:1" />
    <path
       sodipodi:nodetypes="csscc"
       inkscape:connector-curvature="0"
       id="path1280"
       d="m -319.48438,303.42558 c 10.20535,0.0945 12.94569,5.1972 13.13468,13.41817 0.18899,8.22098 -4.91368,12.85119 -12.37871,12.85119 -7.46504,0 -13.13466,-5.10267 -13.60716,-13.13468 -0.47246,-8.03199 4.25224,-13.04017 12.85119,-13.13468 z"
       style="fill:#383838;fill-opacity:1;stroke:none;stroke-width:0.26458332px;stroke-linecap:butt;stroke-linejoin:miter;stroke-opacity:1" />
    <path
       sodipodi:nodetypes="ccccc"
       inkscape:connector-curvature="0"
       id="path1282"
       d="m -286.03347,311.36309 c 8.88243,0.37799 13.41815,6.42559 13.51264,14.07962 0.0945,7.65402 -6.99255,12.09523 -13.51265,12.18974 -6.52008,0.0945 -11.3393,-4.34675 -11.81176,-12.56773 -0.47247,-8.22097 5.85864,-13.70163 11.81177,-13.70163 z"
       style="fill:#383838;fill-opacity:1;stroke:none;stroke-width:0.26458332px;stroke-linecap:butt;stroke-linejoin:miter;stroke-opacity:1" />
    <path
       sodipodi:nodetypes="csccc"
       inkscape:connector-curvature="0"
       id="path1284"
       d="m -252.86607,319.39509 c 9.26042,0.37796 12.28423,5.10266 12.18973,12.47321 -0.0945,7.37053 -5.66963,13.04018 -12.00073,13.13466 -6.3311,0.0945 -12.00075,-4.91368 -12.37873,-12.7567 -0.37797,-7.84299 6.14211,-12.85117 12.18973,-12.85117 z"
       style="fill:#383838;fill-opacity:1;stroke:none;stroke-width:0.26458332px;stroke-linecap:butt;stroke-linejoin:miter;stroke-opacity:1" />
    <path
       inkscape:connector-curvature="0"
       id="path1286"
       d="m -303.48454,315.84249 c -0.0668,-1.87087 0.46773,-2.00451 1.87089,-1.67042 1.40317,0.33409 1.40317,0.73498 0.53454,2.47224 -0.86862,1.73725 -1.87089,8.21854 -1.60364,9.68851 0.26728,1.47 -1.67042,1.26955 -2.67269,0.93546 -1.00226,-0.33409 -1.20271,-0.73501 -0.13364,-2.07134 1.06908,-1.33636 1.60364,-6.94902 2.00454,-9.35445 z"
       style="fill:#4c4c4c;fill-opacity:1;stroke:none;stroke-width:0.26458332px;stroke-linecap:butt;stroke-linejoin:miter;stroke-opacity:1" />
    <path
       sodipodi:nodetypes="sssssssssssss"
       inkscape:connector-curvature="0"
       id="path1290"
       d="m -348.23035,349.95924 c -0.15569,-7.08389 -0.46034,-7.82838 4.97907,-6.89409 6.36696,1.09361 55.34427,8.80913 76.98406,11.10715 21.63982,2.29803 45.76916,4.97906 49.40771,5.36207 3.63855,0.38302 4.78755,0.95751 6.31957,5.55358 1.53201,4.59605 14.36271,34.66198 15.51173,38.10902 1.14902,3.44705 0.38301,3.83006 -5.17057,3.44705 -5.55357,-0.38301 -28.3424,-4.02155 -45.00313,2.48954 -16.66074,6.51109 -28.91691,19.53326 -27.9594,31.40644 0.95752,11.87318 1.91503,10.53264 3.63855,12.63917 1.72353,2.10654 -0.57451,2.48954 -6.89409,2.29804 -6.3196,-0.19151 -29.03741,-1.21636 -50.93971,-22.59732 -20.80409,-20.30889 -20.64641,-72.57493 -20.87379,-82.92065 z"
       style="fill:#d7d7d7;fill-opacity:1;stroke:none;stroke-width:0.26458332px;stroke-linecap:butt;stroke-linejoin:miter;stroke-opacity:1" />
    <path
       style="fill:#212121;fill-opacity:1;stroke:none;stroke-width:0.99999994px;stroke-linecap:butt;stroke-linejoin:miter;stroke-opacity:1"
       d="m 924.12695,3231.5195 c 10.94506,151.3266 11.14165,151.008 11.90039,167.7012 1.01023,22.2234 5.05248,28.2848 36.36719,34.3457 31.31467,6.0609 168.33927,38.7193 472.62497,54.4336 273.1314,14.1053 495.2386,17.8283 551.6817,18.4473 v 0.027 c 0.2414,0 0.7537,-0.011 1.0019,-0.014 0.2478,0 0.759,0.011 1,0.014 v -0.027 c 56.4431,-0.619 278.5503,-4.342 551.6817,-18.4473 304.2856,-15.7143 441.3103,-48.3727 472.625,-54.4336 31.3147,-6.0609 35.3569,-12.1223 36.3672,-34.3457 0.7587,-16.6932 0.9553,-16.3746 11.9003,-167.7012 -126.7298,10.7579 -561.3032,33.8026 -714.5332,40.7676 -159.2338,7.2379 -318.4661,4.3438 -357.5507,4.3438 -0.5063,0 -1.001,0.056 -1.4903,0.1386 -0.4899,-0.083 -0.9852,-0.1386 -1.4922,-0.1386 -39.0846,0 -198.3169,2.8941 -357.5507,-4.3438 -153.23,-6.965 -587.8034,-30.0097 -714.53325,-40.7676 z"
       transform="matrix(0.26458333,0,0,0.26458333,-555.81925,-634.18214)"
       id="path1316"
       inkscape:connector-curvature="0" />
    <path
       style="fill:#ececec;fill-opacity:1;stroke:none;stroke-width:0.22986682px;stroke-linecap:butt;stroke-linejoin:miter;stroke-opacity:1"
       d="m -285.92346,313.08662 c 7.71696,0.32839 11.65753,5.58247 11.73962,12.2322 0.0821,6.64973 -6.07504,10.50819 -11.73963,10.59031 -5.66456,0.0821 -9.85145,-3.77641 -10.26191,-10.9187 -0.41048,-7.14228 5.08992,-11.90381 10.26192,-11.90381 z"
       id="path1321"
       inkscape:connector-curvature="0"
       sodipodi:nodetypes="ccccc" />
    <path
       style="fill:#9b9b9b;fill-opacity:1;stroke:none;stroke-width:0.22501281px;stroke-linecap:butt;stroke-linejoin:miter;stroke-opacity:1"
       d="m -252.86709,321.31012 c 7.87546,0.32143 10.44703,4.33952 10.36667,10.60775 -0.0804,6.26821 -4.8217,11.08991 -10.20593,11.17026 -5.38424,0.0804 -10.20594,-4.1788 -10.5274,-10.84883 -0.32144,-6.67001 5.22351,-10.92918 10.36666,-10.92918 z"
       id="path1323"
       inkscape:connector-curvature="0"
       sodipodi:nodetypes="csccc" />
    <path
       style="fill:#d98d34;fill-opacity:1;stroke:none;stroke-width:0.2257884px;stroke-linecap:butt;stroke-linejoin:miter;stroke-opacity:1"
       d="m -319.4656,305.35147 c 8.70898,0.0807 11.04751,4.43516 11.20879,11.45072 0.16128,7.01556 -4.1932,10.96686 -10.56366,10.96686 -6.37047,0 -11.20877,-4.35448 -11.61199,-11.20879 -0.40319,-6.85429 3.62875,-11.12813 10.96686,-11.20879 z"
       id="path1325"
       inkscape:connector-curvature="0"
       sodipodi:nodetypes="csscc" />
    <path
       style="fill:#4c4c4c;fill-opacity:1;stroke:none;stroke-width:0.25451368px;stroke-linecap:butt;stroke-linejoin:miter;stroke-opacity:1"
       d="m -268.64055,333.04764 c 0.0646,1.79112 -0.45207,1.91906 -1.80827,1.59922 -1.3562,-0.31985 -1.3562,-0.70366 -0.51664,-2.36687 0.83954,-1.6632 1.80827,-7.86823 1.54996,-9.27554 -0.25833,-1.40734 1.61451,-1.21544 2.58323,-0.89559 0.96872,0.31985 1.16246,0.70368 0.12917,1.98305 -1.0333,1.2794 -1.54996,6.65283 -1.93745,8.95573 z"
       id="path1327"
       inkscape:connector-curvature="0" />
    <path
       style="fill:#b4b4b4;fill-opacity:1;stroke:none;stroke-width:0.26458332px;stroke-linecap:butt;stroke-linejoin:miter;stroke-opacity:1"
       d="m 288.11426,341.03423 c -27.59226,3.77976 -115.09375,13.79612 -120.00744,14.1741 -4.91369,0.37799 -5.66964,0 -2.64583,-7.37055 3.02381,-7.37052 6.4256,-18.14285 15.11905,-27.21427 8.69345,-9.07143 10.39434,-11.52827 46.49106,-21.73364 36.09674,-10.20535 40.25448,-10.29984 46.1131,-10.29984 5.85864,0 13.41815,4.5357 13.89062,18.33185 0.47247,13.79611 1.03944,34.11235 1.03944,34.11235 z"
       id="path2300"
       inkscape:connector-curvature="0" />
    <path
       style="fill:#5c5c5c;fill-opacity:0.6161137;stroke:none;stroke-width:0.26458332px;stroke-linecap:butt;stroke-linejoin:miter;stroke-opacity:1"
       d="m 265.0577,300.87424 c -7.95742,0.0695 -11.90624,4.15775 -13.60712,7.65403 -1.70089,3.49629 -3.02382,4.15774 -4.8192,4.6302 -1.79538,0.47247 -3.30728,1.13392 -6.33111,-0.37798 -3.02381,-1.51189 -6.99257,-4.34672 -13.51264,-2.45684 -6.5201,1.88988 -7.27604,4.53572 -8.97694,7.08705 -1.7009,2.55135 -1.88987,2.64583 -4.06323,3.30729 -2.17337,0.66146 -4.25226,0.94497 -6.33111,-0.18896 -2.07888,-1.13395 -7.65402,-4.53573 -13.79613,-3.02382 -6.14212,1.51191 -13.19868,9.9873 -8.69346,19.65476 4.53572,9.73289 12.66221,10.48884 17.85938,8.88243 5.19717,-1.6064 7.7485,-5.85862 9.44941,-8.40997 1.70089,-2.55132 7.08705,-2.92932 11.52826,-0.18899 4.44122,2.74033 11.90626,4.44121 18.70981,-3.21279 6.13625,-6.90328 9.35494,-7.08706 14.17412,-4.06325 3.52278,2.21038 11.15032,4.44122 19.46579,-4.15774 8.31547,-8.59896 2.65052,-25.25513 -11.05583,-25.13542 z"
       id="path2326"
       inkscape:connector-curvature="0"
       sodipodi:nodetypes="sssssssssssssssss" />
    <path
       style="fill:#383838;fill-opacity:1;stroke:none;stroke-width:0.26458332px;stroke-linecap:butt;stroke-linejoin:miter;stroke-opacity:1"
       d="m 264.96323,303.42558 c -10.20535,0.0945 -12.94569,5.1972 -13.13468,13.41817 -0.18899,8.22098 4.91368,12.85119 12.37871,12.85119 7.46504,0 13.13466,-5.10267 13.60716,-13.13468 0.47246,-8.03199 -4.25224,-13.04017 -12.85119,-13.13468 z"
       id="path2328"
       inkscape:connector-curvature="0"
       sodipodi:nodetypes="csscc" />
    <path
       style="fill:#383838;fill-opacity:1;stroke:none;stroke-width:0.26458332px;stroke-linecap:butt;stroke-linejoin:miter;stroke-opacity:1"
       d="m 231.51232,311.36309 c -8.88243,0.37799 -13.41815,6.42559 -13.51264,14.07962 -0.0945,7.65402 6.99255,12.09523 13.51265,12.18974 6.52008,0.0945 11.3393,-4.34675 11.81176,-12.56773 0.47247,-8.22097 -5.85864,-13.70163 -11.81177,-13.70163 z"
       id="path2330"
       inkscape:connector-curvature="0"
       sodipodi:nodetypes="ccccc" />
    <path
       style="fill:#383838;fill-opacity:1;stroke:none;stroke-width:0.26458332px;stroke-linecap:butt;stroke-linejoin:miter;stroke-opacity:1"
       d="m 198.34492,319.39509 c -9.26042,0.37796 -12.28423,5.10266 -12.18973,12.47321 0.0945,7.37053 5.66963,13.04018 12.00073,13.13466 6.3311,0.0945 12.00075,-4.91368 12.37873,-12.7567 0.37797,-7.84299 -6.14211,-12.85117 -12.18973,-12.85117 z"
       id="path2332"
       inkscape:connector-curvature="0"
       sodipodi:nodetypes="csccc" />
    <path
       style="fill:#4c4c4c;fill-opacity:1;stroke:none;stroke-width:0.26458332px;stroke-linecap:butt;stroke-linejoin:miter;stroke-opacity:1"
       d="m 248.96339,315.84249 c 0.0668,-1.87087 -0.46773,-2.00451 -1.87089,-1.67042 -1.40317,0.33409 -1.40317,0.73498 -0.53454,2.47224 0.86862,1.73725 1.87089,8.21854 1.60364,9.68851 -0.26728,1.47 1.67042,1.26955 2.67269,0.93546 1.00226,-0.33409 1.20271,-0.73501 0.13364,-2.07134 -1.06908,-1.33636 -1.60364,-6.94902 -2.00454,-9.35445 z"
       id="path2334"
       inkscape:connector-curvature="0" />
    <path
       style="fill:#d7d7d7;fill-opacity:1;stroke:none;stroke-width:0.26458332px;stroke-linecap:butt;stroke-linejoin:miter;stroke-opacity:1"
       d="m 293.7092,349.95924 c 0.15569,-7.08389 0.46034,-7.82838 -4.97907,-6.89409 -6.36696,1.09361 -55.34427,8.80913 -76.98406,11.10715 -21.63982,2.29803 -45.76916,4.97906 -49.40771,5.36207 -3.63855,0.38302 -4.78755,0.95751 -6.31957,5.55358 -1.53201,4.59605 -14.36271,34.66198 -15.51173,38.10902 -1.14902,3.44705 -0.38301,3.83006 5.17057,3.44705 5.55357,-0.38301 28.3424,-4.02155 45.00313,2.48954 16.66074,6.51109 28.91691,19.53326 27.9594,31.40644 -0.95752,11.87318 -1.91503,10.53264 -3.63855,12.63917 -1.72353,2.10654 0.57451,2.48954 6.89409,2.29804 6.3196,-0.19151 29.03741,-1.21636 50.93971,-22.59732 20.80409,-20.30889 20.64641,-72.57493 20.87379,-82.92065 z"
       id="path2336"
       inkscape:connector-curvature="0"
       sodipodi:nodetypes="sssssssssssss" />
    <path
       sodipodi:nodetypes="ccccc"
       inkscape:connector-curvature="0"
       id="path2340"
       d="m 231.40231,313.08662 c -7.71696,0.32839 -11.65753,5.58247 -11.73962,12.2322 -0.0821,6.64973 6.07504,10.50819 11.73963,10.59031 5.66456,0.0821 9.85145,-3.77641 10.26191,-10.9187 0.41048,-7.14228 -5.08992,-11.90381 -10.26192,-11.90381 z"
       style="fill:#ececec;fill-opacity:1;stroke:none;stroke-width:0.22986682px;stroke-linecap:butt;stroke-linejoin:miter;stroke-opacity:1" />
    <path
       sodipodi:nodetypes="csccc"
       inkscape:connector-curvature="0"
       id="path2342"
       d="m 198.34594,321.31012 c -7.87546,0.32143 -10.44703,4.33952 -10.36667,10.60775 0.0804,6.26821 4.8217,11.08991 10.20593,11.17026 5.38424,0.0804 10.20594,-4.1788 10.5274,-10.84883 0.32144,-6.67001 -5.22351,-10.92918 -10.36666,-10.92918 z"
       style="fill:#9b9b9b;fill-opacity:1;stroke:none;stroke-width:0.22501281px;stroke-linecap:butt;stroke-linejoin:miter;stroke-opacity:1" />
    <path
       sodipodi:nodetypes="csscc"
       inkscape:connector-curvature="0"
       id="path2344"
       d="m 264.94445,305.35147 c -8.70898,0.0807 -11.04751,4.43516 -11.20879,11.45072 -0.16128,7.01556 4.1932,10.96686 10.56366,10.96686 6.37047,0 11.20877,-4.35448 11.61199,-11.20879 0.40319,-6.85429 -3.62875,-11.12813 -10.96686,-11.20879 z"
       style="fill:#d98d34;fill-opacity:1;stroke:none;stroke-width:0.2257884px;stroke-linecap:butt;stroke-linejoin:miter;stroke-opacity:1" />
    <path
       inkscape:connector-curvature="0"
       id="path2346"
       d="m 214.1194,333.04764 c -0.0646,1.79112 0.45207,1.91906 1.80827,1.59922 1.3562,-0.31985 1.3562,-0.70366 0.51664,-2.36687 -0.83954,-1.6632 -1.80827,-7.86823 -1.54996,-9.27554 0.25833,-1.40734 -1.61451,-1.21544 -2.58323,-0.89559 -0.96872,0.31985 -1.16246,0.70368 -0.12917,1.98305 1.0333,1.2794 1.54996,6.65283 1.93745,8.95573 z"
       style="fill:#4c4c4c;fill-opacity:1;stroke:none;stroke-width:0.25451368px;stroke-linecap:butt;stroke-linejoin:miter;stroke-opacity:1" />
  </g>
</svg>
