<svg xmlns="http://www.w3.org/2000/svg" width="2474.34" height="2735.869" viewBox="0 0 654.669 723.865"><path d="M44.415 534.658l-12.187 7.583-21.937 18.416s-4.41 27.137-4.767 40.84c.625 5.063.65 9.913.84 13.743.192 3.83 132.33 16.66 132.33 16.66l27.001 77.942s4.165 4.309 13.31 6.128c9.958-.191 23.841 2.298 28.437 2.49 3.83-2.203-19.15-13.98-19.15-13.98l-46.65-100.22-31.416-44.957-58.5-14.083 6.23-5.688zm565.84 0l-13.542 4.874 6.23 5.688-58.5 14.083-31.415 44.957-46.651 100.22s-22.98 11.777-19.15 13.98c4.596-.192 18.48-2.681 28.438-2.49 9.144-1.819 13.31-6.128 13.31-6.128l27.001-77.942s132.137-12.83 132.328-16.66c.192-3.83.216-8.68.841-13.743-.358-13.703-4.766-40.84-4.766-40.84l-21.938-18.416z" fill="#4f4f4f"/><path d="M608.637 536.346c.267 7.75.534 13.63.534 16.303s1.07 2.406 5.346 1.47c4.276-.935 15.234-4.276 20.98 2.673 5.747 6.949 6.548 10.29 5.212 22.718-1.336 12.428-2.405 24.054-2.94 27.128-.535 3.073.802 3.34 5.345 2.806 4.544-.535 5.212-1.336 5.88-6.682.669-5.345 4.143-40.224 5.212-51.45 1.07-11.224.401-26.592-3.207-41.159-3.608-14.566-12.963-25.925-16.304-29.533-3.34-3.608-26.058 55.726-26.058 55.726z" fill="#f9f9f9"/><path d="M82.2 668.286l-9.958 32.555s-.192 18.193 9.383 16.853c9.575-1.34 94.22-1.724 97.667-1.724 3.447 0 6.511 0 4.787-2.107-1.723-2.106-3.064-3.446-9-12.447-5.937-9-12.448-22.789-16.47-32.364zm490.27 0l-76.41.766c-4.022 9.575-10.533 23.363-16.47 32.364-5.936 9-7.277 10.34-9 12.447-1.724 2.107 1.34 2.107 4.787 2.107 3.448 0 88.092.383 97.667 1.724 9.575 1.34 9.383-16.853 9.383-16.853zM163.014 671.159c6.703 16.086 15.129 32.363 22.597 39.066 7.469 6.702 12.065 7.468 21.64 8.235 9.575.765 28.725 1.149 31.79.957 3.064-.191 3.044-42.897 3.044-42.897zm328.641 0l-79.07 5.361s-.02 42.706 3.044 42.897c3.064.192 22.214-.192 31.789-.957 9.575-.767 14.171-1.533 21.64-8.235 7.469-6.703 15.894-22.98 22.597-39.066z" fill="#cdcdcd"/><path d="M11.96 609.379c27.592 3.78 115.093 13.796 120.007 14.174 4.914.378 5.67 0 2.646-7.37-3.024-7.371-6.426-18.144-15.119-27.215-8.693-9.071-10.394-11.528-46.491-21.734-36.097-10.205-40.255-10.3-46.113-10.3-5.859 0-13.418 4.536-13.89 18.332-.473 13.797-1.04 34.113-1.04 34.113z" fill="#b4b4b4"/><path d="M46.032 536.346c-.267 7.75-.534 13.63-.534 16.303s-1.07 2.406-5.345 1.47c-4.277-.935-15.235-4.276-20.981 2.673-5.746 6.949-6.548 10.29-5.212 22.718 1.336 12.428 2.406 24.054 2.94 27.128.535 3.073-.802 3.34-5.345 2.806-4.544-.535-5.212-1.336-5.88-6.682-.668-5.345-4.143-40.224-5.212-51.45-1.069-11.224-.4-26.592 3.207-41.159 3.608-14.566 12.963-25.925 16.304-29.533 3.34-3.608 26.058 55.726 26.058 55.726z" fill="#f9f9f9"/><path d="M327.07 672.753v.03l-88.03 4.887c-20.299 2.68-20.873.766-20.873 13.596 0 12.831.957 20.108 1.149 23.555.191 3.447.191 5.362 5.362 5.362 4.757 0 90.071.3 102.392.352v.003h.529v-.003c12.321-.051 97.635-.352 102.392-.352 5.17 0 5.171-1.915 5.363-5.362.191-3.447 1.148-10.724 1.148-23.555 0-12.83-.574-10.915-20.873-13.596l-88.03-4.888v-.03l-.264.015z" fill="#d8d8d8"/><path d="M50.16 541.967c-2.883-.006-2.971 1.01-3.059 3.466-.133 3.742-.267 5.212.134 8.018.401 2.806 1.069 3.074 7.216 4.677 6.147 1.604 32.073 8.686 50.514 16.036 18.442 7.35 23.119 18.175 27.128 26.594 4.01 8.419 17.922 41.221 23.214 53.128 5.292 11.906 6.331 14.551 7.56 17.386 1.228 2.835 1.795 3.402 5.67 3.686 3.874.283 92.226 4.535 109.99 5.67 15.993 1.02 39.6 1.724 48.543 1.856v.01c.073 0 .19-.004.265-.005.075 0 .192.004.264.005v-.01c8.943-.132 32.55-.836 48.543-1.857 17.765-1.134 106.117-5.386 109.99-5.67 3.875-.283 4.442-.85 5.67-3.685 1.229-2.835 2.268-5.48 7.56-17.386 5.292-11.907 19.205-44.71 23.214-53.128 4.01-8.42 8.686-19.244 27.128-26.594 18.441-7.35 44.367-14.432 50.514-16.036 6.147-1.603 6.815-1.87 7.216-4.677.4-2.806.268-4.276.134-8.018-.088-2.456-.176-3.473-3.058-3.466-1.51.004-3.787.288-7.232.793l-269.943 11.197L57.392 542.76c-3.446-.505-5.723-.79-7.232-.793z" fill="#e6e6e6"/><path d="M20.342 480.462a.456.456 0 00-.368.158c-3.341 3.608-12.696 14.967-16.304 29.534-1.82 7.348-2.89 14.9-3.368 22.022 3.106-7.859 7.713-11.839 23.913-13.14l5.215-22.929c-4.004-8.8-7.57-15.575-9.088-15.645z" fill="#f0a980"/><path d="M23.047 492.914c-6.68.924-11.064 2.045-13.952 3.267-1.842 3.495-3.54 7.415-4.788 11.64.302.926.566 1.53.566 1.53l24.722-4.009z" fill="#f8be97"/><path d="M23.07 502.269c-8.827.061-14.46 1.126-17.97 3.08a56.048 56.048 0 00-1.43 4.805c-1.314 5.306-2.237 10.719-2.83 16l22.988-6.993.957-16.892c-.585-.004-1.157-.004-1.715 0z" fill="#f9c5a1"/><path d="M11.728 517.375c-4.764.056-8.15.942-10.232 3.78-.07.469-.138.939-.204 1.407l-.056.411c-.049.36-.098.72-.144 1.08-.006.042-.01.084-.015.127-.054.425-.107.85-.157 1.273l-.038.337c-.041.362-.082.724-.12 1.085l-.034.325c-.039.374-.077.747-.112 1.119l-.023.238a133.295 133.295 0 00-.277 3.442c1.995-4.647 5.688-6.73 15.562-7.459 5.104-.376 9.077-.22 12.061-.915 0-1.372-.48-4.182-1.417-5.32-5.914-.451-10.83-.977-14.794-.93z" fill="#f39353"/><path d="M634.327 480.462a.456.456 0 01.368.158c3.341 3.608 12.696 14.967 16.304 29.534 1.82 7.348 2.89 14.9 3.369 22.022-3.107-7.859-7.714-11.839-23.914-13.14l-5.215-22.929c4.004-8.8 7.57-15.575 9.088-15.645z" fill="#f0a980"/><path d="M631.622 492.914c6.68.924 11.064 2.045 13.952 3.267 1.843 3.495 3.54 7.415 4.788 11.64-.301.926-.566 1.53-.566 1.53l-24.722-4.009z" fill="#f8be97"/><path d="M631.6 502.269c8.826.061 14.46 1.126 17.97 3.08a56.044 56.044 0 011.429 4.805c1.314 5.306 2.237 10.719 2.83 16l-22.988-6.993-.957-16.892a122.56 122.56 0 011.715 0z" fill="#f9c5a1"/><path d="M642.941 517.375c4.764.056 8.15.942 10.232 3.78.07.469.138.939.204 1.407l.056.411c.049.36.098.72.144 1.08l.016.127c.054.425.106.85.156 1.273l.038.337c.041.362.082.724.12 1.085l.034.325c.04.374.077.747.112 1.119l.023.238a133.295 133.295 0 01.277 3.442c-1.995-4.647-5.688-6.73-15.562-7.459-5.104-.376-9.076-.22-12.06-.915 0-1.372.48-4.182 1.417-5.32 5.913-.451 10.83-.977 14.793-.93z" fill="#f39353"/><path d="M327.07 0v.01C274.575 1.175 216.11 1.4 179.214 1.782c-16.556.172-39.28-.073-52.947-.005-18.428.092-37.752.738-56.18 2.128-23.05 1.738-34.479 5.93-42.073 34.043-8.131 30.1-9.323 35.754-11.397 79.714-1.645 34.87-2.523 102.371-4.127 141.125-1.604 38.754-1.069 115.728.535 142.188 1.603 26.46 6.147 91.139 8.552 113.055 2.406 21.916 7.75 23.787 27.529 23.787l-4.452-323.233S116.262 34.845 111.928 30.24c47.931-2.18 180.195-8.794 215.344-9.9.019.172.04.184.063.03.023.154.043.142.062-.03 35.149 1.106 167.413 7.72 215.344 9.9-4.333 4.604 67.274 184.342 67.274 184.342l-4.452 323.233c19.778 0 25.123-1.871 27.529-23.787 2.405-21.916 6.949-86.595 8.552-113.055 1.604-26.46 2.139-103.434.535-142.188-1.603-38.754-2.481-106.254-4.127-141.125-2.074-43.96-3.266-49.613-11.397-79.714-7.594-28.113-19.023-32.305-42.072-34.043-18.428-1.39-37.753-2.036-56.18-2.128-13.668-.068-36.392.177-52.948.005-36.897-.382-95.36-.607-147.856-1.77V0c-.087.003-.177.004-.264.006-.088-.003-.177-.004-.265-.006z" fill="#f4f4f4"/><path d="M327.07 12.964v.002c-27.976.078-152.61.974-202.575 2.453-42.119 1.247-61.478 3.277-69.91 16.858-9.545 15.375-12.701 31.11-16.052 100.041-3.655 75.184-5.974 206.997.83 302.247 6.803 95.25 6.803 93.095 7.07 98.975.267 5.88 1.337 7.483 9.622 9.087 8.286 1.604 44.54 10.244 125.049 14.402 72.266 3.732 131.032 4.717 145.966 4.881v.007l.265-.004.264.004v-.007c14.934-.164 73.7-1.149 145.966-4.88 80.51-4.159 116.764-12.8 125.049-14.403 8.285-1.604 9.355-3.207 9.622-9.087.267-5.88.267-3.725 7.07-98.975 6.804-95.25 4.485-227.063.83-302.247-3.35-68.931-6.506-84.666-16.052-100.04-8.432-13.582-27.79-15.612-69.91-16.86-49.964-1.478-174.599-2.374-202.575-2.452v-.002h-.529z" fill="#181818"/><path d="M327.07 162.511v.005c-72.946.708-261.692 1.237-267.485 1.418-6.048.189-5.86-.19-6.237 6.047-.378 6.237-6.048 72.194-6.615 119.63-.567 47.436 2.479 110.888 4.914 144.01 1.89 25.702 2.268 26.268 3.402 34.773 1.03 7.717 2.268 9.638 8.694 10.016 6.425.378 119.44 5.292 150.056 5.67 21.437.264 84.946.712 113.27.828v.003c.07 0 .195 0 .266-.003.07 0 .195 0 .264.003v-.003c28.325-.116 91.834-.564 113.271-.828 30.616-.378 143.63-5.292 150.057-5.67 6.425-.378 7.664-2.3 8.693-10.016 1.134-8.505 1.512-9.071 3.402-34.774 2.435-33.121 5.48-96.573 4.914-144.01-.567-47.435-6.237-113.392-6.615-119.629-.378-6.236-.189-5.858-6.237-6.047-5.792-.181-194.539-.71-267.485-1.418v-.005l-.264.003-.265-.003z" fill="#2e2e2e"/><path d="M327.07 40.926v.005c-61.866.72-155.25-.472-217.514 2.488-33.56 1.595-39.88 26.593-43.89 42.662-3.44 13.785-5.067 28.647-8.007 42.545-2.94 13.898-1.337 14.433 12.561 14.165 13.218-.254 193.81-1.231 256.85-.867v.003h.529v-.003c63.04-.364 243.632.613 256.85.867 13.898.268 15.501-.267 12.561-14.165-2.94-13.898-4.567-28.76-8.007-42.545-4.009-16.069-10.33-41.067-43.89-42.662-62.265-2.96-155.647-1.768-217.514-2.488v-.005l-.264.002-.265-.002z" fill="#393939"/><path d="M35.016 569.219c7.958.07 11.907 4.158 13.607 7.654 1.701 3.496 3.024 4.158 4.82 4.63 1.795.472 3.307 1.134 6.33-.378 3.025-1.512 6.993-4.347 13.513-2.457 6.52 1.89 7.276 4.536 8.977 7.087 1.701 2.552 1.89 2.646 4.064 3.308 2.173.661 4.252.944 6.33-.19 2.08-1.133 7.655-4.535 13.797-3.023s13.198 9.987 8.693 19.654c-4.535 9.733-12.662 10.49-17.86 8.883-5.196-1.606-7.748-5.859-9.449-8.41-1.7-2.551-7.087-2.93-11.528-.189-4.441 2.74-11.906 4.441-18.71-3.213-6.136-6.903-9.355-7.087-14.174-4.063-3.523 2.21-11.15 4.441-19.466-4.158-8.315-8.599-2.65-25.255 11.056-25.135z" fill="#5c5c5c" fill-opacity=".616"/><path d="M35.11 571.77c10.206.095 12.946 5.197 13.135 13.418.19 8.221-4.913 12.851-12.378 12.851s-13.135-5.102-13.607-13.134c-.473-8.032 4.252-13.04 12.85-13.135zM68.562 579.708c8.882.378 13.418 6.425 13.512 14.08.095 7.653-6.992 12.094-13.512 12.189-6.52.094-11.34-4.347-11.812-12.568-.473-8.22 5.859-13.701 11.812-13.701zM101.73 587.74c9.26.378 12.283 5.102 12.189 12.473-.095 7.37-5.67 13.04-12 13.134-6.332.095-12.002-4.913-12.38-12.756-.378-7.843 6.142-12.851 12.19-12.851z" fill="#383838"/><path d="M51.11 584.187c-.066-1.87.468-2.005 1.871-1.67 1.404.334 1.404.735.535 2.472-.869 1.737-1.87 8.218-1.604 9.688.268 1.47-1.67 1.27-2.672.936-1.003-.334-1.203-.735-.134-2.072 1.07-1.336 1.604-6.949 2.005-9.354z" fill="#4c4c4c"/><path d="M6.365 618.304c-.156-7.084-.46-7.829 4.979-6.894 6.367 1.093 55.344 8.809 76.984 11.107 21.64 2.298 45.77 4.979 49.408 5.362 3.638.383 4.787.957 6.32 5.553 1.531 4.597 14.362 34.662 15.51 38.11 1.15 3.447.384 3.83-5.17 3.447-5.553-.383-28.342-4.022-45.003 2.49-16.66 6.51-28.917 19.532-27.96 31.406.958 11.873 1.916 10.532 3.64 12.639 1.723 2.106-.575 2.49-6.895 2.298-6.32-.192-29.037-1.217-50.94-22.598-20.804-20.308-20.646-72.575-20.873-82.92z" fill="#d7d7d7"/><path d="M43.284 489.169c2.896 40.038 2.948 39.954 3.15 44.37.266 5.88 1.336 7.484 9.621 9.088 8.286 1.603 44.54 10.244 125.049 14.402 72.266 3.732 131.032 4.717 145.966 4.88v.008l.265-.004.264.004v-.007c14.934-.164 73.7-1.149 145.966-4.881 80.51-4.158 116.764-12.799 125.049-14.402 8.285-1.604 9.355-3.208 9.622-9.087.2-4.417.253-4.333 3.149-44.371-33.53 2.846-148.512 8.943-189.054 10.786-42.13 1.915-84.26 1.15-94.602 1.15-.134 0-.265.014-.394.036a2.356 2.356 0 00-.395-.037c-10.341 0-52.471.766-94.602-1.149-40.542-1.843-155.523-7.94-189.054-10.786z" fill="#212121"/><path d="M68.672 581.431c7.717.329 11.657 5.583 11.74 12.232.081 6.65-6.076 10.509-11.74 10.59-5.665.083-9.852-3.776-10.262-10.918-.41-7.142 5.09-11.904 10.262-11.904z" fill="#ececec"/><path d="M101.728 589.655c7.876.321 10.447 4.34 10.367 10.607-.08 6.269-4.822 11.09-10.206 11.17-5.384.081-10.206-4.178-10.528-10.848-.321-6.67 5.224-10.93 10.367-10.93z" fill="#9b9b9b"/><path d="M35.13 573.696c8.709.08 11.047 4.435 11.208 11.45.162 7.016-4.193 10.968-10.563 10.968-6.37 0-11.21-4.355-11.612-11.21-.404-6.854 3.628-11.127 10.967-11.208z" fill="#d98d34"/><path d="M85.955 601.392c.064 1.791-.452 1.92-1.809 1.6-1.356-.32-1.356-.704-.516-2.367.84-1.664 1.808-7.869 1.55-9.276-.259-1.407 1.614-1.215 2.583-.896.969.32 1.162.704.129 1.983-1.033 1.28-1.55 6.653-1.937 8.956z" fill="#4c4c4c"/><path d="M642.71 609.379c-27.593 3.78-115.094 13.796-120.008 14.174-4.914.378-5.67 0-2.646-7.37 3.024-7.371 6.426-18.144 15.12-27.215 8.693-9.071 10.394-11.528 46.49-21.734 36.097-10.205 40.255-10.3 46.113-10.3 5.859 0 13.418 4.536 13.891 18.332.472 13.797 1.04 34.113 1.04 34.113z" fill="#b4b4b4"/><path d="M619.653 569.219c-7.958.07-11.906 4.158-13.607 7.654-1.701 3.496-3.024 4.158-4.82 4.63-1.795.472-3.307 1.134-6.33-.378-3.024-1.512-6.993-4.347-13.513-2.457-6.52 1.89-7.276 4.536-8.977 7.087-1.701 2.552-1.89 2.646-4.063 3.308-2.174.661-4.253.944-6.332-.19-2.078-1.133-7.654-4.535-13.796-3.023-6.142 1.512-13.198 9.987-8.693 19.654 4.536 9.733 12.662 10.49 17.86 8.883 5.196-1.606 7.748-5.859 9.449-8.41 1.7-2.551 7.087-2.93 11.528-.189 4.441 2.74 11.906 4.441 18.71-3.213 6.136-6.903 9.355-7.087 14.174-4.063 3.523 2.21 11.15 4.441 19.466-4.158 8.315-8.599 2.65-25.255-11.056-25.135z" fill="#5c5c5c" fill-opacity=".616"/><path d="M619.558 571.77c-10.205.095-12.945 5.197-13.134 13.418-.19 8.221 4.913 12.851 12.378 12.851s13.135-5.102 13.608-13.134c.472-8.032-4.253-13.04-12.852-13.135zM586.107 579.708c-8.882.378-13.418 6.425-13.512 14.08-.095 7.653 6.992 12.094 13.512 12.189 6.52.094 11.34-4.347 11.812-12.568.473-8.22-5.858-13.701-11.812-13.701zM552.94 587.74c-9.26.378-12.284 5.102-12.19 12.473.095 7.37 5.67 13.04 12.001 13.134 6.331.095 12-4.913 12.379-12.756.378-7.843-6.142-12.851-12.19-12.851z" fill="#383838"/><path d="M603.559 584.187c.066-1.87-.468-2.005-1.871-1.67-1.404.334-1.404.735-.535 2.472.869 1.737 1.871 8.218 1.604 9.688-.268 1.47 1.67 1.27 2.672.936 1.003-.334 1.203-.735.134-2.072-1.069-1.336-1.604-6.949-2.004-9.354z" fill="#4c4c4c"/><path d="M648.304 618.304c.156-7.084.46-7.829-4.979-6.894-6.367 1.093-55.344 8.809-76.984 11.107-21.64 2.298-45.769 4.979-49.407 5.362-3.639.383-4.788.957-6.32 5.553-1.532 4.597-14.363 34.662-15.512 38.11-1.149 3.447-.383 3.83 5.17 3.447 5.554-.383 28.343-4.022 45.004 2.49 16.66 6.51 28.917 19.532 27.96 31.406-.958 11.873-1.916 10.532-3.64 12.639-1.723 2.106.575 2.49 6.895 2.298 6.32-.192 29.037-1.217 50.94-22.598 20.804-20.308 20.646-72.575 20.873-82.92z" fill="#d7d7d7"/><path d="M585.997 581.431c-7.717.329-11.657 5.583-11.74 12.232-.081 6.65 6.076 10.509 11.74 10.59 5.665.083 9.852-3.776 10.262-10.918.41-7.142-5.09-11.904-10.262-11.904z" fill="#ececec"/><path d="M552.941 589.655c-7.875.321-10.447 4.34-10.367 10.607.08 6.269 4.822 11.09 10.206 11.17 5.385.081 10.206-4.178 10.528-10.848.321-6.67-5.224-10.93-10.367-10.93z" fill="#9b9b9b"/><path d="M619.54 573.696c-8.71.08-11.048 4.435-11.21 11.45-.16 7.016 4.194 10.968 10.564 10.968s11.21-4.355 11.612-11.21c.404-6.854-3.628-11.127-10.966-11.208z" fill="#d98d34"/><path d="M568.715 601.392c-.065 1.791.452 1.92 1.808 1.6 1.356-.32 1.356-.704.516-2.367-.84-1.664-1.808-7.869-1.55-9.276.259-1.407-1.614-1.215-2.583-.896-.968.32-1.162.704-.129 1.983 1.033 1.28 1.55 6.653 1.938 8.956z" fill="#4c4c4c"/></svg>