<svg xmlns="http://www.w3.org/2000/svg" viewBox="0 0 609.251 672.937" height="2543.384" width="2302.679"><path d="M1.007 492.333c-.109 11.72-.109 22.355.326 27.13.434 4.775 1.302 15.193 1.302 15.193l19.316 11.828 32.34 10.961 9.549-.217 79.436 1.085-1.41-7.813-39.719-47.315-9.55-.976zM608.244 492.333c.108 11.72.108 22.355-.326 27.13-.434 4.775-1.302 15.193-1.302 15.193l-19.317 11.828-32.339 10.961-9.55-.217-79.436 1.085 1.411-7.813 39.718-47.315 9.55-.976z" fill="#323232"/><path d="M76.21 482.328c-6.427-.066 13.132 24.33 13.132 24.33l15.844-.651 34.726 37.114-.868 14.975-72.708-3.256-11.286-.434 9.448 26.905 51.49 74.74s6.599 7.443 10.589 7.29c3.99-.154 5.985-.998 12.661-1.228 6.676-.23 0-4.22 0-4.22l-65.685-97.914 66.576 2.24 164.496 2.112v-12.154l-152.993-7.754-45.361-48.834s-9.984-13.022-14.107-12.805c-4.124.217-8.248.434-15.627-.434a3.094 3.094 0 00-.326-.022zm456.83 0c-.102 0-.21.008-.326.022-7.38.868-11.503.65-15.627.434-4.124-.217-14.107 12.805-14.107 12.805l-45.362 48.834-152.992 7.754v12.154l164.495-2.111 66.577-2.241-65.686 97.914s-6.676 3.99 0 4.22c6.676.23 8.671 1.074 12.662 1.228 3.99.153 10.59-7.29 10.59-7.29l51.489-74.74 9.448-26.905-11.286.434-72.708 3.256-.868-14.975 34.726-37.114 15.844.65s19.559-24.395 13.131-24.33z" fill="#b5b5b5"/><path d="M304.552.002c-23.06-.063-81.223 1.427-132.726 4.471-58.86 3.48-136.28 9.279-150.777 13.048l-5.799 6.96-4.06 113.082h293.435V.003h-.073zm.146 0h-.072v137.561H598.06L594 24.481l-5.798-6.96c-14.498-3.77-91.916-9.568-150.777-13.048C385.92 1.43 327.758-.06 304.698.002z" fill="#212121"/><path d="M245.124 39.238a3974.66 3974.66 0 00-35.29.171c-65.07.614-161.143 3.376-169.124 4.604-7.98 1.228-9.515.307-10.743 6.753-3.069 13.505-11.97 83.794-13.198 89.32-1.227 5.524 254.453-2.456 254.453-2.456l33.403-1.785v-96.25c-15.943-.19-36.263-.37-59.501-.357zm119.003 0c-23.238-.012-43.558.167-59.501.357v96.25l33.403 1.785s255.68 7.98 254.452 2.455c-1.227-5.525-10.128-75.814-13.198-89.32-1.228-6.445-2.762-5.524-10.743-6.752-7.98-1.228-104.053-3.99-169.124-4.604-12.2-.115-24.045-.165-35.29-.171z" fill="#242424"/><path d="M304.625 135.082l-292.602 2.412-2.46 51.667-1.64 126.298v96.774l19.682 40.186 277.02 10.924zm0 0v328.261l277.02-10.924 19.683-40.186V315.46l-1.64-126.298-2.46-51.667z" fill="#2a2a2a"/><path d="M24.124 12.687a9.356 9.356 0 00-3.08.56c-5.74 2.05-9.842 7.79-11.072 29.114-1.23 21.323-4.51 239.474-5.33 277.609-.82 38.135-1.23 61.508-.82 91.853.41 30.344 18.042 75.45 18.042 75.45l45.517-20.912 237.244-1.609v-15.16c-35.18.445-172.617 1.557-202.39.366-30.754-1.23-76.68 3.69-85.292-34.035-8.61-37.725-5.33-145.16-4.51-173.864.82-28.704 1.64-83.242 2.05-90.213.41-6.971 2.05-8.201 9.432-8.611 6.778-.377 235.403-.752 280.71-.493v-11.807c-28.56.005-277.06.408-283.171.408-6.151 0-5.33-3.28-5.33-8.201 0-4.921.41-74.22 2.05-84.062 1.64-9.842 2.87-19.683 8.2-21.733 4.332-1.666 1.895-4.686-2.25-4.66zm561.002 0c-4.145-.026-6.581 2.994-2.25 4.66 5.33 2.05 6.561 11.891 8.201 21.733 1.64 9.841 2.05 79.141 2.05 84.062 0 4.92.82 8.2-5.33 8.2-6.111 0-254.612-.402-283.171-.407v11.807c45.306-.259 273.932.116 280.71.493 7.381.41 9.022 1.64 9.432 8.61.41 6.972 1.23 61.51 2.05 90.214.82 28.704 4.1 136.139-4.51 173.864-8.612 37.726-54.538 32.805-85.293 34.035-29.772 1.191-167.209.079-202.39-.366v15.16l237.245 1.609 45.517 20.912s17.632-45.106 18.042-75.45c.41-30.345 0-53.718-.82-91.853-.82-38.135-4.1-256.286-5.33-277.61-1.23-21.322-5.331-27.064-11.072-29.114a9.356 9.356 0 00-3.08-.559z" fill="#181818"/><path d="M2.786 377.953c-.007.248-.012.547-.018.805.018-.28.03-.546.018-.805zm-.018.805c-.063.997-.242 2.267-.087 4.783.023-1.743.052-3.344.087-4.783zm-.087 4.783c-.239 17.838.104 51.23.442 92.895l63.16 10.813 190.5 6.958 47.842-1.904v-36.471c-2.773.009-6.014.039-10.148.101-18.119.235-217.253.14-240.219-1.464-18.906-1.321-36.722-12.194-42.618-32.138-6.94-23.475-8.645-33.69-8.96-38.79zm603.784-5.588c-.011.259 0 .525.017.805-.006-.258-.01-.557-.017-.805zm.017.805c.036 1.439.064 3.04.088 4.783.155-2.516-.024-3.786-.088-4.783zm.088 4.783c-.314 5.1-2.02 15.315-8.96 38.79-5.895 19.944-23.712 30.817-42.618 32.138-22.966 1.605-222.1 1.699-240.218 1.464a849.23 849.23 0 00-10.149-.101v36.471l47.843 1.904 190.5-6.958 63.16-10.813c.337-41.666.68-75.057.442-92.895z" fill="#242424"/><path d="M.647 515.679c-.584.12-.716 9.83-.617 21.878.519 17.005 1.089 108.663 1.528 116.03.439 7.367.263 9.07 3.325 13.58 3.06 4.51 6.865 7.315 6.844 4.858-.02-2.457 2.619-3.235 22.065-5.664s85.59-2.976 91.26-3.023c5.669-.047 6.04-.806 2.98-5.317-3.062-4.51-20.856-30.822-33.487-49.806-12.63-18.984-32.356-50.383-35.418-54.893-3.06-4.51-4.398-6.201-10.073-6.91-5.676-.709-15.146-3.088-30.299-7.12C3.602 535.26 2.601 528.464 1.39 519.025c-.303-2.36-.548-3.386-.742-3.346zm607.957 0c-.195-.04-.44.986-.743 3.346-1.212 9.44-2.213 16.235-17.366 20.267-15.152 4.032-24.622 6.411-30.298 7.12-5.676.709-7.012 2.4-10.074 6.91-3.061 4.51-22.787 35.909-35.418 54.893-12.63 18.984-30.425 45.296-33.486 49.806-3.061 4.51-2.69 5.27 2.98 5.317 5.67.047 71.813.594 91.26 3.023 19.446 2.43 22.085 3.207 22.064 5.664-.02 2.457 3.784-.347 6.845-4.858 3.061-4.51 2.886-6.213 3.325-13.58.439-7.367 1.009-99.025 1.527-116.03.1-12.047-.032-21.758-.616-21.878zM60.496 548.581c-1.808.036-2.517.853-.808 3.98 5.37 9.406 23.364 37.039 28.342 44.747 4.977 7.707 37.89 56.762 41.517 61.08 3.627 4.316 4.568 3.93 10.992 3.688 6.424-.242 86.366-.526 129.832-.885 7.988-.067 20.007-.082 34.254-.065V557.463c-20.312-.089-38.86-.182-54.201-.055-37.986.315-96.78-1.656-120.226-2.974-23.446-1.318-60.329-4.792-64.869-5.321-1.844-.215-3.596-.556-4.833-.532zm488.259 0c-1.237-.024-2.989.317-4.833.532-4.54.529-41.423 4.003-64.87 5.321-23.446 1.318-82.24 3.289-120.225 2.974-15.341-.127-33.889-.034-54.201.055v103.663c14.247-.017 26.266-.002 34.254.065 43.466.36 123.408.643 129.832.885 6.423.242 7.365.628 10.992-3.689 3.626-4.317 36.54-53.372 41.517-61.08 4.978-7.707 22.972-35.34 28.342-44.746 1.709-3.127 1-3.944-.808-3.98z" fill="#e8e8e8"/><path d="M.967 490.868c.052 6.239-.519 5.863 4.039 8.471 4.557 2.608 17.808 5.144 36.153 6.694 18.346 1.549 50.115 3.743 54.461 3.707 4.347-.036 3.199-1.728-.43-6.423-3.63-4.694-9.172-12.02-11.288-16.538-2.117-4.518-1.921-3.764-6.652-4.48-4.731-.717-25.902-1.109-34.813-4.626-8.912-3.517-21.704-19.098-28.675-39.263-6.97-20.164-8.414-34.705-8.946-53.411-.533-18.706-1.445-37.598-2.004-13.78C2.252 395.037.893 481.983.967 490.868z" fill="#f2f2f2"/><path d="M92.564 482.928c-5.859.048-9.829-.108-4.489 5.707 8.801 12.967 36.705 50.535 41.483 56.922 4.777 6.386 5.546 7.891 16.134 8.37 10.587.48 89.218 1.53 120.406 2.028 10.505.168 24.174.24 38.527.263v-70.783c-2.422-.017-4.6-.034-6.226-.053-28.919-.328-199.977-2.502-205.835-2.454zm424.123 0c-5.858-.048-176.917 2.126-205.835 2.454-1.626.019-3.804.036-6.226.053v70.783c14.353-.022 28.021-.095 38.526-.263 31.189-.498 109.82-1.548 120.407-2.027 10.588-.48 11.356-1.985 16.134-8.371 4.778-6.387 32.682-43.955 41.483-56.922 5.34-5.815 1.37-5.659-4.489-5.707z" fill="#f1f1f1"/><path d="M.168 543.785c.306 16.778.623 53.605.917 80.22l99.288 26.52 22.824.351c-6.902-10.213-19.211-28.472-28.652-42.661-7.746-11.643-17.806-27.4-25.409-39.315-37.382-5.336-56.896-12.131-68.968-25.115zm608.915 0c-12.072 12.984-31.587 19.779-68.968 25.115-7.603 11.916-17.663 27.672-25.41 39.315-9.44 14.189-21.75 32.448-28.651 42.661l22.824-.351 99.288-26.52c.294-26.615.61-63.442.917-80.22zM69.817 568.998c6.995 11.026 15.118 23.518 18.213 28.31 3.967 6.143 25.643 38.494 36.13 53.583l180.465 2.78v-72.808c-119.188-.16-172.17-3.002-234.808-11.865zm469.617 0c-62.639 8.863-115.62 11.704-234.808 11.865v72.808l180.465-2.78c10.487-15.089 32.163-47.44 36.13-53.583 3.095-4.792 11.218-17.284 18.213-28.31z" fill="#e1e1e1"/><path d="M.63 580.082c.33 31.594.654 68.914.928 73.505.439 7.367.263 9.07 3.325 13.58 3.06 4.51 6.865 7.315 6.844 4.858-.02-2.457 2.619-3.235 22.065-5.664s85.59-2.976 91.26-3.023c5.669-.047 6.04-.806 2.98-5.317-1.838-2.708-9.097-13.447-17.25-25.569C28.86 620.845 10.587 604.363.628 580.082zm607.991 0c-9.959 24.281-28.23 40.763-110.151 52.37a10012.828 10012.828 0 01-17.251 25.57c-3.061 4.51-2.69 5.269 2.98 5.316 5.67.047 71.813.594 91.26 3.023 19.446 2.43 22.085 3.207 22.064 5.664-.02 2.457 3.784-.347 6.845-4.858 3.061-4.51 2.886-6.213 3.325-13.58.273-4.59.597-41.911.928-73.505zm-496.983 52.492c8.432 12.448 16.251 23.84 17.909 25.813 3.627 4.317 4.568 3.93 10.992 3.689 6.424-.242 86.366-.526 129.832-.885 7.988-.067 20.007-.082 34.254-.065v-12.665c-55.618-.658-114.943-5.428-187.824-15.178-1.75-.235-3.467-.471-5.163-.71zm385.974 0a789.25 789.25 0 01-5.163.709c-72.88 9.75-132.205 14.52-187.823 15.178v12.665c14.247-.017 26.266-.002 34.254.065 43.466.36 123.408.643 129.832.885 6.423.242 7.365.628 10.992-3.689 1.658-1.973 9.476-13.365 17.908-25.813z" fill="#d5d5d5"/><path d="M181.903 44.353c-37.897.01-69.848.178-72.131.581-5.218.92-5.832 1.228-6.139 8.287-.307 7.06.307 61.388.614 67.527.307 6.139 2.149 7.06 7.98 7.06 5.281 0 159.366-.503 192.398-.826V44.896c-20.149-.325-75.829-.555-122.722-.543zm245.445 0c-46.894-.012-102.574.218-122.722.543v82.086c33.032.323 187.116.826 192.397.826 5.832 0 7.674-.921 7.98-7.06.307-6.139.921-60.467.614-67.527-.306-7.06-.92-7.366-6.138-8.287-2.283-.403-34.235-.57-72.131-.58z" fill="#282828"/><path d="M267.649 52.18c-56.472-.014-146.827.274-150.51.734-4.912.614-4.912 2.456-5.218 9.209-.307 6.752.307 47.882.307 52.18 0 4.297 2.762 4.603 9.515 4.91 6.171.28 152.76-.464 182.882-1.063V52.272c-7.786-.056-20.818-.087-36.976-.091zm73.953 0c-16.158.005-29.19.036-36.976.092v65.878c30.122.6 176.71 1.344 182.882 1.063 6.753-.307 9.515-.613 9.515-4.91 0-4.298.614-45.428.307-52.18-.307-6.753-.307-8.595-5.218-9.209-3.683-.46-94.038-.748-150.51-.733z" fill="#2e2e2e"/><path d="M60.259 76.703c12.805-.217 13.456-7.596 13.022-15.192-.434-7.597-5.426-11.503-13.89-11.503-8.465 0-12.372 6.728-12.589 13.89-.217 7.162 3.69 13.022 13.457 12.805z" fill="#d0d0d0"/><path d="M70.637 91.896c5.679 0 6.753.767 6.753 8.748 0 7.98-.921 9.054-4.758 9.515-3.837.46-13.659.767-17.495.46-3.837-.307-4.758-.92-5.065-8.594-.307-7.674-.46-9.362 2.763-9.669 3.223-.307 12.43-.767 17.802-.46z" fill="#da7d26"/><path d="M9.797 508.72c-.868-4.775-1.194-5.969 2.496-5.1 3.69.867 22.138 4.774 49.593 6.727 27.456 1.954 34.618 1.737 37.657 1.954 3.038.217 4.123.65 6.836 3.907 2.713 3.255 21.813 30.06 24.092 32.881 2.279 2.821 1.194 4.232-1.52 4.232-2.712 0-30.819-1.628-50.678-3.798-19.86-2.17-51.113-8.682-53.934-9.441-2.822-.76-4.341-2.17-5.643-4.775-1.303-2.604-7.597-18.665-8.899-26.587z" fill="#3c3c3c"/><path d="M21.45 510.638c2.993 0 4.144 1.612 4.22 3.376.077 1.765-.92 2.84-2.992 2.763-2.072-.077-3.146-1.381-3.223-2.916-.077-1.535.23-3.146 1.995-3.223zM24.136 518.158c2.148-.077 2.992.921 3.223 2.61.23 1.687-1.228 2.838-2.533 2.915-1.304.077-2.685-.92-3.146-2.686-.46-1.765.384-2.609 2.456-2.839zM27.666 524.988c2.302.076 3.376 1.764 3.376 3.683 0 1.918-1.535 3.07-3.07 3.07-1.534 0-2.992-1.229-3.146-3.377-.153-2.149 1.151-3.146 2.84-3.376zM33.497 531.97c1.996.23 2.993 1.842 2.993 3.377 0 1.534-1.688 2.302-3.146 2.225-1.458-.077-2.225-1.228-2.379-2.916-.153-1.688 1.074-2.609 2.532-2.686z" fill="#e8a933"/><g fill="#e8e8e8"><path d="M29.06 511.867c1.301.054 1.627.922 1.681 1.736.055.814-.65 1.574-1.465 1.574-.814 0-1.573-.597-1.627-1.574-.055-.977.162-1.682 1.41-1.736zM30.687 516.153c1.302.055 1.628.923 1.682 1.737.054.813-.651 1.573-1.465 1.573-.814 0-1.573-.597-1.628-1.573-.054-.977.163-1.682 1.411-1.737zM32.26 520.603c1.303.054 1.628.922 1.683 1.736.054.814-.651 1.573-1.465 1.573-.814 0-1.574-.596-1.628-1.573-.054-.977.163-1.682 1.41-1.736zM34.268 524.672c1.302.054 1.628.922 1.682 1.736.055.814-.65 1.574-1.465 1.574-.814 0-1.573-.597-1.628-1.574-.054-.976.163-1.682 1.411-1.736zM36.818 528.687c1.303.055 1.628.923 1.682 1.737.055.813-.65 1.573-1.465 1.573-.813 0-1.573-.597-1.627-1.573-.055-.977.162-1.682 1.41-1.737zM40.291 532.92c1.302.054 1.628.922 1.682 1.736.054.814-.651 1.573-1.465 1.573-.814 0-1.573-.596-1.628-1.573-.054-.977.163-1.682 1.411-1.736zM44.508 535.47c1.387.058 1.734.983 1.792 1.85.058.867-.694 1.677-1.561 1.677s-1.677-.636-1.734-1.677c-.058-1.04.173-1.792 1.503-1.85zM49.988 537.152c1.388.058 1.735.983 1.792 1.85.058.867-.693 1.677-1.56 1.677-.868 0-1.677-.636-1.735-1.677-.058-1.04.173-1.792 1.503-1.85zM54.98 538.128c1.388.058 1.734.983 1.792 1.85.058.868-.694 1.677-1.56 1.677-.868 0-1.678-.636-1.735-1.676-.058-1.041.173-1.793 1.503-1.85zM60.189 539.05c1.387.059 1.734.984 1.792 1.851.058.867-.694 1.677-1.56 1.677-.868 0-1.678-.636-1.735-1.677-.058-1.04.173-1.792 1.503-1.85zM65.29 539.702c1.387.058 1.734.983 1.792 1.85.058.867-.694 1.677-1.561 1.677-.868 0-1.677-.636-1.735-1.677-.058-1.04.173-1.792 1.503-1.85zM70.328 540.353c1.43.06 1.788 1.013 1.847 1.907.06.894-.715 1.729-1.609 1.729s-1.728-.656-1.788-1.729c-.06-1.073.179-1.847 1.55-1.907zM75.862 541.167c1.43.06 1.788 1.013 1.848 1.907.06.894-.715 1.728-1.61 1.728-.893 0-1.728-.655-1.787-1.728-.06-1.073.178-1.847 1.55-1.907zM81.125 541.71c1.43.06 1.788 1.013 1.848 1.907.06.894-.715 1.728-1.61 1.728-.893 0-1.728-.656-1.787-1.728-.06-1.073.179-1.848 1.55-1.907zM86.443 542.198c1.43.06 1.788 1.013 1.847 1.907.06.894-.715 1.728-1.609 1.728s-1.728-.655-1.788-1.728c-.06-1.073.18-1.847 1.55-1.907zM91.869 542.795c1.43.06 1.788 1.013 1.847 1.907.06.894-.715 1.728-1.609 1.728s-1.728-.655-1.788-1.728c-.06-1.073.18-1.848 1.55-1.907zM97.24 543.283c1.43.06 1.788 1.013 1.848 1.907.06.894-.715 1.729-1.61 1.729-.893 0-1.727-.656-1.787-1.729-.06-1.072.179-1.847 1.55-1.907zM102.612 543.663c1.43.06 1.788 1.013 1.848 1.907.06.894-.715 1.728-1.61 1.728-.893 0-1.728-.655-1.787-1.728-.06-1.073.179-1.847 1.55-1.907zM108.093 544.097c1.43.06 1.787 1.013 1.847 1.907.06.894-.715 1.728-1.61 1.728-.893 0-1.727-.655-1.787-1.728-.06-1.073.179-1.847 1.55-1.907zM113.627 544.531c1.43.06 1.788 1.013 1.847 1.907.06.894-.715 1.729-1.609 1.729s-1.728-.656-1.788-1.729c-.06-1.072.18-1.847 1.55-1.907zM119.053 544.857c1.43.06 1.788 1.013 1.847 1.907.06.894-.715 1.728-1.609 1.728s-1.728-.655-1.788-1.728c-.06-1.073.18-1.848 1.55-1.907z"/></g><path d="M57.139 535.923c8 .098 11.706-5.366 11.609-11.804-.098-6.439-5.073-10.439-11.902-10.341-6.829.098-10.926 5.853-10.828 12.097.097 6.243 3.512 9.658 11.12 10.048z" fill="#dadada"/><path d="M88.552 539.63c8.682.098 12.292-6.829 11.999-11.414-.293-4.585-3.317-12.194-12-12.097-8.682.098-11.804 5.268-11.804 12.487 0 7.22 4.878 10.829 11.805 11.024z" fill="#bebebe"/><path d="M304.625 610.967l-53.689.674.693 35.75c8.597.463 45.056 1.433 52.996 1.4zm0 0v37.824c7.94.033 44.399-.937 52.996-1.4l.693-35.75z" fill="#d7d7d7"/><path d="M249.748 609.264c-1.04 4.506-1.486 19.212-.693 27.729.792 8.517 2.674 12.577 3.07 9.11.396-3.465.297-26.936.297-29.312 0-2.377.396-3.764 2.97-3.863 2.575-.099.694-2.08.694-2.08z" fill="#d2d2d2"/><path d="M304.625 607.766c-18.406.106-44.014-.003-50.905.263-7.283.28-3.222 4.481.84 4.901 3.451.357 38.004-.17 50.065-.345zm0 0v4.82c12.06.173 46.614.701 50.065.344 4.062-.42 8.123-4.621.84-4.901-6.89-.266-32.499-.157-50.905-.263z" fill="#cdcdcd"/><path d="M608.284 490.868c-.052 6.239.518 5.863-4.04 8.471-4.557 2.608-17.808 5.144-36.153 6.694-18.345 1.549-50.114 3.743-54.46 3.707-4.347-.036-3.2-1.728.43-6.423 3.63-4.694 9.171-12.02 11.288-16.538 2.116-4.518 1.92-3.764 6.652-4.48 4.73-.717 25.901-1.109 34.813-4.626 8.912-3.517 21.703-19.098 28.674-39.263 6.97-20.164 8.414-34.705 8.947-53.411.533-18.706 1.445-37.598 2.004-13.78.559 23.818 1.918 110.764 1.845 119.649z" fill="#f2f2f2"/><path d="M548.992 76.703c-12.805-.217-13.457-7.596-13.022-15.192.434-7.597 5.425-11.503 13.89-11.503s12.371 6.728 12.588 13.89c.217 7.162-3.69 13.022-13.456 12.805z" fill="#d0d0d0"/><path d="M538.613 91.896c-5.678 0-6.752.767-6.752 8.748 0 7.98.92 9.054 4.757 9.515 3.837.46 13.66.767 17.496.46 3.837-.307 4.757-.92 5.064-8.594.307-7.674.46-9.362-2.762-9.669-3.223-.307-12.431-.767-17.803-.46z" fill="#da7d26"/><path d="M599.453 508.72c.869-4.775 1.194-5.969-2.495-5.1-3.69.867-22.138 4.774-49.594 6.727-27.455 1.954-34.618 1.737-37.656 1.954-3.039.217-4.124.65-6.837 3.907-2.713 3.255-21.812 30.06-24.091 32.881-2.28 2.821-1.194 4.232 1.519 4.232s30.82-1.628 50.679-3.798 51.112-8.682 53.934-9.441c2.821-.76 4.34-2.17 5.643-4.775 1.302-2.604 7.596-18.665 8.898-26.587z" fill="#3c3c3c"/><path d="M587.8 510.638c-2.992 0-4.143 1.612-4.22 3.376-.077 1.765.92 2.84 2.993 2.763 2.072-.077 3.146-1.381 3.223-2.916.076-1.535-.23-3.146-1.996-3.223zM585.115 518.158c-2.149-.077-2.993.921-3.223 2.61-.23 1.687 1.228 2.838 2.532 2.915 1.305.077 2.686-.92 3.146-2.686.46-1.765-.383-2.609-2.455-2.839zM581.585 524.988c-2.302.076-3.376 1.764-3.376 3.683 0 1.918 1.534 3.07 3.069 3.07s2.993-1.229 3.146-3.377c.154-2.149-1.15-3.146-2.84-3.376zM575.753 531.97c-1.995.23-2.993 1.842-2.993 3.377 0 1.534 1.689 2.302 3.147 2.225 1.457-.077 2.225-1.228 2.378-2.916.154-1.688-1.074-2.609-2.532-2.686z" fill="#e8a933"/><g fill="#e8e8e8"><path d="M580.191 511.867c-1.302.054-1.628.922-1.682 1.736-.054.814.651 1.574 1.465 1.574.814 0 1.574-.597 1.628-1.574.054-.977-.163-1.682-1.41-1.736zM578.563 516.153c-1.302.055-1.627.923-1.682 1.737-.054.813.652 1.573 1.465 1.573.814 0 1.574-.597 1.628-1.573.054-.977-.163-1.682-1.41-1.737zM576.99 520.603c-1.302.054-1.628.922-1.682 1.736-.054.814.651 1.573 1.465 1.573.814 0 1.573-.596 1.628-1.573.054-.977-.163-1.682-1.411-1.736zM574.982 524.672c-1.302.054-1.627.922-1.682 1.736-.054.814.651 1.574 1.465 1.574.814 0 1.574-.597 1.628-1.574.054-.976-.163-1.682-1.41-1.736zM572.432 528.687c-1.302.055-1.628.923-1.682 1.737-.054.813.651 1.573 1.465 1.573.814 0 1.574-.597 1.628-1.573.054-.977-.163-1.682-1.41-1.737zM568.96 532.92c-1.303.054-1.628.922-1.683 1.736-.054.814.652 1.573 1.465 1.573.814 0 1.574-.596 1.628-1.573.055-.977-.163-1.682-1.41-1.736zM564.743 535.47c-1.388.058-1.735.983-1.793 1.85-.058.867.694 1.677 1.561 1.677.868 0 1.677-.636 1.735-1.677.058-1.04-.173-1.792-1.503-1.85zM559.262 537.152c-1.387.058-1.734.983-1.792 1.85-.058.867.694 1.677 1.561 1.677s1.677-.636 1.735-1.677c.058-1.04-.174-1.792-1.504-1.85zM554.27 538.128c-1.387.058-1.734.983-1.792 1.85-.058.868.694 1.677 1.561 1.677.868 0 1.677-.636 1.735-1.676.058-1.041-.174-1.793-1.503-1.85zM549.062 539.05c-1.388.059-1.735.984-1.793 1.851-.058.867.694 1.677 1.561 1.677.868 0 1.677-.636 1.735-1.677.058-1.04-.174-1.792-1.503-1.85zM543.961 539.702c-1.387.058-1.734.983-1.792 1.85-.058.867.694 1.677 1.561 1.677s1.677-.636 1.734-1.677c.058-1.04-.173-1.792-1.503-1.85zM538.923 540.353c-1.43.06-1.788 1.013-1.848 1.907-.06.894.715 1.729 1.61 1.729.893 0 1.728-.656 1.787-1.729.06-1.073-.178-1.847-1.55-1.907zM533.388 541.167c-1.43.06-1.788 1.013-1.847 1.907-.06.894.715 1.728 1.609 1.728s1.728-.655 1.788-1.728c.06-1.073-.179-1.847-1.55-1.907zM528.125 541.71c-1.43.06-1.788 1.013-1.847 1.907-.06.894.715 1.728 1.609 1.728s1.728-.656 1.788-1.728c.06-1.073-.18-1.848-1.55-1.907zM522.808 542.198c-1.43.06-1.788 1.013-1.848 1.907-.06.894.715 1.728 1.61 1.728.893 0 1.728-.655 1.787-1.728.06-1.073-.179-1.847-1.55-1.907zM517.382 542.795c-1.43.06-1.788 1.013-1.848 1.907-.06.894.715 1.728 1.61 1.728.893 0 1.728-.655 1.787-1.728.06-1.073-.179-1.848-1.55-1.907zM512.01 543.283c-1.43.06-1.788 1.013-1.848 1.907-.06.894.716 1.729 1.61 1.729.894 0 1.728-.656 1.787-1.729.06-1.072-.178-1.847-1.549-1.907zM506.638 543.663c-1.43.06-1.788 1.013-1.847 1.907-.06.894.715 1.728 1.609 1.728s1.728-.655 1.788-1.728c.06-1.073-.179-1.847-1.55-1.907zM501.158 544.097c-1.43.06-1.788 1.013-1.847 1.907-.06.894.715 1.728 1.609 1.728s1.728-.655 1.788-1.728c.06-1.073-.18-1.847-1.55-1.907zM495.624 544.531c-1.43.06-1.788 1.013-1.848 1.907-.06.894.715 1.729 1.61 1.729.893 0 1.727-.656 1.787-1.729.06-1.072-.179-1.847-1.55-1.907zM490.198 544.857c-1.43.06-1.788 1.013-1.848 1.907-.06.894.715 1.728 1.61 1.728.893 0 1.727-.655 1.787-1.728.06-1.073-.179-1.848-1.55-1.907z"/></g><path d="M552.112 535.923c-8 .098-11.707-5.366-11.61-11.804.098-6.439 5.073-10.439 11.902-10.341 6.83.098 10.927 5.853 10.829 12.097-.098 6.243-3.512 9.658-11.121 10.048z" fill="#dadada"/><path d="M520.699 539.63c-8.682.098-12.292-6.829-12-11.414.293-4.585 3.318-12.194 12-12.097 8.682.098 11.804 5.268 11.804 12.487 0 7.22-4.878 10.829-11.804 11.024z" fill="#bebebe"/><path d="M304.625 614.62c-11.12.09-40.489.091-42.894.091-2.476 0-2.18 3.367-2.18 5.447s.2 20.895.397 23.074c.198 2.179.892 3.367 3.862 3.466 2.485.083 30.822-.179 40.815-.325zm0 0v31.753c9.993.146 38.33.408 40.815.325 2.97-.1 3.664-1.287 3.862-3.466.198-2.179.396-20.994.396-23.074 0-2.08.297-5.447-2.178-5.447-2.406 0-31.776 0-42.895-.092z" fill="#2d5741"/><path d="M359.503 609.264c1.04 4.506 1.485 19.212.693 27.729-.792 8.517-2.674 12.577-3.07 9.11-.396-3.465-.297-26.936-.297-29.312 0-2.377-.396-3.764-2.971-3.863-2.575-.099-.693-2.08-.693-2.08z" fill="#d2d2d2"/><path d="M408.562 472.068v-3.534h2.614l1.5 1.988 1.502 1.988.034-1.988.035-1.988h2.013v7.078l-1.093-.037-1.094-.036-1.746-2.38-1.746-2.381v4.824h-2.02zM305.49 475.723c-1.433-.191-2.592-.912-3.12-1.94-.413-.8-.459-2.238-.1-3.074.36-.834 1.142-1.555 2.094-1.93 1.015-.399 3.494-.42 4.66-.04l.756.247.038.847c.02.466-.014.847-.077.847s-.472-.185-.91-.41c-1.535-.792-3.451-.588-4.186.444-.292.41-.456 1.565-.306 2.16.229.912 1.317 1.585 2.57 1.59l.789.002v-1.388h-1.64v-1.395l1.924.035 1.925.035v3.527l-.884.205c-1.157.268-2.59.364-3.534.238zM267.457 472.068v-3.534h2.146v5.806h3.912v1.262h-6.058zM234.018 475.717c-1.963-.288-3.136-1.425-3.324-3.223-.172-1.644.712-3.137 2.206-3.729.584-.23.96-.281 2.1-.281 1.643 0 2.521.276 3.308 1.04.654.634.945 1.293 1.018 2.302.112 1.577-.657 2.937-1.984 3.508-.529.228-2.075.542-2.468.502-.07-.007-.455-.06-.856-.12zm2.147-1.585c.644-.48.844-.882.895-1.799.093-1.631-.612-2.535-1.978-2.536-1.313-.001-2.007.651-2.13 2.003-.105 1.171.334 2.122 1.154 2.494.534.241 1.634.155 2.059-.162zM198.165 475.38c-.046-.12-.72-1.697-1.5-3.501l-1.418-3.281 1.084-.037c.78-.027 1.112.009 1.184.125.056.09.515 1.198 1.02 2.464.507 1.267.95 2.302.984 2.302.034 0 .51-1.107 1.056-2.459l.993-2.459h2.232l-.431 1.008c-.238.555-.925 2.145-1.527 3.534l-1.096 2.526h-1.248c-1.074 0-1.26-.031-1.333-.221zM373.9 472.068v-3.534H379.96V469.923H376.046v1.262h3.66v1.388H376.035l.037.852.037.852 1.925.034 1.925.035v1.256H373.9zM337.46 472.055v-3.546l2.619.048c2.37.044 2.666.074 3.123.316.883.468 1.137.84 1.132 1.664-.005.868-.332 1.408-1.085 1.792l-.5.255.38.48c.208.264.468.553.576.643.108.09.542.553.964 1.029l.768.866h-2.66l-1.102-1.262c-1.036-1.188-1.129-1.262-1.585-1.262h-.484v2.524h-2.146zm4.25-.563c.52-.33.537-1.178.028-1.45-.144-.077-.683-.172-1.197-.211l-.935-.071v2.081l.914-.087c.504-.049 1.039-.167 1.19-.262z" fill="#afafaf"/><path d="M140.873 519.393c-1.216-.384-2.337-1.332-2.756-2.331-.282-.672-.277-1.693.012-2.37 1.138-2.668 5.46-3.244 7.685-1.025.261.26.6.712.754 1.006.237.452.279.66.279 1.384 0 .72-.042.93-.275 1.366-.522.976-1.499 1.712-2.706 2.039-.736.199-2.255.164-2.993-.07zm2.149-1.054c.187-.137.458-.501.602-.81.224-.48.261-.706.26-1.583-.002-1.1-.128-1.521-.64-2.14-1.054-1.271-2.5-.078-2.518 2.078-.008 1.012.234 1.733.766 2.277.491.502 1.003.562 1.53.178zm26.37 1.601c-2.329-.74-3.559-2.895-2.748-4.813 1.039-2.459 4.936-3.22 7.242-1.413.922.723 1.396 1.539 1.478 2.546.14 1.71-1.067 3.218-2.99 3.738-.743.201-2.261.172-2.982-.057zm2.122-1.06c1.046-.764 1.228-3.312.323-4.524-.747-1.002-1.76-.784-2.33.502-.23.516-.28.786-.283 1.495-.006 2.026 1.181 3.335 2.29 2.526zm-41.025.247c-.046-.079-.712-1.456-1.48-3.062l-1.395-2.918-.698-.018-.698-.017-.032-.483-.031-.483 3.172.06 3.171.06v.909h-.638c-.35 0-.7-.007-.775-.021-.075-.013-.12.053-.102.146.051.25 2.066 4.192 2.145 4.196.038.002.424-.743.86-1.655.434-.912.875-1.825.978-2.027.103-.203.188-.419.188-.48 0-.06-.253-.114-.562-.12l-.562-.01v-.908l2.196.041 2.196.042v.908l-.74-.013-.741-.013-.74 1.545c-.407.85-1.057 2.203-1.446 3.007l-.707 1.461-1.737-.002c-1.303-.002-1.759-.038-1.822-.145zm16.818-.122v-.577l.74.052.74.052.028-2.514.027-2.514-.691.002-.691.002-.032-.48-.031-.478 2.865.054 2.866.055v.964l-.69-.013-.69-.013v4.993l.974.011c.8.01 1.06-.033 1.46-.24a2.048 2.048 0 001.055-1.499c.062-.424.069-.43.483-.388l.42.042.029 1.618.028 1.617-4.445-.084-4.446-.084zm11.673.66a222.44 222.44 0 01-1.477-3.062c-1.542-3.233-1.3-2.934-2.41-2.987l-.434-.021v-.908l3.166.06 3.166.06v.908l-.773-.015c-.585-.01-.766.022-.74.134.07.318 2.08 4.196 2.16 4.17.097-.03 2.008-3.962 2.008-4.13 0-.06-.252-.113-.561-.12l-.562-.01v-.908l2.196.042 2.195.042v.898l-.74.019-.74.019-.876 1.799c-.482.99-1.14 2.343-1.461 3.008l-.585 1.208-1.725-.032c-1.244-.024-1.747-.072-1.807-.173z" fill="#9c9c9c"/></svg>