<?xml version="1.0" encoding="UTF-8" standalone="no"?>
<svg
   xmlns:dc="http://purl.org/dc/elements/1.1/"
   xmlns:cc="http://creativecommons.org/ns#"
   xmlns:rdf="http://www.w3.org/1999/02/22-rdf-syntax-ns#"
   xmlns:svg="http://www.w3.org/2000/svg"
   xmlns="http://www.w3.org/2000/svg"
   id="svg8"
   version="1.1"
   viewBox="0 0 609.25061 672.93713"
   height="672.93713mm"
   width="609.25061mm">
  <defs
     id="defs2" />
  <metadata
     id="metadata5">
    <rdf:RDF>
      <cc:Work
         rdf:about="">
        <dc:format>image/svg+xml</dc:format>
        <dc:type
           rdf:resource="http://purl.org/dc/dcmitype/StillImage" />
        <dc:title></dc:title>
      </cc:Work>
    </rdf:RDF>
  </metadata>
  <g
     transform="translate(240.83516,274.33546)"
     id="layer1">
    <g
       style="opacity:1"
       id="g4614">
      <path
         style="fill:#323232;fill-opacity:1;stroke:none;stroke-width:0.26458332px;stroke-linecap:butt;stroke-linejoin:miter;stroke-opacity:1"
         d="m -239.82819,217.99777 c -0.10852,11.72011 -0.10852,22.35502 0.32556,27.12989 0.43407,4.77485 1.30223,15.19273 1.30223,15.19273 l 19.31648,11.82862 32.33882,10.9605 9.54972,-0.21707 79.43631,1.08522 -1.410753,-7.81341 -39.718157,-47.31453 -9.54972,-0.97667 z"
         id="path1041" />
      <path
         style="fill:#b5b5b5;fill-opacity:1;stroke:none;stroke-width:0.99999994px;stroke-linecap:butt;stroke-linejoin:miter;stroke-opacity:1"
         d="m 428.58008,1822.9707 c -24.29326,-0.2483 49.63086,91.957 49.63086,91.957 l 59.88086,-2.4609 131.25,140.2734 -3.28125,56.5996 -274.80274,-12.3046 -42.65625,-1.6407 35.71094,101.6875 194.60547,282.4805 c 0,0 24.94229,28.1327 40.02344,27.5527 15.0811,-0.58 22.62161,-3.7705 47.85351,-4.6406 25.23187,-0.87 0,-15.9512 0,-15.9512 l -248.25976,-370.0683 251.62695,8.4707 621.71679,7.9804 v -45.9374 L 713.63867,2057.6621 542.19336,1873.0918 c 0,0 -37.73253,-49.2168 -53.31836,-48.3965 -15.58579,0.8203 -31.17212,1.6406 -59.0625,-1.6406 -0.43578,-0.051 -0.84683,-0.08 -1.23242,-0.084 z m 1726.59962,0 c -0.3856,0 -0.7967,0.033 -1.2324,0.084 -27.8904,3.2812 -43.4767,2.4609 -59.0625,1.6406 -15.5859,-0.8203 -53.3184,48.3965 -53.3184,48.3965 l -171.4453,184.5703 -578.2402,29.3067 v 45.9374 l 621.7168,-7.9804 251.6269,-8.4707 -248.2598,370.0683 c 0,0 -25.2318,15.0812 0,15.9512 25.2319,0.8701 32.7725,4.0606 47.8536,4.6406 15.0811,0.58 40.0234,-27.5527 40.0234,-27.5527 l 194.6055,-282.4805 35.7109,-101.6875 -42.6562,1.6407 -274.8028,12.3046 -3.2812,-56.5996 131.25,-140.2734 59.8808,2.4609 c 0,0 73.9241,-92.2053 49.6309,-91.957 z"
         transform="matrix(0.26458333,0,0,0.26458333,-278.01972,-274.33559)"
         id="path1036" />
      <path
         style="fill:#212121;fill-opacity:1;stroke:none;stroke-width:0.99999994px;stroke-linecap:butt;stroke-linejoin:miter;stroke-opacity:1"
         d="M 1291.6035,0.0078125 C 1204.4479,-0.23180955 984.61892,5.4013937 789.96094,16.908203 567.49468,30.058994 274.89035,51.976029 220.0957,66.222656 L 198.17773,92.525391 182.83594,519.92383 H 1291.8789 V 0.00976563 c -0.097,-3.0237e-4 -0.1783,0 -0.2754,0 z m 0.5527,0 v 0.00195313 c -0.097,0 -0.1785,-3.0237e-4 -0.2753,0 V 519.92383 H 2400.9238 L 2385.582,92.525391 2363.6641,66.222656 C 2308.8694,51.976029 2016.2651,30.058994 1793.7988,16.908203 1599.1409,5.4013937 1379.3118,-0.23180955 1292.1562,0.0078125 Z"
         transform="matrix(0.26458333,0,0,0.26458333,-278.01972,-274.33559)"
         id="path1011" />
      <path
         style="fill:#242424;fill-opacity:1;stroke:none;stroke-width:0.99999994px;stroke-linecap:butt;stroke-linejoin:miter;stroke-opacity:1"
         d="m 1066.9922,148.30078 c -42.4964,0.0227 -87.26352,0.21357 -133.37697,0.64844 -245.93839,2.32018 -609.04672,12.76004 -639.20898,17.40039 -30.16226,4.64031 -35.96316,1.15963 -40.60352,25.52148 -11.60088,51.04381 -45.24246,316.70439 -49.88281,337.58594 -4.64031,20.88155 961.71098,-9.28125 961.71098,-9.28125 l 126.248,-6.74414 V 149.65039 c -60.258,-0.71645 -137.0588,-1.39527 -224.8867,-1.34961 z m 449.7754,0 c -87.8279,-0.0457 -164.6287,0.63316 -224.8867,1.34961 v 363.78125 l 126.248,6.74414 c 0,0 966.3513,30.1628 961.7109,9.28125 -4.6403,-20.88155 -38.2819,-286.54213 -49.8828,-337.58594 -4.6403,-24.36185 -10.4412,-20.88117 -40.6035,-25.52148 -30.1622,-4.64035 -393.2706,-15.08021 -639.209,-17.40039 -46.1134,-0.43487 -90.8805,-0.62576 -133.3769,-0.64844 z"
         transform="matrix(0.26458333,0,0,0.26458333,-278.01972,-274.33559)"
         id="path1016" />
      <path
         style="fill:#2a2a2a;fill-opacity:1;stroke:none;stroke-width:0.99999994px;stroke-linecap:butt;stroke-linejoin:miter;stroke-opacity:1"
         d="m 1291.8789,510.54688 -1105.89843,9.11523 -9.29883,195.2793 -6.19922,477.34569 v 365.7598 l 74.39063,151.8828 1047.00585,41.2891 z m 0,0 V 1751.2188 l 1047.0058,-41.2891 74.3906,-151.8828 v -365.7598 l -6.1992,-477.34569 -9.2988,-195.2793 z"
         transform="matrix(0.26458333,0,0,0.26458333,-278.01972,-274.33559)"
         id="path1006" />
      <path
         style="fill:#181818;fill-opacity:1;stroke:none;stroke-width:0.99999994px;stroke-linecap:butt;stroke-linejoin:miter;stroke-opacity:1"
         d="m 231.71875,47.953125 c -3.61538,0.02268 -7.57429,0.658402 -11.64258,2.111328 -21.69759,7.749128 -37.19624,29.448121 -41.8457,110.039067 -4.6495,80.59098 -17.04686,905.09858 -20.14649,1049.23238 -3.09966,144.1339 -4.65139,232.473 -3.10156,347.1602 1.54983,114.6872 68.19336,285.168 68.19336,285.168 l 172.03125,-79.0411 896.67187,-6.0781 v -57.2988 c -132.9661,1.6798 -652.41215,5.8858 -764.93749,1.3848 -116.23699,-4.6495 -289.81694,13.9473 -322.36329,-128.6368 -32.54638,-142.584 -20.14845,-548.6371 -17.04882,-657.12496 3.09966,-108.48787 6.20016,-314.61584 7.75,-340.96289 1.54979,-26.34705 7.7496,-30.99704 35.64648,-32.54687 25.61968,-1.4233 889.71452,-2.83887 1060.95312,-1.86133 v -44.62696 c -107.9427,0.0189 -1047.15679,1.54297 -1070.2539,1.54297 -23.24742,0 -20.14648,-12.39817 -20.14648,-30.99609 0,-18.59792 1.54875,-280.519 7.74804,-317.71485 6.1993,-37.19584 10.8503,-74.391455 30.99805,-82.14062 16.37,-6.296164 7.16077,-17.707756 -8.50586,-17.609375 z m 2120.32225,0 c -15.6666,-0.09838 -24.8758,11.313211 -8.5058,17.609375 20.1477,7.749165 24.7987,44.94478 30.998,82.14062 6.1993,37.19585 7.748,299.11693 7.748,317.71485 1e-4,18.59792 3.101,30.99609 -20.1464,30.99609 -23.0971,0 -962.3112,-1.52407 -1070.2539,-1.54297 v 44.62696 c 171.2386,-0.97754 1035.3334,0.43803 1060.9531,1.86133 27.8969,1.54983 34.0967,6.19982 35.6465,32.54687 1.5498,26.34705 4.6503,232.47502 7.75,340.96289 3.0996,108.48786 15.4975,514.54096 -17.0489,657.12496 -32.5463,142.5841 -206.1263,123.9873 -322.3632,128.6368 -112.5254,4.501 -631.9714,0.295 -764.9375,-1.3848 v 57.2988 l 896.6718,6.0781 172.0313,79.0411 c 0,0 66.6435,-170.4808 68.1933,-285.168 1.5499,-114.6872 0,-203.0263 -3.1015,-347.1602 -3.0996,-144.1338 -15.497,-968.6414 -20.1465,-1049.23238 -4.6495,-80.590946 -20.1481,-102.289939 -41.8457,-110.039067 -4.0683,-1.452926 -8.0272,-2.088651 -11.6426,-2.111328 z"
         transform="matrix(0.26458333,0,0,0.26458333,-278.01972,-274.33559)"
         id="path1001" />
      <path
         style="fill:#242424;fill-opacity:1;stroke:none;stroke-width:0.99999994px;stroke-linecap:butt;stroke-linejoin:miter;stroke-opacity:1"
         d="m 151.06836,1428.4844 c -0.0253,0.9389 -0.0426,2.0658 -0.0664,3.0429 0.0671,-1.0571 0.10985,-2.0659 0.0664,-3.0429 z m -0.0664,3.0429 c -0.23933,3.7687 -0.91576,8.5671 -0.33007,18.0782 0.0881,-6.5893 0.19769,-12.6417 0.33007,-18.0782 z m -0.33007,18.0782 c -0.90189,67.4186 0.39445,193.6204 1.66992,351.0976 l 238.71484,40.8672 719.99995,26.3008 180.8223,-7.1973 v -137.8437 c -10.4791,0.034 -22.7322,0.1462 -38.3555,0.3828 -68.4794,0.8857 -821.1123,0.5303 -907.91206,-5.5352 -71.45583,-4.9933 -138.79532,-46.0868 -161.07813,-121.4668 -26.22682,-88.722 -32.67439,-127.3303 -33.86132,-146.6054 z m 2282.01951,-21.1211 c -0.043,0.977 -7e-4,1.9858 0.066,3.0429 -0.024,-0.9771 -0.041,-2.104 -0.066,-3.0429 z m 0.066,3.0429 c 0.1324,5.4365 0.2419,11.4889 0.3301,18.0782 0.5857,-9.5111 -0.091,-14.3095 -0.3301,-18.0782 z m 0.3301,18.0782 c -1.1869,19.2751 -7.6345,57.8834 -33.8613,146.6054 -22.2828,75.38 -89.6243,116.4735 -161.0801,121.4668 -86.7998,6.0655 -839.4307,6.4209 -907.9102,5.5352 -15.6233,-0.2366 -27.8764,-0.3488 -38.3554,-0.3828 v 137.8437 l 180.8222,7.1973 720,-26.3008 238.7129,-40.8672 c 1.2755,-157.4772 2.5738,-283.679 1.6719,-351.0976 z"
         transform="matrix(0.26458333,0,0,0.26458333,-278.01972,-274.33559)"
         id="path996" />
      <path
         style="fill:#e8e8e8;fill-opacity:1;stroke:none;stroke-width:0.99999994px;stroke-linecap:butt;stroke-linejoin:miter;stroke-opacity:1"
         d="m 142.98438,1949.0234 c -2.20615,0.4536 -2.70694,37.1554 -2.33008,82.6895 1.96051,64.2717 4.11437,410.6946 5.77343,438.5391 1.6591,27.8442 0.99637,34.2783 12.56641,51.3261 11.57004,17.0476 25.94594,27.6448 25.86914,18.3594 -0.0771,-9.2855 9.89655,-12.2263 83.39453,-21.4063 73.49794,-9.1801 323.49009,-11.2503 344.91797,-11.4277 21.42781,-0.1772 22.83371,-3.046 11.26367,-20.0937 -11.57004,-17.0476 -78.82423,-116.4939 -126.5625,-188.2442 -47.7383,-71.7501 -122.29324,-190.4229 -133.86328,-207.4707 -11.57008,-17.0477 -16.62275,-23.4354 -38.07422,-26.1152 -21.45146,-2.6797 -57.24271,-11.6693 -114.51367,-26.9102 -57.27092,-15.2408 -61.05364,-40.9239 -65.63476,-76.6015 -1.14531,-8.9194 -2.07126,-12.7957 -2.80664,-12.6446 z m 2297.79102,0 c -0.7354,-0.1511 -1.6613,3.7252 -2.8066,12.6446 -4.5812,35.6776 -8.3639,61.3607 -65.6348,76.6015 -57.271,15.2409 -93.0622,24.2305 -114.5137,26.9102 -21.4515,2.6798 -26.5041,9.0675 -38.0742,26.1152 -11.57,17.0478 -86.125,135.7206 -133.8633,207.4707 -47.7383,71.7503 -114.9924,171.1966 -126.5625,188.2442 -11.57,17.0477 -10.1641,19.9165 11.2637,20.0937 21.4279,0.1774 271.42,2.2476 344.918,11.4277 73.4979,9.18 83.4716,12.1208 83.3945,21.4063 -0.077,9.2854 14.2991,-1.3118 25.8691,-18.3594 11.5701,-17.0478 10.9073,-23.4819 12.5664,-51.3261 1.6591,-27.8445 3.813,-374.2674 5.7735,-438.5391 0.3768,-45.5341 -0.124,-82.2359 -2.3301,-82.6895 z M 369.18555,2073.3789 c -6.83411,0.1357 -9.5124,3.2211 -3.05274,15.043 20.29486,35.5475 88.30402,139.988 107.11719,169.1191 18.81313,29.131 143.20911,214.5359 156.91602,230.8516 13.70698,16.3157 17.26599,14.8566 41.54492,13.9414 24.27896,-0.9153 326.42304,-1.9861 490.70316,-3.3457 30.1912,-0.2498 75.6178,-0.3083 129.4648,-0.2422 v -391.7988 c -76.7718,-0.3345 -146.8732,-0.6868 -204.8555,-0.2071 -143.56647,1.1881 -365.78077,-6.2591 -454.39645,-11.2402 -88.61567,-4.9811 -228.01382,-18.1123 -245.17383,-20.1133 -6.97126,-0.8128 -13.59162,-2.1006 -18.26757,-2.0078 z m 1845.38865,0 c -4.6759,-0.093 -11.2963,1.195 -18.2676,2.0078 -17.16,2.001 -156.5581,15.1322 -245.1738,20.1133 -88.6157,4.9811 -310.83,12.4283 -454.3965,11.2402 -57.9822,-0.4797 -128.0837,-0.1274 -204.8554,0.2071 v 391.7988 c 53.847,-0.066 99.2736,-0.01 129.4648,0.2422 164.2801,1.3596 466.4242,2.4304 490.7031,3.3457 24.279,0.9152 27.838,2.3743 41.545,-13.9414 13.7069,-16.3157 138.1028,-201.7206 156.916,-230.8516 18.8131,-29.1311 86.8223,-133.5716 107.1172,-169.1191 6.4596,-11.8219 3.7813,-14.9073 -3.0528,-15.043 z"
         transform="matrix(0.26458333,0,0,0.26458333,-278.01972,-274.33559)"
         id="path930" />
      <path
         style="fill:#f2f2f2;fill-opacity:1;stroke:none;stroke-width:0.26458332px;stroke-linecap:butt;stroke-linejoin:miter;stroke-opacity:1"
         d="m -239.86821,216.53218 c 0.0516,6.23926 -0.51846,5.86311 4.03899,8.47133 4.55746,2.6082 17.80808,5.14446 36.15337,6.69359 18.34529,1.54912 50.11454,3.74312 54.46111,3.70715 4.34658,-0.0359 3.19861,-1.72742 -0.43114,-6.42224 -3.62975,-4.69482 -9.17121,-12.01976 -11.28754,-16.5381 -2.11634,-4.51837 -1.9211,-3.76399 -6.6519,-4.48083 -4.7308,-0.71682 -25.90143,-1.10859 -34.81328,-4.62574 -8.91185,-3.51714 -21.70344,-19.09782 -28.67413,-39.26256 -6.97069,-20.16472 -8.41399,-34.70536 -8.94678,-53.41141 -0.53281,-18.706055 -1.44513,-37.59796 -2.00399,-13.78002 -0.55887,23.81794 -1.91823,110.76468 -1.84471,119.64883 z"
         id="path936" />
      <path
         style="fill:#f1f1f1;fill-opacity:1;stroke:none;stroke-width:0.99999994px;stroke-linecap:butt;stroke-linejoin:miter;stroke-opacity:1"
         d="m 490.38672,1825.2402 c -22.1421,0.1833 -37.14741,-0.4082 -16.96484,21.5684 33.26392,49.0121 138.72763,191.0016 156.78515,215.1387 18.05745,24.1372 20.96215,29.8268 60.97852,31.6386 40.01635,1.8118 337.20335,5.7803 455.08005,7.6621 39.7039,0.6341 91.3639,0.9102 145.6133,0.9922 v -267.5234 c -9.1538,-0.065 -17.3888,-0.1316 -23.5312,-0.2012 -109.2997,-1.2383 -755.81888,-9.4587 -777.96098,-9.2754 z m 1602.98628,0 c -22.1421,-0.1833 -668.6612,8.0371 -777.9609,9.2754 -6.1424,0.07 -14.3774,0.1362 -23.5312,0.2012 v 267.5234 c 54.2493,-0.082 105.9093,-0.3581 145.6132,-0.9922 117.8768,-1.8818 415.0637,-5.8503 455.0801,-7.6621 40.0164,-1.8118 42.9211,-7.5014 60.9785,-31.6386 18.0576,-24.1371 123.5213,-166.1266 156.7852,-215.1387 20.1826,-21.9766 5.1772,-21.3851 -16.9649,-21.5684 z"
         transform="matrix(0.26458333,0,0,0.26458333,-278.01972,-274.33559)"
         id="path938" />
      <path
         style="fill:#e1e1e1;fill-opacity:1;stroke:none;stroke-width:0.99999994px;stroke-linecap:butt;stroke-linejoin:miter;stroke-opacity:1"
         d="m 141.17383,2055.25 c 1.15733,63.4152 2.35508,202.6016 3.46679,303.1934 l 375.26172,100.2324 86.26368,1.3301 c -26.08664,-38.6038 -72.60938,-107.614 -108.28907,-161.2403 -29.27883,-44.0058 -67.29914,-103.5559 -96.03515,-148.5918 -141.28498,-20.168 -215.03985,-45.851 -260.66797,-94.9238 z m 2301.41207,0 c -45.6281,49.0728 -119.383,74.7558 -260.6679,94.9238 -28.736,45.0359 -66.7564,104.586 -96.0352,148.5918 -35.6797,53.6263 -82.2024,122.6365 -108.289,161.2403 l 86.2636,-1.3301 375.2617,-100.2324 c 1.1118,-100.5918 2.3095,-239.7782 3.4668,-303.1934 z m -2038.17184,95.293 c 26.43916,41.6758 57.13966,88.8871 68.83594,106.998 14.99448,23.218 96.91968,145.4916 136.55664,202.5215 l 682.07226,10.5059 v -275.1817 c -450.47424,-0.6056 -650.72064,-11.3429 -887.46484,-44.8437 z m 1774.93164,0 c -236.7442,33.5008 -436.9906,44.2381 -887.4648,44.8437 v 275.1817 l 682.0722,-10.5059 c 39.637,-57.0299 121.5622,-179.3035 136.5567,-202.5215 11.6962,-18.1109 42.3967,-65.3222 68.8359,-106.998 z"
         transform="matrix(0.26458333,0,0,0.26458333,-278.01972,-274.33559)"
         id="path965" />
      <path
         style="fill:#d5d5d5;fill-opacity:1;stroke:none;stroke-width:0.99999994px;stroke-linecap:butt;stroke-linejoin:miter;stroke-opacity:1"
         d="m 142.91797,2192.4375 c 1.25129,119.4094 2.47587,260.4622 3.50976,277.8145 1.6591,27.8442 0.99637,34.2783 12.56641,51.3261 11.57004,17.0476 25.94594,27.6448 25.86914,18.3594 -0.0771,-9.2855 9.89655,-12.2263 83.39453,-21.4063 73.49794,-9.1801 323.49009,-11.2503 344.91797,-11.4277 21.42781,-0.1772 22.83371,-3.046 11.26367,-20.0937 -6.94654,-10.2353 -34.38284,-50.8258 -65.19922,-96.6387 -309.62195,-43.8702 -378.68157,-106.1626 -416.32226,-197.9336 z m 2297.92383,0 c -37.6407,91.771 -106.7003,154.0634 -416.3223,197.9336 -30.8163,45.8129 -58.2526,86.4034 -65.1992,96.6387 -11.57,17.0477 -10.1641,19.9165 11.2637,20.0937 21.4279,0.1774 271.42,2.2476 344.918,11.4277 73.4979,9.18 83.4716,12.1208 83.3945,21.4063 -0.077,9.2854 14.2991,-1.3118 25.8691,-18.3594 11.5701,-17.0478 10.9073,-23.4819 12.5664,-51.3261 1.0339,-17.3523 2.2585,-158.4051 3.5098,-277.8145 z M 562.48047,2390.8301 c 31.86841,47.0482 61.4195,90.1038 67.68555,97.5625 13.70698,16.3157 17.26599,14.8566 41.54492,13.9414 24.27896,-0.9153 326.42304,-1.9861 490.70316,-3.3457 30.1912,-0.2498 75.6178,-0.3083 129.4648,-0.2422 v -47.8711 c -210.2096,-2.487 -434.43052,-20.5127 -709.88476,-57.3652 -6.61618,-0.8852 -13.10397,-1.7791 -19.51367,-2.6797 z m 1458.79883,0 c -6.4097,0.9006 -12.8975,1.7945 -19.5137,2.6797 -275.4542,36.8525 -499.6752,54.8782 -709.8847,57.3652 v 47.8711 c 53.847,-0.066 99.2736,-0.01 129.4648,0.2422 164.2801,1.3596 466.4242,2.4304 490.7031,3.3457 24.279,0.9152 27.838,2.3743 41.545,-13.9414 6.266,-7.4587 35.8171,-50.5143 67.6855,-97.5625 z"
         transform="matrix(0.26458333,0,0,0.26458333,-278.01972,-274.33559)"
         id="path940" />
      <path
         style="fill:#282828;fill-opacity:1;stroke:none;stroke-width:0.99999994px;stroke-linecap:butt;stroke-linejoin:miter;stroke-opacity:1"
         d="m 828.04688,167.63477 c -143.23078,0.0378 -263.99293,0.67269 -272.6211,2.19531 -19.72146,3.48022 -22.04108,4.64027 -23.20117,31.32226 -1.16009,26.68203 1.16022,232.01703 2.32031,255.21875 1.16009,23.20173 8.12044,26.68164 30.16211,26.68164 19.95863,0 602.32647,-1.89827 727.17187,-3.11914 V 169.6875 c -76.1523,-1.22869 -286.597,-2.09937 -463.83202,-2.05273 z m 927.66602,0 c -177.235,-0.0466 -387.6797,0.82404 -463.832,2.05273 v 310.24609 c 124.8454,1.22087 707.2132,3.11914 727.1718,3.11914 22.0417,0 29.0021,-3.47991 30.1621,-26.68164 1.1601,-23.20172 3.4804,-228.53672 2.3204,-255.21875 -1.1601,-26.68199 -3.4798,-27.84204 -23.2012,-31.32226 -8.6282,-1.52262 -129.3903,-2.15752 -272.6211,-2.19531 z"
         transform="matrix(0.26458333,0,0,0.26458333,-278.01972,-274.33559)"
         id="path1022" />
      <path
         style="fill:#2e2e2e;fill-opacity:1;stroke:none;stroke-width:0.99999994px;stroke-linecap:butt;stroke-linejoin:miter;stroke-opacity:1"
         d="m 1152.127,197.21875 c -213.43787,-0.0544 -554.93836,1.03334 -568.85942,2.77344 -18.56138,2.32021 -18.56062,9.28083 -19.7207,34.80273 -1.16009,25.52194 1.16015,180.97361 1.16015,197.21485 0,16.24119 10.44095,17.40045 35.96289,18.56054 23.32517,1.06024 577.36068,-1.75387 691.20898,-4.01758 V 197.56445 c -29.4286,-0.21392 -78.6831,-0.3302 -139.7519,-0.3457 z m 279.5058,0 c -61.0688,0.0155 -110.3233,0.13178 -139.7519,0.3457 v 248.98828 c 113.8483,2.26371 667.8838,5.07782 691.2089,4.01758 25.522,-1.16009 35.9629,-2.31935 35.9629,-18.56054 0,-16.24124 2.3203,-171.69291 1.1602,-197.21485 -1.1601,-25.5219 -1.1593,-32.48252 -19.7207,-34.80273 -13.9211,-1.7401 -355.4216,-2.82787 -568.8594,-2.77344 z"
         transform="matrix(0.26458333,0,0,0.26458333,-278.01972,-274.33559)"
         id="path1024" />
      <path
         style="fill:#d0d0d0;fill-opacity:1;stroke:none;stroke-width:0.26458332px;stroke-linecap:butt;stroke-linejoin:miter;stroke-opacity:1"
         d="m -180.57652,-197.63208 c 12.8053,-0.21705 13.45642,-7.59637 13.02235,-15.19274 -0.43408,-7.59637 -5.42598,-11.50307 -13.89051,-11.50307 -8.46452,0 -12.37123,6.72821 -12.58826,13.8905 -0.21704,7.16229 3.68966,13.02234 13.45642,12.80531 z"
         id="path1032" />
      <path
         style="fill:#da7d26;fill-opacity:1;stroke:none;stroke-width:0.26458332px;stroke-linecap:butt;stroke-linejoin:miter;stroke-opacity:1"
         d="m -170.19802,-182.43969 c 5.67838,0 6.75267,0.76735 6.75267,8.74778 0,7.98043 -0.92082,9.05472 -4.75756,9.51513 -3.83675,0.4604 -13.65881,0.76734 -17.49556,0.4604 -3.83675,-0.30694 -4.75756,-0.92081 -5.0645,-8.5943 -0.30695,-7.6735 -0.46041,-9.36166 2.76245,-9.6686 3.22287,-0.30694 12.43105,-0.76735 17.8025,-0.46041 z"
         id="path1034" />
      <path
         style="fill:#3c3c3c;fill-opacity:1;stroke:none;stroke-width:0.26458332px;stroke-linecap:butt;stroke-linejoin:miter;stroke-opacity:1"
         d="m -231.03811,234.38422 c -0.86815,-4.77486 -1.19371,-5.96858 2.49595,-5.10042 3.68967,0.86816 22.13799,4.77486 49.59343,6.72821 27.45545,1.95335 34.61774,1.73632 37.65628,1.95335 3.03855,0.21704 4.12375,0.65112 6.83673,3.90671 2.71299,3.25559 21.81243,30.0599 24.09134,32.88142 2.27891,2.82152 1.19372,4.23227 -1.51927,4.23227 -2.71299,0 -30.81955,-1.62779 -50.67863,-3.79819 -19.85907,-2.17038 -51.1127,-8.68157 -53.93421,-9.44121 -2.82151,-0.75962 -4.34078,-2.17038 -5.64302,-4.77485 -1.30223,-2.60447 -7.59636,-18.66536 -8.8986,-26.58729 z"
         id="path4072" />
      <path
         style="fill:#e8a933;fill-opacity:1;stroke:none;stroke-width:0.26458332px;stroke-linecap:butt;stroke-linejoin:miter;stroke-opacity:1"
         d="m -219.38509,236.30269 c 2.99266,0 4.14368,1.61143 4.22041,3.37633 0.0767,1.7649 -0.92081,2.83919 -2.99266,2.76246 -2.07184,-0.0767 -3.14613,-1.38123 -3.22286,-2.91593 -0.0767,-1.5347 0.2302,-3.14613 1.99511,-3.22286 z"
         id="path4074" />
      <path
         style="fill:#e8a933;fill-opacity:1;stroke:none;stroke-width:0.26458332px;stroke-linecap:butt;stroke-linejoin:miter;stroke-opacity:1"
         d="m -216.69937,243.82271 c 2.14857,-0.0767 2.99266,0.92082 3.22286,2.60898 0.23021,1.68817 -1.22776,2.83919 -2.53225,2.91593 -1.30449,0.0767 -2.68572,-0.92082 -3.14613,-2.68572 -0.46041,-1.76491 0.38367,-2.60899 2.45552,-2.83919 z"
         id="path4076" />
      <path
         style="fill:#e8a933;fill-opacity:1;stroke:none;stroke-width:0.26458332px;stroke-linecap:butt;stroke-linejoin:miter;stroke-opacity:1"
         d="m -213.16957,250.65211 c 2.30205,0.0767 3.37634,1.76491 3.37634,3.68328 0,1.91837 -1.5347,3.06939 -3.0694,3.06939 -1.5347,0 -2.99266,-1.22775 -3.14613,-3.37633 -0.15347,-2.14858 1.15103,-3.14613 2.83919,-3.37634 z"
         id="path4078" />
      <path
         style="fill:#e8a933;fill-opacity:1;stroke:none;stroke-width:0.26458332px;stroke-linecap:butt;stroke-linejoin:miter;stroke-opacity:1"
         d="m -207.33772,257.63499 c 1.99511,0.2302 2.99267,1.84164 2.99267,3.37634 0,1.53469 -1.68817,2.30204 -3.14613,2.22531 -1.45797,-0.0767 -2.22532,-1.22776 -2.37879,-2.91593 -0.15347,-1.68817 1.07429,-2.60898 2.53225,-2.68572 z"
         id="path4080" />
      <g
         id="g4088">
        <path
           id="path4082"
           d="m -211.77589,237.53129 c 1.30223,0.0543 1.62779,0.92241 1.68205,1.73631 0.0543,0.8139 -0.65111,1.57353 -1.46501,1.57353 -0.8139,0 -1.57353,-0.59685 -1.62779,-1.57353 -0.0543,-0.97668 0.16277,-1.68205 1.41075,-1.73631 z"
           style="fill:#e8e8e8;fill-opacity:1;stroke:none;stroke-width:0.26458332px;stroke-linecap:butt;stroke-linejoin:miter;stroke-opacity:1" />
        <path
           style="fill:#e8e8e8;fill-opacity:1;stroke:none;stroke-width:0.26458332px;stroke-linecap:butt;stroke-linejoin:miter;stroke-opacity:1"
           d="m -210.1481,241.81781 c 1.30223,0.0543 1.62779,0.92241 1.68205,1.73631 0.0543,0.8139 -0.65111,1.57353 -1.46501,1.57353 -0.8139,0 -1.57353,-0.59685 -1.62779,-1.57353 -0.0543,-0.97668 0.16277,-1.68205 1.41075,-1.73631 z"
           id="path4084" />
        <path
           id="path4090"
           d="m -208.57457,246.26711 c 1.30223,0.0543 1.62779,0.92241 1.68205,1.73631 0.0543,0.8139 -0.65111,1.57353 -1.46501,1.57353 -0.8139,0 -1.57353,-0.59685 -1.62779,-1.57353 -0.0543,-0.97668 0.16277,-1.68205 1.41075,-1.73631 z"
           style="fill:#e8e8e8;fill-opacity:1;stroke:none;stroke-width:0.26458332px;stroke-linecap:butt;stroke-linejoin:miter;stroke-opacity:1" />
        <path
           style="fill:#e8e8e8;fill-opacity:1;stroke:none;stroke-width:0.26458332px;stroke-linecap:butt;stroke-linejoin:miter;stroke-opacity:1"
           d="m -206.56696,250.33659 c 1.30223,0.0543 1.62779,0.92241 1.68205,1.73631 0.0543,0.8139 -0.65111,1.57353 -1.46501,1.57353 -0.8139,0 -1.57353,-0.59685 -1.62779,-1.57353 -0.0543,-0.97668 0.16277,-1.68205 1.41075,-1.73631 z"
           id="path4092" />
        <path
           id="path4094"
           d="m -204.01675,254.35181 c 1.30223,0.0543 1.62779,0.92241 1.68205,1.73631 0.0543,0.8139 -0.65111,1.57353 -1.46501,1.57353 -0.8139,0 -1.57353,-0.59685 -1.62779,-1.57353 -0.0543,-0.97668 0.16277,-1.68205 1.41075,-1.73631 z"
           style="fill:#e8e8e8;fill-opacity:1;stroke:none;stroke-width:0.26458332px;stroke-linecap:butt;stroke-linejoin:miter;stroke-opacity:1" />
        <path
           style="fill:#e8e8e8;fill-opacity:1;stroke:none;stroke-width:0.26458332px;stroke-linecap:butt;stroke-linejoin:miter;stroke-opacity:1"
           d="m -200.54412,258.58407 c 1.30223,0.0543 1.62779,0.92241 1.68205,1.73631 0.0543,0.8139 -0.65111,1.57353 -1.46501,1.57353 -0.8139,0 -1.57353,-0.59685 -1.62779,-1.57353 -0.0543,-0.97668 0.16277,-1.68205 1.41075,-1.73631 z"
           id="path4096" />
        <path
           id="path4098"
           d="m -196.32738,261.13428 c 1.38762,0.0579 1.73453,0.9829 1.79235,1.85017 0.0579,0.86727 -0.69381,1.67671 -1.56108,1.67671 -0.86727,0 -1.67671,-0.63599 -1.73453,-1.67671 -0.0579,-1.04073 0.17345,-1.79235 1.50326,-1.85017 z"
           style="fill:#e8e8e8;fill-opacity:1;stroke:none;stroke-width:0.28193307px;stroke-linecap:butt;stroke-linejoin:miter;stroke-opacity:1" />
        <path
           style="fill:#e8e8e8;fill-opacity:1;stroke:none;stroke-width:0.28193307px;stroke-linecap:butt;stroke-linejoin:miter;stroke-opacity:1"
           d="m -190.84714,262.81633 c 1.38762,0.0579 1.73453,0.9829 1.79235,1.85017 0.0579,0.86727 -0.69381,1.67671 -1.56108,1.67671 -0.86727,0 -1.67671,-0.63599 -1.73453,-1.67671 -0.0579,-1.04073 0.17345,-1.79235 1.50326,-1.85017 z"
           id="path4100" />
        <path
           id="path4102"
           d="m -185.85524,263.79301 c 1.38762,0.0579 1.73453,0.9829 1.79235,1.85017 0.0579,0.86727 -0.69381,1.67671 -1.56108,1.67671 -0.86727,0 -1.67671,-0.63599 -1.73453,-1.67671 -0.0579,-1.04073 0.17345,-1.79235 1.50326,-1.85017 z"
           style="fill:#e8e8e8;fill-opacity:1;stroke:none;stroke-width:0.28193307px;stroke-linecap:butt;stroke-linejoin:miter;stroke-opacity:1" />
        <path
           style="fill:#e8e8e8;fill-opacity:1;stroke:none;stroke-width:0.28193307px;stroke-linecap:butt;stroke-linejoin:miter;stroke-opacity:1"
           d="m -180.6463,264.71543 c 1.38762,0.0579 1.73453,0.9829 1.79235,1.85017 0.0579,0.86727 -0.69381,1.67671 -1.56108,1.67671 -0.86727,0 -1.67671,-0.63599 -1.73453,-1.67671 -0.0579,-1.04073 0.17345,-1.79235 1.50326,-1.85017 z"
           id="path4104" />
        <path
           id="path4106"
           d="m -175.54588,265.36655 c 1.38762,0.0579 1.73453,0.9829 1.79235,1.85017 0.0579,0.86727 -0.69381,1.67671 -1.56108,1.67671 -0.86727,0 -1.67671,-0.63599 -1.73453,-1.67671 -0.0579,-1.04073 0.17345,-1.79235 1.50326,-1.85017 z"
           style="fill:#e8e8e8;fill-opacity:1;stroke:none;stroke-width:0.28193307px;stroke-linecap:butt;stroke-linejoin:miter;stroke-opacity:1" />
        <path
           style="fill:#e8e8e8;fill-opacity:1;stroke:none;stroke-width:0.29060796px;stroke-linecap:butt;stroke-linejoin:miter;stroke-opacity:1"
           d="m -170.50748,266.01767 c 1.43032,0.0597 1.7879,1.01314 1.8475,1.9071 0.0597,0.89395 -0.71516,1.7283 -1.60911,1.7283 -0.89396,0 -1.7283,-0.65556 -1.7879,-1.7283 -0.0597,-1.07275 0.17878,-1.8475 1.54951,-1.9071 z"
           id="path4108" />
        <path
           id="path4110"
           d="m -164.97298,266.83157 c 1.43032,0.0597 1.7879,1.01314 1.8475,1.9071 0.0597,0.89395 -0.71516,1.7283 -1.60911,1.7283 -0.89396,0 -1.7283,-0.65556 -1.7879,-1.7283 -0.0597,-1.07275 0.17878,-1.8475 1.54951,-1.9071 z"
           style="fill:#e8e8e8;fill-opacity:1;stroke:none;stroke-width:0.29060796px;stroke-linecap:butt;stroke-linejoin:miter;stroke-opacity:1" />
        <path
           style="fill:#e8e8e8;fill-opacity:1;stroke:none;stroke-width:0.29060796px;stroke-linecap:butt;stroke-linejoin:miter;stroke-opacity:1"
           d="m -159.70978,267.37417 c 1.43032,0.0597 1.7879,1.01314 1.8475,1.9071 0.0597,0.89395 -0.71516,1.7283 -1.60911,1.7283 -0.89396,0 -1.7283,-0.65556 -1.7879,-1.7283 -0.0597,-1.07275 0.17878,-1.8475 1.54951,-1.9071 z"
           id="path4112" />
        <path
           id="path4114"
           d="m -154.39232,267.86251 c 1.43032,0.0597 1.7879,1.01314 1.8475,1.9071 0.0597,0.89395 -0.71516,1.7283 -1.60911,1.7283 -0.89396,0 -1.7283,-0.65556 -1.7879,-1.7283 -0.0597,-1.07275 0.17878,-1.8475 1.54951,-1.9071 z"
           style="fill:#e8e8e8;fill-opacity:1;stroke:none;stroke-width:0.29060796px;stroke-linecap:butt;stroke-linejoin:miter;stroke-opacity:1" />
        <path
           style="fill:#e8e8e8;fill-opacity:1;stroke:none;stroke-width:0.29060796px;stroke-linecap:butt;stroke-linejoin:miter;stroke-opacity:1"
           d="m -148.96634,268.45937 c 1.43032,0.0597 1.7879,1.01314 1.8475,1.9071 0.0597,0.89395 -0.71516,1.7283 -1.60911,1.7283 -0.89396,0 -1.7283,-0.65556 -1.7879,-1.7283 -0.0597,-1.07275 0.17878,-1.8475 1.54951,-1.9071 z"
           id="path4116" />
        <path
           id="path4118"
           d="m -143.59462,268.94771 c 1.43032,0.0597 1.7879,1.01314 1.8475,1.9071 0.0597,0.89395 -0.71516,1.7283 -1.60911,1.7283 -0.89396,0 -1.7283,-0.65556 -1.7879,-1.7283 -0.0597,-1.07275 0.17878,-1.8475 1.54951,-1.9071 z"
           style="fill:#e8e8e8;fill-opacity:1;stroke:none;stroke-width:0.29060796px;stroke-linecap:butt;stroke-linejoin:miter;stroke-opacity:1" />
        <path
           style="fill:#e8e8e8;fill-opacity:1;stroke:none;stroke-width:0.29060796px;stroke-linecap:butt;stroke-linejoin:miter;stroke-opacity:1"
           d="m -138.2229,269.32753 c 1.43032,0.0597 1.7879,1.01314 1.8475,1.9071 0.0597,0.89395 -0.71516,1.7283 -1.60911,1.7283 -0.89396,0 -1.7283,-0.65556 -1.7879,-1.7283 -0.0597,-1.07275 0.17878,-1.8475 1.54951,-1.9071 z"
           id="path4120" />
        <path
           id="path4122"
           d="m -132.74266,269.76161 c 1.43032,0.0597 1.7879,1.01314 1.8475,1.9071 0.0597,0.89395 -0.71516,1.7283 -1.60911,1.7283 -0.89396,0 -1.7283,-0.65556 -1.7879,-1.7283 -0.0597,-1.07275 0.17878,-1.8475 1.54951,-1.9071 z"
           style="fill:#e8e8e8;fill-opacity:1;stroke:none;stroke-width:0.29060796px;stroke-linecap:butt;stroke-linejoin:miter;stroke-opacity:1" />
        <path
           style="fill:#e8e8e8;fill-opacity:1;stroke:none;stroke-width:0.29060796px;stroke-linecap:butt;stroke-linejoin:miter;stroke-opacity:1"
           d="m -127.20816,270.19569 c 1.43032,0.0597 1.7879,1.01314 1.8475,1.9071 0.0597,0.89395 -0.71516,1.7283 -1.60911,1.7283 -0.89396,0 -1.7283,-0.65556 -1.7879,-1.7283 -0.0597,-1.07275 0.17878,-1.8475 1.54951,-1.9071 z"
           id="path4124" />
        <path
           id="path4126"
           d="m -121.78218,270.52125 c 1.43032,0.0597 1.7879,1.01314 1.8475,1.9071 0.0597,0.89395 -0.71516,1.7283 -1.60911,1.7283 -0.89396,0 -1.7283,-0.65556 -1.7879,-1.7283 -0.0597,-1.07275 0.17878,-1.8475 1.54951,-1.9071 z"
           style="fill:#e8e8e8;fill-opacity:1;stroke:none;stroke-width:0.29060796px;stroke-linecap:butt;stroke-linejoin:miter;stroke-opacity:1" />
      </g>
      <path
         style="fill:#dadada;fill-opacity:1;stroke:none;stroke-width:0.26458332px;stroke-linecap:butt;stroke-linejoin:miter;stroke-opacity:1"
         d="m -183.69632,261.58748 c 7.99952,0.0976 11.70662,-5.36553 11.60906,-11.80417 -0.0976,-6.43864 -5.07287,-10.4384 -11.90173,-10.34084 -6.82885,0.0976 -10.92617,5.8533 -10.82862,12.09683 0.0976,6.24353 3.51199,9.65796 11.12129,10.04818 z"
         id="path4128" />
      <path
         style="fill:#bebebe;fill-opacity:1;stroke:none;stroke-width:0.26458332px;stroke-linecap:butt;stroke-linejoin:miter;stroke-opacity:1"
         d="m -152.28357,265.29458 c 8.68241,0.0976 12.29195,-6.82886 11.99928,-11.41395 -0.29266,-4.58509 -3.31687,-12.19439 -11.99928,-12.09684 -8.6824,0.0975 -11.80417,5.26798 -11.80417,12.48706 0,7.21908 4.87776,10.82863 11.80417,11.02373 z"
         id="path4130" />
      <path
         style="fill:#d7d7d7;fill-opacity:1;stroke:none;stroke-width:0.99999994px;stroke-linecap:butt;stroke-linejoin:miter;stroke-opacity:1"
         d="m 1291.8789,2309.166 -202.918,2.5488 2.6192,135.1192 c 32.4932,1.747 170.2895,5.4162 200.2988,5.291 z m 0,0 v 142.959 c 30.0092,0.1252 167.8055,-3.544 200.2988,-5.291 l 2.6191,-135.1192 z"
         transform="matrix(0.26458333,0,0,0.26458333,-278.01972,-274.33559)"
         id="path4139" />
      <path
         style="fill:#d2d2d2;fill-opacity:1;stroke:none;stroke-width:0.26458332px;stroke-linecap:butt;stroke-linejoin:miter;stroke-opacity:1"
         d="m 8.9127744,334.92881 c -1.0398236,4.50588 -1.4854623,19.21198 -0.6932157,27.72863 0.7922466,8.51664 2.6738323,12.57691 3.0699553,9.11082 0.396124,-3.46607 0.297093,-26.93638 0.297093,-29.31311 0,-2.37675 0.396123,-3.76317 2.970925,-3.8622 2.574801,-0.099 0.693215,-2.07965 0.693215,-2.07965 z"
         id="path4137" />
      <path
         style="fill:#cdcdcd;fill-opacity:1;stroke:none;stroke-width:0.99999994px;stroke-linecap:butt;stroke-linejoin:miter;stroke-opacity:1"
         d="m 1291.8789,2297.0703 c -69.5657,0.4005 -166.3537,-0.011 -192.3984,0.9922 -27.525,1.0587 -12.1747,16.9374 3.1757,18.5254 13.0451,1.3495 143.6385,-0.6462 189.2227,-1.3047 z m 0,0 v 18.2129 c 45.5841,0.6585 176.1775,2.6542 189.2226,1.3047 15.3505,-1.588 30.7007,-17.4667 3.1758,-18.5254 -26.0447,-1.0035 -122.8327,-0.5917 -192.3984,-0.9922 z"
         transform="matrix(0.26458333,0,0,0.26458333,-278.01972,-274.33559)"
         id="path4132" />
      <path
         id="path4312"
         d="m 367.40838,217.99777 c 0.10852,11.72011 0.10852,22.35502 -0.32556,27.12989 -0.43407,4.77485 -1.30223,15.19273 -1.30223,15.19273 l -19.31648,11.82862 -32.33882,10.9605 -9.54972,-0.21707 -79.43631,1.08522 1.41075,-7.81341 39.71816,-47.31453 9.54972,-0.97667 z"
         style="fill:#323232;fill-opacity:1;stroke:none;stroke-width:0.26458332px;stroke-linecap:butt;stroke-linejoin:miter;stroke-opacity:1" />
      <path
         id="path4328"
         d="m 367.4484,216.53218 c -0.0516,6.23926 0.51846,5.86311 -4.03899,8.47133 -4.55746,2.6082 -17.80808,5.14446 -36.15337,6.69359 -18.34529,1.54912 -50.11454,3.74312 -54.46111,3.70715 -4.34658,-0.0359 -3.19861,-1.72742 0.43114,-6.42224 3.62975,-4.69482 9.17121,-12.01976 11.28754,-16.5381 2.11634,-4.51837 1.9211,-3.76399 6.6519,-4.48083 4.7308,-0.71682 25.90143,-1.10859 34.81328,-4.62574 8.91185,-3.51714 21.70344,-19.09782 28.67413,-39.26256 6.97069,-20.16472 8.41399,-34.70536 8.94678,-53.41141 0.53281,-18.706055 1.44513,-37.59796 2.00399,-13.78002 0.55887,23.81794 1.91823,110.76468 1.84471,119.64883 z"
         style="fill:#f2f2f2;fill-opacity:1;stroke:none;stroke-width:0.26458332px;stroke-linecap:butt;stroke-linejoin:miter;stroke-opacity:1" />
      <path
         id="path4340"
         d="m 308.15671,-197.63208 c -12.8053,-0.21705 -13.45642,-7.59637 -13.02235,-15.19274 0.43408,-7.59637 5.42598,-11.50307 13.89051,-11.50307 8.46452,0 12.37123,6.72821 12.58826,13.8905 0.21704,7.16229 -3.68966,13.02234 -13.45642,12.80531 z"
         style="fill:#d0d0d0;fill-opacity:1;stroke:none;stroke-width:0.26458332px;stroke-linecap:butt;stroke-linejoin:miter;stroke-opacity:1" />
      <path
         id="path4342"
         d="m 297.77821,-182.43969 c -5.67838,0 -6.75267,0.76735 -6.75267,8.74778 0,7.98043 0.92082,9.05472 4.75756,9.51513 3.83675,0.4604 13.65881,0.76734 17.49556,0.4604 3.83675,-0.30694 4.75756,-0.92081 5.0645,-8.5943 0.30695,-7.6735 0.46041,-9.36166 -2.76245,-9.6686 -3.22287,-0.30694 -12.43105,-0.76735 -17.8025,-0.46041 z"
         style="fill:#da7d26;fill-opacity:1;stroke:none;stroke-width:0.26458332px;stroke-linecap:butt;stroke-linejoin:miter;stroke-opacity:1" />
      <path
         id="path4344"
         d="m 358.6183,234.38422 c 0.86815,-4.77486 1.19371,-5.96858 -2.49595,-5.10042 -3.68967,0.86816 -22.13799,4.77486 -49.59343,6.72821 -27.45545,1.95335 -34.61774,1.73632 -37.65628,1.95335 -3.03855,0.21704 -4.12375,0.65112 -6.83673,3.90671 -2.71299,3.25559 -21.81243,30.0599 -24.09134,32.88142 -2.27891,2.82152 -1.19372,4.23227 1.51927,4.23227 2.71299,0 30.81955,-1.62779 50.67863,-3.79819 19.85907,-2.17038 51.1127,-8.68157 53.93421,-9.44121 2.82151,-0.75962 4.34078,-2.17038 5.64302,-4.77485 1.30223,-2.60447 7.59636,-18.66536 8.8986,-26.58729 z"
         style="fill:#3c3c3c;fill-opacity:1;stroke:none;stroke-width:0.26458332px;stroke-linecap:butt;stroke-linejoin:miter;stroke-opacity:1" />
      <path
         id="path4346"
         d="m 346.96528,236.30269 c -2.99266,0 -4.14368,1.61143 -4.22041,3.37633 -0.0767,1.7649 0.92081,2.83919 2.99266,2.76246 2.07184,-0.0767 3.14613,-1.38123 3.22286,-2.91593 0.0767,-1.5347 -0.2302,-3.14613 -1.99511,-3.22286 z"
         style="fill:#e8a933;fill-opacity:1;stroke:none;stroke-width:0.26458332px;stroke-linecap:butt;stroke-linejoin:miter;stroke-opacity:1" />
      <path
         id="path4348"
         d="m 344.27956,243.82271 c -2.14857,-0.0767 -2.99266,0.92082 -3.22286,2.60898 -0.23021,1.68817 1.22776,2.83919 2.53225,2.91593 1.30449,0.0767 2.68572,-0.92082 3.14613,-2.68572 0.46041,-1.76491 -0.38367,-2.60899 -2.45552,-2.83919 z"
         style="fill:#e8a933;fill-opacity:1;stroke:none;stroke-width:0.26458332px;stroke-linecap:butt;stroke-linejoin:miter;stroke-opacity:1" />
      <path
         id="path4350"
         d="m 340.74976,250.65211 c -2.30205,0.0767 -3.37634,1.76491 -3.37634,3.68328 0,1.91837 1.5347,3.06939 3.0694,3.06939 1.5347,0 2.99266,-1.22775 3.14613,-3.37633 0.15347,-2.14858 -1.15103,-3.14613 -2.83919,-3.37634 z"
         style="fill:#e8a933;fill-opacity:1;stroke:none;stroke-width:0.26458332px;stroke-linecap:butt;stroke-linejoin:miter;stroke-opacity:1" />
      <path
         id="path4352"
         d="m 334.91791,257.63499 c -1.99511,0.2302 -2.99267,1.84164 -2.99267,3.37634 0,1.53469 1.68817,2.30204 3.14613,2.22531 1.45797,-0.0767 2.22532,-1.22776 2.37879,-2.91593 0.15347,-1.68817 -1.07429,-2.60898 -2.53225,-2.68572 z"
         style="fill:#e8a933;fill-opacity:1;stroke:none;stroke-width:0.26458332px;stroke-linecap:butt;stroke-linejoin:miter;stroke-opacity:1" />
      <g
         id="g4396"
         transform="matrix(-1,0,0,1,127.58019,0)">
        <path
           style="fill:#e8e8e8;fill-opacity:1;stroke:none;stroke-width:0.26458332px;stroke-linecap:butt;stroke-linejoin:miter;stroke-opacity:1"
           d="m -211.77589,237.53129 c 1.30223,0.0543 1.62779,0.92241 1.68205,1.73631 0.0543,0.8139 -0.65111,1.57353 -1.46501,1.57353 -0.8139,0 -1.57353,-0.59685 -1.62779,-1.57353 -0.0543,-0.97668 0.16277,-1.68205 1.41075,-1.73631 z"
           id="path4354" />
        <path
           id="path4356"
           d="m -210.1481,241.81781 c 1.30223,0.0543 1.62779,0.92241 1.68205,1.73631 0.0543,0.8139 -0.65111,1.57353 -1.46501,1.57353 -0.8139,0 -1.57353,-0.59685 -1.62779,-1.57353 -0.0543,-0.97668 0.16277,-1.68205 1.41075,-1.73631 z"
           style="fill:#e8e8e8;fill-opacity:1;stroke:none;stroke-width:0.26458332px;stroke-linecap:butt;stroke-linejoin:miter;stroke-opacity:1" />
        <path
           style="fill:#e8e8e8;fill-opacity:1;stroke:none;stroke-width:0.26458332px;stroke-linecap:butt;stroke-linejoin:miter;stroke-opacity:1"
           d="m -208.57457,246.26711 c 1.30223,0.0543 1.62779,0.92241 1.68205,1.73631 0.0543,0.8139 -0.65111,1.57353 -1.46501,1.57353 -0.8139,0 -1.57353,-0.59685 -1.62779,-1.57353 -0.0543,-0.97668 0.16277,-1.68205 1.41075,-1.73631 z"
           id="path4358" />
        <path
           id="path4360"
           d="m -206.56696,250.33659 c 1.30223,0.0543 1.62779,0.92241 1.68205,1.73631 0.0543,0.8139 -0.65111,1.57353 -1.46501,1.57353 -0.8139,0 -1.57353,-0.59685 -1.62779,-1.57353 -0.0543,-0.97668 0.16277,-1.68205 1.41075,-1.73631 z"
           style="fill:#e8e8e8;fill-opacity:1;stroke:none;stroke-width:0.26458332px;stroke-linecap:butt;stroke-linejoin:miter;stroke-opacity:1" />
        <path
           style="fill:#e8e8e8;fill-opacity:1;stroke:none;stroke-width:0.26458332px;stroke-linecap:butt;stroke-linejoin:miter;stroke-opacity:1"
           d="m -204.01675,254.35181 c 1.30223,0.0543 1.62779,0.92241 1.68205,1.73631 0.0543,0.8139 -0.65111,1.57353 -1.46501,1.57353 -0.8139,0 -1.57353,-0.59685 -1.62779,-1.57353 -0.0543,-0.97668 0.16277,-1.68205 1.41075,-1.73631 z"
           id="path4362" />
        <path
           id="path4364"
           d="m -200.54412,258.58407 c 1.30223,0.0543 1.62779,0.92241 1.68205,1.73631 0.0543,0.8139 -0.65111,1.57353 -1.46501,1.57353 -0.8139,0 -1.57353,-0.59685 -1.62779,-1.57353 -0.0543,-0.97668 0.16277,-1.68205 1.41075,-1.73631 z"
           style="fill:#e8e8e8;fill-opacity:1;stroke:none;stroke-width:0.26458332px;stroke-linecap:butt;stroke-linejoin:miter;stroke-opacity:1" />
        <path
           style="fill:#e8e8e8;fill-opacity:1;stroke:none;stroke-width:0.28193307px;stroke-linecap:butt;stroke-linejoin:miter;stroke-opacity:1"
           d="m -196.32738,261.13428 c 1.38762,0.0579 1.73453,0.9829 1.79235,1.85017 0.0579,0.86727 -0.69381,1.67671 -1.56108,1.67671 -0.86727,0 -1.67671,-0.63599 -1.73453,-1.67671 -0.0579,-1.04073 0.17345,-1.79235 1.50326,-1.85017 z"
           id="path4366" />
        <path
           id="path4368"
           d="m -190.84714,262.81633 c 1.38762,0.0579 1.73453,0.9829 1.79235,1.85017 0.0579,0.86727 -0.69381,1.67671 -1.56108,1.67671 -0.86727,0 -1.67671,-0.63599 -1.73453,-1.67671 -0.0579,-1.04073 0.17345,-1.79235 1.50326,-1.85017 z"
           style="fill:#e8e8e8;fill-opacity:1;stroke:none;stroke-width:0.28193307px;stroke-linecap:butt;stroke-linejoin:miter;stroke-opacity:1" />
        <path
           style="fill:#e8e8e8;fill-opacity:1;stroke:none;stroke-width:0.28193307px;stroke-linecap:butt;stroke-linejoin:miter;stroke-opacity:1"
           d="m -185.85524,263.79301 c 1.38762,0.0579 1.73453,0.9829 1.79235,1.85017 0.0579,0.86727 -0.69381,1.67671 -1.56108,1.67671 -0.86727,0 -1.67671,-0.63599 -1.73453,-1.67671 -0.0579,-1.04073 0.17345,-1.79235 1.50326,-1.85017 z"
           id="path4370" />
        <path
           id="path4372"
           d="m -180.6463,264.71543 c 1.38762,0.0579 1.73453,0.9829 1.79235,1.85017 0.0579,0.86727 -0.69381,1.67671 -1.56108,1.67671 -0.86727,0 -1.67671,-0.63599 -1.73453,-1.67671 -0.0579,-1.04073 0.17345,-1.79235 1.50326,-1.85017 z"
           style="fill:#e8e8e8;fill-opacity:1;stroke:none;stroke-width:0.28193307px;stroke-linecap:butt;stroke-linejoin:miter;stroke-opacity:1" />
        <path
           style="fill:#e8e8e8;fill-opacity:1;stroke:none;stroke-width:0.28193307px;stroke-linecap:butt;stroke-linejoin:miter;stroke-opacity:1"
           d="m -175.54588,265.36655 c 1.38762,0.0579 1.73453,0.9829 1.79235,1.85017 0.0579,0.86727 -0.69381,1.67671 -1.56108,1.67671 -0.86727,0 -1.67671,-0.63599 -1.73453,-1.67671 -0.0579,-1.04073 0.17345,-1.79235 1.50326,-1.85017 z"
           id="path4374" />
        <path
           id="path4376"
           d="m -170.50748,266.01767 c 1.43032,0.0597 1.7879,1.01314 1.8475,1.9071 0.0597,0.89395 -0.71516,1.7283 -1.60911,1.7283 -0.89396,0 -1.7283,-0.65556 -1.7879,-1.7283 -0.0597,-1.07275 0.17878,-1.8475 1.54951,-1.9071 z"
           style="fill:#e8e8e8;fill-opacity:1;stroke:none;stroke-width:0.29060796px;stroke-linecap:butt;stroke-linejoin:miter;stroke-opacity:1" />
        <path
           style="fill:#e8e8e8;fill-opacity:1;stroke:none;stroke-width:0.29060796px;stroke-linecap:butt;stroke-linejoin:miter;stroke-opacity:1"
           d="m -164.97298,266.83157 c 1.43032,0.0597 1.7879,1.01314 1.8475,1.9071 0.0597,0.89395 -0.71516,1.7283 -1.60911,1.7283 -0.89396,0 -1.7283,-0.65556 -1.7879,-1.7283 -0.0597,-1.07275 0.17878,-1.8475 1.54951,-1.9071 z"
           id="path4378" />
        <path
           id="path4380"
           d="m -159.70978,267.37417 c 1.43032,0.0597 1.7879,1.01314 1.8475,1.9071 0.0597,0.89395 -0.71516,1.7283 -1.60911,1.7283 -0.89396,0 -1.7283,-0.65556 -1.7879,-1.7283 -0.0597,-1.07275 0.17878,-1.8475 1.54951,-1.9071 z"
           style="fill:#e8e8e8;fill-opacity:1;stroke:none;stroke-width:0.29060796px;stroke-linecap:butt;stroke-linejoin:miter;stroke-opacity:1" />
        <path
           style="fill:#e8e8e8;fill-opacity:1;stroke:none;stroke-width:0.29060796px;stroke-linecap:butt;stroke-linejoin:miter;stroke-opacity:1"
           d="m -154.39232,267.86251 c 1.43032,0.0597 1.7879,1.01314 1.8475,1.9071 0.0597,0.89395 -0.71516,1.7283 -1.60911,1.7283 -0.89396,0 -1.7283,-0.65556 -1.7879,-1.7283 -0.0597,-1.07275 0.17878,-1.8475 1.54951,-1.9071 z"
           id="path4382" />
        <path
           id="path4384"
           d="m -148.96634,268.45937 c 1.43032,0.0597 1.7879,1.01314 1.8475,1.9071 0.0597,0.89395 -0.71516,1.7283 -1.60911,1.7283 -0.89396,0 -1.7283,-0.65556 -1.7879,-1.7283 -0.0597,-1.07275 0.17878,-1.8475 1.54951,-1.9071 z"
           style="fill:#e8e8e8;fill-opacity:1;stroke:none;stroke-width:0.29060796px;stroke-linecap:butt;stroke-linejoin:miter;stroke-opacity:1" />
        <path
           style="fill:#e8e8e8;fill-opacity:1;stroke:none;stroke-width:0.29060796px;stroke-linecap:butt;stroke-linejoin:miter;stroke-opacity:1"
           d="m -143.59462,268.94771 c 1.43032,0.0597 1.7879,1.01314 1.8475,1.9071 0.0597,0.89395 -0.71516,1.7283 -1.60911,1.7283 -0.89396,0 -1.7283,-0.65556 -1.7879,-1.7283 -0.0597,-1.07275 0.17878,-1.8475 1.54951,-1.9071 z"
           id="path4386" />
        <path
           id="path4388"
           d="m -138.2229,269.32753 c 1.43032,0.0597 1.7879,1.01314 1.8475,1.9071 0.0597,0.89395 -0.71516,1.7283 -1.60911,1.7283 -0.89396,0 -1.7283,-0.65556 -1.7879,-1.7283 -0.0597,-1.07275 0.17878,-1.8475 1.54951,-1.9071 z"
           style="fill:#e8e8e8;fill-opacity:1;stroke:none;stroke-width:0.29060796px;stroke-linecap:butt;stroke-linejoin:miter;stroke-opacity:1" />
        <path
           style="fill:#e8e8e8;fill-opacity:1;stroke:none;stroke-width:0.29060796px;stroke-linecap:butt;stroke-linejoin:miter;stroke-opacity:1"
           d="m -132.74266,269.76161 c 1.43032,0.0597 1.7879,1.01314 1.8475,1.9071 0.0597,0.89395 -0.71516,1.7283 -1.60911,1.7283 -0.89396,0 -1.7283,-0.65556 -1.7879,-1.7283 -0.0597,-1.07275 0.17878,-1.8475 1.54951,-1.9071 z"
           id="path4390" />
        <path
           id="path4392"
           d="m -127.20816,270.19569 c 1.43032,0.0597 1.7879,1.01314 1.8475,1.9071 0.0597,0.89395 -0.71516,1.7283 -1.60911,1.7283 -0.89396,0 -1.7283,-0.65556 -1.7879,-1.7283 -0.0597,-1.07275 0.17878,-1.8475 1.54951,-1.9071 z"
           style="fill:#e8e8e8;fill-opacity:1;stroke:none;stroke-width:0.29060796px;stroke-linecap:butt;stroke-linejoin:miter;stroke-opacity:1" />
        <path
           style="fill:#e8e8e8;fill-opacity:1;stroke:none;stroke-width:0.29060796px;stroke-linecap:butt;stroke-linejoin:miter;stroke-opacity:1"
           d="m -121.78218,270.52125 c 1.43032,0.0597 1.7879,1.01314 1.8475,1.9071 0.0597,0.89395 -0.71516,1.7283 -1.60911,1.7283 -0.89396,0 -1.7283,-0.65556 -1.7879,-1.7283 -0.0597,-1.07275 0.17878,-1.8475 1.54951,-1.9071 z"
           id="path4394" />
      </g>
      <path
         id="path4398"
         d="m 311.27651,261.58748 c -7.99952,0.0976 -11.70662,-5.36553 -11.60906,-11.80417 0.0976,-6.43864 5.07287,-10.4384 11.90173,-10.34084 6.82885,0.0976 10.92617,5.8533 10.82862,12.09683 -0.0976,6.24353 -3.51199,9.65796 -11.12129,10.04818 z"
         style="fill:#dadada;fill-opacity:1;stroke:none;stroke-width:0.26458332px;stroke-linecap:butt;stroke-linejoin:miter;stroke-opacity:1" />
      <path
         id="path4400"
         d="m 279.86376,265.29458 c -8.68241,0.0976 -12.29195,-6.82886 -11.99928,-11.41395 0.29266,-4.58509 3.31687,-12.19439 11.99928,-12.09684 8.6824,0.0975 11.80417,5.26798 11.80417,12.48706 0,7.21908 -4.87776,10.82863 -11.80417,11.02373 z"
         style="fill:#bebebe;fill-opacity:1;stroke:none;stroke-width:0.26458332px;stroke-linecap:butt;stroke-linejoin:miter;stroke-opacity:1" />
      <path
         style="fill:#2d5741;fill-opacity:1;stroke:none;stroke-width:0.99999994px;stroke-linecap:butt;stroke-linejoin:miter;stroke-opacity:1"
         d="m 1291.8789,2322.9707 c -42.0251,0.3432 -153.0289,0.3477 -162.1211,0.3477 -9.3572,0 -8.2344,12.7258 -8.2344,20.5859 0,7.8601 0.7495,78.9747 1.4981,87.209 0.7486,8.2344 3.3689,12.7253 14.5976,13.0996 9.3898,0.3129 116.4899,-0.6751 154.2598,-1.2285 z m 0,0 v 120.0137 c 37.7698,0.5534 144.87,1.5414 154.2597,1.2285 11.2287,-0.3743 13.8491,-4.8652 14.5977,-13.0996 0.7486,-8.2343 1.498,-79.3489 1.498,-87.209 0,-7.8601 1.1229,-20.5859 -8.2343,-20.5859 -9.0922,0 -120.0961,0 -162.1211,-0.3477 z"
         transform="matrix(0.26458333,0,0,0.26458333,-278.01972,-274.33559)"
         id="path4144" />
      <path
         id="path4404"
         d="m 118.66742,334.92881 c 1.03982,4.50588 1.48546,19.21198 0.69321,27.72863 -0.79225,8.51664 -2.67383,12.57691 -3.06995,9.11082 -0.39613,-3.46607 -0.2971,-26.93638 -0.2971,-29.31311 0,-2.37675 -0.39612,-3.76317 -2.97092,-3.8622 -2.5748,-0.099 -0.69322,-2.07965 -0.69322,-2.07965 z"
         style="fill:#d2d2d2;fill-opacity:1;stroke:none;stroke-width:0.26458332px;stroke-linecap:butt;stroke-linejoin:miter;stroke-opacity:1" />
    </g>
    <path
       style="fill:#afafaf;fill-opacity:1;stroke-width:0.12620293"
       d="m 167.72646,197.73263 v -3.53368 h 1.30705 1.30705 l 1.50096,1.98766 1.50097,1.98766 0.0348,-1.98766 0.0348,-1.98766 h 1.00641 1.00642 v 3.5386 3.5386 l -1.09357,-0.0365 -1.09358,-0.0364 -1.74599,-2.38046 -1.74599,-2.38047 v 2.41202 2.41201 h -1.00962 -1.00963 z"
       id="path5965" />
    <path
       id="path6634"
       d="m 64.654264,201.38781 c -1.432399,-0.19141 -2.591641,-0.91196 -3.120314,-1.93949 -0.412208,-0.80116 -0.458142,-2.23845 -0.09827,-3.07499 0.358499,-0.83335 1.141329,-1.55496 2.093007,-1.92933 1.01522,-0.39936 3.493914,-0.42113 4.659262,-0.0409 l 0.757218,0.24705 0.03732,0.84714 c 0.02052,0.46592 -0.01409,0.84713 -0.07693,0.84713 -0.06283,0 -0.472108,-0.18457 -0.909499,-0.41014 -1.534739,-0.79153 -3.451269,-0.58814 -4.186413,0.44427 -0.291842,0.40986 -0.455491,1.56478 -0.306078,2.1601 0.228836,0.91175 1.31736,1.58468 2.570482,1.58909 l 0.788768,0.003 v -0.69411 -0.69412 h -0.820319 -0.820319 v -0.6974 -0.69741 l 1.924595,0.0348 1.924594,0.0348 v 1.76379 1.76379 l -0.88342,0.20445 c -1.157226,0.26783 -2.590832,0.36465 -3.533682,0.23866 z"
       style="fill:#afafaf;fill-opacity:1;stroke-width:0.12620293" />
    <path
       style="fill:#afafaf;fill-opacity:1;stroke-width:0.12620293"
       d="m 26.622001,197.73263 v -3.53368 h 1.072724 1.072725 v 2.90267 2.90267 h 1.956146 1.956145 v 0.63101 0.63101 h -3.02887 -3.02887 z"
       id="path6636" />
    <path
       id="path6638"
       d="m -6.8173588,201.38113 c -1.962548,-0.28717 -3.135556,-1.42453 -3.3234802,-3.22249 -0.171865,-1.64432 0.7112982,-3.13741 2.2054802,-3.72865 0.584663,-0.23134 0.960659,-0.28179 2.100379,-0.28179 1.642994,0 2.521035,0.27598 3.30804,1.03974 0.653954,0.63464 0.94523,1.29384 1.0174,2.30253 0.112837,1.57703 -0.65613,2.9373 -1.983204,3.50819 -0.529387,0.22774 -2.075604,0.54229 -2.468439,0.50218 -0.06941,-0.007 -0.454691,-0.061 -0.856176,-0.11971 z m 2.147192,-1.58476 c 0.643683,-0.48058 0.8436,-0.88218 0.895384,-1.79865 0.09219,-1.63155 -0.612649,-2.53531 -1.978022,-2.53627 -1.313689,-9.5e-4 -2.006919,0.6513 -2.129536,2.00356 -0.106187,1.17103 0.333435,2.12142 1.153237,2.49309 0.533501,0.24187 1.634159,0.15541 2.058937,-0.16173 z"
       style="fill:#afafaf;fill-opacity:1;stroke-width:0.12620293" />
    <path
       style="fill:#afafaf;fill-opacity:1;stroke-width:0.12620293"
       d="m -42.669774,201.04546 c -0.0459,-0.12147 -0.721292,-1.69743 -1.500876,-3.50213 l -1.417424,-3.28128 1.084005,-0.0368 c 0.780136,-0.0265 1.112115,0.009 1.184286,0.12549 0.05515,0.0892 0.514289,1.19816 1.020297,2.46426 0.506007,1.2661 0.948409,2.30181 0.983115,2.30157 0.03471,-2.2e-4 0.509984,-1.10679 1.056173,-2.45903 l 0.993072,-2.45862 h 1.11604 1.116041 l -0.431413,1.00793 c -0.237278,0.55437 -0.924385,2.14452 -1.526904,3.53368 l -1.095491,2.52575 h -1.248735 c -1.073344,0 -1.260455,-0.031 -1.332186,-0.22085 z"
       id="path6640" />
    <path
       id="path6642"
       d="m 133.06563,197.73263 v -3.53368 h 3.02887 3.02887 v 0.69412 0.69411 h -1.95615 -1.95614 v 0.63102 0.63102 h 1.82994 1.82994 v 0.69411 0.69411 h -1.8357 -1.83571 l 0.0373,0.85188 0.0373,0.85187 1.92459,0.0348 1.9246,0.0348 v 0.62773 0.62772 h -3.02887 -3.02888 z"
       style="fill:#afafaf;fill-opacity:1;stroke-width:0.12620293" />
    <path
       style="fill:#afafaf;fill-opacity:1;stroke-width:0.12620293"
       d="m 96.62492,197.71988 v -3.54643 l 2.61871,0.0484 c 2.37086,0.0438 2.66649,0.0738 3.12352,0.31598 0.88292,0.46793 1.1364,0.84062 1.13186,1.66415 -0.005,0.86717 -0.33194,1.40714 -1.08549,1.79157 l -0.50029,0.25523 0.37995,0.47972 c 0.20897,0.26384 0.46847,0.55319 0.57668,0.64299 0.1082,0.0898 0.54213,0.55287 0.96428,1.02904 l 0.76756,0.86575 h -1.33019 -1.33019 l -1.10104,-1.26199 c -1.036593,-1.18816 -1.129393,-1.26203 -1.585475,-1.26203 h -0.484436 v 1.26203 1.26202 H 97.697644 96.62492 Z m 4.24978,-0.56371 c 0.52027,-0.32998 0.53671,-1.17755 0.0281,-1.44974 -0.14433,-0.0773 -0.68318,-0.17227 -1.197433,-0.21117 l -0.935007,-0.0707 v 1.04065 1.04065 l 0.914971,-0.0878 c 0.503239,-0.0483 1.038449,-0.16613 1.189359,-0.26185 z"
       id="path6644" />
    <path
       style="fill:#9c9c9c;fill-opacity:1;stroke-width:0.1076486"
       d="m -99.962513,245.05723 c -1.215267,-0.38388 -2.336237,-1.33216 -2.755407,-2.33093 -0.28202,-0.67197 -0.2768,-1.69241 0.0121,-2.36985 1.13781,-2.66795 5.459143,-3.24434 7.685089,-1.02506 0.260724,0.25994 0.599698,0.7125 0.753273,1.00569 0.237183,0.45279 0.279232,0.66122 0.279232,1.38409 0,0.71985 -0.04243,0.93042 -0.275194,1.36593 -0.522085,0.97684 -1.498685,1.71279 -2.706168,2.03934 -0.735842,0.19901 -2.255037,0.16387 -2.992937,-0.0692 z m 2.148993,-1.0541 c 0.187526,-0.13686 0.458571,-0.50084 0.602323,-0.80884 0.223986,-0.47993 0.26116,-0.70639 0.259952,-1.58367 -0.0015,-1.09968 -0.127625,-1.52136 -0.639841,-2.13949 -1.053842,-1.27176 -2.500694,-0.0783 -2.518174,2.07719 -0.008,1.01206 0.23435,1.73322 0.765756,2.27674 0.491581,0.50279 1.003457,0.56236 1.529984,0.17807 z m 26.370826,1.60189 c -2.329189,-0.74116 -3.55919,-2.89513 -2.74871,-4.81356 1.038754,-2.45875 4.936297,-3.21903 7.24201,-1.41266 0.922103,0.72241 1.396009,1.5386 1.478066,2.54562 0.139366,1.71036 -1.066634,3.21821 -2.98995,3.73834 -0.742524,0.20081 -2.261345,0.17139 -2.981416,-0.0575 z m 2.121974,-1.06137 c 1.045856,-0.7633 1.227832,-3.31139 0.323041,-4.5233 -0.747881,-1.00175 -1.759725,-0.78375 -2.33071,0.50213 -0.229317,0.51644 -0.280255,0.78621 -0.282378,1.49541 -0.0061,2.02575 1.181105,3.33511 2.290047,2.52576 z m -41.02549,0.24827 c -0.0462,-0.0789 -0.71195,-1.45687 -1.47934,-3.06216 l -1.39525,-2.91872 -0.69831,-0.0172 -0.6983,-0.0172 -0.0314,-0.48283 -0.0314,-0.48286 3.17174,0.0602 3.17174,0.0602 v 0.45388 0.45389 l -0.63828,0.001 c -0.35105,3.4e-4 -0.69966,-0.008 -0.77467,-0.0217 -0.075,-0.0128 -0.12097,0.0527 -0.10213,0.14562 0.0508,0.25038 2.06544,4.19215 2.14478,4.19642 0.0374,0.002 0.42395,-0.74274 0.85898,-1.65502 0.43502,-0.91229 0.87546,-1.82461 0.97876,-2.02738 0.10329,-0.20276 0.1878,-0.41817 0.1878,-0.47868 0,-0.0606 -0.25276,-0.11481 -0.56168,-0.12067 l -0.56169,-0.0106 v -0.45389 -0.45389 l 2.19568,0.0417 2.19568,0.0417 v 0.45389 0.45389 l -0.7404,-0.0131 -0.74041,-0.0131 -0.73964,1.54506 c -0.4068,0.84977 -1.0576,2.20283 -1.44621,3.00677 l -0.70659,1.46173 -1.73768,-0.002 c -1.30284,-0.002 -1.75872,-0.0384 -1.82177,-0.14539 z m 16.817556,-0.12196 v -0.57753 l 0.740404,0.0521 0.740405,0.0522 0.02748,-2.51419 0.02744,-2.51419 -0.691269,0.002 -0.691273,0.002 -0.03142,-0.47898 -0.03142,-0.47896 2.865362,0.0544 2.865366,0.0544 -5.4e-5,0.48225 -5.4e-5,0.48224 -0.689289,-0.0131 -0.689289,-0.0131 v 2.49637 2.49636 l 0.973419,0.0115 c 0.799661,0.009 1.060095,-0.0328 1.459017,-0.23977 0.556973,-0.28901 0.96356,-0.86631 1.055891,-1.49921 0.0619,-0.42435 0.06837,-0.42954 0.482893,-0.38799 l 0.420146,0.0421 0.02833,1.61749 0.02833,1.61751 -4.445231,-0.0843 -4.44523,-0.0843 z m 11.673778,0.66048 c -0.04544,-0.0771 -0.710124,-1.45555 -1.477073,-3.06337 -1.541949,-3.23251 -1.300521,-2.93327 -2.409694,-2.98664 l -0.43403,-0.0209 v -0.45388 -0.45389 l 3.165865,0.06 3.16587,0.0601 v 0.45389 0.45388 l -0.773426,-0.0147 c -0.585011,-0.0111 -0.765377,0.0216 -0.740404,0.13407 0.07038,0.31706 2.080253,4.19552 2.160981,4.17006 0.09652,-0.0305 2.008089,-3.96249 2.008089,-4.13059 0,-0.0597 -0.252757,-0.11329 -0.561686,-0.11915 l -0.561683,-0.0107 v -0.45388 -0.45389 l 2.195681,0.0417 2.195679,0.0417 v 0.44891 0.44892 l -0.740404,0.0192 -0.740403,0.0192 -0.876101,1.79893 c -0.481858,0.98939 -1.139233,2.34284 -1.460835,3.00764 l -0.584737,1.20873 -1.724535,-0.0327 c -1.244317,-0.0236 -1.747539,-0.0717 -1.807154,-0.1728 z"
       id="path1864" />
  </g>
</svg>
