<?xml version="1.0" encoding="UTF-8" standalone="no"?>
<svg
   xmlns:dc="http://purl.org/dc/elements/1.1/"
   xmlns:cc="http://creativecommons.org/ns#"
   xmlns:rdf="http://www.w3.org/1999/02/22-rdf-syntax-ns#"
   xmlns:svg="http://www.w3.org/2000/svg"
   xmlns="http://www.w3.org/2000/svg"
   width="397.21381mm"
   height="465.94614mm"
   viewBox="0 0 397.21381 465.94614"
   version="1.1"
   id="svg8">
  <defs
     id="defs2" />
  <metadata
     id="metadata5">
    <rdf:RDF>
      <cc:Work
         rdf:about="">
        <dc:format>image/svg+xml</dc:format>
        <dc:type
           rdf:resource="http://purl.org/dc/dcmitype/StillImage" />
        <dc:title></dc:title>
      </cc:Work>
    </rdf:RDF>
  </metadata>
  <g
     id="layer1"
     transform="translate(137.66985,25.41369)">
    <path
       style="fill:#cfcfcf;fill-opacity:1;stroke:none;stroke-width:0.26458332px;stroke-linecap:butt;stroke-linejoin:miter;stroke-opacity:1"
       d="m -135.87057,342.82051 c 0.1591,13.84163 -0.79549,28.63782 2.38649,50.5935 3.18198,21.95565 6.36396,37.54736 7.31855,42.00212 0.9546,4.45479 3.50018,4.93208 7.31856,5.0912 3.81838,0.15909 62.048618,-0.47731 67.935282,-0.7955 5.886664,-0.31821 5.886664,-1.75009 6.045764,-5.88666 0.159099,-4.13658 -0.318199,-19.56919 6.523058,-39.61567 6.84126,-20.04647 16.864498,-34.04719 27.365033,-35.31999 10.50053592,-1.27278 53.616371,-1.90918 75.253839,-2.22737 21.637466,-0.31822 63.639614,0.63637 73.662844,1.59099 10.02324,0.95459 16.06901,4.29567 21.95567,19.09188 5.88666,14.79619 13.20522,39.93386 13.52342,50.11619 0.3182,10.18233 0.95459,11.61423 6.04576,11.61423 5.09117,0 58.35074,-0.6364 64.0783,-0.7955 5.72757,-0.15909 6.36396,-0.31819 7.95495,-7.15946 1.59099,-6.84126 7.29926,-47.93541 7.61746,-65.11809 0.31819,-17.1827 0.5352,-22.70456 0.3761,-26.04564 -0.1591,-3.34107 -22.11477,-1.11371 -22.11477,-1.11371 L 161.48551,320.86486 118.575,323.77499 -51.525,319.05 Z"
       id="path955" />
    <path
       style="fill:#565656;fill-opacity:1;stroke:none;stroke-width:0.26458332px;stroke-linecap:butt;stroke-linejoin:miter;stroke-opacity:1"
       d="m 155.55086,321.58879 c 7.48355,8.01809 10.82442,13.09621 18.57523,18.97615 7.75082,5.87992 13.36348,5.34538 21.78247,5.47902 8.41899,0.13364 50.38031,-1.06908 54.52299,-1.06908 4.14267,0 -2.2718,-52.25121 -2.2718,-52.25121 0,0 -89.40165,12.56168 -92.60889,28.86512 z"
       id="path945" />
    <path
       style="fill:#565656;fill-opacity:1;stroke:none;stroke-width:0.26458332px;stroke-linecap:butt;stroke-linejoin:miter;stroke-opacity:1"
       d="m -122.07536,347.24668 c 7.48355,-0.0668 45.629677,0.30763 56.401997,0.11864 10.772322,-0.189 15.40253,-3.1183 19.938245,-6.61459 4.535713,-3.49628 12.473213,-12.37871 13.890625,-14.07961 1.41741,-1.70088 1.511903,-2.17334 1.700893,-3.77976 0.188986,-1.60639 -33.16741,-14.74108 -33.16741,-14.74108 l -51.78274,-18.33184 -10.77232,2.07889 -0.37798,30.99403 z"
       id="path935" />
    <path
       style="fill:#f8cb0f;fill-opacity:1;stroke:none;stroke-width:0.26458332px;stroke-linecap:butt;stroke-linejoin:miter;stroke-opacity:1"
       d="m 58.208333,-25.41369 c 64.633927,0.377976 135.693447,13.607142 171.979167,34.3958326 36.28572,20.7886894 24.56845,17.3869044 26.83631,80.1309514 2.26785,62.744046 2.12842,242.468806 2.40959,253.433036 0.0473,1.84264 0.0624,2.21682 -1.73694,2.30321 -2.2731,0.10914 -7.53219,0.12554 -9.40307,0.12554 -1.87089,0 -1.92213,-0.21147 -1.99642,-2.32297 -0.14574,-4.14228 -0.94355,-37.36656 -0.67628,-43.24648 0.26727,-5.87994 -3.4745,-5.61266 -8.28535,-3.47451 -4.81086,2.13816 -57.46295,20.57975 -82.85356,29.66691 -25.3906,9.08717 -42.49585,17.6398 -92.475251,18.97613 -49.9794,1.33636 -67.6191889,-10.69078 -94.88068,-20.31248 C -60.135642,314.6398 -110.38231,298.33633 -115.19317,297 c -4.81085,-1.33636 -5.34539,0 -5.34539,4.54358 0,4.54359 0.73499,37.75183 0.73499,42.82995 0,2.53906 0.13619,2.91549 -1.5535,2.92325 -2.96079,0.0136 -9.27134,-0.0688 -12.54495,0.0167 -1.43018,0.0374 -1.60363,-0.20044 -1.8709,-5.27856 -0.26727,-5.07812 -2.13815,-269.808595 -1.87088,-292.526503 0.26726,-22.71791 19.77794,-39.8231593 42.495848,-47.5739755 22.717911,-7.7508163 59.755526,-25.8311555 153.356285,-27.3481315 z"
       id="path902" />
    <path
       style="fill:#272727;fill-opacity:1;stroke:none;stroke-width:0.26458332px;stroke-linecap:butt;stroke-linejoin:miter;stroke-opacity:1"
       d="m -112.78774,81.580759 c -0.53454,-19.243405 -1.06908,-21.916099 28.330571,-27.261492 29.399648,-5.34539 89.2680205,-14.967092 145.39462,-15.50163 56.126599,-0.534541 118.667669,8.552624 144.325539,13.363474 25.65788,4.810853 31.00327,6.949009 30.46873,31.537804 -0.53454,24.588795 0.53454,113.322275 0.53454,127.487565 0,14.16528 1.33635,24.05426 -25.92515,24.58879 -27.26149,0.53454 -77.50816,0.53454 -107.70961,0.80181 -30.201459,0.26727 -175.32881,1.06908 -191.364983,1.33635 -16.036167,0.26727 -23.786987,-2.93996 -24.321527,-18.44159 -0.53454,-15.50164 -0.26727,-121.607639 0.26727,-137.911081 z"
       id="path904" />
    <path
       style="fill:#4f4f4f;fill-opacity:1;stroke:none;stroke-width:0.26458332px;stroke-linecap:butt;stroke-linejoin:miter;stroke-opacity:1"
       d="m -28.33057,71.691787 c -0.267268,-15.768901 1.069078,-14.432554 12.828937,-15.234364 11.7598596,-0.801806 144.592813,-1.336347 154.481783,-1.069078 9.88898,0.267272 10.69078,1.603619 10.95805,15.234364 0.26727,13.630746 0,14.432555 -8.01808,14.967093 -8.01809,0.53454 -151.541823,0.53454 -160.094448,0.801809 -8.552623,0.267269 -9.354432,-0.267269 -10.156242,-14.699824 z"
       id="path906" />
    <path
       style="fill:#4f4f4f;fill-opacity:1;stroke:none;stroke-width:0.26458332px;stroke-linecap:butt;stroke-linejoin:miter;stroke-opacity:1"
       d="m -105.83873,104.56594 c 0.53454,-10.958051 2.93996,-11.22532 12.027128,-11.492592 9.087162,-0.267268 97.5533754,-1.870884 155.550863,-2.405424 57.997489,-0.534541 145.394619,1.069078 154.481789,0.801809 9.08716,-0.267269 11.49259,1.336347 11.75985,8.819897 0.26727,7.48354 0.53454,94.88068 0.80181,103.4333 0.26727,8.55263 -0.53454,11.75986 -14.96709,16.83798 -14.43255,5.07812 -24.05426,8.28536 -36.34866,8.28536 -12.29439,0 -107.442344,-0.80181 -133.10022,-0.26727 -25.657873,0.53454 -91.406177,1.60362 -98.889723,1.87088 -7.483546,0.26727 -11.49259,0 -27.796029,-4.81085 -16.303443,-4.81085 -22.717908,-7.48354 -22.985178,-15.23436 -0.26727,-7.75081 -1.06908,-93.54433 -0.53454,-105.83873 z"
       id="path908" />
    <path
       style="fill:#dedede;fill-opacity:1;stroke:none;stroke-width:0.26458332px;stroke-linecap:butt;stroke-linejoin:miter;stroke-opacity:1"
       d="m -59.868373,84.253455 c 13.630745,0 12.561667,-9.621702 12.027127,-13.898014 -0.534538,-4.276313 -2.138156,-10.156243 -11.759859,-10.958052 -9.621702,-0.80181 -14.432555,8.018086 -14.165283,13.363477 0.267269,5.34539 1.336347,11.759858 13.898015,11.492589 z"
       id="path910" />
    <path
       style="fill:#dedede;fill-opacity:1;stroke:none;stroke-width:0.26458332px;stroke-linecap:butt;stroke-linejoin:miter;stroke-opacity:1"
       d="m 180.94147,82.649837 c 12.02713,0.267271 13.63074,-6.681737 13.63074,-12.294396 0,-5.612662 -4.00904,-12.02713 -12.82893,-12.294399 -8.8199,-0.267269 -13.09621,7.483546 -13.09621,13.096205 0,5.612662 3.4745,11.49259 12.2944,11.49259 z"
       id="path912" />
    <path
       style="fill:#228bc9;fill-opacity:1;stroke:none;stroke-width:0.26458332px;stroke-linecap:butt;stroke-linejoin:miter;stroke-opacity:1"
       d="m -113.85682,236.46345 c 0.13364,-5.61266 0.80181,-3.87541 5.47903,-0.80181 4.67721,3.0736 10.690778,4.00904 22.450639,3.60814 11.759858,-0.4009 151.809088,-0.53454 186.687761,-1.06908 34.87867,-0.53454 108.37779,-0.53454 117.46496,-0.80181 9.08716,-0.26727 12.02713,-1.73725 15.50163,-5.21175 3.4745,-3.47451 3.20723,-2.27179 3.34087,3.8754 0.13363,6.1472 0.4009,41.69405 0.4009,45.03492 0,3.34086 -0.53454,4.40994 -4.40994,5.61266 -3.87541,1.20271 -90.56201,31.83453 -109.08284,38.26012 -18.52083,6.42559 -37.797619,8.69344 -60.854167,9.07143 -23.056548,0.37798 -40.821428,-2.26785 -69.5476181,-11.71726 -28.7261899,-9.44941 -84.6666649,-29.10417 -94.8720249,-31.75 -10.20535,-2.64583 -11.71726,-4.53573 -11.71726,-11.3393 0,-6.80358 -0.92792,-33.38261 -0.84194,-42.77166 z"
       id="path933" />
    <path
       style="fill:#3e3e3e;fill-opacity:1;stroke:none;stroke-width:0.26458332px;stroke-linecap:butt;stroke-linejoin:miter;stroke-opacity:1"
       d="m -117.92857,341.69569 c 0.18899,3.21278 0.0945,3.77976 4.44122,3.77976 4.34673,0 38.364583,0.28347 46.680059,-0.18899 8.315476,-0.47247 15.308035,-1.60639 20.032739,-6.04764 4.724702,-4.44121 6.047618,-5.19715 7.559522,-7.27604 1.511905,-2.07886 1.889881,-6.61458 -4.630209,-8.97691 -6.520087,-2.36236 -67.374251,-22.96205 -70.492561,-23.71802 -3.1183,-0.75594 -3.96875,-1.22841 -3.96875,2.64583 0,3.87427 0.0945,34.77382 0.37798,39.78201 z"
       id="path937" />
    <path
       style="fill:#737373;fill-opacity:1;stroke:none;stroke-width:0.26458332px;stroke-linecap:butt;stroke-linejoin:miter;stroke-opacity:1"
       d="m -116.03869,339.52232 c -0.0945,3.0238 0.37798,3.1183 4.06324,3.3073 3.68527,0.18899 36.663694,0.85045 44.69569,0.47246 8.031993,-0.37798 14.174105,-1.7009 17.670386,-4.63021 3.49628,-2.9293 6.425594,-5.66965 7.74851,-7.55951 1.322917,-1.88989 1.322917,-5.57517 -5.858629,-7.65403 -7.181548,-2.07888 -61.988097,-20.88317 -65.106397,-21.54463 -3.1183,-0.66146 -3.2128,-0.47249 -3.30729,2.64584 -0.0945,3.1183 0,31.4665 0.0945,34.96278 z"
       id="path939" />
    <path
       style="fill:#dbdbdb;fill-opacity:1;stroke:none;stroke-width:0.26458332px;stroke-linecap:butt;stroke-linejoin:miter;stroke-opacity:1"
       d="m -113.48735,323.26934 c 0.47247,-8.31548 5.95313,-11.62277 12.37872,-11.71726 6.425596,-0.0945 13.040179,4.5357 12.945684,13.70164 -0.09449,9.16593 -6.047619,11.71725 -12.756694,11.71725 -6.70908,0 -12.47322,-2.36235 -12.56771,-13.70163 z"
       id="path941" />
    <path
       id="path943"
       d="m -86.273064,328.93898 c 0.47247,-8.31548 5.95313,-11.62277 12.37872,-11.71726 6.425596,-0.0945 13.040179,4.5357 12.945684,13.70164 -0.09449,9.16593 -6.047619,11.71725 -12.756694,11.71725 -6.70908,0 -12.47322,-2.36235 -12.56771,-13.70163 z"
       style="fill:#838383;fill-opacity:1;stroke:none;stroke-width:0.26458332px;stroke-linecap:butt;stroke-linejoin:miter;stroke-opacity:1" />
    <path
       style="fill:#3e3e3e;fill-opacity:1;stroke:none;stroke-width:0.26458332px;stroke-linecap:butt;stroke-linejoin:miter;stroke-opacity:1"
       d="m 167.9789,332.21276 c -3.34087,-4.14269 -3.87541,-8.41899 2.07134,-10.69078 5.94674,-2.27179 68.28736,-23.98744 70.7596,-24.98971 2.47225,-1.00227 3.00678,-0.93543 3.14042,2.60588 0.13363,3.54132 0.26727,38.0859 0.33409,40.82542 0.0668,2.73952 0,3.27406 -2.6727,3.4077 -2.67269,0.13362 -47.03944,0.60135 -52.71891,0.4009 -5.67948,-0.20045 -13.29666,-2.00454 -20.91384,-11.55941 z"
       id="path947" />
    <path
       style="fill:#737373;fill-opacity:1;stroke:none;stroke-width:0.26458332px;stroke-linecap:butt;stroke-linejoin:miter;stroke-opacity:1"
       d="m 170.38432,332.21276 c -3.67495,-4.67722 -3.87541,-6.88218 1.67044,-9.08717 5.54584,-2.20498 61.53881,-22.04974 65.28058,-23.11881 3.74177,-1.06908 4.34313,-0.86863 4.54358,3.40767 0.20045,4.27633 0.26727,31.80509 0.26727,34.54461 0,2.7395 -0.53454,3.00678 -2.93997,3.14042 -2.40542,0.13361 -43.63174,0.66815 -49.57849,0.33406 -5.94675,-0.33406 -12.82894,-2.07131 -19.24341,-9.22078 z"
       id="path949" />
    <path
       style="fill:#838383;fill-opacity:1;stroke:none;stroke-width:0.26458332px;stroke-linecap:butt;stroke-linejoin:miter;stroke-opacity:1"
       d="m 198.64807,340.03038 c 9.55552,-0.0764 12.96258,-3.94221 13.02939,-12.89574 0.0668,-8.95353 -7.61715,-12.1593 -13.63074,-12.02714 -6.08039,0.13363 -11.82667,6.61493 -11.75986,13.69756 0.0668,7.08266 5.21198,11.28251 12.36121,11.22532 z"
       id="path951" />
    <path
       id="path953"
       d="m 226.0432,334.41772 c 9.55552,-0.0764 12.96258,-3.94221 13.02939,-12.89574 0.0668,-8.95353 -7.61715,-12.1593 -13.63074,-12.02714 -6.08039,0.13363 -11.82667,6.61493 -11.75986,13.69756 0.0668,7.08266 5.21198,11.28251 12.36121,11.22532 z"
       style="fill:#dbdbdb;fill-opacity:1;stroke:none;stroke-width:0.26458332px;stroke-linecap:butt;stroke-linejoin:miter;stroke-opacity:1" />
  </g>
</svg>
