<svg xmlns="http://www.w3.org/2000/svg" width="1501.281" height="1761.056" viewBox="0 0 397.214 465.946"><path d="M1.8 368.234c.158 13.842-.796 28.638 2.386 50.594 3.182 21.955 6.364 37.547 7.318 42.002.955 4.455 3.5 4.932 7.319 5.091 3.818.16 62.048-.477 67.935-.795 5.887-.319 5.887-1.75 6.046-5.887.159-4.137-.318-19.57 6.523-39.616 6.841-20.046 16.864-34.047 27.365-35.32 10.5-1.273 53.616-1.909 75.254-2.227 21.637-.318 63.64.636 73.663 1.59 10.023.955 16.069 4.296 21.955 19.093 5.887 14.796 13.206 39.934 13.524 50.116.318 10.182.954 11.614 6.046 11.614 5.09 0 58.35-.636 64.078-.795 5.727-.16 6.364-.319 7.955-7.16 1.59-6.841 7.3-47.935 7.617-65.118.318-17.183.535-22.704.376-26.046-.159-3.34-22.114-1.113-22.114-1.113l-75.89-17.978-42.911 2.91-170.1-4.725z" fill="#cfcfcf"/><path d="M293.22 347.002c7.484 8.019 10.825 13.097 18.576 18.977 7.75 5.88 13.363 5.345 21.782 5.479 8.42.133 50.38-1.07 54.523-1.07 4.143 0-2.271-52.25-2.271-52.25s-89.402 12.561-92.61 28.864zM15.594 372.66c7.484-.066 45.63.308 56.402.119 10.773-.189 15.403-3.118 19.939-6.615 4.535-3.496 12.473-12.378 13.89-14.08 1.418-1.7 1.512-2.173 1.701-3.779.19-1.606-33.167-14.741-33.167-14.741l-51.783-18.332-10.772 2.079-.378 30.994z" fill="#565656"/><path d="M195.878 0c64.634.378 135.694 13.607 171.98 34.396 36.285 20.789 24.568 17.387 26.836 80.13 2.268 62.745 2.128 242.47 2.41 253.434.047 1.842.062 2.217-1.738 2.303-2.273.11-7.532.126-9.403.126-1.87 0-1.922-.212-1.996-2.323-.146-4.143-.944-37.367-.676-43.247.267-5.88-3.475-5.613-8.286-3.474-4.81 2.138-57.463 20.58-82.853 29.667-25.391 9.087-42.496 17.64-92.476 18.976-49.979 1.336-67.619-10.691-94.88-20.313-27.262-9.622-77.508-25.925-82.32-27.261-4.81-1.337-5.345 0-5.345 4.543 0 4.544.735 37.752.735 42.83 0 2.54.136 2.916-1.553 2.923-2.961.014-9.272-.068-12.545.017-1.43.038-1.604-.2-1.871-5.278C1.63 362.37-.241 97.64.026 74.922.293 52.204 19.804 35.1 42.522 27.348 65.24 19.598 102.277 1.517 195.878 0z" fill="#f8cb0f"/><path d="M24.882 106.994c-.534-19.243-1.069-21.916 28.33-27.261 29.4-5.345 89.269-14.967 145.395-15.502 56.127-.534 118.668 8.553 144.326 13.364 25.658 4.81 31.003 6.949 30.469 31.538-.535 24.588.534 113.322.534 127.487 0 14.165 1.336 24.054-25.925 24.589-27.262.534-77.508.534-107.71.802-30.201.267-175.328 1.069-191.365 1.336-16.036.267-23.787-2.94-24.321-18.441-.535-15.502-.267-121.608.267-137.912z" fill="#272727"/><path d="M109.34 97.105c-.268-15.768 1.068-14.432 12.828-15.234 11.76-.802 144.593-1.336 154.482-1.069 9.889.267 10.69 1.604 10.958 15.234.267 13.631 0 14.433-8.018 14.967-8.018.535-151.542.535-160.094.802-8.553.268-9.355-.267-10.157-14.7zM31.831 129.98c.535-10.958 2.94-11.226 12.027-11.493 9.087-.267 97.554-1.87 155.551-2.405 57.998-.535 145.395 1.069 154.482.801 9.087-.267 11.492 1.337 11.76 8.82.267 7.484.534 94.881.802 103.434.267 8.552-.535 11.76-14.968 16.838-14.432 5.078-24.054 8.285-36.348 8.285-12.295 0-107.443-.802-133.1-.267-25.658.534-91.407 1.603-98.89 1.87-7.484.268-11.493 0-27.796-4.81-16.304-4.811-22.718-7.484-22.985-15.235-.268-7.75-1.07-93.544-.535-105.838z" fill="#4f4f4f"/><path d="M77.801 109.667c13.631 0 12.562-9.622 12.028-13.898-.535-4.276-2.139-10.156-11.76-10.958-9.622-.802-14.433 8.018-14.166 13.364.268 5.345 1.337 11.76 13.898 11.492zM318.611 108.064c12.027.267 13.631-6.682 13.631-12.295 0-5.613-4.009-12.027-12.829-12.294-8.82-.268-13.096 7.483-13.096 13.096s3.474 11.493 12.294 11.493z" fill="#dedede"/><path d="M23.813 261.877c.134-5.613.802-3.875 5.48-.802 4.676 3.074 10.69 4.01 22.45 3.608 11.76-.4 151.809-.534 186.687-1.069 34.88-.534 108.378-.534 117.465-.801 9.088-.268 12.028-1.738 15.502-5.212 3.475-3.475 3.207-2.272 3.34 3.875.135 6.147.402 41.694.402 45.035 0 3.341-.535 4.41-4.41 5.613-3.876 1.203-90.562 31.834-109.083 38.26-18.52 6.426-37.798 8.693-60.854 9.071-23.057.378-40.822-2.267-69.548-11.717-28.726-9.45-84.666-29.104-94.872-31.75-10.205-2.646-11.717-4.536-11.717-11.34 0-6.803-.928-33.382-.842-42.77z" fill="#228bc9"/><path d="M19.741 367.11c.19 3.212.095 3.78 4.442 3.78 4.346 0 38.364.283 46.68-.19 8.315-.472 15.308-1.606 20.032-6.047 4.725-4.442 6.048-5.198 7.56-7.277 1.512-2.078 1.89-6.614-4.63-8.976-6.52-2.363-67.375-22.962-70.493-23.718-3.118-.756-3.969-1.229-3.969 2.645 0 3.875.095 34.774.378 39.782z" fill="#3e3e3e"/><path d="M21.631 364.936c-.094 3.024.378 3.118 4.063 3.307 3.686.19 36.664.85 44.696.473 8.032-.378 14.174-1.701 17.67-4.63 3.497-2.93 6.426-5.67 7.749-7.56 1.323-1.89 1.323-5.575-5.859-7.654-7.181-2.079-61.988-20.883-65.106-21.545-3.118-.661-3.213-.472-3.307 2.646-.095 3.119 0 31.467.094 34.963z" fill="#737373"/><path d="M24.182 348.683c.473-8.315 5.954-11.623 12.38-11.717 6.425-.095 13.04 4.535 12.945 13.701-.095 9.166-6.048 11.718-12.757 11.718s-12.473-2.363-12.568-13.702z" fill="#dbdbdb"/><path d="M51.397 354.353c.472-8.316 5.953-11.623 12.379-11.718 6.425-.094 13.04 4.536 12.945 13.702-.094 9.166-6.047 11.717-12.757 11.717-6.709 0-12.473-2.362-12.567-13.701z" fill="#838383"/><path d="M305.649 357.626c-3.341-4.142-3.876-8.419 2.071-10.69 5.947-2.272 68.287-23.988 70.76-24.99 2.472-1.002 3.006-.935 3.14 2.606.134 3.541.267 38.086.334 40.825.067 2.74 0 3.274-2.672 3.408-2.673.134-47.04.601-52.72.4-5.679-.2-13.296-2.004-20.913-11.559z" fill="#3e3e3e"/><path d="M308.054 357.626c-3.675-4.677-3.875-6.882 1.67-9.087 5.546-2.205 61.54-22.05 65.281-23.119 3.742-1.069 4.343-.868 4.544 3.408.2 4.276.267 31.805.267 34.545 0 2.74-.534 3.007-2.94 3.14-2.405.134-43.632.668-49.578.334-5.947-.334-12.83-2.071-19.244-9.22z" fill="#737373"/><path d="M336.318 365.444c9.555-.076 12.962-3.942 13.03-12.896.066-8.953-7.618-12.159-13.631-12.027-6.08.134-11.827 6.615-11.76 13.698.067 7.082 5.212 11.282 12.36 11.225z" fill="#838383"/><path d="M363.713 359.831c9.556-.076 12.963-3.942 13.03-12.895.066-8.954-7.618-12.16-13.631-12.027-6.08.133-11.827 6.614-11.76 13.697.067 7.083 5.212 11.283 12.361 11.225z" fill="#dbdbdb"/></svg>