<svg xmlns="http://www.w3.org/2000/svg" width="2453.174" height="3391.742" viewBox="0 0 649.069 897.398"><path d="M174.546 855.981l320.734-3.548-9.934-188.75-318.606-.71z" fill="#191919"/><path d="M187.302 847.685c-7.276-12.795-12.795-26.844-11.54-40.643 1.254-13.798 11.684-81.081 11.684-89.611 0-8.53.207-6.137.01-13.427-.423-15.677-2.39-30.912-2.39-30.912l178.853-4.785 90.066 1.255 9.282 25.59s-5.52-4.015-4.767 12.543c.753 16.558 11.54 78.776 12.795 95.333 1.254 16.558 3.763 32.865-14.3 41.646-18.063 8.78 27.095 8.78 27.095 8.78l10.035-30.857-3.01-148.018-30.608-13.547-297.039 1.505-18.063 63.221 8.53 124.435z" fill="#351e1e"/><path d="M125.335 853.957c0 12.293-.25 28.349 0 31.36.25 3.01 3.261 4.013 10.788 4.515 7.526.502 166.582 7.526 175.112 7.526 8.53 0 15.806.251 25.84-.501 10.036-.753 169.343-7.025 177.371-7.527 8.028-.501 9.032-1.254 9.282-12.042.251-10.788 0-27.596-.25-30.105-.251-2.509-28.099-5.018-45.911-4.516-17.812.502-150.777 7.526-158.555 7.526-7.777 0-149.02-7.526-155.544-8.028-6.522-.501-38.133 11.792-38.133 11.792z" fill="#a5a5a5"/><path d="M165.826 842.315l11.943 17.913c30.105 2.258 132.212 6.774 141.996 6.774 9.784 0 149.272-6.02 158.555-6.523 5.522-.298 2.963-10.01-.015-17.828l-.738.016c-17.812.502-150.777 7.526-158.554 7.526-7.359 0-134.026-6.728-153.188-7.879z" fill="#909090"/><path d="M19.887 679.835c-.132 21.288-.34 50.353 4.149 91.491 4.488 41.14 8.227 61.335 8.975 71.806.748 10.472.748 11.594 15.708 13.09 14.96 1.496 115.188 3.366 126.408 3.74 11.22.374 9.724-2.618-2.244-14.212s-12.342-19.821-10.472-50.862c1.87-31.041 12.342-85.644 13.464-92.375 1.122-6.732 8.602-34.781 8.602-34.781l277.5.374s7.105 9.723 10.845 38.52c3.74 28.798 13.463 98.733 13.09 112.945-.375 14.212-17.952 32.91-20.944 36.65-2.992 3.74-1.122 4.115 10.846 4.115 11.967 0 114.44-6.732 129.4-7.48 14.96-.748 16.081-5.984 17.203-21.691 1.122-15.708 3.49-151.348 3.864-160.698.374-9.35-99.979-11.711-99.979-11.711l-124.912-4.114-368.379 7.106z" fill="#ab222e"/><path d="M117.738 707.809c-6.137.074-16.4 4.685-16.4 4.685 4.41 14.699 38.723 124.771 45.862 146.81 7.928.179 15.108.34 20.123.457-4.786-18.727-43.06-145.07-45.358-150.176-.595-1.322-2.182-1.801-4.227-1.776zM528.587 707.412c-2.75.03-5.2.858-6.697 3.103-5.29 7.934-42.801 137.762-45.528 149.813 3.188-.037 10.871-.409 20.96-.966 3.223-10.597 40.517-128.182 47.274-146.895 0 0-8.98-5.132-16.009-5.055z" fill="#b3b3b3"/><path d="M19.548 648.284c.498 17.477.028 41.918.28 51.346.373 11.407 2.525 14.102 12.622 14.663 10.098.561 140.457 1.29 147.189.916 6.732-.374 7.667-1.496 7.853-5.797.187-4.3-1.682-20.382 1.496-24.87 3.18-4.488 5.586-9.33 21.107-10.079 15.52-.748 209.994-.374 224.58-.374 14.585 0 23.187 2.618 23.935 19.448.748 16.83.374 20.943 11.594 21.691 11.22.748 138.376-.374 145.481-1.496 7.106-1.122 9.911-7.853 9.911-15.333s1.683-35.903 4.3-49.367c2.619-13.463-229.628-8.975-229.628-8.975z" fill="#1d1d1d"/><path d="M325.687 13.794c86.935.378 210.155 18.899 266.095 45.357 55.94 26.459 55.94 59.72 57.075 92.226 1.134 32.506-2.646 314.099-2.646 348.494 0 34.396.189 140.608.189 144.765 0 4.158-.756 4.725-4.158 4.914-3.402.19-34.018.945-48.948 1.134-14.93.189-584.162 1.323-587.753 1.323-3.59 0-3.023-1.89-3.212-5.67-.19-3.78-1.134-224.518-1.134-250.787 0-26.27-1.512-223.573-1.134-248.52.378-24.946 2.834-60.097 35.34-78.051s130.274-51.712 290.286-55.185z" fill="#d5d5d5"/><path d="M325.687 13.794C165.675 17.267 67.907 51.024 35.401 68.98 2.895 86.932.44 122.084.061 147.03l-.008.776c9.162-.249 21.986-.756 36.1-.91l533.518-11.962s26.08 9.261 30.616 9.072c4.148-.173 36.69-.03 48.3-.15-1.199-30.068-5.172-60.285-56.805-84.706-55.94-26.458-179.16-44.979-266.095-45.357z" fill="#cd9719"/><path d="M28.741 148.354c.045-14.096-3.03-29.473 12.053-34.852 16.836-6.005 160.263-41.708 172.023-43.58 11.76-1.87 17.907-1.87 27.529-2.137 9.622-.268 160.896-.802 170.785-1.07 9.89-.267 13.096 1.337 22.985 3.475 9.89 2.138 147.8 31.805 161.698 35.012 13.898 3.208 17.64 10.157 18.442 26.727.802 16.571 1.07 276.624.802 293.195-.267 16.57-1.337 20.847-23.253 24.856s-176.398 27.529-186.554 29.667c-10.156 2.138-11.225 2.405-18.174 2.405-6.95 0-136.842 1.07-147.533.535-10.69-.535-181.743-29.133-192.701-32.607-10.958-3.475-16.036-3.475-17.105-22.985-1.07-19.51-1.057-259.791-.997-278.641z" fill="#5f5f5f"/><path d="M646.254 491.86c-4.77.173-11.794.666-22.344 2.01-19.277 2.458-184.263 30.995-199.949 34.019-15.686 3.023-19.277 4.535-26.837 4.724-7.559.19-131.346.19-140.606.19-9.26 0-9.639.188-17.387-1.323-7.464-1.457-206.213-33.16-237.599-38.033.291 70.09.682 151.969.796 154.26.19 3.78-.378 5.67 3.213 5.67 3.59 0 572.823-1.134 587.753-1.323 14.93-.189 45.547-.945 48.948-1.134 3.402-.19 4.158-.756 4.158-4.914 0-4.157-.189-110.369-.189-144.764 0-2.174.015-5.36.043-9.382z" fill="#b93034"/><path d="M325.687 13.794c-26.796.582-51.837 2.016-75.128 4.08 1.667 9.696 6.11 19.448 8.794 23.323 3.401 4.914 3.401 4.914 10.96 5.292 7.56.378 99.03 1.134 105.078.567 6.048-.567 6.615-2.457 9.639-6.426 2.281-2.994 9.078-15.56 12.522-23.174-25.169-2.287-49.697-3.565-71.865-3.662z" fill="#a2711a"/><g fill="#121217"><path d="M274.658 33.841c9.755-.133 16.704-9.621 16.838-15.902.133-6.281-3.742-16.036-16.705-16.57-12.962-.535-15.768 10.022-16.036 16.436-.267 6.415 4.544 15.77 15.903 16.036zM374.055 32.639c13.364-.134 15.101-11.092 15.502-16.17.4-5.078-3.341-14.7-16.036-15.903-12.696-1.202-16.437 8.42-16.437 16.705 0 8.285 6.815 15.635 16.971 15.368zM323.467 46.938c16.17-.134 24.455-9.756 24.722-20.714.267-10.958-6.815-25.39-23.653-26.192-16.838-.802-23.92 13.764-23.92 23.787 0 10.022 8.953 22.718 22.85 23.119z"/></g><path d="M412.91 66.687c-.569.002-1.161.012-1.78.029-9.888.267-161.162.801-170.784 1.068-9.622.268-15.77.268-27.53 2.139-5.046.803-34.375 7.847-67.508 16.09-7.418 3.485-10.502 8.03-10.121 16.039.756 15.875 10.773 19.843 26.08 20.032 15.309.19 311.075-2.079 323.548-2.268 12.473-.189 24.19-5.858 24.001-19.654-.107-7.874-2.563-12.299-9.808-15.983-31.586-6.814-60.636-13.069-64.891-13.99-9.271-2.004-12.67-3.538-21.207-3.502z" fill="#292929"/><path d="M142.369 104.32c.945-11.907 6.803-12.474 19.654-15.498 12.852-3.023 50.271-11.717 57.075-13.229 6.803-1.512 15.497-1.7 24.568-1.89 9.072-.189 156.86-.945 166.12-.945 9.261 0 14.93.19 24.38 2.457 9.45 2.268 47.247 10.584 56.886 13.607 9.638 3.024 11.528 6.048 11.717 11.529.189 5.48-2.646 12.473-13.23 13.607-10.583 1.134-172.167.756-193.523.945-21.356.189-125.677 1.512-136.827 1.512-11.15 0-17.01-3.78-16.82-12.096z" fill="#3a3a3a"/><path d="M379.616 72.888c-33.404.162-85.045.438-114.261.635-.358 15.384-.97 34.242-.926 41.728 14.101-.164 25.908-.298 31.587-.348 9.246-.082 44.931-.062 83.113-.1.53-8.962.824-30.237.487-41.915z" fill="#414141"/><path d="M296.016 113.013c11.15-.378 17.387-8.127 17.765-19.655.378-11.528-8.127-17.198-18.52-17.387-10.395-.189-19.089 8.316-19.278 18.71-.189 10.394 8.127 18.143 20.033 18.332zM351.768 112.446c13.607-.19 17.197-10.205 17.386-19.655.19-9.45-6.803-16.82-17.386-17.009-10.584-.189-18.71 7.749-18.9 20.222-.188 12.473 10.206 16.253 18.9 16.442z" fill="#a0a0a0"/><path d="M199.186 207.032c12.562 0 13.364.802 13.898 10.958.535 10.156.535 197.78.268 206.332-.268 8.553-3.742 9.89-12.295 9.622-8.552-.267-137.376-.267-145.127 0-7.75.267-8.82-2.138-9.087-12.027-.268-9.89.534-197.512.802-205.53.267-8.019 3.474-8.82 12.561-9.088 9.087-.267 127.22-.534 138.98-.267z" fill="#353535"/><path d="M197.175 212.42c10.395.379 11.15.379 11.529 9.828.377 9.45 0 189.555-.756 196.737-.756 7.181-2.08 8.315-11.15 8.315-9.072 0-130.214-.189-136.45-.189-6.237 0-7.938-2.457-8.127-11.717-.189-9.26.19-189.933.567-195.414.378-5.48 2.268-6.614 9.072-6.614 6.803 0 127.567-1.323 135.315-.945z" fill="#5c5c5c"/><path d="M431.71 215.822c.377-7.937-.379-9.449 8.504-9.827 8.882-.378 141.552-.567 148.734-.378 7.181.189 9.26.756 9.449 9.26.189 8.505.378 200.139 0 207.32-.378 7.182-.945 8.316-9.26 8.694-8.316.378-142.686.756-150.246.756-7.56 0-8.315-1.701-8.315-9.45 0-7.748.944-196.925 1.133-206.375z" fill="#353535"/><path d="M436.434 219.035c.19-6.992 1.89-7.56 7.938-7.937 6.047-.378 134.937-1.323 141.363-.378 6.425.945 6.425 2.835 6.803 9.638.378 6.804.567 186.153 0 193.335-.567 7.181-2.457 11.34-12.095 11.717-9.638.378-126.81 1.323-134.748.945-7.938-.378-7.938-2.457-8.127-8.882-.189-6.426-1.134-191.823-1.134-198.438z" fill="#5c5c5c"/><path d="M241.587 628.572c0-10.96.945-472.659.756-477.195-.189-4.535 2.646-4.157 7.749-4.346 5.103-.19 138.717-1.323 144.576-1.323 5.858 0 6.803.756 6.992 6.425.19 5.67-.756 474.927-.756 476.817 0 1.89-5.67 1.701-5.67 1.701z" fill="#b6b6b6"/><path d="M401.094 530.677c-5.379.003-146.083.554-159.326.382-.102 53.568-.18 94.453-.18 97.513l153.647 2.08s5.67.188 5.67-1.701c0-.542.082-42.878.189-98.274z" fill="#972b30"/><path d="M394.668 145.708c-5.859 0-139.473 1.134-144.576 1.323-5.103.189-7.938-.189-7.749 4.347.122 2.933-.221 191.71-.485 331.477 16.594-.04 136.224-.65 159.327-1.034.263-139.268.596-326.07.475-329.688-.189-5.67-1.134-6.425-6.992-6.425z" fill="#4e4e4e"/><path d="M576.571 537.377c13.363.535 17.105 7.216 17.907 21.114.802 13.898 1.07 30.47 0 39.556-1.07 9.087-4.81 19.244-17.105 19.244-12.295 0-18.175-6.682-18.976-17.64-.802-10.958-.535-34.745-.268-44.367.268-9.622 5.88-17.907 18.442-17.907z" fill="#a02b31"/><path d="M576.571 541.653c9.628.102 15.368 5.079 15.635 14.166.267 9.087-6.548 16.303-15.1 16.303-8.553 0-15.368-5.88-15.636-14.031-.267-8.152 5.078-16.543 15.101-16.438zM576.304 578.804c10.422-.402 16.437 8.553 16.17 16.704-.268 8.152-6.816 13.898-15.903 13.765-9.087-.134-14.854-8.018-14.967-14.834-.134-8.018 6.416-15.316 14.7-15.635z" fill="#d3d3d3"/><path d="M576.705 547.934c5.88.134 8.953 4.143 8.953 8.553 0 4.41-4.009 7.884-8.553 8.018-4.543.134-8.686-3.207-8.418-8.285.267-5.079 4.009-8.152 8.018-8.286z" fill="#e13441"/><path d="M576.705 586.02c5.88.134 8.953 4.143 8.953 8.553 0 4.41-4.009 7.884-8.553 8.018-4.543.134-8.686-3.207-8.418-8.285.267-5.079 4.009-8.152 8.018-8.286z" fill="#adadad"/><path d="M66.67 539.603c12.812.526 16.4 7.093 17.168 20.753.77 13.66 1.025 29.946 0 38.877-1.025 8.932-4.612 18.914-16.399 18.914-11.786 0-17.423-6.567-18.192-17.338-.769-10.77-.513-34.149-.256-43.606.256-9.457 5.637-17.6 17.68-17.6z" fill="#a02b31"/><path d="M66.67 545.005c9.231.1 14.734 4.99 14.99 13.922.257 8.932-6.277 16.024-14.477 16.024s-14.733-5.779-14.99-13.79c-.256-8.013 4.869-16.26 14.478-16.156zM66.072 582.717c9.992-.395 15.758 8.406 15.502 16.418-.256 8.012-6.534 13.66-15.246 13.529-8.712-.132-14.24-7.88-14.349-14.58-.128-7.88 6.152-15.053 14.093-15.367z" fill="#d3d3d3"/><path d="M66.799 551.178c5.637.131 8.584 4.072 8.584 8.406 0 4.334-3.844 7.75-8.2 7.88-4.356.132-8.327-3.152-8.071-8.143.256-4.99 3.843-8.012 7.687-8.143z" fill="#e13441"/><path d="M66.456 589.81c5.638.131 8.584 4.071 8.584 8.406 0 4.334-3.843 7.749-8.2 7.88-4.355.132-8.327-3.152-8.07-8.143.256-4.991 3.843-8.012 7.686-8.143z" fill="#adadad"/><path d="M278.465 425.061c.342 5.994.342 6.85 5.993 6.85 5.65 0 74.83.171 81.336-.171 6.507-.343 7.192-2.569 7.021-6.85-.171-4.28-.856-206.509-.685-211.132.171-4.624-3.253-6.165-8.22-6.165-4.965 0-78.425-.17-82.877.514-4.452.685-4.452 2.055-4.452 7.706 0 5.65 1.713 202.913 1.884 209.248z" fill="#353535"/><path d="M283.773 418.897c.171 7.192 2.397 6.85 6.85 7.192 4.452.342 63.356-.171 68.493-.343 5.137-.17 7.706-1.027 7.877-5.308.171-4.28-1.884-195.379-1.884-200.002 0-4.623-1.027-7.363-8.219-7.534-7.192-.172-61.815 0-66.61.342-4.795.343-6.336 1.37-6.507 8.733-.171 7.363-.342 191.612 0 196.92z" fill="#5c5c5c"/><path d="M234.376 386.227c9.08-.242 13.924-2.18 19.615-2.542 5.69-.364 133.379.623 138.174.965 4.794.343 6.506 1.541 11.472 1.884 4.966.342 7.535 1.027 7.535 3.082 0 2.055-3.425 2.568-6.507 2.226-3.083-.343-7.535 2.226-14.726 2.397-7.192.171-128.255.514-133.221.685-4.966.171-10.274-3.425-16.781-4.11-6.507-.684-6.85-.17-6.85-1.027 0-.856 1.289-3.56 1.289-3.56z" fill="#353535"/><path d="M232.802 396.52c-.606-5.207-2.543-9.93-.969-10.535 1.574-.605 3.632-.605 4.601 6.054.969 6.66-.363 7.023-.363 7.023z" fill="#2a2a2a"/><path d="M233.65 396.035c-6.902-.121-7.75 1.574-7.629 7.991.121 6.418-.847 7.265 8.597 7.507 9.444.242 10.776-.484 10.897-7.628.121-7.144-1.21-7.507-11.866-7.87z" fill="#303030"/><path d="M261.963 383.608c.095 3.7.21 7.89.387 11.255 24.466-.183 121.176-.471 127.588-.624a32.36 32.36 0 004.605-.447c.277-2.723.464-5.898.566-8.781a28.4 28.4 0 00-2.944-.36c-4.17-.299-101.221-1.083-130.202-1.043z" fill="#a0a0a0"/><path d="M406.19 395.308c-.484-4.237-2.422-12.229-.121-12.229 2.3 0 3.148 2.059 3.632 6.66.485 4.6.727 7.87.727 8.475 0 .606-4.238-2.906-4.238-2.906z" fill="#2a2a2a"/><path d="M412.607 394.34c4.843.363 4.843 0 4.965 5.206.12 5.207-.848 8.84-4.36 9.202-3.51.364-10.776.121-12.713 0-1.937-.12-3.027-1.09-3.148-6.417s.242-6.902 3.027-7.507c2.785-.605 8.355-.726 12.23-.484z" fill="#303030"/><path d="M238.13 496.169c-5.813.848-8.355-.605-8.355-2.422 0-1.816 1.331-2.421 5.933-2.3 4.6.12 10.776-2.543 17.798-2.906 7.023-.363 129.073.121 135.37.484 6.295.363 7.506 3.148 13.681 3.148 6.176 0 6.176 3.39 3.149 3.633-3.027.242-9.566 3.148-18.042 3.269-8.475.121-125.319.726-132.583.363-7.265-.363-9.808-2.906-16.952-3.269z" fill="#353535"/><path d="M231.712 501.618c.121-4.601-.242-7.628.242-8.84.484-1.21 2.906.727 3.632 4.36.727 3.632.606 3.632.727 4.722.121 1.09-4.601-.242-4.601-.242z" fill="#2a2a2a"/><path d="M226.263 509.488c-.242-7.265.848-9.565 10.171-10.05 9.323-.484 9.687 1.574 10.17 8.355.485 6.78-2.542 7.749-10.533 8.233-7.992.485-9.445-1.695-9.808-6.538z" fill="#303030"/><path d="M276.735 488.412c-8.37 0-14.896.019-18.992.057-.466 3.17.016 7.382 1.07 11.035 21.118.205 121.03-.317 128.852-.43 1.907-.026 3.71-.199 5.403-.446.107-2.636-.081-5.909-.502-9.018a17.788 17.788 0 00-3.69-.585c-4.723-.272-74.557-.613-112.141-.613z" fill="#a0a0a0"/><path d="M402.8 498.954c-.243-5.57-.969-7.991 1.21-8.234 2.18-.242 4.36 2.906 4.117 6.176-.242 3.269-5.327 2.058-5.327 2.058z" fill="#2a2a2a"/><path d="M395.05 508.035c-1.937-6.296-1.695-9.687 8.113-10.534 9.807-.848 11.503 2.058 11.624 7.265.12 5.206 1.453 8.233-9.081 8.96-10.534.726-9.082-.727-10.656-5.691z" fill="#303030"/><path d="M197.175 627.06c-15.119-.378-21.355 5.103-6.803 5.292 14.552.19 237.18.756 250.787 0s9.638-4.536-3.969-4.725c-13.607-.189-54.995.378-65.768.19-10.772-.19-163.474-.946-174.247-.757z" fill="#636363"/><path d="M.042 147.789c16.83-.126 277.745-1.397 314.77-1.584 37.025-.187 322.761-1.312 333.81-1.887" fill="none" stroke="#2e2e2e" stroke-width="3"/><path d="M66.956 783.735c-6.054.005-15.07 2.805-15.07 2.805 3.184 13.09 17.964 57.6 22.454 70.88 6.312.21 13.327.415 20.66.616-3.587-12.578-20.467-68.608-23.016-72.686-.744-1.19-2.659-1.616-5.028-1.615z" fill="#b3b3b3"/><path d="M51.337 781.05c0 7.106-.187 8.415 7.48 8.602 7.666.187 37.772.187 42.447 0 4.675-.187 7.48-1.683 7.48-6.732s-1.122-44.318-1.683-47.496c-.56-3.18-1.87-3.553-9.537-3.927-7.666-.374-37.398-.374-41.7.374-4.3.748-6.17 3.366-5.983 10.845.187 7.48 1.122 32.35 1.496 38.334z" fill="#691e22"/><path d="M57.508 744.773c-.374-5.797.374-6.732 6.544-6.919 6.171-.186 27.302-.186 31.602-.186 4.301 0 6.171.56 7.106 8.227.935 7.667.935 25.618 1.122 30.106.187 4.488-.187 5.61-6.545 5.797-6.357.187-28.61.561-33.098.374-4.487-.187-5.422-2.057-5.796-6.732-.374-4.675-.748-25.244-.935-30.667z" fill="#481f1d"/><path d="M80.882 744.025c10.285.187 15.52 8.228 16.081 17.017.561 8.788-6.918 15.146-15.707 14.96-8.789-.188-14.773-6.92-15.334-15.708-.56-8.789 5.236-16.269 14.96-16.269z" fill="#9d9d9d"/><path d="M587.792 786.096c-6.365-.01-13.748.7-13.748.7-4.192 14.15-21.427 60.9-24.325 69.441 8.265-.51 16.246-1.004 23.578-1.459 5.677-12.77 23.059-63.413 23.548-66.678.233-1.552-4.102-1.996-9.053-2.004z" fill="#b3b3b3"/><path d="M539.052 780.882c0 6.955-.183 8.236 7.345 8.419 7.528.183 43.234.29 47.827.188 2.615-.057 2.578-.8 2.61-3.327.06-4.942-2.513-46.828-3.064-49.939-.551-3.112-1.836-3.478-9.365-3.844-7.528-.366-36.723-.366-40.946.366-4.223.733-6.06 3.295-5.876 10.616.184 7.321 1.102 31.664 1.47 37.52z" fill="#691e22"/><path d="M545.112 745.374c-.368-5.674.367-6.589 6.426-6.772 6.06-.183 26.808-.183 31.031-.183 4.223 0 6.06.55 6.978 8.053.918 7.505.918 25.075 1.101 29.468.184 4.393-.183 5.49-6.426 5.674-6.243.183-28.094.549-32.5.366-4.407-.183-5.325-2.013-5.692-6.59-.368-4.575-.735-24.708-.918-30.016z" fill="#481f1d"/><path d="M568.063 744.642c10.1.183 15.24 8.053 15.791 16.656.551 8.602-6.793 14.825-15.423 14.642-8.63-.183-14.506-6.772-15.057-15.374-.55-8.603 5.141-15.924 14.69-15.924z" fill="#9d9d9d"/></svg>