<?xml version="1.0" encoding="UTF-8" standalone="no"?>
<svg
   xmlns:dc="http://purl.org/dc/elements/1.1/"
   xmlns:cc="http://creativecommons.org/ns#"
   xmlns:rdf="http://www.w3.org/1999/02/22-rdf-syntax-ns#"
   xmlns:svg="http://www.w3.org/2000/svg"
   xmlns="http://www.w3.org/2000/svg"
   width="649.06897mm"
   height="897.3985mm"
   viewBox="0 0 649.06895 897.39848"
   version="1.1"
   id="svg8">
  <defs
     id="defs2" />
  <metadata
     id="metadata5">
    <rdf:RDF>
      <cc:Work
         rdf:about="">
        <dc:format>image/svg+xml</dc:format>
        <dc:type
           rdf:resource="http://purl.org/dc/dcmitype/StillImage" />
        <dc:title></dc:title>
      </cc:Work>
    </rdf:RDF>
  </metadata>
  <g
     id="layer1"
     transform="translate(141.99072,126.5203)">
    <g
       id="g1192">
      <path
         id="path1125"
         d="M 32.555065,729.46083 353.28919,725.91287 343.35494,537.16227 24.749592,536.45269 Z"
         style="fill:#191919;fill-opacity:1;stroke:none;stroke-width:0.26458332px;stroke-linecap:butt;stroke-linejoin:miter;stroke-opacity:1" />
      <path
         id="path1118"
         d="m 45.311024,721.16434 c -7.27546,-12.79475 -12.794747,-26.84388 -11.540358,-40.64217 1.25439,-13.79826 11.684711,-81.08169 11.684711,-89.61151 0,-8.52985 0.206949,-6.13684 0.01,-13.42693 -0.423518,-15.67658 -2.390105,-30.9123 -2.390105,-30.9123 l 178.853508,-4.78451 90.06502,1.25439 9.28248,25.5895 c 0,0 -5.51932,-4.01402 -4.76668,12.54389 0.75263,16.55792 11.54036,78.77554 12.79475,95.33345 1.25439,16.55792 3.76316,32.86496 -14.30002,41.64566 -18.06318,8.78072 27.09479,8.78072 27.09479,8.78072 l 10.03509,-30.85795 -3.01054,-148.01771 -30.60705,-13.5474 -297.038972,1.50526 -18.0631828,63.22113 8.5298488,124.43526 z"
         style="fill:#351e1e;fill-opacity:1;stroke:none;stroke-width:0.26458332px;stroke-linecap:butt;stroke-linejoin:miter;stroke-opacity:1" />
      <path
         id="path1116"
         d="m -16.655715,727.43629 c 0,12.29299 -0.250878,28.34915 0,31.35969 0.250878,3.0105 3.261386,4.01402 10.7877238,4.51577 7.5263374,0.50176 166.5826712,7.52634 175.1124912,7.52634 8.52985,0 15.80528,0.25088 25.8404,-0.50176 10.03509,-0.75263 169.3423,-7.02458 177.37039,-7.52633 8.02807,-0.50176 9.03158,-1.25439 9.28246,-12.04212 0.25088,-10.78772 0,-27.59651 -0.25088,-30.10529 -0.25088,-2.50878 -28.09827,-5.01756 -45.91058,-4.51581 -17.8123,0.50176 -150.77738,7.52634 -158.55457,7.52634 -7.77722,0 -149.021246,-7.52634 -155.544072,-8.02809 -6.522799,-0.50176 -38.133363,11.79126 -38.133363,11.79126 z"
         style="fill:#a5a5a5;fill-opacity:1;stroke:none;stroke-width:0.26458332px;stroke-linecap:butt;stroke-linejoin:miter;stroke-opacity:1" />
      <path
         id="path1120"
         transform="matrix(0.26458333,0,0,0.26458333,-330.75436,-463.89127)"
         d="m 1340.1797,4458.6543 45.1387,67.7051 c 113.7839,8.5338 499.6998,25.6015 536.6796,25.6015 36.9797,0 564.1785,-22.7559 599.2618,-24.6523 20.8736,-1.1283 11.2016,-37.8346 -0.057,-67.3848 -0.9272,0.022 -1.8735,0.037 -2.7871,0.062 -67.3221,1.8964 -569.8676,28.4453 -599.2617,28.4453 -27.8117,0 -506.5547,-25.4291 -578.9746,-29.7773 z"
         style="fill:#909090;fill-opacity:1;stroke:none;stroke-width:0.99999994px;stroke-linecap:butt;stroke-linejoin:miter;stroke-opacity:1" />
      <path
         id="path1061"
         d="m -122.10355,553.31456 c -0.13222,21.28819 -0.3393,50.35288 4.14856,91.49159 4.48786,41.13874 8.22775,61.33409 8.97572,71.80577 0.74798,10.47168 0.74798,11.59365 15.707515,13.0896 14.959533,1.49595 115.1884,3.3659 126.408056,3.73989 11.219656,0.37398 9.723702,-2.61792 -2.243931,-14.21157 -11.967633,-11.59364 -12.341622,-19.82139 -10.471679,-50.86241 1.869943,-31.04105 12.341622,-85.64335 13.463587,-92.37512 1.121966,-6.73179 8.601737,-34.78093 8.601737,-34.78093 l 277.499365,0.37399 c 0,0 7.10578,9.7237 10.84566,38.52081 3.73989,28.7971 13.46357,98.73293 13.08958,112.94446 -0.37399,14.21157 -17.95143,32.91099 -20.94333,36.65088 -2.99191,3.73989 -1.12197,4.11387 10.84566,4.11387 11.96761,0 114.44044,-6.73179 129.39996,-7.47977 14.95954,-0.74797 16.0815,-5.98381 17.20347,-21.69133 1.12197,-15.70752 3.48968,-151.34795 3.86367,-160.69767 0.37396,-9.34971 -99.97867,-11.71097 -99.97867,-11.71097 l -124.91212,-4.11387 -368.37853,7.10578 z"
         style="fill:#ab222e;fill-opacity:1;stroke:none;stroke-width:0.26458332px;stroke-linecap:butt;stroke-linejoin:miter;stroke-opacity:1" />
      <path
         id="path1063"
         transform="matrix(0.26458333,0,0,0.26458333,-330.75436,-463.89127)"
         d="m 1158.4297,3950.2852 c -23.1914,0.2811 -61.9844,17.7089 -61.9844,17.7089 16.6664,55.5548 146.3575,471.5761 173.3379,554.8731 29.9647,0.674 57.1011,1.2804 76.0547,1.7246 -18.0893,-70.7779 -162.7473,-548.293 -171.4317,-567.5918 -2.2488,-4.9975 -8.246,-6.8085 -15.9765,-6.7148 z"
         style="fill:#b3b3b3;fill-opacity:1;stroke:none;stroke-width:0.99999994px;stroke-linecap:butt;stroke-linejoin:miter;stroke-opacity:1" />
      <path
         id="path1106"
         transform="matrix(0.26458333,0,0,0.26458333,-330.75436,-463.89127)"
         d="m 2711.248,3948.7871 c -10.3939,0.1144 -19.6573,3.2428 -25.3144,11.7285 -19.9901,29.9852 -161.7678,520.6722 -172.0742,566.2207 12.0493,-0.1401 41.0903,-1.5453 79.2207,-3.6504 12.182,-40.0536 153.1333,-484.4677 178.6738,-555.1953 0,0 -33.9436,-19.3958 -60.5059,-19.1035 z"
         style="fill:#b3b3b3;fill-opacity:1;stroke:none;stroke-width:0.99999994px;stroke-linecap:butt;stroke-linejoin:miter;stroke-opacity:1" />
      <path
         id="path1059"
         d="m -122.44285,521.764 c 0.49839,17.47659 0.0281,41.91747 0.27936,51.34594 0.37398,11.40664 2.52556,14.102 12.62324,14.663 10.097686,0.56097 140.456464,1.28974 147.188257,0.91576 6.731794,-0.37399 7.666779,-1.49596 7.85376,-5.79681 0.187007,-4.30086 -1.682936,-20.38237 1.495954,-24.87023 3.178889,-4.48786 5.585984,-9.33051 21.106495,-10.07849 15.520511,-0.74798 209.994474,-0.37399 224.579994,-0.37399 14.58556,0 23.18729,2.61792 23.93527,19.44741 0.74798,16.82945 0.37399,20.94333 11.59364,21.6913 11.21966,0.74798 138.37568,-0.37398 145.48147,-1.49595 7.10578,-1.12197 9.91069,-7.85373 9.91069,-15.3335 0,-7.47977 1.68295,-35.9029 4.30087,-49.36646 2.61792,-13.46359 -229.62886,-8.97573 -229.62886,-8.97573 z"
         style="fill:#1d1d1d;fill-opacity:1;stroke:none;stroke-width:0.26458332px;stroke-linecap:butt;stroke-linejoin:miter;stroke-opacity:1" />
      <path
         id="path896"
         d="m 183.69643,-112.72619 c 86.93451,0.37798 210.15475,18.898811 266.09523,45.357144 55.94048,26.458333 55.94048,59.7202364 57.07441,92.226188 1.13392,32.505953 -2.64583,314.098208 -2.64583,348.494038 0,34.39584 0.18899,140.60715 0.18899,144.76489 0,4.15774 -0.75597,4.72469 -4.15774,4.91369 -3.40181,0.18899 -34.01785,0.94493 -48.94792,1.13392 -14.93007,0.18899 -584.1622,1.32292 -587.75297,1.32292 -3.59078,0 -3.02381,-1.88987 -3.2128,-5.66965 -0.18899,-3.77976 -1.13393,-224.51785 -1.13393,-250.78719 0,-26.26935 -1.5119,-223.572915 -1.13393,-248.519344 0.37798,-24.946428 2.83482,-60.098213 35.34078,-78.052083 32.505948,-17.953868 130.273525,-51.712023 290.28571,-55.184523 z"
         style="fill:#d5d5d5;fill-opacity:1;stroke:none;stroke-width:0.26458332px;stroke-linecap:butt;stroke-linejoin:miter;stroke-opacity:1" />
      <path
         id="path919"
         transform="scale(0.26458333)"
         d="m 694.28516,-426.05078 c -604.770467,13.12441 -974.28546,140.71317 -1097.14258,208.57031 -122.85717,67.85715 -132.14173,200.714289 -133.57031,295.000001 -0.0122,0.807139 -0.0201,2.031792 -0.0312,2.933594 34.62885,-0.938793 83.0986,-2.855244 136.43945,-3.441406 L 1616.4277,31.804688 c 0,0 98.572,35.001398 115.7149,34.287109 15.6801,-0.653339 138.6741,-0.115063 182.5488,-0.564453 C 1910.1642,-48.118412 1895.1466,-162.32399 1700,-254.62305 c -211.4286,-100 -677.1435,-169.99915 -1005.71484,-171.42773 z"
         style="fill:#cd9719;fill-opacity:1;stroke:none;stroke-width:0.99999994px;stroke-linecap:butt;stroke-linejoin:miter;stroke-opacity:1" />
      <path
         id="path917"
         d="m -113.24973,21.833333 c 0.0449,-14.0957536 -3.02936,-29.4726456 12.05332,-34.852091 16.835363,-6.004558 160.262974,-41.707938 172.022833,-43.578826 11.759861,-1.870887 17.90706,-1.870887 27.528763,-2.138156 9.621704,-0.267271 160.896254,-0.801809 170.785224,-1.069078 9.88898,-0.267271 13.09621,1.336347 22.98517,3.474503 9.88899,2.138156 147.80006,31.805074 161.69807,35.012308 13.89803,3.207234 17.63979,10.156242 18.44159,26.7269523 0.80182,16.5707107 1.0691,276.6239447 0.80182,293.1946647 -0.26726,16.57072 -1.33636,20.84703 -23.25246,24.85607 -21.9161,4.00905 -176.39786,27.52876 -186.55412,29.66691 -10.15624,2.13815 -11.22532,2.40543 -18.17433,2.40543 -6.949,0 -136.84199,1.06908 -147.532773,0.53454 C 86.862596,355.53202 -84.1899,326.93419 -95.147952,323.45968 -106.106,319.98517 -111.18412,319.98517 -112.2532,300.47451 c -1.06908,-19.51069 -1.05656,-259.791171 -0.99653,-278.641177 z"
         style="fill:#5f5f5f;fill-opacity:1;stroke:none;stroke-width:0.26458332px;stroke-linecap:butt;stroke-linejoin:miter;stroke-opacity:1" />
      <path
         id="path926"
         d="m 504.26328,365.33991 c -4.76996,0.17307 -11.79409,0.66615 -22.34387,2.01073 -19.2768,2.45684 -184.26301,30.99374 -199.94904,34.01756 -15.68601,3.02382 -19.27707,4.5358 -26.83659,4.72477 -7.55953,0.18899 -131.3465,0.18915 -140.60692,0.18915 -9.26041,0 -9.63854,0.18899 -17.387054,-1.32292 -7.463136,-1.45624 -206.212766,-33.16036 -237.598416,-38.03282 0.29125,70.08987 0.68178,151.96928 0.79634,154.26034 0.18899,3.77978 -0.37806,5.66994 3.21272,5.66994 3.59077,0 572.82318,-1.13393 587.75325,-1.32292 14.9301,-0.18899 45.54612,-0.9453 48.94792,-1.13429 3.40177,-0.18899 4.15737,-0.75565 4.15737,-4.91339 0,-4.15775 -0.18862,-110.36898 -0.18862,-144.76482 0,-2.1732 0.0149,-5.35966 0.0429,-9.38133 z"
         style="fill:#b93034;fill-opacity:1;stroke:none;stroke-width:0.26458332px;stroke-linecap:butt;stroke-linejoin:miter;stroke-opacity:1" />
      <path
         id="path931"
         transform="scale(0.26458333)"
         d="m 694.28516,-426.05078 c -101.27598,2.19784 -195.9196,7.61824 -283.94727,15.41797 6.29994,36.64839 23.09478,73.50628 33.23438,88.15234 12.85712,18.57143 12.85628,18.57143 41.42773,20 28.57141,1.42857 374.28543,4.28544 397.14258,2.14258 22.85711,-2.14286 25.00111,-9.28516 36.42969,-24.28516 8.62415,-11.3192 34.31207,-58.81149 47.33007,-87.58984 -95.12762,-8.64184 -187.83412,-13.47361 -271.61718,-13.83789 z"
         style="fill:#a2711a;fill-opacity:1;stroke:none;stroke-width:0.99999994px;stroke-linecap:butt;stroke-linejoin:miter;stroke-opacity:1" />
      <g
         style="fill:#121217;fill-opacity:1;stroke:none"
         id="g945">
        <path
           style="fill:#121217;fill-opacity:1;stroke:none;stroke-width:0.26458332px;stroke-linecap:butt;stroke-linejoin:miter;stroke-opacity:1"
           d="m 132.6671,-92.678971 c 9.75534,-0.133633 16.70435,-9.621699 16.83798,-15.902539 0.13364,-6.28083 -3.74177,-16.03617 -16.70434,-16.57071 -12.96257,-0.53454 -15.7689,10.02261 -16.03617,16.43708 -0.26727,6.41447 4.54358,15.7689 15.90253,16.036169 z"
           id="path936" />
        <path
           style="fill:#121217;fill-opacity:1;stroke:none;stroke-width:0.26458332px;stroke-linecap:butt;stroke-linejoin:miter;stroke-opacity:1"
           d="m 232.06452,-93.881682 c 13.36348,-0.133636 15.10073,-11.091688 15.50164,-16.169808 0.4009,-5.07812 -3.34087,-14.69982 -16.03618,-15.90254 -12.6953,-1.20271 -16.43707,8.41899 -16.43707,16.70435 0,8.28535 6.81537,15.635267 16.97161,15.367998 z"
           id="path938" />
        <path
           style="fill:#121217;fill-opacity:1;stroke:none;stroke-width:0.26458332px;stroke-linecap:butt;stroke-linejoin:miter;stroke-opacity:1"
           d="m 181.47601,-79.582763 c 16.1698,-0.133636 24.45516,-9.755338 24.72243,-20.713387 0.26727,-10.95805 -6.81537,-25.39061 -23.65335,-26.19241 -16.83798,-0.80181 -23.92063,13.76437 -23.92063,23.78698 0,10.022609 8.95353,22.717912 22.85155,23.118817 z"
           id="path940" />
      </g>
      <path
         id="path947"
         transform="scale(0.26458333)"
         d="m 1023.9473,-226.14258 c -2.151,0.009 -4.3887,0.0462 -6.7246,0.10938 -37.37568,1.01015 -609.12088,3.0289 -645.48637,4.03906 -36.36549,1.01015 -59.60016,1.01096 -104.04688,8.08203 -19.07417,3.03453 -129.92353,29.65841 -255.150388,60.81445 -28.038035,13.17074 -39.695296,30.34799 -38.253906,60.617191 2.857143,59.999999 40.715122,75.000558 98.572266,75.714844 57.857148,0.714285 1175.714578,-7.85798 1222.857378,-8.572266 47.1428,-0.714285 91.4272,-22.142299 90.7129,-74.285156 -0.4076,-29.758603 -9.6866,-46.482773 -37.0703,-60.408203 -119.3793,-25.75169 -229.176,-49.39353 -245.2597,-52.87109 -35.0397,-7.57615 -47.8852,-13.37712 -80.1504,-13.24024 z"
         style="fill:#292929;fill-opacity:1;stroke:none;stroke-width:0.99999994px;stroke-linecap:butt;stroke-linejoin:miter;stroke-opacity:1" />
      <path
         id="path952"
         d="M 0.37797618,-22.200893 C 1.3229166,-34.107143 7.1815475,-34.674106 20.032738,-37.697918 c 12.851189,-3.023809 50.270834,-11.71726 57.074404,-13.229166 6.803572,-1.511903 15.497024,-1.700892 24.568448,-1.889879 9.07143,-0.188989 156.86012,-0.944941 166.12055,-0.944941 9.26042,0 14.93004,0.188987 24.37945,2.456844 9.44941,2.267858 47.24701,10.583333 56.88541,13.607142 9.6384,3.023812 11.52827,6.047621 11.71726,11.528275 0.18899,5.480655 -2.64583,12.473214 -13.22916,13.607143 -10.58334,1.133928 -172.16815,0.755952 -193.5238,0.94494 -21.35566,0.188988 -125.677085,1.511905 -136.827384,1.511905 -11.150297,0 -17.00892791,-3.779762 -16.81993982,-12.095238 z"
         style="fill:#3a3a3a;fill-opacity:1;stroke:none;stroke-width:0.26458332px;stroke-linecap:butt;stroke-linejoin:miter;stroke-opacity:1" />
      <path
         id="path954"
         transform="scale(0.26458333)"
         d="m 898.11133,-202.70508 c -126.25111,0.61189 -321.43056,1.65695 -431.85352,2.40039 -1.35125,58.14409 -3.66474,129.417425 -3.49804,157.712893 53.29476,-0.621472 97.91868,-1.126458 119.38281,-1.316406 34.94496,-0.309247 169.81864,-0.233404 314.12695,-0.376953 2.00225,-33.871887 3.11647,-114.284054 1.8418,-158.419924 z"
         style="fill:#414141;fill-opacity:1;stroke:none;stroke-width:0.99999994px;stroke-linecap:butt;stroke-linejoin:miter;stroke-opacity:1" />
      <path
         id="path956"
         d="m 154.0253,-13.507441 c 11.15029,-0.377976 17.3869,-8.126488 17.76488,-19.654762 0.37797,-11.528274 -8.12649,-17.197916 -18.52084,-17.386903 -10.39434,-0.188989 -19.08779,8.315476 -19.27678,18.70982 -0.18899,10.394345 8.12649,18.142857 20.03274,18.331845 z"
         style="fill:#a0a0a0;fill-opacity:1;stroke:none;stroke-width:0.26458332px;stroke-linecap:butt;stroke-linejoin:miter;stroke-opacity:1" />
      <path
         id="path958"
         d="m 209.77678,-14.074405 c 13.60715,-0.188988 17.19792,-10.205357 17.38691,-19.654763 0.18899,-9.449403 -6.80357,-16.819938 -17.38691,-17.008927 -10.58333,-0.188989 -18.70982,7.748511 -18.89881,20.221726 -0.18898,12.473214 10.20536,16.252976 18.89881,16.441964 z"
         style="fill:#a0a0a0;fill-opacity:1;stroke:none;stroke-width:0.26458332px;stroke-linecap:butt;stroke-linejoin:miter;stroke-opacity:1" />
      <path
         id="path963"
         d="m 57.195677,80.511681 c 12.561668,0 13.363477,0.801809 13.898017,10.958052 0.534538,10.156237 0.534538,197.779457 0.267269,206.332057 -0.267269,8.55263 -3.741774,9.88899 -12.294399,9.62171 -8.552624,-0.26726 -137.376536,-0.26726 -145.127351,0 -7.750815,0.26728 -8.819893,-2.13815 -9.087165,-12.02711 -0.267269,-9.88899 0.534541,-197.512189 0.80181,-205.530276 0.267268,-8.018084 3.474503,-8.819893 12.561667,-9.087162 9.087165,-0.267271 127.220293,-0.53454 138.980152,-0.267271 z"
         style="fill:#353535;fill-opacity:1;stroke:none;stroke-width:0.26458332px;stroke-linecap:butt;stroke-linejoin:miter;stroke-opacity:1" />
      <path
         id="path965"
         d="m 55.184523,85.900296 c 10.394344,0.377976 11.150299,0.377976 11.528275,9.827382 0.377975,9.449402 0,189.555062 -0.755955,196.736592 -0.755951,7.18156 -2.078868,8.31549 -11.150295,8.31549 -9.07143,0 -130.212797,-0.18899 -136.449404,-0.18899 -6.236608,0 -7.9375,-2.45685 -8.126487,-11.71726 -0.188989,-9.26042 0.188987,-189.933034 0.566962,-195.41369 0.377976,-5.480656 2.267858,-6.614583 9.07143,-6.614583 6.80357,0 127.566961,-1.322917 135.315474,-0.944941 z"
         style="fill:#5c5c5c;fill-opacity:1;stroke:none;stroke-width:0.26458332px;stroke-linecap:butt;stroke-linejoin:miter;stroke-opacity:1" />
      <path
         id="path967"
         d="m 289.71875,89.302081 c 0.37798,-7.9375 -0.37799,-9.449403 8.50447,-9.827379 8.88243,-0.377976 141.55208,-0.566965 148.73362,-0.377976 7.18155,0.188987 9.26041,0.755952 9.4494,9.260417 0.189,8.504462 0.37799,200.138377 0,207.319937 -0.37798,7.18154 -0.94493,8.31549 -9.26041,8.69344 -8.31549,0.37799 -142.68601,0.75597 -150.24552,0.75597 -7.55955,0 -8.31549,-1.7009 -8.31549,-9.44941 0,-7.7485 0.94493,-196.925593 1.13393,-206.374999 z"
         style="fill:#353535;fill-opacity:1;stroke:none;stroke-width:0.26458332px;stroke-linecap:butt;stroke-linejoin:miter;stroke-opacity:1" />
      <path
         id="path969"
         d="m 294.44344,92.514879 c 0.18899,-6.992559 1.88989,-7.559524 7.9375,-7.9375 6.04763,-0.377975 134.9375,-1.322916 141.36311,-0.377975 6.42559,0.94494 6.42559,2.834822 6.80355,9.638392 0.37799,6.803574 0.56698,186.153284 0,193.334814 -0.56695,7.18156 -2.45684,11.3393 -12.09521,11.71726 -9.6384,0.37798 -126.81104,1.32291 -134.74854,0.94496 -7.9375,-0.37799 -7.9375,-2.45685 -8.12646,-8.88246 -0.18899,-6.4256 -1.13395,-191.822908 -1.13395,-198.437491 z"
         style="fill:#5c5c5c;fill-opacity:1;stroke:none;stroke-width:0.26458332px;stroke-linecap:butt;stroke-linejoin:miter;stroke-opacity:1" />
      <path
         id="path973"
         d="m 99.596725,502.05208 c 0,-10.96132 0.944945,-472.659224 0.755955,-477.194938 -0.18899,-4.535714 2.64583,-4.157738 7.74851,-4.346726 5.10268,-0.188988 138.71726,-1.322917 144.57589,-1.322917 5.85863,0 6.80357,0.755953 6.99256,6.425596 0.18899,5.669643 -0.75595,474.927075 -0.75595,476.816965 0,1.88987 -5.66964,1.70088 -5.66964,1.70088 z"
         style="fill:#b6b6b6;fill-opacity:1;stroke:none;stroke-width:0.26458332px;stroke-linecap:butt;stroke-linejoin:miter;stroke-opacity:1" />
      <path
         id="path975"
         transform="scale(0.26458333)"
         d="m 979.28711,1527.5215 c -20.32815,0.01 -552.12531,2.0941 -602.17773,1.4433 -0.38577,202.4623 -0.68165,356.9885 -0.68165,368.5547 l 580.71485,7.8575 c 0,0 21.42969,0.715 21.42969,-6.4278 0,-2.0469 0.31315,-162.0563 0.71484,-371.4277 z"
         style="fill:#972b30;fill-opacity:1;stroke:none;stroke-width:0.99999994px;stroke-linecap:butt;stroke-linejoin:miter;stroke-opacity:1" />
      <path
         id="path980"
         transform="scale(0.26458333)"
         d="m 955,72.519531 c -22.14285,0 -527.14201,4.285715 -546.42773,5 -19.28572,0.714286 -30.00141,-0.713168 -29.28711,16.429688 0.46188,11.085191 -0.83626,724.575611 -1.83399,1252.826181 62.71609,-0.148 514.86266,-2.4565 602.18164,-3.9063 C 980.62575,816.50082 981.88364,110.48166 981.42773,96.804688 980.71344,75.376116 977.14285,72.519531 955,72.519531 Z"
         style="fill:#4e4e4e;fill-opacity:1;stroke:none;stroke-width:0.99999994px;stroke-linecap:butt;stroke-linejoin:miter;stroke-opacity:1" />
      <path
         id="path985"
         d="m 434.58024,410.85682 c 13.36349,0.53454 17.10526,7.21627 17.90708,21.11428 0.80179,13.89803 1.06907,30.46873 0,39.5559 -1.06911,9.08716 -4.81087,19.24341 -17.10526,19.24341 -12.2944,0 -18.17434,-6.68174 -18.97613,-17.6398 -0.80182,-10.95804 -0.53454,-34.74503 -0.26728,-44.36674 0.26728,-9.6217 5.87994,-17.90705 18.44159,-17.90705 z"
         style="fill:#a02b31;fill-opacity:1;stroke:none;stroke-width:0.26458332px;stroke-linecap:butt;stroke-linejoin:miter;stroke-opacity:1" />
      <path
         id="path987"
         d="m 434.58025,415.13311 c 9.62793,0.10173 15.36799,5.07813 15.63527,14.1653 0.26726,9.08717 -6.54812,16.30344 -15.10075,16.30344 -8.5526,0 -15.36797,-5.87994 -15.63526,-14.03165 -0.26725,-8.15173 5.07769,-16.54299 15.10074,-16.43709 z"
         style="fill:#d3d3d3;fill-opacity:1;stroke:none;stroke-width:0.26458332px;stroke-linecap:butt;stroke-linejoin:miter;stroke-opacity:1" />
      <path
         id="path989"
         d="m 434.31298,452.28359 c 10.42243,-0.40196 16.43707,8.55263 16.1698,16.70433 -0.26727,8.15174 -6.81538,13.89804 -15.90254,13.76439 -9.08714,-0.13364 -14.85349,-8.01771 -14.96709,-14.83346 -0.13364,-8.01808 6.41633,-15.31579 14.69983,-15.63526 z"
         style="fill:#d3d3d3;fill-opacity:1;stroke:none;stroke-width:0.26458332px;stroke-linecap:butt;stroke-linejoin:miter;stroke-opacity:1" />
      <path
         id="path991"
         d="m 434.71388,421.41396 c 5.87994,0.13364 8.95352,4.14269 8.95352,8.55263 0,4.40994 -4.00904,7.88445 -8.55263,8.01809 -4.54355,0.13362 -8.68624,-3.20725 -8.41898,-8.28537 0.26728,-5.07812 4.00904,-8.15171 8.01809,-8.28535 z"
         style="fill:#e13441;fill-opacity:1;stroke:none;stroke-width:0.26458332px;stroke-linecap:butt;stroke-linejoin:miter;stroke-opacity:1" />
      <path
         style="fill:#adadad;fill-opacity:1;stroke:none;stroke-width:0.26458332px;stroke-linecap:butt;stroke-linejoin:miter;stroke-opacity:1"
         d="m 434.71388,459.49987 c 5.87994,0.13364 8.95352,4.14269 8.95352,8.55263 0,4.40994 -4.00904,7.88445 -8.55263,8.01809 -4.54355,0.13362 -8.68624,-3.20725 -8.41898,-8.28537 0.26728,-5.07812 4.00904,-8.15171 8.01809,-8.28535 z"
         id="path993" />
      <path
         style="opacity:1;fill:#a02b31;fill-opacity:1;stroke:none;stroke-width:0.25683293px;stroke-linecap:butt;stroke-linejoin:miter;stroke-opacity:1"
         d="m -75.319941,413.08287 c 12.811666,0.52537 16.398926,7.09257 17.167636,20.75234 0.768682,13.65979 1.024925,29.94643 0,38.87783 -1.024963,8.93139 -4.612213,18.91354 -16.398926,18.91354 -11.786723,0 -17.42386,-6.5672 -18.192542,-17.33742 -0.76871,-10.7702 -0.512467,-34.14943 -0.256243,-43.6062 0.256243,-9.45677 5.637138,-17.60009 17.680075,-17.60009 z"
         id="path995" />
      <path
         style="opacity:1;fill:#d3d3d3;fill-opacity:1;stroke:none;stroke-width:0.25683293px;stroke-linecap:butt;stroke-linejoin:miter;stroke-opacity:1"
         d="m -75.319932,418.48449 c 9.230361,0.1 14.733394,4.99108 14.989637,13.92248 0.256224,8.9314 -6.277726,16.02397 -14.477189,16.02397 -8.199434,0 -14.733374,-5.77915 -14.989627,-13.79112 -0.256215,-8.01199 4.868015,-16.25941 14.477179,-16.15533 z"
         id="path997" />
      <path
         style="opacity:1;fill:#d3d3d3;fill-opacity:1;stroke:none;stroke-width:0.25683293px;stroke-linecap:butt;stroke-linejoin:miter;stroke-opacity:1"
         d="m -75.918634,456.19679 c 9.992053,-0.39507 15.758328,8.40602 15.502094,16.41798 -0.256233,8.01201 -6.53395,13.6598 -15.24587,13.52845 -8.711902,-0.13135 -14.24014,-7.88027 -14.349049,-14.57919 -0.128121,-7.88063 6.151379,-15.05325 14.092825,-15.36724 z"
         id="path999" />
      <path
         style="opacity:1;fill:#e13441;fill-opacity:1;stroke:none;stroke-width:0.25683293px;stroke-linecap:butt;stroke-linejoin:miter;stroke-opacity:1"
         d="m -75.19182,424.65768 c 5.637138,0.13135 8.583799,4.07167 8.583799,8.40602 0,4.33434 -3.843493,7.74929 -8.199463,7.88064 -4.355931,0.13133 -8.327556,-3.15227 -8.071332,-8.14334 0.256243,-4.99107 3.843494,-8.01197 7.686996,-8.14332 z"
         id="path1001" />
      <path
         id="path1003"
         d="m -75.534289,463.28937 c 5.637138,0.13135 8.583799,4.07167 8.583799,8.40602 0,4.33434 -3.843493,7.74929 -8.199463,7.88064 -4.355931,0.13133 -8.327556,-3.15227 -8.071332,-8.14334 0.256243,-4.99107 3.843494,-8.01197 7.686996,-8.14332 z"
         style="opacity:1;fill:#adadad;fill-opacity:1;stroke:none;stroke-width:0.25683293px;stroke-linecap:butt;stroke-linejoin:miter;stroke-opacity:1" />
      <path
         id="path1017"
         d="m 136.47403,298.54112 c 0.34247,5.99321 0.34247,6.84937 5.99321,6.84937 5.65075,0 74.82955,0.17124 81.33647,-0.17124 6.50692,-0.34247 7.19186,-2.56852 7.02062,-6.84937 -0.17123,-4.28088 -0.85617,-206.509016 -0.68493,-211.132353 0.17123,-4.623335 -3.25346,-6.164448 -8.21927,-6.164448 -4.96581,0 -78.42548,-0.171236 -82.87758,0.513704 -4.4521,0.684938 -4.4521,2.054815 -4.4521,7.705561 0,5.650743 1.71235,202.913086 1.88358,209.248776 z"
         style="fill:#353535;fill-opacity:1;stroke:none;stroke-width:0.26458332px;stroke-linecap:butt;stroke-linejoin:miter;stroke-opacity:1" />
      <path
         id="path1019"
         d="m 141.78231,292.37667 c 0.17123,7.19185 2.39728,6.84938 6.84938,7.19185 4.4521,0.34245 63.35683,-0.17124 68.49387,-0.34247 5.13704,-0.17124 7.70556,-1.02741 7.87679,-5.30829 0.17124,-4.28085 -1.88358,-195.378744 -1.88358,-200.002081 0,-4.623335 -1.0274,-7.36309 -8.21926,-7.534326 -7.19186,-0.171233 -61.81572,0 -66.61029,0.342469 -4.79457,0.342472 -6.33568,1.369878 -6.50691,8.73297 -0.17124,7.363088 -0.34247,191.611598 0,196.919878 z"
         style="fill:#5c5c5c;fill-opacity:1;stroke:none;stroke-width:0.26458332px;stroke-linecap:butt;stroke-linejoin:miter;stroke-opacity:1" />
      <path
         id="path1025"
         d="m 92.384953,259.70699 c 9.081087,-0.24216 13.924337,-2.17946 19.615157,-2.54271 5.69081,-0.36324 133.37917,0.62298 138.17374,0.96545 4.79457,0.34247 6.50692,1.54111 11.47272,1.88358 4.9658,0.34247 7.53432,1.02741 7.53432,3.08222 0,2.05483 -3.42469,2.56852 -6.50691,2.22604 -3.08222,-0.34245 -7.53432,2.22607 -14.72618,2.39731 -7.19186,0.17121 -128.25477,0.51369 -133.22057,0.68493 -4.96581,0.17124 -10.27408,-3.42469 -16.781,-4.10964 -6.506916,-0.68494 -6.849385,-0.17123 -6.849385,-1.0274 0,-0.85618 1.288108,-3.55978 1.288108,-3.55978 z"
         style="fill:#353535;fill-opacity:1;stroke:none;stroke-width:0.26458332px;stroke-linecap:butt;stroke-linejoin:miter;stroke-opacity:1" />
      <path
         id="path1023"
         d="m 90.810896,269.9989 c -0.605406,-5.2065 -2.542704,-9.92867 -0.96865,-10.53407 1.574057,-0.60541 3.632436,-0.60541 4.601086,6.05407 0.96865,6.65945 -0.363244,7.0227 -0.363244,7.0227 z"
         style="fill:#2a2a2a;fill-opacity:1;stroke:none;stroke-width:0.26458332px;stroke-linecap:butt;stroke-linejoin:miter;stroke-opacity:1" />
      <path
         id="path1021"
         d="m 91.658465,269.51455 c -6.901629,-0.12107 -7.749196,1.57406 -7.628114,7.99137 0.121081,6.41731 -0.847569,7.26488 8.596764,7.50703 9.444335,0.24217 10.776225,-0.48432 10.897305,-7.6281 0.12108,-7.1438 -1.21081,-7.50705 -11.865955,-7.8703 z"
         style="fill:#303030;fill-opacity:1;stroke:none;stroke-width:0.26458332px;stroke-linecap:butt;stroke-linejoin:miter;stroke-opacity:1" />
      <path
         id="path1027"
         transform="scale(0.26458333)"
         d="m 453.43945,971.66992 c 0.35873,13.98681 0.79062,29.81788 1.46094,42.53708 92.47151,-0.6886 457.99066,-1.7785 482.22461,-2.3554 6.35098,-0.1513 12.11591,-0.8069 17.40234,-1.6914 1.04947,-10.29197 1.75648,-22.29011 2.13868,-33.18754 -3.27828,-0.57634 -6.87548,-1.05961 -11.12696,-1.36328 -15.7604,-1.12575 -382.56652,-4.08889 -492.09961,-3.93946 z"
         style="fill:#a0a0a0;fill-opacity:1;stroke:none;stroke-width:0.99999994px;stroke-linecap:butt;stroke-linejoin:miter;stroke-opacity:1" />
      <path
         id="path1034"
         d="m 264.19917,268.78809 c -0.48433,-4.23785 -2.42162,-12.22921 -0.12108,-12.22921 2.30054,0 3.14811,2.05838 3.63243,6.65946 0.48432,4.60108 0.72649,7.87027 0.72649,8.47569 0,0.6054 -4.23784,-2.90594 -4.23784,-2.90594 z"
         style="fill:#2a2a2a;fill-opacity:1;stroke:none;stroke-width:0.26458332px;stroke-linecap:butt;stroke-linejoin:miter;stroke-opacity:1" />
      <path
         id="path1032"
         d="m 270.61647,267.81944 c 4.84325,0.36325 4.84325,-2e-5 4.96432,5.20648 0.1211,5.2065 -0.84757,8.83893 -4.35891,9.20218 -3.51136,0.36322 -10.77623,0.12107 -12.71353,0 -1.9373,-0.1211 -3.02703,-1.08974 -3.14811,-6.41731 -0.12108,-5.32757 0.24216,-6.90163 3.02703,-7.50705 2.78487,-0.60539 8.35459,-0.72647 12.2292,-0.4843 z"
         style="fill:#303030;fill-opacity:1;stroke:none;stroke-width:0.26458332px;stroke-linecap:butt;stroke-linejoin:miter;stroke-opacity:1" />
      <path
         id="path1040"
         d="m 96.13847,369.64871 c -5.811899,0.84757 -8.354603,-0.60539 -8.354603,-2.42163 0,-1.8162 1.331892,-2.42162 5.932977,-2.30052 4.601086,0.12107 10.776226,-2.54273 17.798936,-2.90597 7.02271,-0.36322 129.07256,0.1211 135.36878,0.48434 6.29622,0.36325 7.50703,3.14809 13.68217,3.14809 6.17515,0 6.17515,3.3903 3.14811,3.63244 -3.02703,0.24218 -9.56541,3.14812 -18.0411,3.26919 -8.47568,0.1211 -125.31903,0.7265 -132.5839,0.36325 -7.26487,-0.36325 -9.80758,-2.90594 -16.95137,-3.26919 z"
         style="fill:#353535;fill-opacity:1;stroke:none;stroke-width:0.26458332px;stroke-linecap:butt;stroke-linejoin:miter;stroke-opacity:1" />
      <path
         id="path1038"
         d="m 89.721165,375.09738 c 0.121081,-4.6011 -0.242163,-7.62812 0.242163,-8.83894 0.484325,-1.21081 2.90595,0.7265 3.632435,4.35893 0.726488,3.63242 0.605406,3.63242 0.726488,4.72216 0.121081,1.08974 -4.601086,-0.24215 -4.601086,-0.24215 z"
         style="fill:#2a2a2a;fill-opacity:1;stroke:none;stroke-width:0.26458332px;stroke-linecap:butt;stroke-linejoin:miter;stroke-opacity:1" />
      <path
         id="path1036"
         d="m 84.272513,382.96765 c -0.242162,-7.26488 0.847566,-9.56543 10.170819,-10.04975 9.323248,-0.48432 9.686498,1.57406 10.170818,8.35462 0.48433,6.78053 -2.5427,7.74919 -10.534062,8.23351 -7.991358,0.48432 -9.444334,-1.69513 -9.807575,-6.53838 z"
         style="fill:#303030;fill-opacity:1;stroke:none;stroke-width:0.26458332px;stroke-linecap:butt;stroke-linejoin:miter;stroke-opacity:1" />
      <path
         id="path1042"
         transform="scale(0.26458333)"
         d="m 509.26953,1367.7812 c -31.63138,0 -56.29828,0.07 -71.7793,0.2149 -1.76203,11.978 0.0579,27.8987 4.04102,41.7051 79.81728,0.7755 457.439,-1.1988 487,-1.6211 7.20915,-0.103 14.0222,-0.7551 20.42187,-1.6895 0.40573,-9.9603 -0.30645,-22.3308 -1.89648,-34.084 -3.93604,-1.0635 -8.40881,-1.8893 -13.94922,-2.2089 -17.84755,-1.0297 -281.78676,-2.3164 -423.83789,-2.3165 z"
         style="fill:#a0a0a0;fill-opacity:1;stroke:none;stroke-width:0.99999994px;stroke-linecap:butt;stroke-linejoin:miter;stroke-opacity:1" />
      <path
         id="path1047"
         d="m 260.8089,372.43358 c -0.24217,-5.56974 -0.96865,-7.99137 1.21081,-8.23352 2.17946,-0.24217 4.35892,2.90595 4.11675,6.17514 -0.24215,3.26919 -5.32756,2.05838 -5.32756,2.05838 z"
         style="fill:#2a2a2a;fill-opacity:1;stroke:none;stroke-width:0.26458332px;stroke-linecap:butt;stroke-linejoin:miter;stroke-opacity:1" />
      <path
         id="path1049"
         d="m 253.0597,381.51466 c -1.9373,-6.29621 -1.69514,-9.68647 8.11244,-10.53407 9.80757,-0.84756 11.5027,2.05838 11.6238,7.26488 0.12108,5.2065 1.45296,8.23352 -9.0811,8.96001 -10.53406,0.72649 -9.08109,-0.72649 -10.65514,-5.69082 z"
         style="fill:#303030;fill-opacity:1;stroke:none;stroke-width:0.26458332px;stroke-linecap:butt;stroke-linejoin:miter;stroke-opacity:1" />
      <path
         id="path971"
         d="m 55.184523,500.54017 c -15.119048,-0.37798 -21.355655,5.10268 -6.803572,5.29167 14.552083,0.18899 237.180049,0.75594 250.787199,0 13.60716,-0.75594 9.63841,-4.53573 -3.96875,-4.72469 -13.60715,-0.18899 -54.99553,0.37796 -65.76785,0.18896 -10.77233,-0.18896 -163.474707,-0.94493 -174.247027,-0.75594 z"
         style="fill:#636363;fill-opacity:1;stroke:none;stroke-width:0.26458332px;stroke-linecap:butt;stroke-linejoin:miter;stroke-opacity:1" />
      <path
         id="path1051"
         d="m -141.94825,21.268406 c 16.82948,-0.126067 277.74436,-1.396785 314.7692,-1.583793 37.02484,-0.186981 322.76137,-1.3122 333.81054,-1.886471"
         style="fill:none;stroke:#2e2e2e;stroke-width:3;stroke-linecap:butt;stroke-linejoin:miter;stroke-miterlimit:4;stroke-dasharray:none;stroke-opacity:1" />
      <path
         id="path1079"
         transform="matrix(0.26458333,0,0,0.26458333,-330.75436,-463.89127)"
         d="m 966.5,4237.252 c -22.88034,0.016 -56.95898,10.6015 -56.95898,10.6015 12.03318,49.4698 67.89467,217.7014 84.86718,267.8945 23.8544,0.7885 50.3699,1.5671 78.0859,2.3243 -13.5588,-47.539 -77.35829,-259.3027 -86.99215,-274.7168 -2.81107,-4.4978 -10.04877,-6.1099 -19.00195,-6.1035 z"
         style="fill:#b3b3b3;fill-opacity:1;stroke:none;stroke-width:0.99999994px;stroke-linecap:butt;stroke-linejoin:miter;stroke-opacity:1" />
      <path
         id="path1065"
         d="m -90.653838,654.52985 c 0,7.10578 -0.186995,8.41473 7.479768,8.60174 7.666762,0.18698 37.772831,0.18698 42.447675,0 4.67487,-0.18701 7.479771,-1.68297 7.479771,-6.7318 0,-5.04883 -1.121966,-44.31763 -1.682936,-47.49651 -0.560996,-3.17889 -1.869942,-3.55288 -9.53672,-3.92687 -7.666752,-0.37399 -37.39883,-0.37399 -41.699696,0.37399 -4.300868,0.74797 -6.170808,3.36587 -5.983814,10.84564 0.186994,7.47977 1.121963,32.34999 1.495952,38.33381 z"
         style="fill:#691e22;fill-opacity:1;stroke:none;stroke-width:0.26458332px;stroke-linecap:butt;stroke-linejoin:miter;stroke-opacity:1" />
      <path
         id="path1067"
         d="m -84.48303,618.25299 c -0.373989,-5.79684 0.373988,-6.7318 6.544797,-6.9188 6.170808,-0.18698 27.301155,-0.18698 31.60201,-0.18698 4.300881,0 6.170824,0.56097 7.105782,8.22774 0.934985,7.66676 0.934985,25.61821 1.121966,30.10607 0.187007,4.48786 -0.186981,5.60983 -6.544787,5.79681 -6.357805,0.187 -28.610117,0.56099 -33.097977,0.37399 -4.48786,-0.18699 -5.422831,-2.05693 -5.79682,-6.7318 -0.373988,-4.67484 -0.747977,-25.24421 -0.934971,-30.66703 z"
         style="fill:#481f1d;fill-opacity:1;stroke:none;stroke-width:0.26458332px;stroke-linecap:butt;stroke-linejoin:miter;stroke-opacity:1" />
      <path
         id="path1069"
         d="m -61.108757,617.50501 c 10.284671,0.18698 15.520511,8.22775 16.081507,17.01647 0.56097,8.78871 -6.918801,15.14652 -15.707519,14.95954 -8.788728,-0.18701 -14.772539,-6.9188 -15.333522,-15.70752 -0.560982,-8.78872 5.235837,-16.26849 14.959534,-16.26849 z"
         style="fill:#9d9d9d;fill-opacity:1;stroke:none;stroke-width:0.26458332px;stroke-linecap:butt;stroke-linejoin:miter;stroke-opacity:1" />
      <path
         id="path1108"
         transform="matrix(0.26458333,0,0,0.26458333,-330.75436,-463.89127)"
         d="m 2935.0137,4246.1758 c -24.0574,-0.038 -51.961,2.6445 -51.961,2.6445 -15.8457,53.4792 -80.9825,230.1708 -91.9355,262.4551 31.236,-1.9299 61.401,-3.7956 89.1133,-5.5156 21.4545,-48.2668 87.1492,-239.6729 89,-252.0118 0.88,-5.8667 -15.5055,-7.5426 -34.2168,-7.5722 z"
         style="fill:#b3b3b3;fill-opacity:1;stroke:none;stroke-width:0.99999994px;stroke-linecap:butt;stroke-linejoin:miter;stroke-opacity:1" />
      <path
         style="fill:#691e22;fill-opacity:1;stroke:none;stroke-width:0.25938681px;stroke-linecap:butt;stroke-linejoin:miter;stroke-opacity:1"
         d="m 397.06147,654.36138 c 0,6.95505 -0.18362,8.23624 7.34464,8.41928 7.52825,0.18301 43.23439,0.28932 47.8273,0.18816 2.61476,-0.0576 2.57797,-0.80056 2.60933,-3.3276 0.0613,-4.94135 -2.51288,-46.82712 -3.06372,-49.93857 -0.55086,-3.11146 -1.83616,-3.47752 -9.36443,-3.84358 -7.52824,-0.36605 -36.72317,-0.36605 -40.94634,0.36606 -4.22317,0.7321 -6.05932,3.29447 -5.87571,10.61558 0.18362,7.32111 1.1017,31.66378 1.46893,37.52067 z"
         id="path1092" />
      <path
         style="fill:#481f1d;fill-opacity:1;stroke:none;stroke-width:0.25938681px;stroke-linecap:butt;stroke-linejoin:miter;stroke-opacity:1"
         d="m 403.12079,618.85403 c -0.36723,-5.67388 0.36723,-6.589 6.42656,-6.77204 6.05933,-0.18301 26.80793,-0.18301 31.03108,-0.18301 4.22318,0 6.05935,0.54907 6.97741,8.05321 0.9181,7.50413 0.9181,25.07479 1.1017,29.46746 0.18363,4.39266 -0.1836,5.49083 -6.42655,5.67384 -6.24294,0.18304 -28.09324,0.54909 -32.50002,0.36606 -4.40679,-0.18302 -5.32486,-2.0133 -5.6921,-6.589 -0.36723,-4.57568 -0.73446,-24.70873 -0.91808,-30.01652 z"
         id="path1094" />
      <path
         style="fill:#9d9d9d;fill-opacity:1;stroke:none;stroke-width:0.25938681px;stroke-linecap:butt;stroke-linejoin:miter;stroke-opacity:1"
         d="m 426.07278,618.12192 c 10.09887,0.18301 15.24012,8.05322 15.79098,16.65551 0.55083,8.60228 -6.79381,14.82523 -15.42375,14.64222 -8.62995,-0.18305 -14.50565,-6.77204 -15.0565,-15.37433 -0.55085,-8.6023 5.14125,-15.9234 14.68927,-15.9234 z"
         id="path1096" />
    </g>
  </g>
</svg>
