<svg xmlns="http://www.w3.org/2000/svg" width="1082.443" height="1584.594"><path d="M12.96 326.104l20.863 12.681-12.515 89.916-15.168-.31c1.698-35.104 3.91-69.984 6.82-102.287z" fill="#cba3d8"/><path d="M23.626 343.883c-4.172 41.25-13.441 80.646-13.441 87.599 0 6.952 7.415 244.72 17.149 233.133 9.733-11.587 35.225-50.52 58.862-50.056 23.638.463 2.781-107.53 2.781-107.53z" fill="#a94c92"/><path d="M23.626 344.81s0 47.739 15.295 90.843c15.295 43.104 36.152 88.526 45.421 95.478 9.27 6.952 7.416-108.919 7.416-108.919L72.292 326.27l-42.177 12.051z" fill="#a3459c"/><path d="M74.146 336.467c-23.175-.927-48.203 6.952-50.057 7.88-1.854.926-2.78-7.416-2.78-11.124s25.955-71.377 25.955-71.377L68.12 258.6z" fill="#865393"/><path d="M76.775 257.026c-22.277 7.986-31.944 21.015-42.452 53.38-10.508 32.364-12.19 36.146-12.19 36.146l-2.521-15.551 2.942-82.381 39.51-55.482z" fill="#cba3d8"/><path d="M63.745 171.283l9.668 22.276c-23.537 2.942-41.612 58.844-45.395 100.035-3.782 41.19-5.042 52.117-5.043 52.117 0 0-6.726-3.153-11.35-4.106 3.729-45.771 8.743-87.296 15.554-118.205 3.203-14.538 7.024-28.385 11.43-41.504z" fill="#a3459c"/><path d="M52.806 146.377l24.18 19.44c-25.795 9.135-35.101 17.468-52.895 72.976a445.3 445.3 0 013.088-15.393c6.26-28.416 14.872-54.205 25.627-77.023z" fill="#793a74"/><path d="M45.669 1140.174l-41.047 23.848c-.695 22.247.927 31.98 1.39 39.859.464 7.88 50.985-.463 50.985-.463l132.727-11.448 75.527 175.651 26.875 124.54 249.096 10.65 249.095-10.65 26.875-124.54 60.96-169.767 147.294 5.564s50.521 8.342 50.985.463c.463-7.88 2.086-17.612 1.39-39.86l-41.047-23.847-495.552 19.771z" fill="#0e0e0e"/><path d="M846.048 1278.792c-53.883-1.585-52.694-.793-56.656 0-3.962.792-8.32.792-7.924 11.093.396 10.301-1.981 9.509-20.998 10.697-19.018 1.189-66.957 0-74.089 1.189-7.131 1.189-282.09 1.189-309.427.792-27.338-.396-78.843.793-86.767.793-7.924 0-10.697-4.358-10.697-11.886s-.396-9.509-22.98-8.716c-22.582.792-34.864 0-40.015-1.189-5.15-1.188-38.827-120.047-38.827-120.047s128.367-16.64 127.97 1.189c-.395 17.829.793 54.278 1.19 62.599.396 8.32 9.112 16.243 29.714 30.506 20.602 14.264 39.62 26.546 47.147 28.923 7.528 2.377 294.768-14.263 307.447-17.037 12.678-2.773 26.545-12.678 42.789-20.602 16.244-7.924 22.979-9.112 23.375-24.96.396-15.848.792-57.448 1.189-60.221.396-2.774 125.197-8.32 125.197-.397 0 7.924-9.905 64.58-9.905 64.58z" fill="#191919"/><path d="M634.084 1244.323c34.072 0 54.278 0 61.41.396 7.131.396 7.527 3.566 8.32 17.829.792 14.263-.184 88.312-.58 96.632-.396 8.32-.793 11.886-13.867 11.886-13.074 0-53.086.183-64.972.183-11.886 0-139.28-.54-165.43.252-26.148.792-70.125 1.981-77.653 1.189-7.528-.793-9.905-5.15-11.094-15.452-1.188-10.3-1.584-97.86-.792-103.407.792-5.546 3.962-6.339 15.055-6.735 11.094-.396 61.014 1.585 68.542.396 7.528-1.188 181.06-3.17 181.06-3.17z" fill="#2e2e2e"/><path d="M1026.615 1186.875c2.458 6.227 7.701 7.866 11.962 6.883 4.26-.983 4.097 8.52 4.097 8.52l-26.96 138.1-138.12 21.784-63.497-2.781s-7.72.866-5.262-5.034c2.458-5.899 3.278-11.47 4.097-14.42.82-2.95 25.89-6.555 25.89-6.555l139.288-14.256 36.378-48.832z" fill="#343434"/><path d="M1062.993 949.432l-35.394 58.338-5.9 65.546 3.277 72.756v19.5c6.27 1.396 5.51 5.124 6.634 10.742 1.745 8.722 9.247 7.194 26.817 4.342l9.154-64.08z" fill="#a94c92"/><path d="M1059.716 955.332c-3.278 84.555-5.244 181.564-5.244 194.674 0 5.326 10.965-15.31 23.941-41.57.39-33.67.956-79.374 1.582-131.735z" fill="#b661b6"/><path d="M1080.63 922.139l-20.258 30.57c6.555 63.58 12.453 139.615 12.453 147.48 0 2.06 2.316 1.07 5.697-1.455.537-45.21 1.341-108.686 2.108-176.595z" fill="#513960"/><path d="M1076.43 823.592l-19.466 122.822c10.782 14.119 17.93 24.144 23.02 31.246.593-49.551 1.193-102.328 1.66-153.28z" fill="#47324e"/><path d="M1060.671 943.17c5.099-33.37 18.076-101.04 18.076-114.944 0-13.905-41.713 63.034-41.713 63.034z" fill="#6b4c7e"/><path d="M1060.208 956.148c-5.562 38.47-14.832 95.478-26.419 104.748-11.587 9.27-6.488-112.627-6.488-112.627l31.98 1.854z" fill="#cba3d8"/><path d="M1059.06 952.71c-21.63 13.764-29.496 28.184-32.118 31.79-2.621 3.605-36.378 72.757-53.093 71.773-16.714-.983-24.58-42.605-26.218-47.521-1.639-4.916 39.81-359.895 39.81-359.895l33.37 7.415 45.422 101.04-3.708 117.726s-6.952 11.587-6.488 19.93c.463 8.343 6.025 40.787 5.561 44.494-.463 3.708-2.538 13.247-2.538 13.247z" fill="#b661b6"/><path d="M991.149 645.612c23.174 39.86 53.764 116.799 58.399 150.633 4.635 33.835 13.904-146.925 13.904-146.925L996.71 603.9z" fill="#865393"/><path d="M1069.483 326.104l-20.863 12.681 12.516 89.916 15.168-.31c-1.698-35.104-3.91-69.984-6.82-102.287z" fill="#cba3d8"/><path d="M1058.818 343.883c4.17 41.25 13.44 80.646 13.44 87.599 0 6.952-7.415 244.72-17.148 233.133-9.734-11.587-35.225-50.52-58.863-50.056-23.638.463-2.781-107.53-2.781-107.53z" fill="#a94c92"/><path d="M1058.818 344.81s0 47.739-15.295 90.843c-15.296 43.104-36.152 88.526-45.422 95.478-9.27 6.952-7.416-108.919-7.416-108.919l19.467-95.942 42.177 12.051z" fill="#a3459c"/><path d="M1008.298 336.467c23.174-.927 48.202 6.952 50.056 7.88 1.854.926 2.78-7.416 2.78-11.124s-25.954-71.377-25.954-71.377l-20.857-3.245z" fill="#865393"/><path d="M1005.669 257.026c22.276 7.986 31.943 21.015 42.451 53.38 10.508 32.364 12.19 36.146 12.19 36.146l2.521-15.551-2.942-82.381-39.51-55.482z" fill="#cba3d8"/><path d="M1018.698 171.283l-9.668 22.276c23.538 2.942 41.612 58.844 45.395 100.035 3.783 41.19 5.043 52.117 5.043 52.117s6.726-3.153 11.35-4.106c-3.728-45.771-8.743-87.296-15.553-118.205-3.204-14.538-7.025-28.385-11.43-41.504z" fill="#a3459c"/><path d="M1029.638 146.377l-24.18 19.44c25.795 9.135 35.1 17.468 52.895 72.976a445.3 445.3 0 00-3.088-15.393c-6.262-28.416-14.872-54.205-25.627-77.023z" fill="#793a74"/><path d="M208.122 28.092c-14.729 2.795-27.588 5.705-38.039 8.691-50.928 14.551-91.357 53.591-118.143 111.44 1.85 24.876 3.82 59.091 6.62 109.132C68.07 427.357 88.28 627.08 90.657 675.82c2.378 48.742 26.155 306.715 26.155 306.715-1.19 49.93-5.945 74.897-4.756 86.785.882 8.821 31.805 68.564 47.738 98.871 85.97 1.871 214.863 3.755 277.406 4.557 39.088.501 74.787.673 104.022.717 29.234-.044 64.934-.216 104.021-.717 62.544-.802 191.435-2.686 277.406-4.557 15.933-30.307 46.857-90.05 47.739-98.87 1.189-11.889-3.567-36.855-4.756-86.786 0 0 23.777-257.973 26.154-306.715 2.378-48.741 22.587-248.463 32.098-418.465 2.8-50.041 4.77-84.256 6.619-109.132-26.785-57.849-67.215-96.889-118.143-111.44-10.45-2.986-23.31-5.896-38.039-8.691l2.149 316.047-34.477 381.611-51.119 216.365-42.797 121.26-206.855 11.492-206.856-11.492-42.797-121.26L240.45 725.75l-34.476-381.611z" fill="#a24892"/><path d="M528.573.205c-.92.017-1.842.038-2.763.057.92-.019 1.843-.04 2.763-.057zm25.297 0c.92.017 1.843.038 2.764.057-.921-.019-1.844-.04-2.764-.057zM515.983.48a2364.465 2364.465 0 010 0zm50.477 0a2364.465 2364.465 0 000 0zm-64.111.367c-1.06.031-2.119.065-3.178.097 1.06-.032 2.119-.066 3.178-.097zm77.746 0c1.059.031 2.118.065 3.177.097-1.06-.032-2.118-.066-3.177-.097zm-91.016.43zm104.285 0zm-117.97.513l-2.657.107 2.657-.107zm131.656 0l2.656.107-2.656-.107zm-145.826.607l-1.575.07 1.575-.07zm159.996 0l1.574.07-1.574-.07zm-172.281.59c-1.02.052-2.042.1-3.061.153 1.02-.053 2.04-.101 3.06-.153zm184.566 0c1.02.052 2.042.1 3.06.153-1.019-.053-2.04-.101-3.06-.153zM406.708 5.437l-2.678.182c.894-.06 1.783-.122 2.678-.181zm269.027 0l2.678.182c-.893-.06-1.783-.122-2.678-.181zm-281.699.87c-1.222.086-2.439.175-3.658.263 1.22-.088 2.436-.177 3.658-.263zm294.371 0c1.223.086 2.44.175 3.658.263-1.219-.088-2.435-.177-3.658-.263zm-307.248.945c-1.148.087-2.292.177-3.437.266 1.145-.089 2.289-.179 3.437-.266zm320.125 0c1.148.087 2.293.177 3.438.266-1.145-.089-2.29-.179-3.438-.266zM368.183 8.273c-.982.08-1.963.158-2.942.239l2.942-.239zm346.078 0c.981.08 1.963.158 2.941.239l-2.941-.239zM356.147 9.28c-1.312.113-2.627.226-3.933.34 1.307-.115 2.62-.227 3.933-.34zm370.149 0c1.312.113 2.627.226 3.934.34-1.308-.115-2.621-.227-3.934-.34zM343.64 10.39c-1.148.105-2.301.208-3.444.314 1.143-.106 2.296-.21 3.444-.314zm395.164 0c1.147.105 2.3.208 3.443.314-1.142-.106-2.296-.21-3.443-.314zM331.08 11.572c-1.019.1-2.05.195-3.064.295 1.015-.1 2.044-.196 3.064-.295zm420.281 0c1.02.1 2.05.195 3.065.295-1.015-.1-2.045-.196-3.065-.295zm-458.375 4.043c-.645.075-1.277.153-1.92.229.643-.076 1.275-.154 1.92-.229zm496.469 0c.645.075 1.278.153 1.92.229-.642-.076-1.275-.154-1.92-.229zM282.151 16.91c-1.12.137-2.226.276-3.338.414 1.113-.138 2.217-.277 3.338-.414zm518.141 0c1.12.137 2.226.276 3.338.414-1.112-.138-2.217-.277-3.338-.414zm-528.838 1.348c-1.192.154-2.374.31-3.555.465 1.182-.156 2.363-.311 3.555-.465zm539.535 0c1.192.154 2.374.31 3.555.465-1.181-.156-2.362-.311-3.555-.465zm-550.037 1.394zm560.54 0zm-571.313 1.512c-.867.125-1.739.251-2.598.377.86-.126 1.73-.252 2.598-.377zm582.086 0c.866.125 1.738.251 2.597.377-.86-.126-1.73-.252-2.597-.377zM240.51 22.602c-1.004.153-2.021.306-3.014.46.994-.154 2.009-.307 3.014-.46zm601.422 0c1.004.153 2.02.306 3.013.46-.993-.154-2.008-.307-3.013-.46zM229.669 24.31c-.42.068-.855.136-1.274.205.419-.07.854-.137 1.274-.205zm623.105 0c.421.068.855.136 1.274.205-.418-.07-.853-.137-1.274-.205zm-649.63 4.753c-8.863 1.752-16.998 3.544-24.239 5.372-4.628 19.61-8.423 42.944-9.785 68.373-3.566 66.574 13.077 311.47 22.588 412.52 9.51 101.05 49.93 374.479 60.629 457.696 10.7 83.218 46.365 105.806 74.896 117.694 27.017 11.257 108.525 12.908 213.989 12.043 105.464.865 186.971-.786 213.988-12.043 28.532-11.888 64.197-34.476 74.896-117.694 10.7-83.217 51.119-356.647 60.63-457.697 9.51-101.05 26.154-345.945 22.587-412.52-1.362-25.428-5.156-48.763-9.785-68.372-7.24-1.828-15.376-3.62-24.238-5.372 11.383 37.917 18.036 93.064 15.002 143.885-1.821 30.507-8.54 97.039-17.121 175.95-115.822 0-243.349.035-335.96.267-92.61-.232-220.136-.268-335.958-.268-8.582-78.91-15.3-145.442-17.121-175.949-3.035-50.82 3.618-105.968 15.002-143.885z" fill="#e6e6e6"/><path d="M203.144 29.068c-2.014.399-3.983.8-5.922 1.203-.956.2-1.94.396-2.875.596-1.889.402-3.688.809-5.494 1.215a408.5 408.5 0 00-9.47 2.238c-.154.039-.324.077-.478.116-4.628 19.61-8.423 42.944-9.785 68.373-3.566 66.574 13.077 311.47 22.588 412.52 5.65 60.022 22.17 180.555 36.924 286.228 21.287 71.576 45.612 115.853 76.013 135.804 35.473 23.28 147.4 32.074 236.577 32.194 89.177-.12 201.103-8.915 236.576-32.194 30.402-19.95 54.726-64.228 76.014-135.804 14.753-105.673 31.274-226.206 36.923-286.229 9.51-101.05 26.155-345.945 22.588-412.52-1.362-25.428-5.156-48.763-9.785-68.372-.154-.04-.324-.077-.478-.116a408.494 408.494 0 00-9.47-2.238c-1.806-.406-3.605-.813-5.493-1.215-.936-.2-1.92-.397-2.875-.596-1.94-.402-3.909-.804-5.922-1.203a280.472 280.472 0 013.469 12.686c2.357 7.594 3.804 15.183 4.79 22.434 6.052 33.103 8.935 72.045 6.743 108.761-1.609 26.944-7.043 82.033-14.201 148.89l-.064.901c-8.322 111.75-38.042 364.968-46.364 418.465-8.321 53.497-14.266 147.414-99.861 158.113-57.8 7.225-140.585 7.93-192.59 7.635-52.005.295-134.79-.41-192.59-7.635-85.595-10.699-91.54-104.616-99.861-158.113-8.322-53.497-38.041-306.716-46.363-418.465l-.065-.9c-7.158-66.858-12.592-121.947-14.2-148.89-2.193-36.717.69-75.659 6.741-108.762.987-7.25 2.433-14.84 4.791-22.434a280.471 280.471 0 013.47-12.686z" fill="#c5c5c5"/><path d="M188.622 180.22c.063.89.134 1.844.203 2.776-.069-.934-.14-1.884-.203-2.775zm705.2 0c-.064.89-.135 1.844-.204 2.776.07-.934.14-1.884.203-2.775zm-704.63 7.561zm704.059 0zm-702.762 15.672zm701.465 0zm-698.523 31.652c.24 2.481.45 4.751.703 7.32-.253-2.568-.463-4.84-.703-7.32zm695.582 0c-.24 2.481-.451 4.751-.703 7.32.252-2.568.463-4.84.703-7.32zM196.856 269.53c.356 3.474.739 7.138 1.11 10.721-.37-3.58-.755-7.25-1.11-10.72zm688.73 0c-.354 3.474-.738 7.138-1.108 10.721.37-3.58.754-7.25 1.109-10.72zm-685.571 30.35zm682.414 0zM203.43 331.912c.602 5.592 1.193 11.104 1.816 16.836-.623-5.733-1.214-11.244-1.816-16.836zm675.582 0c-.603 5.592-1.193 11.104-1.817 16.836.624-5.733 1.214-11.244 1.817-16.836zm-673.75 16.986c13.824 127.122 32.505 286.53 43.507 380.418 17.833 152.17 55.281 152.17 87.38 165.247 28.713 11.697 120.36 15.13 205.072 15.867 84.712-.736 176.359-4.17 205.072-15.867 32.098-13.077 69.547-13.077 87.379-165.247 11.002-93.888 29.684-253.296 43.508-380.418-115.822 0-243.349.036-335.96.268-92.61-.232-220.136-.268-335.958-.268z" fill="#2d2d2d"/><path d="M541.222 0c-124.21 1.67-260.315 13.695-338.075 29.053-11.385 37.917-18.04 93.07-15.005 143.896 1.82 30.507 8.54 97.039 17.12 175.95 115.823 0 243.35.036 335.96.267 92.61-.23 220.137-.265 335.959-.268 8.581-78.91 15.3-145.442 17.12-175.949 3.035-50.826-3.62-105.98-15.005-143.896C801.536 13.695 665.432 1.669 541.222 0z" fill="#eac311"/><path d="M975.142 620.54c11.294-28.532 29.126-35.07 28.532 2.377-.595 37.448-10.7 187.24-11.888 228.254-1.19 41.015-1.784 128.987-2.378 140.876-.594 11.888-4.755 19.02-16.643 37.447-11.889 18.427-63.602 93.917-74.896 105.211-11.294 11.294-21.993 8.916-20.21-20.21 1.783-29.126 21.993-171.785 37.448-250.247 15.454-78.462 51.119-217.554 60.035-243.708z" fill="#363636"/><path d="M975.142 641.939c14.266-32.099 19.021-40.42 17.833 5.35-1.19 45.769-8.917 171.784-10.105 227.659-1.19 55.874-2.973 86.784-3.567 106.4-.594 19.615-5.35 29.72-18.427 47.552s-51.12 70.735-60.63 83.812c-9.51 13.077-16.643 14.86-12.482-17.238 4.16-32.098 26.154-160.49 32.692-199.722 6.539-39.231 43.392-221.715 54.686-253.813z" fill="#747474"/><path d="M958.594 797.127c17.233 0 21.436 10.087 21.856 20.595.42 10.508-9.247 20.175-22.276 21.016-13.03.84-20.175-8.827-19.755-21.016.42-12.19 10.928-20.175 20.175-20.595z" fill="#b6b6b6"/><path d="M958.174 803.011c10.934-.214 15.971 9.65 15.971 14.711 0 7.145-7.565 15.552-16.812 15.972-9.247.42-13.45-9.247-13.03-15.552.42-6.304 3.365-14.925 13.87-15.13z" fill="#e64141"/><path d="M978.782 900.656c.188 23.259-14.982 27.784-29.513 28.468-14.53.685-25.067-10.574-26.372-28.15-1.304-17.577 11.57-28.59 28.436-28.159 16.866.431 26.767 15.365 27.449 27.84z" fill="#d7d7d7"/><path d="M906.475 991.31c1.681-24.377 15.131-36.146 35.727-36.146 20.595 0 34.465 13.03 34.045 32.784-.42 19.755-11.769 39.51-33.625 39.51s-37.828-13.03-36.147-36.147z" fill="#b6b6b6"/><path d="M967.854 988.313c.188 21.697-11.199 24.657-25.73 25.296-14.531.639-23.806-6.502-25.111-22.899-1.305-16.396 8.207-26.25 25.073-25.847 16.866.402 25.086 11.811 25.768 23.45z" fill="#d7d7d7"/><path d="M1037.524 940.832c-2.386.418-6.322 7.844-11.681 18.115-9.64 18.477-110.58 157.41-143.733 210.059 60.49-1.164 110.906-2.383 122.752-3.39 27.938-2.378 24.965 1.782 26.748 10.698.661 3.305 2.143 5.135 4.678 5.985 3.013-41.278 3.094-197.795 3.846-223.352.394-13.397-.504-18.484-2.61-18.115z" fill="#ebc300"/><path d="M1069.163 417.648c-3.184.076-6.197 5.082-8.426 20.407-4.755 32.692-12.482 149.792-14.265 192.59-1.783 42.797-5.946 228.849-5.946 257.38-.594 45.176-1.187 50.525 5.352 41.014 5.048-7.342 24.931-62.052 35.67-94.322.777-82.116 1.214-157.836.617-196.047-.858-54.903-2.16-136.065-6.127-215.576-2.23-3.022-4.596-5.5-6.875-5.446z" fill="#1c1c1c"/><path d="M1075.446 840.182c-1.041.09-2.523 1.46-4.603 4.45-7.905 11.363-23.483 58.052-30.61 78.75.258 11.74 1.56 11.597 5.645 5.657 4.487-6.527 20.665-50.408 31.754-82.76-.162-3.859-.746-6.222-2.186-6.097z" fill="#d3d3d3"/><path d="M1078.987 1060.016c-20.473 12.348-34.84 85.542-39.584 122.838 4.457.282 10.973-.9 20.145-2.38 18.427-2.971 19.022-6.537 18.428-18.425-.18-3.61.316-45.413 1.011-102.033z" fill="#ebc300"/><path d="M1057.367 344.871c-.84-5.464 3.783-9.247 4.623 0 .841 9.247-2.942 10.508-4.623 0zM1056.11 949.104c1.312-30.48 7.866-21.303 7.539 0-.328 21.303-6.227 26.547-7.538 0z" fill="#e4e4e4"/><path d="M867.398 1188.818c4.146-8.596 2.317-9.733 14.831-9.733s98.26.927 118.19-1.854c19.93-2.781 23.637-4.635 25.491 5.562 1.854 10.196 3.244 7.184 3.708 17.38.463 10.197-3.476 57.01-7.88 75.549-4.402 18.54-6.952 41.482-47.738 50.983-40.787 9.502-44.263 9.502-86.44 12.746-42.178 3.244-57.936 4.171-67.438 4.635-9.501.463-8.806-.232-5.793-7.416 3.012-7.184 47.702-136.725 53.069-147.852z" fill="#deb900"/><path d="M55.829 1186.875c-2.458 6.227-7.702 7.866-11.963 6.883-4.26-.983-4.096 8.52-4.096 8.52l26.96 138.1 138.119 21.784 63.497-2.781s7.72.866 5.262-5.034c-2.458-5.899-3.277-11.47-4.097-14.42-.82-2.95-25.89-6.555-25.89-6.555l-139.288-14.256-36.378-48.832z" fill="#343434"/><path d="M19.45 949.432l35.395 58.338 5.9 65.546-3.277 72.756v19.5c-6.27 1.396-5.511 5.124-6.635 10.742-1.744 8.722-9.247 7.194-26.816 4.342l-9.155-64.08z" fill="#a94c92"/><path d="M22.727 955.332c3.278 84.555 5.245 181.564 5.245 194.674 0 5.326-10.965-15.31-23.942-41.57-.39-33.67-.955-79.374-1.582-131.735z" fill="#b661b6"/><path d="M1.813 922.139l20.258 30.57c-6.554 63.58-12.453 139.615-12.453 147.48 0 2.06-2.316 1.07-5.697-1.455-.536-45.21-1.34-108.686-2.108-176.595z" fill="#513960"/><path d="M6.013 823.592l19.466 122.822C14.698 960.533 7.55 970.558 2.46 977.66 1.868 928.11 1.267 875.332.8 824.38z" fill="#47324e"/><path d="M21.772 943.17C16.673 909.8 3.696 842.13 3.696 828.226c0-13.905 41.714 63.034 41.714 63.034z" fill="#6b4c7e"/><path d="M22.235 956.148c5.562 38.47 14.832 95.478 26.419 104.748 11.587 9.27 6.489-112.627 6.489-112.627l-31.98 1.854z" fill="#cba3d8"/><path d="M23.383 952.71c21.63 13.764 29.496 28.184 32.118 31.79 2.622 3.605 36.378 72.757 53.093 71.773 16.714-.983 24.58-42.605 26.219-47.521 1.638-4.916-39.81-359.895-39.81-359.895l-33.371 7.415-45.422 101.04 3.708 117.726s6.952 11.587 6.489 19.93c-.464 8.343-6.026 40.787-5.562 44.494.463 3.708 2.538 13.247 2.538 13.247z" fill="#b661b6"/><path d="M91.295 645.612c-23.175 39.86-53.765 116.799-58.4 150.633C28.261 830.08 18.991 649.32 18.991 649.32L85.733 603.9z" fill="#865393"/><path d="M107.301 620.54c-11.294-28.532-29.126-35.07-28.532 2.377.595 37.448 10.7 187.24 11.889 228.254 1.188 41.015 1.783 128.987 2.377 140.876.595 11.888 4.756 19.02 16.644 37.447 11.888 18.427 63.602 93.917 74.896 105.211 11.293 11.294 21.993 8.916 20.21-20.21C203 1085.37 182.79 942.71 167.337 864.248c-15.455-78.462-51.12-217.554-60.036-243.708z" fill="#363636"/><path d="M107.301 641.939c-14.266-32.099-19.021-40.42-17.832 5.35 1.189 45.769 8.916 171.784 10.105 227.659 1.189 55.874 2.972 86.784 3.566 106.4.595 19.615 5.35 29.72 18.427 47.552s51.12 70.735 60.63 83.812c9.51 13.077 16.643 14.86 12.483-17.238-4.161-32.098-26.155-160.49-32.693-199.722-6.539-39.231-43.392-221.715-54.686-253.813z" fill="#747474"/><path d="M123.85 797.127c-17.233 0-21.437 10.087-21.857 20.595-.42 10.508 9.247 20.175 22.277 21.016 13.03.84 20.175-8.827 19.754-21.016-.42-12.19-10.928-20.175-20.175-20.595z" fill="#b6b6b6"/><path d="M124.27 803.011c-10.934-.214-15.972 9.65-15.972 14.711 0 7.145 7.565 15.552 16.812 15.972 9.247.42 13.45-9.247 13.03-15.552-.42-6.304-3.365-14.925-13.87-15.13z" fill="#e64141"/><path d="M103.661 900.656c-.188 23.259 14.982 27.784 29.513 28.468 14.531.685 25.067-10.574 26.372-28.15 1.305-17.577-11.57-28.59-28.436-28.159-16.866.431-26.767 15.365-27.449 27.84z" fill="#d7d7d7"/><path d="M175.968 991.31c-1.681-24.377-15.131-36.146-35.726-36.146-20.596 0-34.466 13.03-34.046 32.784.42 19.755 11.769 39.51 33.625 39.51 21.857 0 37.828-13.03 36.147-36.147z" fill="#b6b6b6"/><path d="M114.59 988.313c-.188 21.697 11.198 24.657 25.73 25.296 14.53.639 23.806-6.502 25.11-22.899 1.305-16.396-8.207-26.25-25.073-25.847-16.866.402-25.086 11.811-25.768 23.45z" fill="#d7d7d7"/><path d="M44.919 940.832c2.386.418 6.323 7.844 11.681 18.115 9.64 18.477 110.58 157.41 143.733 210.059-60.49-1.164-110.906-2.383-122.752-3.39-27.937-2.378-24.965 1.782-26.748 10.698-.661 3.305-2.142 5.135-4.678 5.985-3.013-41.278-3.094-197.795-3.846-223.352-.394-13.397.505-18.484 2.61-18.115z" fill="#ebc300"/><path d="M13.28 417.648c3.184.076 6.197 5.082 8.426 20.407 4.755 32.692 12.482 149.792 14.266 192.59 1.783 42.797 5.945 228.849 5.945 257.38.594 45.176 1.187 50.525-5.352 41.014-5.047-7.342-24.931-62.052-35.67-94.322C.12 752.6-.319 676.88.278 638.67c.858-54.903 2.16-136.065 6.127-215.576 2.23-3.022 4.596-5.5 6.875-5.446z" fill="#1c1c1c"/><path d="M6.997 840.182c1.041.09 2.523 1.46 4.603 4.45 7.905 11.363 23.483 58.052 30.61 78.75-.257 11.74-1.56 11.597-5.645 5.657-4.487-6.527-20.665-50.408-31.754-82.76.163-3.859.746-6.222 2.186-6.097z" fill="#d3d3d3"/><path d="M3.456 1060.016c20.473 12.348 34.84 85.542 39.584 122.838-4.457.282-10.973-.9-20.145-2.38-18.426-2.971-19.022-6.537-18.427-18.425.18-3.61-.316-45.413-1.012-102.033z" fill="#ebc300"/><path d="M25.076 344.871c.84-5.464-3.783-9.247-4.623 0-.841 9.247 2.942 10.508 4.623 0zM26.333 949.104c-1.311-30.48-7.866-21.303-7.538 0 .327 21.303 6.227 26.547 7.538 0z" fill="#e4e4e4"/><path d="M8.917 1186.486c-2.39.068-3.512 1.608-3.367 8.125.232 10.429 7.415 90.381 9.965 111.702 2.549 21.32 10.429 134.642 28.968 186.552 18.54 51.91 46.349 73.231 97.332 78.793 50.42 5.5 230.464 11.898 399.407 12.936 168.943-1.038 348.986-7.435 399.406-12.936 50.983-5.562 78.793-26.882 97.332-78.793 18.54-51.91 26.42-165.232 28.969-186.552 2.549-21.32 9.733-101.273 9.965-111.702.144-6.517-.978-8.057-3.368-8.125-1.434-.04-3.323.449-5.67.71-6.257.695-28.736 6.256-32.675 7.183-3.94.927-2.782 1.856-3.71 25.262-.926 23.406-6.488 57.239-12.05 78.095-5.562 20.857-17.611 31.981-61.643 39.397-44.03 7.416-130.936 12.05-139.047 12.05-8.11 0-7.646-.462-11.123 7.65-3.357 7.89-8.113 25.209-21.222 55.36-13.11 30.152-27.444 38.03-60.815 52.862-29.123 12.944-113.918 15.997-184.35 17.799-70.43-1.802-155.225-4.855-184.349-17.8-33.37-14.83-47.705-22.71-60.814-52.86-13.11-30.152-17.866-47.47-21.223-55.362-3.476-8.11-3.012-7.648-11.123-7.648-8.111 0-95.016-4.635-139.047-12.051-44.031-7.416-56.08-18.54-61.643-39.397-5.561-20.856-11.123-54.69-12.05-78.095-.927-23.406.23-24.335-3.71-25.262-3.939-.927-26.418-6.488-32.675-7.184-2.347-.26-4.236-.75-5.67-.709z" fill="#a2a2a2"/><path d="M215.045 1188.818c-4.146-8.596-2.317-9.733-14.831-9.733s-98.26.927-118.19-1.854c-19.929-2.781-23.637-4.635-25.49 5.562-1.855 10.196-3.245 7.184-3.709 17.38-.463 10.197 3.477 57.01 7.88 75.549 4.403 18.54 6.952 41.482 47.739 50.983 40.786 9.502 44.263 9.502 86.44 12.746 42.177 3.244 57.936 4.171 67.437 4.635 9.502.463 8.806-.232 5.794-7.416-3.013-7.184-47.702-136.725-53.07-147.852z" fill="#deb900"/><path d="M255.903 385.748c-22.587 0-21.399 7.133-19.021 29.72 2.378 22.588 40.42 322.17 43.986 344.759 3.567 22.587 4.756 28.53 26.154 27.341 19.648-1.092 144.742-.195 234.2-.039 89.458-.156 214.551-1.053 234.199.04 21.399 1.188 22.588-4.755 26.154-27.342 3.567-22.588 41.609-322.17 43.987-344.758 2.377-22.588 3.566-29.72-19.022-29.72-16.503-.001-181.118 2.1-285.318 3.442-104.2-1.342-268.816-3.443-285.319-3.443z" fill="#474747"/><path d="M682.651 5.904c1.935 33.734 1.527 81.577.282 102.99-1.536 26.42-.931 31.982-12.545 32.446-11.614.463-117.673-.928-135.776-.465-18.103.463-128.493 1.854-139.59 1.39-11.096-.463-12.38-2.316-13.566-21.783-.94-15.434-2.328-79.366-3.47-112.988-4.636.358-9.238.727-13.815 1.106 2.085 40.935 2.56 107.474 4.287 120.226 1.946 14.368 1.65 19.466 29.432 19.93 27.782.463 242.047-1.856 262.904-1.856s32.009-.462 32.893-23.636c.683-17.913.89-81.96-.061-116.584-3.645-.266-7.303-.523-10.975-.776z" fill="#818181"/><path d="M480.412 43.151c28.54-1 45.504 19.666 47.383 40.332 1.88 20.665-7.47 44.045-41.225 43.664-29.484-.333-44.456-12.333-45.816-38.331-1.365-26.109 11.096-44.664 39.658-45.665z" fill="#252525"/><path d="M450.206 81.15c.807-13.333 1.33-36.999 31.166-37.332 29.835-.333 34.093 18 35.252 31.332 1.16 13.332-11.77 32.535-32.78 33.535-21.011 1-32.366-8.203-33.638-27.536z" fill="#3c3c3c"/><path d="M480.106 86.718c9.165.333 12.61-4.333 12.79-9.333.18-5-2.227-11-8.126-11-5.9 0-11.942 4-12.134 9.334-.192 5.333-.044 10.332 7.47 10.999zM597.751 43.558c26.762-.98 42.09 19.267 43.288 39.515 1.196 20.247-8.2 43.154-39.81 42.78-27.61-.327-41.308-12.083-41.873-37.555-.568-25.58 11.612-43.76 38.395-44.74z" fill="#252525"/><path d="M568.077 78.714c1.347-16.386 9.602-31.534 30.31-32.517 20.709-.984 31.164 14.892 30.861 30.295-.303 15.404-11.712 29.289-30.454 30.272-18.742.983-30.917-14.285-30.717-28.05z" fill="#3c3c3c"/><path d="M590.252 71.74c-.84 8.584 3.261 11.65 7.86 11.65s10.27-2.452 10.613-7.97c.343-5.52-2.993-11.038-7.898-11.038-4.906 0-9.523.306-10.575 7.358z" fill="#252525"/><path d="M280.474 149.49c52.713 0 76.605 31.096 76.329 69.777-.276 38.682-32.958 71.674-75.487 73.191-42.529 1.517-73.723-26.925-72.592-68.26 1.132-41.336 30.36-73.191 71.75-74.708z" fill="#3c3c3c"/><path d="M284.105 164.28c33.33 1.137 52.094 27.304 51.11 54.229-.984 26.925-26.9 51.196-55.37 51.954-28.47.758-51.881-22.754-51.207-51.575.674-28.821 22.881-55.367 55.467-54.608z" fill="#979797"/><path d="M277.18 249.985c27.318-.38 43.884-17.824 43.494-38.302-.389-20.478-8.742-40.957-36.439-40.577-27.697.379-41.14 25.787-41.792 43.61-.652 17.824 10.86 34.89 34.737 35.269z" fill="#cdccca"/><g><path d="M455.41 162.004c40.198 1.138 58.022 32.993 57.643 56.884-.38 23.891-26.925 52.713-57.643 53.092-30.717.38-56.504-27.684-56.504-54.988s19.72-53.85 56.504-54.988z" fill="#3c3c3c"/><path d="M451.096 254.915c26.56-.38 46.099-26.546 46.736-43.99.638-17.445-11.762-41.336-40.92-42.474-29.16-1.138-42.306 26.546-43.434 47.024-1.128 20.478 17.899 39.44 37.618 39.44z" fill="#cdccca"/></g><g><path d="M687.427 216.359c0 40.214-32.993 58.021-56.884 57.642-23.892-.38-52.713-26.925-53.092-57.642-.38-30.718 27.683-56.505 54.988-56.505 27.304 0 54.988 19.702 54.988 56.505z" fill="#3c3c3c"/><path d="M588.49 214.72c-1.191 26.549 24.662 41.196 42.114 40.957 27.697-.379 42.649-15.169 44.854-44.37 2.205-29.2-22.83-39.439-43.294-39.818-20.464-.38-42.5 17.066-43.674 43.232z" fill="#cdccca"/></g><g><path d="M795.227 146.456c52.713 0 76.605 31.096 76.329 69.778-.276 38.68-32.958 71.673-75.487 73.19-42.529 1.517-73.723-26.925-72.592-68.26 1.132-41.336 30.36-73.191 71.75-74.708z" fill="#3c3c3c"/><path d="M799.853 160.25c36.321-.533 51.099 28.3 50.115 55.225-.985 26.925-16.96 49.851-51.39 50.96-34.94 1.124-53.995-21.776-55.187-50.58-1.316-31.807 23.871-55.126 56.462-55.604z" fill="#979797"/><path d="M791.933 246.95c27.318-.378 43.883-17.823 43.494-38.301-.389-20.478-8.742-40.956-36.44-40.577-27.697.379-41.14 25.787-41.791 43.61-.652 17.824 10.86 34.89 34.737 35.269z" fill="#cdccca"/></g><path d="M441.137 1250.266c.396-14.263.793-15.848 11.886-16.244 11.093-.396 53.486.396 87.955.396s63.391-1.188 80.428-1.585c17.036-.396 17.432 2.377 18.62 15.452 1.19 13.074-.88 105.111-.88 111.054 0 5.943-2.773 10.697-7.923 11.49-5.151.792-49.437.276-91.037.672-41.6.396-78.05 1.189-85.974.792-7.924-.396-10.302-.792-11.094-10.697-.792-9.905-1.585-100.633-1.98-111.33z" fill="#363636"/><path d="M489.869 1262.152c25.356.396 45.562 20.998 45.959 43.977.396 22.98-15.056 46.751-40.808 47.147-25.753.396-47.148-17.432-47.148-45.958s15.452-44.77 41.997-45.166z" fill="#292929"/><path d="M538.205 1306.525c0-26.148 20.602-43.185 43.185-43.581 22.583-.396 43.581 21.395 43.977 42.789.397 21.395-16.244 45.166-43.581 45.166-27.337 0-43.185-20.206-43.581-44.374z" fill="#131313"/></svg>