<?xml version="1.0" encoding="UTF-8" standalone="no"?>
<svg
   xmlns:dc="http://purl.org/dc/elements/1.1/"
   xmlns:cc="http://creativecommons.org/ns#"
   xmlns:rdf="http://www.w3.org/1999/02/22-rdf-syntax-ns#"
   xmlns:svg="http://www.w3.org/2000/svg"
   xmlns="http://www.w3.org/2000/svg"
   viewBox="0 0 1082.4433 1584.5938"
   height="1584.5938"
   width="1082.4432"
   id="svg1486"
   version="1.1">
  <metadata
     id="metadata1492">
    <rdf:RDF>
      <cc:Work
         rdf:about="">
        <dc:format>image/svg+xml</dc:format>
        <dc:type
           rdf:resource="http://purl.org/dc/dcmitype/StillImage" />
        <dc:title></dc:title>
      </cc:Work>
    </rdf:RDF>
  </metadata>
  <defs
     id="defs1490" />
  <path
     style="fill:#cba3d8;fill-opacity:1;stroke:none;stroke-width:1px;stroke-linecap:butt;stroke-linejoin:miter;stroke-opacity:1"
     d="m 12.959805,326.10355 20.8633,12.6816 -12.5156,89.916 -15.1679995,-0.3105 c 1.6981,-35.1034 3.9099995,-69.9837 6.8202995,-102.2871 z"
     id="path2499" />
  <path
     style="fill:#a94c92;fill-opacity:1;stroke:none;stroke-width:1px;stroke-linecap:butt;stroke-linejoin:miter;stroke-opacity:1"
     d="m 23.625705,343.88285 c -4.1714,41.2502 -13.4411,80.6466 -13.4411,87.5988 0,6.9523 7.4158,244.7207 17.149,233.1335 9.7332,-11.5871 35.2249,-50.5199 58.8627,-50.0565 23.637805,0.4635 2.7809,-107.5287 2.7809,-107.5287 z"
     id="path2501" />
  <path
     style="fill:#a3459c;fill-opacity:1;stroke:none;stroke-width:1px;stroke-linecap:butt;stroke-linejoin:miter;stroke-opacity:1"
     d="m 23.625705,344.80975 c 0,0 0,47.7391 15.295,90.8433 15.2951,43.1042 36.1519,88.5259 45.4217,95.4781 9.2697,6.9523 7.4157,-108.9192 7.4157,-108.9192 l -19.4664,-95.9416 -42.1772,12.0506 z"
     id="path2503" />
  <path
     style="fill:#865393;fill-opacity:1;stroke:none;stroke-width:1px;stroke-linecap:butt;stroke-linejoin:miter;stroke-opacity:1"
     d="m 74.145705,336.46705 c -23.1743,-0.927 -48.2026,6.9523 -50.0565,7.8793 -1.854,0.9269 -2.7809,-7.4158 -2.7809,-11.1237 0,-3.7079 25.9552,-71.37686 25.9552,-71.37686 l 20.8569,-3.2444 z"
     id="path2505" />
  <path
     style="fill:#cba3d8;fill-opacity:1;stroke:none;stroke-width:1px;stroke-linecap:butt;stroke-linejoin:miter;stroke-opacity:1"
     d="m 76.774505,257.02588 c -22.2766,7.98592 -31.9437,21.0156 -42.4515,53.37962 -10.5078,32.36405 -12.1891,36.14685 -12.1891,36.14685 l -2.5219,-15.5516 2.9422,-82.38111 39.5094,-55.48118 z"
     id="path2507" />
  <path
     style="fill:#a3459c;fill-opacity:1;stroke:none;stroke-width:1px;stroke-linecap:butt;stroke-linejoin:miter;stroke-opacity:1"
     d="m 63.745005,171.28321 9.668,22.27539 c -23.5375,2.94218 -41.6118,58.84458 -45.3946,100.03515 -3.7828,41.1905 -5.0429,52.1172 -5.043,52.1172 0,0 -6.726,-3.1531 -11.3496,-4.1055 3.7278,-45.77187 8.7423,-87.29623 15.5528,-118.20506 3.2034,-14.5387 7.0247,-28.3853 11.4297,-41.5039 z"
     id="path2509" />
  <path
     style="fill:#793a74;fill-opacity:1;stroke:none;stroke-width:1px;stroke-linecap:butt;stroke-linejoin:miter;stroke-opacity:1"
     d="m 52.805505,146.37696 24.1797,19.43945 c -25.7947,9.13564 -35.1005,17.46832 -52.8945,72.97656 0.9863,-5.37473 2.0143,-10.52026 3.0879,-15.39258 6.2613,-28.4168 14.8719,-54.2056 25.6269,-77.02343 z"
     id="path2511" />
  <path
     style="fill:#0e0e0e;fill-opacity:1;stroke:none;stroke-width:1px;stroke-linecap:butt;stroke-linejoin:miter;stroke-opacity:1"
     d="m 45.668925,1140.1739 -41.0468695,23.8476 c -0.6953,22.2473 0.92712,31.9801 1.39062,39.8594 0.4635,7.8792 50.9843795,-0.4629 50.9843795,-0.4629 l 132.727045,-11.4476 75.52686,175.6507 26.875,124.5391 249.09575,10.6504 249.0957,-10.6504 26.875,-124.5391 60.9589,-169.7675 147.29499,5.5644 c 0,0 50.5208,8.3421 50.9843,0.4629 0.4635,-7.8793 2.086,-17.6121 1.3907,-39.8594 l -41.0469,-23.8476 -495.55269,19.7715 z"
     id="path2240" />
  <path
     id="path2971"
     d="m 846.04751,1278.7918 c -53.8824,-1.5848 -52.6938,-0.7924 -56.6557,0 -3.962,0.7924 -8.3201,0.7924 -7.9239,11.0934 0.3962,10.3011 -1.981,9.5087 -20.9983,10.6973 -19.0173,1.1885 -66.9568,0 -74.0883,1.1885 -7.1315,1.1886 -282.0902,1.1886 -309.4276,0.7924 -27.3374,-0.3962 -78.84266,0.7924 -86.76654,0.7924 -7.92388,0 -10.69724,-4.3581 -10.69724,-11.8858 0,-7.5277 -0.39619,-9.5087 -22.97926,-8.7163 -22.58307,0.7924 -34.86508,0 -40.01561,-1.1886 -5.15052,-1.1885 -38.82702,-120.0468 -38.82702,-120.0468 0,0 128.3669,-16.6401 127.9707,1.1886 -0.39619,17.8287 0.79239,54.2786 1.18859,62.5987 0.39619,8.3201 9.11246,16.2439 29.71458,30.5069 20.6021,14.263 39.6194,26.545 47.1471,28.9222 7.5277,2.3772 294.7684,-14.263 307.4466,-17.0364 12.6782,-2.7733 26.545,-12.6782 42.789,-20.602 16.244,-7.9239 22.9793,-9.1125 23.3754,-24.9603 0.3962,-15.8477 0.7924,-57.4481 1.1886,-60.2215 0.3962,-2.7733 125.1974,-8.3201 125.1974,-0.3962 0,7.9239 -9.9049,64.5797 -9.9049,64.5797 z"
     style="fill:#191919;fill-opacity:1;stroke:none;stroke-width:1px;stroke-linecap:butt;stroke-linejoin:miter;stroke-opacity:1" />
  <path
     id="path2969"
     d="m 634.08371,1244.3229 c 34.0727,0 54.2786,0 61.4101,0.3962 7.1315,0.3962 7.5276,3.5657 8.32,17.8287 0.7924,14.263 -0.1839,88.3122 -0.5801,96.6323 -0.3962,8.32 -0.7924,11.8858 -13.8668,11.8858 -13.0744,0 -53.086,0.1833 -64.9718,0.1833 -11.8858,0 -139.2804,-0.5404 -165.4292,0.252 -26.1489,0.7923 -70.1264,1.981 -77.6541,1.1886 -7.5277,-0.7924 -9.9048,-5.1506 -11.0934,-15.4516 -1.1886,-10.301 -1.5848,-97.8599 -0.7924,-103.4067 0.7924,-5.5468 3.9619,-6.3391 15.0554,-6.7353 11.0934,-0.3961 61.0139,1.5848 68.5416,0.3961 7.5276,-1.1885 181.0607,-3.1695 181.0607,-3.1694 z"
     style="fill:#2e2e2e;fill-opacity:1;stroke:none;stroke-width:1px;stroke-linecap:butt;stroke-linejoin:miter;stroke-opacity:1" />
  <path
     id="path2235"
     d="m 1026.6146,1186.8754 c 2.458,6.2269 7.7018,7.8656 11.9623,6.8824 4.2605,-0.9832 4.0967,8.5211 4.0967,8.5211 l -26.9603,138.099 -138.11879,21.7839 -63.4976,-2.7809 c 0,0 -7.7196,0.8658 -5.2616,-5.0334 2.458,-5.8992 3.2773,-11.4707 4.0966,-14.4203 0.8194,-2.9496 25.891,-6.5547 25.891,-6.5547 l 139.2871,-14.2564 36.37839,-48.8324 z"
     style="fill:#343434;fill-opacity:1;stroke:none;stroke-width:1px;stroke-linecap:butt;stroke-linejoin:miter;stroke-opacity:1" />
  <path
     id="path2226"
     d="m 1062.9931,949.43165 -35.3945,58.33795 -5.9004,65.5469 3.2774,72.7558 v 19.5 c 6.2697,1.396 5.5111,5.1241 6.6347,10.7422 1.7443,8.7215 9.2468,7.1937 26.8164,4.3418 l 9.1543,-64.0801 z"
     style="fill:#a94c92;fill-opacity:1;stroke:none;stroke-width:1px;stroke-linecap:butt;stroke-linejoin:miter;stroke-opacity:1" />
  <path
     id="path2221"
     d="m 1059.7158,955.33205 c -3.2774,84.55545 -5.2441,181.56445 -5.2441,194.67385 0,5.3262 10.9649,-15.3107 23.9414,-41.5703 0.3893,-33.6687 0.9555,-79.374 1.582,-131.73445 z"
     style="fill:#b661b6;fill-opacity:1;stroke:none;stroke-width:1px;stroke-linecap:butt;stroke-linejoin:miter;stroke-opacity:1" />
  <path
     id="path2216"
     d="m 1080.6299,922.13865 -20.2579,30.5703 c 6.5547,63.58045 12.4532,139.61495 12.4532,147.48055 0,2.0587 2.3161,1.0692 5.6972,-1.4551 0.5362,-45.2103 1.3407,-108.68605 2.1075,-176.59575 z"
     style="fill:#513960;fill-opacity:1;stroke:none;stroke-width:1px;stroke-linecap:butt;stroke-linejoin:miter;stroke-opacity:1" />
  <path
     id="path2211"
     d="m 1076.4306,823.59175 -19.4668,122.8223 c 10.7817,14.1188 17.9294,24.1443 23.0196,31.2461 0.5933,-49.5513 1.1936,-102.3277 1.6601,-153.2793 z"
     style="fill:#47324e;fill-opacity:1;stroke:none;stroke-width:1px;stroke-linecap:butt;stroke-linejoin:miter;stroke-opacity:1" />
  <path
     id="path2209"
     d="m 1060.6715,943.17035 c 5.0983,-33.371 18.0759,-101.04 18.0759,-114.9446 0,-13.9046 -41.7137,63.0341 -41.7137,63.0341 z"
     style="fill:#6b4c7e;fill-opacity:1;stroke:none;stroke-width:1px;stroke-linecap:butt;stroke-linejoin:miter;stroke-opacity:1" />
  <path
     id="path2207"
     d="m 1060.208,956.14795 c -5.5619,38.4693 -14.8316,95.47815 -26.4187,104.74785 -11.5872,9.2698 -6.4888,-112.62715 -6.4888,-112.62715 l 31.9805,1.854 z"
     style="fill:#cba3d8;fill-opacity:1;stroke:none;stroke-width:1px;stroke-linecap:butt;stroke-linejoin:miter;stroke-opacity:1" />
  <path
     id="path2205"
     d="m 1059.0603,952.70925 c -21.6305,13.7649 -29.4961,28.1852 -32.118,31.7902 -2.6218,3.6051 -36.37849,72.75705 -53.09289,71.77385 -16.7144,-0.9832 -24.5801,-42.6054 -26.2188,-47.5215 -1.6386,-4.9161 39.8101,-359.89515 39.8101,-359.89515 l 33.37089,7.4158 45.4217,101.04 -3.7079,117.7254 c 0,0 -6.9523,11.5872 -6.4888,19.9299 0.4635,8.3428 6.0253,40.7868 5.5618,44.4947 -0.4635,3.7079 -2.5381,13.2468 -2.5381,13.2468 z"
     style="fill:#b661b6;fill-opacity:1;stroke:none;stroke-width:1px;stroke-linecap:butt;stroke-linejoin:miter;stroke-opacity:1" />
  <path
     id="path2201"
     d="m 991.14851,645.61225 c 23.17429,39.8598 53.76439,116.7985 58.39929,150.633 4.6348,33.8345 13.9046,-146.9251 13.9046,-146.9251 l -66.74199,-45.4216 z"
     style="fill:#865393;fill-opacity:1;stroke:none;stroke-width:1px;stroke-linecap:butt;stroke-linejoin:miter;stroke-opacity:1" />
  <path
     id="path2196"
     d="m 1069.4834,326.10355 -20.8633,12.6816 12.5156,89.916 15.168,-0.3105 c -1.6981,-35.1034 -3.91,-69.9837 -6.8203,-102.2871 z"
     style="fill:#cba3d8;fill-opacity:1;stroke:none;stroke-width:1px;stroke-linecap:butt;stroke-linejoin:miter;stroke-opacity:1" />
  <path
     id="path2194"
     d="m 1058.8175,343.88285 c 4.1714,41.2502 13.4411,80.6466 13.4411,87.5988 0,6.9523 -7.4158,244.7207 -17.149,233.1335 -9.7332,-11.5871 -35.2249,-50.5199 -58.86269,-50.0565 -23.6378,0.4635 -2.7809,-107.5287 -2.7809,-107.5287 z"
     style="fill:#a94c92;fill-opacity:1;stroke:none;stroke-width:1px;stroke-linecap:butt;stroke-linejoin:miter;stroke-opacity:1" />
  <path
     id="path2192"
     d="m 1058.8175,344.80975 c 0,0 0,47.7391 -15.295,90.8433 -15.2951,43.1042 -36.1519,88.5259 -45.42169,95.4781 -9.2697,6.9523 -7.4157,-108.9192 -7.4157,-108.9192 l 19.46639,-95.9416 42.1772,12.0506 z"
     style="fill:#a3459c;fill-opacity:1;stroke:none;stroke-width:1px;stroke-linecap:butt;stroke-linejoin:miter;stroke-opacity:1" />
  <path
     id="path2190"
     d="m 1008.2975,336.46705 c 23.1743,-0.927 48.2026,6.9523 50.0565,7.8793 1.854,0.9269 2.7809,-7.4158 2.7809,-11.1237 0,-3.7079 -25.9552,-71.37686 -25.9552,-71.37686 l -20.8569,-3.2444 z"
     style="fill:#865393;fill-opacity:1;stroke:none;stroke-width:1px;stroke-linecap:butt;stroke-linejoin:miter;stroke-opacity:1" />
  <path
     id="path2188"
     d="m 1005.6687,257.02588 c 22.2766,7.98592 31.9437,21.0156 42.4515,53.37962 10.5078,32.36405 12.1891,36.14685 12.1891,36.14685 l 2.5219,-15.5516 -2.9422,-82.38111 -39.5094,-55.48118 z"
     style="fill:#cba3d8;fill-opacity:1;stroke:none;stroke-width:1px;stroke-linecap:butt;stroke-linejoin:miter;stroke-opacity:1" />
  <path
     id="path2178"
     d="m 1018.6982,171.28321 -9.668,22.27539 c 23.5375,2.94218 41.6118,58.84458 45.3946,100.03515 3.7828,41.1905 5.0429,52.1172 5.043,52.1172 0,0 6.726,-3.1531 11.3496,-4.1055 -3.7278,-45.77187 -8.7423,-87.29623 -15.5528,-118.20506 -3.2034,-14.5387 -7.0247,-28.3853 -11.4297,-41.5039 z"
     style="fill:#a3459c;fill-opacity:1;stroke:none;stroke-width:1px;stroke-linecap:butt;stroke-linejoin:miter;stroke-opacity:1" />
  <path
     id="path2174"
     d="m 1029.6377,146.37696 -24.1797,19.43945 c 25.7947,9.13564 35.1005,17.46832 52.8945,72.97656 -0.9863,-5.37473 -2.0143,-10.52026 -3.0879,-15.39258 -6.2613,-28.4168 -14.8719,-54.2056 -25.6269,-77.02343 z"
     style="fill:#793a74;fill-opacity:1;stroke:none;stroke-width:1px;stroke-linecap:butt;stroke-linejoin:miter;stroke-opacity:1" />
  <path
     style="fill:#a24892;fill-opacity:1;stroke:none;stroke-width:1px;stroke-linecap:butt;stroke-linejoin:miter;stroke-opacity:1"
     d="m 208.12206,28.0918 c -14.7288,2.79505 -27.58817,5.70544 -38.03907,8.69141 -50.9278,14.55078 -91.357475,53.59125 -118.142575,111.43945 1.8489,24.87615 3.81964,59.09136 6.61914,109.13281 9.5106,170.00148 29.71995,369.72318 32.09765,418.46488 2.3776,48.7417 26.154305,306.7148 26.154305,306.7148 -1.1888,49.93055 -5.94476,74.89705 -4.75586,86.78525 0.8821,8.821 31.80568,68.5633 47.73828,98.8711 85.971,1.8708 214.86268,3.7548 277.40628,4.5566 39.0873,0.5011 74.787,0.6728 104.0215,0.7168 29.2345,-0.044 64.9341,-0.2157 104.0214,-0.7168 62.5436,-0.8018 191.4353,-2.6858 277.4063,-4.5566 15.9326,-30.3078 46.8562,-90.0501 47.7383,-98.8711 1.1889,-11.8882 -3.5671,-36.8547 -4.7559,-86.78525 0,0 23.7767,-257.9731 26.1543,-306.7148 2.3777,-48.7417 22.58709,-248.4634 32.09769,-418.46488 2.7995,-50.04145 4.7702,-84.25666 6.6191,-109.13281 -26.7851,-57.8482 -67.21479,-96.88867 -118.14259,-111.43945 -10.4509,-2.98597 -23.3102,-5.89636 -38.039,-8.69141 l 2.1484,316.04685 -34.4766,381.6114 -51.1191,216.3652 -42.7969,121.25985 -206.8554,11.4921 -206.8555,-11.4921 -42.79689,-121.25985 -51.11914,-216.3652 -34.47656,-381.6114 z"
     id="path2143" />
  <path
     style="fill:#e6e6e6;fill-opacity:1;stroke:none;stroke-width:1px;stroke-linecap:butt;stroke-linejoin:miter;stroke-opacity:1"
     d="m 528.57321,0.20508 c -0.92,0.0174 -1.8427,0.0381 -2.7637,0.0566 0.9209,-0.0185 1.8439,-0.0392 2.7637,-0.0566 z m 25.2969,0 c 0.92,0.0174 1.8427,0.0381 2.7637,0.0566 -0.9209,-0.0185 -1.8439,-0.0392 -2.7637,-0.0566 z m -37.8867,0.27344 c -1.4126,0.0341 -2.828,0.0708 -4.2422,0.10742 1.4147,-0.0367 2.8291,-0.0733 4.2422,-0.10742 z m 50.4765,0 c 1.4126,0.0341 2.828,0.0708 4.2422,0.10742 -1.4147,-0.0367 -2.8291,-0.0733 -4.2422,-0.10742 z m -64.1113,0.36719 c -1.0588,0.0314 -2.1183,0.0649 -3.1777,0.0976 1.0597,-0.0328 2.1186,-0.0662 3.1777,-0.0976 z m 77.7461,0 c 1.0588,0.0314 2.1183,0.0649 3.1777,0.0976 -1.0597,-0.0328 -2.1186,-0.0662 -3.1777,-0.0976 z m -91.0156,0.42968 c -1.1049,0.0386 -2.2093,0.0772 -3.3145,0.11719 1.1052,-0.04 2.2095,-0.0786 3.3145,-0.11719 z m 104.2851,0 c 1.1049,0.0386 2.2093,0.0772 3.3145,0.11719 -1.1052,-0.04 -2.2095,-0.0786 -3.3145,-0.11719 z m -117.9707,0.51368 c -0.8854,0.0356 -1.7709,0.0709 -2.6562,0.10742 0.8855,-0.0365 1.7706,-0.0718 2.6562,-0.10742 z m 131.6563,0 c 0.8854,0.0356 1.7709,0.0709 2.6562,0.10742 -0.8855,-0.0365 -1.7706,-0.0718 -2.6562,-0.10742 z m -145.8262,0.60742 c -0.5247,0.0239 -1.0497,0.0461 -1.5742,0.0703 0.5246,-0.0242 1.0495,-0.0464 1.5742,-0.0703 z m 159.9961,0 c 0.5247,0.0239 1.0497,0.0461 1.5742,0.0703 -0.5246,-0.0242 -1.0495,-0.0464 -1.5742,-0.0703 z m -172.2812,0.58984 c -1.0196,0.0512 -2.0417,0.10001 -3.0606,0.15234 1.0192,-0.0523 2.0407,-0.10112 3.0606,-0.15234 z m 184.5664,0 c 1.0196,0.0512 2.0416,0.10001 3.0605,0.15234 -1.0192,-0.0523 -2.0406,-0.10112 -3.0605,-0.15234 z M 406.70801,5.4375 c -0.8948,0.0591 -1.7843,0.1217 -2.6778,0.18164 0.8937,-0.0599 1.7828,-0.12251 2.6778,-0.18164 z m 269.0273,0 c 0.8948,0.0591 1.7844,0.1217 2.6778,0.18164 -0.8936,-0.0599 -1.7828,-0.12251 -2.6778,-0.18164 z m -281.6992,0.86914 c -1.2224,0.0867 -2.439,0.17548 -3.6582,0.26368 1.2194,-0.0882 2.4357,-0.17698 3.6582,-0.26368 z m 294.3711,0 c 1.2224,0.0867 2.439,0.17548 3.6582,0.26368 -1.2194,-0.0882 -2.4357,-0.17698 -3.6582,-0.26368 z m -307.248,0.94532 c -1.1481,0.0872 -2.2926,0.17713 -3.4375,0.26562 1.1451,-0.0885 2.2892,-0.17843 3.4375,-0.26562 z m 320.125,0 c 1.1481,0.0872 2.2926,0.17713 3.4375,0.26562 -1.1451,-0.0885 -2.2892,-0.17843 -3.4375,-0.26562 z m -333.1016,1.02148 c -0.9815,0.0796 -1.9628,0.15772 -2.9414,0.23828 0.9789,-0.0806 1.9596,-0.15864 2.9414,-0.23828 z m 346.0781,0 c 0.9815,0.0796 1.9628,0.15772 2.9414,0.23828 -0.9789,-0.0806 -1.9596,-0.15864 -2.9414,-0.23828 z M 356.14741,9.2793 c -1.3122,0.11295 -2.6271,0.22523 -3.9336,0.33984 1.3072,-0.11467 2.6207,-0.22684 3.9336,-0.33984 z m 370.1485,0 c 1.3122,0.11295 2.6271,0.22523 3.9336,0.33984 -1.3072,-0.11467 -2.6207,-0.22684 -3.9336,-0.33984 z m -382.6563,1.10937 c -1.1473,0.10488 -2.301,0.20832 -3.4433,0.31446 1.1422,-0.10613 2.2961,-0.20957 3.4433,-0.31446 z m 395.1641,0 c 1.1473,0.10488 2.301,0.20832 3.4433,0.31446 -1.1422,-0.10613 -2.2961,-0.20957 -3.4433,-0.31446 z m -407.7227,1.1836 c -1.019,0.0989 -2.0498,0.19506 -3.06442,0.29492 1.01512,-0.0999 2.04482,-0.19601 3.06442,-0.29492 z m 420.2813,0 c 1.019,0.0989 2.0498,0.19506 3.0644,0.29492 -1.0151,-0.0999 -2.0448,-0.19601 -3.0644,-0.29492 z m -458.37502,4.04297 c -0.6448,0.0749 -1.27762,0.15322 -1.91992,0.22851 0.6425,-0.0753 1.27482,-0.15359 1.91992,-0.22851 z m 496.46872,0 c 0.6448,0.0749 1.2777,0.15322 1.92,0.22851 -0.6425,-0.0753 -1.2749,-0.15359 -1.92,-0.22851 z m -507.30466,1.29492 c -1.1205,0.1372 -2.22609,0.27566 -3.33789,0.41406 1.1122,-0.13845 2.21699,-0.2768 3.33789,-0.41406 z m 518.14066,0 c 1.1205,0.1372 2.2261,0.27566 3.3379,0.41406 -1.1122,-0.13845 -2.217,-0.2768 -3.3379,-0.41406 z m -528.83792,1.34766 c -1.192,0.15396 -2.37389,0.30951 -3.55469,0.46484 1.1812,-0.15538 2.36229,-0.31083 3.55469,-0.46484 z m 539.53512,0 c 1.192,0.15396 2.3739,0.30951 3.5547,0.46484 -1.1812,-0.15538 -2.3623,-0.31083 -3.5547,-0.46484 z m -550.03708,1.39453 c -1.15319,0.15729 -2.30185,0.31408 -3.44335,0.47265 1.141,-0.15851 2.29066,-0.31543 3.44335,-0.47265 z m 560.53908,0 c 1.1532,0.15729 2.3018,0.31408 3.4433,0.47265 -1.141,-0.15851 -2.2906,-0.31543 -3.4433,-0.47265 z M 250.1787,21.16407 c -0.8667,0.12531 -1.73836,0.2509 -2.59766,0.37695 0.8595,-0.12609 1.73066,-0.25161 2.59766,-0.37695 z m 582.08591,0 c 0.8667,0.12531 1.7384,0.2509 2.5977,0.37695 -0.8595,-0.12609 -1.7307,-0.25161 -2.5977,-0.37695 z m -591.75388,1.4375 c -1.004,0.15341 -2.02087,0.30652 -3.01367,0.46093 0.9938,-0.15458 2.00857,-0.30735 3.01367,-0.46093 z m 601.42188,0 c 1.004,0.15341 2.0209,0.30652 3.0137,0.46093 -0.9938,-0.15458 -2.0086,-0.30735 -3.0137,-0.46093 z m -612.26368,1.70898 c -0.4208,0.0687 -0.85494,0.1362 -1.27344,0.20508 0.4181,-0.0688 0.85304,-0.13646 1.27344,-0.20508 z m 623.10548,0 c 0.4208,0.0687 0.8549,0.1362 1.2734,0.20508 -0.4181,-0.0688 -0.853,-0.13646 -1.2734,-0.20508 z m -649.63087,4.75391 c -8.8626,1.75122 -16.99768,3.54377 -24.23828,5.37109 -4.6286,19.60983 -8.42296,42.94443 -9.78516,68.37305 -3.5665,66.57402 13.07729,311.46975 22.58789,412.51955 9.5106,101.0499 49.92951,374.4797 60.62891,457.6972 10.6994,83.21755 46.36478,105.80525 74.89649,117.69345 27.01672,11.257 108.52442,12.9077 213.98832,12.043 105.4639,0.8647 186.9715,-0.786 213.9882,-12.043 28.5317,-11.8882 64.1971,-34.4759 74.8965,-117.69345 10.6994,-83.2175 51.1183,-356.6473 60.6289,-457.6972 9.5106,-101.0498 26.1544,-345.94553 22.5879,-412.51955 -1.3622,-25.42862 -5.1565,-48.76322 -9.7851,-68.37305 -7.2406,-1.82732 -15.3757,-3.61987 -24.2383,-5.37109 11.3836,37.91679 18.036,93.06382 15.0019,143.88476 -1.8212,30.50638 -8.5397,97.03863 -17.1211,175.94923 -115.8221,0 -243.3483,0.036 -335.9589,0.2676 -92.6106,-0.2316 -220.13693,-0.2676 -335.95903,-0.2676 -8.5814,-78.9106 -15.29989,-145.44285 -17.12109,-175.94923 -3.0341,-50.82094 3.61835,-105.96797 15.00195,-143.88476 z"
     id="path2043" />
  <path
     style="fill:#c5c5c5;fill-opacity:1;stroke:none;stroke-width:1px;stroke-linecap:butt;stroke-linejoin:miter;stroke-opacity:1"
     d="m 203.14354,29.06836 c -2.0133,0.39868 -3.98267,0.80054 -5.92187,1.20313 -0.9556,0.1988 -1.9392,0.39589 -2.875,0.5957 -1.8883,0.40219 -3.68744,0.80876 -5.49414,1.21484 -3.284,0.74051 -6.46985,1.48583 -9.46875,2.23829 -0.1546,0.0387 -0.32472,0.0764 -0.47852,0.11523 -4.6286,19.60983 -8.42296,42.94443 -9.78516,68.37305 -3.5665,66.57402 13.07729,311.46975 22.58789,412.51955 5.6492,60.0227 22.17023,180.5561 36.92383,286.2285 21.2876,71.5762 45.61197,115.8536 76.01367,135.8047 35.47242,23.2787 147.39942,32.0738 236.57622,32.1933 89.1768,-0.1195 201.1037,-8.9146 236.5761,-32.1933 30.4017,-19.9511 54.7261,-64.2285 76.0137,-135.8047 14.7536,-105.6724 31.2746,-226.2058 36.9238,-286.2285 9.5106,-101.0498 26.1544,-345.94553 22.5879,-412.51955 -1.3622,-25.42862 -5.1565,-48.76322 -9.7851,-68.37305 -0.1538,-0.0388 -0.324,-0.0765 -0.4786,-0.11523 -2.9989,-0.75246 -6.1847,-1.49778 -9.4687,-2.23829 -1.8067,-0.40608 -3.6058,-0.81265 -5.4941,-1.21484 -0.9358,-0.19981 -1.9194,-0.3969 -2.875,-0.5957 -1.9392,-0.40259 -3.9086,-0.80445 -5.9219,-1.20313 1.2123,4.03837 2.3697,8.28236 3.4687,12.68555 2.3579,7.59422 3.8043,15.1835 4.791,22.43359 6.0513,33.10358 8.9343,72.04547 6.7422,108.76172 -1.6085,26.94404 -7.0426,82.03288 -14.2011,148.89063 -0.022,0.2996 -0.043,0.6009 -0.064,0.9004 -8.3218,111.7492 -38.0415,364.9679 -46.3633,418.4648 -8.3217,53.497 -14.2661,147.4139 -99.8613,158.1133 -57.7993,7.225 -140.5846,7.9293 -192.5898,7.6348 -52.0052,0.2945 -134.7906,-0.4098 -192.5899,-7.6348 -85.59519,-10.6994 -91.53962,-104.6163 -99.86132,-158.1133 -8.3218,-53.4969 -38.04148,-306.7156 -46.36328,-418.4648 -0.021,-0.2995 -0.0424,-0.6008 -0.0644,-0.9004 -7.1585,-66.85775 -12.59267,-121.94659 -14.20117,-148.89063 -2.1921,-36.71625 0.69089,-75.65814 6.74219,-108.76172 0.9867,-7.25009 2.43311,-14.83937 4.79101,-22.43359 1.099,-4.40319 2.25645,-8.64718 3.46875,-12.68555 z"
     id="path2064" />
  <path
     style="fill:#2d2d2d;fill-opacity:1;stroke:none;stroke-width:1px;stroke-linecap:butt;stroke-linejoin:miter;stroke-opacity:1"
     d="m 188.62206,180.22071 c 0.063,0.88963 0.13442,1.84332 0.20312,2.77539 -0.069,-0.93399 -0.14012,-1.88395 -0.20312,-2.77539 z m 705.19925,0 c -0.063,0.88963 -0.1345,1.84332 -0.2032,2.77539 0.069,-0.93399 0.1402,-1.88395 0.2032,-2.77539 z m -704.62894,7.56054 c 0.3401,4.36398 0.71766,9.00159 1.16016,14.11328 -0.4424,-5.11234 -0.82006,-9.74816 -1.16016,-14.11328 z m 704.05864,0 c -0.3401,4.36398 -0.7177,9.00159 -1.1602,14.11328 0.4424,-5.11234 0.8201,-9.74816 1.1602,-14.11328 z m -702.76177,15.67188 c 0.3789,4.34224 0.81056,9.06696 1.25586,13.89062 -0.4435,-4.80707 -0.87826,-9.56193 -1.25586,-13.89062 z m 701.46487,0 c -0.3789,4.34224 -0.8106,9.06696 -1.2559,13.89062 0.4435,-4.80707 0.8783,-9.56193 1.2559,-13.89062 z m -698.52346,31.65234 c 0.2401,2.48055 0.45063,4.75052 0.70313,7.32031 -0.2524,-2.56919 -0.46323,-4.84048 -0.70313,-7.32031 z m 695.58206,0 c -0.2401,2.48055 -0.4507,4.75052 -0.7032,7.32031 0.2524,-2.56919 0.4633,-4.84048 0.7032,-7.32031 z M 196.85643,269.5293 c 0.3552,3.47325 0.73858,7.13805 1.10938,10.7207 -0.3704,-3.58033 -0.75448,-7.24991 -1.10938,-10.7207 z m 688.73048,0 c -0.3552,3.47325 -0.7386,7.13805 -1.1094,10.7207 0.3704,-3.58033 0.7545,-7.24991 1.1094,-10.7207 z m -685.57228,30.34961 c 0.4924,4.67256 0.99141,9.3895 1.50391,14.20117 -0.5127,-4.81437 -1.01141,-9.52666 -1.50391,-14.20117 z m 682.41408,0 c -0.4924,4.67256 -0.9914,9.3895 -1.5039,14.20117 0.5127,-4.81437 1.0114,-9.52666 1.5039,-14.20117 z m -678.99806,32.03324 c 0.6025,5.5923 1.19311,11.1037 1.81641,16.8359 -0.6233,-5.7326 -1.21401,-11.2442 -1.81641,-16.8359 z m 675.58206,0 c -0.6025,5.5923 -1.1931,11.1037 -1.8164,16.8359 0.6233,-5.7326 1.214,-11.2442 1.8164,-16.8359 z m -673.75003,16.9863 c 13.824,127.1216 32.50521,286.5296 43.50781,380.418 17.8323,152.1692 55.28071,152.1691 87.37892,165.2461 28.7132,11.6978 120.3605,15.1312 205.0723,15.8671 84.7118,-0.7359 176.359,-4.1693 205.0722,-15.8671 32.0982,-13.077 69.5466,-13.0769 87.3789,-165.2461 11.0026,-93.8884 29.6838,-253.2964 43.5078,-380.418 -115.8221,0 -243.3483,0.036 -335.9589,0.2676 -92.6106,-0.2316 -220.13693,-0.2676 -335.95903,-0.2676 z"
     id="path2072" />
  <path
     id="path2076"
     d="m 541.22171,0 c -124.2098,1.66945 -260.31496,13.69537 -338.07426,29.05274 -11.3858,37.91715 -18.04026,93.07032 -15.00586,143.89648 1.8212,30.50638 8.53969,97.03864 17.12109,175.94923 115.8221,0 243.34843,0.037 335.95903,0.2676 92.6106,-0.2309 220.1368,-0.265 335.9589,-0.2676 8.5814,-78.91059 15.2999,-145.44285 17.1211,-175.94923 3.0344,-50.82616 -3.62,-105.97933 -15.0058,-143.89648 C 801.53661,13.69537 665.43151,1.66945 541.22171,0 Z"
     style="fill:#eac311;fill-opacity:1;stroke:none;stroke-width:1px;stroke-linecap:butt;stroke-linejoin:miter;stroke-opacity:1" />
  <path
     id="path2119"
     d="m 975.14211,620.53975 c 11.2938,-28.5317 29.12619,-35.0702 28.53179,2.3777 -0.5945,37.4479 -10.69939,187.2394 -11.88829,228.2537 -1.1888,41.0144 -1.7832,128.9872 -2.3776,140.8754 -0.5944,11.88825 -4.7553,19.02115 -16.6435,37.44795 -11.8882,18.4266 -63.602,93.9168 -74.8958,105.2107 -11.2938,11.2938 -21.9932,8.9161 -20.21,-20.2099 1.7833,-29.1262 21.9932,-171.78485 37.4479,-250.24705 15.4547,-78.4622 51.1194,-217.5544 60.0355,-243.7085 z"
     style="fill:#363636;fill-opacity:1;stroke:none;stroke-width:1px;stroke-linecap:butt;stroke-linejoin:miter;stroke-opacity:1" />
  <path
     id="path2121"
     d="m 975.14211,641.93855 c 14.2659,-32.0982 19.0212,-40.4199 17.8324,5.3497 -1.1889,45.7697 -8.9162,171.7848 -10.105,227.6594 -1.1889,55.8746 -2.9721,86.784 -3.5665,106.3995 -0.5944,19.61565 -5.3497,29.72065 -18.4267,47.55295 -13.0771,17.8323 -51.1194,70.7348 -60.6299,83.8118 -9.5106,13.0771 -16.6435,14.8604 -12.4827,-17.2379 4.1609,-32.0981 26.1541,-160.49085 32.6926,-199.72195 6.5385,-39.2312 43.392,-221.7153 54.6858,-253.8135 z"
     style="fill:#747474;fill-opacity:1;stroke:none;stroke-width:1px;stroke-linecap:butt;stroke-linejoin:miter;stroke-opacity:1" />
  <g
     transform="translate(-671.37599,-681.81445)"
     id="g2131">
    <path
       style="fill:#b6b6b6;fill-opacity:1;stroke:none;stroke-width:1px;stroke-linecap:butt;stroke-linejoin:miter;stroke-opacity:1"
       d="m 1629.9698,1478.9412 c 17.2328,0 21.4359,10.0875 21.8562,20.5953 0.4203,10.5078 -9.2469,20.175 -22.2765,21.0156 -13.0297,0.8406 -20.175,-8.8266 -19.7547,-21.0156 0.4203,-12.1891 10.9281,-20.175 20.175,-20.5953 z"
       id="path2123" />
    <path
       style="fill:#e64141;fill-opacity:1;stroke:none;stroke-width:1px;stroke-linecap:butt;stroke-linejoin:miter;stroke-opacity:1"
       d="m 1629.5495,1484.8256 c 10.9341,-0.2144 15.9718,9.6496 15.9718,14.7109 0,7.1453 -7.5656,15.5515 -16.8124,15.9718 -9.2469,0.4204 -13.45,-9.2468 -13.0297,-15.5515 0.4203,-6.3047 3.3645,-14.9252 13.8703,-15.1312 z"
       id="path2125" />
  </g>
  <path
     style="fill:#d7d7d7;fill-opacity:1;stroke:none;stroke-width:1.36645305px;stroke-linecap:butt;stroke-linejoin:miter;stroke-opacity:1"
     d="m 978.78201,900.65585 c 0.1878,23.2591 -14.9816,27.7837 -29.5128,28.4683 -14.5311,0.6847 -25.0671,-10.5738 -26.3719,-28.1506 -1.3048,-17.5767 11.5699,-28.5897 28.4358,-28.1585 16.8661,0.4311 26.7668,15.365 27.4489,27.8408 z"
     id="path2127" />
  <path
     id="path2139"
     d="m 906.47511,991.31085 c 1.6813,-24.3781 15.1312,-36.1468 35.7265,-36.1468 20.5953,0 34.4656,13.0297 34.0453,32.7843 -0.4203,19.75475 -11.7687,39.50945 -33.625,39.50945 -21.8562,0 -37.828,-13.0298 -36.1468,-36.14695 z"
     style="fill:#b6b6b6;fill-opacity:1;stroke:none;stroke-width:1px;stroke-linecap:butt;stroke-linejoin:miter;stroke-opacity:1" />
  <path
     id="path2141"
     d="m 967.85391,988.31255 c 0.1878,21.69775 -11.1988,24.65765 -25.73,25.29635 -14.5311,0.6387 -23.8062,-6.5016 -25.111,-22.89845 -1.3048,-16.3968 8.2074,-26.2502 25.0733,-25.8479 16.8661,0.4021 25.0856,11.8117 25.7677,23.45 z"
     style="fill:#d7d7d7;fill-opacity:1;stroke:none;stroke-width:1.31979167px;stroke-linecap:butt;stroke-linejoin:miter;stroke-opacity:1" />
  <path
     id="path2154"
     d="m 1037.5244,940.83205 c -2.386,0.4182 -6.3227,7.8439 -11.6816,18.1152 -9.6399,18.4764 -110.57889,157.40985 -143.73249,210.05865 60.4906,-1.1638 110.9059,-2.3825 122.75199,-3.3906 27.9373,-2.3776 24.9647,1.783 26.748,10.6992 0.6609,3.3043 2.1422,5.1349 4.6778,5.9844 3.0132,-41.278 3.094,-197.79525 3.8457,-223.35165 0.394,-13.3974 -0.5041,-18.4843 -2.6094,-18.1152 z"
     style="fill:#ebc300;fill-opacity:1;stroke:none;stroke-width:1px;stroke-linecap:butt;stroke-linejoin:miter;stroke-opacity:1" />
  <path
     id="path2159"
     d="m 1069.1631,417.64845 c -3.1841,0.076 -6.1968,5.0816 -8.4258,20.4062 -4.7553,32.6926 -12.4823,149.7923 -14.2656,192.5899 -1.7832,42.7976 -5.9454,228.8491 -5.9454,257.3808 -0.5944,45.1752 -1.1869,50.5242 5.3516,41.0137 5.0477,-7.3422 24.9314,-62.0516 35.6699,-94.3223 0.7768,-82.1162 1.2143,-157.8362 0.6172,-196.0468 -0.8578,-54.903 -2.1601,-136.0651 -6.1269,-215.5762 -2.2301,-3.0214 -4.5962,-5.4998 -6.875,-5.4453 z"
     style="fill:#1c1c1c;fill-opacity:1;stroke:none;stroke-width:1px;stroke-linecap:butt;stroke-linejoin:miter;stroke-opacity:1" />
  <path
     id="path2164"
     d="m 1075.4463,840.18165 c -1.0414,0.09 -2.5231,1.4605 -4.6035,4.4512 -7.9044,11.3624 -23.4824,58.0514 -30.6094,78.75 0.2571,11.7384 1.5605,11.5966 5.6445,5.6562 4.4873,-6.527 20.6652,-50.4076 31.7539,-82.7597 -0.1621,-3.8594 -0.746,-6.2225 -2.1855,-6.0977 z"
     style="fill:#d3d3d3;fill-opacity:1;stroke:none;stroke-width:1px;stroke-linecap:butt;stroke-linejoin:miter;stroke-opacity:1" />
  <path
     id="path2169"
     d="m 1078.9873,1060.0157 c -20.4735,12.3488 -34.8402,85.5423 -39.584,122.8379 4.4566,0.2824 10.9731,-0.8997 20.1445,-2.3789 18.4267,-2.9721 19.0222,-6.5375 18.4278,-18.4258 -0.1805,-3.6096 0.3161,-45.413 1.0117,-102.0332 z"
     style="fill:#ebc300;fill-opacity:1;stroke:none;stroke-width:1px;stroke-linecap:butt;stroke-linejoin:miter;stroke-opacity:1" />
  <path
     id="path2176"
     d="m 1057.3671,344.87105 c -0.8406,-5.464 3.7828,-9.2468 4.6234,0 0.8407,9.2469 -2.9422,10.5078 -4.6234,0 z"
     style="fill:#e4e4e4;fill-opacity:1;stroke:none;stroke-width:1px;stroke-linecap:butt;stroke-linejoin:miter;stroke-opacity:1" />
  <path
     id="path2203"
     d="m 1056.1107,949.10415 c 1.3109,-30.4792 7.8656,-21.3027 7.5379,0 -0.3278,21.3028 -6.227,26.5465 -7.5379,0 z"
     style="fill:#e4e4e4;fill-opacity:1;stroke:none;stroke-width:1px;stroke-linecap:butt;stroke-linejoin:miter;stroke-opacity:1" />
  <path
     id="path2231"
     d="m 867.39781,1188.818 c 4.1463,-8.596 2.3174,-9.7332 14.8315,-9.7332 12.5141,0 98.2591,0.9269 118.18899,-1.854 19.9299,-2.7809 23.6378,-4.6348 25.4917,5.5619 1.8539,10.1967 3.2444,7.184 3.7079,17.3807 0.4635,10.1967 -3.4762,57.0088 -7.8793,75.5482 -4.4031,18.5395 -6.9523,41.482 -47.73899,50.9835 -40.7868,9.5015 -44.263,9.5015 -86.4402,12.7459 -42.1772,3.2444 -57.9358,4.1712 -67.4372,4.6348 -9.5015,0.4635 -8.8063,-0.2317 -5.7936,-7.4158 3.0127,-7.184 47.7019,-136.7245 53.0692,-147.852 z"
     style="fill:#deb900;fill-opacity:1;stroke:none;stroke-width:1px;stroke-linecap:butt;stroke-linejoin:miter;stroke-opacity:1" />
  <path
     style="fill:#343434;fill-opacity:1;stroke:none;stroke-width:1px;stroke-linecap:butt;stroke-linejoin:miter;stroke-opacity:1"
     d="m 55.828605,1186.8754 c -2.458,6.2269 -7.7018,7.8656 -11.9623,6.8824 -4.2605,-0.9832 -4.0967,8.5211 -4.0967,8.5211 l 26.9603,138.099 138.118805,21.7839 63.4976,-2.7809 c 0,0 7.7196,0.8658 5.2616,-5.0334 -2.458,-5.8992 -3.2773,-11.4707 -4.0966,-14.4203 -0.8194,-2.9496 -25.891,-6.5547 -25.891,-6.5547 l -139.2871,-14.2564 -36.378405,-48.8324 z"
     id="path2481" />
  <path
     style="fill:#a94c92;fill-opacity:1;stroke:none;stroke-width:1px;stroke-linecap:butt;stroke-linejoin:miter;stroke-opacity:1"
     d="m 19.450105,949.43165 35.3945,58.33795 5.9004,65.5469 -3.2774,72.7558 v 19.5 c -6.2697,1.396 -5.5111,5.1241 -6.6347,10.7422 -1.7443,8.7215 -9.2468,7.1937 -26.8164,4.3418 l -9.1543,-64.0801 z"
     id="path2483" />
  <path
     style="fill:#b661b6;fill-opacity:1;stroke:none;stroke-width:1px;stroke-linecap:butt;stroke-linejoin:miter;stroke-opacity:1"
     d="m 22.727405,955.33205 c 3.2774,84.55545 5.2441,181.56445 5.2441,194.67385 0,5.3262 -10.9649,-15.3107 -23.9413995,-41.5703 -0.3893,-33.6687 -0.9555,-79.374 -1.582,-131.73445 z"
     id="path2485" />
  <path
     style="fill:#513960;fill-opacity:1;stroke:none;stroke-width:1px;stroke-linecap:butt;stroke-linejoin:miter;stroke-opacity:1"
     d="m 1.8133055,922.13865 20.2578995,30.5703 c -6.5547,63.58045 -12.4531995,139.61495 -12.4531995,147.48055 0,2.0587 -2.3161,1.0692 -5.6972,-1.4551 -0.5362,-45.2103 -1.3407,-108.68605 -2.1075,-176.59575 z"
     id="path2487" />
  <path
     style="fill:#47324e;fill-opacity:1;stroke:none;stroke-width:1px;stroke-linecap:butt;stroke-linejoin:miter;stroke-opacity:1"
     d="m 6.0126055,823.59175 19.4667995,122.8223 c -10.7817,14.1188 -17.9293995,24.1443 -23.0195995,31.2461 -0.5933,-49.5513 -1.1936,-102.3277 -1.66010001,-153.2793 z"
     id="path2489" />
  <path
     style="fill:#6b4c7e;fill-opacity:1;stroke:none;stroke-width:1px;stroke-linecap:butt;stroke-linejoin:miter;stroke-opacity:1"
     d="m 21.771705,943.17035 c -5.0983,-33.371 -18.0758995,-101.04 -18.0758995,-114.9446 0,-13.9046 41.7136995,63.0341 41.7136995,63.0341 z"
     id="path2491" />
  <path
     style="fill:#cba3d8;fill-opacity:1;stroke:none;stroke-width:1px;stroke-linecap:butt;stroke-linejoin:miter;stroke-opacity:1"
     d="m 22.235205,956.14795 c 5.5619,38.4693 14.8316,95.47815 26.4187,104.74785 11.5872,9.2698 6.4888,-112.62715 6.4888,-112.62715 l -31.9805,1.854 z"
     id="path2493" />
  <path
     style="fill:#b661b6;fill-opacity:1;stroke:none;stroke-width:1px;stroke-linecap:butt;stroke-linejoin:miter;stroke-opacity:1"
     d="m 23.382905,952.70925 c 21.6305,13.7649 29.4961,28.1852 32.118,31.7902 2.6218,3.6051 36.3785,72.75705 53.092905,71.77385 16.7144,-0.9832 24.5801,-42.6054 26.2188,-47.5215 1.6386,-4.9161 -39.810105,-359.89515 -39.810105,-359.89515 l -33.3709,7.4158 -45.4217,101.04 3.7079,117.7254 c 0,0 6.9523,11.5872 6.4888,19.9299 -0.4635,8.3428 -6.0253,40.7868 -5.5618,44.4947 0.4635,3.7079 2.5381,13.2468 2.5381,13.2468 z"
     id="path2495" />
  <path
     style="fill:#865393;fill-opacity:1;stroke:none;stroke-width:1px;stroke-linecap:butt;stroke-linejoin:miter;stroke-opacity:1"
     d="m 91.294705,645.61225 c -23.1743,39.8598 -53.7644,116.7985 -58.3993,150.633 -4.6348,33.8345 -13.9046,-146.9251 -13.9046,-146.9251 l 66.742,-45.4216 z"
     id="path2497" />
  <path
     style="fill:#363636;fill-opacity:1;stroke:none;stroke-width:1px;stroke-linecap:butt;stroke-linejoin:miter;stroke-opacity:1"
     d="m 107.30111,620.53975 c -11.293805,-28.5317 -29.126205,-35.0702 -28.531805,2.3777 0.5945,37.4479 10.6994,187.2394 11.8883,228.2537 1.1888,41.0144 1.7832,128.9872 2.3776,140.8754 0.5944,11.88825 4.7553,19.02115 16.643505,37.44795 11.8882,18.4266 63.602,93.9168 74.8958,105.2107 11.2938,11.2938 21.9932,8.9161 20.21,-20.2099 -1.7833,-29.1262 -21.9932,-171.78485 -37.4479,-250.24705 -15.4547,-78.4622 -51.1194,-217.5544 -60.0355,-243.7085 z"
     id="path2525" />
  <path
     style="fill:#747474;fill-opacity:1;stroke:none;stroke-width:1px;stroke-linecap:butt;stroke-linejoin:miter;stroke-opacity:1"
     d="m 107.30111,641.93855 c -14.265905,-32.0982 -19.021205,-40.4199 -17.832405,5.3497 1.1889,45.7697 8.9162,171.7848 10.105,227.6594 1.188905,55.8746 2.972105,86.784 3.566505,106.3995 0.5944,19.61565 5.3497,29.72065 18.4267,47.55295 13.0771,17.8323 51.1194,70.7348 60.6299,83.8118 9.5106,13.0771 16.6435,14.8604 12.4827,-17.2379 -4.1609,-32.0981 -26.1541,-160.49085 -32.6926,-199.72195 -6.5385,-39.2312 -43.392,-221.7153 -54.6858,-253.8135 z"
     id="path2527" />
  <g
     transform="matrix(-1,0,0,1,1753.8192,-681.81445)"
     id="g2533">
    <path
       id="path2529"
       d="m 1629.9698,1478.9412 c 17.2328,0 21.4359,10.0875 21.8562,20.5953 0.4203,10.5078 -9.2469,20.175 -22.2765,21.0156 -13.0297,0.8406 -20.175,-8.8266 -19.7547,-21.0156 0.4203,-12.1891 10.9281,-20.175 20.175,-20.5953 z"
       style="fill:#b6b6b6;fill-opacity:1;stroke:none;stroke-width:1px;stroke-linecap:butt;stroke-linejoin:miter;stroke-opacity:1" />
    <path
       id="path2531"
       d="m 1629.5495,1484.8256 c 10.9341,-0.2144 15.9718,9.6496 15.9718,14.7109 0,7.1453 -7.5656,15.5515 -16.8124,15.9718 -9.2469,0.4204 -13.45,-9.2468 -13.0297,-15.5515 0.4203,-6.3047 3.3645,-14.9252 13.8703,-15.1312 z"
       style="fill:#e64141;fill-opacity:1;stroke:none;stroke-width:1px;stroke-linecap:butt;stroke-linejoin:miter;stroke-opacity:1" />
  </g>
  <path
     id="path2535"
     d="m 103.66121,900.65585 c -0.1878,23.2591 14.9816,27.7837 29.5128,28.4683 14.5311,0.6847 25.0671,-10.5738 26.3719,-28.1506 1.3048,-17.5767 -11.5699,-28.5897 -28.4358,-28.1585 -16.8661,0.4311 -26.7668,15.365 -27.4489,27.8408 z"
     style="fill:#d7d7d7;fill-opacity:1;stroke:none;stroke-width:1.36645305px;stroke-linecap:butt;stroke-linejoin:miter;stroke-opacity:1" />
  <path
     style="fill:#b6b6b6;fill-opacity:1;stroke:none;stroke-width:1px;stroke-linecap:butt;stroke-linejoin:miter;stroke-opacity:1"
     d="m 175.96811,991.31085 c -1.6813,-24.3781 -15.1312,-36.1468 -35.7265,-36.1468 -20.5953,0 -34.4656,13.0297 -34.0453,32.7843 0.4203,19.75475 11.7687,39.50945 33.625,39.50945 21.8562,0 37.828,-13.0298 36.1468,-36.14695 z"
     id="path2537" />
  <path
     style="fill:#d7d7d7;fill-opacity:1;stroke:none;stroke-width:1.31979167px;stroke-linecap:butt;stroke-linejoin:miter;stroke-opacity:1"
     d="m 114.58931,988.31255 c -0.1878,21.69775 11.1988,24.65765 25.73,25.29635 14.5311,0.6387 23.8062,-6.5016 25.111,-22.89845 1.3048,-16.3968 -8.2074,-26.2502 -25.0733,-25.8479 -16.8661,0.4021 -25.0856,11.8117 -25.7677,23.45 z"
     id="path2539" />
  <path
     style="fill:#ebc300;fill-opacity:1;stroke:none;stroke-width:1px;stroke-linecap:butt;stroke-linejoin:miter;stroke-opacity:1"
     d="m 44.918805,940.83205 c 2.386,0.4182 6.3227,7.8439 11.6816,18.1152 9.6399,18.4764 110.578905,157.40985 143.732505,210.05865 -60.4906,-1.1638 -110.905905,-2.3825 -122.752005,-3.3906 -27.9373,-2.3776 -24.9647,1.783 -26.748,10.6992 -0.6609,3.3043 -2.1422,5.1349 -4.6778,5.9844 -3.0132,-41.278 -3.094,-197.79525 -3.8457,-223.35165 -0.394,-13.3974 0.5041,-18.4843 2.6094,-18.1152 z"
     id="path2541" />
  <path
     style="fill:#1c1c1c;fill-opacity:1;stroke:none;stroke-width:1px;stroke-linecap:butt;stroke-linejoin:miter;stroke-opacity:1"
     d="m 13.280105,417.64845 c 3.1841,0.076 6.1968,5.0816 8.4258,20.4062 4.7553,32.6926 12.4823,149.7923 14.2656,192.5899 1.7832,42.7976 5.9454,228.8491 5.9454,257.3808 0.5944,45.1752 1.1869,50.5242 -5.3516,41.0137 -5.0477,-7.3422 -24.9314,-62.0516 -35.66989951,-94.3223 -0.7768,-82.1162 -1.2143,-157.8362 -0.6172,-196.0468 0.85780001,-54.903 2.16010001,-136.0651 6.12690001,-215.5762 2.2301,-3.0214 4.5961995,-5.4998 6.8749995,-5.4453 z"
     id="path2543" />
  <path
     style="fill:#d3d3d3;fill-opacity:1;stroke:none;stroke-width:1px;stroke-linecap:butt;stroke-linejoin:miter;stroke-opacity:1"
     d="m 6.9969055,840.18165 c 1.0414,0.09 2.5231,1.4605 4.6034995,4.4512 7.9044,11.3624 23.4824,58.0514 30.6094,78.75 -0.2571,11.7384 -1.5605,11.5966 -5.6445,5.6562 -4.4873,-6.527 -20.6652,-50.4076 -31.7538995,-82.7597 0.1621,-3.8594 0.746,-6.2225 2.1855,-6.0977 z"
     id="path2545" />
  <path
     style="fill:#ebc300;fill-opacity:1;stroke:none;stroke-width:1px;stroke-linecap:butt;stroke-linejoin:miter;stroke-opacity:1"
     d="m 3.4559055,1060.0157 c 20.4734995,12.3488 34.8401995,85.5423 39.5839995,122.8379 -4.4566,0.2824 -10.9731,-0.8997 -20.1445,-2.3789 -18.4266995,-2.9721 -19.0221995,-6.5375 -18.4277995,-18.4258 0.1805,-3.6096 -0.3161,-45.413 -1.0117,-102.0332 z"
     id="path2547" />
  <path
     style="fill:#e4e4e4;fill-opacity:1;stroke:none;stroke-width:1px;stroke-linecap:butt;stroke-linejoin:miter;stroke-opacity:1"
     d="m 25.076105,344.87105 c 0.8406,-5.464 -3.7828,-9.2468 -4.6234,0 -0.8407,9.2469 2.9422,10.5078 4.6234,0 z"
     id="path2549" />
  <path
     style="fill:#e4e4e4;fill-opacity:1;stroke:none;stroke-width:1px;stroke-linecap:butt;stroke-linejoin:miter;stroke-opacity:1"
     d="m 26.332505,949.10415 c -1.3109,-30.4792 -7.8656,-21.3027 -7.5379,0 0.3278,21.3028 6.227,26.5465 7.5379,0 z"
     id="path2551" />
  <path
     id="path2233"
     d="m 8.9169755,1186.4864 c -2.3899,0.068 -3.51199,1.6072 -3.36719,8.125 0.2318,10.4284 7.4156395,90.3808 9.9648395,111.7012 2.5492,21.3204 10.42926,134.6423 28.96876,186.5527 18.5394,51.9105 46.34863,73.2311 97.332035,78.793 50.4198,5.5002 230.46329,11.898 399.40629,12.9355 168.943,-1.0375 348.9864,-7.4353 399.4062,-12.9355 50.9834,-5.5619 78.79259,-26.8825 97.33199,-78.793 18.5395,-51.9104 26.4196,-165.2323 28.9688,-186.5527 2.5492,-21.3204 9.733,-101.2728 9.9648,-111.7012 0.1448,-6.5178 -0.9773,-8.0571 -3.3672,-8.125 -1.4339,-0.041 -3.3235,0.4483 -5.6699,0.709 -6.2571,0.6952 -28.7361,6.2566 -32.6758,7.1836 -3.9396,0.927 -2.7819,1.8557 -3.7089,25.2617 -0.9269,23.4061 -6.489,57.2388 -12.0508,78.0957 -5.5618,20.8569 -17.6114,31.9808 -61.64259,39.3965 -44.0311,7.4158 -130.9359,12.0507 -139.0469,12.0507 -8.111,0 -7.6469,-0.4625 -11.123,7.6485 -3.3575,7.8918 -8.1134,25.2097 -21.2227,55.3613 -13.1094,30.1515 -27.4434,38.0297 -60.8144,52.8613 -29.1236,12.9439 -113.9181,15.9975 -184.3496,17.7989 -70.4315,-1.8014 -155.2261,-4.855 -184.3497,-17.7989 -33.37095,-14.8316 -47.70501,-22.7098 -60.81441,-52.8613 -13.1093,-30.1516 -17.86515,-47.4695 -21.22265,-55.3613 -3.4761,-8.111 -3.01205,-7.6485 -11.12305,-7.6485 -8.111,0 -95.01577,-4.6349 -139.04687,-12.0507 -44.031205,-7.4157 -56.080785,-18.5396 -61.642585,-39.3965 -5.5618,-20.8569 -11.12388,-54.6896 -12.05078,-78.0957 -0.927,-23.406 0.23061,-24.3347 -3.70899,-25.2617 -3.9397,-0.927 -26.41868,-6.4884 -32.67578,-7.1836 -2.3464,-0.2607 -4.23602,-0.75 -5.6699195,-0.709 z"
     style="fill:#a2a2a2;fill-opacity:1;stroke:none;stroke-width:1px;stroke-linecap:butt;stroke-linejoin:miter;stroke-opacity:1" />
  <path
     style="fill:#deb900;fill-opacity:1;stroke:none;stroke-width:1px;stroke-linecap:butt;stroke-linejoin:miter;stroke-opacity:1"
     d="m 215.04541,1188.818 c -4.1463,-8.596 -2.3174,-9.7332 -14.8315,-9.7332 -12.5141,0 -98.2591,0.9269 -118.189005,-1.854 -19.9299,-2.7809 -23.6378,-4.6348 -25.4917,5.5619 -1.8539,10.1967 -3.2444,7.184 -3.7079,17.3807 -0.4635,10.1967 3.4762,57.0088 7.8793,75.5482 4.4031,18.5395 6.9523,41.482 47.739005,50.9835 40.7868,9.5015 44.263,9.5015 86.4402,12.7459 42.1772,3.2444 57.9358,4.1712 67.4372,4.6348 9.5015,0.4635 8.8063,-0.2317 5.7936,-7.4158 -3.0127,-7.184 -47.7019,-136.7245 -53.0692,-147.852 z"
     id="path2553" />
  <path
     id="path2074"
     d="m 255.90331,385.74805 c -22.5876,0 -21.39909,7.1331 -19.02149,29.7207 2.3777,22.5876 40.41993,322.1702 43.98633,344.7578 3.5665,22.5876 4.7555,28.5306 26.1543,27.3418 19.6478,-1.092 144.74106,-0.1952 234.19926,-0.039 89.4582,-0.1562 214.5514,-1.053 234.1992,0.039 21.3988,1.1888 22.5878,-4.7542 26.1543,-27.3418 3.5664,-22.5876 41.6086,-322.1702 43.9863,-344.7578 2.3776,-22.5876 3.5661,-29.7207 -19.0215,-29.7207 -16.5029,0 -181.1179,2.1007 -285.3183,3.4434 -104.2004,-1.3427 -268.8155,-3.4434 -285.3184,-3.4434 z"
     style="fill:#474747;fill-opacity:1;stroke:none;stroke-width:1px;stroke-linecap:butt;stroke-linejoin:miter;stroke-opacity:1" />
  <path
     id="path2881"
     d="m 682.65131,5.9043 c 1.9345,33.73327 1.5262,81.57671 0.2813,102.99023 -1.5359,26.4187 -0.9309,31.98184 -12.5449,32.44532 -11.6142,0.46349 -117.6725,-0.92834 -135.7754,-0.46485 -18.1029,0.46348 -128.4933,1.85412 -139.5899,1.39063 -11.0968,-0.46348 -12.3806,-2.31682 -13.5664,-21.7832 -0.94,-15.43458 -2.3282,-79.36661 -3.4707,-112.98829 -4.6352,0.35772 -9.2377,0.72682 -13.8144,1.10547 2.0851,40.93504 2.5602,107.47408 4.2871,120.22656 1.9456,14.36807 1.6493,19.4662 29.4316,19.92969 27.7821,0.46348 242.0474,-1.85547 262.9043,-1.85547 20.8568,0 32.0089,-0.46241 32.8926,-23.63672 0.6832,-17.91294 0.8904,-81.9589 -0.061,-116.58398 -3.6441,-0.26574 -7.303,-0.52317 -10.9747,-0.77539 z"
     style="fill:#818181;fill-opacity:1;stroke:none;stroke-width:1px;stroke-linecap:butt;stroke-linejoin:miter;stroke-opacity:1" />
  <g
     transform="matrix(1,0,0,1.0170294,-671.37599,-695.59066)"
     id="g2961">
    <path
       style="fill:#252525;fill-opacity:1;stroke:none;stroke-width:1px;stroke-linecap:butt;stroke-linejoin:miter;stroke-opacity:1"
       d="m 1151.7884,726.3724 c 28.5393,-0.98287 45.5037,19.33631 47.3829,39.65584 1.879,20.3195 -7.4702,43.30838 -41.2253,42.93317 -29.4841,-0.32774 -44.4563,-12.12616 -45.816,-37.68943 -1.3654,-25.6714 11.0964,-43.91592 39.6584,-44.89958 z"
       id="path2892" />
    <path
       style="fill:#3c3c3c;fill-opacity:1;stroke:none;stroke-width:1px;stroke-linecap:butt;stroke-linejoin:miter;stroke-opacity:1"
       d="m 1121.5821,763.7341 c 0.8069,-13.10937 1.3298,-36.37849 31.1656,-36.70623 29.8357,-0.32773 34.0928,17.69765 35.2524,30.80701 1.1594,13.10937 -11.7695,31.99089 -32.7804,32.97409 -21.011,0.9832 -32.366,-8.06629 -33.6376,-27.07487 z"
       id="path2896" />
    <path
       style="fill:#252525;fill-opacity:1;stroke:none;stroke-width:1px;stroke-linecap:butt;stroke-linejoin:miter;stroke-opacity:1"
       d="m 1151.4821,769.20941 c 9.1646,0.32774 12.6096,-4.26054 12.7893,-9.17655 0.1797,-4.91601 -2.2266,-10.81523 -8.1258,-10.81523 -5.8992,0 -11.9421,3.93281 -12.1338,9.17656 -0.1917,5.24374 -0.044,10.15976 7.4703,10.81522 z"
       id="path2900" />
  </g>
  <g
     transform="matrix(1,0,-0.02563529,1,-632.67108,-681.81445)"
     id="g2956">
    <path
       id="path2894"
       d="m 1249.0175,725.37215 c 26.7368,-0.97938 42.5841,19.26754 44.3002,39.5148 1.7159,20.24723 -7.0923,43.15435 -38.7121,42.78047 -27.619,-0.32657 -41.6187,-12.08303 -42.8367,-37.55538 -1.2231,-25.5801 10.4905,-43.75973 37.2486,-44.73989 z"
       style="fill:#252525;fill-opacity:1;stroke:none;stroke-width:0.96614397px;stroke-linecap:butt;stroke-linejoin:miter;stroke-opacity:1" />
    <path
       style="fill:#3c3c3c;fill-opacity:1;stroke:none;stroke-width:1px;stroke-linecap:butt;stroke-linejoin:miter;stroke-opacity:1"
       d="m 1220.2446,760.52888 c 0.9266,-16.3867 8.7932,-31.5346 29.4764,-32.5178 20.6832,-0.98321 31.5454,14.89228 31.6378,30.29578 0.092,15.40351 -10.9615,29.28855 -29.6783,30.27175 -18.7168,0.9832 -31.2836,-14.28489 -31.4359,-28.04973 z"
       id="path2898" />
    <path
       id="path2902"
       d="m 1242.2405,753.55434 c -0.6205,8.58454 3.5598,11.65041 8.1586,11.65033 4.5989,3e-5 10.2072,-2.4526 10.4089,-7.97116 0.2017,-5.51869 -3.2756,-11.03726 -8.1811,-11.03727 -4.9054,2e-5 -9.5155,0.30652 -10.3864,7.3581 z"
       style="fill:#252525;fill-opacity:1;stroke:none;stroke-width:0.93548381px;stroke-linecap:butt;stroke-linejoin:miter;stroke-opacity:1" />
  </g>
  <g
     transform="matrix(1,0,-0.03655308,1,-622.79503,-681.81445)"
     id="g2929">
    <path
       style="fill:#3c3c3c;fill-opacity:1;stroke:none;stroke-width:1px;stroke-linecap:butt;stroke-linejoin:miter;stroke-opacity:1"
       d="m 933.65612,831.30412 c 52.71251,0 77.74148,31.09659 78.87918,69.77771 1.1377,38.68112 -30.33816,71.67385 -72.81155,73.19075 -42.47339,1.51691 -74.70766,-26.92509 -75.08688,-68.2608 -0.37923,-41.33571 27.68354,-73.19076 69.01925,-74.70766 z"
       id="path2912" />
    <path
       style="fill:#979797;fill-opacity:1;stroke:none;stroke-width:1px;stroke-linecap:butt;stroke-linejoin:miter;stroke-opacity:1"
       d="m 937.82762,846.09396 c 33.37195,1.13768 53.09174,27.30432 53.09174,54.22942 0,26.92509 -25.02897,51.1956 -53.47097,51.95405 -28.442,0.75846 -52.71251,-22.7536 -53.09174,-51.57483 -0.37922,-28.82123 20.85747,-55.36709 53.47097,-54.60864 z"
       id="path2914" />
    <path
       style="fill:#cdccca;fill-opacity:1;stroke:none;stroke-width:1px;stroke-linecap:butt;stroke-linejoin:miter;stroke-opacity:1"
       d="m 934.03535,931.79919 c 27.30432,-0.37922 43.23184,-17.82365 42.09416,-38.30189 -1.13768,-20.47825 -10.23912,-40.95649 -37.92267,-40.57726 -27.68354,0.37923 -40.19803,25.78741 -40.19803,43.61107 0,17.82365 12.13526,34.88886 36.02654,35.26808 z"
       id="path2916" />
  </g>
  <g
     transform="translate(-669.37599,-681.81445)"
     id="g2945">
    <path
       style="fill:#3c3c3c;fill-opacity:1;stroke:none;stroke-width:1px;stroke-linecap:butt;stroke-linejoin:miter;stroke-opacity:1"
       d="m 1124.7864,843.8186 c 40.198,1.13768 58.0217,32.99272 57.6424,56.884 -0.3792,23.89128 -26.9251,52.71251 -57.6424,53.09174 -30.7174,0.37923 -56.5048,-27.68355 -56.5048,-54.98787 0,-27.30432 19.7198,-53.85019 56.5048,-54.98787 z"
       id="path2918" />
    <path
       style="fill:#cdccca;fill-opacity:1;stroke:none;stroke-width:1px;stroke-linecap:butt;stroke-linejoin:miter;stroke-opacity:1"
       d="m 1120.4724,936.72914 c 26.5598,-0.37923 46.0984,-26.54587 46.736,-43.9903 0.6377,-17.44443 -11.762,-41.33571 -40.9208,-42.47339 -29.159,-1.13768 -42.3061,26.54587 -43.4339,47.02411 -1.1278,20.47824 17.8989,39.43958 37.6187,39.43958 z"
       id="path2920" />
  </g>
  <g
     transform="translate(-651.37599,-679.81445)"
     id="g2941">
    <path
       id="path2922"
       d="m 1338.8026,896.17317 c 0,40.21414 -32.9928,58.02162 -56.884,57.6424 -23.8912,-0.37922 -52.7125,-26.92499 -53.0918,-57.64238 -0.3793,-30.71741 27.6836,-56.5048 54.9879,-56.50485 27.3042,-5e-5 54.9879,19.70219 54.9879,56.50483 z"
       style="fill:#3c3c3c;fill-opacity:1;stroke:none;stroke-width:1px;stroke-linecap:butt;stroke-linejoin:miter;stroke-opacity:1" />
    <path
       id="path2924"
       d="m 1239.8659,894.53529 c -1.1911,26.54767 24.6625,41.19536 42.114,40.95645 27.6974,-0.37919 42.6488,-15.16907 44.8537,-44.36939 2.205,-29.2006 -22.8289,-39.43971 -43.2932,-39.81897 -20.4645,-0.37927 -42.5006,17.06595 -43.6745,43.23191 z"
       style="fill:#cdccca;fill-opacity:1;stroke:none;stroke-width:1px;stroke-linecap:butt;stroke-linejoin:miter;stroke-opacity:1" />
  </g>
  <g
     transform="matrix(1,0,-0.03655308,1,-108.04212,-684.84826)"
     id="g2937">
    <path
       id="path2931"
       d="m 933.65612,831.30412 c 52.71251,0 77.74148,31.09659 78.87918,69.77771 1.1377,38.68112 -30.33816,71.67385 -72.81155,73.19075 -42.47339,1.51691 -74.70766,-26.92509 -75.08688,-68.2608 -0.37923,-41.33571 27.68354,-73.19076 69.01925,-74.70766 z"
       style="fill:#3c3c3c;fill-opacity:1;stroke:none;stroke-width:1px;stroke-linecap:butt;stroke-linejoin:miter;stroke-opacity:1" />
    <path
       id="path2933"
       d="m 938.78622,845.09899 c 36.3014,-0.53352 52.13314,28.29929 52.13314,55.22439 0,26.92509 -15.13788,49.85096 -49.52745,50.95908 -34.89914,1.12453 -54.79087,-21.77538 -57.03526,-50.57986 -2.47827,-31.80615 21.85599,-55.12488 54.42957,-55.60361 z"
       style="fill:#979797;fill-opacity:1;stroke:none;stroke-width:1px;stroke-linecap:butt;stroke-linejoin:miter;stroke-opacity:1" />
    <path
       id="path2935"
       d="m 934.03535,931.79919 c 27.30432,-0.37922 43.23184,-17.82365 42.09416,-38.30189 -1.13768,-20.47825 -10.23912,-40.95649 -37.92267,-40.57726 -27.68354,0.37923 -40.19803,25.78741 -40.19803,43.61107 0,17.82365 12.13526,34.88886 36.02654,35.26808 z"
       style="fill:#cdccca;fill-opacity:1;stroke:none;stroke-width:1px;stroke-linecap:butt;stroke-linejoin:miter;stroke-opacity:1" />
  </g>
  <path
     id="path2963"
     d="m 441.13711,1250.2658 c 0.3962,-14.263 0.7924,-15.8478 11.8858,-16.244 11.0934,-0.3961 53.4863,0.3962 87.9551,0.3962 34.4689,0 63.3911,-1.1885 80.4275,-1.5847 17.0363,-0.3962 17.4325,2.3771 18.6211,15.4515 1.1886,13.0744 -0.8802,105.1116 -0.8802,111.0545 0,5.9429 -2.7734,10.6972 -7.9239,11.4897 -5.1505,0.7923 -49.4365,0.276 -91.0368,0.6722 -41.6004,0.3962 -78.0503,1.1886 -85.9742,0.7923 -7.9239,-0.3962 -10.3011,-0.7923 -11.0934,-10.6972 -0.7924,-9.9049 -1.5848,-100.6334 -1.981,-111.3305 z"
     style="fill:#363636;fill-opacity:1;stroke:none;stroke-width:1px;stroke-linecap:butt;stroke-linejoin:miter;stroke-opacity:1" />
  <path
     id="path2965"
     d="m 489.86901,1262.1516 c 25.3564,0.3962 45.5623,20.9983 45.9585,43.9776 0.3962,22.9792 -15.0554,46.7509 -40.808,47.147 -25.7526,0.3962 -47.1471,-17.4326 -47.1471,-45.9584 0,-28.5261 15.4516,-44.77 41.9966,-45.1662 z"
     style="fill:#292929;fill-opacity:1;stroke:none;stroke-width:1px;stroke-linecap:butt;stroke-linejoin:miter;stroke-opacity:1" />
  <path
     id="path2967"
     d="m 538.20471,1306.5254 c 0,-26.1488 20.6021,-43.1852 43.1851,-43.5814 22.5831,-0.3962 43.5814,21.3945 43.9776,42.789 0.3962,21.3945 -16.244,45.1661 -43.5814,45.1661 -27.3374,0 -43.1851,-20.2059 -43.5813,-44.3737 z"
     style="fill:#131313;fill-opacity:1;stroke:none;stroke-width:1px;stroke-linecap:butt;stroke-linejoin:miter;stroke-opacity:1" />
</svg>
