<?xml version="1.0" encoding="UTF-8" standalone="no"?>
<!-- Created with Inkscape (http://www.inkscape.org/) -->

<svg
   xmlns:dc="http://purl.org/dc/elements/1.1/"
   xmlns:cc="http://creativecommons.org/ns#"
   xmlns:rdf="http://www.w3.org/1999/02/22-rdf-syntax-ns#"
   xmlns:svg="http://www.w3.org/2000/svg"
   xmlns="http://www.w3.org/2000/svg"
   xmlns:sodipodi="http://sodipodi.sourceforge.net/DTD/sodipodi-0.dtd"
   xmlns:inkscape="http://www.inkscape.org/namespaces/inkscape"
   version="1.1"
   id="svg1286"
   width="1802.2076"
   height="1665.955"
   viewBox="0 0 1802.2076 1665.955"
   sodipodi:docname="xtrap.svg"
   inkscape:version="0.92.2 5c3e80d, 2017-08-06">
  <metadata
     id="metadata1292">
    <rdf:RDF>
      <cc:Work
         rdf:about="">
        <dc:format>image/svg+xml</dc:format>
        <dc:type
           rdf:resource="http://purl.org/dc/dcmitype/StillImage" />
        <dc:title />
      </cc:Work>
    </rdf:RDF>
  </metadata>
  <defs
     id="defs1290" />
  <sodipodi:namedview
     pagecolor="#ffffff"
     bordercolor="#666666"
     borderopacity="1"
     objecttolerance="10"
     gridtolerance="10"
     guidetolerance="10"
     inkscape:pageopacity="0"
     inkscape:pageshadow="2"
     inkscape:window-width="1440"
     inkscape:window-height="856"
     id="namedview1288"
     showgrid="false"
     inkscape:zoom="0.72208081"
     inkscape:cx="610.99062"
     inkscape:cy="71.153451"
     inkscape:window-x="-1"
     inkscape:window-y="0"
     inkscape:window-maximized="0"
     inkscape:current-layer="svg1286" />
  <path
     style="fill:#1f1f1f;fill-opacity:1;stroke:none;stroke-width:1px;stroke-linecap:butt;stroke-linejoin:miter;stroke-opacity:1"
     d="m 266.38962,1665.8138 c 46.46503,0.8957 1243.69848,-2.8133 1272.86308,-1.5323 27.5749,1.2111 -6.9002,-140.6334 -6.9002,-140.6334 l -1305.86995,4.3149 c 0,0 -7.92106,136.9289 39.90707,137.8508 z"
     id="path1902"
     inkscape:connector-curvature="0"
     sodipodi:nodetypes="ssccs" />
  <path
     style="fill:#e4ba09;fill-opacity:1;stroke:none;stroke-width:1px;stroke-linecap:butt;stroke-linejoin:miter;stroke-opacity:1"
     d="m 1512.6722,15.306602 c 156.1673,11.4246 210.0695,45.4925 241.4089,87.280198 29.584,39.447 30.876,57.992 32.5232,151.6634 1.8828,107.0718 6.6616,438.36865 12.1437,815.2835 5.1575,354.5929 9.0439,450.0484 -23.0601,528.5971 -28.2244,69.0565 -26.0953,68.9025 -66.0993,67.338 -39.5367,-1.5461 -149.0827,1.0096 -175.871,-1.479 -26.7883,-2.4886 -27.9531,-1.3308 -27.9531,-28.1191 0,-26.7883 18.6354,-89.5719 -114.1414,-91.5257 -132.7768,-1.9537 -956.7129,0.5215 -1004.4802,0.2376 -47.76728,-0.2839 -98.82883,9.2956 -98.82883,63.6514 0,54.3559 0.82358,57.6551 -15.6479,57.5572 -16.47147,-0.098 -130.29155,-1.2667 -160.97366,-0.8194 -28.172656,0.4107 -43.226016,4.7102 -49.861166,-16.0466 C 43.480114,1591.5172 7.4754836,1502.7948 0.88689357,1414.6333 -5.7016864,1326.4717 26.417684,772.39756 31.359124,655.47943 36.300564,538.56139 44.536294,256.9481 47.830594,196.0233 51.124884,135.0984 87.362124,43.073502 205.95671,24.012502 324.55131,4.9516018 657.275,-1.3068982 914.23,0.22010178 c 256.9549,1.52700002 456.7876,-0.5797 598.4422,15.08650022 z"
     id="path1858"
     inkscape:connector-curvature="0"
     sodipodi:nodetypes="cssssssssssssssssssc" />
  <path
     style="fill:#764d02;fill-opacity:1;stroke:none;stroke-width:1px;stroke-linecap:butt;stroke-linejoin:miter;stroke-opacity:1"
     d="m 1659.5641,336.5496 c 0,-84.0045 -1.6472,-131.7816 -74.1217,-145.3895 -72.4744,-13.6078 -437.3175,-17.4231 -617.6801,-20.1421 -180.3627,-2.719 -575.678,8.1089 -689.33111,16.4928 -113.65315,8.3839 -114.47673,54.4991 -119.41817,133.5328 -4.94144,79.0338 30.47222,-66.5284 30.47222,-66.5284 l 184.48046,-26.9051 1220.5361,3.1355 32.9429,40.5509 z"
     id="path1862"
     inkscape:connector-curvature="0" />
  <path
     style="fill:#2a2a2a;fill-opacity:1;stroke:none;stroke-width:1px;stroke-linecap:butt;stroke-linejoin:miter;stroke-opacity:1"
     d="m 1525.3216,209.7451 c 108.7231,3.5399 130.1246,18.892 135.066,139.163 4.9415,120.2711 8.2357,533.72466 0,637.44592 -8.2358,103.72138 -19.5168,155.31828 -80.0817,158.45248 -60.5648,3.1342 -91.9789,1.3823 -110.065,1.6754 -359.3752,5.8226 -592.4248,11.4246 -862.3803,4.0971 -35.4153,-0.9613 -282.48572,-4.1496 -357.43091,-4.595 -74.9452,-0.4453 -100.47598,-36.8343 -102.12313,-133.2022 -1.64714,-96.36787 3.2943,-359.05851 4.94145,-448.81822 1.64714,-89.75968 2.47072,-213.29088 7.41216,-265.14668 4.94144,-51.8557 31.29579,-87.9364 164.71471,-87.967 133.41892,-0.031 1092.06842,-4.6172 1199.94672,-1.1048 z"
     id="path1860"
     inkscape:connector-curvature="0"
     sodipodi:nodetypes="ssssssssssss" />
  <path
     style="fill:#dca70a;fill-opacity:1;stroke:none;stroke-width:1px;stroke-linecap:butt;stroke-linejoin:miter;stroke-opacity:1"
     d="m 1800.1738,1459.877 v 0 c 0.01,-2e-4 0.016,2e-4 0.024,0 z m 0,0 c -292.2264,6.2998 -603.1106,15.5541 -902.41404,14.4356 -200.6323,-1.1923 -658.12164,-11.247 -890.1914064,-9.2852 0.33196,1.7964 0.67472,3.5882 1.02539,5.3789 0.35068,1.7907 0.70928,3.5793 1.07422,5.3652 0.21122,1.0335 0.4203304,2.068 0.6367204,3.0996 0.3144,1.4989 0.63799,2.9938 0.96289,4.4883 0.17699,0.814 0.35321,1.6289 0.53321,2.4414 10.07381,45.4797 24.686,88.4308 37.11914,124.711 7.1e-4,0 0.003,0 0.004,0.01 0.0332,0.097 0.0645,0.1904 0.0977,0.2871 0.15405,0.4496 0.30369,0.8886 0.45703,1.336 6.7e-4,0 10e-4,0 0.002,0.01 2.2e-4,0 -3.5e-4,0 0,0 4.51463,13.1721 8.81246,25.7021 12.35156,36.7735 6.63515,20.7568 21.68866,16.4576 49.861316,16.0469 30.68211,-0.4473 144.5012,0.7203 160.97267,0.8183 5.14733,0.031 8.6054,-0.27 10.92773,-2.3574 0.23189,-0.2084 0.45427,-0.4342 0.66406,-0.6797 3.3e-4,-4e-4 -3.3e-4,0 0,0 0.20974,-0.2456 0.40892,-0.5095 0.59766,-0.795 3e-4,-4e-4 -3e-4,0 0,0 0.1887,-0.2856 0.3683,-0.5915 0.53711,-0.9199 2.6e-4,-5e-4 -2.6e-4,0 0,0 0.16879,-0.3285 0.32852,-0.6785 0.47851,-1.0527 2.2e-4,-6e-4 -2.1e-4,0 0,0 0.14998,-0.3743 0.29155,-0.7723 0.42383,-1.1953 1.8e-4,-6e-4 -1.8e-4,0 0,0 0.26474,-0.8469 0.49484,-1.7941 0.69531,-2.8535 1.2e-4,-6e-4 -1.1e-4,0 0,0 0.10017,-0.5295 0.19353,-1.087 0.2793,-1.6738 9e-5,-7e-4 -9e-5,0 0,0 0.0857,-0.5864 0.16587,-1.203 0.23828,-1.8496 1.4e-4,0 -1.4e-4,0 0,0 0.21755,-1.9437 0.37653,-4.1654 0.49414,-6.7051 3e-5,-6e-4 -2e-5,0 0,0 0.0784,-1.6926 0.13857,-3.5274 0.1836,-5.5137 2e-5,0 -3e-5,0 0,0 0.045,-1.9867 0.0752,-4.126 0.0957,-6.4297 10e-6,0 0,0 0,0 0.0615,-6.915 0.0332,-15.3103 0.0332,-25.5 0,-8e-4 0,0 0,0 0,-7e-4 0,0 0,0 0,-0.848 0.0125,-1.6854 0.0371,-2.5117 4e-5,0 -4e-5,0 0,0 0.0247,-0.8263 0.0624,-1.6424 0.11133,-2.4473 8e-5,0 -8e-5,0 0,0 0.049,-0.8048 0.10887,-1.5992 0.18164,-2.3828 1.2e-4,0 -1.2e-4,0 0,0 0.14574,-1.5685 0.33945,-3.0947 0.57813,-4.5801 2e-4,0 -2.1e-4,0 0,0 0.11927,-0.7421 0.25073,-1.4736 0.39257,-2.1953 2.5e-4,0 -2.5e-4,0 0,0 0.14188,-0.7217 0.2969,-1.4332 0.46094,-2.1348 2.9e-4,0 -3e-4,0 0,0 0.16408,-0.7016 0.33956,-1.3925 0.52539,-2.0742 3.3e-4,0 -3.4e-4,0 0,0 0.93078,-3.4141 2.13308,-6.5801 3.57813,-9.5176 2.5e-4,-5e-4 -2.7e-4,0 0,0 0.5779,-1.1746 1.19526,-2.3118 1.8496,-3.414 2.8e-4,-5e-4 -2.9e-4,0 0,0 0.98172,-1.6535 2.04891,-3.2263 3.19336,-4.7226 3.1e-4,-4e-4 -3.1e-4,0 0,0 0.7629,-0.9974 1.56151,-1.9603 2.39257,-2.8906 3.2e-4,-4e-4 -3.1e-4,0 0,0 0.41539,-0.4649 0.83969,-0.9205 1.27149,-1.3691 3.2e-4,-3e-4 -3.2e-4,0 0,0 0.43182,-0.4485 0.8725,-0.8878 1.32031,-1.3203 18.82235,-18.1773 51.58771,-22.241 82.93554,-22.0547 47.7673,0.2839 871.70357,-2.19 1004.48037,-0.2363 132.7768,1.9538 114.1407,64.7371 114.1407,91.5254 0,1.6242 0.01,3.1367 0.02,4.5625 5e-4,0.054 -6e-4,0.1145 0,0.168 0.015,1.4525 0.042,2.8064 0.084,4.0664 0.061,1.8356 0.1566,3.4691 0.3047,4.9355 0.029,0.2899 0.064,0.5619 0.098,0.8399 0.044,0.3645 0.092,0.7223 0.1446,1.0644 0.061,0.3896 0.1222,0.7743 0.1933,1.1367 0.056,0.2852 0.1165,0.5558 0.1797,0.8243 0.03,0.1309 0.06,0.2623 0.092,0.3886 0.078,0.3049 0.1623,0.5976 0.252,0.8809 0.054,0.1672 0.1119,0.327 0.1699,0.4863 0.077,0.2148 0.15,0.4327 0.2344,0.6348 0.023,0.055 0.05,0.1066 0.074,0.1601 0.091,0.2095 0.1886,0.4114 0.289,0.6075 0.1087,0.2112 0.2263,0.4104 0.3457,0.6074 0.074,0.1213 0.1426,0.2493 0.2207,0.3652 0.063,0.093 0.1314,0.18 0.1993,0.2676 0.046,0.063 0.093,0.1243 0.1406,0.1855 0.1962,0.2523 0.4054,0.4906 0.6269,0.7168 0.015,0.015 0.03,0.032 0.045,0.047 0.2182,0.2193 0.4508,0.425 0.6953,0.6211 0.026,0.021 0.05,0.042 0.076,0.062 0.2386,0.1869 0.493,0.3624 0.7579,0.5293 0.037,0.023 0.07,0.048 0.1074,0.07 0.2985,0.1826 0.6119,0.3538 0.9453,0.5137 0.066,0.032 0.1373,0.061 0.2051,0.092 0.2529,0.1158 0.5122,0.2289 0.7851,0.334 0.058,0.022 0.1205,0.042 0.1797,0.064 0.2902,0.1078 0.5872,0.2132 0.9004,0.3106 0.053,0.017 0.1099,0.032 0.1641,0.049 0.337,0.1016 0.6828,0.1996 1.0468,0.291 0.02,0.01 0.043,0.01 0.062,0.014 0.3982,0.099 0.8126,0.1927 1.2442,0.2812 0.5629,0.1155 1.1712,0.2195 1.7949,0.3203 0.6749,0.11 1.3979,0.2108 2.1465,0.3086 0.1771,0.023 0.3344,0.05 0.5156,0.072 0.1,0.012 0.2021,0.023 0.3027,0.035 1.6036,0.1951 3.3895,0.3746 5.334,0.5586 1.0034,0.095 2.1419,0.2007 3.2442,0.3007 1.229,0.112 2.3669,0.2155 3.7265,0.3418 0.6195,0.058 1.3289,0.1096 2.0352,0.1621 1.1992,0.082 2.4729,0.153 3.9316,0.2012 0.1098,0 0.1836,0.028 0.2422,0.061 34.4536,1.7548 132.6816,-0.3878 169.668,1.0586 38.9461,1.5231 38.1665,1.1949 64.1309,-62.5176 0.6979,-1.7283 1.211,-2.9922 1.9472,-4.8106 v -0.014 c 0.033,-0.082 0.065,-0.1643 0.098,-0.2461 0.8829,-2.2306 1.7469,-4.4756 2.5957,-6.7383 0.3914,-1.0442 0.7682,-2.1054 1.1523,-3.1582 0.2831,-0.7756 0.5641,-1.5557 0.8457,-2.334 0.01,-0.018 0.013,-0.036 0.02,-0.055 0.01,-0.026 0.018,-0.054 0.027,-0.08 1.3831,-3.9771 2.6854,-8.026 3.9102,-12.1758 0.01,-0.021 0.013,-0.042 0.02,-0.062 0.01,-0.02 0.014,-0.041 0.019,-0.061 8.6578,-29.3841 13.4537,-63.816 15.8203,-113.3301 z"
     id="path1864"
     inkscape:connector-curvature="0" />
  <path
     style="fill:#3c75b0;fill-opacity:1;stroke:none;stroke-width:1px;stroke-linecap:butt;stroke-linejoin:miter;stroke-opacity:1"
     d="m 122.09035,1103.5289 c 4.65885,-43.649 6.40591,-16.8503 19.21771,10.5966 12.8118,27.4467 34.35891,54.363 125.78856,58.9829 91.42964,4.6198 440.25998,11.3516 525.86608,11.8604 85.6061,0.5087 505.4837,-1.0725 602.7369,-6.3181 97.2532,-5.2456 204.4064,-8.103 227.1182,-23.6915 22.7118,-15.5887 41.9295,-51.5804 46.5884,-67.2763 4.6588,-15.6959 8.1529,-13.928 9.9,20.4413 1.747,34.3693 10.4824,118.8626 11.6471,136.3401 1.1647,17.4775 0.5823,15.7271 -11.6471,12.1603 -12.2295,-3.5669 -128.7004,0.3998 -204.9888,12.1759 -76.2884,11.776 -138.018,56.2505 -156.071,100.4022 -18.053,44.1516 -8.1529,68.087 8.153,80.9957 16.3059,12.9086 0,13.9765 -37.8531,14.9163 -37.853,0.9397 -289.4301,-3.4671 -431.5246,-3.1468 -142.0945,0.3202 -370.9598,1.8719 -384.354,0.6276 -13.3941,-1.2443 -13.3941,-7.0679 -3.4941,-15.7443 9.9,-8.6765 22.1295,-17.3391 19.8001,-51.1296 -2.3295,-33.7903 -51.2472,-98.14 -132.77685,-120.1716 -81.52962,-22.0317 -204.40641,-23.3442 -221.29469,-20.5328 -16.88829,2.8113 -25.04125,12.663 -23.87654,-7.1302 1.16471,-19.7931 9.31767,-122.239 11.06473,-144.3581 z"
     id="path1869"
     inkscape:connector-curvature="0" />
  <path
     style="fill:#515151;fill-opacity:1;stroke:none;stroke-width:1px;stroke-linecap:butt;stroke-linejoin:miter;stroke-opacity:1"
     d="m 537.3091,286.6237 c 0.5823,-19.7967 -2.3294,-19.2316 26.2059,-20.8091 28.5354,-1.5774 669.1253,0.4823 690.6724,0.6104 21.5471,0.128 27.3707,2.492 26.7883,27.5298 -0.5823,25.0378 0,123.4592 -0.5823,142.6734 -0.5824,19.2143 -1.7471,23.2838 -24.4589,21.9842 -22.7118,-1.2997 -671.4547,-1.6609 -694.1665,-1.2136 -22.7119,0.4474 -24.4589,-3.6394 -24.4589,-26.3512 0,-22.7118 -0.5824,-119.3862 0,-144.4239 z"
     id="path1871"
     inkscape:connector-curvature="0" />
  <path
     style="fill:#6e6e6e;fill-opacity:1;stroke:none;stroke-width:1px;stroke-linecap:butt;stroke-linejoin:miter;stroke-opacity:1"
     d="m 399.8734,264.2598 c 19.8001,0.7 20.9648,2.454 21.5471,19.9281 0.5824,17.474 0,44.8413 -0.5823,58.8143 -0.5824,13.973 -6.4059,18.0149 -17.4706,18.5316 -11.0648,0.5165 -162.47693,0.1991 -175.28873,-0.4594 -12.81179,-0.6584 -17.47063,-3.5979 -18.05298,-20.4897 -0.58236,-16.8918 0,-50.0825 0.58235,-61.1437 0.58236,-11.0613 1.74706,-14.5486 18.63534,-15.0305 16.88828,-0.482 149.66512,-1.44 170.62982,-0.1507 z"
     id="path1873"
     inkscape:connector-curvature="0" />
  <path
     style="fill:#e9e9e9;fill-opacity:1;stroke:none;stroke-width:1px;stroke-linecap:butt;stroke-linejoin:miter;stroke-opacity:1"
     d="m 265.64074,357.8035 c 20.3824,-0.1701 41.92952,-16.3479 42.80305,-44.0046 0.87353,-27.6566 -22.12947,-41.1874 -42.2207,-41.598 -20.09123,-0.4106 -39.89128,18.107 -40.76481,42.8519 -0.87353,24.7449 16.01475,44.063 40.18246,42.7507 z"
     id="path1875"
     inkscape:connector-curvature="0" />
  <path
     style="fill:#e25138;fill-opacity:1;stroke:none;stroke-width:1px;stroke-linecap:butt;stroke-linejoin:miter;stroke-opacity:1"
     d="m 326.78795,315.655 c 0,-23.003 18.05298,-41.8222 37.85304,-41.9958 19.80001,-0.1735 41.63831,12.477 41.63831,43.9241 0,31.4471 -20.3824,39.7702 -36.10595,39.9679 -15.72357,0.1977 -42.51187,-11.0262 -43.3854,-41.8962 z"
     id="path1877"
     inkscape:connector-curvature="0" />
  <path
     style="fill:#6e6e6e;fill-opacity:1;stroke:none;stroke-width:1px;stroke-linecap:butt;stroke-linejoin:miter;stroke-opacity:1"
     d="m 1397.1554,276.3011 c 0.8736,-7.5654 1.1648,-8.7284 9.6089,-9.2606 8.4441,-0.5321 174.7063,-0.4177 185.7711,0.2305 11.0647,0.648 12.2294,2.6933 12.5206,14.3421 0.2912,11.6488 0.2912,50.9577 -0.2912,62.3102 -0.5823,11.3524 -2.9118,16.5798 -11.0647,16.5313 -8.153,-0.048 -178.4917,0.6864 -187.227,0.6345 -8.7353,-0.052 -10.1912,-5.593 -10.1912,-12.2901 0,-6.6971 0.5824,-64.0555 0.8735,-72.4979 z"
     id="path1883"
     inkscape:connector-curvature="0" />
  <path
     style="fill:#e25138;fill-opacity:1;stroke:none;stroke-width:1px;stroke-linecap:butt;stroke-linejoin:miter;stroke-opacity:1"
     d="m 1446.6555,354.9219 c 33.7766,-0.6728 42.2207,-25.3727 41.3472,-43.722 -0.8735,-18.3494 -13.103,-38.8045 -39.8913,-39.8372 -26.7883,-1.0328 -42.803,19.2545 -43.0942,41.3822 -0.2912,22.1278 13.9765,42.0126 41.6383,42.177 z"
     id="path1879"
     inkscape:connector-curvature="0" />
  <path
     style="fill:#e9e9e9;fill-opacity:1;stroke:none;stroke-width:1px;stroke-linecap:butt;stroke-linejoin:miter;stroke-opacity:1"
     d="m 1551.7295,272.8129 c -31.1679,-0.3395 -43.3444,20.4551 -42.1797,43.465 1.1647,23.01 14.2677,39.1026 43.3855,38.6933 29.1177,-0.4093 38.7265,-18.6964 39.0177,-41.9889 0.2912,-23.2924 -12.5375,-39.8678 -40.2235,-40.1694 z"
     id="path1881"
     inkscape:connector-curvature="0"
     sodipodi:nodetypes="sscss" />
  <path
     style="fill:#626262;fill-opacity:1;stroke:none;stroke-width:1px;stroke-linecap:butt;stroke-linejoin:miter;stroke-opacity:1"
     d="m 209.79882,539.22405 c 3.94798,-30.57335 4.93498,-27.60655 41.45379,-28.37655 36.51881,-0.7699 1289.01539,0.7514 1318.62529,0.9273 29.6098,0.176 33.5578,5.1345 34.5448,40.67213 0.987,35.53767 0.987,485.60737 0,521.13337 -0.987,35.5259 -3.948,42.4173 -28.6229,42.2707 -24.6748,-0.1467 -574.431,-1.4397 -740.2462,-0.4511 -165.8151,0.9886 -548.76917,-1.2872 -587.26198,-2.503 -38.4928,-1.2157 -45.40176,-4.2178 -45.40176,-33.8277 0,-29.6098 5.92197,-502.34522 6.90896,-539.84515 z"
     id="path1885"
     inkscape:connector-curvature="0" />
  <path
     style="fill:#aa7601;fill-opacity:1;stroke:none;stroke-width:1px;stroke-linecap:butt;stroke-linejoin:miter;stroke-opacity:1"
     d="m 1623.3133,1262.8372 c 45.0117,-2.5458 75.4883,7.0128 64.7043,57.118 -10.7841,50.1052 -31.4144,105.3095 -77.8328,121.913 -46.4183,16.6036 -210.0545,21.2576 -238.1868,20.1526 -28.1323,-1.1049 -55.3269,-19.0837 -55.7958,-45.8122 -0.4688,-26.7284 26.2568,-85.6474 79.2394,-112.0583 52.9825,-26.4108 189.893,-39.1945 227.8717,-41.3131 z"
     id="path1890"
     inkscape:connector-curvature="0" />
  <path
     style="fill:#a2a2a2;fill-opacity:1;stroke:none;stroke-width:1px;stroke-linecap:butt;stroke-linejoin:miter;stroke-opacity:1"
     d="m 1421.6984,1305.2442 c 52.0448,-0.6285 76.895,27.1825 78.3016,65.1696 1.4066,37.987 -26.7257,76.7361 -70.7997,77.412 -44.0739,0.6757 -71.2685,-41.2155 -72.6751,-68.8872 -1.4066,-27.6718 16.8794,-70.2305 65.1732,-73.6944 z"
     id="path1892"
     inkscape:connector-curvature="0" />
  <path
     style="fill:#d6d6d6;fill-opacity:1;stroke:none;stroke-width:1px;stroke-linecap:butt;stroke-linejoin:miter;stroke-opacity:1"
     d="m 1515.0039,1366.2831 c 0.4689,-41.7268 28.1323,-74.8523 70.7996,-76.9431 42.6673,-2.0908 71.7374,34.185 71.7374,69.8193 0,35.6343 -29.4245,72.9692 -68.8097,73.6728 -39.3853,0.7038 -73.7273,-22.0061 -73.7273,-66.549 z"
     id="path1894"
     inkscape:connector-curvature="0"
     sodipodi:nodetypes="ccscc" />
  <path
     style="fill:#aa7601;fill-opacity:1;stroke:none;stroke-width:1px;stroke-linecap:butt;stroke-linejoin:miter;stroke-opacity:1"
     d="m 111.27241,1321.2823 c -2.5299,-42.6343 9.75841,-61.542 48.79206,-59.7853 39.03363,1.7567 92.39993,0.854 160.40385,16.2008 68.00388,15.3466 106.42768,32.3472 134.17808,77.3398 27.7505,44.9927 25.006,68.1525 14.6377,81.8137 -10.3684,13.6611 -17.3822,22.768 -66.4792,22.1713 -49.09701,-0.5968 -95.75439,1.2606 -151.25535,-6.9979 -55.50095,-8.2585 -83.55638,-11.7798 -104.59795,-41.4849 -21.04158,-29.7052 -34.2294,-64.8255 -35.67919,-89.2575 z"
     id="path1900"
     inkscape:connector-curvature="0"
     sodipodi:nodetypes="sccccsscs" />
  <path
     style="fill:#d6d6d6;fill-opacity:1;stroke:none;stroke-width:1px;stroke-linecap:butt;stroke-linejoin:miter;stroke-opacity:1"
     d="m 214.95552,1433.2052 c 41.16774,-0.1279 76.54252,-29.1253 75.93262,-70.6021 -0.6099,-41.4769 -38.64273,-71.6234 -72.88312,-72.0965 -38.72868,-0.5351 -70.44352,24.8923 -69.22372,72.4718 1.21981,47.5795 39.93361,70.3084 66.17422,70.2268 z"
     id="path1896"
     inkscape:connector-curvature="0"
     sodipodi:nodetypes="sssss" />
  <path
     style="fill:#a2a2a2;fill-opacity:1;stroke:none;stroke-width:1px;stroke-linecap:butt;stroke-linejoin:miter;stroke-opacity:1"
     d="m 304.61091,1375.7975 c 0.30338,-45.7965 29.58017,-70.5727 68.61379,-70.9506 39.0336,-0.378 70.7485,29.3907 72.8831,68.437 2.1347,39.0464 -23.1762,73.6603 -65.5643,72.7985 -42.38807,-0.8618 -76.18315,-32.4624 -75.93259,-70.2849 z"
     id="path1898"
     inkscape:connector-curvature="0"
     sodipodi:nodetypes="sssss" />
</svg>
