<?xml version="1.0" encoding="UTF-8" standalone="no"?>
<svg
   xmlns:dc="http://purl.org/dc/elements/1.1/"
   xmlns:cc="http://creativecommons.org/ns#"
   xmlns:rdf="http://www.w3.org/1999/02/22-rdf-syntax-ns#"
   xmlns:svg="http://www.w3.org/2000/svg"
   xmlns="http://www.w3.org/2000/svg"
   viewBox="0 0 1802.2076 1665.955"
   height="1665.955"
   width="1802.2076"
   id="svg1286"
   version="1.1">
  <metadata
     id="metadata1292">
    <rdf:RDF>
      <cc:Work
         rdf:about="">
        <dc:format>image/svg+xml</dc:format>
        <dc:type
           rdf:resource="http://purl.org/dc/dcmitype/StillImage" />
        <dc:title></dc:title>
      </cc:Work>
    </rdf:RDF>
  </metadata>
  <defs
     id="defs1290" />
  <path
     id="path1902"
     d="m 266.38962,1665.8138 c 46.46503,0.8957 1243.69848,-2.8133 1272.86308,-1.5323 27.5749,1.2111 -6.9002,-140.6334 -6.9002,-140.6334 l -1305.86995,4.3149 c 0,0 -7.92106,136.9289 39.90707,137.8508 z"
     style="fill:#1f1f1f;fill-opacity:1;stroke:none;stroke-width:1px;stroke-linecap:butt;stroke-linejoin:miter;stroke-opacity:1" />
  <path
     id="path1858"
     d="m 1512.6722,15.306602 c 156.1673,11.4246 210.0695,45.4925 241.4089,87.280198 29.584,39.447 30.876,57.992 32.5232,151.6634 1.8828,107.0718 6.6616,438.36865 12.1437,815.2835 5.1575,354.5929 9.0439,450.0484 -23.0601,528.5971 -28.2244,69.0565 -26.0953,68.9025 -66.0993,67.338 -39.5367,-1.5461 -149.0827,1.0096 -175.871,-1.479 -26.7883,-2.4886 -27.9531,-1.3308 -27.9531,-28.1191 0,-26.7883 18.6354,-89.5719 -114.1414,-91.5257 -132.7768,-1.9537 -956.7129,0.5215 -1004.4802,0.2376 -47.76728,-0.2839 -98.82883,9.2956 -98.82883,63.6514 0,54.3559 0.82358,57.6551 -15.6479,57.5572 -16.47147,-0.098 -130.29155,-1.2667 -160.97366,-0.8194 -28.172656,0.4107 -38.56845,2.5906 -49.861166,-16.0466 C 29.662786,1595.8351 5.7483176,1532.1566 0.88689357,1414.6333 -2.7670098,1326.3014 10.856202,766.62276 11.773871,649.60385 12.79826,518.97614 17.797112,315.84039 22.369765,201.89888 26.228224,105.75365 87.362124,43.073502 205.95671,24.012502 324.55131,4.9516018 657.275,-1.3068982 914.23,0.22010178 c 256.9549,1.52700002 456.7876,-0.5797 598.4422,15.08650022 z"
     style="fill:#e4ba09;fill-opacity:1;stroke:none;stroke-width:1px;stroke-linecap:butt;stroke-linejoin:miter;stroke-opacity:1" />
  <path
     id="path1862"
     d="m 1659.5641,336.5496 c 0,-84.0045 -1.6472,-131.7816 -74.1217,-145.3895 -72.4744,-13.6078 -437.3175,-17.4231 -617.6801,-20.1421 -180.3627,-2.719 -575.678,8.1089 -689.33111,16.4928 -113.65315,8.3839 -114.47673,54.4991 -119.41817,133.5328 -4.94144,79.0338 30.47222,-66.5284 30.47222,-66.5284 l 184.48046,-26.9051 1220.5361,3.1355 32.9429,40.5509 z"
     style="fill:#764d02;fill-opacity:1;stroke:none;stroke-width:1px;stroke-linecap:butt;stroke-linejoin:miter;stroke-opacity:1" />
  <path
     id="path1860"
     d="m 1525.3216,209.7451 c 108.7231,3.5399 130.1246,18.892 135.066,139.163 4.9415,120.2711 8.2357,533.72466 0,637.44592 -8.2358,103.72138 -19.5168,155.31828 -80.0817,158.45248 -60.5648,3.1342 -91.9789,1.3823 -110.065,1.6754 -359.3752,5.8226 -592.4248,11.4246 -862.3803,4.0971 -35.4153,-0.9613 -282.48572,-4.1496 -357.43091,-4.595 -74.9452,-0.4453 -100.47598,-36.8343 -102.12313,-133.2022 -1.64714,-96.36787 3.2943,-359.05851 4.94145,-448.81822 1.64714,-89.75968 2.47072,-213.29088 7.41216,-265.14668 4.94144,-51.8557 31.29579,-87.9364 164.71471,-87.967 133.41892,-0.031 1092.06842,-4.6172 1199.94672,-1.1048 z"
     style="fill:#2a2a2a;fill-opacity:1;stroke:none;stroke-width:1px;stroke-linecap:butt;stroke-linejoin:miter;stroke-opacity:1" />
  <path
     id="path1864"
     d="M 1800.1738 1459.877 C 1507.9474 1466.1768 1197.0632 1475.431 897.75977 1474.3125 C 708.98423 1473.1907 251.67957 1468.8133 4.9609375 1469.9336 C 14.105077 1553.4072 35.116429 1604.8351 61.832031 1648.9258 C 73.124747 1667.563 83.520703 1665.3834 111.69336 1664.9727 C 142.37547 1664.5254 256.19455 1665.693 272.66602 1665.791 C 273.62453 1665.7967 274.51247 1665.7865 275.35742 1665.7598 C 275.49085 1665.7555 275.62711 1665.7534 275.75781 1665.748 C 276.04217 1665.7365 276.31819 1665.7203 276.58984 1665.7031 C 276.82917 1665.688 277.06134 1665.6685 277.29102 1665.6484 C 277.50592 1665.6297 277.72306 1665.6134 277.92969 1665.5898 C 278.22286 1665.5564 278.50045 1665.5129 278.77734 1665.4688 C 279.03122 1665.4284 279.27896 1665.3824 279.51953 1665.332 C 279.79497 1665.2744 280.06768 1665.2146 280.32617 1665.1426 C 280.47624 1665.1008 280.61721 1665.0509 280.76172 1665.0039 C 280.98153 1664.9324 281.19706 1664.8559 281.4043 1664.7715 C 281.54852 1664.7128 281.68984 1664.6493 281.82812 1664.584 C 282.02952 1664.4888 282.22299 1664.3855 282.41211 1664.2754 C 282.52886 1664.2075 282.64757 1664.1422 282.75977 1664.0684 C 283.0248 1663.8937 283.27908 1663.7025 283.51953 1663.4922 C 283.5434 1663.4713 283.57012 1663.4548 283.59375 1663.4336 C 285.72011 1661.5224 286.89305 1658.1007 287.53906 1652.0781 C 287.60896 1651.4251 287.66866 1650.7236 287.72656 1650.0078 C 287.83496 1648.6735 287.92941 1647.2564 288.00195 1645.6895 C 288.08001 1644.0035 288.14058 1642.1746 288.18555 1640.1973 C 288.18572 1640.1894 288.18537 1640.1797 288.18555 1640.1719 C 288.23038 1638.193 288.26074 1636.0609 288.28125 1633.7676 C 288.28133 1633.7588 288.28117 1633.7471 288.28125 1633.7383 C 288.28146 1633.7152 288.28105 1633.6871 288.28125 1633.6641 C 288.30805 1630.6045 288.31425 1627.1528 288.31641 1623.4883 C 288.31933 1618.8498 288.31451 1613.9909 288.31445 1608.2793 C 288.31445 1608.275 288.31445 1608.2718 288.31445 1608.2676 C 288.31445 1608.2551 288.31445 1608.2469 288.31445 1608.2344 C 288.31445 1607.3976 288.32756 1606.5715 288.35156 1605.7559 C 289.88682 1553.5861 340.11065 1544.3025 387.14258 1544.582 C 434.90988 1544.8659 1258.8462 1542.392 1391.623 1544.3457 C 1495.4404 1545.8734 1506.6893 1584.5878 1506.6582 1614.209 C 1506.657 1615.3685 1506.6403 1616.5157 1506.6094 1617.6445 C 1506.6088 1617.6677 1506.6081 1617.6917 1506.6074 1617.7148 C 1506.4498 1623.4689 1505.9693 1628.7887 1505.8125 1633.3066 C 1505.8032 1633.5733 1505.8057 1633.8172 1505.7988 1634.0781 C 1505.7823 1634.705 1505.7638 1635.335 1505.7637 1635.9277 C 1505.7637 1635.9321 1505.7637 1635.937 1505.7637 1635.9414 C 1505.7637 1637.5656 1505.7732 1639.0781 1505.7832 1640.5039 C 1505.7834 1640.5258 1505.783 1640.5523 1505.7832 1640.5742 C 1505.8123 1643.3995 1505.8867 1645.8284 1506.0371 1647.9531 C 1506.0602 1648.2822 1506.0842 1648.6 1506.1113 1648.9141 C 1506.1803 1649.7052 1506.2608 1650.4614 1506.3594 1651.1602 C 1506.3632 1651.1872 1506.3653 1651.2153 1506.3691 1651.2422 C 1507.9581 1662.3058 1513.6427 1662.1254 1533.7168 1663.9902 C 1560.5051 1666.4788 1670.0512 1663.9226 1709.5879 1665.4688 C 1718.3156 1665.8101 1725.0364 1666.0849 1730.5059 1665.5879 C 1730.7324 1665.5658 1730.9495 1665.5365 1731.1719 1665.5117 C 1731.6077 1665.466 1732.0408 1665.418 1732.4609 1665.3613 C 1742.5374 1663.9337 1748.2653 1659.2334 1755.0957 1646.2227 C 1755.1625 1646.0948 1755.2299 1645.9674 1755.2969 1645.8379 C 1755.6573 1645.145 1756.023 1644.4176 1756.3906 1643.6777 C 1756.6317 1643.1901 1756.8743 1642.6981 1757.1191 1642.1895 C 1757.3142 1641.7863 1757.5114 1641.3736 1757.709 1640.957 C 1762.4044 1631.0121 1767.8827 1617.2268 1775.6875 1598.1309 C 1775.7509 1597.9757 1775.8119 1597.8193 1775.875 1597.6641 C 1776.7187 1595.5274 1777.5468 1593.3791 1778.3594 1591.2129 C 1778.7508 1590.1687 1779.1276 1589.1075 1779.5117 1588.0547 C 1779.7948 1587.2791 1780.0758 1586.499 1780.3574 1585.7207 C 1780.3674 1585.7027 1780.3719 1585.685 1780.3789 1585.666 C 1780.3889 1585.64 1780.3953 1585.6119 1780.4043 1585.5859 C 1781.7874 1581.6088 1783.0897 1577.56 1784.3145 1573.4102 C 1784.3245 1573.3892 1784.3289 1573.3677 1784.3359 1573.3477 C 1784.3459 1573.3277 1784.3485 1573.3071 1784.3535 1573.2871 C 1793.0113 1543.903 1797.8072 1509.4711 1800.1738 1459.957 L 1800.1738 1459.877 z "
     style="fill:#dca70a;fill-opacity:1;stroke:none;stroke-width:1px;stroke-linecap:butt;stroke-linejoin:miter;stroke-opacity:1" />
  <path
     id="path1869"
     d="m 122.09035,1103.5289 c 4.65885,-43.649 6.40591,-16.8503 19.21771,10.5966 12.8118,27.4467 34.35891,54.363 125.78856,58.9829 91.42964,4.6198 440.25998,11.3516 525.86608,11.8604 85.6061,0.5087 505.4837,-1.0725 602.7369,-6.3181 97.2532,-5.2456 204.4064,-8.103 227.1182,-23.6915 22.7118,-15.5887 41.9295,-51.5804 46.5884,-67.2763 4.6588,-15.6959 8.1529,-13.928 9.9,20.4413 1.747,34.3693 10.4824,118.8626 11.6471,136.3401 1.1647,17.4775 0.5823,15.7271 -11.6471,12.1603 -12.2295,-3.5669 -128.7004,0.3998 -204.9888,12.1759 -76.2884,11.776 -138.018,56.2505 -156.071,100.4022 -18.053,44.1516 -8.1529,68.087 8.153,80.9957 16.3059,12.9086 0,13.9765 -37.8531,14.9163 -37.853,0.9397 -289.4301,-3.4671 -431.5246,-3.1468 -142.0945,0.3202 -370.9598,1.8719 -384.354,0.6276 -13.3941,-1.2443 -13.3941,-7.0679 -3.4941,-15.7443 9.9,-8.6765 22.1295,-17.3391 19.8001,-51.1296 -2.3295,-33.7903 -51.2472,-98.14 -132.77685,-120.1716 -81.52962,-22.0317 -204.40641,-23.3442 -221.29469,-20.5328 -16.88829,2.8113 -25.04125,12.663 -23.87654,-7.1302 1.16471,-19.7931 9.31767,-122.239 11.06473,-144.3581 z"
     style="fill:#3c75b0;fill-opacity:1;stroke:none;stroke-width:1px;stroke-linecap:butt;stroke-linejoin:miter;stroke-opacity:1" />
  <path
     id="path1871"
     d="m 537.3091,286.6237 c 0.5823,-19.7967 -2.3294,-19.2316 26.2059,-20.8091 28.5354,-1.5774 669.1253,0.4823 690.6724,0.6104 21.5471,0.128 27.3707,2.492 26.7883,27.5298 -0.5823,25.0378 0,123.4592 -0.5823,142.6734 -0.5824,19.2143 -1.7471,23.2838 -24.4589,21.9842 -22.7118,-1.2997 -671.4547,-1.6609 -694.1665,-1.2136 -22.7119,0.4474 -24.4589,-3.6394 -24.4589,-26.3512 0,-22.7118 -0.5824,-119.3862 0,-144.4239 z"
     style="fill:#515151;fill-opacity:1;stroke:none;stroke-width:1px;stroke-linecap:butt;stroke-linejoin:miter;stroke-opacity:1" />
  <path
     id="path1873"
     d="m 399.8734,264.2598 c 19.8001,0.7 20.9648,2.454 21.5471,19.9281 0.5824,17.474 0,44.8413 -0.5823,58.8143 -0.5824,13.973 -6.4059,18.0149 -17.4706,18.5316 -11.0648,0.5165 -162.47693,0.1991 -175.28873,-0.4594 -12.81179,-0.6584 -17.47063,-3.5979 -18.05298,-20.4897 -0.58236,-16.8918 0,-50.0825 0.58235,-61.1437 0.58236,-11.0613 1.74706,-14.5486 18.63534,-15.0305 16.88828,-0.482 149.66512,-1.44 170.62982,-0.1507 z"
     style="fill:#6e6e6e;fill-opacity:1;stroke:none;stroke-width:1px;stroke-linecap:butt;stroke-linejoin:miter;stroke-opacity:1" />
  <path
     id="path1875"
     d="m 265.64074,357.8035 c 20.3824,-0.1701 41.92952,-16.3479 42.80305,-44.0046 0.87353,-27.6566 -22.12947,-41.1874 -42.2207,-41.598 -20.09123,-0.4106 -39.89128,18.107 -40.76481,42.8519 -0.87353,24.7449 16.01475,44.063 40.18246,42.7507 z"
     style="fill:#e9e9e9;fill-opacity:1;stroke:none;stroke-width:1px;stroke-linecap:butt;stroke-linejoin:miter;stroke-opacity:1" />
  <path
     id="path1877"
     d="m 326.78795,315.655 c 0,-23.003 18.05298,-41.8222 37.85304,-41.9958 19.80001,-0.1735 41.63831,12.477 41.63831,43.9241 0,31.4471 -20.3824,39.7702 -36.10595,39.9679 -15.72357,0.1977 -42.51187,-11.0262 -43.3854,-41.8962 z"
     style="fill:#e25138;fill-opacity:1;stroke:none;stroke-width:1px;stroke-linecap:butt;stroke-linejoin:miter;stroke-opacity:1" />
  <path
     id="path1883"
     d="m 1397.1554,276.3011 c 0.8736,-7.5654 1.1648,-8.7284 9.6089,-9.2606 8.4441,-0.5321 174.7063,-0.4177 185.7711,0.2305 11.0647,0.648 12.2294,2.6933 12.5206,14.3421 0.2912,11.6488 0.2912,50.9577 -0.2912,62.3102 -0.5823,11.3524 -2.9118,16.5798 -11.0647,16.5313 -8.153,-0.048 -178.4917,0.6864 -187.227,0.6345 -8.7353,-0.052 -10.1912,-5.593 -10.1912,-12.2901 0,-6.6971 0.5824,-64.0555 0.8735,-72.4979 z"
     style="fill:#6e6e6e;fill-opacity:1;stroke:none;stroke-width:1px;stroke-linecap:butt;stroke-linejoin:miter;stroke-opacity:1" />
  <path
     id="path1879"
     d="m 1446.6555,354.9219 c 33.7766,-0.6728 42.2207,-25.3727 41.3472,-43.722 -0.8735,-18.3494 -13.103,-38.8045 -39.8913,-39.8372 -26.7883,-1.0328 -42.803,19.2545 -43.0942,41.3822 -0.2912,22.1278 13.9765,42.0126 41.6383,42.177 z"
     style="fill:#e25138;fill-opacity:1;stroke:none;stroke-width:1px;stroke-linecap:butt;stroke-linejoin:miter;stroke-opacity:1" />
  <path
     id="path1881"
     d="m 1551.7295,272.8129 c -31.1679,-0.3395 -43.3444,20.4551 -42.1797,43.465 1.1647,23.01 14.2677,39.1026 43.3855,38.6933 29.1177,-0.4093 38.7265,-18.6964 39.0177,-41.9889 0.2912,-23.2924 -12.5375,-39.8678 -40.2235,-40.1694 z"
     style="fill:#e9e9e9;fill-opacity:1;stroke:none;stroke-width:1px;stroke-linecap:butt;stroke-linejoin:miter;stroke-opacity:1" />
  <path
     id="path1885"
     d="m 209.79882,539.22405 c 3.94798,-30.57335 4.93498,-27.60655 41.45379,-28.37655 36.51881,-0.7699 1289.01539,0.7514 1318.62529,0.9273 29.6098,0.176 33.5578,5.1345 34.5448,40.67213 0.987,35.53767 0.987,485.60737 0,521.13337 -0.987,35.5259 -3.948,42.4173 -28.6229,42.2707 -24.6748,-0.1467 -574.431,-1.4397 -740.2462,-0.4511 -165.8151,0.9886 -548.76917,-1.2872 -587.26198,-2.503 -38.4928,-1.2157 -45.40176,-4.2178 -45.40176,-33.8277 0,-29.6098 5.92197,-502.34522 6.90896,-539.84515 z"
     style="fill:#626262;fill-opacity:1;stroke:none;stroke-width:1px;stroke-linecap:butt;stroke-linejoin:miter;stroke-opacity:1" />
  <path
     id="path1890"
     d="m 1623.3133,1262.8372 c 45.0117,-2.5458 75.4883,7.0128 64.7043,57.118 -10.7841,50.1052 -31.4144,105.3095 -77.8328,121.913 -46.4183,16.6036 -210.0545,21.2576 -238.1868,20.1526 -28.1323,-1.1049 -55.3269,-19.0837 -55.7958,-45.8122 -0.4688,-26.7284 26.2568,-85.6474 79.2394,-112.0583 52.9825,-26.4108 189.893,-39.1945 227.8717,-41.3131 z"
     style="fill:#aa7601;fill-opacity:1;stroke:none;stroke-width:1px;stroke-linecap:butt;stroke-linejoin:miter;stroke-opacity:1" />
  <path
     id="path1892"
     d="m 1421.6984,1305.2442 c 52.0448,-0.6285 76.895,27.1825 78.3016,65.1696 1.4066,37.987 -26.7257,76.7361 -70.7997,77.412 -44.0739,0.6757 -71.2685,-41.2155 -72.6751,-68.8872 -1.4066,-27.6718 16.8794,-70.2305 65.1732,-73.6944 z"
     style="fill:#a2a2a2;fill-opacity:1;stroke:none;stroke-width:1px;stroke-linecap:butt;stroke-linejoin:miter;stroke-opacity:1" />
  <path
     id="path1894"
     d="m 1515.0039,1366.2831 c 0.4689,-41.7268 28.1323,-74.8523 70.7996,-76.9431 42.6673,-2.0908 71.7374,34.185 71.7374,69.8193 0,35.6343 -29.4245,72.9692 -68.8097,73.6728 -39.3853,0.7038 -73.7273,-22.0061 -73.7273,-66.549 z"
     style="fill:#d6d6d6;fill-opacity:1;stroke:none;stroke-width:1px;stroke-linecap:butt;stroke-linejoin:miter;stroke-opacity:1" />
  <path
     id="path1900"
     d="m 111.27241,1321.2823 c -2.5299,-42.6343 9.75841,-61.542 48.79206,-59.7853 39.03363,1.7567 92.39993,0.854 160.40385,16.2008 68.00388,15.3466 106.42768,32.3472 134.17808,77.3398 27.7505,44.9927 25.006,68.1525 14.6377,81.8137 -10.3684,13.6611 -17.3822,22.768 -66.4792,22.1713 -49.09701,-0.5968 -95.75439,1.2606 -151.25535,-6.9979 -55.50095,-8.2585 -83.55638,-11.7798 -104.59795,-41.4849 -21.04158,-29.7052 -34.2294,-64.8255 -35.67919,-89.2575 z"
     style="fill:#aa7601;fill-opacity:1;stroke:none;stroke-width:1px;stroke-linecap:butt;stroke-linejoin:miter;stroke-opacity:1" />
  <path
     id="path1896"
     d="m 214.95552,1433.2052 c 41.16774,-0.1279 76.54252,-29.1253 75.93262,-70.6021 -0.6099,-41.4769 -38.64273,-71.6234 -72.88312,-72.0965 -38.72868,-0.5351 -70.44352,24.8923 -69.22372,72.4718 1.21981,47.5795 39.93361,70.3084 66.17422,70.2268 z"
     style="fill:#d6d6d6;fill-opacity:1;stroke:none;stroke-width:1px;stroke-linecap:butt;stroke-linejoin:miter;stroke-opacity:1" />
  <path
     id="path1898"
     d="m 304.61091,1375.7975 c 0.30338,-45.7965 29.58017,-70.5727 68.61379,-70.9506 39.0336,-0.378 70.7485,29.3907 72.8831,68.437 2.1347,39.0464 -23.1762,73.6603 -65.5643,72.7985 -42.38807,-0.8618 -76.18315,-32.4624 -75.93259,-70.2849 z"
     style="fill:#a2a2a2;fill-opacity:1;stroke:none;stroke-width:1px;stroke-linecap:butt;stroke-linejoin:miter;stroke-opacity:1" />
</svg>
