<?xml version="1.0" encoding="UTF-8" standalone="no"?>
<!-- Created with Inkscape (http://www.inkscape.org/) -->

<svg
   xmlns:dc="http://purl.org/dc/elements/1.1/"
   xmlns:cc="http://creativecommons.org/ns#"
   xmlns:rdf="http://www.w3.org/1999/02/22-rdf-syntax-ns#"
   xmlns:svg="http://www.w3.org/2000/svg"
   xmlns="http://www.w3.org/2000/svg"
   xmlns:sodipodi="http://sodipodi.sourceforge.net/DTD/sodipodi-0.dtd"
   xmlns:inkscape="http://www.inkscape.org/namespaces/inkscape"
   version="1.1"
   id="svg1286"
   width="1804.2852"
   height="1668.2908"
   viewBox="0 0 1804.2851 1668.2908"
   sodipodi:docname="xtrap.svg"
   inkscape:version="0.92.2 5c3e80d, 2017-08-06">
  <metadata
     id="metadata1292">
    <rdf:RDF>
      <cc:Work
         rdf:about="">
        <dc:format>image/svg+xml</dc:format>
        <dc:type
           rdf:resource="http://purl.org/dc/dcmitype/StillImage" />
        <dc:title />
      </cc:Work>
    </rdf:RDF>
  </metadata>
  <defs
     id="defs1290" />
  <sodipodi:namedview
     pagecolor="#ffffff"
     bordercolor="#666666"
     borderopacity="1"
     objecttolerance="10"
     gridtolerance="10"
     guidetolerance="10"
     inkscape:pageopacity="0"
     inkscape:pageshadow="2"
     inkscape:window-width="1440"
     inkscape:window-height="856"
     id="namedview1288"
     showgrid="false"
     inkscape:zoom="0.27978834"
     inkscape:cx="1345.1117"
     inkscape:cy="917.21264"
     inkscape:window-x="-1"
     inkscape:window-y="0"
     inkscape:window-maximized="0"
     inkscape:current-layer="svg1286" />
  <path
     style="fill:#1f1f1f;fill-opacity:1;stroke:none;stroke-width:1px;stroke-linecap:butt;stroke-linejoin:miter;stroke-opacity:1"
     d="m 267.02144,1666.2087 c 95.7408,2.294 1244.63036,-2.0913 1272.23126,-1.9272 27.601,0.164 -6.9002,-140.6334 -6.9002,-140.6334 l -1305.86995,4.3149 z"
     id="path1902"
     inkscape:connector-curvature="0" />
  <path
     style="fill:#e4ba09;fill-opacity:1;stroke:none;stroke-width:1px;stroke-linecap:butt;stroke-linejoin:miter;stroke-opacity:1"
     d="m 1512.6722,15.30659 c 156.1673,11.424563 210.0695,45.492492 241.4089,87.28023 29.584,39.44701 30.876,57.99199 32.5232,151.66339 1.8828,107.07181 6.6616,438.36864 12.1437,815.28349 5.1575,354.5929 8.7865,449.9437 -23.0601,528.5971 -28.8562,71.2679 -27.3589,72.3775 -66.0993,69.2335 -39.4373,-3.2004 -149.0827,-0.8859 -175.871,-3.3745 -26.7883,-2.4886 -27.9531,-1.3308 -27.9531,-28.1191 0,-26.7883 18.6354,-89.5719 -114.1414,-91.5257 -132.7768,-1.9537 -956.71289,0.5215 -1004.48019,0.2376 -47.76728,-0.2839 -98.82884,9.2956 -98.82884,63.6514 0,54.3559 0.82358,57.6551 -15.6479,57.5572 -16.47147,-0.098 -133.41891,-5.7344 -161.42042,-2.6065 -28.001496,3.1279 -42.779256,6.4973 -49.414406,-14.2595 C 43.480114,1591.5172 7.4754836,1502.7948 0.88689354,1414.6333 -5.7016864,1326.4717 26.417684,772.39756 31.359124,655.47943 36.300564,538.56139 44.536294,256.94814 47.830594,196.02331 51.124884,135.09839 87.362124,43.073547 205.95671,24.012523 324.55131,4.9516004 657.27501,-1.3069103 914.23001,0.22010561 1171.1849,1.7471208 1371.0176,-0.35962609 1512.6722,15.30659 Z"
     id="path1858"
     inkscape:connector-curvature="0"
     sodipodi:nodetypes="cssssssssssssssssssc" />
  <path
     style="fill:#764d02;fill-opacity:1;stroke:none;stroke-width:1px;stroke-linecap:butt;stroke-linejoin:miter;stroke-opacity:1"
     d="m 1659.5641,336.54962 c 0,-84.0045 -1.6472,-131.78159 -74.1217,-145.38948 -72.4744,-13.6078 -437.3175,-17.42317 -617.68009,-20.14211 -180.3627,-2.71905 -575.678,8.10889 -689.33112,16.49278 -113.65315,8.38389 -114.47673,54.4991 -119.41817,133.53283 -4.94144,79.03374 30.47222,-66.52841 30.47222,-66.52841 l 184.48047,-26.90518 1220.53609,3.13552 32.9429,40.55088 z"
     id="path1862"
     inkscape:connector-curvature="0" />
  <path
     style="fill:#2a2a2a;fill-opacity:1;stroke:none;stroke-width:1px;stroke-linecap:butt;stroke-linejoin:miter;stroke-opacity:1"
     d="m 1525.3216,209.74505 c 108.7231,3.53992 130.1246,18.892 135.066,139.16307 4.9415,120.27106 8.2357,533.72464 0,637.4459 -8.2358,103.72138 -19.5168,155.31828 -80.0817,158.45248 -60.5648,3.1342 -91.9789,1.3823 -110.065,1.6754 -359.3752,5.8226 -592.42479,11.4246 -862.38029,4.0971 -35.4153,-0.9613 -282.48573,-4.1496 -357.43092,-4.595 -74.9452,-0.4453 -100.47598,-36.8343 -102.12313,-133.2022 -1.64714,-96.36787 3.2943,-359.05851 4.94145,-448.81822 1.64714,-89.75971 2.47072,-213.29091 7.41216,-265.14665 4.94144,-51.85573 31.29579,-87.93642 164.71471,-87.96704 133.41893,-0.0307 1092.06842,-4.61723 1199.94672,-1.10484 z"
     id="path1860"
     inkscape:connector-curvature="0"
     sodipodi:nodetypes="ssssssssssss" />
  <path
     style="fill:#dca70a;fill-opacity:1;stroke:none;stroke-width:1px;stroke-linecap:butt;stroke-linejoin:miter;stroke-opacity:1"
     d="m 1804.2691,1459.7647 v 0 c 0,-2e-4 0.011,4e-4 0.016,10e-5 z m 0,0 c -121.3042,6.3688 -708.6782,15.726 -906.50979,14.5503 -200.6323,-1.1923 -658.1216,-11.248 -890.1913564,-9.2862 0.66391,3.5928 1.36972,7.1731 2.09961,10.745 0.21122,1.0335 0.4203304,2.0678 0.6367204,3.0994 0.3144,1.4989 0.63799,2.9937 0.96289,4.4882 0.17699,0.814 0.35321,1.6281 0.53321,2.4406 0.35199,1.5892 0.70728,3.1768 1.07031,4.7603 0.18986,0.828 0.38536,1.6536 0.57812,2.48 0.3561,1.5268 0.7106,3.0537 1.07618,4.5747 0.12668,0.5271 0.25893,1.0503 0.38671,1.5765 0.89059,3.6684 1.80467,7.3221 2.74414,10.9519 0.048,0.1856 0.0964,0.372 0.14454,0.5575 0.44578,1.7171 0.8981,3.4255 1.35351,5.133 0.1786,0.6696 0.35712,1.3391 0.53711,2.0071 0.42423,1.5747 0.85167,3.1468 1.2832,4.7127 0.19073,0.692 0.38412,1.3816 0.57618,2.0719 0.44515,1.5999 0.88993,3.1972 1.34179,4.7872 0.0402,0.1414 0.0809,0.2813 0.1211,0.4226 1.15257,4.0485 2.32575,8.0674 3.51367,12.0462 0.0126,0.042 0.0245,0.085 0.0371,0.1273 1.17521,3.9344 2.36566,7.8282 3.56445,11.6871 0.10413,0.3352 0.20824,0.6693 0.3125,1.0038 0.76686,2.4611 1.54002,4.8813 2.3125,7.3087 0.83048,2.6092 1.6625,5.2026 2.49609,7.7707 0.62068,1.9125 1.24063,3.8237 1.86133,5.7122 0.88635,2.6963 1.77148,5.361 2.6543,8.006 0.52746,1.5806 1.05703,3.1823 1.58203,4.7438 0.29936,0.8903 0.5923,1.7464 0.89063,2.6303 2.26886,6.7231 4.51769,13.3184 6.68554,19.6452 0.0332,0.097 0.0645,0.191 0.0977,0.2877 2.02305,5.903 4.06085,11.8558 5.93164,17.3693 0.82503,2.4318 1.64074,4.8554 2.42773,7.2058 0.34419,1.0278 0.69896,2.0823 1.03516,3.094 1.18792,3.5752 2.33994,7.0799 3.41602,10.4461 0.20734,0.6487 0.42307,1.2727 0.64648,1.8749 0.2236,0.6029 0.45336,1.1826 0.69336,1.7405 0.47955,1.1148 0.99218,2.1412 1.53906,3.0853 0.54688,0.9441 1.1294,1.8051 1.7461,2.5904 0.30835,0.3928 0.6249,0.7657 0.95117,1.121 0.32658,0.3555 0.66101,0.6922 1.00586,1.0118 0.3445,0.3192 0.6975,0.6219 1.06054,0.9067 1.45246,1.1395 3.05476,2.0084 4.81641,2.6556 0.4403,0.1617 0.88922,0.3088 1.34961,0.4435 1.38168,0.4043 2.85364,0.6904 4.42187,0.8779 1.04504,0.1249 2.1327,0.2063 3.26368,0.2498 2.82744,0.1088 5.92663,-0.019 9.31836,-0.2883 2.71338,-0.2158 5.61407,-0.5231 8.710926,-0.8741 3.09686,-0.351 6.39044,-0.7455 9.89063,-1.1365 1.75009,-0.1955 3.84736,-0.3558 6.24609,-0.4863 2.39874,-0.1305 5.0998,-0.2312 8.05469,-0.3037 2.95488,-0.072 6.16349,-0.1169 9.58203,-0.1384 10.25564,-0.064 22.39056,0.084 35.1543,0.3534 4.25458,0.089 8.57946,0.1926 12.92773,0.3054 13.04483,0.3382 26.30213,0.7639 38.52539,1.184 8.14885,0.2801 15.83847,0.5581 22.69727,0.8048 10.28823,0.37 18.7091,0.6711 24.01367,0.8087 1.76819,0.045 3.18928,0.074 4.21875,0.08 0.97035,0.01 1.8706,0 2.72461,-0.033 0.78215,-0.026 1.51886,-0.069 2.20898,-0.1392 0.0362,2e-4 0.0735,-0.01 0.10938,-0.011 0.3026,-0.032 0.59331,-0.069 0.87891,-0.1118 0.0652,-0.01 0.13092,-0.018 0.19531,-0.028 0.29193,-0.047 0.57521,-0.1007 0.84961,-0.161 0.0361,-0.01 0.0716,-0.017 0.10742,-0.024 0.2978,-0.068 0.5876,-0.1436 0.86523,-0.2292 0.29334,-0.09 0.57596,-0.1911 0.84766,-0.3036 0.30914,-0.128 0.6015,-0.2741 0.88477,-0.4322 0.126,-0.071 0.25228,-0.1423 0.37304,-0.2205 0.0923,-0.058 0.18224,-0.1208 0.27149,-0.1839 0.21069,-0.1506 0.41688,-0.306 0.61132,-0.4808 0.23261,-0.209 0.4537,-0.4352 0.66407,-0.6815 0.20973,-0.2456 0.40891,-0.5099 0.59765,-0.7954 3e-4,-4e-4 -3e-4,0 0,0 0.18871,-0.2856 0.3683,-0.5903 0.53711,-0.9187 2.6e-4,-5e-4 -2.6e-4,0 0,0 0.16689,-0.3248 0.32415,-0.6727 0.47266,-1.0422 0.002,0 0.004,-0.01 0.006,-0.014 0.0239,-0.06 0.0429,-0.1302 0.0664,-0.1911 0.11497,-0.2986 0.22785,-0.6052 0.33204,-0.9336 0.0515,-0.1622 0.0975,-0.3411 0.14648,-0.5108 0.0738,-0.2561 0.14855,-0.5102 0.2168,-0.7839 0.049,-0.1966 0.0944,-0.4084 0.14062,-0.6144 0.063,-0.2804 0.12368,-0.56 0.18164,-0.8583 0.0377,-0.1936 0.0738,-0.3996 0.10938,-0.6009 0.0589,-0.333 0.11638,-0.6698 0.16992,-1.0243 0.0325,-0.2155 0.0631,-0.442 0.0937,-0.6655 0.0415,-0.3027 0.0811,-0.613 0.11914,-0.931 0.11368,-0.9481 0.2087,-1.9839 0.29492,-3.0744 0.0673,-0.8511 0.12124,-1.7882 0.17383,-2.7314 0.0343,-0.614 0.0729,-1.1924 0.10156,-1.847 0.0494,-1.1296 0.0864,-2.3705 0.1211,-3.6263 0.0162,-0.5863 0.0374,-1.1211 0.0508,-1.736 0.041,-1.8835 0.0723,-3.8856 0.0918,-6.0502 2e-4,-0.021 -1.9e-4,-0.039 0,-0.061 3e-5,0 -2e-5,-0.01 0,-0.01 0.0205,-2.3026 0.0323,-4.7694 0.0371,-7.4119 0,-5e-4 0,0 0,0 0.01,-5.292 -0.004,-11.2876 -0.004,-18.0821 0,-1.1139 0.0298,-2.2022 0.0723,-3.2789 0.0124,-0.3153 0.027,-0.6289 0.043,-0.9411 0.0543,-1.0593 0.1198,-2.1083 0.21485,-3.1316 6e-5,-6e-4 -6e-5,0 0,0 0.0729,-0.7842 0.15954,-1.5573 0.25586,-2.3207 8e-5,-6e-4 -9e-5,0 0,0 0.0964,-0.7641 0.20278,-1.5165 0.32226,-2.2599 0.11905,-0.7433 0.25037,-1.4756 0.39258,-2.1988 1.2e-4,-7e-4 -1.3e-4,0 0,0 0.142,-0.7223 0.29673,-1.4337 0.46094,-2.136 1.4e-4,-6e-4 -1.5e-4,0 0,0 0.19041,-0.8141 0.39948,-1.6111 0.61914,-2.3987 0.0615,-0.2206 0.1276,-0.4364 0.1914,-0.655 0.15909,-0.545 0.32505,-1.084 0.49805,-1.6162 0.0891,-0.274 0.18072,-0.5461 0.27344,-0.8168 0.17435,-0.5089 0.35588,-1.0112 0.54297,-1.5084 0.0877,-0.2333 0.17315,-0.469 0.26367,-0.6997 0.28059,-0.7149 0.57016,-1.4215 0.87695,-2.1119 2.4e-4,-5e-4 -2.4e-4,-10e-5 0,0 0.30959,-0.6968 0.63701,-1.3768 0.97266,-2.049 0.10123,-0.2028 0.20697,-0.401 0.31054,-0.6016 0.23866,-0.4622 0.48154,-0.9202 0.73243,-1.3707 0.12729,-0.2286 0.25631,-0.4556 0.38671,-0.6813 0.26216,-0.4536 0.53014,-0.9011 0.80469,-1.3429 0.11326,-0.1822 0.2245,-0.3666 0.33985,-0.5468 0.39377,-0.6153 0.7972,-1.2227 1.21484,-1.8151 3e-4,-3e-4 -3e-4,0 0,0 0.36362,-0.5157 0.73787,-1.0202 1.11914,-1.5187 3.1e-4,-4e-4 -3.1e-4,0 0,0 0.38129,-0.4985 0.7714,-0.988 1.16992,-1.4695 3.2e-4,-4e-4 -3.1e-4,0 0,0 0.39855,-0.4817 0.80729,-0.9537 1.22266,-1.4186 3.2e-4,-3e-4 -3.2e-4,0 0,0 0.41539,-0.465 0.83969,-0.9208 1.27148,-1.3694 3.2e-4,-3e-4 -3.2e-4,0 0,0 2.28581,-2.3745 4.80269,-4.5184 7.51172,-6.4574 0.0136,-0.01 0.0274,-0.019 0.041,-0.029 1.52934,-1.0927 3.12087,-2.1191 4.76953,-3.083 5.9909,-3.5028 12.73162,-6.1801 19.96094,-8.1998 6e-4,-10e-5 0.001,2e-4 0.002,0 0.0599,-0.017 0.12171,-0.031 0.18164,-0.048 15.8633,-4.4026 34.05087,-5.6628 51.7891,-5.5574 7.8229,0.046 41.6058,0 84.6191,-0.065 74.5273,-0.1199 189.407,-0.3473 318.5488,-0.5621 38.6002,-0.064 71.7358,-0.1181 111.2012,-0.1712 37.708,-0.051 75.3076,-0.098 112.13485,-0.1305 43.6121,-0.038 85.5366,-0.059 125.4101,-0.059 7.8691,-2e-4 15.6402,0 23.3008,0 12.7619,0 25.223,0.01 37.3281,0.017 11.259,0.01 21.8632,0.02 32.4746,0.033 9.7771,0.012 19.6413,0.022 28.8047,0.038 11.3195,0.02 21.5358,0.048 31.8164,0.076 7.7559,0.021 15.9696,0.038 23.0762,0.063 12.3948,0.045 23.077,0.1001 33.2969,0.1589 17.3242,0.1029 32.4225,0.2156 42.4687,0.3636 8.7328,0.1289 16.7945,0.5269 24.2657,1.1541 1.123,0.095 2.2382,0.1924 3.3339,0.2971 0.7227,0.069 1.4337,0.1422 2.1446,0.2159 0.8291,0.086 1.6496,0.1746 2.4629,0.2665 0.6811,0.077 1.363,0.1535 2.0332,0.2348 1.0696,0.1296 2.122,0.2653 3.164,0.4055 2.2684,0.3053 4.4718,0.6368 6.6114,0.9905 0.9488,0.1569 1.8903,0.3174 2.8144,0.4835 0.5989,0.1076 1.1869,0.2194 1.7754,0.3309 0.7071,0.1339 1.4072,0.2696 2.0996,0.409 0.5814,0.1169 1.1633,0.2332 1.7344,0.354 0.8564,0.1812 1.6958,0.3686 2.5293,0.558 0.6113,0.1389 1.2172,0.2795 1.8164,0.4229 0.8324,0.1992 1.6576,0.401 2.4668,0.6084 0.5374,0.1378 1.0645,0.2782 1.5918,0.4196 0.5827,0.1563 1.1599,0.3145 1.7305,0.4751 0.5415,0.1525 1.0826,0.3064 1.6132,0.4628 0.7063,0.208 1.3969,0.4207 2.084,0.6354 10.365,3.2391 18.5688,7.2298 25.0508,11.7251 0.1954,0.1355 0.3956,0.2693 0.5879,0.4057 0.4096,0.2907 0.8075,0.5856 1.2031,0.8803 0.2131,0.1588 0.4237,0.3184 0.6328,0.4784 0.3854,0.2945 0.7687,0.5892 1.1406,0.8875 0.138,0.1108 0.2702,0.2233 0.4063,0.3345 2.8253,2.307 5.2621,4.7198 7.3555,7.2137 0.01,0.012 0.021,0.023 0.031,0.035 0,0 0.01,0.01 0.01,0.012 0.4182,0.4995 0.8195,1.0036 1.2109,1.5091 0.044,0.057 0.091,0.1134 0.1348,0.1707 0.3685,0.4802 0.7232,0.9626 1.0683,1.4478 0.06,0.084 0.1208,0.1672 0.1797,0.251 0.3576,0.5093 0.7023,1.0213 1.0352,1.5355 0.011,0.018 0.024,0.035 0.035,0.053 0.01,0.013 0.015,0.026 0.023,0.039 0.3437,0.5337 0.676,1.0691 0.9941,1.6075 0.01,0.016 0.02,0.033 0.029,0.049 0.01,0.017 0.019,0.035 0.029,0.053 0.3123,0.5313 0.614,1.0635 0.9024,1.599 0.024,0.044 0.047,0.087 0.07,0.1313 0.2909,0.5443 0.5707,1.0899 0.8379,1.6378 0,0 0,0.01 0.01,0.012 0,0.01 0.01,0.014 0.01,0.021 0.2771,0.5695 0.5424,1.141 0.7949,1.7138 2.4736,5.6108 3.7863,11.3662 4.4317,16.9989 0.054,0.4722 0.096,0.9409 0.1406,1.411 0.8582,8.9811 0.1226,17.5577 -0.2735,24.641 -0.035,0.6346 -0.064,1.2454 -0.092,1.8549 -0.066,1.4311 -0.1152,2.8133 -0.1152,4.0911 0,0.6912 0.01,1.287 0.01,1.9414 0,1.1841 0.011,2.3357 0.025,3.4045 0.016,1.2073 0.033,2.3823 0.068,3.4516 0.1103,3.3251 0.3386,5.9968 0.7832,8.1726 0.085,0.4154 0.1791,0.8136 0.2812,1.1931 0.049,0.1815 0.1,0.3585 0.1524,0.5321 0.1255,0.4119 0.2599,0.8069 0.4101,1.1764 0.1491,0.3676 0.3068,0.7211 0.4824,1.0496 0.1557,0.2903 0.3219,0.5654 0.5,0.8273 0,0 0,0.01 0.01,0.01 0.1763,0.2583 0.365,0.5035 0.5645,0.7357 0.4038,0.4703 0.8569,0.8905 1.3652,1.266 0.088,0.065 0.1824,0.1249 0.2734,0.1872 0.1313,0.09 0.264,0.1792 0.4024,0.264 0.1328,0.081 0.2707,0.1583 0.4101,0.2349 0.078,0.043 0.1582,0.085 0.2383,0.1264 0.4241,0.2198 0.8731,0.4243 1.3594,0.6097 0.6882,0.2623 1.4411,0.4931 2.2637,0.699 0.4113,0.103 0.8399,0.1991 1.2871,0.2909 0.6333,0.1299 1.3087,0.2473 2.0175,0.3596 0.2796,0.045 0.5872,0.087 0.879,0.1283 0.5357,0.077 1.0644,0.155 1.6425,0.2266 3.3824,0.4185 7.5046,0.7562 12.5274,1.2228 1.6743,0.1554 3.6755,0.2684 5.9668,0.3441 1.1457,0.038 2.3627,0.066 3.6484,0.086 1.2862,0.021 2.6399,0.033 4.0566,0.038 5.598,0.019 12.1913,-0.075 19.459,-0.228 3.2438,-0.069 6.7069,0.306 10.3321,0.9793 43.8651,0.3641 104.9548,-0.063 132.414,2.1658 38.6463,3.1364 37.2727,1.9788 65.9121,-68.7762 0.06,-0.1541 0.1128,-0.3078 0.1739,-0.4619 0.9202,-2.3192 1.8181,-4.6553 2.7011,-7.0093 0.3914,-1.0442 0.7683,-2.1064 1.1524,-3.1592 0.4725,-1.2945 0.9487,-2.5866 1.4101,-3.8959 0.4595,-1.3053 0.9052,-2.6308 1.3536,-3.953 0.3748,-1.1041 0.75,-2.2062 1.1171,-3.3233 9.9251,-30.2433 16.9808,-65.4517 20.8594,-116.9718 z"
     id="path1864"
     inkscape:connector-curvature="0" />
  <path
     style="fill:#3c75b0;fill-opacity:1;stroke:none;stroke-width:1px;stroke-linecap:butt;stroke-linejoin:miter;stroke-opacity:1"
     d="m 122.09036,1103.5289 c 4.65884,-43.649 6.4059,-16.8503 19.2177,10.5966 12.8118,27.4467 34.35891,54.363 125.78856,58.9829 91.42965,4.6198 440.25999,11.3516 525.86609,11.8604 85.6061,0.5087 505.48369,-1.0725 602.73689,-6.3181 97.2532,-5.2456 204.4064,-8.103 227.1182,-23.6915 22.7118,-15.5887 41.9295,-51.5804 46.5884,-67.2763 4.6588,-15.6959 8.1529,-13.928 9.9,20.4413 1.747,34.3693 10.4824,118.8626 11.6471,136.3401 1.1647,17.4775 0.5823,15.7271 -11.6471,12.1603 -12.2295,-3.5669 -128.7004,0.3998 -204.9888,12.1759 -76.2884,11.776 -138.018,56.2505 -156.071,100.4022 -18.053,44.1516 -8.1529,68.087 8.153,80.9957 16.3059,12.9086 0,13.9765 -37.8531,14.9163 -37.853,0.9397 -289.43009,-3.4671 -431.52459,-3.1468 -142.0945,0.3202 -370.9598,1.8719 -384.354,0.6276 -13.3941,-1.2443 -13.3941,-7.0679 -3.4941,-15.7443 9.9,-8.6765 22.1295,-17.3391 19.8001,-51.1296 -2.3295,-33.7903 -51.2472,-98.14 -132.77685,-120.1716 -81.52963,-22.0317 -204.40642,-23.3442 -221.2947,-20.5328 -16.88828,2.8113 -25.04124,12.663 -23.87653,-7.1302 1.16471,-19.7931 9.31767,-122.239 11.06473,-144.3581 z"
     id="path1869"
     inkscape:connector-curvature="0" />
  <path
     style="fill:#515151;fill-opacity:1;stroke:none;stroke-width:1px;stroke-linecap:butt;stroke-linejoin:miter;stroke-opacity:1"
     d="m 537.30911,286.62366 c 0.5823,-19.79664 -2.3294,-19.23155 26.2059,-20.80907 28.5354,-1.57742 669.12529,0.48234 690.67239,0.61039 21.5471,0.12804 27.3707,2.49205 26.7883,27.52979 -0.5823,25.03784 0,123.4592 -0.5823,142.67344 -0.5824,19.21424 -1.7471,23.28382 -24.4589,21.98415 -22.7118,-1.29967 -671.45469,-1.66088 -694.16649,-1.21355 -22.7119,0.44743 -24.4589,-3.63945 -24.4589,-26.35125 0,-22.7118 -0.5824,-119.38616 0,-144.4239 z"
     id="path1871"
     inkscape:connector-curvature="0" />
  <path
     style="fill:#6e6e6e;fill-opacity:1;stroke:none;stroke-width:1px;stroke-linecap:butt;stroke-linejoin:miter;stroke-opacity:1"
     d="m 399.87341,264.25981 c 19.8001,0.69997 20.9648,2.45399 21.5471,19.92805 0.5824,17.47406 0,44.8413 -0.5823,58.81434 -0.5824,13.97304 -6.4059,18.01493 -17.4706,18.53158 -11.0648,0.51654 -162.47694,0.19914 -175.28874,-0.4594 -12.81179,-0.65843 -17.47063,-3.59792 -18.05298,-20.48968 -0.58236,-16.89176 0,-50.0825 0.58235,-61.14374 0.58236,-11.06124 1.74706,-14.54852 18.63534,-15.03046 16.88828,-0.48203 149.66513,-1.43998 170.62983,-0.15069 z"
     id="path1873"
     inkscape:connector-curvature="0" />
  <path
     style="fill:#e9e9e9;fill-opacity:1;stroke:none;stroke-width:1px;stroke-linecap:butt;stroke-linejoin:miter;stroke-opacity:1"
     d="m 265.64074,357.8035 c 20.3824,-0.17007 41.92952,-16.34792 42.80305,-44.00463 0.87353,-27.65661 -22.12947,-41.18741 -42.2207,-41.59801 -20.09123,-0.41059 -39.89128,18.10704 -40.76481,42.85195 -0.87353,24.74491 16.01475,44.06297 40.18246,42.75069 z"
     id="path1875"
     inkscape:connector-curvature="0" />
  <path
     style="fill:#e25138;fill-opacity:1;stroke:none;stroke-width:1px;stroke-linecap:butt;stroke-linejoin:miter;stroke-opacity:1"
     d="m 326.78796,315.65498 c 0,-23.003 18.05298,-41.82221 37.85304,-41.99574 19.80001,-0.17354 41.63831,12.47694 41.63831,43.92404 0,31.4471 -20.3824,39.77017 -36.10595,39.96793 -15.72357,0.19766 -42.51187,-11.02623 -43.3854,-41.89623 z"
     id="path1877"
     inkscape:connector-curvature="0" />
  <path
     style="fill:#6e6e6e;fill-opacity:1;stroke:none;stroke-width:1px;stroke-linecap:butt;stroke-linejoin:miter;stroke-opacity:1"
     d="m 1397.1554,276.3011 c 0.8736,-7.56541 1.1648,-8.72838 9.6089,-9.2606 8.4441,-0.53212 174.7063,-0.41767 185.7711,0.23049 11.0647,0.64805 12.2294,2.69327 12.5206,14.34211 0.2912,11.64883 0.2912,50.95773 -0.2912,62.31016 -0.5823,11.35244 -2.9118,16.5798 -11.0647,16.53135 -8.153,-0.0485 -178.4917,0.68637 -187.227,0.63446 -8.7353,-0.0519 -10.1912,-5.59296 -10.1912,-12.29006 0,-6.6971 0.5824,-64.05554 0.8735,-72.49791 z"
     id="path1883"
     inkscape:connector-curvature="0" />
  <path
     style="fill:#e25138;fill-opacity:1;stroke:none;stroke-width:1px;stroke-linecap:butt;stroke-linejoin:miter;stroke-opacity:1"
     d="m 1446.6555,354.92186 c 33.7766,-0.67277 42.2207,-25.37269 41.3472,-43.72198 -0.8735,-18.34939 -13.103,-38.80447 -39.8913,-39.83717 -26.7883,-1.03279 -42.803,19.25444 -43.0942,41.38221 -0.2912,22.12777 13.9765,42.01256 41.6383,42.17694 z"
     id="path1879"
     inkscape:connector-curvature="0" />
  <path
     style="fill:#e9e9e9;fill-opacity:1;stroke:none;stroke-width:1px;stroke-linecap:butt;stroke-linejoin:miter;stroke-opacity:1"
     d="m 1551.7295,272.81289 c -31.1679,-0.33952 -43.3444,20.45512 -42.1797,43.46504 1.1647,23.00992 14.2677,39.10259 43.3855,38.69323 29.1177,-0.40927 38.7265,-18.69636 39.0177,-41.98883 0.2912,-23.29247 -12.5375,-39.86781 -40.2235,-40.16944 z"
     id="path1881"
     inkscape:connector-curvature="0"
     sodipodi:nodetypes="sscss" />
  <path
     style="fill:#626262;fill-opacity:1;stroke:none;stroke-width:1px;stroke-linecap:butt;stroke-linejoin:miter;stroke-opacity:1"
     d="m 209.79882,539.22405 c 3.94798,-30.57334 4.93498,-27.60657 41.45379,-28.37655 36.51881,-0.76988 1289.01539,0.75138 1318.62529,0.92734 29.6098,0.17596 33.5578,5.13443 34.5448,40.67209 0.987,35.53767 0.987,485.60737 0,521.13337 -0.987,35.5259 -3.948,42.4173 -28.6229,42.2707 -24.6748,-0.1467 -574.431,-1.4397 -740.24619,-0.4511 -165.8151,0.9886 -548.76918,-1.2872 -587.26199,-2.503 -38.4928,-1.2157 -45.40176,-4.2178 -45.40176,-33.8277 0,-29.6098 5.92197,-502.34522 6.90896,-539.84515 z"
     id="path1885"
     inkscape:connector-curvature="0" />
  <path
     style="fill:#aa7601;fill-opacity:1;stroke:none;stroke-width:1px;stroke-linecap:butt;stroke-linejoin:miter;stroke-opacity:1"
     d="m 1623.3133,1262.8372 c 45.0117,-2.5458 75.4883,7.0128 64.7043,57.118 -10.7841,50.1052 -31.4144,105.3095 -77.8328,121.913 -46.4183,16.6036 -210.0545,21.2576 -238.1868,20.1526 -28.1323,-1.1049 -55.3269,-19.0837 -55.7958,-45.8122 -0.4688,-26.7284 26.2568,-85.6474 79.2394,-112.0583 52.9825,-26.4108 189.893,-39.1945 227.8717,-41.3131 z"
     id="path1890"
     inkscape:connector-curvature="0" />
  <path
     style="fill:#a2a2a2;fill-opacity:1;stroke:none;stroke-width:1px;stroke-linecap:butt;stroke-linejoin:miter;stroke-opacity:1"
     d="m 1421.6984,1305.2442 c 52.0448,-0.6285 76.895,27.1825 78.3016,65.1696 1.4066,37.987 -26.7257,76.7361 -70.7997,77.412 -44.0739,0.6757 -71.2685,-41.2155 -72.6751,-68.8872 -1.4066,-27.6718 16.8794,-70.2305 65.1732,-73.6944 z"
     id="path1892"
     inkscape:connector-curvature="0" />
  <path
     style="fill:#d6d6d6;fill-opacity:1;stroke:none;stroke-width:1px;stroke-linecap:butt;stroke-linejoin:miter;stroke-opacity:1"
     d="m 1515.0039,1366.2831 c 0.4689,-41.7268 28.1323,-74.8523 70.7996,-76.9431 42.6673,-2.0908 71.7374,34.185 71.7374,69.8193 0,35.6343 -29.4245,72.9692 -68.8097,73.6728 -39.3853,0.7038 -73.7273,-22.0061 -73.7273,-66.549 z"
     id="path1894"
     inkscape:connector-curvature="0"
     sodipodi:nodetypes="ccscc" />
  <path
     style="fill:#aa7601;fill-opacity:1;stroke:none;stroke-width:1px;stroke-linecap:butt;stroke-linejoin:miter;stroke-opacity:1"
     d="m 111.27242,1321.2823 c -2.5299,-42.6343 9.75841,-61.542 48.79205,-59.7853 39.03363,1.7567 92.39993,0.854 160.40385,16.2008 68.00389,15.3466 106.42769,32.3472 134.17809,77.3398 27.7505,44.9927 25.006,68.1525 14.6377,81.8137 -10.3684,13.6611 -17.3822,22.768 -66.4792,22.1713 -49.09701,-0.5968 -95.7544,1.2606 -151.25536,-6.9979 -55.50095,-8.2585 -83.55638,-11.7798 -104.59795,-41.4849 -21.04157,-29.7052 -34.22939,-64.8255 -35.67918,-89.2575 z"
     id="path1900"
     inkscape:connector-curvature="0"
     sodipodi:nodetypes="sccccsscs" />
  <path
     style="fill:#d6d6d6;fill-opacity:1;stroke:none;stroke-width:1px;stroke-linecap:butt;stroke-linejoin:miter;stroke-opacity:1"
     d="m 214.95552,1433.2052 c 41.16774,-0.1279 76.54252,-29.1253 75.93262,-70.6021 -0.6099,-41.4769 -38.64273,-71.6234 -72.88312,-72.0965 -38.72868,-0.5351 -70.44352,24.8923 -69.22372,72.4718 1.21981,47.5795 39.93361,70.3084 66.17422,70.2268 z"
     id="path1896"
     inkscape:connector-curvature="0"
     sodipodi:nodetypes="sssss" />
  <path
     style="fill:#a2a2a2;fill-opacity:1;stroke:none;stroke-width:1px;stroke-linecap:butt;stroke-linejoin:miter;stroke-opacity:1"
     d="m 304.61091,1375.7975 c 0.30338,-45.7965 29.58018,-70.5727 68.6138,-70.9506 39.0336,-0.378 70.7485,29.3907 72.8831,68.437 2.1347,39.0464 -23.1762,73.6603 -65.5643,72.7985 -42.38807,-0.8618 -76.18316,-32.4624 -75.9326,-70.2849 z"
     id="path1898"
     inkscape:connector-curvature="0"
     sodipodi:nodetypes="sssss" />
</svg>
