<?xml version="1.0" encoding="UTF-8" standalone="no"?>
<!-- Created with Inkscape (http://www.inkscape.org/) -->

<svg
   xmlns:dc="http://purl.org/dc/elements/1.1/"
   xmlns:cc="http://creativecommons.org/ns#"
   xmlns:rdf="http://www.w3.org/1999/02/22-rdf-syntax-ns#"
   xmlns:svg="http://www.w3.org/2000/svg"
   xmlns="http://www.w3.org/2000/svg"
   xmlns:sodipodi="http://sodipodi.sourceforge.net/DTD/sodipodi-0.dtd"
   xmlns:inkscape="http://www.inkscape.org/namespaces/inkscape"
   version="1.1"
   id="svg1286"
   width="1807.9031"
   height="1670.5399"
   viewBox="0 0 1807.903 1670.5399"
   sodipodi:docname="xtrap.svg"
   inkscape:version="0.92.2 5c3e80d, 2017-08-06">
  <metadata
     id="metadata1292">
    <rdf:RDF>
      <cc:Work
         rdf:about="">
        <dc:format>image/svg+xml</dc:format>
        <dc:type
           rdf:resource="http://purl.org/dc/dcmitype/StillImage" />
        <dc:title></dc:title>
      </cc:Work>
    </rdf:RDF>
  </metadata>
  <defs
     id="defs1290" />
  <sodipodi:namedview
     pagecolor="#ffffff"
     bordercolor="#666666"
     borderopacity="1"
     objecttolerance="10"
     gridtolerance="10"
     guidetolerance="10"
     inkscape:pageopacity="0"
     inkscape:pageshadow="2"
     inkscape:window-width="1442"
     inkscape:window-height="861"
     id="namedview1288"
     showgrid="false"
     inkscape:zoom="0.14492255"
     inkscape:cx="523.96817"
     inkscape:cy="59.336495"
     inkscape:window-x="-1"
     inkscape:window-y="0"
     inkscape:window-maximized="0"
     inkscape:current-layer="svg1286" />
  <path
     style="fill:#1f1f1f;fill-opacity:1;stroke:none;stroke-width:1px;stroke-linecap:butt;stroke-linejoin:miter;stroke-opacity:1"
     d="m 267.02144,1670.1467 c 95.7408,1.725 1244.63036,-9.4878 1272.23126,-9.4878 27.601,0 -6.9002,-140.5924 -6.9002,-140.5924 l -1305.86995,12.0754 z"
     id="path1902"
     inkscape:connector-curvature="0" />
  <path
     style="fill:#e4ba09;fill-opacity:1;stroke:none;stroke-width:1px;stroke-linecap:butt;stroke-linejoin:miter;stroke-opacity:1"
     d="m 1526.9687,11.841985 c 181.1862,13.1771 184.4805,41.1786 219.0706,93.887395 34.5901,52.7087 36.2372,32.9429 37.8844,140.0075 1.6471,107.0645 -3.2943,464.4955 14.8243,818.63212 18.1186,354.1366 8.7865,449.8915 -23.0601,528.7342 -28.8562,71.4393 -27.3589,72.54 -66.0993,69.6263 -39.4373,-2.9661 -149.0827,0 -175.871,-2.3294 -26.7883,-2.3294 -27.9531,-1.1647 -27.9531,-27.953 0,-26.7883 18.6354,-89.6826 -114.1414,-90.8473 -132.7768,-1.1647 -956.71289,6.2069 -1004.48019,6.2069 -47.76728,0 -98.82884,9.8829 -98.82884,64.2387 0,54.3559 0.82358,57.6502 -15.6479,57.6502 -16.47147,0 -133.41891,-4.9415 -161.42042,-1.6472 -28.001496,3.2943 -42.779256,6.7515 -49.414406,-13.9658 C 43.480114,1596.7836 7.4754836,1508.2752 0.88689357,1420.1528 -5.7016864,1332.0304 26.417684,777.76538 31.359124,660.81788 c 4.94144,-116.9474 13.17717,-398.6096 16.47147,-459.554 3.29429,-60.9445 39.53153,-153.184695 158.126116,-172.950495 118.5946,-19.7657001 451.3183,-28.00150007 708.2733,-28.00150007 256.95489,0 471.08409,-3.29430003 612.73869,11.53010007 z"
     id="path1858"
     inkscape:connector-curvature="0"
     sodipodi:nodetypes="cssssssssssssssssssc" />
  <path
     style="fill:#764d02;fill-opacity:1;stroke:none;stroke-width:1px;stroke-linecap:butt;stroke-linejoin:miter;stroke-opacity:1"
     d="m 1659.5641,332.21208 c 0,-84.0045 -1.6472,-131.7718 -74.1217,-144.949 -72.4744,-13.1771 -437.3175,-14.8243 -617.68009,-16.4714 -180.3627,-1.6472 -575.678,11.53 -689.33112,20.5893 -113.65315,9.0593 -114.47673,55.1794 -119.41817,134.2425 -4.94144,79.0631 30.47222,-66.7095 30.47222,-66.7095 l 184.48047,-28.0015 1220.53609,-4.1178 32.9429,40.3551 z"
     id="path1862"
     inkscape:connector-curvature="0" />
  <path
     style="fill:#2a2a2a;fill-opacity:1;stroke:none;stroke-width:1px;stroke-linecap:butt;stroke-linejoin:miter;stroke-opacity:1"
     d="m 1525.3216,206.20528 c 108.7231,2.8938 130.1246,18.1187 135.066,138.3604 4.9415,120.2417 8.2357,533.6757 0,637.4459 -8.2358,103.77032 -19.5168,155.43422 -80.0817,158.92842 -60.5648,3.4941 -91.9789,1.9289 -110.065,2.3294 -359.3752,7.9583 -592.42479,14.9453 -862.38029,9.222 -35.4153,-0.7508 -282.48573,-2.4708 -357.43092,-2.4708 -74.9452,0 -100.47598,-36.2372 -102.12313,-132.5953 -1.64714,-96.35812 3.2943,-359.07812 4.94145,-448.84762 1.64714,-89.7695 2.47072,-213.3056 7.41216,-265.1907 4.94144,-51.8851 31.29579,-88.1224 164.71471,-88.9459 133.41893,-0.8236 1092.06842,-11.1071 1199.94672,-8.2358 z"
     id="path1860"
     inkscape:connector-curvature="0"
     sodipodi:nodetypes="ssssssssssss" />
  <path
     style="fill:#dca70a;fill-opacity:1;stroke:none;stroke-width:1px;stroke-linecap:butt;stroke-linejoin:miter;stroke-opacity:1"
     d="m 1804.2691,1454.5672 v 0 c 0,-2e-4 0.011,3e-4 0.016,0 z m 0,0 c -121.3042,7.0897 -708.6782,19.9375 -906.50979,19.9375 -200.6323,0 -658.1216,-7.337 -890.1913564,-3.9961 0.66391,3.5889 1.36972,7.165 2.09961,10.7325 0.21122,1.0323 0.4203304,2.0654 0.6367204,3.0957 0.3144,1.497 0.63799,2.9899 0.96289,4.4824 0.17699,0.813 0.35321,1.626 0.53321,2.4375 0.35199,1.5871 0.70728,3.1726 1.07031,4.7539 0.18986,0.8269 0.38536,1.6513 0.57812,2.4766 0.3561,1.5247 0.7106,3.0495 1.07618,4.5683 0.12668,0.5263 0.25893,1.0487 0.38671,1.5742 0.89059,3.6631 1.80467,7.3114 2.74414,10.9356 0.048,0.1853 0.0964,0.3714 0.14454,0.5566 0.44578,1.7145 0.8981,3.4202 1.35351,5.125 0.1786,0.6685 0.35712,1.337 0.53711,2.0039 0.42423,1.5722 0.85167,3.1417 1.2832,4.7051 0.19073,0.6908 0.38412,1.3793 0.57618,2.0684 0.44515,1.5973 0.88993,3.1919 1.34179,4.7793 0.0402,0.1411 0.0809,0.2808 0.1211,0.4218 1.15257,4.0417 2.32575,8.0536 3.51367,12.0254 0.0126,0.042 0.0245,0.085 0.0371,0.127 1.17521,3.9275 2.36566,7.8142 3.56445,11.666 0.10413,0.3345 0.20824,0.668 0.3125,1.0019 0.76686,2.4565 1.54002,4.8721 2.3125,7.295 0.83048,2.6042 1.6625,5.1927 2.49609,7.7558 0.62068,1.9088 1.24063,3.8163 1.86133,5.7012 0.88635,2.691 1.77148,5.3504 2.6543,7.9902 0.52746,1.5775 1.05703,3.176 1.58203,4.7344 0.29936,0.8885 0.5923,1.7429 0.89063,2.625 2.26886,6.7096 4.51769,13.2915 6.68554,19.6055 0.0332,0.097 0.0645,0.1906 0.0977,0.2871 2.02305,5.891 4.06085,11.8316 5.93164,17.334 0.82503,2.4269 1.64074,4.8457 2.42773,7.1914 0.34419,1.0258 0.69896,2.0781 1.03516,3.0879 1.18792,3.5681 2.33994,7.0659 3.41602,10.4258 0.20734,0.6474 0.42307,1.2701 0.64648,1.871 0.2236,0.6016 0.45336,1.1799 0.69336,1.7364 0.47955,1.1119 0.99218,2.1353 1.53906,3.0761 0.54688,0.9409 1.1294,1.7984 1.7461,2.5801 0.30835,0.3909 0.6249,0.762 0.95117,1.1153 0.32658,0.3536 0.66101,0.6883 1.00586,1.0058 0.3445,0.3172 0.6975,0.6178 1.06054,0.9004 1.45246,1.1309 3.05476,1.9903 4.81641,2.627 0.4403,0.1591 0.88922,0.3035 1.34961,0.4355 1.38168,0.3961 2.85364,0.6734 4.42187,0.8516 1.04504,0.1187 2.1327,0.1936 3.26368,0.2304 2.82744,0.092 5.92663,-0.054 9.31836,-0.3437 2.71338,-0.2319 5.61407,-0.5564 8.710926,-0.9258 3.09686,-0.3694 6.39044,-0.7835 9.89063,-1.1953 1.75009,-0.2059 3.84736,-0.3787 6.24609,-0.5234 2.39874,-0.1448 5.0998,-0.2615 8.05469,-0.3516 2.95488,-0.09 6.16349,-0.1535 9.58203,-0.1953 10.25564,-0.1254 22.39056,-0.049 35.1543,0.1445 4.25458,0.064 8.57946,0.1416 12.92773,0.2285 13.04483,0.2607 26.30213,0.6076 38.52539,0.9551 8.14885,0.2317 15.83847,0.464 22.69727,0.6699 10.28823,0.3089 18.7091,0.5599 24.01367,0.666 1.76819,0.035 3.18928,0.055 4.21875,0.055 0.97035,0 1.8706,-0.016 2.72461,-0.049 0.78215,-0.031 1.51886,-0.078 2.20898,-0.1523 0.0362,0 0.0735,-0.01 0.10938,-0.012 0.3026,-0.034 0.59331,-0.073 0.87891,-0.1171 0.0652,-0.01 0.13092,-0.019 0.19531,-0.029 0.29193,-0.049 0.57521,-0.1042 0.84961,-0.1661 0.0361,-0.01 0.0716,-0.017 0.10742,-0.025 0.2978,-0.07 0.5876,-0.1471 0.86523,-0.2344 0.29334,-0.092 0.57596,-0.1945 0.84766,-0.3086 0.30914,-0.1298 0.6015,-0.2777 0.88477,-0.4375 0.126,-0.072 0.25228,-0.1438 0.37304,-0.2227 0.0923,-0.059 0.18224,-0.1219 0.27149,-0.1855 0.21069,-0.1518 0.41688,-0.3085 0.61132,-0.4844 0.23261,-0.2104 0.4537,-0.4379 0.66407,-0.6855 0.20973,-0.2468 0.40891,-0.5123 0.59765,-0.7989 3e-4,-4e-4 -3e-4,0 0,0 0.18871,-0.2867 0.3683,-0.5925 0.53711,-0.9219 2.6e-4,-5e-4 -2.6e-4,0 0,0 0.16689,-0.3258 0.32415,-0.6746 0.47266,-1.045 0.002,0 0.004,-0.01 0.006,-0.014 0.0239,-0.06 0.0429,-0.1304 0.0664,-0.1914 0.11497,-0.2993 0.22785,-0.6066 0.33204,-0.9356 0.0515,-0.1625 0.0975,-0.3417 0.14648,-0.5117 0.0738,-0.2565 0.14855,-0.5111 0.2168,-0.7852 0.049,-0.1969 0.0944,-0.4089 0.14062,-0.6152 0.063,-0.2808 0.12368,-0.5608 0.18164,-0.8594 0.0377,-0.1938 0.0738,-0.4 0.10938,-0.6015 0.0589,-0.3334 0.11638,-0.6705 0.16992,-1.0254 0.0325,-0.2157 0.0631,-0.4423 0.0937,-0.666 0.0415,-0.303 0.0811,-0.6135 0.11914,-0.9317 0.11368,-0.9488 0.2087,-1.9852 0.29492,-3.0762 0.0673,-0.8515 0.12124,-1.7889 0.17383,-2.7324 0.0343,-0.6142 0.0729,-1.1928 0.10156,-1.8476 0.0494,-1.1299 0.0864,-2.371 0.1211,-3.627 0.0162,-0.5864 0.0374,-1.1214 0.0508,-1.7363 0.041,-1.8838 0.0723,-3.8861 0.0918,-6.0508 2e-4,-0.021 -1.9e-4,-0.039 0,-0.061 3e-5,0 -2e-5,-0.01 0,-0.01 0.0205,-2.3027 0.0323,-4.7696 0.0371,-7.4121 0,-5e-4 0,0 0,0 0.01,-5.2921 -0.004,-11.2876 -0.004,-18.0821 0,-1.1139 0.0298,-2.2024 0.0723,-3.2793 0.0124,-0.3154 0.027,-0.6291 0.043,-0.9414 0.0543,-1.0596 0.1198,-2.109 0.21485,-3.1328 6e-5,-6e-4 -6e-5,0 0,0 0.0729,-0.7847 0.15954,-1.5583 0.25586,-2.3223 8e-5,-6e-4 -9e-5,0 0,0 0.0964,-0.7646 0.20278,-1.5177 0.32226,-2.2618 0.11905,-0.744 0.25037,-1.4771 0.39258,-2.2011 1.2e-4,-7e-4 -1.3e-4,0 0,0 0.142,-0.7231 0.29673,-1.4355 0.46094,-2.1387 1.4e-4,-6e-4 -1.5e-4,0 0,0 0.19041,-0.8153 0.39948,-1.6135 0.61914,-2.4024 0.0615,-0.221 0.1276,-0.4372 0.1914,-0.6562 0.15909,-0.5459 0.32505,-1.0859 0.49805,-1.6191 0.0891,-0.2746 0.18072,-0.5472 0.27344,-0.8184 0.17435,-0.51 0.35588,-1.0134 0.54297,-1.5117 0.0877,-0.2338 0.17315,-0.47 0.26367,-0.7012 0.28059,-0.7166 0.57016,-1.4249 0.87695,-2.1172 2.4e-4,-5e-4 -2.4e-4,0 0,0 0.30959,-0.6986 0.63701,-1.3805 0.97266,-2.0547 0.10123,-0.2034 0.20697,-0.4023 0.31054,-0.6035 0.23866,-0.4636 0.48154,-0.923 0.73243,-1.375 0.12729,-0.2294 0.25631,-0.4572 0.38671,-0.6836 0.26216,-0.4552 0.53014,-0.9043 0.80469,-1.3477 0.11326,-0.1829 0.2245,-0.3679 0.33985,-0.5488 0.39377,-0.6177 0.7972,-1.2275 1.21484,-1.8223 3e-4,-4e-4 -3e-4,0 0,0 0.36362,-0.5179 0.73787,-1.0246 1.11914,-1.5254 3.1e-4,-4e-4 -3.1e-4,0 0,0 0.38129,-0.5008 0.7714,-0.9926 1.16992,-1.4765 3.2e-4,-4e-4 -3.1e-4,0 0,0 0.39855,-0.484 0.80729,-0.9584 1.22266,-1.4258 3.2e-4,-3e-4 -3.2e-4,0 0,0 0.41539,-0.4675 0.83969,-0.9258 1.27148,-1.377 3.2e-4,-3e-4 -3.2e-4,0 0,0 2.28581,-2.3881 4.80269,-4.5469 7.51172,-6.502 0.0136,-0.01 0.0274,-0.019 0.041,-0.029 1.52934,-1.1017 3.12087,-2.1376 4.76953,-3.1113 5.9909,-3.5384 12.73162,-6.2558 19.96094,-8.3184 6e-4,-10e-5 0.001,2e-4 0.002,0 0.0599,-0.017 0.12171,-0.032 0.18164,-0.049 15.8633,-4.4969 34.05087,-5.8652 51.7891,-5.8652 7.8229,0 41.6058,-0.2428 84.6191,-0.5684 74.5273,-0.5628 189.407,-1.4729 318.5488,-2.4551 38.6002,-0.2937 71.7358,-0.5444 111.2012,-0.832 37.708,-0.2749 75.3076,-0.5457 112.13485,-0.7969 43.6121,-0.2974 85.5366,-0.5675 125.4101,-0.8047 7.8691,-0.047 15.6402,-0.093 23.3008,-0.1367 12.7619,-0.073 25.223,-0.1414 37.3281,-0.2051 11.259,-0.059 21.8632,-0.1097 32.4746,-0.1601 9.7771,-0.046 19.6413,-0.095 28.8047,-0.1328 11.3195,-0.047 21.5358,-0.08 31.8164,-0.1133 7.7559,-0.025 15.9696,-0.057 23.0762,-0.074 12.3948,-0.029 23.077,-0.037 33.2969,-0.039 17.3242,0 32.4225,0.023 42.4687,0.1113 8.7328,0.077 16.7945,0.427 24.2657,1.0098 1.123,0.088 2.2382,0.1791 3.3339,0.2773 0.7227,0.065 1.4337,0.1337 2.1446,0.2032 0.8291,0.081 1.6496,0.1648 2.4629,0.2519 0.6811,0.073 1.363,0.1454 2.0332,0.2227 1.0696,0.1232 2.122,0.2527 3.164,0.3867 2.2684,0.2918 4.4718,0.6102 6.6114,0.9512 0.9488,0.1512 1.8903,0.3061 2.8144,0.4668 0.5989,0.104 1.1869,0.2123 1.7754,0.3203 0.7071,0.1297 1.4072,0.2612 2.0996,0.3965 0.5814,0.1135 1.1633,0.2263 1.7344,0.3437 0.8564,0.1761 1.6958,0.3585 2.5293,0.543 0.6113,0.1353 1.2172,0.2723 1.8164,0.4121 0.8324,0.1942 1.6576,0.3911 2.4668,0.5937 0.5374,0.1346 1.0645,0.2719 1.5918,0.4102 0.5827,0.1528 1.1599,0.3076 1.7305,0.4648 0.5415,0.1493 1.0826,0.3 1.6132,0.4532 0.7063,0.2038 1.3969,0.4124 2.084,0.623 10.365,3.1775 18.5688,7.1195 25.0508,11.5762 0.1954,0.1344 0.3956,0.267 0.5879,0.4023 0.4096,0.2882 0.8075,0.5808 1.2031,0.8731 0.2131,0.1575 0.4237,0.3159 0.6328,0.4746 0.3854,0.2923 0.7687,0.5847 1.1406,0.8808 0.138,0.1099 0.2702,0.2217 0.4063,0.3321 2.8253,2.2902 5.2621,4.6885 7.3555,7.1699 0.01,0.012 0.021,0.023 0.031,0.035 0,0 0.01,0.01 0.01,0.012 0.4182,0.497 0.8195,0.9987 1.2109,1.5019 0.044,0.057 0.091,0.1129 0.1348,0.1699 0.3685,0.478 0.7232,0.9583 1.0683,1.4414 0.06,0.084 0.1208,0.1665 0.1797,0.25 0.3576,0.5072 0.7023,1.0171 1.0352,1.5293 0.011,0.018 0.024,0.035 0.035,0.053 0.01,0.013 0.015,0.026 0.023,0.039 0.3437,0.5316 0.676,1.0651 0.9941,1.6016 0.01,0.016 0.02,0.033 0.029,0.049 0.01,0.017 0.019,0.035 0.029,0.053 0.3123,0.5295 0.614,1.0599 0.9024,1.5937 0.024,0.044 0.047,0.087 0.07,0.1309 0.2909,0.5425 0.5707,1.0865 0.8379,1.6328 0,0 0,0.01 0.01,0.012 0,0.01 0.01,0.014 0.01,0.021 0.2771,0.5678 0.5424,1.1377 0.7949,1.709 2.4736,5.5961 3.7863,11.3437 4.4317,16.9726 0.054,0.4719 0.096,0.9403 0.1406,1.4102 0.8582,8.976 0.1226,17.5569 -0.2735,24.6426 -0.035,0.6348 -0.064,1.2458 -0.092,1.8554 -0.066,1.4315 -0.1152,2.814 -0.1152,4.0918 0,0.6912 0.01,1.287 0.01,1.9414 0,1.1841 0.011,2.3356 0.025,3.4043 0.016,1.2072 0.033,2.3821 0.068,3.4512 0.1103,3.3244 0.3386,5.9948 0.7832,8.168 0.085,0.4148 0.1791,0.8125 0.2812,1.1914 0.049,0.1812 0.1,0.3579 0.1524,0.5312 0.1255,0.4111 0.2599,0.8053 0.4101,1.1739 0.1491,0.3668 0.3068,0.7193 0.4824,1.0468 0.1557,0.2893 0.3219,0.5635 0.5,0.8243 0,0 0,0.01 0.01,0.01 0.1763,0.2573 0.365,0.5014 0.5645,0.7324 0.4038,0.4679 0.8569,0.8854 1.3652,1.2579 0.088,0.064 0.1824,0.1238 0.2734,0.1855 0.1313,0.089 0.264,0.1777 0.4024,0.2617 0.1328,0.08 0.2707,0.1566 0.4101,0.2324 0.078,0.043 0.1582,0.084 0.2383,0.125 0.4241,0.2173 0.8731,0.4191 1.3594,0.6016 0.6882,0.2582 1.4411,0.4846 2.2637,0.6856 0.4113,0.1005 0.8399,0.1941 1.2871,0.2832 0.6333,0.1262 1.3087,0.2395 2.0175,0.3476 0.2796,0.043 0.5872,0.083 0.879,0.1231 0.5357,0.074 1.0644,0.1487 1.6425,0.2168 3.3824,0.3984 7.5046,0.7116 12.5274,1.1484 1.6743,0.1455 3.6755,0.2466 5.9668,0.3086 1.1457,0.031 2.3627,0.052 3.6484,0.064 1.2862,0.013 2.6399,0.017 4.0566,0.014 5.598,-0.014 12.1913,-0.1473 19.459,-0.3437 3.2438,-0.088 6.7069,0.2662 10.3321,0.9179 43.8651,0.1034 104.9548,-0.6863 132.414,1.3789 38.6463,2.9067 37.2727,1.7573 65.9121,-69.1679 0.06,-0.1544 0.1128,-0.3085 0.1739,-0.4629 0.9202,-2.3247 1.8181,-4.6661 2.7011,-7.0254 0.3914,-1.0465 0.7683,-2.1109 1.1524,-3.166 0.4725,-1.2973 0.9487,-2.5923 1.4101,-3.9043 0.4595,-1.308 0.9052,-2.6362 1.3536,-3.961 0.3748,-1.1064 0.75,-2.2107 1.1171,-3.33 9.9251,-30.3023 16.9808,-65.5526 20.8594,-117.0957 z"
     id="path1864"
     inkscape:connector-curvature="0" />
  <path
     style="fill:#3c75b0;fill-opacity:1;stroke:none;stroke-width:1px;stroke-linecap:butt;stroke-linejoin:miter;stroke-opacity:1"
     d="m 122.09036,1108.3281 c 4.65884,-43.6766 6.4059,-16.8883 19.2177,10.4824 12.8118,27.3706 34.35891,54.1589 125.78856,58.2354 91.42965,4.0765 440.25999,8.7353 525.86609,8.7353 85.6061,0 505.48369,-4.0764 602.73689,-9.9 97.2532,-5.8235 204.4064,-9.3177 227.1182,-25.0412 22.7118,-15.7236 41.9295,-51.8296 46.5884,-67.5531 4.6588,-15.7236 8.1529,-13.9765 9.9,20.3824 1.747,34.3589 10.4824,118.8003 11.6471,136.2709 1.1647,17.4706 0.5823,15.7236 -11.6471,12.2295 -12.2295,-3.4942 -128.7004,1.1647 -204.9888,13.3941 -76.2884,12.2294 -138.018,57.0707 -156.071,101.3297 -18.053,44.2589 -8.1529,68.1355 8.153,80.9473 16.3059,12.8117 0,13.9765 -37.8531,15.1412 -37.853,1.1647 -289.43009,-1.7471 -431.52459,-0.5824 -142.0945,1.1647 -370.9598,4.0765 -384.354,2.9118 -13.3941,-1.1647 -13.3941,-6.9883 -3.4941,-15.7236 9.9,-8.7353 22.1295,-17.4706 19.8001,-51.2472 -2.3295,-33.7765 -51.2472,-97.8355 -132.77685,-119.3826 -81.52963,-21.5472 -204.40642,-22.1295 -221.2947,-19.2177 -16.88828,2.9117 -25.04124,12.8118 -23.87653,-6.9883 1.16471,-19.8 9.31767,-122.2944 11.06473,-144.4239 z"
     id="path1869"
     inkscape:connector-curvature="0" />
  <path
     style="fill:#515151;fill-opacity:1;stroke:none;stroke-width:1px;stroke-linecap:butt;stroke-linejoin:miter;stroke-opacity:1"
     d="m 537.30911,288.95538 c 0.5823,-19.8001 -2.3294,-19.2177 26.2059,-20.9648 28.5354,-1.747 669.12529,-3.4941 690.67239,-3.4941 21.5471,0 27.3707,2.3294 26.7883,27.3706 -0.5823,25.0413 0,123.4592 -0.5823,142.6769 -0.5824,19.2177 -1.7471,23.2942 -24.4589,22.1295 -22.7118,-1.1647 -671.45469,2.3294 -694.16649,2.9117 -22.7119,0.5824 -24.4589,-3.4941 -24.4589,-26.2059 0,-22.7118 -0.5824,-119.3827 0,-144.4239 z"
     id="path1871"
     inkscape:connector-curvature="0" />
  <path
     style="fill:#6e6e6e;fill-opacity:1;stroke:none;stroke-width:1px;stroke-linecap:butt;stroke-linejoin:miter;stroke-opacity:1"
     d="m 399.87341,267.40828 c 19.8001,0.5823 20.9648,2.3294 21.5471,19.8 0.5824,17.4706 0,44.8413 -0.5823,58.8178 -0.5824,13.9765 -6.4059,18.053 -17.4706,18.6354 -11.0648,0.5823 -162.47694,1.1647 -175.28874,0.5823 -12.81179,-0.5823 -17.47063,-3.4941 -18.05298,-20.3824 -0.58236,-16.8883 0,-50.0825 0.58235,-61.1472 0.58236,-11.0647 1.74706,-14.5589 18.63534,-15.1412 16.88828,-0.5824 149.66513,-2.3294 170.62983,-1.1647 z"
     id="path1873"
     inkscape:connector-curvature="0" />
  <path
     style="fill:#e9e9e9;fill-opacity:1;stroke:none;stroke-width:1px;stroke-linecap:butt;stroke-linejoin:miter;stroke-opacity:1"
     d="m 265.64074,361.74968 c 20.3824,-0.2912 41.92952,-16.5971 42.80305,-44.259 0.87353,-27.6618 -22.12947,-41.0559 -42.2207,-41.3471 -20.09123,-0.2912 -39.89128,18.3441 -40.76481,43.0942 -0.87353,24.7501 16.01475,43.9678 40.18246,42.5119 z"
     id="path1875"
     inkscape:connector-curvature="0" />
  <path
     style="fill:#e25138;fill-opacity:1;stroke:none;stroke-width:1px;stroke-linecap:butt;stroke-linejoin:miter;stroke-opacity:1"
     d="m 326.78796,319.23778 c 0,-23.003 18.05298,-41.9295 37.85304,-42.2207 19.80001,-0.2912 41.63831,12.2295 41.63831,43.6766 0,31.4471 -20.3824,39.8913 -36.10595,40.1825 -15.72357,0.2911 -42.51187,-10.7736 -43.3854,-41.6384 z"
     id="path1877"
     inkscape:connector-curvature="0" />
  <path
     style="fill:#6e6e6e;fill-opacity:1;stroke:none;stroke-width:1px;stroke-linecap:butt;stroke-linejoin:miter;stroke-opacity:1"
     d="m 1397.1554,273.52298 c 0.8736,-7.5706 1.1648,-8.7353 9.6089,-9.3177 8.4441,-0.5823 174.7063,-1.4559 185.7711,-0.8735 11.0647,0.5823 12.2294,2.6206 12.5206,14.2677 0.2912,11.6471 0.2912,50.956 -0.2912,62.3119 -0.5823,11.3559 -2.9118,16.5971 -11.0647,16.5971 -8.153,0 -178.4917,1.7471 -187.227,1.7471 -8.7353,0 -10.1912,-5.5324 -10.1912,-12.2295 0,-6.6971 0.5824,-64.059 0.8735,-72.5031 z"
     id="path1883"
     inkscape:connector-curvature="0" />
  <path
     style="fill:#e25138;fill-opacity:1;stroke:none;stroke-width:1px;stroke-linecap:butt;stroke-linejoin:miter;stroke-opacity:1"
     d="m 1446.6555,351.84958 c 33.7766,-0.8735 42.2207,-25.6236 41.3472,-43.9677 -0.8735,-18.3442 -13.103,-38.7266 -39.8913,-39.6001 -26.7883,-0.8736 -42.803,19.5088 -43.0942,41.6383 -0.2912,22.1295 13.9765,41.9295 41.6383,41.9295 z"
     id="path1879"
     inkscape:connector-curvature="0" />
  <path
     style="fill:#e9e9e9;fill-opacity:1;stroke:none;stroke-width:1px;stroke-linecap:butt;stroke-linejoin:miter;stroke-opacity:1"
     d="m 1551.7295,269.11618 c -31.1679,-0.1543 -43.3444,20.7127 -42.1797,43.7157 1.1647,23.003 14.2677,39.0178 43.3855,38.4354 29.1177,-0.5823 38.7265,-18.9265 39.0177,-42.2207 0.2912,-23.2942 -12.5375,-39.7933 -40.2235,-39.9304 z"
     id="path1881"
     inkscape:connector-curvature="0"
     sodipodi:nodetypes="sscss" />
  <path
     style="fill:#626262;fill-opacity:1;stroke:none;stroke-width:1px;stroke-linecap:butt;stroke-linejoin:miter;stroke-opacity:1"
     d="m 209.79882,543.50208 c 3.94798,-30.5968 4.93498,-27.6359 41.45379,-28.6229 36.51881,-0.9869 1289.01539,-6.9089 1318.62529,-6.9089 29.6098,0 33.5578,4.935 34.5448,40.4668 0.987,35.5318 0.987,485.60152 0,521.13332 -0.987,35.5318 -3.948,42.4408 -28.6229,42.4408 -24.6748,0 -574.431,1.974 -740.24619,3.948 -165.8151,1.974 -548.76918,1.974 -587.26199,0.987 -38.4928,-0.987 -45.40176,-3.948 -45.40176,-33.5579 0,-29.6098 5.92197,-502.38042 6.90896,-539.88622 z"
     id="path1885"
     inkscape:connector-curvature="0" />
  <path
     style="fill:#aa7601;fill-opacity:1;stroke:none;stroke-width:1px;stroke-linecap:butt;stroke-linejoin:miter;stroke-opacity:1"
     d="m 1623.3133,1258.7151 c 45.0117,-2.8133 75.4883,6.5642 64.7043,56.7335 -10.7841,50.1692 -31.4144,105.4961 -77.8328,122.3755 -46.4183,16.8794 -210.0545,22.5059 -238.1868,21.5681 -28.1323,-0.9377 -55.3269,-18.7549 -55.7958,-45.4806 -0.4688,-26.7257 26.2568,-85.8035 79.2394,-112.5292 52.9825,-26.7257 189.893,-40.323 227.8717,-42.6673 z"
     id="path1890"
     inkscape:connector-curvature="0" />
  <path
     style="fill:#a2a2a2;fill-opacity:1;stroke:none;stroke-width:1px;stroke-linecap:butt;stroke-linejoin:miter;stroke-opacity:1"
     d="m 1421.6984,1302.3202 c 52.0448,-0.9378 76.895,26.7256 78.3016,64.7043 1.4066,37.9786 -26.7257,76.8949 -70.7997,77.8327 -44.0739,0.9377 -71.2685,-40.7919 -72.6751,-68.4553 -1.4066,-27.6634 16.8794,-70.3308 65.1732,-74.0817 z"
     id="path1892"
     inkscape:connector-curvature="0" />
  <path
     style="fill:#d6d6d6;fill-opacity:1;stroke:none;stroke-width:1px;stroke-linecap:butt;stroke-linejoin:miter;stroke-opacity:1"
     d="m 1515.0039,1362.8046 c 0.4689,-41.7296 28.1323,-75.0195 70.7996,-77.3638 42.6673,-2.3444 71.7374,33.7587 71.7374,69.393 0,35.6343 -29.4245,73.144 -68.8097,74.0817 -39.3853,0.9378 -73.7273,-21.568 -73.7273,-66.1109 z"
     id="path1894"
     inkscape:connector-curvature="0"
     sodipodi:nodetypes="ccscc" />
  <path
     style="fill:#aa7601;fill-opacity:1;stroke:none;stroke-width:1px;stroke-linecap:butt;stroke-linejoin:miter;stroke-opacity:1"
     d="m 111.27242,1326.1458 c -2.5299,-42.6192 9.75841,-61.6 48.79205,-60.0752 39.03363,1.5247 92.39993,0.3049 160.40385,15.2475 68.00389,14.9425 106.42769,31.7148 134.17809,76.5425 27.7505,44.8277 25.006,68.0039 14.6377,81.7267 -10.3684,13.7227 -17.3822,22.8713 -66.4792,22.5663 -49.09701,-0.305 -95.7544,1.8297 -151.25536,-6.099 -55.50095,-7.9287 -83.55638,-11.2832 -104.59795,-40.8633 -21.04157,-29.5802 -34.22939,-64.6221 -35.67918,-89.0455 z"
     id="path1900"
     inkscape:connector-curvature="0"
     sodipodi:nodetypes="sccccsscs" />
  <path
     style="fill:#d6d6d6;fill-opacity:1;stroke:none;stroke-width:1px;stroke-linecap:butt;stroke-linejoin:miter;stroke-opacity:1"
     d="m 214.95552,1437.4526 c 41.16774,-0.3726 76.54252,-29.5802 75.93262,-71.0534 -0.6099,-41.4732 -38.64273,-71.3937 -72.88312,-71.6633 -38.72868,-0.305 -70.44352,25.3109 -69.22372,72.8831 1.21981,47.5723 39.93361,70.0711 66.17422,69.8336 z"
     id="path1896"
     inkscape:connector-curvature="0"
     sodipodi:nodetypes="sssss" />
  <path
     style="fill:#a2a2a2;fill-opacity:1;stroke:none;stroke-width:1px;stroke-linecap:butt;stroke-linejoin:miter;stroke-opacity:1"
     d="m 304.61091,1379.5121 c 0.30338,-45.7983 29.58018,-70.7485 68.6138,-71.3584 39.0336,-0.6099 70.7485,28.9703 72.8831,68.0039 2.1347,39.0337 -23.1762,73.798 -65.5643,73.1881 -42.38807,-0.6099 -76.18316,-32.0096 -75.9326,-69.8336 z"
     id="path1898"
     inkscape:connector-curvature="0"
     sodipodi:nodetypes="sssss" />
</svg>
