<svg xmlns="http://www.w3.org/2000/svg" width="1802.208" height="1665.955"><path d="M266.39 1665.814c46.465.895 1243.698-2.814 1272.863-1.533 27.575 1.212-6.9-140.633-6.9-140.633l-1305.87 4.315s-7.922 136.929 39.907 137.85z" fill="#1f1f1f"/><path d="M1512.672 15.307c156.167 11.424 210.07 45.492 241.41 87.28 29.583 39.447 30.875 57.992 32.522 151.663 1.883 107.072 6.662 438.369 12.144 815.284 5.157 354.593 9.044 450.048-23.06 528.597-28.224 69.056-26.095 68.902-66.1 67.338-39.536-1.546-149.082 1.01-175.87-1.48-26.789-2.488-27.954-1.33-27.954-28.118 0-26.789 18.636-89.572-114.14-91.526-132.778-1.954-956.714.521-1004.481.238-47.767-.284-98.829 9.295-98.829 63.651s.824 57.655-15.648 57.557c-16.471-.098-130.291-1.267-160.973-.82-28.173.411-38.569 2.591-49.862-16.046-32.168-53.09-56.083-116.768-60.944-234.292-3.654-88.332 9.97-648.01 10.887-765.03C12.798 518.977 17.797 315.84 22.37 201.9c3.858-96.145 64.992-158.825 183.587-177.886C324.55 4.952 657.275-1.307 914.23.22c256.955 1.527 456.788-.58 598.442 15.087z" fill="#e4ba09"/><path d="M1659.564 336.55c0-84.005-1.647-131.782-74.122-145.39-72.474-13.608-437.317-17.423-617.68-20.142-180.362-2.719-575.678 8.109-689.33 16.493-113.654 8.384-114.478 54.499-119.419 133.533-4.941 79.033 30.472-66.529 30.472-66.529l184.48-26.905 1220.537 3.136 32.943 40.55z" fill="#764d02"/><path d="M1525.322 209.745c108.723 3.54 130.124 18.892 135.066 139.163 4.941 120.271 8.235 533.725 0 637.446-8.236 103.721-19.517 155.318-80.082 158.452-60.565 3.135-91.979 1.383-110.065 1.676-359.375 5.823-592.425 11.425-862.38 4.097-35.416-.961-282.486-4.15-357.431-4.595-74.946-.445-100.476-36.834-102.123-133.202-1.648-96.368 3.294-359.059 4.941-448.818 1.647-89.76 2.47-213.291 7.412-265.147 4.942-51.856 31.296-87.937 164.715-87.967 133.419-.031 1092.068-4.617 1199.947-1.105z" fill="#2a2a2a"/><path d="M1800.174 1459.877c-292.227 6.3-603.11 15.554-902.414 14.436-188.776-1.122-646.08-5.5-892.8-4.38 9.145 83.474 30.156 134.902 56.872 178.993 11.293 18.637 21.689 16.457 49.861 16.047 30.682-.448 144.502.72 160.973.818.959.006 1.846-.005 2.691-.031.134-.005.27-.007.4-.012a36.29 36.29 0 001.534-.1c.215-.018.432-.035.639-.058a18.954 18.954 0 002.396-.447c.15-.042.291-.092.436-.14a8.485 8.485 0 001.65-.728c.117-.067.236-.133.348-.207a7.02 7.02 0 00.76-.576c.023-.02.05-.037.074-.058 2.126-1.912 3.3-5.333 3.945-11.356a123.18 123.18 0 00.463-6.389c.078-1.686.139-3.514.184-5.492v-.025c.044-1.979.075-4.111.095-6.404v-.03-.074c.027-3.06.033-6.511.035-10.176.003-4.638-.001-9.497-.002-15.209v-.011-.034c0-.836.014-1.662.038-2.478 1.535-52.17 51.759-61.454 98.79-61.174 47.768.284 871.704-2.19 1004.481-.236 103.817 1.527 115.066 40.242 115.035 69.863a130.588 130.588 0 01-.05 3.506c-.158 5.754-.639 11.074-.795 15.592-.01.266-.007.51-.014.771-.017.627-.035 1.257-.035 1.85v.013c0 1.625.01 3.137.02 4.563v.07c.028 2.825.103 5.254.253 7.38.023.328.047.646.074.96.07.791.15 1.547.248 2.246l.01.082c1.59 11.064 7.274 10.883 27.348 12.748 26.788 2.489 136.334-.067 175.87 1.479 8.729.341 15.45.616 20.919.119.226-.022.443-.052.666-.076.436-.046.869-.094 1.289-.15 10.076-1.428 15.804-6.129 22.635-19.14.066-.127.134-.255.2-.384a154.841 154.841 0 002.412-4.88c4.696-9.946 10.175-23.731 17.98-42.827l.187-.467a402.038 402.038 0 002.484-6.451c.392-1.044.769-2.105 1.153-3.158.283-.776.564-1.556.845-2.334.01-.018.015-.036.022-.055.01-.026.016-.054.025-.08a267.868 267.868 0 003.91-12.176c.01-.02.015-.042.022-.062.01-.02.013-.04.017-.06 8.658-29.385 13.454-63.817 15.82-113.331v-.08z" fill="#dca70a"/><path d="M122.09 1103.529c4.66-43.65 6.406-16.85 19.218 10.597 12.812 27.446 34.359 54.363 125.789 58.982 91.43 4.62 440.26 11.352 525.866 11.86 85.606.51 505.483-1.072 602.737-6.317 97.253-5.246 204.406-8.103 227.118-23.692 22.712-15.588 41.93-51.58 46.588-67.276 4.659-15.696 8.153-13.928 9.9 20.441 1.747 34.37 10.483 118.863 11.647 136.34 1.165 17.478.583 15.727-11.647 12.16-12.23-3.566-128.7.4-204.989 12.177-76.288 11.776-138.018 56.25-156.07 100.402-18.054 44.151-8.154 68.087 8.152 80.995 16.306 12.909 0 13.977-37.853 14.917-37.853.94-289.43-3.467-431.524-3.147-142.095.32-370.96 1.872-384.354.628-13.394-1.245-13.394-7.068-3.494-15.745 9.9-8.676 22.13-17.339 19.8-51.13-2.33-33.79-51.247-98.14-132.777-120.171-81.53-22.032-204.407-23.344-221.295-20.533-16.888 2.812-25.041 12.663-23.876-7.13 1.164-19.793 9.317-122.239 11.064-144.358z" fill="#3c75b0"/><path d="M537.31 286.624c.581-19.797-2.33-19.232 26.205-20.81 28.535-1.577 669.125.483 690.672.611 21.548.128 27.371 2.492 26.789 27.53-.583 25.038 0 123.459-.583 142.673-.582 19.215-1.747 23.284-24.459 21.984-22.711-1.3-671.454-1.66-694.166-1.213-22.712.447-24.459-3.64-24.459-26.351 0-22.712-.582-119.387 0-144.424z" fill="#515151"/><path d="M399.873 264.26c19.8.7 20.965 2.454 21.548 19.928.582 17.474 0 44.841-.583 58.814-.582 13.973-6.406 18.015-17.47 18.532-11.065.516-162.477.199-175.29-.46-12.81-.658-17.47-3.597-18.052-20.49-.582-16.891 0-50.082.582-61.143.583-11.061 1.747-14.549 18.636-15.03 16.888-.483 149.665-1.44 170.63-.151z" fill="#6e6e6e"/><path d="M265.64 357.803c20.383-.17 41.93-16.347 42.804-44.004.873-27.657-22.13-41.187-42.22-41.598-20.092-.41-39.892 18.107-40.766 42.852-.873 24.745 16.015 44.063 40.183 42.75z" fill="#e9e9e9"/><path d="M326.788 315.655c0-23.003 18.053-41.822 37.853-41.996 19.8-.173 41.638 12.477 41.638 43.924s-20.382 39.77-36.106 39.968c-15.723.198-42.512-11.026-43.385-41.896z" fill="#e25138"/><path d="M1397.155 276.301c.874-7.565 1.165-8.728 9.61-9.26 8.443-.533 174.706-.418 185.77.23 11.065.648 12.23 2.693 12.521 14.342.291 11.649.291 50.958-.291 62.31-.582 11.353-2.912 16.58-11.065 16.532-8.153-.048-178.492.686-187.227.634-8.735-.052-10.191-5.593-10.191-12.29 0-6.697.582-64.055.873-72.498z" fill="#6e6e6e"/><path d="M1446.656 354.922c33.776-.673 42.22-25.373 41.347-43.722-.874-18.35-13.103-38.805-39.892-39.837-26.788-1.033-42.803 19.254-43.094 41.382-.291 22.128 13.977 42.013 41.638 42.177z" fill="#e25138"/><path d="M1551.73 272.813c-31.168-.34-43.345 20.455-42.18 43.465 1.165 23.01 14.268 39.103 43.385 38.693 29.118-.41 38.727-18.696 39.018-41.989.291-23.292-12.537-39.867-40.223-40.17z" fill="#e9e9e9"/><path d="M209.799 539.224c3.948-30.573 4.935-27.607 41.454-28.377 36.518-.77 1289.015.752 1318.625.928 29.61.176 33.558 5.134 34.545 40.672.987 35.538.987 485.607 0 521.133-.987 35.526-3.948 42.418-28.623 42.271-24.675-.147-574.431-1.44-740.246-.451-165.816.989-548.77-1.287-587.262-2.503-38.493-1.216-45.402-4.218-45.402-33.828 0-29.61 5.922-502.345 6.909-539.845z" fill="#626262"/><path d="M1623.313 1262.837c45.012-2.546 75.489 7.013 64.705 57.118-10.784 50.105-31.415 105.31-77.833 121.913-46.418 16.604-210.055 21.258-238.187 20.153-28.132-1.105-55.327-19.084-55.796-45.812-.469-26.729 26.257-85.648 79.24-112.059 52.982-26.41 189.893-39.194 227.871-41.313z" fill="#aa7601"/><path d="M1421.698 1305.244c52.045-.628 76.895 27.183 78.302 65.17 1.407 37.987-26.726 76.736-70.8 77.412-44.074.676-71.268-41.216-72.675-68.887-1.406-27.672 16.88-70.23 65.173-73.695z" fill="#a2a2a2"/><path d="M1515.004 1366.283c.469-41.727 28.132-74.852 70.8-76.943 42.667-2.09 71.737 34.185 71.737 69.82 0 35.634-29.425 72.969-68.81 73.672-39.385.704-73.727-22.006-73.727-66.549z" fill="#d6d6d6"/><path d="M111.272 1321.282c-2.53-42.634 9.759-61.542 48.792-59.785 39.034 1.757 92.4.854 160.404 16.2 68.004 15.347 106.428 32.348 134.178 77.34 27.75 44.993 25.006 68.153 14.638 81.814-10.368 13.661-17.382 22.768-66.48 22.172-49.096-.597-95.753 1.26-151.254-6.998-55.501-8.259-83.557-11.78-104.598-41.485-21.042-29.705-34.23-64.826-35.68-89.258z" fill="#aa7601"/><path d="M214.956 1433.205c41.167-.128 76.542-29.125 75.932-70.602-.61-41.477-38.643-71.623-72.883-72.096-38.729-.536-70.444 24.892-69.224 72.471 1.22 47.58 39.934 70.309 66.175 70.227z" fill="#d6d6d6"/><path d="M304.61 1375.797c.304-45.796 29.581-70.572 68.615-70.95 39.033-.378 70.748 29.39 72.883 68.437 2.134 39.046-23.176 73.66-65.565 72.798-42.388-.861-76.183-32.462-75.932-70.285z" fill="#a2a2a2"/></svg>