<?xml version="1.0" encoding="UTF-8" standalone="no"?>
<svg
   xmlns:dc="http://purl.org/dc/elements/1.1/"
   xmlns:cc="http://creativecommons.org/ns#"
   xmlns:rdf="http://www.w3.org/1999/02/22-rdf-syntax-ns#"
   xmlns:svg="http://www.w3.org/2000/svg"
   xmlns="http://www.w3.org/2000/svg"
   viewBox="0 0 824.33789 1459.9702"
   height="1459.9702"
   width="824.33789"
   id="svg869"
   version="1.1">
  <metadata
     id="metadata875">
    <rdf:RDF>
      <cc:Work
         rdf:about="">
        <dc:format>image/svg+xml</dc:format>
        <dc:type
           rdf:resource="http://purl.org/dc/dcmitype/StillImage" />
        <dc:title></dc:title>
      </cc:Work>
    </rdf:RDF>
  </metadata>
  <defs
     id="defs873" />
  <path
     id="path900"
     d="M 27.261948,30.665217 35.051076,1436.6028 401.14009,1214.6127 794.49106,1428.8137 798.38563,26.770653 Z"
     style="fill:#c5c5c5;stroke:#000000;stroke-width:1px;stroke-linecap:butt;stroke-linejoin:miter;stroke-opacity:1;fill-opacity:1" />
  <path
     id="path879"
     d="m 21.170313,1458.1489 c -9.66711,-3.3407 -17.0786102,-11.028 -19.8614602,-20.6007 -1.29703003,-4.4616 -1.44587003,-90.8221 -1.22380003,-710.06379 L 0.33786277,22.5 2.4751928,17.877595 C 5.4543228,11.434629 11.051563,5.570726 17.098873,2.557224 L 22.230553,0 H 410.99669 799.76286 l 5.5085,2.060991 c 6.6696,2.495439 13.2483,8.615144 16.6139,15.454827 L 824.33786,22.5 V 730 1437.5 l -2.2933,4.2951 c -7.49,14.0276 -23.395,21.2498 -37.2823,16.9292 -2.5165,-0.783 -27.7165,-14.9368 -56,-31.4529 -28.2834,-16.5161 -110.13771,-64.3394 -181.89842,-106.2739 -71.7607,-41.9345 -131.4595,-76.6935 -132.66398,-77.2423 -1.89583,-0.8638 -14.256,6.0532 -92.02599,51.4994 -49.4098,28.8735 -131.68601,76.9523 -182.83601,106.8417 -51.149997,29.8894 -95.249997,55.1306 -97.999997,56.0914 -6.39843,2.2356 -13.62633,2.2217 -20.16755,-0.039 z M 231.64465,1274.3116 c 91.13126,-53.1891 168.16821,-97.5666 171.19321,-98.6165 7.13177,-2.4754 16.65352,-1.9368 23,1.301 2.475,1.2626 78.82955,45.6551 169.67677,98.6498 90.84723,52.9948 165.43473,96.3541 165.75003,96.3541 0.3152,0 0.5732,-294.525 0.5732,-654.5 V 63 h -349.5 -349.499997 v 654.60699 c 0,592.07421 0.14872,654.54991 1.55679,654.00961 0.85623,-0.3286 76.118727,-44.1158 167.249997,-97.305 z"
     style="fill:#000000" />
</svg>
