<?xml version="1.0" encoding="UTF-8" standalone="no"?>
<svg
   xmlns:dc="http://purl.org/dc/elements/1.1/"
   xmlns:cc="http://creativecommons.org/ns#"
   xmlns:rdf="http://www.w3.org/1999/02/22-rdf-syntax-ns#"
   xmlns:svg="http://www.w3.org/2000/svg"
   xmlns="http://www.w3.org/2000/svg"
   xmlns:sodipodi="http://sodipodi.sourceforge.net/DTD/sodipodi-0.dtd"
   xmlns:inkscape="http://www.inkscape.org/namespaces/inkscape"
   version="1.1"
   id="svg78"
   width="1306.6759"
   height="1175.3157"
   viewBox="0 0 1306.6759 1175.3157"
   sodipodi:docname="map.svg"
   inkscape:version="1.1-dev (ddb55ca, 2020-02-02)">
  <metadata
     id="metadata84">
    <rdf:RDF>
      <cc:Work
         rdf:about="">
        <dc:format>image/svg+xml</dc:format>
        <dc:type
           rdf:resource="http://purl.org/dc/dcmitype/StillImage" />
        <dc:title />
      </cc:Work>
    </rdf:RDF>
  </metadata>
  <defs
     id="defs82" />
  <sodipodi:namedview
     pagecolor="#ffffff"
     bordercolor="#666666"
     borderopacity="1"
     objecttolerance="10"
     gridtolerance="10"
     guidetolerance="10"
     inkscape:pageopacity="0"
     inkscape:pageshadow="2"
     inkscape:window-width="1336"
     inkscape:window-height="854"
     id="namedview80"
     showgrid="false"
     inkscape:zoom="0.39948323"
     inkscape:cx="580.74416"
     inkscape:cy="587.65784"
     inkscape:window-x="420"
     inkscape:window-y="116"
     inkscape:window-maximized="0"
     inkscape:current-layer="g86" />
  <g
     inkscape:groupmode="layer"
     inkscape:label="Image"
     id="g86"
     transform="translate(-392.87625,-609.26011)">
    <path
       style="fill:#c5c5c5;stroke-width:1.33333;fill-opacity:1"
       d="m 523.55384,1588.5663 130.6776,-196.0095 88.15311,0.3428 88.1531,0.3429 15.07931,32 15.0793,32 -85.90865,0.6666 -85.90863,0.6667 -86.66512,130 -86.66511,130 530.21995,0.335 c 291.621,0.1842 530.4616,0.093 530.757,-0.2021 0.2954,-0.2954 -38.5054,-59.0961 -86.224,-130.6683 l -86.7611,-130.1313 h -85.3299 c -46.9314,0 -85.3299,-0.404 -85.3299,-0.8979 0,-0.4938 6.6984,-15.1938 14.8854,-32.6666 l 14.8853,-31.7688 h 87.7791 87.779 l 130.6712,196 130.6713,196 H 1046.2142 392.87625 Z m 505.42306,-2.0612 c -17.8032,-3.8608 -36.42136,-15.4104 -46.62203,-28.9215 -3.45072,-4.5706 -46.64075,-94.6497 -124.18595,-259.0078 -65.39235,-138.6 -120.56593,-256.2 -122.60799,-261.3333 -15.3732,-38.64548 -20.25787,-107.43784 -11.31361,-159.33338 5.43549,-31.53733 13.91401,-57.63213 27.94244,-86 16.51737,-33.40093 35.86484,-60.1115 63.25972,-87.33458 28.35489,-28.17707 54.33284,-46.99158 87.43136,-63.32207 31.06899,-15.32913 59.34232,-24.01761 96.00001,-29.50108 22.06575,-3.30072 72.08125,-3.32632 94.66665,-0.0485 71.2814,10.34527 131.3058,40.72197 183.395,92.81119 27.6743,27.67433 47.0609,54.43825 63.305,87.39498 11.1552,22.63222 17.7487,40.73345 23.3124,64 14.5608,60.89039 11.2846,138.16143 -7.8053,184.09134 -8.9866,21.6216 -238.1985,507.1149 -242.4291,513.4885 -17.1861,25.8919 -52.8425,39.8487 -84.3486,33.0161 z m 44.5706,-490.1672 c 32.5622,-4.9295 62.9387,-20.7349 87.9829,-45.7792 35.0853,-35.0853 50.9322,-78.6262 47.1865,-129.64958 -2.7991,-38.13001 -18.7872,-72.44106 -46.9857,-100.83344 -27.9828,-28.17517 -62.3538,-44.28081 -101.1738,-47.40813 -50.3424,-4.05559 -94.51434,12.02337 -129.70454,47.21359 -35.30083,35.30081 -50.91644,78.27342 -47.1394,129.72282 2.80738,38.24087 18.89825,72.66854 47.18448,100.95474 38.14822,38.1482 87.80046,54.0827 142.64956,45.7792 z"
       id="path90"
       inkscape:connector-curvature="0" />
  </g>
</svg>
