<?xml version="1.0" encoding="UTF-8" standalone="no"?>
<svg
   xmlns:dc="http://purl.org/dc/elements/1.1/"
   xmlns:cc="http://creativecommons.org/ns#"
   xmlns:rdf="http://www.w3.org/1999/02/22-rdf-syntax-ns#"
   xmlns:svg="http://www.w3.org/2000/svg"
   xmlns="http://www.w3.org/2000/svg"
   id="svg2"
   width="573.92767"
   height="593.40161"
   version="1.0">
  <defs
     id="defs1751" />
  <metadata
     id="metadata7">
    <rdf:RDF>
      <cc:Work
         rdf:about="">
        <dc:format>image/svg+xml</dc:format>
        <dc:type
           rdf:resource="http://purl.org/dc/dcmitype/StillImage" />
        <dc:title></dc:title>
      </cc:Work>
    </rdf:RDF>
  </metadata>
  <path
     id="path2768"
     d="m 74.500003,254.76826 c -9.42466,-0.12422 -18.42485,3.91244 -24.6,11.03334 C 39.571643,277.3811 30.593311,290.19129 23.2,304.0016 8.413369,331.6222 -9.9999993e-7,363.28602 0,396.66826 -1.9999999e-6,504.91532 88.486283,593.40162 196.73333,593.4016 c 54.12351,-2e-5 103.53266,-22.06602 139.1,-57.63334 17.78364,-17.78366 32.16385,-38.97569 42.13333,-62.53333 4.75647,-10.58291 3.41245,-22.91134 -3.51263,-32.22076 -6.92508,-9.30942 -18.34643,-14.14152 -29.85008,-12.62887 -11.50365,1.51264 -21.28757,9.13309 -25.57062,19.9163 -6.70971,15.85486 -16.43364,30.16696 -28.46667,42.2 -24.06602,24.06602 -57.02362,38.89999 -93.83333,38.9 -73.61938,2e-5 -132.733327,-59.11393 -132.733327,-132.73334 0,-22.69767 5.63154,-43.84613 15.6,-62.46666 4.98422,-9.31028 11.07816,-17.96494 18.06666,-25.8 8.528927,-9.29834 10.798447,-22.74011 5.795167,-34.32324 -5.003267,-11.58312 -16.345397,-19.1454 -28.961827,-19.3101 z"
     style="opacity:1;fill:#2e2e2e;fill-opacity:1;fill-rule:evenodd;stroke:none;stroke-width:64;stroke-linecap:round;stroke-linejoin:round;stroke-miterlimit:4;stroke-dasharray:none;stroke-opacity:1" />
  <path
     id="path1879"
     d="m 141.76735,0 c -36.37328,0 -65.899987,29.526718 -65.899997,65.899998 -0.015,3.36052 0.28737,6.71057 0.76666,10.03333 0.004,0.0218 -0.004,0.0449 0,0.0667 L 116.36735,320.96669 c 2.50694,15.41873 15.77906,26.77471 31.4,26.86667 l 208.26666,1.3 71.96667,167.03333 c 6.68199,15.47307 24.21933,23.11194 40.1,17.46667 l 84.53333,-30.06667 c 16.65138,-5.92785 25.36119,-24.2486 19.43334,-40.9 -5.92785,-16.65139 -24.24862,-25.32786 -40.9,-19.4 l -56.26667,20.03334 -68.33333,-158.7 c -5.03116,-11.67065 -16.49131,-19.25841 -29.2,-19.33334 l -202.13334,-1.26666 -3.13333,-19.23334 h 142.96667 c 11.54033,0.16321 22.28219,-5.89874 28.1,-15.86666 5.8178,-9.96792 5.8178,-22.29876 0,-32.26667 -5.81781,-9.96793 -16.55965,-16.02988 -28.1,-15.86667 H 161.73401 l -11.3,-69.56666 c 32.27998,-4.24933 57.20001,-31.865942 57.2,-65.300002 0,-36.37328 -29.49337,-65.899999 -65.86666,-65.899998 z"
     style="fill:#2e2e2e;fill-opacity:1;fill-rule:evenodd;stroke:none;stroke-width:10.66666698;stroke-linecap:round;stroke-linejoin:round;stroke-miterlimit:4;stroke-opacity:1" />
</svg>
