<svg xmlns="http://www.w3.org/2000/svg" viewBox="0 0 938.427 938.427" height="1000.988" width="1000.989"><path d="M237.834 73.215c-71.44.012-145.334.121-224.488.512-4.538 0-6.539 2.43-8.674 13.353C2.536 98.004 0 123.797 0 134.72c0 10.925.85 8.192 21.611 9.909 5.15.426 30.443.797 66.524 1.117-.592 60.521-2.017 448.03-1.25 561.871.215 49.803-.037 80.928.166 100.442H68.797c-5.856 0-10.57 10.718-10.57 24.03v13.735c0 13.314 4.714 24.031 10.57 24.031H860.174c5.856 0 10.57-10.717 10.57-24.03V832.09c0-13.313-4.714-24.031-10.57-24.031H841.92c.203-19.514-.049-50.64.166-100.442.766-113.84-.658-501.35-1.25-561.87 36.081-.321 61.374-.692 66.523-1.118 20.762-1.717 21.612 1.016 21.612-9.908s-2.537-36.717-4.672-47.64c-2.136-10.925-4.136-13.354-8.674-13.354-79.154-.391-153.049-.5-224.488-.512-77.163-.013-151.491.085-226.467.074h-.37c-74.975.01-149.303-.087-226.466-.074zm-138.81 72.611c109.688.897 300.68 1.349 360.878 1.365.142 73.89-.305 226.637-.824 360.633-129.525-.256-334.476-.575-359.988-1.799.103-150.884.24-315.238-.067-360.199zm730.923 0c-.306 44.961-.17 209.315-.066 360.2-25.512 1.223-230.464 1.542-359.988 1.798-.52-133.996-.966-286.744-.825-360.633 60.199-.016 251.19-.468 360.88-1.365zM99.08 521.506c19.805.603 177.484 2.9 222.451 2.9 26.417 0 84.577-.105 137.48 0-.193 48.531-.38 95.384-.56 131.032-129.666-.257-334.245-.57-359.435-1.793.004-38.208.036-85.485.064-132.14zm730.81 0c.029 46.654.061 93.93.065 132.139-25.19 1.223-229.77 1.536-359.435 1.793-.18-35.648-.368-82.501-.561-131.032 52.904-.105 111.063 0 137.48 0 44.967 0 202.647-2.297 222.452-2.9zM99.019 669.123h.002c19.57.6 177.504 2.902 222.511 2.902 26.304 0 84.106-.102 136.836 0-.143 27.101-.276 49.807-.37 60.079-.383 41.39-1.87 64.96-.952 75.955-64.643.908-106.5 1.144-142.358 1.084.417-1.656.664-3.623.743-5.993.306-9.18.337-24.466.343-35h.204c8.996 0 16.238-3.055 16.238-6.851v-8.342c0-3.796-7.242-6.853-16.238-6.853H161.313c-8.997 0-16.24 3.057-16.24 6.853v8.342c0 3.796 7.243 6.851 16.24 6.851h5.21c.047 21.437.316 33.363 1.395 40.063-19.92-.088-41.649-.154-68.053-.154-.257-9.765-.569-22.79-.7-40.366-.112-14.77-.144-52.449-.147-98.57zm730.933 0h.002c-.004 46.121-.036 83.8-.146 98.57-.133 17.577-.444 30.601-.702 40.366-26.404 0-48.132.066-68.052.154 1.08-6.7 1.347-18.626 1.394-40.063h5.211c8.997 0 16.24-3.055 16.24-6.851v-8.342c0-3.796-7.243-6.853-16.24-6.853H612.994c-8.997 0-16.238 3.057-16.238 6.853v8.342c0 3.796 7.241 6.851 16.238 6.851h.203c.007 10.534.038 25.82.344 35 .079 2.37.325 4.337.742 5.993-35.857.06-77.714-.176-142.357-1.084.919-10.995-.57-34.565-.951-75.955-.095-10.272-.228-32.978-.371-60.079 52.73-.102 110.531 0 136.835 0 45.008 0 202.943-2.302 222.512-2.902zM189.346 768.15c39.975 1.346 64.232 1.516 103.607 0 .049 22.369.338 34.389 1.54 40.909-32.617-.156-63.986-.49-106.036-.739.3-1.476.479-3.187.545-5.17.306-9.18.337-24.466.344-35zm446.672 0c39.374 1.516 63.631 1.346 103.607 0 .006 10.534.038 25.82.344 35 .066 1.983.245 3.694.545 5.17-42.05.248-73.42.583-106.035.739 1.201-6.52 1.49-18.54 1.539-40.909z" fill="silver" fill-rule="evenodd"/></svg>