<?xml version="1.0" encoding="UTF-8" standalone="no"?>
<!-- Created with Inkscape (http://www.inkscape.org/) -->

<svg
   xmlns:dc="http://purl.org/dc/elements/1.1/"
   xmlns:cc="http://creativecommons.org/ns#"
   xmlns:rdf="http://www.w3.org/1999/02/22-rdf-syntax-ns#"
   xmlns:svg="http://www.w3.org/2000/svg"
   xmlns="http://www.w3.org/2000/svg"
   xmlns:sodipodi="http://sodipodi.sourceforge.net/DTD/sodipodi-0.dtd"
   xmlns:inkscape="http://www.inkscape.org/namespaces/inkscape"
   version="1.1"
   id="svg1938"
   width="444.28598"
   height="462.08258"
   viewBox="0 0 444.28599 462.08258"
   sodipodi:docname="bus-icon.svg"
   inkscape:version="0.92.2 5c3e80d, 2017-08-06">
  <metadata
     id="metadata1944">
    <rdf:RDF>
      <cc:Work
         rdf:about="">
        <dc:format>image/svg+xml</dc:format>
        <dc:type
           rdf:resource="http://purl.org/dc/dcmitype/StillImage" />
        <dc:title></dc:title>
      </cc:Work>
    </rdf:RDF>
  </metadata>
  <defs
     id="defs1942" />
  <sodipodi:namedview
     pagecolor="#ffffff"
     bordercolor="#666666"
     borderopacity="1"
     objecttolerance="10"
     gridtolerance="10"
     guidetolerance="10"
     inkscape:pageopacity="0"
     inkscape:pageshadow="2"
     inkscape:window-width="1444"
     inkscape:window-height="774"
     id="namedview1940"
     showgrid="false"
     inkscape:zoom="0.72199406"
     inkscape:cx="171.48057"
     inkscape:cy="22.387732"
     inkscape:window-x="0"
     inkscape:window-y="0"
     inkscape:window-maximized="0"
     inkscape:current-layer="svg1938" />
  <g
     id="g4634"
     transform="translate(-438.00056,-282.03471)"
     style="fill:#c5c5c5;fill-opacity:1">
    <path
       style="fill:#c5c5c5;fill-opacity:1;stroke:none;stroke-width:1px;stroke-linecap:butt;stroke-linejoin:miter;stroke-opacity:1"
       d="m 649.36328,282.03906 c -36.51778,0.11382 -90.02391,1.40043 -120.66016,4.18555 -35.01283,3.18299 -52.64267,4.89545 -64.15039,6.60937 -11.5077,1.71391 -14.44499,6.85649 -15.91406,20.07813 -1.46907,13.22163 -6.1218,76.63605 -5.87695,100.63086 0.24485,23.99482 -4.65234,203.46756 -4.65234,220.85156 0,17.384 -0.24484,95.24447 0,102.58985 0.24484,7.34535 2.93816,7.59 8.81445,6.85546 5.87628,-0.73453 97.08185,-0.24475 100.87695,-0.36718 3.7951,-0.12242 4.03969,-0.98038 4.16211,-4.40821 0.12242,-3.42783 0.36719,-31.46162 0.36719,-34.27734 0,-2.81572 -0.4896,-3.06202 -3.42774,-5.26563 -2.93814,-2.2036 -35.25832,-30.23708 -41.86914,-35.74609 -6.61081,-5.50901 -27.29873,-23.13904 -30.72656,-27.42383 -3.42784,-4.28479 -16.77327,-24.72798 -17.50781,-36.11328 -0.73453,-11.3853 1.59164,-143.11209 2.32617,-160.49609 0.73454,-17.384 3.42898,-116.79122 3.67383,-124.8711 0.24484,-8.07989 1.95917,-12.73155 24.97461,-13.71093 22.57772,-0.96077 131.97832,-3.31623 170.37109,-4.09961 38.39405,0.78341 147.7917,3.13886 170.36914,4.09961 23.01544,0.97938 24.72977,5.63104 24.97461,13.71093 0.24485,8.07988 2.93929,107.4871 3.67383,124.8711 0.73453,17.384 3.0607,149.11079 2.32617,160.49609 -0.73454,11.3853 -14.07997,31.82849 -17.50781,36.11328 -3.42783,4.28479 -24.11575,21.91482 -30.72656,27.42383 -6.61082,5.50901 -38.931,33.54249 -41.86914,35.74609 -2.93814,2.20361 -3.42774,2.44991 -3.42774,5.26563 0,2.81572 0.24477,30.84951 0.36719,34.27734 0.12242,3.42783 0.36701,4.28579 4.16211,4.40821 3.7951,0.12243 95.00067,-0.36735 100.87695,0.36718 5.87629,0.73454 8.5696,0.48989 8.81445,-6.85546 0.24484,-7.34538 0,-85.20585 0,-102.58985 0,-17.384 -4.89719,-196.85674 -4.65234,-220.85156 0.24485,-23.99481 -4.40788,-87.40923 -5.87695,-100.63086 -1.46907,-13.22164 -4.40636,-18.36422 -15.91406,-20.07813 -11.50772,-1.71392 -29.13756,-3.42638 -64.1504,-6.60937 -30.63624,-2.78512 -84.14237,-4.07173 -120.66015,-4.18555 -3.86499,-0.012 -7.30474,0.004 -10.73828,0.0176 -0.0269,-1.1e-4 -0.0571,1.1e-4 -0.084,0 -3.43354,-0.0145 -6.87329,-0.0296 -10.73828,-0.0176 z M 465.85547,666.9375 c 9.24362,0 14.57613,5.14382 14.75391,15.07617 0.17775,7.27192 -5.51013,15.43088 -15.82032,15.07617 -10.31018,-0.35474 -14.75393,-7.80378 -14.57617,-15.78515 0.17777,-7.98135 6.39898,-14.36719 15.64258,-14.36719 z m 388.57617,0 c 9.2436,0 15.46481,6.38584 15.64258,14.36719 0.17776,7.98137 -4.26599,15.43041 -14.57617,15.78515 -10.31019,0.35471 -15.99808,-7.80425 -15.82032,-15.07617 0.17778,-9.93235 5.51029,-15.07617 14.75391,-15.07617 z M 500.625,669.52734 c 8.00485,0 12.62339,4.34344 12.77734,12.73243 0.15394,6.14195 -4.77268,13.03397 -13.70117,12.73437 -8.92849,-0.29961 -12.77699,-6.59282 -12.62305,-13.33398 0.15395,-6.74115 5.54203,-12.13282 13.54688,-12.13282 z m 319.03711,0 c 8.00485,0 13.39293,5.39167 13.54687,12.13282 0.15394,6.74116 -3.69455,13.03437 -12.62304,13.33398 -8.92849,0.2996 -13.85511,-6.59242 -13.70117,-12.73437 0.15395,-8.38899 4.77249,-12.73243 12.77734,-12.73243 z m -337.11328,37.95313 c 6.36597,0 10.03968,3.55059 10.16211,10.40625 0.12242,5.01933 -3.79598,10.64914 -10.89649,10.4043 -7.10051,-0.24485 -10.15953,-5.38552 -10.03711,-10.89454 0.12242,-5.50901 4.40551,-9.91601 10.77149,-9.91601 z m 355.18945,0 c 6.36598,0 10.64907,4.407 10.77149,9.91601 0.12242,5.50902 -2.9366,10.64969 -10.03711,10.89454 -7.10051,0.24484 -11.01891,-5.38497 -10.89649,-10.4043 0.12243,-6.85566 3.79614,-10.40625 10.16211,-10.40625 z m -316.30469,1.30273 c 0.82134,0.007 1.46964,0.02 1.88282,0.043 3.30541,0.18363 3.48823,0.73549 3.67187,4.5918 0.0612,2.87693 0.2461,7.46756 0.2461,9.91601 0,2.44845 -0.67323,3.2441 -3.42774,3.42774 -2.75451,0.18363 -20.44474,0.61265 -23.01562,0.49023 -2.57087,-0.12242 -3.36782,-0.67476 -3.49024,-2.38867 -0.12239,-1.71392 -0.30601,-8.14065 -0.18359,-11.01758 0.12242,-2.87693 -0.0604,-3.85601 2.26562,-4.3457 2.03528,-0.42848 16.30147,-0.7628 22.05078,-0.7168 z m 277.41993,0 c 5.74931,-0.046 20.0155,0.28832 22.05078,0.7168 2.32602,0.48969 2.1432,1.46877 2.26562,4.3457 0.12242,2.87693 -0.0612,9.30366 -0.18359,11.01758 -0.12242,1.71391 -0.91937,2.26625 -3.49024,2.38867 -2.57088,0.12242 -20.26111,-0.3066 -23.01562,-0.49023 -2.75451,-0.18364 -3.42774,-0.97929 -3.42774,-3.42774 0,-2.44845 0.18489,-7.03908 0.2461,-9.91601 0.18364,-3.85631 0.36646,-4.40817 3.67187,-4.5918 0.41318,-0.023 1.06148,-0.0364 1.88282,-0.043 z"
       id="path3908"
       inkscape:connector-curvature="0" />
    <path
       style="fill:#c5c5c5;fill-opacity:1;stroke:none;stroke-width:1px;stroke-linecap:butt;stroke-linejoin:miter;stroke-opacity:1"
       d="m 660.10156,702.40039 c -7.28829,-0.0415 -96.19232,0.26379 -100.58008,0.29297 -4.30854,0.0287 -4.15429,0.82205 -4.15429,4.13867 0,2.33728 -0.4954,28.72989 -0.32227,31.5 0.17313,2.7701 0.78032,4.93489 4.67578,5.02149 3.82751,0.0851 94.77611,0.16679 100.38086,0.16992 0.005,0 0.0794,0 0.084,0 5.60476,-0.003 96.55335,-0.0848 100.38086,-0.16992 3.89546,-0.0866 4.50265,-2.25139 4.67578,-5.02149 0.17313,-2.77011 -0.32227,-29.16272 -0.32227,-31.5 0,-3.31662 0.15424,-4.10997 -4.1543,-4.13867 -4.38776,-0.0292 -93.29178,-0.33443 -100.58007,-0.29297 -0.006,3e-5 -0.0781,-3e-5 -0.084,0 z"
       id="path3910"
       inkscape:connector-curvature="0" />
    <path
       style="fill:#c5c5c5;fill-opacity:1;stroke:none;stroke-width:1px;stroke-linecap:butt;stroke-linejoin:miter;stroke-opacity:1"
       d="m 479.54688,631.33398 c -4.40722,0.12242 -2.32753,1.95702 0.85546,5.01758 3.18299,3.06056 36.85451,32.99338 41.26172,36.48242 4.40721,3.48904 22.95287,19.40487 27.11524,22.77149 4.16237,3.36662 6.91785,4.34509 13.40625,4.22265 7.38679,-0.16665 80.61896,0.11784 97.91601,-0.19335 0.0204,3.7e-4 0.0634,-3.7e-4 0.084,0 17.29705,0.31119 90.52922,0.0267 97.91601,0.19335 6.4884,0.12244 9.24388,-0.85603 13.40625,-4.22265 4.16237,-3.36662 22.70803,-19.28245 27.11524,-22.77149 4.40721,-3.48904 38.07873,-33.42186 41.26172,-36.48242 3.18299,-3.06056 5.26267,-4.89516 0.85546,-5.01758 -4.32718,-0.1202 -169.84683,1.96394 -180.5957,2.04102 -10.74571,-0.077 -176.27042,-2.16122 -180.59765,-2.04102 z"
       id="path3931"
       inkscape:connector-curvature="0" />
    <path
       style="fill:#c5c5c5;fill-opacity:1;stroke:none;stroke-width:1px;stroke-linecap:butt;stroke-linejoin:miter;stroke-opacity:1"
       d="m 473.36719,400.81055 c -5.3866,0 -5.87555,0.97951 -6.36524,5.38672 -0.48969,4.40721 -2.93821,71.49477 -2.69336,83.49218 0.24484,11.9974 -1.22406,105.0399 -0.73437,110.18164 0.48969,5.14175 0.98017,5.87626 11.26367,6.1211 9.89733,0.23565 156.90112,-2.22901 185.26367,-2.41602 0.0189,1.3e-4 0.065,-1.2e-4 0.084,0 28.36257,0.18701 175.36634,2.65167 185.26367,2.41602 10.2835,-0.24484 10.77398,-0.97935 11.26367,-6.1211 0.48969,-5.14174 -0.97921,-98.18424 -0.73437,-110.18164 0.24485,-11.99741 -2.20367,-79.08497 -2.69336,-83.49218 -0.48969,-4.40721 -0.97864,-5.38672 -6.36524,-5.38672 -5.09695,0 -164.19906,0.20885 -186.73437,0.23242 -0.0101,-1e-5 -0.0738,10e-6 -0.084,0 -22.53531,-0.0236 -181.63742,-0.23242 -186.73437,-0.23242 z"
       id="path4552"
       inkscape:connector-curvature="0" />
    <path
       style="fill:#c5c5c5;fill-opacity:1;stroke:none;stroke-width:1px;stroke-linecap:butt;stroke-linejoin:miter;stroke-opacity:1"
       d="m 660.10156,299.83398 v 0.004 c -30.4141,1.17099 -169.90725,5.26423 -178.4082,5.97266 -8.81442,0.73453 -13.2232,2.20472 -13.71289,9.79492 -0.48969,7.5902 -0.48899,58.02874 -0.24414,63.66015 0.24484,5.63145 0.73481,6.85602 4.65234,7.34571 3.53665,0.44207 152.87863,0.68014 187.71289,0.54297 0.0168,6e-5 0.0672,-7e-5 0.084,0 34.83426,0.13717 184.17624,-0.1009 187.71289,-0.54297 3.91753,-0.48969 4.4075,-1.71426 4.65234,-7.34571 0.24485,-5.63141 0.24555,-56.06995 -0.24414,-63.66015 -0.48969,-7.5902 -4.89847,-9.06039 -13.71289,-9.79492 -8.50095,-0.70843 -147.99411,-4.80167 -178.4082,-5.97266 v -0.004 c -0.01,3.8e-4 -0.0313,0.002 -0.041,0.002 -0.0102,-3.9e-4 -0.0328,-0.002 -0.043,-0.002 z"
       id="path4554"
       inkscape:connector-curvature="0" />
    <path
       inkscape:connector-curvature="0"
       id="path4625"
       d="m 794.82835,712.92767 c 0.36727,-2.20361 0.85696,-2.6933 2.93814,-2.75451 2.08119,-0.0612 19.46519,0.42848 21.36274,0.67333 1.89755,0.24484 2.32603,0.5509 2.44845,2.01997 0.12242,1.46907 0.0612,9.30411 -0.12242,10.77318 -0.18364,1.46907 -0.48969,1.89755 -1.71392,2.08119 -1.22422,0.18363 -20.01608,-0.42848 -22.15848,-0.55091 -2.14239,-0.12242 -2.81572,-0.24484 -2.93814,-1.59149 -0.12242,-1.34665 0.0612,-9.05927 0.18363,-10.65076 z"
       style="fill:#c5c5c5;fill-opacity:1;stroke:none;stroke-width:1px;stroke-linecap:butt;stroke-linejoin:miter;stroke-opacity:1" />
  </g>
  <g
     id="g4648"
     transform="matrix(-1,0,0,1,882.28594,-282.03471)"
     style="fill:#c5c5c5;fill-opacity:1">
    <path
       style="fill:#c5c5c5;fill-opacity:1;stroke:none;stroke-width:1px;stroke-linecap:butt;stroke-linejoin:miter;stroke-opacity:1"
       d="m 794.82835,712.92767 c 0.36727,-2.20361 0.85696,-2.6933 2.93814,-2.75451 2.08119,-0.0612 19.46519,0.42848 21.36274,0.67333 1.89755,0.24484 2.32603,0.5509 2.44845,2.01997 0.12242,1.46907 0.0612,9.30411 -0.12242,10.77318 -0.18364,1.46907 -0.48969,1.89755 -1.71392,2.08119 -1.22422,0.18363 -20.01608,-0.42848 -22.15848,-0.55091 -2.14239,-0.12242 -2.81572,-0.24484 -2.93814,-1.59149 -0.12242,-1.34665 0.0612,-9.05927 0.18363,-10.65076 z"
       id="path4646"
       inkscape:connector-curvature="0" />
  </g>
</svg>
