<?xml version="1.0" encoding="UTF-8" standalone="no"?>
<svg xmlns:dc="http://purl.org/dc/elements/1.1/" xmlns:cc="http://creativecommons.org/ns#" xmlns:rdf="http://www.w3.org/1999/02/22-rdf-syntax-ns#" xmlns:svg="http://www.w3.org/2000/svg" xmlns="http://www.w3.org/2000/svg" version="1.1" id="svg4146" viewBox="0 0 938.42728 938.42663" height="264.84485mm" width="264.84503mm">
<defs id="defs4148" />
<metadata id="metadata4151">
<rdf:RDF>
<cc:Work rdf:about="">
<dc:format>image/svg+xml</dc:format>
<dc:type rdf:resource="http://purl.org/dc/dcmitype/StillImage" />
<dc:title></dc:title>
</cc:Work>
</rdf:RDF>
</metadata>
<g transform="translate(445.35097,70.584757)" id="layer1">
<path id="path4952" transform="translate(-445.35097,-70.584757)" d="M 237.83398 73.214844 C 166.39429 73.226704 92.499778 73.335977 13.345703 73.726562 C 8.8079433 73.726562 6.807375 76.156249 4.671875 87.080078 C 2.536495 98.003917 0 123.79687 0 134.7207 C 0 145.64453 0.84930836 142.91247 21.611328 144.62891 C 26.761148 145.05504 52.053676 145.42601 88.134766 145.74609 C 87.542626 206.26744 86.118346 593.77645 86.884766 707.61719 C 87.099656 757.41966 86.848126 788.54533 87.050781 808.05859 L 68.796875 808.05859 C 62.941185 808.05859 58.226564 818.77657 58.226562 832.08984 L 58.226562 845.82422 C 58.226562 859.13757 62.941185 869.85547 68.796875 869.85547 L 464.30078 869.85547 L 464.66992 869.85547 L 860.17383 869.85547 C 866.02953 869.85547 870.74414 859.13757 870.74414 845.82422 L 870.74414 832.08984 C 870.74414 818.77657 866.02953 808.05859 860.17383 808.05859 L 841.91992 808.05859 C 842.12253 788.54533 841.87105 757.41966 842.08594 707.61719 C 842.85236 593.77645 841.42808 206.26744 840.83594 145.74609 C 876.91703 145.42601 902.20956 145.05504 907.35938 144.62891 C 928.1214 142.91247 928.9707 145.64453 928.9707 134.7207 C 928.9707 123.79687 926.43421 98.003917 924.29883 87.080078 C 922.16333 76.156249 920.16276 73.726562 915.625 73.726562 C 836.47092 73.335977 762.57641 73.226704 691.13672 73.214844 C 613.97371 73.202035 539.64573 73.299777 464.66992 73.289062 C 464.54682 73.289081 464.42388 73.289045 464.30078 73.289062 C 389.32497 73.299777 314.99699 73.202035 237.83398 73.214844 z M 99.023438 145.82617 C 208.71227 146.72287 399.70388 147.17498 459.90234 147.19141 C 460.04405 221.08039 459.59707 373.82847 459.07812 507.82422 C 329.55349 507.5679 124.60154 507.24874 99.089844 506.02539 C 99.193084 355.14051 99.329381 190.78731 99.023438 145.82617 z M 829.94727 145.82617 C 829.64133 190.78731 829.77762 355.14051 829.88086 506.02539 C 804.36916 507.24874 599.41721 507.5679 469.89258 507.82422 C 469.37363 373.82847 468.92665 221.08038 469.06836 147.19141 C 529.26682 147.17498 720.25844 146.72287 829.94727 145.82617 z M 99.080078 521.50586 C 118.88474 522.10899 276.56428 524.40625 321.53125 524.40625 C 347.94824 524.40625 406.10754 524.3013 459.01172 524.40625 C 458.8184 572.937 458.63042 619.79012 458.45117 655.4375 C 328.78549 655.18118 124.20554 654.86797 99.015625 653.64453 C 99.019625 615.43687 99.051878 568.15996 99.080078 521.50586 z M 829.89062 521.50586 C 829.91882 568.15996 829.95108 615.43687 829.95508 653.64453 C 804.76516 654.86797 600.18521 655.18118 470.51953 655.4375 C 470.34028 619.79012 470.1523 572.937 469.95898 524.40625 C 522.86316 524.3013 581.02246 524.40625 607.43945 524.40625 C 652.40642 524.40625 810.08596 522.10899 829.89062 521.50586 z M 99.017578 669.12305 L 99.019531 669.12305 C 118.58919 669.72298 276.52365 672.02539 321.53125 672.02539 C 347.83525 672.02539 405.63681 671.92288 458.36719 672.02539 C 458.22361 699.12643 458.09087 721.83184 457.99609 732.10352 C 457.61416 773.49432 456.12611 797.06354 457.04492 808.05859 C 392.40214 808.96694 350.54462 809.20331 314.6875 809.14258 C 315.10429 807.48725 315.35068 805.52049 315.42969 803.15039 C 315.73571 793.9698 315.76717 778.68382 315.77344 768.15039 L 315.97656 768.15039 C 324.97334 768.15039 332.21484 765.09476 332.21484 761.29883 L 332.21484 752.95703 C 332.21484 749.1611 324.97334 746.10352 315.97656 746.10352 L 161.3125 746.10352 C 152.31572 746.10352 145.07227 749.1611 145.07227 752.95703 L 145.07227 761.29883 C 145.07227 765.09476 152.31572 768.15039 161.3125 768.15039 L 166.52344 768.15039 C 166.57022 789.58685 166.8386 801.5127 167.91797 808.21289 C 147.99762 808.12502 126.26926 808.05859 99.865234 808.05859 C 99.608104 798.29395 99.296383 785.2695 99.164062 767.69336 C 99.053342 752.92278 99.021338 715.24443 99.017578 669.12305 z M 829.95117 669.12305 L 829.95312 669.12305 C 829.94937 715.24443 829.91736 752.92278 829.80664 767.69336 C 829.67432 785.2695 829.3626 798.29395 829.10547 808.05859 C 802.70144 808.05859 780.97308 808.12499 761.05273 808.21289 C 762.1321 801.5127 762.40047 789.58685 762.44727 768.15039 L 767.6582 768.15039 C 776.65498 768.15039 783.89844 765.09476 783.89844 761.29883 L 783.89844 752.95703 C 783.89844 749.1611 776.65498 746.10352 767.6582 746.10352 L 612.99414 746.10352 C 603.99736 746.10352 596.75586 749.1611 596.75586 752.95703 L 596.75586 761.29883 C 596.75586 765.09476 603.99736 768.15039 612.99414 768.15039 L 613.19727 768.15039 C 613.20354 778.68382 613.235 793.9698 613.54102 803.15039 C 613.62003 805.52049 613.86641 807.48725 614.2832 809.14258 C 578.42608 809.20331 536.56856 808.96694 471.92578 808.05859 C 472.84459 797.06354 471.35654 773.49432 470.97461 732.10352 C 470.87983 721.83184 470.7471 699.12643 470.60352 672.02539 C 523.3339 671.92288 581.13545 672.02539 607.43945 672.02539 C 652.44705 672.02539 810.38151 669.72298 829.95117 669.12305 z M 189.3457 768.15039 C 229.32126 769.4965 253.57843 769.66562 292.95312 768.15039 C 293.00194 790.51904 293.29068 802.539 294.49219 809.05859 C 261.87634 808.90252 230.5067 808.56828 188.45703 808.32031 C 188.75677 806.84417 188.93587 805.13276 189.00195 803.15039 C 189.30797 793.9698 189.33943 778.68382 189.3457 768.15039 z M 636.01758 768.15039 C 675.39228 769.66562 699.64944 769.4965 739.625 768.15039 C 739.63127 778.68382 739.66273 793.9698 739.96875 803.15039 C 740.03483 805.13276 740.21393 806.84417 740.51367 808.32031 C 698.464 808.56828 667.09437 808.90252 634.47852 809.05859 C 635.68003 802.539 635.96878 790.51904 636.01758 768.15039 z " style="fill:#c0c0c0;fill-opacity:1;fill-rule:evenodd;stroke:none;stroke-width:1px;stroke-linecap:butt;stroke-linejoin:miter;stroke-opacity:1" />
</g>
</svg>
