<svg xmlns="http://www.w3.org/2000/svg" width="491.338" height="576.197" viewBox="0 0 130 152.452"><g transform="translate(120.728 -18.695)" paint-order="fill markers stroke"><path d="M-88.728 18.695c-16.62 0-29.548 13.387-30 30l-2 78.834h.105a10.16 10.16 0 00-.105 1.447v13.676c0 5.54 4.46 10 10 10h110c5.54 0 10-4.46 10-10v-13.676c0-.492-.037-.975-.105-1.447h.105l-2-78.833c-.421-16.615-13.38-30-30-30z" fill="#f5f5f5"/><rect width="68.036" height="15.119" x="-89.746" y="30.188" rx="4.5" ry="5" fill="#222"/><rect ry="7.602" rx="7.05" y="52.213" x="-108.643" height="60.751" width="105.831" fill="#222"/><g transform="translate(-1.713)" fill="#222"><rect ry="3" rx="3" y="124.682" x="-101.451" height="16.253" width="16.253"/><rect width="16.253" height="16.253" x="-22.832" y="124.682" rx="3" ry="3"/></g><g transform="translate(0 2.134)" fill="#222"><rect width="48.381" height="2" x="-79.919" y="124.194" rx="1" ry="1"/><rect ry="1" rx="1" y="135.155" x="-79.919" height="2" width="48.381"/></g><g transform="translate(1.07)" fill="#f5f5f5"><rect ry="4" rx="4" y="146.024" x="-102.286" height="25.123" width="17.478"/><rect width="17.478" height="25.123" x="-28.787" y="146.024" rx="4" ry="4"/></g></g></svg>