<svg xmlns="http://www.w3.org/2000/svg" width="491.338" height="576.197" viewBox="0 0 130 152.452"><path d="M32 0C15.38 0 2.452 13.386 2 30l-2 78.833h.105A10.16 10.16 0 000 110.281v13.675c0 5.54 4.46 10 10 10h9.511v14.496c0 2.216 1.785 4 4 4h9.478c2.216 0 4-1.784 4-4v-14.495h56.022v14.495c0 2.216 1.784 4 4 4h9.477c2.216 0 4-1.784 4-4v-14.495H120c5.54 0 10-4.46 10-10V110.28c0-.492-.037-.975-.105-1.448H130L128 30c-.422-16.614-13.38-30-30-30zm3.482 11.492h59.036c2.493 0 4.5 2.23 4.5 5v5.12c0 2.77-2.007 5-4.5 5H35.482c-2.493 0-4.5-2.23-4.5-5v-5.12c0-2.77 2.007-5 4.5-5zM19.135 33.518h91.73c3.906 0 7.05 3.39 7.05 7.602v45.547c0 4.212-3.144 7.602-7.05 7.602h-91.73c-3.906 0-7.05-3.39-7.05-7.602V41.12c0-4.212 3.144-7.602 7.05-7.602zm1.43 72.468h10.252c1.662 0 3 1.339 3 3v10.253c0 1.662-1.338 3-3 3H20.564c-1.662 0-3-1.338-3-3v-10.252c0-1.662 1.338-3 3-3zm78.618 0h10.253c1.662 0 3 1.339 3 3v10.253c0 1.662-1.338 3-3 3H99.183c-1.662 0-3-1.338-3-3v-10.252c0-1.662 1.338-3 3-3zm-57.374 1.646H88.19c.554 0 1 .446 1 1s-.446 1-1 1H41.81c-.555 0-1-.446-1-1s.445-1 1-1zm0 10.962H88.19c.554 0 1 .446 1 1s-.446 1-1 1H41.81c-.555 0-1-.446-1-1s.445-1 1-1z" fill="#c5c5c5" paint-order="fill markers stroke"/></svg>