<?xml version="1.0" encoding="UTF-8" standalone="no"?>
<svg
   xmlns:dc="http://purl.org/dc/elements/1.1/"
   xmlns:cc="http://creativecommons.org/ns#"
   xmlns:rdf="http://www.w3.org/1999/02/22-rdf-syntax-ns#"
   xmlns:svg="http://www.w3.org/2000/svg"
   xmlns="http://www.w3.org/2000/svg"
   id="svg8"
   version="1.1"
   viewBox="0 0 129.99982 152.452"
   height="152.452mm"
   width="129.99982mm">
  <defs
     id="defs2" />
  <metadata
     id="metadata5">
    <rdf:RDF>
      <cc:Work
         rdf:about="">
        <dc:format>image/svg+xml</dc:format>
        <dc:type
           rdf:resource="http://purl.org/dc/dcmitype/StillImage" />
        <dc:title></dc:title>
      </cc:Work>
    </rdf:RDF>
  </metadata>
  <g
     style="fill:#c5c5c5;fill-opacity:1"
     transform="translate(120.72803,-18.695499)"
     id="layer1">
    <path
       id="rect815"
       transform="matrix(0.26458333,0,0,0.26458333,-120.72803,18.695499)"
       d="M 120.94531,0 C 58.129576,0 9.2683484,50.59419 7.5605469,113.38672 L 0,411.33789 H 0.39648438 C 0.13961228,413.12382 0,414.94935 0,416.80859 v 51.6875 c 0,20.93859 16.856339,37.79688 37.794922,37.79688 h 35.949219 v 54.78515 c 0,8.37544 6.743707,15.11915 15.11914,15.11915 h 35.820309 c 8.37544,0 15.11719,-6.74371 15.11719,-15.11915 v -54.78515 h 211.73633 v 54.78515 c 0,8.37544 6.74175,15.11915 15.11719,15.11915 h 35.82031 c 8.37543,0 15.11914,-6.74371 15.11914,-15.11915 v -54.78515 h 35.94922 c 20.93858,0 37.79492,-16.85829 37.79492,-37.79688 v -51.6875 c 0,-1.85917 -0.13768,-3.68483 -0.39453,-5.4707 h 0.39453 L 483.7793,113.38672 C 482.18641,50.591169 433.20833,0 370.39258,0 Z m 13.16016,43.435547 h 223.12695 c 9.42236,0 17.00781,8.429149 17.00781,18.898437 v 19.347657 c 0,10.469288 -7.58545,18.896479 -17.00781,18.896479 H 134.10547 c -9.42236,0 -17.00781,-8.427191 -17.00781,-18.896479 V 62.333984 c 0,-10.469288 7.58545,-18.898437 17.00781,-18.898437 z M 72.320312,126.68164 H 419.01758 c 14.76206,0 26.64648,12.81492 26.64648,28.73242 v 172.14649 c 0,15.9175 -11.88442,28.73242 -26.64648,28.73242 H 72.320312 c -14.762059,0 -26.646484,-12.81492 -26.646484,-28.73242 V 155.41406 c 0,-15.9175 11.884425,-28.73242 26.646484,-28.73242 z m 5.402344,273.89648 h 38.750004 c 6.28157,0 11.33984,5.05827 11.33984,11.33985 v 38.75 c 0,6.28157 -5.05827,11.33984 -11.33984,11.33984 H 77.722656 c -6.281575,0 -11.339843,-5.05827 -11.339844,-11.33984 v -38.75 c 10e-7,-6.28158 5.058269,-11.33985 11.339844,-11.33985 z m 297.142574,0 h 38.75 c 6.28158,0 11.33985,5.05827 11.33985,11.33985 v 38.75 c 0,6.28157 -5.05827,11.33984 -11.33985,11.33984 h -38.75 c -6.28157,0 -11.33984,-5.05827 -11.33984,-11.33984 v -38.75 c 0,-6.28158 5.05827,-11.33985 11.33984,-11.33985 z m -216.8457,6.22071 h 175.29883 c 2.09386,0 3.7793,1.68546 3.7793,3.77929 0,2.09386 -1.68544,3.7793 -3.7793,3.7793 H 158.01953 c -2.09386,0 -3.7793,-1.68544 -3.7793,-3.7793 0,-2.09383 1.68544,-3.77929 3.7793,-3.77929 z m 0,41.42969 h 175.29883 c 2.09386,0 3.7793,1.68543 3.7793,3.77929 0,2.09386 -1.68544,3.7793 -3.7793,3.7793 H 158.01953 c -2.09386,0 -3.7793,-1.68544 -3.7793,-3.7793 0,-2.09386 1.68544,-3.77929 3.7793,-3.77929 z"
       style="opacity:1;vector-effect:none;fill:#c5c5c5;fill-opacity:1;stroke:none;stroke-width:5;stroke-linecap:round;stroke-linejoin:round;stroke-miterlimit:4;stroke-dasharray:none;stroke-dashoffset:0;stroke-opacity:1;paint-order:fill markers stroke" />
  </g>
</svg>
