<svg xmlns="http://www.w3.org/2000/svg" width="608.798" height="701.657" viewBox="0 0 161.078 185.647"><g transform="translate(111.917 -8)"><path d="M-81.59 8H19.905c13.85 0 24.376 11.163 25 25l4.233 93.857c.624 13.836-11.15 25-25 25H-86.881c-13.85 0-25.78-11.172-25-25L-106.589 33c.78-13.828 11.15-25 25-25z" fill="#f5f5f5" paint-order="fill markers stroke"/><rect width="114.294" height="63.286" x="-88.519" y="36.896" rx="2.864" ry="2.484" fill="#111" paint-order="fill markers stroke"/><path d="M-56.774 126.36a4.984 4.984 0 00-3.863 1.81l-24.595 29.62h-16.42c-2.77 0-5 2.231-5 5.001v4.753c0 2.77 2.23 5 5 5h4.17l-8.193 9.867a4.99 4.99 0 00.653 7.04l3.657 3.037a4.99 4.99 0 007.04-.652l16.02-19.292H15.561l16.018 19.292a4.99 4.99 0 007.041.652l3.657-3.036a4.99 4.99 0 00.653-7.041l-8.193-9.867h4.17c2.77 0 5-2.23 5-5v-4.753c0-2.77-2.23-5-5-5h-16.42l-24.595-29.62a4.986 4.986 0 00-7.04-.653l-3.658 3.036a4.99 4.99 0 00-.652 7.041l16.769 20.196h-69.368l16.77-20.196a4.99 4.99 0 00-.653-7.04l-3.657-3.037a4.985 4.985 0 00-3.178-1.158z" fill="#f5f5f5" paint-order="fill markers stroke"/><circle cx="-115" cy="137" r="10" fill="#111" paint-order="fill markers stroke" transform="translate(20.146 .531) scale(.91602)"/><g><circle r="10" cy="137" cx="-120.777" fill="#111" paint-order="fill markers stroke" transform="translate(133.086 .531) scale(.91602)"/></g></g></svg>