<svg xmlns="http://www.w3.org/2000/svg" width="608.799" height="701.657" viewBox="0 0 161.078 185.647"><path d="M30.328 0c-13.85 0-24.22 11.172-25 25L.036 118.858c-.78 13.828 11.15 25 25 25h6.576l-4.927 5.933h-16.42c-2.77 0-5 2.23-5 5v4.754c0 2.77 2.23 5 5 5h4.17l-8.193 9.867a4.99 4.99 0 00.653 7.04l3.657 3.037a4.99 4.99 0 007.04-.653l16.02-19.292H127.478l16.018 19.292a4.99 4.99 0 007.041.653l3.657-3.037a4.99 4.99 0 00.653-7.04l-8.193-9.868h4.17c2.77 0 5-2.23 5-5v-4.752c0-2.77-2.23-5-5-5h-16.42l-4.927-5.934h6.576c13.85 0 25.624-11.164 25-25L156.821 25c-.624-13.836-11.15-25-25-25zm-4.066 28.896h108.566c1.587 0 2.864 1.109 2.864 2.485v58.317c0 1.376-1.277 2.484-2.864 2.484H26.262c-1.586 0-2.864-1.108-2.864-2.484V31.381c0-1.376 1.278-2.485 2.864-2.485zm.46 79.97a9.16 9.16 0 019.16 9.16 9.16 9.16 0 01-9.16 9.161 9.16 9.16 0 01-9.16-9.16 9.16 9.16 0 019.16-9.16zm107.647 0a9.16 9.16 0 019.16 9.16 9.16 9.16 0 01-9.16 9.161 9.16 9.16 0 01-9.16-9.16 9.16 9.16 0 019.16-9.16zm-83.58 34.992h59.513l4.927 5.933H45.86z" fill="#c5c5c5" paint-order="fill markers stroke"/></svg>