<?xml version="1.0" encoding="UTF-8" standalone="no"?>
<!-- Created with Inkscape (http://www.inkscape.org/) -->

<svg
   xmlns:dc="http://purl.org/dc/elements/1.1/"
   xmlns:cc="http://creativecommons.org/ns#"
   xmlns:rdf="http://www.w3.org/1999/02/22-rdf-syntax-ns#"
   xmlns:svg="http://www.w3.org/2000/svg"
   xmlns="http://www.w3.org/2000/svg"
   xmlns:sodipodi="http://sodipodi.sourceforge.net/DTD/sodipodi-0.dtd"
   xmlns:inkscape="http://www.inkscape.org/namespaces/inkscape"
   width="161.07799mm"
   height="185.64676mm"
   viewBox="0 0 161.07799 185.64677"
   version="1.1"
   id="svg1012"
   inkscape:version="0.92.2 5c3e80d, 2017-08-06"
   sodipodi:docname="metro.svg">
  <defs
     id="defs1006" />
  <sodipodi:namedview
     id="base"
     pagecolor="#000000"
     bordercolor="#666666"
     borderopacity="1.0"
     inkscape:pageopacity="0"
     inkscape:pageshadow="2"
     inkscape:zoom="0.58333333"
     inkscape:cx="243.81336"
     inkscape:cy="339.30885"
     inkscape:document-units="mm"
     inkscape:current-layer="layer1"
     showgrid="false"
     inkscape:window-width="1440"
     inkscape:window-height="855"
     inkscape:window-x="1920"
     inkscape:window-y="85"
     inkscape:window-maximized="1"
     inkscape:snap-global="false" />
  <metadata
     id="metadata1009">
    <rdf:RDF>
      <cc:Work
         rdf:about="">
        <dc:format>image/svg+xml</dc:format>
        <dc:type
           rdf:resource="http://purl.org/dc/dcmitype/StillImage" />
        <dc:title></dc:title>
      </cc:Work>
    </rdf:RDF>
  </metadata>
  <g
     inkscape:label="Layer 1"
     inkscape:groupmode="layer"
     id="layer1"
     transform="translate(111.91716,-7.999405)">
    <path
       style="opacity:1;vector-effect:none;fill:#f5f5f5;fill-opacity:1;stroke:none;stroke-width:5;stroke-linecap:round;stroke-linejoin:round;stroke-miterlimit:4;stroke-dasharray:none;stroke-dashoffset:0;stroke-opacity:1;paint-order:fill markers stroke"
       d="M 114.625,0 C 62.278541,0 23.083314,42.224828 20.136719,94.488281 L 0.13671875,449.22656 C -2.8098765,501.49002 42.278541,543.71484 94.625,543.71484 h 24.85352 l -18.6211,22.42578 H 38.798828 c -10.469291,0 -18.896484,8.42915 -18.896484,18.89844 v 17.96485 c 0,10.46929 8.427193,18.89648 18.896484,18.89648 h 15.757813 l -30.964844,37.29297 c -6.687988,8.05459 -5.587792,19.92334 2.466797,26.61133 l 13.822265,11.47656 c 8.054623,6.68799 19.923345,5.58783 26.611329,-2.4668 l 60.542972,-72.91406 h 137.75781 79.25781 137.75781 l 60.54297,72.91406 c 6.68799,8.05463 18.55672,9.15479 26.61133,2.4668 l 13.82227,-11.47656 c 8.0546,-6.68799 9.15478,-18.55674 2.46679,-26.61133 l -30.96484,-37.29297 h 15.75781 c 10.46929,0 18.89649,-8.42719 18.89649,-18.89648 v -17.96485 c 0,-10.46929 -8.4272,-18.89844 -18.89649,-18.89844 h -62.05859 l -18.6211,-22.42578 h 24.85547 c 52.34646,0 96.84691,-42.195 94.48828,-94.48828 l -16,-354.738279 C 590.35036,42.194992 550.56716,0 498.2207,0 Z M 99.257812,109.21484 H 509.58789 c 5.99604,0 10.82227,4.18802 10.82227,9.38868 v 220.41406 c 0,5.20065 -4.82623,9.38672 -10.82227,9.38672 H 99.257812 c -5.99604,0 -10.824218,-4.18607 -10.824218,-9.38672 V 118.60352 c 0,-5.20066 4.828178,-9.38868 10.824218,-9.38868 z m 1.736328,302.24805 a 34.621229,34.621229 0 0 1 34.62109,34.62109 34.621229,34.621229 0 0 1 -34.62109,34.62305 34.621229,34.621229 0 0 1 -34.621093,-34.62305 34.621229,34.621229 0 0 1 34.621093,-34.62109 z m 406.85742,0 a 34.621229,34.621229 0 0 1 34.6211,34.62109 34.621229,34.621229 0 0 1 -34.6211,34.62305 34.621229,34.621229 0 0 1 -34.62109,-34.62305 34.621229,34.621229 0 0 1 34.62109,-34.62109 z M 191.95508,543.71484 h 224.93359 l 18.6211,22.42578 h -91.45899 -79.25781 -91.45899 z"
       transform="matrix(0.26458333,0,0,0.26458333,-111.91715,7.999405)"
       id="rect1780"
       inkscape:connector-curvature="0" />
    <g
       transform="matrix(1.5304751,0,0,1.5304751,212.34272,-63.729861)"
       id="g1815">
      <g
         id="g1799"
         transform="translate(-1.6036172,6.0937453)">
        <g
           transform="matrix(0.69144431,0,0,0.69144431,-23.280906,36.376001)"
           id="g1789">
          <g
             id="g1785"
             transform="matrix(0.86560847,0,0,0.86560847,7.2127181,-0.69715589)" />
          <g
             transform="matrix(0.86560847,0,0,0.86560847,118.71569,-0.69715589)"
             id="g1787" />
        </g>
        <g
           id="g1797"
           transform="matrix(0.69144431,0,0,0.69144431,-8.4426607,36.376001)">
          <g
             transform="matrix(0.86560847,0,0,0.86560847,7.2127181,-0.69715589)"
             id="g1793" />
          <g
             id="g1795"
             transform="matrix(0.86560847,0,0,0.86560847,118.71569,-0.69715589)" />
        </g>
      </g>
      <g
         transform="translate(102.31078,6.0937453)"
         id="g1813">
        <g
           id="g1805"
           transform="matrix(0.69144431,0,0,0.69144431,-23.280906,36.376001)">
          <g
             transform="matrix(0.86560847,0,0,0.86560847,7.2127181,-0.69715589)"
             id="g1801" />
          <g
             id="g1803"
             transform="matrix(0.86560847,0,0,0.86560847,118.71569,-0.69715589)" />
        </g>
        <g
           transform="matrix(0.69144431,0,0,0.69144431,-8.4426607,36.376001)"
           id="g1811">
          <g
             id="g1807"
             transform="matrix(0.86560847,0,0,0.86560847,7.2127181,-0.69715589)" />
          <g
             transform="matrix(0.86560847,0,0,0.86560847,118.71569,-0.69715589)"
             id="g1809" />
        </g>
      </g>
    </g>
    <g
       id="g1881"
       transform="matrix(1.5304751,0,0,1.5304751,320.12221,-54.403536)">
      <g
         transform="matrix(0.69144431,0,0,0.69144431,-23.280906,36.376001)"
         id="g1873">
        <g
           id="g1869"
           transform="matrix(0.86560847,0,0,0.86560847,7.2127181,-0.69715589)" />
        <g
           transform="matrix(0.86560847,0,0,0.86560847,118.71569,-0.69715589)"
           id="g1871" />
      </g>
      <g
         id="g1879"
         transform="matrix(0.69144431,0,0,0.69144431,-8.4426607,36.376001)">
        <g
           transform="matrix(0.86560847,0,0,0.86560847,7.2127181,-0.69715589)"
           id="g1875" />
        <g
           id="g1877"
           transform="matrix(0.86560847,0,0,0.86560847,118.71569,-0.69715589)" />
      </g>
    </g>
    <g
       id="g1913"
       transform="matrix(1.5304751,0,0,1.5304751,325.282,-63.729861)">
      <g
         transform="translate(-1.6036172,6.0937453)"
         id="g1897">
        <g
           id="g1889"
           transform="matrix(0.69144431,0,0,0.69144431,-23.280906,36.376001)">
          <g
             transform="matrix(0.86560847,0,0,0.86560847,7.2127181,-0.69715589)"
             id="g1885" />
          <g
             id="g1887"
             transform="matrix(0.86560847,0,0,0.86560847,118.71569,-0.69715589)" />
        </g>
        <g
           transform="matrix(0.69144431,0,0,0.69144431,-8.4426607,36.376001)"
           id="g1895">
          <g
             id="g1891"
             transform="matrix(0.86560847,0,0,0.86560847,7.2127181,-0.69715589)" />
          <g
             transform="matrix(0.86560847,0,0,0.86560847,118.71569,-0.69715589)"
             id="g1893" />
        </g>
      </g>
      <g
         id="g1911"
         transform="translate(102.31078,6.0937453)">
        <g
           transform="matrix(0.69144431,0,0,0.69144431,-23.280906,36.376001)"
           id="g1903">
          <g
             id="g1899"
             transform="matrix(0.86560847,0,0,0.86560847,7.2127181,-0.69715589)" />
          <g
             transform="matrix(0.86560847,0,0,0.86560847,118.71569,-0.69715589)"
             id="g1901" />
        </g>
        <g
           id="g1909"
           transform="matrix(0.69144431,0,0,0.69144431,-8.4426607,36.376001)">
          <g
             transform="matrix(0.86560847,0,0,0.86560847,7.2127181,-0.69715589)"
             id="g1905" />
          <g
             id="g1907"
             transform="matrix(0.86560847,0,0,0.86560847,118.71569,-0.69715589)" />
        </g>
      </g>
    </g>
  </g>
</svg>
