<?xml version="1.0" encoding="UTF-8" standalone="no"?>
<svg
   xmlns:dc="http://purl.org/dc/elements/1.1/"
   xmlns:cc="http://creativecommons.org/ns#"
   xmlns:rdf="http://www.w3.org/1999/02/22-rdf-syntax-ns#"
   xmlns:svg="http://www.w3.org/2000/svg"
   xmlns="http://www.w3.org/2000/svg"
   width="161.07799mm"
   height="185.64676mm"
   viewBox="0 0 161.07799 185.64677"
   version="1.1"
   id="svg1012">
  <defs
     id="defs1006" />
  <metadata
     id="metadata1009">
    <rdf:RDF>
      <cc:Work
         rdf:about="">
        <dc:format>image/svg+xml</dc:format>
        <dc:type
           rdf:resource="http://purl.org/dc/dcmitype/StillImage" />
        <dc:title></dc:title>
      </cc:Work>
    </rdf:RDF>
  </metadata>
  <g
     id="layer1"
     transform="translate(111.91716,-7.999405)">
    <path
       style="opacity:1;vector-effect:none;fill:#d2d2d2;fill-opacity:1;stroke:none;stroke-width:1.32291663;stroke-linecap:round;stroke-linejoin:round;stroke-miterlimit:4;stroke-dasharray:none;stroke-dashoffset:0;stroke-opacity:1;paint-order:fill markers stroke"
       d="m -81.589286,7.999405 c -13.85,0 -24.220404,11.171986 -25.000024,25.000024 l -5.29167,93.857831 c -0.77962,13.82804 11.15003,25.00003 25.000028,25.00003 h 6.575827 l -4.926833,5.93349 h -16.419672 c -2.77,0 -4.99969,2.23021 -4.99969,5.00021 v 4.7532 c 0,2.77 2.22969,4.99969 4.99969,4.99969 h 4.169258 l -8.192778,9.8671 c -1.76953,2.13111 -1.47844,5.27138 0.65267,7.04091 l 3.65714,3.03651 c 2.131119,1.76953 5.271385,1.47845 7.040915,-0.65267 l 16.018661,-19.29185 h 36.44842 20.970295 36.44842 l 16.018661,19.29185 c 1.76953,2.13112 4.909799,2.4222 7.040914,0.65267 l 3.657142,-3.03651 c 2.131113,-1.76953 2.422202,-4.9098 0.652672,-7.04091 l -8.192781,-9.8671 h 4.169254 c 2.77,0 4.999696,-2.22969 4.999696,-4.99969 v -4.7532 c 0,-2.77 -2.229696,-5.00021 -4.999696,-5.00021 H 22.487565 l -4.926833,-5.93349 h 6.576343 c 13.850001,0 25.624078,-11.1641 25.000024,-25.00003 L 44.903766,32.999429 C 44.279714,19.163496 33.753743,7.999405 19.903742,7.999405 Z m -4.065902,28.896426 H 22.911311 c 1.586452,0 2.863392,1.10808 2.863392,2.484088 v 58.317886 c 0,1.376006 -1.27694,2.483565 -2.863392,2.483565 H -85.655188 c -1.586452,0 -2.863907,-1.107559 -2.863907,-2.483565 V 39.379919 c 0,-1.376008 1.277455,-2.484088 2.863907,-2.484088 z m 0.459404,79.969799 a 9.1602001,9.1602001 0 0 1 9.160163,9.16016 9.1602001,9.1602001 0 0 1 -9.160163,9.16068 9.1602001,9.1602001 0 0 1 -9.160164,-9.16068 9.1602001,9.1602001 0 0 1 9.160164,-9.16016 z m 107.647691,0 a 9.1602001,9.1602001 0 0 1 9.160166,9.16016 9.1602001,9.1602001 0 0 1 -9.160166,9.16068 9.1602001,9.1602001 0 0 1 -9.160163,-9.16068 9.1602001,9.1602001 0 0 1 9.160163,-9.16016 z m -83.580943,34.99166 h 59.5136785 l 4.9268327,5.93349 H -20.887049 -41.857344 -66.055868 Z"
       id="rect1780" />
  </g>
</svg>
