<?xml version="1.0" encoding="UTF-8" standalone="no"?>
<!-- Created with Inkscape (http://www.inkscape.org/) -->

<svg
   xmlns:dc="http://purl.org/dc/elements/1.1/"
   xmlns:cc="http://creativecommons.org/ns#"
   xmlns:rdf="http://www.w3.org/1999/02/22-rdf-syntax-ns#"
   xmlns:svg="http://www.w3.org/2000/svg"
   xmlns="http://www.w3.org/2000/svg"
   xmlns:sodipodi="http://sodipodi.sourceforge.net/DTD/sodipodi-0.dtd"
   xmlns:inkscape="http://www.inkscape.org/namespaces/inkscape"
   version="1.1"
   id="svg4725"
   width="449.72235"
   height="534.63928"
   viewBox="0 0 449.72236 534.63928"
   sodipodi:docname="metro-icon.svg"
   inkscape:version="0.92.2 5c3e80d, 2017-08-06">
  <metadata
     id="metadata4731">
    <rdf:RDF>
      <cc:Work
         rdf:about="">
        <dc:format>image/svg+xml</dc:format>
        <dc:type
           rdf:resource="http://purl.org/dc/dcmitype/StillImage" />
        <dc:title></dc:title>
      </cc:Work>
    </rdf:RDF>
  </metadata>
  <defs
     id="defs4729" />
  <sodipodi:namedview
     pagecolor="#ffffff"
     bordercolor="#666666"
     borderopacity="1"
     objecttolerance="10"
     gridtolerance="10"
     guidetolerance="10"
     inkscape:pageopacity="0"
     inkscape:pageshadow="2"
     inkscape:window-width="1443"
     inkscape:window-height="775"
     id="namedview4727"
     showgrid="false"
     inkscape:zoom="0.88719609"
     inkscape:cx="131.81507"
     inkscape:cy="334.39232"
     inkscape:window-x="0"
     inkscape:window-y="0"
     inkscape:window-maximized="0"
     inkscape:current-layer="svg4725" />
  <g
     id="g5419"
     style="fill:#c5c5c5;fill-opacity:1">
    <path
       style="fill:#c5c5c5;fill-opacity:1;stroke:none;stroke-width:1px;stroke-linecap:butt;stroke-linejoin:miter;stroke-opacity:1"
       d="M 224.82114,0 V 0.002 C 174.65181,1.32802 107.43626,8.92798 54.702,30.56254 -0.24639,53.10549 5.10757,53.66922 3.41685,106.36333 1.72613,159.05743 1.44447,406.3254 1.30357,413.93364 c -0.14089,7.60824 -0.14038,9.86301 6.90429,10.0039 7.04466,0.14091 8.17188,0.28115 8.17188,-4.79101 0,-5.07216 0.14062,-45.50838 0.14062,-49.3125 0,-3.80412 0.84547,-4.08525 5.07227,-2.39453 4.2268,1.69072 89.32667,31.98368 103.41601,37.47851 14.08933,5.49484 43.53585,15.21568 63.6836,18.87891 12.01825,2.18514 25.81407,2.75263 36.1289,2.83594 v 0.002 c 0.0131,-10e-5 0.0279,1.1e-4 0.041,0 0.0125,10e-5 0.0265,-10e-5 0.0391,0 v -0.002 c 10.31483,-0.0833 24.11065,-0.6508 36.12891,-2.83594 20.14775,-3.66323 49.59426,-13.38407 63.68359,-18.87891 14.08934,-5.49483 99.18922,-35.78779 103.41602,-37.47851 4.2268,-1.69072 5.07226,-1.40959 5.07226,2.39453 0,3.80412 0.14063,44.24034 0.14063,49.3125 0,5.07216 1.12721,4.93191 8.17187,4.79101 7.04467,-0.14089 7.04519,-2.39566 6.9043,-10.0039 -0.1409,-7.60824 -0.42256,-254.87621 -2.11328,-307.57031 C 444.61482,53.66922 449.96877,53.10548 395.02038,30.56254 342.28611,8.92794 275.07056,1.32798 224.90122,0.00196 V -4e-5 c -0.0128,3.4e-4 -0.0263,0.002 -0.0391,0.002 -0.0134,-3.6e-4 -0.0276,-0.002 -0.041,-0.002 z m 0.041,73.43946 c 31.21649,0.36403 88.79355,2.2489 144.23242,12.35351 57.20269,10.42611 51.2855,13.80907 52.13086,30.99805 0.84536,17.18899 3.09927,137.51093 2.25391,156.39063 -0.84536,18.87971 -4.50863,27.05166 -22.54297,27.61523 -15.4744,0.48358 -138.18714,1.9978 -176.07422,2.46094 C 186.97639,302.7947 64.26052,301.28046 48.78597,300.79688 30.75163,300.23331 27.08836,292.06136 26.243,273.18165 25.39764,254.30195 27.65155,133.98001 28.49691,116.79102 29.34227,99.60204 23.42508,96.21908 80.62776,85.79297 136.06768,75.68817 193.64605,73.80344 224.86214,73.43946 Z"
       id="path5286"
       inkscape:connector-curvature="0" />
    <path
       style="fill:#c5c5c5;fill-opacity:1;stroke:none;stroke-width:1px;stroke-linecap:butt;stroke-linejoin:miter;stroke-opacity:1"
       d="m 48.22154,134.82422 c -9.58075,0 -9.86221,2.25504 -10.42579,9.86328 -0.56357,7.60825 -1.40927,113.27722 -0.8457,122.57618 0.56358,9.29896 1.12712,13.24536 14.37109,14.65429 12.55879,1.33604 147.78618,2.91936 173.54102,2.11914 25.75874,0.80011 160.98053,-0.78312 173.53906,-2.11914 13.24397,-1.40893 13.80752,-5.35533 14.3711,-14.65429 0.56357,-9.29896 -0.28214,-114.96793 -0.84571,-122.57618 -0.56358,-7.60824 -0.84503,-9.86328 -10.42578,-9.86328 -9.18676,0 -138.10636,0.007 -176.59961,0.50391 -0.0211,-2.7e-4 -0.0589,2.7e-4 -0.0801,0 -38.49324,-0.4971 -167.41285,-0.50391 -176.5996,-0.50391 z"
       id="path5291"
       inkscape:connector-curvature="0" />
    <path
       style="fill:#c5c5c5;fill-opacity:1;stroke:none;stroke-width:1px;stroke-linecap:butt;stroke-linejoin:miter;stroke-opacity:1"
       d="m 134.4481,93.11915 c -8.17181,0 -7.32563,3.38149 -7.60742,8.17187 -0.2822,4.79037 -0.28321,13.24406 -0.28321,19.44336 0,6.19931 6e-5,7.32758 8.17188,7.60938 7.77083,0.26813 66.05115,0.2767 90.09179,0.27734 0.0188,0 0.0613,0 0.0801,0 24.04065,-6.4e-4 82.32096,-0.009 90.0918,-0.27734 8.17182,-0.2818 8.17187,-1.41007 8.17187,-7.60938 0,-6.1993 -0.001,-14.65299 -0.2832,-19.44336 -0.28179,-4.79038 0.56439,-8.17187 -7.60742,-8.17187 -6.46078,0 -60.71071,0.44405 -90.37305,0.63476 -0.022,-1.4e-4 -0.058,1.4e-4 -0.0801,0 -29.66233,-0.19071 -83.91226,-0.63476 -90.37304,-0.63476 z"
       id="path5293"
       inkscape:connector-curvature="0" />
    <path
       sodipodi:nodetypes="sssss"
       inkscape:connector-curvature="0"
       id="path5295"
       d="m 359.51442,124.68021 c 12.40093,-0.14763 13.52576,-8.4536 13.80755,-14.65291 0.28178,-6.1993 -6.19931,-12.96218 -14.93469,-12.96218 -8.73539,0 -12.96219,5.91752 -12.96219,13.80754 0,7.89003 2.81867,13.94173 14.08933,13.80755 z"
       style="fill:#c5c5c5;fill-opacity:1;stroke:none;stroke-width:1px;stroke-linecap:butt;stroke-linejoin:miter;stroke-opacity:1" />
    <path
       inkscape:connector-curvature="0"
       id="path5322"
       d="m 423.1982,374.76584 c 4.64948,-1.69072 4.79038,-1.40893 4.79038,4.79038 0,6.1993 -0.1409,35.7869 -0.1409,39.59102 0,3.80412 -1.69072,4.36769 -5.35394,4.50859 -3.66323,0.14089 -43.67693,1.40893 -54.52572,0.84536 -10.84878,-0.56358 -14.51201,-3.09966 -21.41578,-9.72164 -6.90377,-6.62199 -5.63573,-9.86254 -0.98626,-11.69415 4.64948,-1.83161 70.86934,-25.78348 77.63222,-28.31956 z"
       style="fill:#c5c5c5;fill-opacity:1;stroke:none;stroke-width:1px;stroke-linecap:butt;stroke-linejoin:miter;stroke-opacity:1" />
    <path
       style="fill:#c5c5c5;fill-opacity:1;stroke:none;stroke-width:1px;stroke-linecap:butt;stroke-linejoin:miter;stroke-opacity:1"
       d="m 119.48325,406.49024 c -1.96811,0.0198 -3.1048,1.20987 -4.47851,2.79492 -1.83161,2.1134 -10.99018,13.10241 -21.27539,16.76563 -10.28521,3.66323 -57.76569,2.11381 -84.39453,1.83203 -8.59449,-0.28179 -9.01704,-0.98711 -9.29883,3.52148 -0.28178,4.50858 1.12737,41.70598 2.95898,53.54102 1.83162,11.83504 6.62285,37.05425 7.75,42.4082 1.12714,5.35394 2.8175,6.48135 13.52539,7.04492 10.7079,0.56358 60.02014,-0.001 67.91016,-0.2832 7.89003,-0.28179 9.01651,-0.56291 9.58008,-9.58008 0.56357,-9.01717 -1.97106,-81.43623 48.46875,-83.12695 32.9964,-1.10603 58.66535,-0.16841 74.59179,0.45898 v 0.002 c 0.0119,-4.7e-4 0.0291,-10e-4 0.041,-0.002 0.0113,4.5e-4 0.0277,0.002 0.0391,0.002 v -0.002 c 15.92645,-0.62739 41.59539,-1.56501 74.5918,-0.45898 50.43981,1.69072 47.90518,74.10978 48.46875,83.12695 0.56357,9.01717 1.69005,9.29829 9.58008,9.58008 7.89002,0.28178 57.20225,0.84678 67.91015,0.2832 10.70789,-0.56357 12.39825,-1.69098 13.52539,-7.04492 1.12715,-5.35395 5.91838,-30.57316 7.75,-42.4082 1.83161,-11.83504 3.24077,-49.03244 2.95899,-53.54102 -0.28179,-4.50859 -0.70434,-3.80327 -9.29883,-3.52148 -26.62884,0.28178 -74.10932,1.8312 -84.39453,-1.83203 -10.28521,-3.66322 -19.44378,-14.65223 -21.27539,-16.76563 -1.37371,-1.58505 -2.51041,-2.77511 -4.47852,-2.79492 -0.65603,-0.007 -1.40457,0.11665 -2.28515,0.39844 -3.52233,1.12715 -20.42881,8.59595 -45.50782,15.64062 -25.07901,7.04467 -48.32757,6.7626 -55.79492,7.32617 -0.5411,0.0408 -1.15006,0.15312 -1.78906,0.29883 -0.6397,-0.14593 -1.24937,-0.25798 -1.79102,-0.29883 -7.46735,-0.56357 -30.71591,-0.2815 -55.79492,-7.32617 -25.07901,-7.04467 -41.98548,-14.51347 -45.50781,-15.64062 -0.88058,-0.28179 -1.62913,-0.40544 -2.28516,-0.39844 z"
       id="path5324"
       inkscape:connector-curvature="0" />
    <path
       style="fill:#c5c5c5;fill-opacity:1;stroke:none;stroke-width:1px;stroke-linecap:butt;stroke-linejoin:miter;stroke-opacity:1"
       d="m 90.2076,124.68021 c -12.40093,-0.14763 -13.52576,-8.4536 -13.80755,-14.65291 -0.28178,-6.1993 6.19931,-12.96218 14.93469,-12.96218 8.73539,0 12.96219,5.91752 12.96219,13.80754 0,7.89003 -2.81867,13.94173 -14.08933,13.80755 z"
       id="path5353"
       inkscape:connector-curvature="0"
       sodipodi:nodetypes="sssss" />
    <path
       style="fill:#c5c5c5;fill-opacity:1;stroke:none;stroke-width:1px;stroke-linecap:butt;stroke-linejoin:miter;stroke-opacity:1"
       d="m 26.52382,374.76584 c -4.64948,-1.69072 -4.79038,-1.40893 -4.79038,4.79038 0,6.1993 0.1409,35.7869 0.1409,39.59102 0,3.80412 1.69072,4.36769 5.35394,4.50859 3.66323,0.14089 43.67693,1.40893 54.52572,0.84536 10.84878,-0.56358 14.51201,-3.09966 21.41578,-9.72164 6.90377,-6.62199 5.63573,-9.86254 0.98626,-11.69415 -4.64948,-1.83161 -70.86934,-25.78348 -77.63222,-28.31956 z"
       id="path5355"
       inkscape:connector-curvature="0" />
  </g>
</svg>
