<svg xmlns="http://www.w3.org/2000/svg" width="523.432" height="546.721" viewBox="0 0 138.491 144.653"><path d="M80.148 82.058c.096-.562.478-1.232 3.369-5.91 1.674-2.708 4.384-7.102 6.023-9.764 1.639-2.662 3.69-5.988 4.56-7.39a1383.09 1383.09 0 003.304-5.368c.949-1.55 1.866-3.039 2.038-3.308a2.049 2.049 0 00-.042-2.315l-.436-.627-7.943-2.149c-8.903-2.408-8.93-2.42-9.195-3.881l-.142-.786 2.51-4.153c1.38-2.284 3.14-5.183 3.913-6.442 1.204-1.962 10.527-17.312 15.209-25.04a240.738 240.738 0 011.824-2.978c.55-.853 1.55-1.48 2.742-1.72L109.016 0l14.167 3.832c13.108 3.546 14.21 3.87 14.736 4.345.375.338.57.724.572 1.13.003.699-.534 1.321-13.966 16.184-7.978 8.828-7.95 8.79-7.243 9.85.268.4.89.6 7.076 2.273 6.72 1.818 7.346 2.045 7.584 2.75.24.713-.26 1.334-2.482 3.083-1.262.993-4.11 3.254-6.328 5.025-2.22 1.77-6.639 5.287-9.82 7.814a4671.64 4671.64 0 00-8.665 6.895c-1.583 1.266-6.864 5.473-11.735 9.35l-10.518 8.375c-1.605 1.28-2.332 1.653-2.246 1.152z" fill="#c5c5c5"/><path d="M61.105 144.49c-8.614-.833-16.107-2.957-23.877-6.767-17.476-8.57-30.511-24.68-35.268-43.586C.415 87.995-.005 84.461 0 77.613c.005-6.735.392-10.107 1.85-16.086 5.784-23.73 24.758-42.835 48.499-48.832 3.506-.886 8.031-1.683 9.562-1.685.881-.001.923.038.564.53-4.485 6.16-8.334 13.308-10.351 19.224-8.172 23.972-2.44 49.877 15.116 68.325 12.706 13.352 31.614 21.11 50.022 20.522 3.713-.119 3.902-.099 3.643.386-.543 1.014-7.156 7.618-9.674 9.66-9.362 7.594-20.848 12.622-32.915 14.41-3.67.543-11.669.766-15.211.423z" fill="#c5c5c5"/></svg>