<svg xmlns="http://www.w3.org/2000/svg" width="418.722" height="578.676" viewBox="0 0 110.787 153.108"><path d="M24.847 0c-1.108 0-2 .892-2 2v1.99c0 1.108.892 2 2 2H51v9.566H18.995c-9.053 0-16.065 7.292-16.342 16.341l-2.646 86.45c-.266 8.692 6.705 15.759 15.28 16.303l-7.125 9.507a4.99 4.99 0 001.003 7l1.265.948a4.99 4.99 0 007-1.003l12.3-16.414h51.328l12.3 16.414a4.99 4.99 0 007 1.003l1.265-.948a4.989 4.989 0 001.002-7l-7.123-9.506c8.57-.544 15.493-7.61 15.28-16.305l-2.117-86.449c-.221-9.05-7.288-16.341-16.341-16.341H59.787V5.99H85.94c1.108 0 2-.892 2-2V2c0-1.108-.892-2-2-2zm2.012 29.406h57.068c6.648 0 12 5.352 12 12v46c0 6.649-5.352 12-12 12H26.86c-6.648 0-12-5.351-12-12v-46c0-6.648 5.352-12 12-12zm-9.65 83.35h12.873a3.659 3.659 0 013.667 3.667v1.452a3.659 3.659 0 01-3.667 3.667H17.208a3.659 3.659 0 01-3.666-3.667v-1.452a3.659 3.659 0 013.666-3.667zm63.496 0H93.58a3.659 3.659 0 013.667 3.667v1.452a3.659 3.659 0 01-3.667 3.667H80.705a3.659 3.659 0 01-3.666-3.667v-1.452a3.659 3.659 0 013.666-3.667z" fill="#c5c5c5"/></svg>