<?xml version="1.0" encoding="UTF-8" standalone="no"?>
<svg
   xmlns:dc="http://purl.org/dc/elements/1.1/"
   xmlns:cc="http://creativecommons.org/ns#"
   xmlns:rdf="http://www.w3.org/1999/02/22-rdf-syntax-ns#"
   xmlns:svg="http://www.w3.org/2000/svg"
   xmlns="http://www.w3.org/2000/svg"
   id="svg1159"
   version="1.1"
   viewBox="0 0 110.78682 153.10814"
   height="153.10814mm"
   width="110.78682mm">
  <defs
     id="defs1153" />
  <metadata
     id="metadata1156">
    <rdf:RDF>
      <cc:Work
         rdf:about="">
        <dc:format>image/svg+xml</dc:format>
        <dc:type
           rdf:resource="http://purl.org/dc/dcmitype/StillImage" />
        <dc:title></dc:title>
      </cc:Work>
    </rdf:RDF>
  </metadata>
  <g
     transform="translate(-60.768839,-62.55674)"
     id="layer1">
    <path
       transform="matrix(0.26458333,0,0,0.26458333,60.768839,62.55674)"
       d="M 93.908203 0 C 89.720487 0 86.349609 3.3708772 86.349609 7.5585938 L 86.349609 15.082031 C 86.349609 19.269748 89.720487 22.640625 93.908203 22.640625 L 192.75977 22.640625 L 192.75977 58.792969 L 71.792969 58.792969 C 37.575443 58.792969 11.074103 86.355138 10.027344 120.55664 L 0.02734375 447.29297 C -0.97813424 480.14559 25.369421 506.85689 57.775391 508.91406 L 30.849609 544.8457 C 24.571443 553.22369 26.262637 565.02261 34.640625 571.30078 L 39.421875 574.88477 C 47.799863 581.16293 59.598787 579.47174 65.876953 571.09375 L 112.36328 509.05859 L 306.36133 509.05859 L 352.84766 571.09375 C 359.12582 579.47174 370.92475 581.16293 379.30273 574.88477 L 384.08594 571.30078 C 392.46393 565.02261 394.15317 553.22369 387.875 544.8457 L 360.95117 508.91602 C 393.34402 506.86117 419.50767 480.15244 418.70312 447.29297 L 410.70312 120.55664 C 409.8656 86.349375 383.15695 58.792969 348.93945 58.792969 L 225.96484 58.792969 L 225.96484 22.640625 L 324.81641 22.640625 C 329.00412 22.640625 332.375 19.269748 332.375 15.082031 L 332.375 7.5585938 C 332.375 3.3708772 329.00412 0 324.81641 0 L 93.908203 0 z M 101.51367 111.14258 L 317.20508 111.14258 C 342.33138 111.14258 362.56055 131.36981 362.56055 156.49609 L 362.56055 330.35547 C 362.56055 355.48177 342.33138 375.70898 317.20508 375.70898 L 101.51367 375.70898 C 76.387377 375.70898 56.160156 355.48177 56.160156 330.35547 L 56.160156 156.49609 C 56.160156 131.36981 76.387377 111.14258 101.51367 111.14258 z M 65.039062 426.16602 L 113.69727 426.16602 C 121.37474 426.16602 127.55469 432.34792 127.55469 440.02539 L 127.55469 445.51367 C 127.55469 453.19114 121.37474 459.37305 113.69727 459.37305 L 65.039062 459.37305 C 57.361585 459.37305 51.181641 453.19114 51.181641 445.51367 L 51.181641 440.02539 C 51.181641 432.34792 57.361585 426.16602 65.039062 426.16602 z M 305.02734 426.16602 L 353.68555 426.16602 C 361.36301 426.16602 367.54297 432.34792 367.54297 440.02539 L 367.54297 445.51367 C 367.54297 453.19114 361.36301 459.37305 353.68555 459.37305 L 305.02734 459.37305 C 297.34984 459.37305 291.16992 453.19114 291.16992 445.51367 L 291.16992 440.02539 C 291.16992 432.34792 297.34984 426.16602 305.02734 426.16602 z "
       style="fill:#c5c5c5;fill-opacity:1;stroke-width:0"
       id="rect2643" />
  </g>
</svg>
