<svg xmlns="http://www.w3.org/2000/svg" viewBox="0 0 110.787 153.108" height="578.676" width="418.722"><g transform="translate(-60.769 -62.557)"><path d="M103.583 163.5a4.985 4.985 0 00-3.768 2L68.93 206.715a4.99 4.99 0 001.003 7l1.265.948a4.99 4.99 0 007-1.003l30.883-41.213a4.989 4.989 0 00-1.002-7l-1.266-.948a4.984 4.984 0 00-3.23-.998zm25.16 0a4.985 4.985 0 00-3.232.998l-1.265.949a4.99 4.99 0 00-1.003 7l30.883 41.212a4.99 4.99 0 007 1.003l1.266-.949a4.989 4.989 0 001.002-7l-30.883-41.212a4.984 4.984 0 00-3.769-2z" fill="#f5f5f5"/><path d="M79.764 78.112h73.328c9.054 0 16.12 7.291 16.342 16.342l2.117 86.45c.221 9.05-7.289 16.34-16.342 16.34h-78.09c-9.054 0-16.62-7.292-16.343-16.34l2.646-86.45c.277-9.05 7.289-16.342 16.342-16.342z" fill="#f5f5f5"/><rect rx="12" ry="12" y="91.963" x="75.628" height="70" width="81.068" fill="#1a1a1a"/><rect ry="3.667" rx="3.667" y="175.313" x="74.311" height="8.786" width="20.207" fill="#1a1a1a"/><rect width="20.207" height="8.786" x="137.808" y="175.313" rx="3.667" ry="3.667" fill="#1a1a1a"/><path fill="#f5f5f5" d="M111.77 63.645h8.786v20.367h-8.786z"/><rect transform="rotate(-90)" width="5.99" height="65.094" x="-68.547" y="83.616" rx="2" ry="2" fill="#f5f5f5"/></g></svg>