<?xml version="1.0" encoding="UTF-8" standalone="no"?>
<!-- Created with Inkscape (http://www.inkscape.org/) -->

<svg
   xmlns:dc="http://purl.org/dc/elements/1.1/"
   xmlns:cc="http://creativecommons.org/ns#"
   xmlns:rdf="http://www.w3.org/1999/02/22-rdf-syntax-ns#"
   xmlns:svg="http://www.w3.org/2000/svg"
   xmlns="http://www.w3.org/2000/svg"
   xmlns:sodipodi="http://sodipodi.sourceforge.net/DTD/sodipodi-0.dtd"
   xmlns:inkscape="http://www.inkscape.org/namespaces/inkscape"
   version="1.1"
   id="svg3227"
   width="286.64987"
   height="336.49448"
   viewBox="0 0 286.64988 336.49447"
   sodipodi:docname="tram-icon.svg"
   inkscape:version="0.92.2 5c3e80d, 2017-08-06">
  <metadata
     id="metadata3233">
    <rdf:RDF>
      <cc:Work
         rdf:about="">
        <dc:format>image/svg+xml</dc:format>
        <dc:type
           rdf:resource="http://purl.org/dc/dcmitype/StillImage" />
      </cc:Work>
    </rdf:RDF>
  </metadata>
  <defs
     id="defs3231" />
  <sodipodi:namedview
     pagecolor="#ffffff"
     bordercolor="#666666"
     borderopacity="1"
     objecttolerance="10"
     gridtolerance="10"
     guidetolerance="10"
     inkscape:pageopacity="0"
     inkscape:pageshadow="2"
     inkscape:window-width="1440"
     inkscape:window-height="776"
     id="namedview3229"
     showgrid="false"
     inkscape:zoom="0.628424"
     inkscape:cx="-230.28289"
     inkscape:cy="113.43485"
     inkscape:window-x="0"
     inkscape:window-y="0"
     inkscape:window-maximized="0"
     inkscape:current-layer="svg3227" />
  <path
     inkscape:connector-curvature="0"
     id="path3784"
     d="M 133.30053,8.1551279e-4 C 102.52149,-0.03178449 61.119441,0.92420551 46.673581,1.2722955 c -16.50955,0.39782 -24.26604,1.39258 -30.83008,16.5097705 -6.5640401,15.11718 -8.7531901,53.50832 -9.5488301,70.21679 -0.79564,16.708464 -4.77241,164.498064 -5.36914,179.615244 -0.59674,15.11718 -1.1947,51.71556 -0.79688,58.47851 0.39782,6.76295 1.3931,10.14484 10.5429701,10.34375 8.47856,0.18431 109.471609,-0.13843 132.632819,-0.0293 0.008,3e-5 0.0329,-4e-5 0.041,0 23.16121,-0.10914 124.15425,0.21361 132.63281,0.0293 9.14987,-0.19891 10.14515,-3.5808 10.54297,-10.34375 0.39782,-6.76295 -0.20013,-43.36133 -0.79687,-58.47851 -0.59673,-15.11718 -4.5735,-162.90678 -5.36914,-179.615244 -0.79564,-16.70847 -2.98479,-55.09961 -9.54883,-70.21679 C 264.24234,2.6648755 256.48585,1.6701155 239.9763,1.2722955 225.53044,0.92420551 184.12839,-0.03182449 153.34935,8.1551279e-4 149.81101,0.00481551 146.54498,0.03111551 143.34544,0.06331551 c -0.0131,-1.4e-4 -0.0279,1.3e-4 -0.041,0 -3.19954,-0.0321 -6.46558,-0.0585 -10.00391,-0.0624999972 z M 112.07006,35.512526 c 9.20367,0.0135 19.87837,0.14224 31.23438,0.32032 0.0142,2.2e-4 0.0268,-2.3e-4 0.041,0 22.72619,-0.35638 42.72385,-0.5152 53.66602,0.0508 11.5368,0.59673 27.44941,2.98264 28.84179,30.83008 1.39237,27.84744 0.59704,152.565584 0.19922,162.113284 -0.39782,9.54769 0.39793,12.33131 -8.75195,13.12695 -7.19954,0.62606 -49.03416,0.28323 -73.95508,0.10352 -0.0121,-9e-5 -0.0289,8e-5 -0.041,0 -24.92093,0.17971 -66.755539,0.52254 -73.955079,-0.10352 -9.14988,-0.79564 -8.35414,-3.57926 -8.75196,-13.12695 -0.39782,-9.5477 -1.19315,-134.265844 0.19922,-162.113284 1.39238,-27.84744 17.305,-30.23335 28.8418,-30.83008 5.47449,-0.28318 13.216479,-0.38458 22.431639,-0.3711 z m -85.632809,37.375 c 6.44215,0.0202 13.4928,0.12399 15.4707,0.36133 3.51627,0.42195 3.6562,1.26686 3.9375,5.20508 0.2813,3.93822 5.4844,151.903374 5.34375,156.966804 0.14065,5.34473 -0.28019,5.48445 -6.04687,5.0625 -5.76669,-0.42195 -26.72375,-1.68743 -31.36524,-2.10938 -4.6414801,-0.42195 -5.2050401,-1.26681 -5.3457001,-5.48633 -0.14065,-4.21953 2.6737501,-146.416874 3.0957001,-152.324214 0.42197,-5.90733 -6.8e-4,-7.45506 3.65625,-7.59571 0.91422,-0.0351 2.82256,-0.061 5.22461,-0.0742 1.80154,-0.01 3.88192,-0.0129 6.0293,-0.006 z m 233.775389,0 c 2.14738,-0.007 4.22776,-0.004 6.0293,0.006 2.40205,0.0132 4.31038,0.0391 5.2246,0.0742 3.65693,0.14065 3.23429,1.68838 3.65626,7.59571 0.42195,5.90734 3.23635,148.104684 3.0957,152.324214 -0.14066,4.21952 -0.70422,5.06438 -5.3457,5.48633 -4.64149,0.42195 -25.59855,1.68743 -31.36524,2.10938 -5.76668,0.42195 -6.18752,0.28223 -6.04687,-5.0625 -0.14065,-5.06343 5.06245,-153.028584 5.34375,-156.966804 0.2813,-3.93822 0.42123,-4.78313 3.9375,-5.20508 1.9779,-0.23734 9.02855,-0.34108 15.4707,-0.36133 z M 91.697011,255.39144 c 14.563459,0.0172 16.873999,1.48007 16.808599,9.07227 -0.0618,7.18153 -4.21768,7.63716 -16.457029,7.52539 -15.40126,-0.14065 -16.74227,-2.18197 -16.59571,-9.00196 0.14065,-6.54498 2.45853,-7.6119 16.24414,-7.5957 z m 103.255859,0 c 13.78561,-0.0162 16.10349,1.05072 16.24414,7.5957 0.14656,6.81999 -1.19444,8.86131 -16.5957,9.00196 -12.23935,0.11177 -16.39521,-0.34386 -16.45703,-7.52539 -0.0654,-7.5922 2.24513,-9.05511 16.80859,-9.07227 z m -128.550779,1.69141 c 5.17895,-0.0502 6.6717,4.01381 6.625,7 -0.0466,2.98619 -2.19084,5.78533 -7.13672,5.83203 -4.94587,0.0466 -6.2072,-3.54638 -6.2539,-6.39258 -0.0466,-2.84621 1.72573,-6.39055 6.76562,-6.43945 z m 153.845709,0 c 5.03989,0.0489 6.81222,3.59324 6.76562,6.43945 -0.0467,2.8462 -1.30804,6.43918 -6.25391,6.39258 -4.94588,-0.0467 -7.09011,-2.84584 -7.13671,-5.83203 -0.0467,-2.98619 1.44605,-7.0502 6.625,-7 z"
     style="fill:#c5c5c5;fill-opacity:1;stroke:none;stroke-width:1px;stroke-linecap:butt;stroke-linejoin:miter;stroke-opacity:1" />
  <path
     inkscape:connector-curvature="0"
     id="path3788"
     d="m 133.64428,38.157066 c -14.8013,-0.0264 -38.957919,0.10537 -44.759769,0.63281 -7.73579,0.70326 -22.36297,5.06287 -24.05078,24.33203 -1.68781,19.26916 -0.9844,75.247944 -0.84375,86.500004 0.14065,11.25207 -0.0938,78.46022 0.32813,82.39844 0.42196,3.93822 0.98535,4.3593 6.33008,4.78125 4.94318,0.39024 61.252629,0.51999 72.656249,0.64843 0.006,7e-5 0.035,-6e-5 0.041,0 11.40362,-0.12844 67.71307,-0.25819 72.65625,-0.64843 5.34473,-0.42195 5.90812,-0.84303 6.33008,-4.78125 0.42196,-3.93822 0.18747,-71.14637 0.32812,-82.39844 0.14065,-11.25206 0.84406,-67.230844 -0.84375,-86.500004 -1.68781,-19.26916 -16.31499,-23.62877 -24.05078,-24.33203 -5.80185,-0.52744 -29.95846,-0.65919 -44.75976,-0.63281 -4.47259,0.008 -7.66413,0.0341 -9.66016,0.0645 -0.008,-1.3e-4 -0.0325,1.3e-4 -0.041,0 -1.99604,-0.0304 -5.18757,-0.0565 -9.66016,-0.0645 z"
     style="fill:#c5c5c5;fill-opacity:1;stroke:none;stroke-width:1px;stroke-linecap:butt;stroke-linejoin:miter;stroke-opacity:1" />
  <path
     style="fill:#c5c5c5;fill-opacity:1;stroke:none;stroke-width:1px;stroke-linecap:butt;stroke-linejoin:miter;stroke-opacity:1"
     d="m 239.69241,234.46853 c -0.0464,2.46094 1.47683,2.39105 3.30529,2.32073 1.82846,-0.0703 24.86728,-1.64161 27.89128,-1.99324 3.02399,-0.35163 3.58659,-1.12521 3.86789,-2.95367 0.28131,-1.82846 -3.36855,-147.170234 -3.5092,-149.561294 -0.14065,-2.39107 0,-4.50083 -2.25042,-4.78213 -2.25041,-0.2813 -16.49856,-0.59673 -20.29613,-0.0341 -3.79757,0.56261 -3.79757,1.54716 -3.93822,5.34473 -0.14065,3.79758 -4.97626,146.664804 -5.07049,151.659004 z"
     id="path3795"
     inkscape:connector-curvature="0"
     sodipodi:nodetypes="sssssssss" />
  <path
     inkscape:connector-curvature="0"
     style="fill:#c5c5c5;fill-opacity:1;stroke:none;stroke-width:1px;stroke-linecap:butt;stroke-linejoin:miter;stroke-opacity:1"
     d="m 202.67944,256.87191 c -5.5195,-0.0535 -7.11027,4.27838 -7.06055,7.46094 0.0497,3.18257 2.3363,6.16511 7.60742,6.21484 5.27112,0.0497 6.61433,-3.77912 6.66406,-6.8125 0.0497,-3.03338 -1.8396,-6.81122 -7.21093,-6.86328 z m -16.50586,0.10742 c -5.30411,0 -6.83294,4.10975 -6.78516,7.16797 0.0478,3.05823 2.24537,5.92488 7.31055,5.97266 5.06519,0.0478 6.35455,-3.63201 6.40234,-6.54688 0.0477,-2.91487 -2.10147,-6.68932 -6.92773,-6.59375 z"
     id="path3862" />
  <g
     id="g3894"
     transform="matrix(-1,0,0,1,781.44992,-280.38395)"
     style="fill:#c5c5c5;fill-opacity:1">
    <path
       style="fill:#c5c5c5;fill-opacity:1;stroke:none;stroke-width:1px;stroke-linecap:butt;stroke-linejoin:miter;stroke-opacity:1"
       d="m 734.49149,514.85248 c -0.0464,2.46094 1.47683,2.39105 3.30529,2.32073 1.82846,-0.0703 24.86728,-1.64161 27.89128,-1.99324 3.02399,-0.35163 3.58659,-1.12521 3.86789,-2.95367 0.28131,-1.82846 -3.36855,-147.17023 -3.5092,-149.56129 -0.14065,-2.39107 0,-4.50083 -2.25042,-4.78213 -2.25041,-0.2813 -16.49856,-0.59673 -20.29613,-0.0341 -3.79757,0.56261 -3.79757,1.54716 -3.93822,5.34473 -0.14065,3.79758 -4.97626,146.6648 -5.07049,151.659 z"
       id="path3890"
       inkscape:connector-curvature="0"
       sodipodi:nodetypes="sssssssss" />
    <path
       style="fill:#c5c5c5;fill-opacity:1;stroke:none;stroke-width:1px;stroke-linecap:butt;stroke-linejoin:miter;stroke-opacity:1"
       d="m 697.47852,537.25586 c -5.5195,-0.0535 -7.11027,4.27838 -7.06055,7.46094 0.0497,3.18257 2.3363,6.16511 7.60742,6.21484 5.27112,0.0497 6.61433,-3.77912 6.66406,-6.8125 0.0497,-3.03338 -1.8396,-6.81122 -7.21093,-6.86328 z m -16.50586,0.10742 c -5.30411,0 -6.83294,4.10975 -6.78516,7.16797 0.0478,3.05823 2.24537,5.92488 7.31055,5.97266 5.06519,0.0478 6.35455,-3.63201 6.40234,-6.54688 0.0477,-2.91487 -2.10147,-6.68932 -6.92773,-6.59375 z"
       id="path3892"
       inkscape:connector-curvature="0" />
  </g>
</svg>
