<?xml version="1.0" encoding="UTF-8" standalone="no"?>
<svg
   xmlns:dc="http://purl.org/dc/elements/1.1/"
   xmlns:cc="http://creativecommons.org/ns#"
   xmlns:rdf="http://www.w3.org/1999/02/22-rdf-syntax-ns#"
   xmlns:svg="http://www.w3.org/2000/svg"
   xmlns="http://www.w3.org/2000/svg"
   width="118.69138mm"
   height="156.1944mm"
   viewBox="0 0 118.69135 156.1944"
   version="1.1"
   id="svg8">
  <defs
     id="defs2" />
  <metadata
     id="metadata5">
    <rdf:RDF>
      <cc:Work
         rdf:about="">
        <dc:format>image/svg+xml</dc:format>
        <dc:type
           rdf:resource="http://purl.org/dc/dcmitype/StillImage" />
        <dc:title></dc:title>
      </cc:Work>
    </rdf:RDF>
  </metadata>
  <g
     id="layer1"
     transform="translate(-27.970384,-36.412208)">
    <path
       style="opacity:1;vector-effect:none;fill:#d2d2d2;fill-opacity:1;stroke:none;stroke-width:5;stroke-linecap:round;stroke-linejoin:round;stroke-miterlimit:4;stroke-dasharray:none;stroke-dashoffset:0;stroke-opacity:1;paint-order:fill markers stroke"
       d="M 311.98242 10.101562 A 17.677669 17.677669 0 0 0 294.30469 27.779297 A 17.677669 17.677669 0 0 0 311.98242 45.457031 A 17.677669 17.677669 0 0 0 329.66016 27.779297 A 17.677669 17.677669 0 0 0 311.98242 10.101562 z M 273.58984 16.009766 A 11.768578 11.768578 0 0 0 261.82227 27.779297 A 11.768578 11.768578 0 0 0 273.58984 39.546875 A 11.768578 11.768578 0 0 0 285.35938 27.779297 A 11.768578 11.768578 0 0 0 273.58984 16.009766 z M 350.37695 16.009766 A 11.768578 11.768578 0 0 0 338.60742 27.779297 A 11.768578 11.768578 0 0 0 350.37695 39.546875 A 11.768578 11.768578 0 0 0 362.14453 27.779297 A 11.768578 11.768578 0 0 0 350.37695 16.009766 z M 113.38477 19.183594 C 50.569004 19.183594 7.5791225e-14 69.754572 0 132.57031 C 0.23219 242.45515 0.0089999996 343.61203 0 443.58398 C 0 458.24099 11.800021 470.04102 26.457031 470.04102 L 96.142578 470.04102 L 77.435547 492.57031 L 32.662109 492.57031 C 25.10892 492.57031 19.029297 498.65188 19.029297 506.20508 L 19.029297 519.16602 C 19.029297 526.71921 25.10892 532.79883 32.662109 532.79883 L 44.03125 532.79883 L 21.691406 559.70508 C 16.86628 565.51614 17.659627 574.07913 23.470703 578.9043 L 33.443359 587.18359 C 39.254462 592.00869 47.815495 591.21543 52.640625 585.4043 L 96.320312 532.79883 L 352.27734 532.79883 L 395.95508 585.4043 C 400.78025 591.21543 409.34324 592.00869 415.1543 587.18359 L 425.12695 578.9043 C 430.93809 574.07913 431.73138 565.51614 426.90625 559.70508 L 404.56641 532.79883 L 415.93555 532.79883 C 423.48874 532.79883 429.56836 526.71921 429.56836 519.16602 L 429.56836 506.20508 C 429.56836 498.65188 423.48874 492.57031 415.93555 492.57031 L 371.16211 492.57031 L 352.45508 470.04102 L 422.11328 470.04102 C 436.77029 470.04102 448.57031 458.24099 448.57031 443.58398 C 448.63111 332.44707 448.57031 231.57368 448.57031 132.57031 C 448.57031 81.360021 414.95859 38.292456 368.50391 24.125 A 18.493479 18.493479 0 0 1 368.86914 27.779297 A 18.493479 18.493479 0 0 1 350.37695 46.273438 A 18.493479 18.493479 0 0 1 336.76172 40.269531 A 27.779194 27.779194 0 0 1 311.98242 55.558594 A 27.779194 27.779194 0 0 1 287.18359 40.283203 A 18.493479 18.493479 0 0 1 273.58984 46.273438 A 18.493479 18.493479 0 0 1 255.09766 27.779297 A 18.493479 18.493479 0 0 1 257.22852 19.183594 L 113.38477 19.183594 z M 54.705078 120.12305 L 182.74219 120.12305 C 199.17083 120.12305 212.39648 132.10253 212.39648 146.98242 L 212.39648 228.14062 C 212.39648 243.02052 199.17083 255 182.74219 255 L 54.705078 255 C 38.276431 255 25.050781 243.02052 25.050781 228.14062 L 25.050781 146.98242 C 25.050781 132.10253 38.276431 120.12305 54.705078 120.12305 z M 265.82812 120.12305 L 393.86523 120.12305 C 410.29388 120.12305 423.51953 132.10253 423.51953 146.98242 L 423.51953 228.14062 C 423.51953 243.02052 410.29388 255 393.86523 255 L 265.82812 255 C 249.3995 255 236.17383 243.02052 236.17383 228.14062 L 236.17383 146.98242 C 236.17383 132.10253 249.3995 120.12305 265.82812 120.12305 z M 47.953125 295.77148 A 14.142134 14.142134 0 0 1 62.095703 309.91406 A 14.142134 14.142134 0 0 1 47.953125 324.05664 A 14.142134 14.142134 0 0 1 33.810547 309.91406 A 14.142134 14.142134 0 0 1 47.953125 295.77148 z M 83.308594 295.77148 A 14.142134 14.142134 0 0 1 97.451172 309.91406 A 14.142134 14.142134 0 0 1 83.308594 324.05664 A 14.142134 14.142134 0 0 1 69.166016 309.91406 A 14.142134 14.142134 0 0 1 83.308594 295.77148 z M 365.26172 295.77148 A 14.142134 14.142134 0 0 1 379.4043 309.91406 A 14.142134 14.142134 0 0 1 365.26172 324.05664 A 14.142134 14.142134 0 0 1 351.11914 309.91406 A 14.142134 14.142134 0 0 1 365.26172 295.77148 z M 400.61719 295.77148 A 14.142134 14.142134 0 0 1 414.75977 309.91406 A 14.142134 14.142134 0 0 1 400.61719 324.05664 A 14.142134 14.142134 0 0 1 386.47461 309.91406 A 14.142134 14.142134 0 0 1 400.61719 295.77148 z M 148.43164 470.04102 L 300.16602 470.04102 L 318.87305 492.57031 L 129.72461 492.57031 L 148.43164 470.04102 z "
       transform="matrix(0.26458333,0,0,0.26458333,27.970384,36.412208)"
       id="rect834" />
  </g>
</svg>
