<svg xmlns="http://www.w3.org/2000/svg" width="448.597" height="590.341" viewBox="0 0 118.691 156.194"><path d="M82.545 2.673a4.677 4.677 0 00-4.677 4.677 4.677 4.677 0 004.677 4.677 4.677 4.677 0 004.678-4.677 4.677 4.677 0 00-4.678-4.677zM72.387 4.236a3.114 3.114 0 00-3.113 3.114 3.114 3.114 0 003.113 3.113 3.114 3.114 0 003.114-3.113 3.114 3.114 0 00-3.114-3.114zm20.317 0A3.114 3.114 0 0089.59 7.35a3.114 3.114 0 003.114 3.113 3.114 3.114 0 003.113-3.113 3.114 3.114 0 00-3.113-3.114zM30 5.076c-16.62 0-30 13.38-30 30 .061 29.074.002 55.838 0 82.289 0 3.878 3.122 7 7 7h18.438l-4.95 5.96H8.642a3.6 3.6 0 00-3.607 3.608v3.43a3.599 3.599 0 003.607 3.607h3.008l-5.91 7.119a3.6 3.6 0 00.47 5.08l2.639 2.19a3.599 3.599 0 005.079-.47l11.557-13.92h67.722l11.556 13.92a3.6 3.6 0 005.08.47l2.639-2.19a3.6 3.6 0 00.47-5.08l-5.91-7.12h3.008a3.599 3.599 0 003.607-3.606v-3.43a3.6 3.6 0 00-3.607-3.607H98.203l-4.95-5.961h18.431c3.878 0 7-3.122 7-7 .016-29.405 0-56.094 0-82.29A29.933 29.933 0 0097.5 6.384a4.893 4.893 0 01.097.967 4.893 4.893 0 01-4.893 4.893 4.893 4.893 0 01-3.602-1.588 7.35 7.35 0 01-6.557 4.045 7.35 7.35 0 01-6.561-4.042 4.893 4.893 0 01-3.597 1.585 4.893 4.893 0 01-4.892-4.893 4.893 4.893 0 01.563-2.274zM14.474 31.783h33.877c4.346 0 7.846 3.17 7.846 7.106v21.473c0 3.937-3.5 7.107-7.846 7.107H14.474c-4.347 0-7.846-3.17-7.846-7.107V38.89c0-3.937 3.5-7.106 7.846-7.106zm55.86 0h33.876c4.347 0 7.846 3.17 7.846 7.106v21.473c0 3.937-3.5 7.107-7.846 7.107H70.334c-4.347 0-7.846-3.17-7.846-7.107V38.89c0-3.937 3.499-7.106 7.846-7.106zM12.688 78.256a3.742 3.742 0 013.741 3.742 3.742 3.742 0 01-3.741 3.742 3.742 3.742 0 01-3.742-3.742 3.742 3.742 0 013.742-3.742zm9.354 0a3.742 3.742 0 013.742 3.742 3.742 3.742 0 01-3.742 3.742 3.742 3.742 0 01-3.742-3.742 3.742 3.742 0 013.742-3.742zm74.6 0a3.742 3.742 0 013.742 3.742 3.742 3.742 0 01-3.742 3.742 3.742 3.742 0 01-3.742-3.742 3.742 3.742 0 013.742-3.742zm9.355 0a3.742 3.742 0 013.742 3.742 3.742 3.742 0 01-3.742 3.742 3.742 3.742 0 01-3.742-3.742 3.742 3.742 0 013.742-3.742zm-66.724 46.109h40.146l4.95 5.96H34.322z" fill="#c5c5c5" paint-order="fill markers stroke"/></svg>