<svg xmlns="http://www.w3.org/2000/svg" width="448.597" height="598.341" viewBox="0 0 118.691 158.311"><path d="M30 5.076c-16.62 0-30 13.38-30 30 .061 29.074.002 55.838 0 82.289 0 3.878 3.122 7 7 7h104.684c3.878 0 7-3.122 7-7 .016-29.405 0-56.094 0-82.29 0-16.62-13.38-30-30-30z" fill="#f5f5f5" paint-order="fill markers stroke"/><g transform="matrix(1 0 0 1.0152 -25.85 -35.279)" fill="#0d0d0d" paint-order="fill markers stroke"><rect ry="7" rx="7.846" y="66.057" x="32.479" height="35.152" width="49.569"/><rect width="49.569" height="35.152" x="88.338" y="66.057" rx="7.846" ry="7"/></g><g fill="#0d0d0d" paint-order="fill markers stroke"><path d="M12.687 78.256a3.742 3.742 0 00-3.741 3.742 3.742 3.742 0 003.741 3.742 3.742 3.742 0 003.742-3.742 3.742 3.742 0 00-3.742-3.742zm9.355 0a3.742 3.742 0 00-3.742 3.742 3.742 3.742 0 003.742 3.742 3.742 3.742 0 003.742-3.742 3.742 3.742 0 00-3.742-3.742zM96.642 78.256a3.742 3.742 0 00-3.742 3.742 3.742 3.742 0 003.742 3.742 3.742 3.742 0 003.742-3.742 3.742 3.742 0 00-3.742-3.742zm9.355 0a3.742 3.742 0 00-3.742 3.742 3.742 3.742 0 003.742 3.742 3.742 3.742 0 003.742-3.742 3.742 3.742 0 00-3.742-3.742z"/></g><g transform="translate(-33.316 -43.896)" paint-order="fill markers stroke"><circle cx="115.861" cy="51.246" r="7.35" fill="#0d0d0d"/><circle r="4.677" cy="51.246" cx="115.861" fill="#f5f5f5"/></g><g paint-order="fill markers stroke"><g transform="translate(15.571 -26.766) scale(.66573)"><circle cx="115.861" cy="51.246" r="7.35" fill="#0d0d0d"/><circle r="4.677" cy="51.246" cx="115.861" fill="#f5f5f5"/></g><g transform="translate(-4.745 -26.766) scale(.66573)"><circle r="7.35" cy="51.246" cx="115.861" fill="#0d0d0d"/><circle cx="115.861" cy="51.246" r="4.677" fill="#f5f5f5"/></g></g><path d="M41.02 107.65a3.598 3.598 0 00-2.788 1.306l-17.744 21.37H8.642a3.6 3.6 0 00-3.607 3.608v3.429a3.599 3.599 0 003.607 3.607h3.008l-5.911 7.119a3.6 3.6 0 00.47 5.08l2.64 2.19a3.6 3.6 0 005.08-.47l11.556-13.92h67.721l11.557 13.92a3.6 3.6 0 005.08.47l2.639-2.19a3.6 3.6 0 00.47-5.08l-5.91-7.12h3.008a3.599 3.599 0 003.607-3.606v-3.43a3.6 3.6 0 00-3.607-3.607H98.203l-17.744-21.37a3.596 3.596 0 00-5.08-.47l-2.638 2.19a3.6 3.6 0 00-.47 5.08l12.098 14.57H34.323l12.098-14.57a3.6 3.6 0 00-.47-5.08l-2.64-2.19a3.596 3.596 0 00-2.292-.836z" fill="#f5f5f5" paint-order="fill markers stroke"/></svg>