<svg xmlns="http://www.w3.org/2000/svg" width="4660.224" height="1845.308" viewBox="0 0 1233.018 488.238"><path d="M388.679 429.003c3.986 39.2 11.295 57.803 62.454 56.475 51.16-1.33 59.132-32.556 60.46-51.16 1.33-18.603-122.914-5.315-122.914-5.315z" fill="#111"/><path d="M150.944 439.608c17.148 0 26.31.47 31.242-.47 4.933-.94 56.847-98.425 56.847-98.425l-74.464-8.926s-29.598 104.532-13.625 107.82z" fill="#191919"/><path d="M203.328 359.036c12.605.038 24.73-.294 26.806.038 2.077.332 10.426 38.604 10.426 38.604l-13.86 1.057z" fill="#2a2a2a"/><path d="M203.093 486.119c31.594-.47 61.897-.118 69.766-1.41 7.87-1.292 22.55-10.805 21.376-43.457-1.174-32.652-65.303-12.215-65.303-12.215z" fill="#151515"/><path d="M203.328 359.036c-20.442-.109-31.007 29.833-30.773 59.196.235 29.362 8.927 67.887 31.712 67.887 22.786 0 32.887-37.35 32.887-64.599 0-27.249-10.09-62.358-33.826-62.484z" fill="#212121"/><path d="M911.246 429.22c3.486 33.545 13.07 53.584 51.406 53.584s47.049-42.693 46.178-59.247c-.872-16.554-97.584 5.663-97.584 5.663z" fill="#111"/><path d="M616.444 445.728c20.023.308 30.804.924 35.425.308 4.62-.616 61.609-103.811 61.609-103.811s12.696-15.399-49.903-16.018c-62.225-.616-53.292 68.077-47.13 119.52z" fill="#191919"/><path d="M682.318 350.37c25.158.218 27.119 0 30.386 1.524 3.267 1.525-.545 18.08-.545 18.08z" fill="#2a2a2a"/><path d="M680.825 488.238c23.874-.154 35.887-.462 42.356-1.387 6.47-.924 18.02-22.025 20.793-40.815 2.773-18.791-27.878-25.876-27.878-25.876s-14.324 66.383-35.27 68.078z" fill="#151515"/><path d="M467.967 72.07c0-2.772.154-5.082.77-7.392.616-2.31 2.619-4.467 22.18-7.085 19.56-2.619 44.204-3.08 50.056-2.927 5.853.154 13.708 4.775 13.708 4.775l-.154 5.39z" fill="#d1d1d1"/><path d="M552.987 57.285c-.924 10.473-2.156 12.013 2.464 11.397 4.621-.616 349.014-29.264 349.014-29.264l-12.63-10.165-110.28 8.625z" fill="#3e3e3e"/><path d="M832.74 36.771c-13.003.91-285.684 24.55-292.412 25.095-6.728.546-6.001-2-5.637-5.091.363-3.092 4.182-17.276 6.91-22.55 2.728-5.273 12.002-10.001 37.279-12.365 25.277-2.364 211.67-19.094 224.582-19.821 12.91-.728 28.186-1.819 34.005-2 5.82-.183-4.728 36.732-4.728 36.732z" fill="#e9e9e9"/><path d="M12.763 132.677l-.54 179.605 735.732-24.344 2.705-206.113z" fill="#191919"/><path d="M1224.153 121.181c5.405 8.208 7.574 15.418 8.385 25.291.812 9.873.406 17.582.135 22.721-.27 5.14-2.164 6.492-7.303 7.168-5.14.676-7.438-.54-8.385-5.274-.947-4.734-4.598-41.25-4.734-46.795-.135-5.545.947-5.545 4.328-5.816 3.381-.27 5.673-.181 7.574 2.705z" fill="#242424"/><path d="M1188.723 90.86c-4.465-.012-11.196.314-12.852.432-1.894.135-1.894 15.148.27 15.689 2.164.54 3.11 1.352 8.656 1.082 5.545-.27 10.955-.136 11.09-1.353.135-1.217-.136-1.488 2.975-1.758 3.11-.27 12.713-2.57 18.123-3.652 5.41-1.082 10.414 1.623 10.955 6.356.54 4.734-.541 29.214-.812 33.542 0 4.327.406 4.192 1.488 4.327 1.082.136 1.082-.27 1.488-4.057.406-3.787 2.163-41.926 2.028-44.36-.135-2.435.542-3.923-2.57-4.058-3.11-.135-27.725-.54-31.106-.406-3.38.136-3.787-1.622-7.98-1.758a59.52 59.52 0 00-1.753-.026zm11.153 4.354c3.652 0 3.66.134 3.585 3.787-.068 3.314-.609 3.313-3.855 3.11-3.246-.202-3.003.069-3.043-3.786-.028-2.708-.338-3.11 3.313-3.11zm12.516.186c4.555.013 12.353.102 13.722.152 1.826.068 2.028.203 2.164 2.908.135 2.705-.068 3.11-1.42 2.096-1.353-1.014-2.029-2.502-4.599-2.57-2.57-.067-8.047 1.285-11.022 2.03-2.976.743-3.787.676-3.787-1.624.068-2.772.067-2.907 1.826-2.975.44-.017 1.597-.021 3.116-.017z" fill="#1c1c1c"/><path d="M744.082 286.716c0-15.875 2.487-197.768 2.487-201.976 0-4.208 114.185-6.886 114.185-6.886l-.574 38.445-1.72 187.057z" fill="#161616"/><path d="M200.123 92.71c0-3.543.154-6.161.924-8.164.77-2.002 11.552-5.544 30.65-7.393 19.1-1.848 56.527-.77 68.848.925 12.322 1.694 14.632 3.08 14.786 4.928.154 1.848-115.208 9.704-115.208 9.704z" fill="#d1d1d1"/><path d="M680.825 488.238c30.189-.616 37.89-42.818 37.582-76.087-.308-33.269-4.93-61.917-36.966-61.917s-38.813 40.97-38.505 64.997c.308 24.028 4.62 72.083 37.89 73.007z" fill="#212121"/><path d="M857.149 297.463c-13.367-1.887-99.862-11.952-105.681-12.581-5.819-.63-7.234-.787-18.872-.158-11.637.63-706.9 20.76-710.988 21.074-4.089.314-4.56.157-4.718-3.303-.157-3.46 1.258-155.69 1.415-158.993.158-3.303.63-3.303 5.19-3.775 4.56-.471 826.263-58.502 830.037-58.816 3.774-.315 3.931-.472 6.448-.63 2.516-.156 59.288-45.606 25.948-43.247-33.34 2.36-849.694 66.68-864.163 68.567-14.468 1.887-20.759 6.29-21.545 26.42-.786 20.13.786 266.09.786 276.155 0 10.065-.629 11.166 6.606 13.368 7.234 2.201 27.049 10.064 33.182 12.266 6.133 2.202 30.352 5.976 41.832 5.819 11.48-.157 61.962-.157 67.152 0 5.19.157 5.347-.315 5.661-4.089.315-3.774-.786-38.215 3.775-58.66 4.56-20.443 9.75-34.44 19.815-36.799 10.065-2.359 25.005-1.73 31.767-.786 6.762.943 13.682 11.637 16.984 24.061 3.303 12.424 7.864 33.654 8.335 48.595.472 14.94.472 23.275.472 26.892 0 3.617 0 3.774 3.303 3.774 3.302 0 372.557 3.302 376.017 3.302 3.46 0 3.302.315 3.46-3.617.157-3.931-.63-40.416.471-53.941 1.101-13.525 5.347-31.767 11.48-43.09 6.134-11.323 7.55-13.997 17.142-14.94 9.593-.944 26.735-1.573 35.07-.787 8.335.787 11.323 1.73 16.198 11.166s13.682 30.667 15.57 47.336c1.886 16.67 2.83 44.978 3.145 51.583.314 6.605 1.258 6.605 5.504 6.605 4.246 0 120.464.157 127.698 0 7.234-.157 8.492-.63 10.694-1.022 2.201-.393-1.966-1.416-1.966-1.416s.873-146.283-3.224-146.333z" fill="#e1e1e1"/><path d="M856.781 309.24c-.102-2.347.153-3.47-.817-4.083-.97-.612-.765-2.603-.714-4.236.051-1.633-.28-31.414-.28-41.23 0-9.816 1.443-76.507 1.732-87.333.288-10.827.721-60.484 1.299-65.97.577-5.485 12.126-2.31 12.559-.577.433 1.732 10.97 30.459 10.97 30.459l8.229 62.938 5.052 76.65-1.444 31.614z" fill="#171717"/><path d="M891.843 307.097c-.204-15.107-3.266-72.472-4.287-86.558-1.02-14.086-6.328-71.043-12.045-90.845-5.716-19.802-6.736-24.498-7.757-27.56-1.02-3.062 9.186 1.021 10.003 5.512.817 4.491 10.207 40.83 10.207 40.83l7.145 54.098 5.92 108.401z" fill="#292929"/><path d="M856.915 376.297c-.243 3.168-.121 5.726-.243 7.249-.122 1.523 12.73 1.705 12.73 1.705l33.684-1.522-2.193-6.762z" fill="#ddd"/><path d="M897.41 305.74c0-10.105-3.898-68.712-4.62-82.426-.722-13.713-5.485-59.906-9.094-78.383-3.61-18.477-5.919-28.582-6.785-32.48-.866-3.897-2.165-5.268-.072-5.413 2.093-.144 55.287 0 55.287 0l54.926-.216 54.277.433 113.606.288s20.21-1.515 22.086.217c1.876 1.732 5.052 15.374 6.063 20.498 1.01 5.125 7.073 43.883 8.66 58.896 1.589 15.013 4.765 63.732 5.27 74.414.505 10.682 2.815 39.625 2.815 40.635 0 1.01-3.176 1.083-3.176 1.083l-100.903 1.443s-199.351 2.31-198.34 1.011z" fill="#171717"/><path d="M898.147 370.312c0 6.592.314 11.614.314 15.38 0 3.767 9.416 17.264 9.416 17.264l25.425 8.475h121.788l137.481-2.51 10.044-24.798s.692-10.905.47-15.01c-.222-4.107-2.053-56.154-2.164-59.373-.111-3.218-.167-5.548-.167-6.603 0-1.054-.333-1.442-1.553-1.442-1.221 0-102.208 1.76-118.216 1.917-16.008.157-131.989.941-148.624 1.098-16.636.157-50.065.471-56.5 1.099-6.434.628 10.672 19.618 10.672 19.618z" fill="#cfcfcf"/><path d="M948.683 377.924c-8.79 0-9.73 4.473-9.888 9.26-.157 4.786 2.04 11.064 9.103 11.221 7.062.157 6.513-9.103 5.1-11.85-1.412-2.746 1.334-8.16-4.315-8.63z" fill="#7e7e7e"/><path d="M909.423 437.986c-12.77 1.017-44.183 6.44-47.686 7.232-3.503.79-3.955.565-4.068-2.712-.113-3.277-.904-58.42-.904-60.116 0-1.695-.113-1.808 2.6-1.808 2.711 0 40.377 1.106 43.293 1.465 2.917.36 3.156.52 3.436 1.438.28.92.24 4.195.24 4.195z" fill="#dfdfdf"/><path d="M980.062 406.286c-5.874-.058-39.612-.755-50.414-1.655s-18.494-7.529-22.176-16.858c-3.683-9.329 3.027 10.393 3.027 10.393l10.23 8.265 26.023 3.192 35.842.327z" fill="#e4e4e4"/><path d="M982.594 408.804c-8.02.082-39.116-.654-50.654-2.127-11.539-1.473-16.449-3.928-20.54-11.13-4.092-7.201-4.338-9.983-5.156-11.784-.818-1.8-1.227-1.39-1.227 2.128 0 3.519.245 42.717.163 47.627-.082 4.91.164 4.664 1.964 4.664s71.932-3.518 73.65-3.518c1.719 0 .941-4.338.941-4.338z" fill="#dcdcdc"/><path d="M1131.236 431.064c-1.866-.33-1.913-.898-3.401-.898-1.489 0-62.671 2.466-79.643 2.867-16.972.401-65.547 1.646-67.154 1.646-1.606 0-2.079.283-1.795-1.938.283-2.22 1.606-8.646 1.937-11.386.33-2.74.52-9.355.236-11.576-.283-2.22-3.496-3.307-1.89-3.449 1.607-.141 69.257-1.494 80.349-2.028 11.092-.535 67.518-2.36 71.628-2.833 4.11-.472 3.702 7.318 3.702 7.318z" fill="#d8d8d8"/><path d="M1130.15 403.826c-.614-1.559-.709-2.079.661-2.268 1.37-.189 30.191-2.882 38.98-3.732 8.787-.85 18.236-4.3 21.496-9.26 3.26-4.962 5.812-10.962 6.52-12.427.71-1.464 1.134-1.7 2.552-1.653 1.417.047 3.78.425 4.441.708.662.284-1.228 2.127-1.228 2.127l-7.513 14.457-10.96 8.6z" fill="#dcdcdc"/><path d="M1204.942 420.693c-.19 12.474-2.835 11.718-5.67 11.907-2.835.189 1.134-2.646-7.748-2.835-8.883-.19-55.267 1.397-58.741 1.397-3.475 0-2.868-.83-2.752-2.429.118-1.627 1.816-19.62.881-22.694-.935-3.074-1.87-2.94 2.005-3.207 3.875-.267 37.685-1.604 49.044-3.341 11.358-1.737 19.51-18.709 20.713-21.783 1.203-3.073 2.806-3.608 2.94.134.134 3.742-.409 37.193-.672 42.851z" fill="#d6d6d6"/><path d="M903.942 377.983c3.673-.565 6.385-4.18 10.34-7.966 3.955-3.786 9.774-5.989 15.99-6.158 6.214-.17 9.604.056 12.033.169 2.43.113 2.712-.791.904-4.124-1.807-3.334-17.401-30.85-23.73-38.307-6.327-7.458-13.785-12.825-22.373-14.52-8.588-1.695 1.638 3.333 1.638 3.333l3.447 14.012z" fill="#d7d7d7"/><path d="M856.991 375.723c-.226 3.277.565 2.825 3.051 2.825s38.08-.226 42.262-.452c4.18-.226 3.842-.79 3.955-3.616.113-2.825.296-62.38-.958-63.966-1.303-1.648-6.507-3.746-14.869-4.311s-27.565-.313-30.955-.087c-3.39.226-2.712 1.356-2.599 3.955.113 2.599 0 61.923.113 65.652z" fill="#dcdcdc"/><path d="M925.31 326.755c-.758-4.275.96-7.471 7.112-10.188 6.152-2.717 23.252-7.59 40.031-8.55 16.78-.958 88.372-.639 115.379-1.118 27.007-.48 44.266-1.278 61.205 2.077 16.94 3.356 23.332 7.99 25.41 10.148 2.077 2.157 1.278 5.034.558 6.712-.719 1.678-5.832-1.119-5.832-1.119z" fill="#e2e2e2"/><path d="M1162.861 322.628c-30.765.005-230.038 2.178-235.246 2.359-3.031.105-2.665 1.398-1.468 3.39 2.89 4.81 11.639 18.838 18.193 30.816 6.553 11.978 25.537 38 29.04 41.277 3.503 3.277 4.633 3.842 10.622 3.842 5.99 0 136.729-2.938 139.893-3.164 3.164-.226 3.729.113 5.198-1.469 1.469-1.582 6.215-7.91 15.707-21.696 9.492-13.786 26.07-44.698 28.362-48.59 3.412-5.791 2.789-6.62-2.002-6.706-1.901-.035-1.693-.06-8.299-.06z" fill="#dadada"/><path d="M1090.545 326.352c-1.365-.013-2.76.222-3.953.718-.524.219-1.037.481-1.14.583-.155.154-.251 1.98-.56 10.625l-.375 10.439.676.378c.682.383 2.185.846 3.15.972 1.14.15 3.426-.056 4.413-.395 3.287-1.131 5.248-4.587 5.833-10.28.264-2.572-.108-6.2-.84-8.176-.445-1.202-1.766-3.052-2.584-3.619-1.159-.803-2.865-1.229-4.62-1.245zm.183 3.578c.393-.01.833.052 1.205.191.835.313 1.62 1.45 1.924 2.789.661 2.907.335 9.178-.584 11.238-.717 1.607-2.008 2.39-3.547 2.153-.251-.038-.526-.19-.611-.337-.119-.205-.091-2.045.118-7.9l.274-7.634.3-.254c.182-.153.528-.236.92-.246zm52.559 1.458c-1.56-.008-3.513.21-4.578.57-.695.236-1.4.537-1.568.67l-.304.24-.297 8.291c-.223 6.23-.26 8.34-.147 8.486.21.273 3.66.273 3.888 0 .124-.146.23-1.998.42-7.327.222-6.178.283-7.159.463-7.337.592-.59 2.491-.463 3.049.202.641.766.65.946.404 7.844-.172 4.778-.192 6.473-.08 6.618.231.302 3.69.271 3.906-.034.12-.171.216-2.033.37-7.144.207-6.885.207-6.916-.074-7.774-.533-1.625-1.757-2.67-3.69-3.146-.426-.105-1.053-.156-1.762-.16zm12.298.018c-.751 0-1.466.113-2.02.351-2.27.975-3.654 4.027-3.063 6.757.29 1.338 1.036 2.267 2.648 3.3.697.446 1.423 1.028 1.615 1.292.682.938.509 2.345-.37 3.001-.404.303-.598.338-1.42.26-.599-.056-1.157-.221-1.5-.444-.456-.295-.577-.318-.726-.137-.27.33-1.079 2.708-1.008 2.967.17.626 2.042 1.218 3.907 1.237 1.218.012 1.622-.05 2.406-.375 1.57-.651 2.583-1.764 3.157-3.468.56-1.665.394-3.683-.406-4.908-.485-.744-1.474-1.62-2.36-2.093-1.8-.96-2.396-2.462-1.465-3.695.327-.433.507-.53 1.104-.59a2.43 2.43 0 011.296.203c.996.47 1.055.443 1.563-.734.589-1.365.607-1.716.105-2.046-.863-.567-2.212-.879-3.463-.878zm-37.94.003c-.941 0-1.86.174-2.514.535-1.034.572-1.991 1.766-2.41 3.008-.25.74-.314 1.196-.313 2.235 0 2.29.584 3.27 2.756 4.641 1.637 1.035 1.99 1.51 1.949 2.635-.023.655-.102.898-.432 1.334-.396.525-.42.533-1.496.518-.819-.012-1.252-.106-1.726-.373-.348-.197-.68-.3-.737-.23-.147.181-1.002 2.622-1.011 2.889-.013.367.337.624 1.383 1.014 1.49.556 3.586.542 5.005-.033 2.379-.963 3.806-3.7 3.344-6.413-.32-1.877-1.083-2.9-3.001-4.026-1.22-.714-1.707-1.245-1.868-2.033-.11-.532-.088-.72.14-1.253.149-.344.421-.718.606-.83.455-.275 1.535-.247 2.165.056 1.008.485.936.518 1.405-.653.624-1.556.623-1.725-.015-2.18-.772-.55-2.02-.84-3.23-.84zm11.492.064c-1.724 0-1.798.014-2.683.525-2.664 1.536-4.09 4.816-4.067 9.352.015 2.87.52 4.829 1.7 6.583.606.902 2.054 1.874 3.09 2.075.982.191 2.62.03 3.516-.345 1.563-.655 2.706-1.959 3.585-4.091 1.286-3.12 1.263-7.792-.054-10.814-.435-.999-1.49-2.181-2.478-2.78-.807-.488-.898-.505-2.609-.505zm-18.694.226c-.893-.01-1.802.063-1.91.223-.074.112-.28.792-.458 1.51a1633.047 1633.047 0 00-1.642 6.667c-.392 1.602-.767 3.072-.835 3.266-.155.449-.18.36-.516-1.85-.25-1.644-.44-2.859-1.142-7.339-.176-1.118-.38-2.128-.454-2.245-.161-.256-4.107-.31-4.24-.06-.046.086.199 1.408.543 2.94l1.258 5.601c.347 1.549.963 4.283 1.37 6.075l.737 3.257-1.195 3.404c-.657 1.872-1.166 3.51-1.13 3.64.052.193.429.237 2.006.235 1.067-.001 2.018-.062 2.112-.134.094-.072.342-.713.551-1.426l1.031-3.5c.358-1.212 1.099-3.746 1.647-5.632.55-1.886 1.12-3.833 1.27-4.327 1.442-4.765 2.865-9.85 2.812-10.046-.044-.161-.922-.25-1.815-.26zm18.555 2.958c1.226 0 1.818 1.096 2.006 3.713.125 1.74-.085 4.696-.418 5.881-.465 1.656-1.446 2.511-2.463 2.145-.575-.208-1.141-1.13-1.37-2.23-.15-.727-.172-1.542-.098-3.632.115-3.237.348-4.29 1.166-5.265.458-.546.586-.612 1.176-.612z" fill="#18316e" paint-order="fill markers stroke"/><path d="M978.638 381.264c-3.275-.025-3.552-2.719-.111-2.83 3.44-.11 148.706-1.554 151.98-1.498 3.274.055 3.829 2.663.11 2.83-3.717.166-147.929 1.529-151.98 1.498zM982.688 386.535c-3.438.106-3.385 2.664-.277 2.72 3.107.055 139.606-1.776 142.88-1.887 3.274-.111 4.162-2.941 0-2.886-4.162.056-136.994 1.881-142.603 2.053zM988.903 394.303c-3.218.114-3.607 2.886 0 2.886 3.606 0 128.73-2.164 132.282-2.22 3.551-.055 3.33-2.885-.61-2.83-3.94.056-128.62 2.056-131.672 2.164z" fill="#b6b6b6"/><path d="M935.656 387.184c-1.177 9.024-3.688 12.084-9.887 12.084-6.2 0-14.674-2.275-14.988-17.342-.314-15.066 10.201-16.322 14.674-16.4 4.473-.079 9.652 2.04 11.692 9.024 2.04 6.984-1.49 12.634-1.49 12.634z" fill="#7e7e7e"/><path d="M927.024 397.228c9.81.157 12.948-7.847 12.948-13.732 0-5.886-2.119-15.145-12.398-15.695-10.28-.549-13.183 8.632-12.948 15.145.235 6.513 3.61 14.047 12.398 14.282z" fill="#e0e0e0"/><path d="M949.938 379.337c-6.822-.277-8.16 4.63-8.16 8.396 0 3.767 1.725 9.417 7.768 9.652 6.042.235 7.69-4.708 7.533-9.024-.157-4.316-2.342-8.83-7.14-9.024z" fill="#e2881e"/><path d="M1160.398 354.854c-2.674 4.537-2.982 6.983.942 6.827 3.923-.157 14.595-.864 20.324-.785 5.728.078 12.869 6.434 15.145 9.102 2.275 2.668 3.688 3.375 5.414 3.375 1.726 0 2.197-1.099 2.276-3.296.078-2.197-1.177-58.461-1.648-61.286-.471-2.825-1.413-3.531-6.592-3.217-5.179.313-10.515 2.982-13.89 9.18-3.373 6.2-10.671 20.482-12.947 24.327-2.276 3.845-7.006 12.348-9.024 15.773z" fill="#dcdcdc"/><path d="M1178.29 361.047c-9.132.775-14.99 7.925-14.472 18.09.516 10.164 7.15 15.419 14.04 15.333 6.892-.086 9.734-5.772 10.596-9.648.861-3.876 1.206-8.614.775-13.524-.43-4.91-2.326-10.079-10.94-10.25z" fill="#7e7e7e"/><path d="M1179.84 363.114c-8.721.042-12.318 9.39-12.146 15.764.172 6.375 3.704 13.352 11.887 13.524 8.184.173 11.802-7.408 11.974-14.471.172-7.064-2.398-14.861-11.715-14.817z" fill="#e0e0e0"/><path d="M1155.462 374.399c-6.724.049-8.959 4.48-8.959 10.423 0 5.944 2.584 9.992 7.925 9.82 5.341-.172 7.667-6.547 7.58-10.94-.085-4.393-1.375-9.34-6.546-9.303z" fill="#7e7e7e"/><path d="M1155.893 393.178c6.719.086 7.666-4.738 7.494-9.045-.172-4.307-2.154-7.925-6.288-8.184-4.135-.258-7.925 3.446-7.753 8.7.172 5.255 2.326 8.701 6.547 8.529z" fill="#e2881e"/><path d="M1077.16 409.286c3.962-.172 4.307.69 4.307 3.273 0 2.585-.603 11.888-.948 14.214-.345 2.326-1.637 2.24-3.962 2.326-2.326.086-37.127 1.206-39.625 1.206-2.498 0-4.049-.69-3.877-3.877.173-3.187.69-11.543.948-13.266.258-1.722.689-2.67 3.445-2.842 2.757-.172 35.232-.948 39.712-1.034z" fill="#f2f2f2" stroke="#06436b" stroke-width=".965"/><path d="M876.414 108.668c-5.662 0-14.233.393-17.063.629-2.831.236-3.303-.079-3.146-2.988.158-2.91 1.416-32.003 2.045-41.124.629-9.122 2.202-20.287 3.617-22.646 1.415-2.36 9.593-4.561 36.328-6.606 26.735-2.044-17.3 9.594-17.3 9.594z" fill="#e4e4e4"/><path d="M918.208 36.59c-40.916-.91-66.375-.546-79.286 0-12.911.545-11.456 1.09-13.639-5.456-2.182-6.546-6.728-23.64-5.455-26.913 1.273-3.274 2-2.91 11.82-3.82 9.82-.908 79.831-.363 105.654 2.547 25.822 2.91 36.187 9.82 43.28 20.73 7.091 10.911 4.182 10.73 1.818 10.73-2.364 0-64.192 2.182-64.192 2.182z" fill="#e1e1e1"/><path d="M873.674 104.38c.102 3.98-.51 4.287 2.552 4.389 3.062.102 82.067 0 93.09-.102 11.024-.102 144.536.204 157.499.306 12.963.102 45.014.306 48.485.204 3.47-.102 3.674-.306 3.776-3.164.102-2.858-1.327-16.638-2.858-24.6-1.53-7.961-6.124-30.213-8.268-35.215-2.143-5.001-6.43-6.634-18.373-8.268-11.942-1.633-72.982-7.45-118.302-8.063-45.32-.613-122.182 4.695-138.921 6.94-16.74 2.246-18.17 6.737-18.374 12.045-.204 5.308-.102 50.22-.306 55.528z" fill="#eaeaea"/><path d="M922.173 55.993v41.02l204.194-.515-1.157-40.505z" fill="#2f2f2f"/><path d="M1126.332 89.78c-9.729-.182-198.759-.869-202.874-.997-4.114-.129-7.329-27.132-1.414-27.132s199.18 1.286 202.394 1.286c3.215 0 1.894 26.843 1.894 26.843z" fill="#272727"/><path d="M898.127 47.25l-3.73 8.23-.9 42.69 65.708.514 201.751 1.029-1.029-23.017-6.3-28.675zm31.201 9.521c22.73.046 186.707 1.015 190.458 1.186 4 .182 4 .818 4.091 3.09.091 2.274.637 27.207.546 29.934-.09 2.728.091 4.092-2.728 4.092-2.819 0-192.85.574-194.577.483-1.727-.09-3.092.273-3.273-2.455-.182-2.727-.546-28.78-.273-32.871.091-2.91.455-3.364 3.183-3.455.17-.006 1.058-.007 2.573-.004z" fill="#2c2c2c"/><path d="M900.25 87.242c1.5 0 1.72-.2 1.72-1.821 0-1.62.48-22.85.44-23.81-.04-.96.06-1.86-1.36-1.88-1.42-.021-4.962-.021-5.823.04-.86.06-1.18-.021-1.2 1.12-.02 1.14-.54 22.95-.58 24.37-.04 1.42 0 1.94.72 1.98.72.04 5.102.02 6.082 0z" fill="#e0e0e0"/><path d="M910.854 59.65c3.042.008 3.041.08 3.121 2.881.08 2.801.08 19.528-.08 22.17-.16 2.64-.082 2.577-2.561 2.68-2.881.12-5.642 0-7.163 0-1.52 0-2.28-.6-2.2-2.44.08-1.841.16-21.29.24-23.13.08-1.84.518-2.112 1.96-2.16 2.512-.087 4.294-.007 6.683 0z" fill="#e2881e"/><path d="M908.591 44.734c-2.085.003-3.441.007-3.964.016-8.373.144-10.682 3.32-11.837 10.393-1.155 7.074-2.743 32.769-2.454 39.986.433 6.352 1.732 6.063 6.496 6.063 4.763 0 254.494 1.01 260.268.866 5.774-.144 6.063.722 6.063-7.218 0-7.94-3.176-36.52-5.63-43.16-2.454-6.641-5.34-5.92-14.146-6.064-8.255-.135-203.521-.905-234.796-.882zm1.148 4.474c21.037.025 93.683.778 105.238.918 13.206.16 122.612 0 129.334.08 6.723.08 7.924 2.561 9.444 6.563 1.52 4.001 4.882 33.854 4.962 37.296.08 3.441-.24 3.281-3.681 3.281-3.442 0-135.657-1.2-146.061-1.04-10.405.16-107.565 1.28-110.606 1.2-3.042-.08-3.541-.637-3.602-4.162-.224-12.971 1.217-25.795 2.16-38.736.278-3.793 2.722-5.122 7.284-5.362.57-.03 2.522-.042 5.528-.038z" fill="#272727"/><path d="M884.562 123.71c-1.683-6.616-1.3-6.495 3.897-6.64 5.197-.144 270.518-.144 277.158.145 6.64.289 7.94.577 9.383 5.63 1.443 5.052 8.084 37.676 10.249 58.607 2.165 20.931 7.65 98.737 7.94 105.378.288 6.64-.29 7.65-4.764 8.083-4.475.434-130.928 1.444-156.912 1.588-25.983.145-116.781 1.3-122.7 1.3-5.918 0-6.64-1.01-7.073-6.496-.433-5.486-2.454-54.566-4.042-73.765-1.588-19.199-8.467-75.472-13.136-93.83zM857.776 292.552c-.016 5.151-.2 5.957 4.593 5.78 4.793-.178 17.953-.81 21.326-.81 3.373 0 3.373-.887 3.373-4.615s-2.13-46.512-3.018-61.601c-.888-15.09-9.942-84.68-13.67-99.236-3.728-14.557-4.083-15.8-6.746-15.8-2.662 0-3.372.533-3.55 4.616-.178 4.083-2.29 166.223-2.308 171.666zM754.447 152.288c0-4.193-.27-4.734 2.705-5.005 2.975-.27 32.864-1.622 36.922-1.487 4.057.135 5.14.406 5.14 3.922s-.271 102.38-.542 105.897c-.27 3.516-1.217 3.38-3.787 3.516-2.57.135-33.135.541-36.651.541-3.516 0-4.057-.406-4.057-3.787 0-3.38.405-96.835.27-103.597zM800.971 254.938c.136 4.193-.135 4.328 3.517 4.193 3.651-.135 40.167-1.893 43.008-2.3 2.84-.405 2.705-.81 2.84-4.056.135-3.246 1.758-103.598 1.758-106.303 0-2.705.135-3.652-3.516-3.652-3.652 0-41.25 2.03-44.09 2.435-2.84.406-2.84 1.623-2.976 4.733-.135 3.111-.54 100.352-.54 104.95z" fill="#3e3e3e"/><path d="M833.565 201.922c13.593 0 12.781 1.759 13.525 7.98.744 6.221-.676 41.79-.947 45.983-.27 4.193-1.082 5.816-12.848 5.545-11.766-.27-14.066-.811-15.012-5.545-.947-4.733-.677-40.168.946-46.795 1.623-6.627 3.382-7.303 14.336-7.168z" fill="#292929"/><path d="M854.233 174.62a4.43 4.43 0 00-.46.014c-1.243.096-2.008.288-2.104 2.296-.095 2.008-.381 1.571-3.442 1.626-1.953.034-4.036.007-6.6.095-1.723.06-1.72 1.53-1.72 3.252 0 1.721-.097 10.998 0 15.588.095 4.59.382 37.201.382 39.305 0 2.104 0 2.965 1.339 2.965s1.53-.288 1.53-3.826c0-3.538-.287-32.42-.192-37.68.096-5.26.957-11.953 3.922-11.953 2.964 0 4.972 3.73 5.068 6.312.096 2.582.861 4.207 2.295 4.112 1.435-.096 1.722-.765 1.817-3.443.096-2.678.478-10.328.287-14.44-.167-3.599-1.067-4.195-2.122-4.224zm-4.573 7.016c1.622 0 2.028.202 2.028 2.096 0 1.893-.203 1.826-1.42 1.352-1.217-.473-2.029-.946-3.449-.879-1.42.068-1.826.609-2.502 1.42-.676.812-1.285.406-1.352-1.622 0-1.961 0-2.097 1.69-2.164 1.691-.068 3.382-.203 5.005-.203z" fill="#222"/><path d="M697.377 147.031c-8.737.017-16.503 1.03-16.503 4.58 0 8.115-.812 108.467-.541 115.77.27 6.762 0 7.844 5.41 7.574 5.41-.27 24.344-1.082 28.672-1.082 4.327 0 5.41-1.082 5.41-5.95 0-4.87 1.081-81.148 1.081-85.205 0-4.058.541-34.082.541-34.082s-12.837-1.626-24.07-1.605zm-45.051 3.132c-12.912-.063-27.68 1.212-27.985 3.342-.54 3.787-.54 30.295-.54 37.868 0 7.574 0 71.41.27 78.713.27 7.574-.27 7.574 6.492 7.303 6.762-.27 27.59-1.082 33.54-1.352 5.951-.27 5.95.27 5.95-5.41s1.624-113.335 1.354-117.663c-.119-1.894-9.039-2.752-19.081-2.8zm-44.485 7.399l-91.966 4.869.812 31.106c0 10.008.54 78.983.54 83.852 0 4.87 1.082 4.87 5.68 4.87 4.599 0 74.926-2.977 79.795-3.247s4.328-1.623 4.599-5.95c.27-4.328 1.081-82.5.81-88.18-.27-5.68-.27-27.32-.27-27.32zm-99.54 4.599l-88.45 5.139s1.082 29.753 1.082 32.458c0 2.705-.812 73.574-.812 79.795 0 6.221 2.164 6.763 8.385 6.492 6.222-.27 66-2.434 71.41-2.975 5.41-.541 6.221-.541 6.221-6.222 0-5.68 1.352-70.057 1.082-79.524 4.057-.812 1.082-35.163 1.082-35.163zm-96.835 5.139l-93.59 5.95-2.705 33c-.27 13.795-1.352 73.574-1.352 78.172 0 4.598.811 5.14 5.41 5.14 4.598 0 78.442-3.247 84.122-3.247 5.68 0 6.492-1.352 6.492-6.491 0-5.14 1.082-77.36 1.082-81.688 0-4.328.54-30.836.54-30.836z" fill="#3e3e3e"/><path d="M720.919 140.943a51.686 51.686 0 00-2.084.029c-6.311.191-405.673 23.525-409.69 24.099-4.016.574-3.825 2.104-4.017 6.312-.19 4.208 0 27.542.192 32.133.19 4.59-.192 5.546 4.399 5.546 4.59 0 401.083-19.317 408.925-19.891 6.695-.383 6.694-.574 6.886-6.312.19-5.738 0-31.559-.192-36.532-.167-4.35-.188-5.334-4.419-5.384zm-4.847 11.33c2.72-.01 3.076.902 3.076 4.072 0 3.381-.54 17.311-.811 20.557-.27 3.246-.812 4.057-4.599 4.328-3.787.27-80.876 4.193-83.716 4.193-2.84 0-2.976-.27-3.111-4.464-.135-4.598-.135-17.852 0-20.422.135-2.57.541-3.38 3.652-3.516 3.11-.135 81.688-4.598 84.934-4.734.203-.008.394-.012.575-.013zm-113.311 7.166c3.425-.038 3.195.659 3.322 4.209.135 3.787.406 17.988.27 20.016-.134 2.029 0 3.517-3.38 3.517-3.381 0-78.307 4.057-81.688 4.328-3.381.27-3.787-.677-3.923-3.923-.135-3.245-.27-16.229.136-19.475.406-3.246.27-4.192 3.651-4.328 3.381-.135 76.82-4.192 80.877-4.328.262-.008.507-.014.735-.016zm-100.03 5.683c3.694-.01 3.829.901 4.082 4.071.27 3.381.27 16.635 0 19.205-.27 2.57-.81 3.652-4.463 3.922-3.651.27-73.844 4.058-76.684 4.058-2.84 0-4.327-.948-4.463-3.788-.135-2.84-.135-16.635.27-19.34.406-2.704 1.353-3.516 4.599-3.922 3.246-.406 72.086-4.057 75.873-4.192.279-.008.54-.014.787-.014zm-97.213 5.274c3.834-.009 4.198.919 4.325 4.342.135 3.652-.406 15.012-.541 17.852s-.676 3.652-4.87 3.923c-4.192.27-72.896 3.787-77.9 4.057-5.004.27-5.95 0-5.95-3.246s-.271-12.443-.136-17.447c0-4.327.811-4.463 4.057-4.733 3.246-.27 75.602-4.598 80.2-4.734.288-.008.559-.013.815-.014z" fill="#2a2a2a"/><path d="M245.262 145.562l-90.85 5.547s-.192 27.35-.192 29.837c0 2.486-.574 68.09-.383 73.064.192 4.973.766 6.694 5.165 6.694s74.02-1.913 78.418-2.487c4.4-.574 5.738-1.72 5.93-6.885.191-5.164.956-64.457 1.147-72.68zm-102.518 6.886l-95.824 4.781s0 25.439.192 28.69c.19 3.252-1.53 72.107-1.34 76.124.192 4.016 1.53 4.782 4.973 4.782 3.443 0 82.245-3.826 86.644-4.208 4.399-.383 5.164-1.722 5.164-6.121 0-4.4-.191-63.308-.191-72.298z" fill="#3e3e3e"/><path d="M243.846 131.549c-.646.006-1.38.027-2.218.05-6.694.192-186.866 12.433-192.03 13.007-5.164.573-4.973.574-5.164 5.355-.192 4.782-.956 32.133-.765 36.532.191 4.4.382 5.93 5.164 5.738 4.782-.191 183.806-10.902 191.456-11.285 8.225-.191 8.798-.19 8.607-8.798-.191-8.607 0-28.498-.191-34.619-.167-5.355-.335-6.025-4.859-5.98zm-4.657 16.669c3.826-.037 4.185 1.062 4.543 5.186.383 4.4.574 11.285.383 15.301-.192 4.017.573 4.973-5.164 5.356-5.738.382-72.681 3.825-77.272 4.016-4.59.192-5.929 0-6.12-4.781-.192-4.782 0-9.755.191-14.728.192-4.782-.191-5.164 5.738-5.929 5.93-.765 72.299-4.208 76.889-4.399.287-.012.557-.02.812-.022zm-102.266 6.694c4.077-.039 3.92 1.026 4.1 4.613.19 3.825.19 12.432.19 15.683 0 3.252-.764 4.59-4.972 4.973s-78.992 4.4-82.818 4.59c-3.825.192-4.208-.382-4.59-3.825-.383-3.443-.191-13.58.191-16.831.383-3.251 1.148-4.017 4.59-4.208 3.443-.191 76.507-4.782 82.436-4.973.31-.012.601-.02.873-.022z" fill="#2a2a2a"/><path d="M1142.91 84.948c.068 1.524-.44 1.88-1.6 1.96-1.16.08-6.083.16-7.403.04-1.32-.12-1.801-.36-1.961-2-.16-1.64-.593-20.246-.513-21.767.08-1.52.954-1.857 2.154-1.937 1.2-.08 4.682-.176 6.002-.056 1.32.12 2.058.27 2.161 1.68.55 7.524.83 14.543 1.16 22.08z" fill="#e2881e"/><path d="M1142.22 85.1c.165 1.999.89 1.761 2.491 1.681 1.601-.08 6.683-.24 7.604-.36.92-.12 1-.36.96-1.76-.04-1.401-.71-21.114-.91-22.194-.2-1.08-.4-1.48-1.561-1.52-1.16-.04-6.213.024-7.613.144-1.4.12-1.547.487-1.537 1.376.067 5.947.11 17.11.566 22.632z" fill="#e0e0e0"/><path d="M679.131 464.056c20.023-.308 26.338-24.49 26.646-41.74.308-17.25-8.471-47.438-26.646-48.054-18.175-.617-22.487 30.034-22.641 44.512-.154 14.478 6.16 45.436 22.641 45.282z" fill="#1f1f1f"/><path d="M689.69 378.45c-4.664 1.575-10.522 4.474-15.642 8.441-6.16 4.775-1.694 62.687.77 64.69 2.263 1.838 3.637 2.273 11.595 11.153 14.313-5.303 19.097-25.463 19.364-40.418.24-13.485-5.073-34.877-16.087-43.867z" fill="#858585"/><path d="M674.587 451.503c4.93 0 17.328-6.545 17.328-30.265s-10.628-34.039-18.175-33.885c-7.547.154-15.248 12.476-15.248 31.575 0 19.099 6.315 32.806 16.095 32.575z" fill="#787878"/><path d="M690.682 379.306c-2.878 2.283-5.871 6.762-3.696 7.97 2.52 1.4 4.163.764 9.875-.116-1.789-3.04-3.848-5.728-6.18-7.854zm9.156 13.783c-2.155 1.818-4.427 5.037-3.61 8.126.922 3.493 3.765 3.994 7.46 3.632-.954-4-2.239-8.012-3.85-11.758zm5.576 21.768c-2.796.917-6.23 2.438-6.414 6.535-.202 4.51 2.595 5.9 6.439 6.9.194-2.05.304-4.056.338-5.976.04-2.29-.083-4.812-.363-7.459zm-2.922 23.445c-2.751.061-6.13.957-7.343 3.498-1.439 3.014 1.093 4.572 5.084 6.938 1.535-3.242 2.703-6.784 3.564-10.401-.41-.032-.848-.045-1.305-.035zm-14.984 14.65c-1.016-.017-1.826.176-2.216.63-1.35 1.575-1.15 3.45 4.263 7.67 2.28-1.324 4.272-3.066 6.006-5.113-1.808-1.826-5.553-3.143-8.053-3.186z" fill="#1d1d1d"/><path d="M674.895 398.289c-8.394.385-10.858 10.55-10.781 20.1.077 9.55 3.696 22.102 10.935 21.948 7.24-.154 10.859-10.243 10.859-20.793 0-10.55-3.235-20.793-11.013-21.255z" fill="#686868"/><path d="M665.437 397.87c.054-2.723 0-3.594 1.416-3.703 1.416-.109 2.341 1.307 2.341 3.322 0 2.014-.544 3.757-1.742 3.757s-2.124-.926-2.015-3.376z" fill="#8d8d8d"/><path d="M661.19 397.38c.108-2.178 1.197-2.396 3.267-2.396 2.069 0 2.722 1.034 2.777 2.722.054 1.689-.654 2.233-2.56 2.233-1.905 0-3.485-.272-3.485-2.56z" fill="#676767"/><path d="M673.446 394.481c.054-2.722 0-3.594 1.416-3.703 1.416-.109 2.341 1.307 2.341 3.322s-.544 3.758-1.742 3.758-2.124-.926-2.015-3.377z" fill="#8d8d8d"/><path d="M669.199 393.991c.108-2.178 1.198-2.396 3.267-2.396 2.07 0 2.723 1.035 2.777 2.723.055 1.688-.653 2.233-2.56 2.233-1.905 0-3.484-.273-3.484-2.56z" fill="#676767"/><path d="M681.378 400.257c.055-2.723 0-3.594 1.416-3.703 1.416-.109 2.342 1.307 2.342 3.322s-.545 3.757-1.743 3.757-2.124-.925-2.015-3.376z" fill="#8d8d8d"/><path d="M677.13 399.767c.11-2.178 1.199-2.396 3.268-2.396 2.07 0 2.723 1.035 2.777 2.723.055 1.688-.653 2.232-2.56 2.232-1.905 0-3.484-.272-3.484-2.559z" fill="#676767"/><path d="M686.23 413.734c.054-2.723 0-3.594 1.416-3.703 1.416-.109 2.341 1.307 2.341 3.322s-.544 3.757-1.742 3.757-2.124-.925-2.015-3.376z" fill="#8d8d8d"/><path d="M681.982 413.244c.11-2.178 1.198-2.396 3.268-2.396 2.069 0 2.722 1.035 2.777 2.723.054 1.688-.654 2.232-2.56 2.232-1.905 0-3.485-.272-3.485-2.559z" fill="#676767"/><path d="M660.123 410.269c.055-2.723 0-3.594 1.416-3.703 1.416-.11 2.342 1.307 2.342 3.321 0 2.015-.545 3.758-1.743 3.758s-2.124-.926-2.015-3.376z" fill="#8d8d8d"/><path d="M655.876 409.778c.109-2.178 1.198-2.396 3.267-2.396 2.07 0 2.723 1.035 2.777 2.723.055 1.688-.653 2.233-2.56 2.233-1.905 0-3.484-.272-3.484-2.56z" fill="#676767"/><path d="M659.892 426.056c.055-2.723 0-3.594 1.416-3.703 1.416-.109 2.342 1.307 2.342 3.322 0 2.014-.545 3.757-1.743 3.757s-2.124-.926-2.015-3.376z" fill="#8d8d8d"/><path d="M655.645 425.566c.109-2.178 1.198-2.396 3.267-2.396 2.07 0 2.723 1.034 2.777 2.722.055 1.689-.653 2.233-2.56 2.233-1.905 0-3.484-.272-3.484-2.56z" fill="#676767"/><path d="M672.753 444.77c.054-2.723 0-3.595 1.416-3.703 1.416-.11 2.341 1.306 2.341 3.321s-.544 3.758-1.742 3.758-2.124-.926-2.015-3.377z" fill="#8d8d8d"/><path d="M668.505 444.28c.11-2.179 1.198-2.397 3.268-2.397s2.723 1.035 2.777 2.723c.054 1.688-.653 2.233-2.56 2.233-1.905 0-3.485-.273-3.485-2.56z" fill="#676767"/><path d="M664.359 439.379c.054-2.723 0-3.594 1.416-3.703 1.415-.11 2.341 1.307 2.341 3.322 0 2.014-.544 3.757-1.742 3.757s-2.124-.926-2.015-3.376z" fill="#8d8d8d"/><path d="M660.111 438.889c.11-2.179 1.198-2.396 3.268-2.396 2.069 0 2.722 1.034 2.777 2.722.054 1.688-.654 2.233-2.56 2.233-1.906 0-3.485-.272-3.485-2.56z" fill="#676767"/><path d="M680.84 441.304c.053-2.723 0-3.594 1.415-3.703 1.416-.109 2.341 1.307 2.341 3.322s-.544 3.757-1.742 3.757-2.124-.926-2.015-3.376z" fill="#8d8d8d"/><path d="M676.592 440.814c.109-2.178 1.198-2.396 3.267-2.396 2.07 0 2.723 1.035 2.777 2.723.055 1.688-.653 2.232-2.56 2.232-1.905 0-3.484-.272-3.484-2.56z" fill="#676767"/><path d="M685.922 429.444c.054-2.722 0-3.594 1.416-3.703 1.415-.109 2.341 1.307 2.341 3.322s-.544 3.758-1.742 3.758-2.124-.926-2.015-3.377z" fill="#8d8d8d"/><path d="M681.674 428.954c.11-2.178 1.198-2.396 3.268-2.396 2.069 0 2.722 1.035 2.777 2.723.054 1.688-.654 2.233-2.56 2.233-1.905 0-3.485-.273-3.485-2.56z" fill="#676767"/><path d="M675.239 407.82c3.757.054 6.698 7.024 6.589 11.925-.11 4.901-1.58 10.946-5.5 10.946s-5.663-4.302-5.718-10.673c-.054-6.372.109-12.198 4.629-12.198z" fill="#5c5c5c"/><path d="M672.843 410.869s-.436 17.807.436 17.807c.726 0 3.719.036 6.43-.078 1.435-2.196 2.05-5.752 2.119-8.853.063-2.836-.896-6.363-2.443-8.844-1.464.038-3.86.054-6.542-.032z" fill="#646464"/><path d="M672.662 410.919c4.081-.048 5.622 3.542 5.622 9.164s-1.617 8.548-5.006 8.548c-3.388 0-5.622-3.927-5.622-9.318 0-5.39 2.464-8.365 5.006-8.394z" fill="#6d6d6d"/><path d="M203.093 382.526c-16.208.47-20.437 25.37-19.732 41.343.705 15.974 6.812 39.464 19.262 39.699 12.45.235 22.081-22.786 21.611-40.873-.47-18.088-8.221-39.699-21.141-40.169z" fill="#939393"/><path d="M213.714 388.515c-11.753 9.504-15.112 20.831-15.554 36.529-.434 15.409 5.147 28.01 15.077 32.802 6.865-7.935 11.32-22.71 10.997-35.151-.321-12.38-4.055-26.407-10.52-34.18z" fill="#737373"/><path d="M223.08 412.539c-5.057-.101-8.642 3.212-8.642 9.487 0 6.184 2.576 10.7 9.167 10.375.488-3.286.71-6.57.63-9.706a74.441 74.441 0 00-.983-10.15 5.02 5.02 0 00-.172-.006z" fill="#bababa"/><path d="M211.219 405.284c-.304.004-.624.013-.962.028-5.403.235-4.463 3.993-4.463 5.755s1.762 3.64 4.463 3.758c6.108.118 6.578-3.17 6.46-5.872-.11-2.533-.943-3.723-5.498-3.669zm-.01 19.61c-.422-.009-.893.003-1.422.032-4.228.235-4.932 3.994-4.815 6.225.117 2.232 1.88 4.228 5.873 4.11 6.342-.586 5.637-3.992 4.697-6.811-.822-2.467-1.374-3.495-4.332-3.556zm5.258 19.118c-2.158-.03-4.272.528-5.035 2.055-1.462 2.924-.754 4.126 6.112 5.357a52.172 52.172 0 002.944-6.669c-1.094-.436-2.567-.723-4.02-.743z" fill="#1c1c1c"/><path d="M982.546 63.037c2.322.03 2.367-.065 2.37 2.02.002 2.086-.183 2.273-1.937 2.251-1.753-.021-3.79 0-4.783.083-.993.083-1.125.508-1.261 2.733-.137 2.226-.463 2.46 2.096 2.49 2.56.033 3.457-.098 3.552 1.893.095 1.992.148 2.23-2.03 2.297-2.178.068-1.658.027-2.698.11-1.04.081-.975.84-1.03 2.546-.053 1.705-.225 2.461 1.388 2.529 1.612.067 3.887.095 5.026.157 1.138.061 1.146.393 1.186 2.053.04 1.659-.282 2.081-1.416 2.21-1.134.128-7.196.242-8.618.224-1.422-.017-1.764-.448-1.794-1.728-.03-1.28.824-19.042.937-20.273.113-1.23.2-1.562 1.62-1.639 1.419-.077 5.875.026 7.392.044zM988.595 70.316c1.895.024 2.083-.069 2.177 1.876.093 1.944 1.258 5.086 2.823 5.153 1.565.067 3.095-3.326 3.053-5.08-.042-1.755.137-2.226 1.606-2.208 1.47.018 1.907.497 1.988 1.92.081 1.423-3.807 5.261-3.83 6.304-.021 1.042.765 2.237 2.224 3.819 1.46 1.582 1.474 2.198 1.499 3.241.025 1.043-.393 1.417-1.91 1.35-1.518-.065-1.568-.16-1.598-1.44-.031-1.28-1.557-5.66-3.028-5.773-1.472-.113-3.305 2.471-3.346 4.745-.04 2.275-.324 2.319-2.076 2.344-1.752.026-1.855-.307-1.804-2.155.05-1.847.603-2.504 1.667-3.581s2.425-1.629 2.404-2.53c-.022-.9-1.624-2.532-2.69-3.54-1.067-1.009-1.17-1.342-1.106-2.62.065-1.28.336-1.797 1.947-1.825zM1008.223 69.667a108.94 108.94 0 00-4.623.03c-1.042.034-.982.556-1.097 1.692-.115 1.136-.631 13.263-.562 14.164.069.902.404 1.095 1.873 1.113 1.47.019 1.89-.213 1.91-1.35.02-1.137.113-3.27.176-4.596.063-1.326 1.247-1.358 4.136-1.417 2.888-.06 4.015-2.51 3.955-5.022-.06-2.513-1.1-4.421-4.279-4.556a30.429 30.429 0 00-1.49-.058zm-.208 2.407c2.038.025 2.099.594 2.143 2.443.044 1.85-.224 2.51-1.977 2.535-1.752.026-2.288-.597-2.099-2.585.092-2.085-.105-2.418 1.933-2.393zM1020.208 69.737a52.988 52.988 0 00-2.867.035c-1.185.05-1.221.412-1.336 1.548-.115 1.136-.644 12.74-.572 13.784.072 1.043.556 1.43 2.214 1.45 1.66.02 1.94-.119 2.017-.876.077-.757.067-1.137.168-2.889.1-1.752 1.61-.028 3.133 2.266 1.524 2.294 1.934 1.636 3.261 1.652 1.327.017.689-.94-.99-3.804-1.68-2.864-1.406-3.287-.276-3.605 1.13-.317 2.702-1.957 2.679-4.896-.023-2.938-1.388-4.535-4.564-4.607-.954-.021-1.91-.047-2.867-.058zm1.406 2.363c2.087.12 2.28.265 2.142 2.396-.139 2.131-.46 2.553-2.262 2.484-1.803-.07-2.093-.31-2-2.347.094-2.037.318-2.602 2.12-2.533zM1039.178 69.521c2.18.027 2.323.077 2.35 1.214.027 1.138-.63 1.414-1.956 1.398-1.327-.017-3.553.05-4.785.035-1.232-.015-1.128.366-1.177 2.308-.048 1.943-.365 2.555 3.002 2.691 3.367.137 3.095.655 3.115 1.46.019.807-.882.796-3.44.811-2.558.016-2.747.014-2.787 2.335-.039 2.322.108 2.514 1.72 2.581 1.613.067 3.27.04 4.504.103 1.233.063 1.756.117 1.828 1.16.072 1.044-.59 1.083-1.728 1.07-1.137-.015-7.77-.002-9.05-.018-1.28-.016-1.524-.35-1.55-1.441-.026-1.09.266-12.651.333-13.835.066-1.184.195-1.751 1.19-1.787.993-.035 6.534-.156 8.43-.085zM1050.837 69.666c2.986.066 4.325 2.565 4.444 3.562.118.997.267 1.283-1.722 1.306-1.99.023-2.045-.31-2.11-1.022-.063-.711-.319-1.473-1.837-1.539-1.517-.066-1.964 1.066-2.016 2.866-.052 1.8.242 2.183 2.47 2.21 2.227.028 4.86 1.151 5.08 4.471.222 3.32-.872 5.108-3.805 5.309-2.933.2-4.165.185-5.736-.119-1.57-.304-2.435-2.779-2.461-3.87-.026-1.09.356-.943 2.015-.922 1.659.02 2.047.405 2.066 1.21.02.806.173 1.282 1.88 1.35 1.708.07 2.213-.588 2.219-2.341.01-1.754-.631-2.615-2.624-2.734-1.993-.12-5.192-1.155-5.378-4.996-.187-3.841 1.127-4.394 2.875-4.609 1.747-.215 2.79-.173 4.64-.132zM1064.83 69.555c2.986.066 4.325 2.565 4.444 3.562.119.997.268 1.283-1.722 1.306-1.99.023-2.045-.31-2.11-1.022-.063-.711-.318-1.473-1.836-1.539-1.518-.066-1.965 1.066-2.017 2.866-.052 1.8.242 2.183 2.47 2.21 2.227.028 4.86 1.151 5.081 4.472.221 3.32-.873 5.107-3.806 5.308-2.933.2-4.165.185-5.736-.119-1.57-.303-2.435-2.779-2.46-3.87-.027-1.09.356-.943 2.015-.922 1.658.02 2.047.405 2.066 1.21.019.806.172 1.282 1.88 1.35 1.707.07 2.213-.588 2.218-2.341.01-1.754-.63-2.615-2.624-2.734-1.992-.12-5.192-1.155-5.378-4.996-.187-3.841 1.127-4.394 2.875-4.609 1.748-.215 2.79-.173 4.64-.132zM1115.84 63.927a2.297 2.297 0 00-.215-.002c-.895.033-1.84.564-3.02 1.79-2.693 2.802-2.85 3.002-2.904 4.368-.053 1.367-.053 3.189 0 4 .053.81.106 1.23 1.057 1.228 3.363-.006 6.725-.038 10.086-.092 1.48-.024 1.85.023 1.85-1.952 0-1.974.052-1.908.052-3.275s-1.11-2.04-3.539-4.145c-1.28-1.11-2.298-1.865-3.368-1.92zm-3.159 6.338c1.345-.002 1.307.553 1.307 1.34 0 .788-.15 1.216-1.158 1.168-1.008-.048-1.195-.23-1.195-1.053s-.114-1.453 1.046-1.455zm6.685.083c1.344-.003 1.307.553 1.307 1.34 0 .788-.15 1.216-1.158 1.168-1.008-.048-1.195-.23-1.195-1.053s-.114-1.453 1.046-1.455zm-4.374 7.437c-2.133-.027-4.122-.043-4.514-.03-.785.026-1.083-.013-1.046 2.744.037 2.757 1.867 2.672 1.942 4.642.075 1.97.336 2.402 1.195 2.377.859-.025 1.046-.201 1.083-1.275.037-1.073.41-1.284 2.353-1.295 1.942-.012 2.016.418 2.091 1.493.074 1.075.635 1.154 1.232 1.161.598.007.822-.061.859-2.101.037-2.04 2.577-3.334 2.54-5.303-.037-1.97-.262-2.33-2.353-2.32a397.66 397.66 0 00-5.382-.093zm-2.535 2.214c1.344-.002 1.307.554 1.307 1.341 0 .788-.15 1.215-1.158 1.167-1.008-.048-1.195-.23-1.195-1.053s-.115-1.452 1.045-1.455zm6.684.083c1.345-.002 1.308.554 1.308 1.341 0 .788-.15 1.215-1.158 1.167-1.008-.048-1.196-.23-1.196-1.053s-.114-1.453 1.046-1.455z" fill="#99bd63"/></svg>