<svg xmlns="http://www.w3.org/2000/svg" width="702.655" height="375.03" viewBox="0 0 185.911 99.227"><path d="M52.046 94.31c.58 2.73 1.858 4.298 4.646 4.24 2.787-.058 3.774-1.22 3.89-3.02.116-1.8-8.536-1.22-8.536-1.22z" fill="#080808"/><path d="M102.514 92.738c1.037 4.042 3.543 4.748 6.175 4.712 2.631-.035 5.308-1.143 5.333-3.94.012-1.41-11.508-.772-11.508-.772z" fill="#060606"/><path d="M111.256 64.582l.375 9.128 11.254 1.5 25.633 1.5 4.377.063-.5-11.691z" fill="#0b0b0b"/><path d="M166.394 89.536c-2.017 2.816-2.816 3.362-3.992 3.32-1.177-.042-2.396-3.614-4.329-3.698-1.933-.084-1.149 1.307-1.19 2.61-.043 1.303-1.068.519-2.96.56-1.89.043-6.921-.177-7.72-.346-.798-.168-1.03-8.749-1.03-8.749l2.983-4.79 10.884 1.764 6.303 2.144z" fill="#0f0f0f"/><path d="M146.302 83.13c1.363.056 2.528-.228 2.585.766.057.995.227 5.057.284 6.164.057 1.108.227 1.676-.597 1.676-.823 0-2.386-.057-2.641-.028-.256.028-1.534 2.045-.256 2.215 1.278.17 13.72.086 14.316.142.597.057 1.051-5.027-.34-5.112-1.393-.086-2.955.028-3.239.085-.284.057-.312.852-.312 1.676 0 .823.17 1.221-.88 1.221-1.052 0-3.353.028-4.176 0-.824-.028-1.023-.454-1.023-.966 0-.511.114-2.329.17-3.153.057-.823.995-3.181 2.528-3.465 1.534-.284-1.846-2.755-1.846-2.755l-3.068-1.08-2.244 2.216z" fill="#171717"/><path d="M125.727 92.215c.718 2.65 1.767 4.692 4.307 4.692 2.54 0 4.416-1.546 4.582-3.81.165-2.263-7.067-3.477-7.067-3.477z" fill="#070707"/><path d="M112.49 93.745c4.197.11 15.28-.017 16.77.204 1.491.22 7.343.22 8.006-.276.662-.497 2.87-3.81 2.87-3.81l-4.527-3.458-23.407 4.121z" fill="#0c0c0c"/><path d="M50.26 95.77c2.706-.055 11.484 0 12.919.056 1.435.055-.718-6.238-.718-6.238l-9.937-.332-1.214 3.147z" fill="#0b0b0b"/><path d="M119.793 92.1c-2.072.662-3.47 1.658-6.29 1.65-3.946-.014-5.075-.208-7.835-.251-2.276-.036-5.004-.213-7.378-.047-2.374.166-.276-12.918-.276-12.918l-5.465-4.472-3.202-7.84.993-4.084 22.524.441-.22 7.122h7.121l1.601 2.098v16.838z" fill="#111"/><path d="M119.24 71.756c.056 1.104.084 1.435 1.436 1.49 1.353.056 2.402.056 2.457-.745.055-.8-.331-1.104-.331-1.104z" fill="#353535"/><path d="M142.924 97.178c-3.009.083-3.435-.143-4.258-1.36-.784-1.158-1.44-3.464-1.522-4.569-.083-1.104-.395-3.485-.423-5.251-.028-1.767 3.857-1.434 3.857-1.434z" fill="#0f0f0f"/><path d="M138.526 87.805c.352 5.895 1.991 9.447 4.294 9.369 2.303-.078 3.982-4.997 3.943-7.768-.039-2.772-.234-6.949-1.327-7.027-1.093-.078-6.949-1.25-6.91 5.426z" fill="#191919"/><path d="M142.742 95.261c1.757 0 2.616-2.576 2.538-6.05-.079-3.475-.547-5.427-2.772-5.427-1.25 0-2.615-.468-2.615 4.255 0 4.724 1.483 7.183 2.85 7.222z" fill="#121212"/><path d="M146.318 91.53c-4.5-.04-10.526-5.674-10.583-7.605-.057-1.932-2.443-10.17-.34-9.942 2.101.227 8.18 1.136 9.828 1.25 1.647.113 1.095 16.298 1.095 16.298z" fill="#0b0b0b"/><path d="M137.182 65.867c-.133 2.962-1.017 8.62-1.061 9.196-.044.574.575 1.414.796.442.22-.973.31-2.432 1.414-2.476 1.106-.044 2.83.177 2.83-.398s-.53-.884-1.327-.84c-.795.044-1.856-.044-1.945-1.15-.088-1.104.663-3.934.84-4.774.177-.84-1.547 0-1.547 0z" fill="#212121"/><path d="M133.203 66c-.044 1.857-.133 2.74-.751 2.74-.62 0-2.653-.132-3.184-.132-.53 0-.618.575-.663 1.945-.044 1.37.089 2.785.62 3.581.53.796 1.547.265 1.105-.31-.443-.574-1.15-.972-1.062-2.652.089-1.68-.044-1.812 1.946-1.768 1.99.044 2.696-.044 2.785-1.238.088-1.194.044-2.299.044-2.74 0-.443-.84.574-.84.574z" fill="#252525"/><path d="M121.545 73.791c3.63 0 11.555.039 13.078.078 1.522.04 2.186.156 2.459 3.318.273 3.162.351 6.793.156 9.018-.195 2.225-1.874 5.894-5.621 6.05-3.748.156-10.11-.117-11.594-.156-1.483-.039-1.562-.195-.547-1.015 1.015-.82 1.093-2.03 1.132-2.654l.937-14.639z" fill="#303030"/><path d="M109.285 71.063l3.13.057.04 1.114-3.189-.115-.46 7.95 3.322.11.019 1.191-3.342-.134-.057-1.416z" fill="#b2b2b2"/><path d="M66.411 70.913v7.011l26.985-1.596v-2.63l1.77-1.822-1.264-1.366-4.553-1.416z" fill="#0f0f0f"/><path d="M91.201 68.516c2.04 1.145 3.542 1.717 5.33 2.003 1.79.287 2.54.072 2.576.644.036.573-.036.966-1.216.966s-3.22.93-3.506 2.576c-.286 1.645-2.039 3.47-1.967 1.896.071-1.574.107-3.22-.716-3.434-.823-.215-1.252-.108-1.323 1.896-.072 2.003-1.539 2.754-1.431 1.216.107-1.538.644-2.254-.036-2.719-.68-.465-3.649-1.896-4.042-2.218-.394-.322 4.471.143 6.296.358 1.824.215 2.718.608 3.004.179.287-.43-.178-.894-1.502-1.18-1.324-.287-1.574-.823-1.467-2.183z" fill="#252525"/><path d="M88.779 89.28c-1.06 0-.9 1.157-1.829 1.133-.896-.023-2.084-.037-3.254.146-.868.136-1.852.143-2.78.183-1.754.076-5.266.11-5.266.11l2.012-8.265 9.398-1.682 3.036 3.437z" fill="#0b0b0b"/><path d="M91.954 98.486c-2.656 0-3.665-.072-4.398-1.134-.734-1.063-2.138-4.574-2.177-7.336-.011-.759 2.376-.585 2.376-.585l.759 2.327 2.251 5.059z" fill="#0f0f0f"/><path d="M87.23 89.55c.287 2.755 1.288 9.015 4.794 8.944 3.506-.072 4.221-5.939 4.257-6.654.036-.716-2.933-7.763-2.933-7.763l-1.288.25z" fill="#191919"/><path d="M88.135 88.722c.151 3.39 1.163 8.044 3.693 7.943 2.53-.101 3.39-4.3 3.39-5.413 0-1.113-1.67-6.476-1.67-6.476l-2.024-.708z" fill="#121212"/><path d="M71.482 89.53l.051 5.171 14.792-1.034-.673-4.138z" fill="#0b0b0b"/><path d="M86.261 90.031c3.73-.06 7.728-.032 7.607-1.379.246-.985-1.226-5.477-1.226-5.477l-4.266 4.308-4.02 1.272z" fill="#0b0b0b"/><path d="M77.041 88.417c.052 1.423-.232 2.25-.543 2.612-.31.362-.724.44-.776 1.164-.051.724-.232 1.267.621 1.319.853.051 6.336.18 6.956.077.62-.103.776-.207.57-1.163-.208-.957-.492-2.173.18-2.276.672-.103 1.784-.207 2.172-.181.388.026.699.026.854.698.155.672.879 4.06.93 4.551.052.492-.206 1.009-.672.673-.465-.336-1.5-2.87-1.94-3.905-.439-1.034-1.008-1.267-.878-.672.129.594.956 2.25 1.112 3 .155.75.284 1.939.31 2.249.026.31.077.724-.569.724-.647 0-14.29.147-15.167.184-.878.037.658-3.84 1.536-3.913.878-.073 1.975-.037 2.414-.037.439 0 .548-.219.548-.914 0-.695-.11-1.134-.621-1.353-.512-.22-.549-1.317-.476-1.792.073-.475 3.44-1.045 3.44-1.045zM66.568 80.634l-.051 7.292h2.456l-.595-7.344z" fill="#1c1c1c"/><path d="M68.519 85c0 3.072.256 3.511.402 3.914.147.402 2.89.438 2.89.438s6.363-2.157 6.4-3.072c.036-.914.036-3.73.036-3.73l-3.877-2.413-3.767.987z" fill="#242424"/><path d="M75.12 84.123c-2.359.018-3.858.384-3.913 3.017-.055 2.633.366 3.31.786 3.474.42.165 1.774.128 2.085-.128.31-.256-.348-3.438-.348-3.438z" fill="#1c1c1c"/><path d="M75.98 84.27c-.933-.257-2.012-.385-2.47 1.517-.456 1.901-.09 4.132.147 4.498.238.366 1.225.603 1.664 0 .439-.603-.402-1.573-.402-1.573l-.384-2.194z" fill="#2a2a2a"/><path d="M87.7 89.554c-.896-.403-1.115-.458-1.59-.476-.476-.018-1.537.073-1.72-.914-.182-.988-.237-3.438.75-3.657.988-.22.896.512.951.475.055-.036.037-.439-.201-.494-.238-.054-.347-.75-.055-1.097.293-.347 1.883-.091 1.883-.091l2.268 1.371-.037 2.34-.695 1.976z" fill="#131313"/><path d="M86.329 83.318c1.316.841 2.633 1.097 2.743 3.218.11 2.122-.732 2.56-1.354 2.67-.621.11-.292.366.842.512 1.133.146 3.51.11 3.766-2.048.256-2.158.183-3.145.073-3.913-.11-.768-6.07-.439-6.07-.439z" fill="#292929"/><path d="M71.3 82.237c1.681.052 5.431 1.19 6.052 1.448.62.259-1.449-1.836-1.449-1.836l-3-.595z" fill="#1e1e1e"/><path d="M82.635 84.342c.037 1.372.128 1.829.33 1.975.2.146.511.238.511.64s.201.805.732.878c.53.073.64-.256.676-.768.037-.512-.183-.933-.603-1.006-.42-.073-.567.091-.622-.64-.055-.731-.018-1.518-.055-1.719-.036-.2-.969.64-.969.64zM80.293 76c-.025-2.176.127-2.379.708-2.43.582-.05 1.847-.025 2.277.026.43.05.607.05.734.961.126.91.177 1.771-.051 1.822-.228.05-3.668-.38-3.668-.38zM101.566 70.035c-.42 1.754-1.193 2.947-.561 3.052.631.106 2.21-.561 2.316.07.105.632.035 2.527-.176 5.228-.21 2.702-2.14 5.544-2.737 6.526-.596.983-.456 2.105.106 1.614.561-.491 2.35-3.263 2.666-4.175.316-.912.597-2.737.772-4.21.175-1.474.14-4.702.246-5.544.105-.842.877-2.737.666-3.754-.21-1.018-3.298 1.193-3.298 1.193z" fill="#171717"/><path d="M66.155 77.479c1.861-1.345 3.878-2.586 7.447-2.534 3.569.051 4.913.775 6.982.775s18.464-.103 19.705-.103c1.241 0 1.913-.155 1.913 2.12 0 2.276.052 2.793-.362 2.845-.413.052-.827.776-.93 2.482-.104 1.707-.621 4.81-1.294 4.965-.672.156.207 1.397.207 2.483s-.103 2.844-1.034 2.896c-.931.052-3.569.155-4.344.155-.776 0-.931-.362-.983-.724-.052-.362.827-.62.827-1.5 0-.879-.155-2.947-.982-4.396-.828-1.448-1.655-3.361-4.655-3.465-3-.103-5.43.517-6.361 1.707s-1.138 1.603-1.966 1.552c-.827-.052-1.344-.776-2.12-1.81-.776-1.035-2.38-2.949-4.965-2.897-2.586.052-2.896 1.965-3.207 3.207-.31 1.24-1.086 1.758-1.448.724-.362-1.035-.413-4.862-1.913-5.069-1.5-.207-.517-3.413-.517-3.413z" fill="#2c2c2c"/><path d="M67.202 99.226c-4.174-.094-4.124-.3-5.012-1.316-.978-1.12-1.859-5.157-1.932-7.205-.073-2.047 2.41-.475 2.41-.475l.548 3.438z" fill="#101010"/><path d="M61.863 89.426c.073 7.204 2.961 9.829 5.303 9.8 2.999-.036 5.047-3.328 5.193-7.058.146-3.73-2.517-3.831-4.492-3.612-1.975.22-6.004.87-6.004.87z" fill="#191919"/><path d="M25.142 92.04c1.241 3.827 1.843 6.112 6.206 6.206 4.675.1 6-3.62 6.206-6.724.207-3.103-12.412.518-12.412.518z" fill="#0c0c0c"/><path d="M182.526 78.225c1.001.001 1.31-.073 1.779-.192.476-.12.744-.457.768-1.213.024-.746-.195-28.048-.283-30.069-.088-2.02-1.23-2.547-3.25-2.547-2.021 0-5.887-.176-6.458-.088-.571.088-2.855.263-2.372.615.483.351 2.065.131 2.196 1.889.132 1.757.44 16.912.44 17.615 0 .702.878 1.186.922-.352.044-1.537-.351-14.716-.307-16.121.043-1.406.087-2.46 1.669-2.592 1.581-.132 3.426-.132 4.48 0 1.055.132 1.67.659 1.801 2.328.132 1.67.308 26.928.352 28.202.044 1.274-.044 1.713-1.186 1.8-1.142.089-1.142.023-.571-.043.57-.066 1.34-.088 1.34-1.406 0-1.318.065-4.349.087-5.315.022-.967-.373-1.604-1.471-1.735-1.098-.132-1.318-.176-1.384.066-.066.241-.395.527.308.549.703.022 1.69-.044 1.757 1.954.066 2 0 3.646-.088 4.283-.088.637 0 .9-.593.879-.593-.022-1.625.198-1.625.198s.98 1.294 1.689 1.295z" fill="#c1c1c1"/><path d="M181.605 63.905c-1.713-.066-8.346-.351-8.807-.351-.461 0-.044 2.482-.044 2.482l8.763-.396z" fill="#dfdfdf"/><path d="M175.338 87.4l2.224-.16.993-20.374-3.813-.357-.755 9.85z" fill="#252525"/><path d="M175.747 72.519c-.088 2.895-.088 10.22-.044 11.535.044 1.316.132 1.974 1.404 2.457 1.272.482 2.796 2.28 2.971 3.552-.767 0 .002.071-1.79.04-.483-.008-.874.136-1.576 1.495-.702 1.36-2.807 2.194-5.439 2.062-2.631-.132-9.1-.162-10.65-.41-1.55-.248-1.973-12.722-1.973-12.722l-6.72-4.413-.526-10.175 14.387.438z" fill="#0b0b0b"/><path d="M162.997 96.813c-3.397-.033-4.067-.573-4.962-2.334-.893-1.754-1.121-5.041-.996-6.234.126-1.193.677-3.482 1.776-3.89 1.098-.408 1.977 6.404 1.977 6.404z" fill="#0f0f0f"/><path d="M162.974 96.815c2.185 0 3.714-4.8 3.672-7.573-.042-2.773.168-6.933-2.396-7.144-2.563-.21-5.294 1.513-5.042 7.606.252 6.093 3.178 7.111 3.766 7.111z" fill="#191919"/><path d="M160.174 87.015c.253 4.958 1.303 7.946 2.816 7.946s2.479-3.24 2.437-5.509c-.042-2.269-.168-5.379-1.219-5.253-1.05.127-4.076.169-4.034 2.816z" fill="#121212"/><path d="M175.966 65.235c2.884.155 4.357.17 4.76.186.403.015.528-.031.559-.636.03-.605 0-.869.232-.884.233-.016.326.015.357.698.03.682-.031 7.924-.062 8.606-.031.683.217.9.496 1.272.28.372.527.558.527 1.86 0 1.303-.062 7.878-.03 8.499.03.62.465.961 1.519 1.55 1.055.59 1.55 1.086 1.582 2.203.03 1.116-.07 1.474-.685 1.474-.614 0-4.298 0-5.57.044-1.272.044-2.544-.263-2.544-3.114 0-2.85.439-17.588.439-18.51 0-.92-.658-.92-1.14-.92-.483 0-.44-2.328-.44-2.328z" fill="#101010"/><path d="M176.712 66.532l-2.325.175-.386 4.735 1.746 1.077c-.003.088-.004.235-.007.33.165-.169.32-.293.424-.286.327.02 3.21.03 4.12.047.187.003.269-.112.27-.407.001-.25-.02-.515-.24-.514-1.262.006-3.352-.032-4.04-.07-.812-.043-.045-4.254.218-4.254.264 0 2.632.132 3.005.11.373-.022.527-.132.527-.33 0-.196 0-.394-.46-.482-.461-.087-2.04-.11-2.852-.131zm-1.035 13.248v.97c1.5.011 4.35.032 4.698.015.438-.022.657-.066.657-.44 0-.372-.24-.481-.767-.525-.48-.04-3.282-.01-4.588-.02z" fill="#b3b3b3"/><path d="M140.118 15.787c.466.062.948.529.948 1.26 0 .73-.637 1.306-1.213 1.182-.575-.125-.373-.234-.87-.327-.498-.093-.934-.093-1.213-.109-.28-.015-.53-.404-.545-.886-.015-.482.171-.7.591-.715.42-.016.7.046 1.182-.016s.373-.389 1.12-.389z" fill="#111"/><path d="M142.907 15.612c.466.062.948.528.948 1.26 0 .73-.637 1.306-1.213 1.181-.575-.124-.373-.233-.87-.326-.498-.094-.934-.094-1.213-.11-.28-.015-.53-.404-.545-.886-.015-.482.171-.7.591-.715.42-.016.7.047 1.182-.016.482-.062.373-.388 1.12-.388z" fill="#191919"/><path d="M125.972 15.798c-.063-3.483-.063-5.847-.218-6.687-.156-.84-.498-.808-1.555-.87-1.058-.063-4.043-.094-4.666-.063-.622.031-.622.093-.808.995-.187.902-.84 5.288-.933 5.972-.094.684 8.18.653 8.18.653z" fill="#3b3b3b"/><path d="M104.418 13.559c3.234.218 26.654 2.021 27.93 2.146 1.275.124 2.208 1.182 2.177 2.55-.031 1.369-2.364.84-2.364.84l-26.624-2.254z" fill="#b2ada9"/><path d="M95.025 13.499c2.111-.088 8.137-.044 9.5 0 1.364.044 2.816.527 2.816 2.639 0 2.111-7.478.615-7.478.615l-6.246-1.627z" fill="#272727"/><path d="M95.728 15.17c.044-2.111.088-4.31.044-4.882-.044-.572-.351-.792-1.187-.792-.836 0-7.39-.44-8.005-.484-.616-.044 4.178 5.41 4.178 5.41l2.243 2.112z" fill="#8c8c8c"/><path d="M173.005 44.783c.167-8.394.335-16.285.251-19.81-.083-3.526-.42-4.03-6.883-4.449-6.463-.42-39.871-3.022-43.816-3.274-3.946-.252-29.128-2.602-32.317-2.686-3.19-.084 0 48.77 0 48.77l15.277.587 67.152 1.26.084-6.548z" fill="#ac0e11"/><path d="M149.502 31.104l-6.582-.252-6.582-.252-.333.295c-.473.417-.84 1.01-1.14 1.843-.17.472-.979 3.831-2.35 9.753-1.15 4.968-2.107 9.143-2.128 9.277-.036.233.025.245 1.372.27l1.409.026 1.892-8.185c1.041-4.502 2.003-8.55 2.139-8.997.272-.9.679-1.627 1.141-2.042.302-.27.333-.271 5.715-.072l5.412.2.017-.932z" fill="#734691" paint-order="fill markers stroke"/><path d="M141.526 34.44c-.102-.049-.8 1.945-1.052 3.018-.311 1.331-.54 2.862-.959 6.441-.172 1.47-.367 2.974-.433 3.342-.138.77-.565 2.413-.707 2.72-.093.203-.133.484-.068.486.018.001.18-.295.36-.659.381-.771.825-2.21 1.027-3.328.078-.434.317-2.352.532-4.264.412-3.657.65-5.126 1.085-6.712.14-.513.241-.978.223-1.033-.002-.006-.005-.01-.008-.01zm-3.966 3.75c-.43-.019-.551.17-.296.456.142.16.15.26.479 5.625l.124 2.03.234.01.234.01.77-3.922c.423-2.156.77-3.963.771-4.014.001-.052-.082-.097-.184-.102-.184-.008-.19.012-.76 2.944l-.576 2.951-.1-1.592-.186-2.985-.087-1.393zm3.83.167c-.266-.011-.485.033-.486.098-.001.066.072.244.163.396.136.228.159.353.129.72-.02.244-.126 1.726-.236 3.292-.11 1.567-.214 3.01-.233 3.205l-.035.356.849.037.848.037.073-.394.072-.393-.57-.025-.57-.025.01-.461c.008-.406.334-5.224.433-6.386l.037-.435zm2.021.089c-.192-.008-.342.36-.352.858-.015.801.285 1.146.503.577.23-.598.144-1.422-.151-1.435zm-.232 2.212c-.41-.018-.507.162-.323.603l.124.295-.133 1.883c-.073 1.036-.154 2.15-.18 2.476l-.046.593.263.012c.227.01.268-.038.298-.344.072-.743.35-4.715.358-5.1.007-.388-.005-.402-.36-.418zm1.003.044c-.323-.014-.407.031-.41.22-.003.131.02.24.05.24.149.007.15.637.005 2.629-.082 1.127-.166 2.21-.186 2.405-.034.33-.017.356.24.367l.274.012.122-1.578c.128-1.665.283-2.508.54-2.95.131-.225.153-.225.23.003.076.229.07.453-.068 2.404l-.153 2.15.265.012.264.012.137-2.018c.189-2.793.19-3.108.006-3.536-.213-.496-.53-.373-.804.313l-.207.52.05-.594.051-.593zm2.7.16c-.253.002-.53.244-.714.648-.328.72-.517 2.97-.34 4.042.14.836.373 1.137.855 1.099.36-.029.438-.087.536-.4.063-.2.116-.422.118-.491 0-.07-.151-.095-.339-.056-.322.067-.35.044-.506-.422-.13-.388-.163-.63-.153-1.139l.012-.647.6.026.6.027.013-.724c.023-1.2-.12-1.736-.51-1.924a.387.387 0 00-.171-.039zm-.032.757c.122.027.217.295.208.75-.006.336-.031.363-.32.35-.173-.007-.314-.075-.312-.15 0-.076.06-.324.129-.55.09-.296.2-.42.295-.4z" fill="#dedddd" paint-order="fill markers stroke"/><path d="M121.139 38.45c.044-1.1.088-1.23 1.186-1.187 1.098.044 1.23.527 1.186 1.362-.044.834-.395 23.809-.483 24.424-.088.615-2.328 1.58-2.284-.132.043-1.713.351-23.37.395-24.468z" fill="#3c1110"/><path d="M117.531 31.332c0-.25.158-.273.391-.273s1.862.054 2.136.078c.274.023.399.18.399.374 0 .196-.16.208-.402.208-.24 0-1.975-.044-2.224-.067-.25-.023-.308-.094-.3-.32zM117.531 32.326c0-.25.158-.274.391-.274s1.862.055 2.136.079c.274.023.399.18.399.374 0 .196-.16.208-.402.208-.24 0-1.975-.044-2.224-.067-.25-.024-.308-.094-.3-.32zM117.531 33.43c0-.25.158-.273.391-.273s1.862.054 2.136.078c.274.023.399.18.399.375s-.16.207-.402.207c-.24 0-1.975-.043-2.224-.067-.25-.023-.308-.094-.3-.32zM117.554 34.534c0-.25.157-.273.39-.273s1.862.055 2.136.078c.274.024.399.18.399.375s-.16.208-.402.208c-.24 0-1.975-.044-2.224-.068-.25-.023-.308-.093-.3-.32zM117.487 35.55c0-.25.158-.273.39-.273.234 0 1.862.055 2.137.078.274.023.399.18.399.375s-.161.207-.402.207c-.241 0-1.975-.043-2.225-.067-.249-.023-.307-.093-.299-.32zM117.487 36.522c0-.25.158-.273.39-.273.234 0 1.862.054 2.137.078.274.023.399.18.399.375s-.161.207-.402.207c-.241 0-1.975-.043-2.225-.067-.249-.023-.307-.094-.299-.32zM117.487 37.626c0-.25.158-.273.39-.273.234 0 1.862.055 2.137.078.274.024.399.18.399.375s-.161.208-.402.208c-.241 0-1.975-.044-2.225-.068-.249-.023-.307-.093-.299-.32zM117.51 38.73c0-.25.157-.273.39-.273s1.861.055 2.136.078c.274.024.399.18.399.375 0 .196-.16.208-.402.208-.24 0-1.975-.044-2.224-.067-.25-.024-.308-.094-.3-.32zM117.487 39.813c0-.25.158-.273.39-.273.234 0 1.862.054 2.137.078.274.023.399.18.399.374 0 .196-.161.208-.402.208-.241 0-1.975-.044-2.225-.067-.249-.023-.307-.094-.299-.32zM117.443 40.829c0-.25.158-.273.39-.273.233 0 1.862.054 2.136.078.275.023.4.18.4.374 0 .196-.161.208-.402.208-.241 0-1.975-.044-2.225-.067-.249-.023-.307-.094-.299-.32zM117.51 41.889c0-.25.157-.273.39-.273s1.861.054 2.136.078c.274.023.399.18.399.375s-.16.207-.402.207c-.24 0-1.975-.043-2.224-.067-.25-.023-.308-.094-.3-.32zM117.465 42.905c0-.25.158-.273.39-.273.233 0 1.862.054 2.137.078.274.023.398.18.398.375s-.16.207-.401.207c-.241 0-1.975-.043-2.225-.067-.249-.023-.307-.094-.299-.32zM117.661 45.64c.004-.248.162-.273.395-.275.233-.002 1.86.036 2.135.056.274.02.396.174.393.367-.003.194-.163.207-.404.21a71.66 71.66 0 01-2.224-.044c-.25-.021-.306-.09-.295-.314zM117.646 46.733c.004-.247.161-.272.394-.274.233-.003 1.861.035 2.135.056.274.02.396.174.394.367-.003.193-.164.207-.405.21a71.66 71.66 0 01-2.224-.045c-.249-.02-.306-.09-.294-.314zM117.652 47.827c.004-.248.162-.272.394-.275.233-.002 1.861.036 2.135.056.274.02.397.174.394.368-.003.193-.163.207-.404.21a71.66 71.66 0 01-2.224-.045c-.25-.02-.307-.09-.295-.314zM117.571 48.834c.004-.248.162-.273.395-.275.232-.002 1.86.036 2.135.056.274.02.396.174.393.367-.003.194-.163.208-.404.21a71.66 71.66 0 01-2.224-.044c-.25-.02-.306-.09-.295-.314zM117.557 49.796c.004-.247.162-.272.395-.274.233-.003 1.86.035 2.135.056.274.02.396.174.393.367-.003.193-.163.207-.404.21a71.66 71.66 0 01-2.224-.045c-.249-.02-.306-.09-.295-.314zM117.542 50.89c.004-.247.161-.272.394-.275.233-.002 1.861.036 2.135.056.274.02.397.174.394.368-.003.193-.164.207-.405.21a71.66 71.66 0 01-2.224-.045c-.249-.02-.306-.09-.294-.314zM117.548 51.984c.004-.248.162-.273.395-.275.232-.002 1.86.036 2.135.056.273.02.396.174.393.367-.003.194-.163.207-.404.21a71.66 71.66 0 01-2.224-.044c-.25-.021-.307-.09-.295-.314zM117.51 53.056c.005-.248.162-.273.395-.275.233-.002 1.861.036 2.135.056.274.02.396.174.394.367-.003.194-.164.208-.405.21a71.66 71.66 0 01-2.224-.044c-.249-.021-.306-.09-.294-.314zM117.452 54.062c.004-.247.162-.272.394-.274.233-.003 1.861.035 2.135.056.274.02.397.174.394.367-.003.193-.163.207-.405.21a71.66 71.66 0 01-2.223-.045c-.25-.02-.307-.09-.295-.314zM117.503 55.112c.004-.248.162-.273.395-.275.232-.002 1.86.036 2.135.056.274.02.396.174.393.367-.003.194-.163.208-.404.21a71.66 71.66 0 01-2.224-.044c-.25-.02-.306-.09-.295-.314zM117.444 56.118c.004-.247.162-.272.395-.274.233-.002 1.861.035 2.135.056.274.02.396.174.394.367-.003.193-.164.207-.405.21a71.66 71.66 0 01-2.224-.045c-.249-.02-.306-.09-.295-.314zM117.463 57.016c.004-.247.162-.272.394-.274.233-.003 1.861.035 2.135.056.274.02.397.174.394.367-.003.193-.164.207-.405.21a71.66 71.66 0 01-2.224-.045c-.249-.02-.306-.09-.294-.314zM117.645 44.608c.004-.247.162-.272.394-.274.233-.003 1.861.035 2.135.056.274.02.397.173.394.367-.003.193-.164.207-.405.21a71.66 71.66 0 01-2.223-.045c-.25-.02-.307-.09-.295-.314zM112.534 31.02c0-.25.158-.274.39-.274.233 0 1.862.055 2.136.078.275.024.4.18.4.375s-.161.208-.402.208c-.241 0-1.976-.044-2.225-.067-.25-.024-.307-.094-.299-.32zM112.534 32.013c0-.25.158-.273.39-.273.233 0 1.862.055 2.136.078.275.024.4.18.4.375s-.161.208-.402.208c-.241 0-1.976-.044-2.225-.067-.25-.024-.307-.094-.299-.32zM112.534 33.118c0-.25.158-.274.39-.274.233 0 1.862.055 2.136.078.275.024.4.18.4.375 0 .196-.161.208-.402.208-.241 0-1.976-.044-2.225-.067-.25-.024-.307-.094-.299-.32zM112.556 34.222c0-.25.158-.273.39-.273.233 0 1.862.054 2.136.078.275.023.4.18.4.375s-.161.207-.402.207c-.241 0-1.975-.043-2.225-.067-.25-.023-.307-.094-.299-.32zM112.49 35.238c0-.25.158-.273.39-.273.233 0 1.862.054 2.136.078.274.023.399.18.399.375s-.16.207-.401.207c-.241 0-1.976-.043-2.225-.067-.25-.023-.308-.094-.3-.32zM112.49 36.21c0-.25.158-.274.39-.274.233 0 1.862.055 2.136.079.274.023.399.18.399.374 0 .196-.16.208-.401.208-.241 0-1.976-.044-2.225-.067-.25-.024-.308-.094-.3-.32zM112.49 37.314c0-.25.158-.273.39-.273.233 0 1.862.054 2.136.078.274.023.399.18.399.375s-.16.207-.401.207c-.241 0-1.976-.043-2.225-.067-.25-.023-.308-.094-.3-.32zM112.512 38.418c0-.25.158-.273.39-.273.233 0 1.862.055 2.136.078.274.024.4.18.4.375s-.161.208-.402.208c-.241 0-1.976-.044-2.225-.068-.25-.023-.307-.093-.3-.32zM112.49 39.5c0-.25.158-.273.39-.273.233 0 1.862.055 2.136.078.274.024.399.18.399.375s-.16.208-.401.208c-.241 0-1.976-.044-2.225-.067-.25-.024-.308-.094-.3-.32zM112.446 40.516c0-.25.158-.273.39-.273.233 0 1.862.055 2.136.078.274.024.399.18.399.375s-.16.208-.402.208c-.24 0-1.975-.044-2.224-.067-.25-.024-.308-.094-.3-.32zM112.512 41.577c0-.25.158-.274.39-.274.233 0 1.862.055 2.136.078.274.024.4.18.4.375s-.161.208-.402.208c-.241 0-1.976-.044-2.225-.067-.25-.024-.307-.094-.3-.32zM112.468 42.593c0-.25.158-.274.39-.274.233 0 1.862.055 2.136.078.274.024.399.18.399.375s-.16.208-.402.208c-.24 0-1.975-.044-2.224-.067-.25-.024-.308-.094-.3-.32zM112.57 45.297c.004-.248.162-.27.395-.27.232 0 1.86.054 2.134.077.274.023.397.178.394.371-.003.194-.164.206-.405.206a71.63 71.63 0 01-2.223-.067c-.25-.023-.306-.093-.295-.317zM112.555 46.39c.003-.247.161-.27.394-.27s1.86.055 2.135.078c.274.023.396.178.393.371-.003.193-.163.206-.404.206-.241 0-1.975-.044-2.224-.067-.249-.023-.306-.093-.295-.317zM112.56 47.484c.005-.247.163-.27.395-.27.233 0 1.861.054 2.135.078.274.023.396.178.394.37-.003.194-.164.206-.405.206-.24 0-1.975-.043-2.223-.066-.25-.024-.307-.093-.295-.318zM112.48 48.49c.004-.247.162-.27.395-.27.232 0 1.86.055 2.134.078.274.023.397.178.394.371-.003.193-.164.206-.405.206a71.63 71.63 0 01-2.223-.067c-.25-.023-.306-.093-.295-.317zM112.466 49.453c.004-.247.162-.27.395-.27s1.86.054 2.135.077c.273.024.396.178.393.372-.003.193-.163.205-.404.205a71.63 71.63 0 01-2.224-.067c-.249-.023-.306-.093-.295-.317zM112.45 50.547c.005-.248.162-.27.395-.27s1.86.054 2.135.077c.274.023.396.178.393.371-.003.194-.163.206-.404.206-.241 0-1.975-.044-2.224-.067-.249-.023-.306-.093-.294-.317zM112.457 51.64c.004-.247.162-.27.395-.27.232 0 1.86.055 2.134.078.274.023.397.178.394.371-.003.194-.164.206-.405.206-.24 0-1.974-.044-2.223-.067-.25-.023-.306-.093-.295-.317zM112.42 52.713c.004-.248.161-.271.394-.271s1.86.054 2.135.078c.274.023.396.178.393.371-.003.193-.163.206-.404.206-.241 0-1.975-.044-2.224-.067-.249-.024-.306-.093-.294-.317zM112.361 53.719c.004-.248.162-.27.394-.27.233 0 1.861.054 2.135.077.274.023.396.178.394.371-.003.194-.164.206-.405.206a71.63 71.63 0 01-2.223-.067c-.25-.023-.307-.093-.295-.317zM112.412 54.769c.004-.248.162-.27.395-.27.232 0 1.86.054 2.134.077.274.023.397.178.394.371-.003.194-.164.206-.405.206-.24 0-1.974-.044-2.223-.067-.25-.023-.306-.093-.295-.317zM112.354 55.775c.004-.247.161-.27.394-.27s1.86.054 2.135.077c.274.023.396.178.393.372-.003.193-.163.205-.404.205-.241 0-1.975-.043-2.224-.067-.249-.023-.306-.093-.294-.317zM112.372 56.673c.004-.247.162-.27.394-.27.233 0 1.861.054 2.135.077.274.024.396.178.394.372-.003.193-.164.205-.405.205-.24 0-1.974-.043-2.223-.067-.25-.023-.307-.093-.295-.317zM112.616 44.267c.004-.247.162-.27.395-.27.232 0 1.86.054 2.134.077.274.024.397.178.394.372-.003.193-.164.205-.405.205-.24 0-1.974-.043-2.223-.067-.25-.023-.306-.093-.295-.317zM125.59 38.828c0-.25.158-.273.39-.273.233 0 1.862.054 2.136.078.274.023.4.18.4.375s-.161.207-.402.207c-.241 0-1.976-.043-2.225-.067-.25-.023-.307-.094-.3-.32zM125.59 39.822c0-.25.158-.273.39-.273.233 0 1.862.054 2.136.078.274.023.4.18.4.375s-.161.207-.402.207c-.241 0-1.976-.043-2.225-.067-.25-.023-.307-.094-.3-.32zM125.59 40.926c0-.25.158-.273.39-.273.233 0 1.862.055 2.136.078s.4.18.4.375-.161.207-.402.207c-.241 0-1.976-.043-2.225-.067-.25-.023-.307-.093-.3-.32zM125.612 42.03c0-.25.158-.273.39-.273.233 0 1.862.055 2.136.078.275.024.4.18.4.375s-.161.208-.402.208c-.241 0-1.976-.044-2.225-.067-.25-.024-.307-.094-.299-.32zM125.546 43.047c0-.25.158-.274.39-.274.233 0 1.862.055 2.136.078.274.024.399.18.399.375s-.16.208-.402.208c-.24 0-1.975-.044-2.224-.067-.25-.024-.308-.094-.3-.32zM125.546 44.018c0-.25.158-.273.39-.273.233 0 1.862.055 2.136.078s.399.18.399.375-.16.207-.402.207c-.24 0-1.975-.043-2.224-.067-.25-.023-.308-.093-.3-.32zM125.546 45.123c0-.25.158-.274.39-.274.233 0 1.862.055 2.136.078.274.024.399.18.399.375s-.16.208-.402.208c-.24 0-1.975-.044-2.224-.067-.25-.024-.308-.094-.3-.32zM125.568 46.227c0-.25.158-.273.39-.273.233 0 1.862.054 2.136.078.274.023.4.18.4.375s-.161.207-.402.207c-.241 0-1.976-.044-2.225-.067-.25-.023-.308-.094-.3-.32zM125.546 47.31c0-.25.158-.274.39-.274.233 0 1.862.055 2.136.078s.399.18.399.375-.16.207-.402.207c-.24 0-1.975-.043-2.224-.067-.25-.023-.308-.093-.3-.32zM125.502 48.325c0-.25.157-.273.39-.273s1.862.054 2.136.078c.274.023.399.18.399.375s-.16.207-.402.207c-.24 0-1.975-.043-2.224-.067-.25-.023-.308-.094-.3-.32zM125.568 49.385c0-.25.158-.273.39-.273.233 0 1.862.055 2.136.078s.4.18.4.375-.161.207-.402.207c-.241 0-1.976-.043-2.225-.067-.25-.023-.308-.093-.3-.32zM125.524 50.401c0-.25.158-.273.39-.273.233 0 1.862.055 2.136.078s.399.18.399.375-.16.207-.402.207c-.24 0-1.975-.043-2.224-.067-.25-.023-.308-.093-.3-.32zM108.224 30.77c0-.25.158-.274.39-.274.233 0 1.862.055 2.136.078.274.024.399.18.399.375s-.16.208-.402.208c-.24 0-1.975-.044-2.224-.067-.25-.024-.308-.094-.3-.32zM108.224 31.764c0-.25.158-.274.39-.274.233 0 1.862.055 2.136.078.274.024.399.18.399.375s-.16.208-.402.208c-.24 0-1.975-.044-2.224-.067-.25-.024-.308-.094-.3-.32zM108.224 32.868c0-.25.158-.273.39-.273.233 0 1.862.054 2.136.078.274.023.399.18.399.374 0 .196-.16.208-.402.208-.24 0-1.975-.044-2.224-.067-.25-.023-.308-.094-.3-.32zM108.246 33.972c0-.25.158-.273.39-.273.233 0 1.862.055 2.136.078s.399.18.399.375-.16.207-.402.207c-.24 0-1.975-.043-2.224-.067-.25-.023-.308-.093-.3-.32zM108.18 34.988c0-.25.157-.273.39-.273s1.862.054 2.136.078c.274.023.399.18.399.375s-.16.207-.402.207c-.24 0-1.975-.043-2.224-.067-.25-.023-.308-.094-.3-.32zM108.18 35.96c0-.25.157-.273.39-.273s1.862.054 2.136.078c.274.023.399.18.399.374 0 .196-.16.208-.402.208-.24 0-1.975-.044-2.224-.067-.25-.023-.308-.094-.3-.32zM108.18 37.064c0-.25.157-.273.39-.273s1.862.055 2.136.078.399.18.399.375-.16.207-.402.207c-.24 0-1.975-.043-2.224-.067-.25-.023-.308-.093-.3-.32zM108.202 38.168c0-.25.157-.273.39-.273s1.862.055 2.136.078c.274.024.399.18.399.375s-.16.208-.402.208c-.24 0-1.975-.044-2.224-.067-.25-.024-.308-.094-.3-.32zM108.18 39.25c0-.25.157-.273.39-.273s1.862.055 2.136.078c.274.024.399.18.399.375s-.16.208-.402.208c-.24 0-1.975-.044-2.224-.067-.25-.024-.308-.094-.3-.32zM108.135 40.267c0-.25.158-.274.39-.274.234 0 1.862.055 2.137.078.274.024.399.18.399.375s-.161.208-.402.208c-.241 0-1.975-.044-2.225-.067-.249-.024-.307-.094-.299-.32zM108.202 41.327c0-.25.157-.274.39-.274s1.862.055 2.136.079c.274.023.399.18.399.374 0 .196-.16.208-.402.208-.24 0-1.975-.044-2.224-.067-.25-.024-.308-.094-.3-.32zM108.157 42.343c0-.25.158-.274.391-.274s1.862.055 2.136.078c.274.024.399.18.399.375 0 .196-.16.208-.402.208-.24 0-1.975-.044-2.224-.067-.25-.024-.308-.094-.3-.32zM108.091 45.048c0-.248.158-.27.39-.267.233.003 1.862.074 2.136.1.275.026.4.182.4.376 0 .193-.161.204-.402.201a71.64 71.64 0 01-2.225-.09c-.249-.026-.307-.096-.299-.32zM108.091 46.142c0-.248.158-.27.39-.267.233.003 1.862.074 2.136.1.275.026.4.182.4.376 0 .193-.161.203-.402.2a71.95 71.95 0 01-2.225-.09c-.249-.025-.307-.095-.299-.32zM108.113 47.236c0-.248.158-.27.39-.267.233.003 1.862.074 2.137.1.274.026.398.182.398.376 0 .193-.16.203-.401.2a71.64 71.64 0 01-2.225-.09c-.249-.025-.307-.095-.299-.32zM108.047 48.241c0-.247.158-.269.39-.266a70.53 70.53 0 012.136.1c.275.026.4.182.4.375s-.161.204-.402.201a71.641 71.641 0 01-2.225-.09c-.25-.025-.307-.096-.3-.32zM108.047 49.204c0-.248.158-.27.39-.267a70.53 70.53 0 012.136.1c.275.026.4.182.4.376 0 .193-.161.204-.402.201a71.641 71.641 0 01-2.225-.09c-.25-.026-.307-.096-.3-.32zM108.047 50.298c0-.248.158-.27.39-.267a70.53 70.53 0 012.136.1c.275.026.4.182.4.375 0 .194-.161.204-.402.202a71.641 71.641 0 01-2.225-.09c-.25-.026-.307-.096-.3-.32zM108.069 51.391c0-.247.158-.269.39-.266a70.53 70.53 0 012.136.1c.275.026.4.182.4.375 0 .194-.161.204-.402.202a71.64 71.64 0 01-2.225-.09c-.25-.026-.307-.096-.299-.32zM108.047 52.463c0-.247.158-.269.39-.266a70.53 70.53 0 012.136.1c.275.026.4.182.4.375s-.161.204-.402.201a71.672 71.672 0 01-2.225-.09c-.25-.025-.307-.096-.3-.32zM108.003 53.469c0-.248.158-.27.39-.267.233.003 1.862.074 2.136.1.274.026.399.182.399.376 0 .193-.16.204-.401.201a71.64 71.64 0 01-2.225-.09c-.25-.026-.308-.096-.3-.32zM108.069 54.52c0-.248.158-.27.39-.267a70.53 70.53 0 012.136.1c.275.026.4.182.4.375 0 .194-.161.204-.402.202a71.67 71.67 0 01-2.225-.09c-.25-.026-.307-.096-.299-.32zM108.025 55.525c0-.247.158-.269.39-.266a70.53 70.53 0 012.136.1c.274.026.4.182.4.375 0 .194-.161.204-.402.202a71.64 71.64 0 01-2.225-.09c-.25-.026-.307-.096-.3-.32zM108.056 56.424c0-.248.158-.27.39-.267.233.003 1.862.074 2.136.1.275.026.4.182.4.376 0 .193-.161.204-.402.201a71.64 71.64 0 01-2.225-.09c-.249-.026-.307-.096-.299-.32zM108.029 44.046c0-.248.158-.27.39-.267a70.53 70.53 0 012.136.1c.274.026.399.182.399.376 0 .193-.16.204-.402.201a71.64 71.64 0 01-2.224-.09c-.25-.026-.308-.096-.3-.32z" fill="#821b18"/><path d="M91.904 24.827c1.593.094 12.806.937 13.493 1.031.687.094 1 .219 1 1.124 0 .906-.468 30.826-.49 31.29-.022.463.199.662.42.662.22 0 .353-.11.375-.596.022-.486.442-30.037.486-31.053.044-1.016.22-1.237 1.193-1.237.971 0 19.259 1.281 20.054 1.414.795.132.971.485 1.016 1.413.044.928-.53 29.065-.486 29.816.044.751.044.972.353.972.31 0 .486-.133.486-.574 0-.442.486-29.86.486-30.567 0-.707.22-.751.84-.751.618 0 22.792 1.37 24.426 1.502 1.635.132 2.827.486 3.18 1.546.354 1.06 1.06 2.208.266 1.192-.795-1.016-1.237-1.81-4.108-1.987-2.872-.177-22.44-1.37-23.19-1.414-.752-.044-.752.442-.84 1.193-.088.75-.623 29.351-.623 29.837 0 .486-.216.509-.835.509-.618 0-.905 0-.95-.663-.043-.662.465-29.617.465-30.39 0-.773-.177-.972-1.06-1.06-.884-.088-18.994-1.347-19.525-1.347-.53 0-.684.176-.728.86-.045.686-.42 29.972-.464 30.877-.044.906-.31.95-.906.928-.596-.022-.883-.265-.883-1.038s.464-29.86.464-30.678c0-.817-.11-1.104-1.016-1.17-.906-.067-12.712-.922-13.118-.922-.406 0 .219-.719.219-.719z" fill="#7d1e19"/><path d="M161.078 29.241c2.385.16 2.738.187 2.694 1.378-.044 1.191-.486 29.136-.53 30.106-.044.97-.088 1.19-2.032 1.164-1.943-.025-2.96.07-2.96-1.254 0-1.325.177-28.97.222-30.118.044-1.147.31-1.429 2.606-1.276z" fill="#3c1110"/><path d="M89.239 42.678l.028.723c.077-.01.16-.017.253-.02.683-.03 5.728.177 6.53.237.8.059 1.038.356 1.038 1.84 0 1.442-.458 16.26-.481 18.12l.6.023c.017-.248.033-.5.045-.772.059-1.365.519-16.273.489-17.698-.03-1.424-.386-2.137-1.84-2.196-1.393-.057-5.718-.194-6.662-.257zM105.213 43.234c-1.343 0-1.28.136-1.385 1.332-.101 1.154-.256 17.606-.286 19.279l.734.028c.01-1.67.162-17.905.22-18.91.058-1.038.414-1.098 1.394-1.068.98.03 5.555.208 6.771.297 1.217.089 1.617.286 1.646 1.325.029.987.095 15.943.152 18.572l.613.011c-.027-2.236-.04-17.69-.04-18.484 0-.831.03-1.098.624-1.128.594-.03 10.859.535 11.63.535.772 0 .772.267.742.979-.029.695-.039 16.508-.011 18.341l.709.013c-.002-1.75-.04-17.958.018-18.506.06-.564.207-.713.682-.743.475-.03 6.38.335 7.3.424.92.089.832.267.832 1.157 0 .872-.129 15.489-.162 17.83l.81.016c.038-3.391.124-17.1.151-17.847.03-.831.03-.98.534-.98s5.012.293 6.14.352c1.128.06.95.623.95 1.187 0 .547-.176 14.959-.187 17.43l.626.012.155-17.41c.007-.832.09-1.158.653-1.128.564.03 5.668.277 6.38.336.712.06.772.326.772 1.009 0 .59-.142 12.831-.142 17.34l.913.016c-.015-4.105-.005-16.088.02-16.974.03-1.038.179-1.276.743-1.306.563-.03 2.996.076 3.946.194.95.119 1.04.95 1.038 1.662l-.037 16.531.708.014c-.013-5.303-.007-15.717.06-16.68.089-1.277.416-1.366.89-1.366.475 0 2.129.058 3.049.117.92.06 1.395.244 1.395 1.105 0 .86.032 10.814.002 12.832-.008.51-.028 2.503-.048 4.092l.78.015c.088-7.511.16-15.658.144-16.53-.03-1.602-.238-2.066-1.276-2.155-1.04-.089-60.01-3.168-61.352-3.168z" fill="#444" fill-opacity=".536"/><path d="M91.717 61.99c2.79.045 71.593 1.68 72.19 1.7.599.021-1.71 1.962-1.71 1.962l-70.687-2z" fill="#dfdfdf"/><path d="M115.653 62.83c-.504 0-.567-.147-.546-.693.02-.545.189-18.76.294-19.957.105-1.196.042-1.332 1.385-1.332s60.313 3.08 61.352 3.17c1.038.088 1.246.552 1.276 2.154.03 1.603-.238 28.283-.356 29.084-.119.801-.534.95-.89.98-.179.014-1.01-.013-1.261-.02-.22-.007-.233-.11-.231-.391 0-.274-.014-.416.223-.416.119 0 1.098.04 1.225-.053s.224-.263.224-.575c0-.623.16-14.168.19-16.186.03-2.018-.002-11.972-.002-12.832 0-.861-.475-1.046-1.395-1.105-.92-.06-2.574-.117-3.049-.117-.474 0-.8.089-.89 1.365-.089 1.276-.072 19.195-.042 19.759.03.564-.82.077-.82-.517 0-.593.089-.267.09-.712l.042-18.394c.002-.712-.09-1.543-1.04-1.662-.949-.119-3.381-.223-3.945-.194-.564.03-.713.267-.742 1.306-.03 1.039-.042 18.078-.013 18.79.03.713-.85 1.536-.91-.333-.06-1.87.13-18.157.13-18.84 0-.682-.059-.949-.77-1.008-.713-.06-5.817-.307-6.38-.337-.565-.03-.646.297-.654 1.128l-.167 18.743c-.01.95-.617.818-.617-.933 0-1.75.19-17.277.19-17.84 0-.565.178-1.129-.95-1.188-1.127-.06-5.635-.352-6.14-.352-.504 0-.504.148-.534.98-.03.83-.136 18.447-.166 19.13-.03.683-.829.932-.799-.908.03-1.84.166-17.33.166-18.221 0-.89.089-1.069-.831-1.158-.92-.089-6.826-.453-7.3-.423-.476.03-.624.178-.683.742-.06.564-.018 18.11-.018 19.03 0 .92-.678.933-.708-.225-.03-1.157-.02-17.94.01-18.653.03-.712.03-.979-.742-.979-.771 0-11.036-.564-11.63-.534-.594.03-.623.297-.623 1.128 0 .83.012 18.077.042 19.056.03.98-.548 1.206-.607-.129-.06-1.336-.13-17.988-.16-19.027-.03-1.038-.43-1.236-1.646-1.325-1.217-.089-5.793-.267-6.772-.297-.98-.03-1.335.03-1.395 1.069-.06 1.038-.225 18.878-.225 19.53 0 .654-.19.722-.19.722zM15.306 32.024s-1.61 0-2.72.036c-1.11.035-1.253 1.073-1.253 2.147l-.005.435c-1.675-.054-2.357-.028-2.431.936a69.78 69.78 0 00-.072 2.303c-2.575-.014-5.05-.007-5.58.048-1.037.107-1.287.429-1.359 1.61-.071 1.18-.358 34.711-.286 35.857.072 1.145.5 1.61 1.825 1.645 1.324.036 1.074-.09 1.163-.107.09-.018.268-.537-.448-.555-.715-.017-1.037 0-1.27-.018-.232-.018-.662-.107-.68-1.234-.018-1.127.197-26.785.233-28.073.036-1.289 0-6.835.072-7.48.071-.644.429-1.037 1.574-1.073.48-.015 2.552-.002 4.743.017-.047 2.368-.083 5.303-.067 5.898.025.935.531 2.484 1.594 2.52.36.011.573.015.734.013-.062 5.445-.122 13.102-.097 13.81.035 1.038.536.358.536-.322 0-.508.26-14.481.421-21.886 1.772.022 3.29.045 3.408.058.322.035-.465-.645-.465-.645a164.61 164.61 0 00-2.928-.054c.047-2.1.085-3.636.101-3.846.072-.93.43-1.11.93-1.11.501 0 .537 0 2.076.036zm-4.775 3.179c.3.006.547.015.789.025-.012.737-.03 1.646-.055 2.676-.625-.007-1.25-.014-1.91-.018.025-.798.05-1.445.073-1.645.076-.686.152-1.017.658-1.037.126-.005.281-.005.445-.002zm-1.193 3.32c.69.006 1.247.012 1.91.02-.03 1.23-.065 2.433-.093 3.143-.022.515-.048 2.398-.075 4.667-.66.04-1.758.06-1.804-1.908-.032-1.388.01-3.987.062-5.923z" fill="#d2d2d2"/><path d="M144.633 15.783c.466.062.949.528.949 1.26 0 .73-.638 1.306-1.213 1.181-.576-.124-.374-.233-.871-.326-.498-.094-.933-.094-1.213-.11-.28-.015-.529-.404-.545-.886-.015-.482.171-.7.591-.715.42-.016.7.047 1.182-.016.482-.062.373-.388 1.12-.388z" fill="#1f1f1f"/><path d="M141.657 16.7c-1.074-.02-2.908-.002-3.297-.002-.389 0-.513-.031-.498.17.016.203-.03.488.436.498 1.137.027 1.265.096 1.125.579-.14.482-.249 1.088-.264 1.228-.016.14.7.342.762.047.062-.296.217-1.051.326-1.322.19-.473.897-.42 1.41-.42.513 0 .5-.171.513-.358.022-.323.047-.408-.513-.42z" fill="#404040"/><path d="M153.268 19.82c.395-.702.812-1.338 3.575-1.272 2.763.065 3.728.394 4.013 1.557.285 1.162-.197.987-.329.636-.131-.351-.175-1.689-3.377-1.623-3.202.066-3.158.636-3.333 1.36-.176.723-.549-.658-.549-.658z" fill="#121212"/><path d="M149.102 19.49c.394-.701.81-1.337 3.574-1.271 2.763.065 3.728.394 4.013 1.557.286 1.162-.197.987-.328.636-.132-.351-.176-1.689-3.378-1.623-3.202.066-3.158.636-3.333 1.36-.176.723-.548-.658-.548-.658z" fill="#1b1b1b"/><path d="M90.24 14.564c-.4-.01-.7.75-.918 2.084.246.176.606.301 1.086.35 2.387.248 70.269 5.717 82.776 6.64-.237-2.327-1.276-2.755-6.81-3.114-6.464-.42-39.872-3.022-43.818-3.274-3.945-.252-29.127-2.602-32.316-2.686z" fill="#7e7e7e"/><path d="M92.258 17.556c1.193.056 5.013.419 5.566.524.552.106.552.194.574.768.022.574 0 1.37-.044 1.745-.045.376-.2.422-.818.383-.618-.038-5.123-.506-5.543-.612-.42-.107-.552.446.044.53.596.082 5.058.528 5.544.568.486.04.706.17.706.722 0 .552-.022 1.303-.044 1.723-.022.42-.243.555-.795.537-.552-.017-5.278-.372-5.676-.412-.398-.04-.707-.855-.707-.855v-3.512z" fill="#3c1110"/><path d="M91.97 36.987c-.104 8.94-.495 25.685-.57 26.594-.076.91-19.246-1.742-19.246-1.742l.606-32.05.758-15.533L57.455 3.118l-2.5-2.652S52.3.006 54.067.032c1.768.027 6.08.188 8.063.295 1.982.107 17.385 2.009 18.94 2.304 1.553.294 1.848.482 2.732 1.446.884.965 7.768 8.117 8.224 8.84.455.724.509 1.367.509 2.304 0 .938-.543 19.85-.566 21.766z" fill="#dd8600"/><path d="M54.068.032c-1.768-.027.886.434.886.434l2.501 2.652 11.307 7.84c.085.02.162.03.227.03 2.237 0 14.6 1.436 23.285 2.408a3.16 3.16 0 00-.247-.479c-.456-.723-7.34-7.875-8.224-8.84-.884-.964-1.18-1.152-2.733-1.447C79.516 2.336 64.113.434 62.13.327 60.149.22 55.837.059 54.069.032z" fill="#bababa"/><path d="M73.132 61.645c.016-2.448.36-20.832.406-23.498.047-2.666.327-21.281.28-23.526-.046-2.245-.233-3.134-2.01-4.397C70.03 8.962 59.505 1.8 58.248.94 56.992.08 55.14.08 53.553.013c-1.588-.066-25.4.132-26.59.265-1.191.132-1.853.397-3.044 1.918a2230.36 2230.36 0 00-6.813 8.797c-.86 1.125-.957 1.897-.7 2.131.257.234.538.328.538.982 0 .655-.168 11.44-.168 12.3 0 .86 14.75-2.514 14.75-2.514l27.848-.066 1.19 23.15.265 14.884z" fill="#e88d00"/><path d="M52.76.006l4.357 7.617c4.206.412 9.42.964 12.787 1.284-3.546-2.443-10.62-7.26-11.655-7.968C56.992.08 55.14.08 53.553.013 53.45.01 53.032.01 52.76.006zM27.88.24c-.455.013-.809.026-.918.038-1.19.132-1.852.397-3.043 1.918-1.19 1.521-5.953 7.673-6.813 8.797-.86 1.125-.958 1.898-.7 2.131.017.016.033.028.05.042 3.54-2.396 12.06-7.313 12.383-7.917.22-.413-.466-3.173-.959-5.009z" fill="#363636" fill-opacity=".886"/><path d="M18.219 24.228c.07 1.95.343 2.478 1.457 2.543 1.115.065 4.375.165 5.438.102 1.062-.064 1.94-.946 1.959-2.623.017-1.677.016-6.916-.07-8.252-.085-1.337-.277-2.43-1.618-2.54-1.342-.111-4.68-.113-5.612-.003-.932.11-1.593.699-1.637 2.021-.044 1.323.033 7.56.083 8.752z" fill="#0b0a09"/><path d="M18.914 23.735c.064 1.692.346 1.994 1.187 2.08.841.084 3.712.109 4.582.064.87-.044 1.653-.297 1.702-2.006.049-1.71-.002-6.432-.05-7.56-.047-1.127-.261-1.866-1.296-1.964-1.035-.099-3.696-.094-4.58-.033-.886.06-1.393.39-1.459 1.503-.065 1.113-.129 6.933-.085 7.916z" fill="#2e2e2e"/><path d="M72.554 40.7l-.4 21.139s19.17 2.651 19.245 1.742c.064-.761.347-12.6.499-21.69z" fill="#a50007"/><path d="M117.255 64.305c.044-1.143.03-1.766.03-2.166 0-.401-.015-.609-.831-.624-.817-.014-.965.134-.98.653-.015.52-.03 1.87-.03 2.093 0 .222 1.648 1.231 1.648 1.231l41.474.816s.044-.52.074-.905c.03-.386.06-2.24.044-2.522-.015-.282-.37-.386-1.38-.401-1.009-.015-1.246.074-1.246 1.053 0 .98-.03 1.633-.074 1.885-.045.252-4.675-.045-5.327-.134-.653-.089-.609-.207-.594-1.023.015-.817.03-1.01.03-1.306 0-.297.06-.564-1.039-.594-1.098-.03-1.335.149-1.38.772-.044.623-.074 1.573-.119 1.855-.044.282-5.609.222-6.232.103-.623-.118-.668-.474-.668-.994s-.03-1.142-.03-1.454c0-.311.045-.682-1.186-.712-1.232-.03-1.484.133-1.5.846-.014.712-.029 1.884-.148 2.092-.118.208-9.912-.104-10.401-.163-.49-.06-.564-.312-.564-.89 0-.58.015-1.366 0-1.663-.015-.296-.104-.4-1.202-.4-1.098 0-1.425.044-1.454.623-.03.579-.045 2.048-.371 2.092-.327.045-6.544-.163-6.544-.163z" fill="#2a2a2a"/><path d="M102.44 32.63c0-.354.154-.376.485-.354.332.022.751.663.796 1.613.044.95-.133 18.773-.2 19.833-.066 1.06-.684 1.723-.993 1.81-.31.09-.464-.11-.486-.397-.022-.287 0-.287.31-.309.308-.022.551-.486.595-1.347.045-.861.243-17.47.243-18.508 0-1.038-.132-1.347-.441-1.546-.31-.199-.287-.31-.31-.795z" fill="#bd1516"/><path d="M92.464 62.63c.85-.052 1.312-.084 1.364-1.542.053-1.458.234-9.099.264-11.948.03-2.85.356-11.723.534-13.385.178-1.661.237-2.018 1.988-1.958 1.751.06 1.9.297 2.315 1.454.416 1.157 1.692 4.095 1.93 5.015.237.92.355 1.069.296 3.235-.06 2.167-.297 16.65-.386 17.361-.089.713-.445 1.366-.95 1.366-.504 0-.771.326-.385.385.385.06 1.068-.089 1.335-.385.267-.297.445-.742.505-2.493.059-1.751.474-17.243.504-17.925.03-.683.267-.831.95-.861.682-.03 5.727.178 6.529.237.801.06 1.038.357 1.038 1.84 0 1.484-.445 16.946-.445 18.074 0 1.128-.356 1.454-.712 1.484-.356.03-.683.356-.326.415.356.06.92-.03 1.216-.267.297-.237.416-1.365.475-2.73.06-1.365.475-15.878.445-17.302-.03-1.425-.385-2.137-1.84-2.196-1.454-.06-6.202-.208-6.855-.267-.653-.06-.89-.327-1.365-1.484-.475-1.158-1.543-4.244-1.9-4.808-.356-.564-.474-.742-2.166-.83-1.692-.09-2.493-.09-2.671 1.097-.178 1.187-.742 19.498-.801 22.644-.06 3.146.03 4.303-.208 4.837-.237.535-.653.594-.89.624-.238.03.212.313.212.313z" fill="#d2d2d2"/><path d="M107.966 63.993c.03-.712.089-1.41.104-1.617.014-.208.118-.386.578-.356.46.03.698.015.683.935-.015.92.015 1.84-.193 2.003-.208.163-15.417.252-15.417.252s-2.152-.786-2.226-1.29c-.074-.505-.43-2.048-.045-2.078.953.033 1.077-.104 1.077.37 0 .476-.015 1.218-.015 1.336 0 .119 6.165.505 6.165.267 0-.237.015-1.469.015-1.662 0-.192.089-.267.623-.267s.593.134.623.535c.03.4.03 1.083.03 1.201 0 .12 7.998.371 7.998.371z" fill="#2a2a2a"/><path d="M100.461 66.922c.19 1.303.516 1.982.734 2.444.217.462.19 1.33.217 1.874.027.543-.027.896.815.95.841.055 1.195-.108 1.276-.733.082-.624 1.005-2.01 1.575-2.471.57-.462 2.173-1.195 2.254-2.146.082-.95-6.87.082-6.87.082z" fill="#191919"/><path d="M100.394 65.186c.038 1.767.077 1.69.077 1.96 0 .268.23.306 1.229.345.999.038 3.994.077 4.724.038.73-.038.883-.115.922-.883.038-.768 0-1.498-.039-1.69-.038-.192-6.913.23-6.913.23z" fill="#222"/><path d="M120.647 88.469c-.039 1.483.04 1.678.469 1.678.43 0 .546-.078.625-1.327.078-1.25.117-14.756.078-15.38-.04-.625-.196-.898-.469-.898-.273 0-.585-.04-.585 1.015 0 1.054 0 4.06-.04 4.41-.038.352-.077 10.502-.077 10.502z" fill="#4f4f4f"/><path d="M111.825 89.406c3.201.117 6.949.156 7.886.117.937-.04 1.054-.156 1.17-1.562.118-1.405.04-10.462 0-11.594-.038-1.132-1.522-3.24-3.474-3.318-1.951-.078-4.684-.039-4.88 0-.194.04-.39 8.471-.39 8.471z" fill="#2e2e2e"/><path d="M108.288 88.932c-.005.654-.06 1.103-.01 1.264.048.161.112.254.644.268.532.015 1.898.054 2.332.059.434.005.659-.088.703-.366.044-.278.151-1.142.16-1.4.01-.259-.61-.625-.619-.215-.01.41-.058.605-.376.62-.317.014-1.844 0-2.044-.01-.2-.01-.317-.098-.308-.4.01-.303-.483.18-.483.18z" fill="#b2b2b2"/><path d="M112.45 71.176c2.654-.04 3.591.039 3.591-.586s-.156-1.64 1.054-1.718c1.21-.078 1.25.43 1.288 1.054.04.625 0 1.132 1.367 1.132 1.366 0 3.279-.039 3.825-.039.547 0 .586.04.625.43.039.39.117.546-.508.585-.624.04-10.579-.039-11.047-.039-.468 0-.195-.82-.195-.82z" fill="#4f4f4f"/><path d="M112.76 64.775c-.155-.018-.323.208-.344.834-.039 1.114-.92 22.494-.932 23.208-.006.368-.008.418.208.426.291.011.386-.001.425-.444.115-1.327.988-23.084.913-23.613-.034-.235-.148-.397-.27-.411zm-3.217.41c-.135-.009-.315.232-.315.232-.114 4.171-.936 22.304-.947 23.461-.003.276.06.319.242.313.242-.008.245-.05.251-.335.018-.78.915-22.518.915-23.286 0-.288-.065-.381-.146-.386z" fill="#333"/><path d="M161.169 72.238c.484 1.475.855 2.385.369 3.421-.487 1.036 3.058 1.476 2.29.848-.769-.628-1.192-3.328-.464-3.83.729-.502-2.195-.44-2.195-.44z" fill="#151515"/><path d="M148.487 68.927c1.876.75 3.532 1.344 4.251 1.438.72.094.907-.25.907-.782 0-.531-.25-.719-.656-.906-.407-.188-2.783-.97-3.345-1-.563-.032-1.157 1.25-1.157 1.25z" fill="#222"/><path d="M143.622 67.778c.139 1.256.438 1.91.637 2.355.199.445.138 1.282.143 1.806.006.523-.062.863.778.916.84.052 1.199-.105 1.305-.707.106-.602 1.084-1.936 1.672-2.381.589-.445 2.22-1.152 2.34-2.068.118-.916-6.875.079-6.875.079z" fill="#191919"/><path d="M143.623 66.105c-.031 1.703.01 1.629 0 1.888-.01.259.218.296 1.215.333.997.037 3.991.074 4.723.037.731-.037.888-.111.956-.851.069-.74.06-1.444.029-1.629-.031-.185-6.923.222-6.923.222z" fill="#222"/><path d="M91.667 63.291c3.273.084 69.292 1.931 69.88 1.973.587.042.63.042.63-.755 0-.798 0-.84.965-.84s7.386.252 8.352.252c.965 0 .965.588 1.049.797.084.21.168.423 1.427.462 1.413.044 2.014.046 2.434.088.42.042.504.164.504 1.927 0 1.762 0 3.819-.084 4.742-.084.924-.252 1.05-1.217 1.091-.966.042-13.976-.125-14.606-.125-.63 0-.63-.168-.63-.882 0-.713 0-3.903-.041-4.575-.042-.671-.378-.755-1.176-.797-.797-.042-67.235-1.175-67.99-1.26-.756-.083.503-2.098.503-2.098z" fill="#313131"/><path d="M74.632 61.197c.917.02 15.939.631 16.278.631.34 0-.156 1.344-.156 1.344l-.882.455-14.703-.61z" fill="#dbdbdb"/><path d="M77.858 71.128c.108 1.61.215 2.217-.357 2.325-.573.107-.787.071-.787.358 0 .286.107.572 1.323.5 1.216-.071 1.86-.572 1.86-1.61 0-1.037.18-1.573-.214-1.645-.394-.071-2.004.036-2.004.036z" fill="#1d1d1d"/><path d="M72.678 61.017l-6.4.99s-.557 9.61-.099 9.643c.458.033 6.545.023 7.47.023.924 0 17.178.37 17.62.37.44 0 .473-.099.506-.638.033-.54.18-8.844.187-9.319.004-.263-.086-.23-.414-.248-.282-.015-.375-.011-.78-.005-.256.004-.237.386-.237.773 0 .518-.129.544-.667.525-.537-.02-13.132-.404-13.785-.442-.653-.038-.902-.365-.921-.94-.013-.382-.094-.653-.4-.665-.867-.035-1.801-.061-2.08-.067z" fill="#373737"/><path d="M60.24 40.675l.324 6.302.26 14.614 8.566.12 3.742-.066c.015-2.182.267-15.837.36-20.925h-1.685z" fill="#be000c"/><path d="M55.175 62.003l4.923.212.976 9.38 1.104 17.656-5.348-.637-1.189-4.838-1.485-16.043z" fill="#272727"/><path d="M59.747 62.342c-.03 2.96-.237 8.434-.059 9.352-.033 1.187.353 3.526.53 5.45.178 1.923.417 6.709.417 8.133 0 1.155-.087 3.08.061 3.553.148.474.057.56 1.241.68 1.184.117 8.73.71 8.79.384.059-.326.613-.606.583-.902-.03-.296-.584-.667-1.323-1.022-.74-.355-2.28-.976-2.545-1.45-.267-.473-.444-.74-.474-1.746-.03-1.006.03-13.08.06-14.915.029-1.835 0-7.665 0-7.843 0-.177-7.28.326-7.28.326z" fill="#0b0b0b"/><path d="M59.225 22.82c-5.6.042-11.733-.107-14.404-.086-2.671.021-4.51-.086-8.228 0-3.718.085-5.898.47-8.206.855-2.308.384-10.77 1.538-11.754 1.966-.983.427 6.027.342 6.027.342l19.66-.128 8.207-.428z" fill="#5f5f5f"/><path d="M43.66 25.136c3.598.011 4.26-.154 6.221-.403 1.961-.248 6.214-1.353 7.568-1.657 1.353-.304 3.01-.635 3.148 1.105.138 1.74.055 13.67.055 17.206 0 3.535-.055 18.062-.11 19.222-.055 1.16-.663 1.215-1.823 1.215s-13.643-.11-13.643-.11z" fill="#e89600"/><path d="M43.66 25.136c3.274.115 3.543-.015 3.684 3.997.142 4.011-.35 28.395-.375 30.065-.025 1.67-.299 2.134-1.167 2.122-.869-.013-28.732-.222-30.067-.309-1.335-.086-1.536-.09-1.51-1.893.027-1.804.49-28.66.72-30.662.23-2.002.644-2.931 2.984-3.03 2.34-.1 22.324-.34 25.732-.29z" fill="#ee9a00"/><path d="M42.333 58.149l-.025 3.03 2.604-.3-.876-2.855z" fill="#471319"/><path d="M42.734 61.179c0-1.428-.025-1.878.025-2.254.05-.376.025-.626.826-.626.4 0 .586.057.614-.234.027-.291-.103-.93-.103-.93l-5.383-.031.098 3.826z" fill="#350d12"/><path d="M19.855 57.665l-.024 2.941 2.528-.292-.85-2.77z" fill="#471319"/><path d="M20.244 60.606c0-1.385-.024-1.823.025-2.187.048-.365.024-.608.802-.608.777 0 .461-.948.461-.948l-4.69-.121.073 3.815z" fill="#350d12"/><path d="M61.65 41.06c0 1.792-.175 19.723-.28 20.32-.106.598-8.368-.175-8.368-.175l4.43-19.83z" fill="#535353"/><path d="M45.766 42.192l12.111.118-.65 3.662-3.485 15.36-7.621-.177z" fill="#bd0000"/><path d="M14.55 41.967c-.165 7.783-.31 16.168-.324 17.15-.013.9.03 1.352.242 1.59l7.64.399c8.64.094 23.069.204 23.693.213.869.013 1.143-.45 1.168-2.12.013-.928.17-8.838.283-16.393l-.829.093-8.765.668c-.126 7.239-.261 14.643-.261 15.088 0 .86 0 1.172-.625 1.211-.625.04-13.006-.117-13.71-.117-.702 0-.859-.625-.859-1.21 0-.3.025-7.52.055-14.657l-4.881-1.236zm5.552 15.167c.228.002.41.01.507.02.389.05.559.22.583.924.024.705 0 2.358-.097 2.552-.097.195-3.791-.194-3.791-.194 0-.9-.024-2.066-.024-2.528 0-.461.072-.753.631-.753.42 0 1.509-.028 2.191-.02zm20.114.098c1.066-.007 2.843.02 3.117.02.364 0 .486.17.486.583 0 .414 0 1.386-.049 2.966 0 0-4.885.51-4.86.218.024-.291.048-2.382.073-2.99.024-.607.024-.728.485-.777.116-.012.392-.018.748-.02z" fill="#d1001d"/><path d="M13.523 60.138c1.84.01 4.333.009 5.319.002.986-.007.582 2.451.582 2.451l4.683.467 29.042.405.264 16.812-11.97 5.633-24.382-.352-8.538-2.817-1.144-9.77 2.2-11.706z" fill="#950005"/><path d="M37.045 28.699c1.211.117 1.445.156 1.484.78.04.626-.43 28.356-.468 29.333-.04.976-.43 1.054-1.758 1.093-1.328.04.625-.82.625-.82z" fill="#636363" fill-opacity=".436"/><path d="M36.81 28.699c.933.095 1.016-.079 1.055 1.015.04 1.094-.468 28.082-.468 28.941 0 .86 0 1.172-.625 1.211-.625.04-13.006-.117-13.71-.117-.702 0-.859-.625-.859-1.21 0-.587.096-27.924.135-28.666.04-.742.078-1.055.742-1.133.664-.078 11.973-.222 13.73-.041z" fill="#e49e17"/><path d="M44.082 38.68c.69 0 .69-.166.718-.69.027-.525.22-8.175.193-8.672-.028-.497-.11-.801-.69-.801s-3.149-.055-3.59 0c-.443.055-.525.248-.608.966-.083.719-.166 7.678-.138 8.369.027.69.11.773.524.8.415.028 2.845.083 3.59.028z" fill="#e48f00" stroke="#956e2b" stroke-width=".2"/><path d="M42.407 29.808c.943 0 1.751.606 1.729 1.818-.023 1.213-.606 1.841-1.594 1.864-.988.022-1.706-.651-1.661-1.774.045-1.122.449-1.93 1.526-1.908z" fill="#ce2a2a"/><path d="M42.273 33.894c.942 0 1.75.606 1.728 1.818-.022 1.212-.606 1.841-1.594 1.863-.987.023-1.706-.65-1.66-1.773.044-1.123.448-1.93 1.526-1.908z" fill="#c7c7c7"/><path d="M20.543 38.323c.588 0 .587-.142.608-.59.02-.449.07-6.988.044-7.413-.027-.425-.099-.685-.593-.685s-2.682-.047-3.058 0c-.376.047-.445.213-.511.826-.066.614-.094 6.563-.067 7.154.028.59.1.66.452.684.353.024 2.49.071 3.125.024z" fill="#e48f00" stroke="#956e2b" stroke-width=".171"/><path d="M18.996 30.739c.803 0 1.495.518 1.483 1.554-.012 1.036-.505 1.574-1.346 1.593-.841.02-1.457-.557-1.426-1.516.032-.96.371-1.65 1.289-1.631z" fill="#ce2a2a"/><path d="M18.906 34.231c.803 0 1.495.519 1.483 1.555-.011 1.036-.505 1.573-1.346 1.593-.84.019-1.457-.557-1.425-1.516.031-.96.37-1.65 1.288-1.632z" fill="#c7c7c7"/><path d="M36.39 26.756c-.616.005-.753.932-.027.96.727.027 7.54.054 8.267.082.726.027.851-.881-.014-.905-2.74-.077-5.484-.158-8.225-.137zM17.25 26.88c-.616.005-.753.932-.027.96.727.027 7.096-.097 8.15-.124.728-.02.852-.88-.013-.905-2.864-.067-5.657.05-8.11.069z" fill="#dedede"/><path d="M22.256 44.165c-.029 7.037-.053 14.079-.053 14.373 0 .586.157 1.211.86 1.211s13.084.156 13.709.117c.625-.039.625-.351.625-1.21 0-.41.12-7.07.237-13.728z" fill="#ca001a"/><path d="M38.344 42.78a4.57 4.57 0 01-.686.115h.011c-.027 1.561-.034 2.05-.062 3.58.102-.001.422-.002.484-.004.064-.002.127-.01.191-.012l.004-.263.058-3.416z" fill="#a9a9a9"/><path d="M47.303 39.267c-.298.012-.51.03-.598.058-.734.232-6.954 2.782-7.456 3.09a3.293 3.293 0 01-.905.358l-.062 3.686c1.358-.07 2.662-.503 5.023-1.61 1.533-.719 2.902-1.332 3.942-1.714.02-1.318.039-2.605.056-3.868z" fill="#cdcdcd"/><path d="M22.263 42.706l-.015 3.663c.166.023.349.044.585.064 1.33.11 12.535.08 14.774.043l.062-3.581a4.423 4.423 0 01-.428.022c-.734 0-13.172-.115-13.79-.115-.46 0-.793.02-1.188-.096z" fill="#c5c5c5"/><path d="M48.534 39.253c-.494-.002-.913.002-1.231.014-.017 1.263-.036 2.55-.056 3.868.637-.234 1.152-.38 1.505-.41.927-.077 6.489.231 7.493.27 1.004.039.966.773.734 1.545-.232.773-2.202 9.386-2.704 11.588-.502 2.202-.888 3.901-.966 5.524-.077 1.622.735.502 1.005-.812.27-1.313 4.244-17.724 4.514-18.574.27-.85.433-.92.742-.92.31 0-.18.05.323.01.01 0 .019-.003.029-.005.002.008.003.016.006.023h.724l.005-1.733-.746-.006-.001.01a.317.317 0 00-.068-.012c-.382-.023-.977-.024-2.09-.076-1.102-.05-6.352-.29-9.218-.304z" fill="#bebebe"/><path d="M14.628 38.448c-.034 1.489-.067 3.053-.1 4.63 1.322.637 4.002 1.814 5.37 2.45 1.378.641 1.542.829 2.35.94l.015-3.663a2.648 2.648 0 01-.434-.174c-.566-.283-4.724-2.251-7.201-4.183z" fill="#cdcdcd"/><path d="M18.738 44.857c.036-1.093.072-1.652.583-1.798.51-.146.668-.158.705.206.036.365-.025.535-.22.632-.194.098-.303.584-.327 1.653-.025 1.07-.061 5.006-.049 5.675.012.668.231.948.438 1.081.206.134.388.17.376.802-.012.632-.073.669-.425.693-.352.024-1.07-.121-1.19-1.519-.122-1.397.084-6.768.109-7.425z" fill="#dedede"/><path d="M36.359 47.306l-5.768.016-5.768.015-.287.134c-.407.19-.718.454-.967.822-.111.164-.625 1.325-1.34 2.991-.008 1.944-.019 4.869-.02 5.428l.196-.002 1.521-3.588c.836-1.973 1.611-3.747 1.722-3.944a2.22 2.22 0 01.966-.907c.26-.123.286-.124 5.003-.14l4.742-.016v-.404zm-16.398 9.362c.001.01.006.018.016.025a.035.035 0 01-.016-.025zm.155.055c.157.012.465.009 1.055.002-.59.007-.898.01-1.055-.002z" fill="#734691" paint-order="fill markers stroke"/><path d="M29.43 49.465c-.09-.016-.668.722-.87 1.117-.251.49-.425 1.051-.733 2.362-.126.539-.271 1.09-.323 1.225-.108.283-.455.888-.574 1.002-.078.076-.108.179-.051.179.016 0 .152-.11.304-.246.32-.287.686-.819.843-1.23.061-.159.24-.862.396-1.562.299-1.339.482-1.878.837-2.463.115-.19.195-.36.178-.38a.012.012 0 00-.007-.004zm-3.41 1.43c-.376 0-.48.07-.252.171.127.056.136.092.514 2.042l.142.738h.41l.608-1.442c.335-.792.61-1.456.61-1.475 0-.019-.074-.034-.163-.034-.162 0-.166.007-.617 1.085l-.455 1.085-.114-.579-.213-1.085-.1-.506zm3.356 0c-.233 0-.424.02-.424.043 0 .024.068.088.15.142.123.08.145.126.124.26-.013.09-.081.631-.15 1.204-.07.573-.138 1.1-.152 1.171l-.024.13h1.487l.057-.144.057-.145h-.999v-.168c0-.148.206-1.909.273-2.334l.025-.159zm1.772 0c-.168 0-.294.136-.294.318 0 .293.268.413.45.203.192-.222.102-.521-.156-.521zm-.166.81c-.36 0-.441.067-.273.225l.113.105-.085.689c-.046.378-.099.785-.116.905l-.03.217h.23c.2 0 .234-.018.255-.13.05-.272.228-1.724.228-1.864 0-.142-.01-.147-.322-.147zm.878 0c-.283 0-.356.018-.356.087 0 .047.022.087.049.087.13 0 .142.229.048.957a28.87 28.87 0 01-.123.88c-.024.12-.009.13.216.13h.241l.08-.578c.085-.608.206-.918.424-1.083.111-.084.13-.085.2-.003.071.082.07.164-.019.877l-.097.787h.463l.086-.738c.12-1.02.114-1.136-.054-1.289-.194-.177-.47-.127-.698.127l-.173.193.035-.217.034-.217zm2.368.015a.942.942 0 00-.615.248c-.275.267-.403 1.09-.23 1.478.136.303.346.408.767.387.314-.016.382-.039.463-.154a.563.563 0 00.094-.181c0-.026-.133-.032-.297-.015-.281.03-.306.021-.45-.146a.524.524 0 01-.153-.413v-.236H34.858v-.264c0-.437-.134-.63-.48-.692a.765.765 0 00-.15-.012zm-.015.276c.106.008.194.104.194.27 0 .123-.021.133-.275.133-.151 0-.275-.022-.275-.05 0-.027.046-.119.103-.202.075-.11.17-.157.253-.15z" fill="#e2e2e2" paint-order="fill markers stroke"/><path d="M22.228 51.384c-.192.447-.32.735-.553 1.284a347.794 347.794 0 00-1.71 4.066c-.027.101.026.105 1.206.09l1.037-.012.02-5.428z" fill="#734691" paint-order="fill markers stroke"/><path d="M66.274 61.019c.82-.008 5.888.004 6.334.004.447 0 .514.01.525.301.011.29.01 1.08-.012 1.258-.022.179.011.223-.28.246-.29.022-6.428-.03-6.674-.042-.2-.527.005-1.207.107-1.767z" fill="#dbdbdb"/><path d="M63.935 60.989c1.609.02 2.057.032 2.396.028.286-.003.308.126.308.79 0 .662-.044.983-.253.984-.175 0-2.194-.037-2.557-.053s.106-1.75.106-1.75z" fill="silver"/><path d="M54.268 60.654c2.456.112 9.22.313 9.622.335.402.022.514-.022.491.826-.022.848.023.94-.47.923-.491-.018-8.795-.276-9.375-.276-.58 0-.268-1.808-.268-1.808z" fill="#dbdbdb"/><path d="M63.363 89.682c0 4.242 1.755 7.826 3.803 7.68 2.048-.147 3.437-2.122 3.437-4.316s.074-4.023-.95-3.95c-1.024.073-6.29.586-6.29.586z" fill="#121212"/><path d="M64.204 70.078c.456.01.53.085.541.647.01.562-.042.71-.445.721-.404.011-8.645-.156-8.93-.186-.285-.03-.555-1.35 0-1.38.555-.03 8.17.155 8.834.198zM57.14 79.393c.706 0 6.888.12 7.218.135.33.015.39.226.39.69 0 .466-.105.661-.345.676-.24.015-7.487-.12-7.667-.105-.18.015.405-1.396.405-1.396zM60.667 90.453c5.897.18 9.949.195 10.294.18.345-.015.39-.165.39-.96 0-.796-.03-.976-.435-1.006-.405-.03-10.114-.195-10.474-.105-.36.09.225 1.89.225 1.89zM62.867 63.945c.244.021.276.042.276.435 0 .392.01.51-.233.52-.244.01-7.194-.075-7.46-.096-.265-.021-.583-1.018.011-1.018s6.971.138 7.406.159z" fill="#b2b2b2"/><path d="M23.807 63.567c-.105 1.545-.07 3.335-.105 3.616-.035.28-.21.491-1.123.456-.913-.035-1.16-.06-1.371-.047-.211.012-.57-.012-.546.658.025.67.021 3.216 3.286 3.391 3.265.176 3.317-2.317 3.352-2.913.035-.597 0-.983-.42-.983-.422 0-1.23 0-1.528-.035-.298-.036-.439-.158-.439-.44 0-.28.053-3.545.053-3.685 0-.14-1.159-.018-1.159-.018z" fill="#970009"/><path d="M5.587 67.336c-.57.023-1.022.046-1.247.07-.943.1-1.116.546-1.24 1.564-.124 1.017-.15 5.634-.124 6.404.025.77.645.844 1.19.819.547-.025.448-.546.15-.57-.298-.025-.745-.05-.844-.67-.1-.621.025-4.345.074-5.536.046-1.102.571-1.478 2.022-1.529l.019-.552z" fill="#dedede"/><path d="M12.305 60.138a231.59 231.59 0 00-3.684.028c-2.265.056-2.597.277-2.762 1.271-.166.994-.387 9.114-.387 10.33 0 1.214-.276 1.435-.773 1.435s-.663.331-.718 1.657c-.055 1.326-.11 6.905-.166 9.004-.055 2.099-1.105 2.595-2.21 3.148-1.104.552-1.656.718-1.601 1.988.055 1.27-.055 1.602 1.27 1.658 1.326.055 4.695.055 6.242.055 1.547 0 1.712.22 2.21.828.496.608 1.38 2.486 1.712 3.149.331.663.663.994 1.602.994.939 0 11.93.165 18.614.165 6.683 0 18.117-.082 18.973-.082.856 0 1.022-.221 1.132-.635.11-.415.193-1.575.387-2.43.193-.857.69-1.437 1.409-1.547.718-.11 5.91-.056 6.683-.056.773 0 .773-.248.8-.718.028-.47.056-.718.029-1.436-.028-.718-.36-.607-1.85-1.601-1.492-.995-2.045-1.16-2.045-2.43 0-1.271.111-3.039.111-5.414 0-2.375-.166-2.375-.828-2.43-.663-.055-.936-.408-.936-1.502s.04-11.795.078-13.319c.04-1.523-.078-1.6-1.796-1.6-2.82-.127-15.961-.205-22.147-.371-3.055-.082-8.157-.123-12.812-.137-.01.723-.039 2.02-.039 2.722 0 .815.272 1.222 1.132 1.132.86-.09 29.335.09 30.694.135 1.358.046 1.403.634 1.403 1.54 0 .905-.09 11.091-.181 11.86-.09.77-.317.906-1.132.86-.815-.045-3.033 0-3.848.046-.815.045-1.453.478-3.079 3.033-1.267 1.992-1.267 1.902-3.576 1.947-2.267.045-17.293.09-20.507-.045-3.215-.136-3.577-2.989-3.849-3.849-.271-.86-.724-.996-3.621-.996-2.898 0-2.626-.09-2.626-.905 0-.815.045-11.544.136-12.495.09-.95.543-.995 1.947-1.086 1.403-.09 1.765 0 1.81-.544.028-.333.026-2.27.017-3.357-.371 0-.877-.002-1.218 0zm1.86 0c.526.141 1.193.102 1.86 0h-1.86z" fill="#b6000b"/><path d="M46.648 37.448c-.504.004-.502.224-.502.395 0 .17.171.363.47.374.3.01 11.865.187 12.293.21.527.028.704.634.713.98.019.778-.312 34.62-.405 35.866-.093 1.245-.172 1.587-.296 1.759-.125.17-.156.451.03.529.188.078.515-.25.64-.841.124-.591.233-3.58.28-5.822.046-2.241.377-30.538.38-31.947.002-.95-.138-1.247-.968-1.27-2.521-.068-9.862-.247-12.635-.233z" fill="#dedede"/><path d="M56.299 7.371c-2.573.014-6.44.094-8.255.221-2.42.17-2.589 1.358-2.716 3.14-.127 1.783-.085 7.004.042 9.041.128 2.037.68 3.013 2.335 3.056 1.655.042 8.276.17 10.823.042 2.546-.127 3.268-1.74 3.352-3.523.085-1.782.043-6.663-.127-9.04-.17-2.377-1.316-2.886-3.438-2.928A78.25 78.25 0 0056.3 7.37zm-16.055.17c-2.685-.002-8.046.11-9.346.221-1.486.127-2.165.721-2.335 2.546-.17 1.825-.44 8.064-.312 9.635.127 1.57.34 3.056 1.995 3.098 1.655.043 10.201-.17 12.026-.297 1.825-.127 2.547-1.4 2.59-3.268.042-1.867.041-5.857-.086-8.361-.127-2.504-.891-3.523-3.565-3.565a51.367 51.367 0 00-.967-.009z" fill="#0b0a09"/><path d="M48.214 8.846c-1.233.104-1.543.38-1.613 2.206-.057 1.485-.085 7.49 0 8.848.085 1.358.934 1.57 2.037 1.655 1.104.085 9.635.043 10.653-.169 1.019-.212 1.231-1.104 1.358-2.207.128-1.104-.12-7.625-.169-8.566-.058-1.095-.096-1.793-2.06-1.852-3.562-.107-6.828-.203-10.206.085zm-7.088-.05c-3.213-.017-6.385-.02-9.592.17-1.361.081-1.782.552-1.91 1.825-.127 1.274-.212 7.878-.17 9.406.043 1.528.807 1.74 2.123 1.783 1.316.042 8.064-.127 9.762-.297 1.697-.17 2.08-.849 2.249-2.207.17-1.358.043-7.2-.042-8.642-.085-1.443-.68-2.028-2.42-2.037z" fill="#2e2e2e"/><path d="M73.508 39.834l-.028 1.54h.082a231.9 231.9 0 004.466.164c1.833.046 12.516.734 13.862.785l.024-1.383c-.802-.07-15.087-1.04-15.803-1.062-.635-.02-1.839-.039-2.603-.044z" fill="#bebebe"/><path d="M60.657 39.64l-.005 1.733c1.462-.002 12.158-.02 12.828 0l.028-1.539c-.11 0-.283-.004-.367-.004-.679 0-4.374-.043-5.94-.09 0 0-3.254-.026-4.811-.073-.575-.018-1.104-.022-1.733-.027z" fill="#c7c7c7"/><path d="M62.29 25.335c.04 2.301.35 2.927 1.663 3.013 1.313.086 5.156.232 6.41.166 1.255-.065 2.311-1.099 2.37-3.077.058-1.978.175-8.16.104-9.738-.071-1.578-.273-2.87-1.852-3.011-1.58-.142-5.517-.172-6.62-.05-1.101.12-1.894.81-1.975 2.37-.082 1.56-.13 8.92-.1 10.327z" fill="#0b0a09"/><path d="M63.122 24.76c.037 1.996.364 2.355 1.354 2.463.99.107 4.375.16 5.402.116 1.026-.045 1.956-.337 2.052-2.353.096-2.017.142-7.589.111-8.92-.03-1.331-.266-2.204-1.485-2.33-1.218-.124-4.356-.141-5.402-.077-1.045.064-1.65.448-1.753 1.761-.102 1.313-.308 8.18-.279 9.34z" fill="#2e2e2e"/><path d="M52.003 0c-5.318-.004-21.916.144-24.662.258-.402.415-.764 1.42-.782 3.983-.033 3.203.065 3.465 1.83 3.497 1.765.033 23.693-.098 27.19-.13 3.496-.033 3.725-.23 3.725-1.014s0-3.53-.13-4.379a9.408 9.408 0 01-.06-.686l-.865-.59C56.992.08 55.14.08 53.553.013A57.494 57.494 0 0052.003 0z" fill="#e49a00"/><path d="M48.745.98c-1.61.048-2.124 1.183-2.09 2.656.035 1.472.309 3.252 2.09 3.34 1.782.088 6.51.152 7.845.107 1.336-.045 2.432-1.048 2.398-3.034-.034-1.987-.788-2.94-2.227-3.03C55.323.926 49.704.903 48.745.98zM33.501.963c2.022.1 2.673 1.007 2.673 3.02 0 2.014-.445 3.155-2.227 3.323-1.782.168-4.695.134-5.86.067-1.026-.059-1.576-1.174-1.507-3.255.068-2.08.342-2.82 1.302-2.953.96-.135 4.557-.235 5.62-.202z" fill="#232323"/><path d="M33.141 1.73c1.357 0 2.132.751 2.156 2.277.024 1.526-.8 2.544-2.229 2.64a50.88 50.88 0 01-4.142.073c-.872-.024-1.744-.727-1.744-2.398 0-1.671.146-2.253 1.332-2.398 1.187-.145 3.537-.218 4.627-.194zM47.41 4.048c.018-1.68.719-2.57 1.918-2.604 1.199-.034 5.926 0 6.851.069.925.068 2.158.685 2.193 2.466.034 1.782-.925 2.261-1.645 2.364-.72.103-6.133.015-7.023-.034-1.81-.1-2.31-.923-2.295-2.261z" fill="#2f2e2d"/><path d="M49.729 2.307c-.08.004-.08.041-.087.13-.006.09-.006 3.046-.006 3.115 0 .068.025.084.074.09.05.006.452.005.508.006.056 0 .074-.015.074-.094l-.003-1.03c0-.052.019-.062.087-.061.068 0 .133.012.759-.002.625-.014.88-.412.88-1.135 0-.723-.46-.966-1.06-.994a55.84 55.84 0 00-1.226-.025zm.929.58c.096 0 .195 0 .272.004.155.007.465.106.452.475-.012.37-.229.51-.44.523-.21.013-.489 0-.557-.002-.068 0-.086-.027-.093-.096a15.775 15.775 0 01-.006-.776c.013-.116-.012-.121.118-.125.065-.002.158-.003.254-.003zM53.524 2.41c.093 0 .1.006.1.107 0 .1.005 2.982 0 3.066-.007.084.005.09-.28.092-.284.002-.334 0-.34-.073-.006-.074 0-1.91 0-2.027 0-.116-.006-.148-.112-.149-.105-.001-.489-.016-.532-.011-.044.004-.062-.027-.068-.107-.007-.079-.007-.237-.007-.28 0-.042.019-.063.124-.061.106 0 .44-.027.564-.178.124-.152.142-.252.148-.315.007-.064.019-.074.087-.073.068 0 .223.008.316.009zM55.903 2.485c.137-.003.149-.024.155.24.006.264 0 .295-.08.305-.08.01-.843.006-.997-.001-.155-.007-.174.019-.192.098a4.965 4.965 0 00-.075.495c0 .069.031.08.124.023a.831.831 0 01.632-.072c.29.082.693.34.7.926.006.586-.34 1.316-1.035 1.287-.693-.03-.978-.408-1.028-.699-.05-.29-.074-.296.26-.282.335.015.316.03.341.131.025.1.1.323.347.331.248.009.49-.22.508-.627.018-.406-.192-.551-.409-.57-.217-.018-.384.101-.409.16-.024.057-.037.083-.278.06-.242-.025-.31-.015-.304-.131.006-.116.174-1.433.198-1.56.025-.126.044-.12.124-.125.08-.004 1.177.003 1.418.011zM28.906 2.668c-.06.007-.06.043-.065.133-.004.09-.005 3.046-.005 3.115 0 .068.019.083.056.087.037.004.34-.01.38-.012.043-.001.057-.017.057-.096l-.003-1.03c0-.052.014-.063.065-.065.052-.001.1.008.57-.028.469-.036.659-.443.659-1.166 0-.723-.344-.95-.794-.957-.214.001-.86.011-.92.019zm.697.546c.072-.003.146-.006.204-.005.116.002.348.09.34.46-.01.369-.173.516-.33.537-.159.02-.367.017-.419.019-.05.001-.065-.025-.07-.093-.004-.069-.009-.665-.004-.776.01-.116-.01-.121.088-.13l.19-.012zM31.752 2.636c.07-.003.075.003.075.103 0 .1.004 2.982 0 3.066-.005.085.004.09-.21.102-.213.012-.25.013-.255-.06-.004-.074 0-1.911 0-2.027 0-.116-.004-.148-.083-.146-.08.003-.367.002-.4.008-.032.006-.046-.025-.05-.104-.006-.08-.006-.237-.006-.28 0-.042.014-.063.093-.066.08-.002.33-.042.423-.198a.687.687 0 00.112-.32c.004-.064.013-.075.065-.076.05-.002.167 0 .236-.002zM33.537 2.627c.102-.009.111-.03.116.234.005.263 0 .295-.06.308-.06.012-.632.035-.748.034-.116-.002-.13.025-.144.105-.014.08-.056.429-.056.498 0 .068.023.078.093.018a.504.504 0 01.474-.094c.218.072.52.316.525.901.004.586-.256 1.328-.776 1.323a.74.74 0 01-.771-.662c-.037-.289-.056-.293.195-.29.25.002.237.018.255.118.02.1.075.32.26.319.186 0 .368-.239.381-.646.014-.406-.144-.544-.306-.555-.163-.01-.288.115-.307.174-.018.058-.028.085-.209.07-.18-.016-.232-.004-.227-.12.004-.116.13-1.44.148-1.567.019-.127.033-.122.093-.13a33.6 33.6 0 011.064-.038z" fill="#c5c5c5"/><path d="M38.983 7.07c-1.887.03-2.695-.868-2.635-3.055.06-2.186.449-2.755 1.797-2.845 1.348-.09 4.313-.15 5.66-.09 1.349.06 2.427.899 2.487 2.486.06 1.588-.3 3.355-1.528 3.445-1.228.09-4.553.12-5.78.06z" fill="#d08400"/><path d="M38.853 2.018c1.086.018 1.804.9 1.784 2.118-.02 1.218-.737 1.818-1.706 1.818-.97 0-1.94-.618-1.92-1.994.02-1.377.95-1.906 1.842-1.942zM45.52 4.099c-.079 1.112-.901 1.867-2.083 1.813-1.182-.053-1.8-.85-1.745-1.844.054-.993.694-2.074 2.03-2.016 1.336.058 1.814 1.132 1.798 2.047z" fill="#d0d0d0"/><path d="M9.676 78.258c-.298.432-.208 1.074.26 2.127.64 1.44 2.273 4.258 4.162 7.875 1.19 2.278 3.138 5.34 4.612 7.489 2.29.027 4.39.05 7.127.072-2.041-2.731-5.475-7.447-6.536-9.373-.874-1.585-2.09-3.468-2.732-4.927-.435-.783-.584-1.603-.709-2-.271-.86-.724-.995-3.621-.995-1.828 0-2.394-.037-2.563-.268zm41.671.097c-.157.041-.358.05-.628.035-.815-.046-3.033 0-3.848.045s-1.453.478-3.079 3.033c-.415.652-.694 1.078-.962 1.362-.685 1.458-3.19 5.843-3.61 7.104-.418 1.254-1.199 4.717-1.498 5.9l5.514-.026c.716-1.423 1.683-4.033 2.186-5.376.543-1.449 5.07-9.507 5.704-10.503.353-.555.453-1.124.221-1.574zm-27.643 5.083c1.426 2.765 2.975 5.422 3.565 6.858.642 1.563 2.807 3.803 3.44 4.572.634.77 1.223.227 1.449-.543.226-.77.86-2.897 1.132-3.712.271-.815 2.76-6.247 3.395-7.153.003-.005.01-.01.014-.016-3.642.018-9.087.025-12.995-.006z" fill="#c1c1c1"/><path d="M7.711 90.704v.012c1.354.02 1.54.245 2.014.824.497.608 1.381 2.486 1.713 3.149.331.663.663.994 1.602.994.939 0 11.93.166 18.614.166 6.683 0 18.117-.083 18.973-.083.856 0 1.022-.221 1.132-.635.11-.415.193-1.574.387-2.43.193-.857.69-1.437 1.408-1.547.204-.032.799-.048 1.52-.058a.4.4 0 00-.145-.03c-1.584-.045-20.87-.272-23.36-.272-2.49 0-18.878-.045-23.858-.09z" fill="#a6000a"/><path d="M15.503 90.746a99.297 99.297 0 003.207 5.003h.054c2.214.027 4.28.049 6.901.07l.172.002a247.9 247.9 0 01-3.68-5.051c-2.376-.008-4.28-.014-6.654-.024zm12.004.038c.825 1.51 2.632 3.391 3.202 4.084.634.77 1.223.227 1.449-.543.214-.73.78-2.623 1.071-3.518-.492-.003-1.429-.013-1.66-.013-.46 0-2.813-.007-4.062-.01zm11.442.078c-.426 1.564-.984 4.011-1.227 4.972l3.451-.016 2.063-.01c.641-1.275 1.467-3.46 1.998-4.875-2.202-.026-4.193-.048-6.285-.07z" fill="#bababa"/><path d="M19.047 81.037c-.551 1.536-1.713 4.707-2.147 6.401-.433 1.694-1.201 3.723-1.32 4.294-.118.571.276.532.454.591.177.06.413-.413.63-1.083.217-.67.926-3.329 1.162-4.235.236-.906 1.753-5.2 2.108-5.653.354-.453-.887-.315-.887-.315z" fill="#161616"/><path d="M19.408 80.019c-.696-.697-.807-1.56-.863-2.229-.056-.668.111-.696.278-.724.168-.028.363.25.446.752.084.502.195.92.502.975.306.056-.363 1.226-.363 1.226z" fill="#bebebe"/><path d="M19.421 81.017c-.2 0-.374.02-.374.02-.172.478-.408 1.135-.658 1.837.247.046.566.125.785.224.33-.867.627-1.576.76-1.746.221-.283-.18-.336-.513-.335zm-1.563 3.372c-.106.308-.209.613-.309.914.203.106.553.149.775.155.08-.235.163-.473.253-.725-.224-.022-.56-.188-.72-.344zm-.92 2.906l-.038.143c-.042.165-.09.334-.137.504.151.18.53.161.765.18l.144-.54c-.23.067-.559-.105-.733-.287zm-1.22 3.951a6.15 6.15 0 00-.137.486c-.119.571.275.532.452.591.143.048.324-.252.503-.72-.255-.037-.582-.14-.818-.357z" fill="#aeaeae"/><path d="M21.864 78.16c-1.871.02-2.285.04-2.502.77-.216.728-.374 1.595-.472 2.008-.099.414.236.335.531.473.296.138.414.236.67.157.256-.078.946-.453 1.28-.866.335-.414.493-2.541.493-2.541z" fill="#581015"/><path d="M20.603 82.79c-.492.985-1.89 4.038-2.442 5.18-.552 1.143-2.127 4.038-2.856 4.865-.729.828-.453.887-.335 1.044.118.158.414.493.886.04.473-.453 1.517-2.01 2.226-3.428.71-1.418 2.738-5.712 2.935-6.559.197-.847-.414-1.142-.414-1.142z" fill="#171717"/><path d="M17.686 88.902c-.08.152-.163.307-.252.471.201.305.502.537.931.543l.215-.445c-.355-.034-.743-.153-.894-.569zm-1.859 3.22a6.96 6.96 0 01-.522.713c-.729.828-.453.887-.335 1.044.118.158.413.493.886.04.209-.2.531-.622.885-1.146-.396-.097-.78-.366-.914-.65z" fill="#b7b7b7"/><path d="M27.365 76.395l.114 5.41 6.7-.466.25-4.753z" fill="#4a0511" stroke="#000" stroke-width=".169"/><path d="M27.584 74.908c-.974.064-.934.964-1.128 1.77-.193.808-.193 4.216-.193 5.102 0 .887 1.192.573 2.675.703 1.482.129 5.188.094 5.671.002.484-.092.742-.463.742-1.077 0-.613.16-3.087.16-4.689 0-1.602-.128-1.688-1.224-1.728-1.031-.012-5.446-.165-6.703-.083zm1.217 1.893c.977-.083 3.756-.145 4.215-.094.524.058.752-.018.706 1.65-.045 1.669-.045 1.596-.09 1.94-.046.342-.206.675-.684.684-.479.009-2.735.038-3.418.023-.684-.014-1.664-3.44-1.664-3.44.023-.605.205-.627.638-.727a2.72 2.72 0 01.297-.037z" fill="#84080e"/><path d="M21.12 75.949c0-.722-.176-1.259.454-1.29.63-.031 2.721-.066 4.031 0 1.31.064 2.822.64 2.848 1.576.025.936-.026 3.546-.076 4.381-.05.836-.227 3.217-.605 3.405-.378.187-1.26.363-2.167.325-.907-.039-2.444-.347-2.847-.464-.403-.117-1.638-7.933-1.638-7.933z" fill="#242424"/><path d="M21.977 75.739c1.84.29 1.965.338 2.016 1.73.05 1.39.15 5.496.1 6.211-.05.715-.478 1.015-1.688.844-1.21-.171-1.89-.538-1.94-1.508-.05-.97-.076-5.937-.05-6.445.025-.508.176-.968 1.562-.832z" fill="#1d1d1d"/><path d="M29.268 77.368c-1.034.01-1.26.334-1.37 1.135-.126.915-.075 2.787-.075 3.81 0 1.022.075 1.214.428 1.113.353-.1.907-.443.982-.763.076-.32-.05-1.39.404-1.387.433.004 2.831-.268 3.379-.299v-.004c.423-.04.572-.351.616-.677.022-.171.033-.239.045-.472.011-.234.023-.632.045-1.467.006-.204.008-.382.005-.537-.002-.096-.008-.17-.013-.249a2.564 2.564 0 01-.003-.053c-.948-.058-3.199-.135-3.948-.135a7.203 7.203 0 00-.495-.015z" fill="#1f1f1f"/><path d="M42.34 74.748c.013-.681-.04-.862.432-.907.47-.045 3.022-.054 3.663 0 .642.053.701.155.694.967-.006.68-.066.827-.615.848-.55.022-3.39-.01-3.73-.062-.34-.052-.47-.178-.444-.846z" fill="#7f0006"/><path d="M42.288 74.305c.641-.303.968-.208.968.119 0 .327-.013.51-.445.58-.432.07-1.335.89-1.505 2.074-.17 1.185-.091 3.746.825 5.647.915 1.9 2.747 4.183 3.663 4.827.916.645 2.277 1.494 2.539 1.706.261.212.17.373.078.468-.091.095-.288.195-.89-.305-.601-.5-2.355-1.517-3.18-2.413-.824-.897-2.446-2.953-3.074-5.021-.628-2.07-.576-4.427-.366-5.469.209-1.041.752-1.913 1.387-2.213z" fill="#691618"/><path d="M39.775 78.643c.092-.684.236-1.906.314-2.184.079-.278.144-.411.393-.382.248.03.222.305.21.58-.014.276-.145 1.877-.184 2.01-.04.132-.733-.024-.733-.024z" fill="#d2d2d2"/><path d="M36.373 78.856c.76-.37.785-.66.589-1.345-.196-.686-.785-1.251-1.308-1.296-.524-.045-.59-.474-.17-.543.418-.069 1.753.337 2.093 1.174.34.837.497 1.498.497 1.76 0 .261-1.7.25-1.7.25z" fill="#84050e"/><path d="M39.762 78.448c.916.016 1.034.011 1.034.73 0 .72-.21.886-.811.936-.602.05-.85.02-1.165.085-.314.064-.51.282-.602.73-.091.449-1.112.2-.903-.24.21-.44.079-.382-.261-.486-.34-.104-.709-.024-.8.254-.092.278-1.15-.125-1.006-.47.144-.347.392-1.168.89-1.331.497-.164 2.944-.208 3.624-.208z" fill="#6a040c"/><path d="M35.13 80.24c.196-.48.21-.585.68-.42.472.165.602.33.393.77-.21.44-1.117 2.811-.044 4.638s2.443 2.827 4.682 3.424c2.239.596 2.905.552 3.238.594.333.042.277.174.277.637 0 .462-.277.51-1.165.434-.889-.076-3.4-.49-5.589-2-1.58-1.09-2.572-2.434-2.72-4.39-.133-1.759-.022-2.618.248-3.688z" fill="#171717"/><path d="M35.068 80.5c-.039.168-.075.333-.105.5.421.029.792.092 1.015.18.057-.176.107-.309.152-.419a3.275 3.275 0 00-1.062-.26zm6.605 8.361c-.128.267-.25.776-.241 1.143.766.194 1.398.282 1.759.313.888.076 1.165.028 1.165-.434 0-.463.056-.595-.277-.637-.287-.037-.828-.01-2.406-.385z" fill="#9d9d9d"/><path d="M37.88 80.33c.37.097.444.131.333.598-.111.467-.592 2.17-.333 3.64.259 1.47.98 3.218 1.74 3.91.758.692 2.553 1.88 3.756 2.017 1.202.138 2.128.212 2.146.748.019.536-.222.73-1.795.441-1.573-.29-3.108-.95-4.792-2.587-1.684-1.636-1.85-2.962-2.017-4.75-.167-1.789.185-3.153.351-3.548.167-.396.26-.547.61-.469z" fill="#141414"/><path d="M37.66 80.315c-.183.028-.266.187-.39.484-.072.168-.176.514-.26.992.368-.026.757.024.974.144.089-.462.186-.827.229-1.007.11-.467.037-.501-.333-.598a.602.602 0 00-.22-.015zm-.592 3.068c-.07.007-.135.018-.194.035 0 .293.013.604.044.929.002.031.006.06.009.091.32-.054.686-.091.922-.085a5.916 5.916 0 01-.042-.918 2.806 2.806 0 00-.74-.052zm1.353 3.087c-.342.074-.786.225-1.034.385.069.183.15.365.244.548.302-.136.708-.313 1.002-.432a9.506 9.506 0 01-.212-.501zm4.42 3.908c-.277.253-.472.628-.48.943.455.162.91.279 1.366.363 1.573.29 1.814.095 1.795-.44-.018-.537-.944-.611-2.146-.749a3.131 3.131 0 01-.535-.117z" fill="#9d9d9d"/><path d="M47.278 88.547c-.103.139-.17.323-.2.547.175.122.333.236.443.327.602.5.799.4.89.305.092-.095.183-.256-.078-.468-.134-.108-.555-.383-1.055-.711z" fill="#949494"/><path d="M44.8 74.585c.89-.166 1.23-.127 1.23.24 0 .366-.157.425-.733.5-.576.075-.942.01-1.256.651-.314.64-2.303 6.947-2.277 8.333.026 1.386.524 3.172 1.649 3.704.562.265 2.115.622 2.934.568 1.083-.072 2-.35 2.3-.474.387-.16.765.284.327.472-.209.089-1.577.526-2.633.565-.731.026-2.144-.12-2.719-.355-1.204-.489-1.91-1.625-2.146-3.134-.235-1.508.105-3.825.524-5.176.418-1.351 1.203-4.051 1.517-4.718.315-.666.786-1.051 1.283-1.176z" fill="#631317"/><path d="M48.79 88.074a.451.451 0 00-.143.033 6.87 6.87 0 01-1.122.314c-.051.225-.01.433.113.538.653-.144 1.21-.326 1.336-.38.383-.165.142-.525-.184-.505z" fill="#b2b2b2"/><path d="M44.548 73.564c-.045.002-.104.01-.182.025-.315.059-1 .215-1.203.27-.204.054-.21.061-.192.218.01.101.08.128.257.093a61.02 61.02 0 001.249-.298c.222-.055.259-.076.231-.186-.02-.082-.026-.129-.16-.122zm1.232.69c-.064.002-.095.034-.143.109-.068.106-.053.114.04.185.09.071.764.423 1.045.542.281.12.27.07.341.015.072-.056.112-.142.013-.223-.098-.082-.948-.558-1.138-.603a.652.652 0 00-.158-.025z" fill="#bababa"/><path d="M35.572 75.665a.626.626 0 00-.089.007c-.418.069-.353.498.17.543.51.044 1.079.58 1.29 1.24a6.5 6.5 0 01.74-.34 11.339 11.339 0 00-.106-.27c-.319-.784-1.512-1.19-2.005-1.18z" fill="#d2d2d2"/><path d="M47.174 67.802c.591 0 .623.224.623.607 0 .384-.032 3.602-.048 3.97-.016.367-.128.527-.591.527-.464 0-2.51.016-2.78-.032-.272-.048-.464.064-.48-.591-.016-.656-.016-3.458 0-3.906.016-.447.096-.543.447-.575.352-.032 2.27 0 2.829 0z" fill="#6b2729"/><path d="M44.203 71.273c-.43-.011-.542.316-.69.655-.146.34-.192.622-.214 1.12-.023.496.17.87.463.926.294.056.554.056.927.045.79.011 1.006-.136 1.04-.475.033-.339.067-.768.045-1.04-.023-.27-.373-.53-.735-.53-.361 0-.35-.283-.361-.486-.012-.204-.046-.204-.475-.215zm.172 1.253l.19.001c.542.012.712.08.7.509-.011.43-.102.508-.836.52-.633.022-.655-.17-.655-.588 0-.366.19-.437.6-.442z" fill="#5d5d5d"/><path d="M43.887 71.304a1.575 1.575 0 00-.317.037c-.644.35-1.232.644-1.288 1.412-.057.769-.011 1.865.08 2.17.09.305.304.531.779.384.474-.147.859-.361.904-.621.045-.26.045-.724.056-1.187.012-.463-.011-1.989-.045-2.124-.013-.051-.084-.069-.169-.07zm-.452.727c.159.008.228.311.237.734.011.52.011 1.197 0 1.457s-.124.396-.328.509c-.203.113-.486.034-.508-.204a17.532 17.532 0 01-.034-1.4c.056-.713.26-.882.508-1.052a.209.209 0 01.125-.044z" fill="#646262"/><path d="M46.706 69.49c-.003.342.011.44-.21.664-.282.272-.745.791-1.23 1.017-.487.226-1.153.283-1.673.272-.52-.012-1.22-.34-.995-.927.226-.588 4.108-1.026 4.108-1.026z" fill="#882124"/><path d="M46.12 69.278c.671.097.654.192.494.416-.16.223-1.134 1.102-1.47 1.23-.335.128-.959.304-1.662.208s-1.102-.464-.75-.847c.35-.384.894-.8 1.15-.927.255-.128.22-.167.623-.176.403-.009.994.007 1.614.096z" fill="#c21b26"/><path d="M16.345 74.584c-.472 1.359-.772 2.736-1.159 4.587-.386 1.85-.579 3.935-1.266 5.64-.686 1.705-2.08 4.364-3.926 4.284-1.845-.08-1.717-.319-1.845-.016-.13.302-.108.409.3.532.408.123 2.296.245 2.96-.086.666-.332 2.769-2.68 3.284-4.747.515-2.067.88-5.033 1.244-6.262.365-1.228.88-3.145 1.46-3.604.579-.459-1.052-.328-1.052-.328z" fill="#621418" fill-opacity=".972"/><path d="M14.242 74.529c-1.287.748-3.605 2.605-4.913 6.122-1.31 3.516-1.953 5.778-2.017 6.573-.065.795.279 1.262.515 1.452.236.19.493.1.407-.242-.085-.342-.643-.442-.193-2.036s1.695-5.689 2.725-7.356c1.03-1.667 3.24-3.802 3.884-4.047.644-.246-.408-.466-.408-.466z" fill="#691618"/><path d="M18.169 72.905c.772.01.858.267.858.91 0 .644-.107 1.375-.901 1.43-.794.054-2.081-.013-2.94 0-.858.012-1.158-.112-1.094-1.165.064-1.052.193-1.011.815-1.106.623-.095 2.554-.123 3.262-.069z" fill="#6e1218"/><path d="M18.308 74.32c0-.172.065-.184.344-.198.278-.015.858-.024 1.19-.018.333.006.365.08.365.188 0 .107-.021.183-.3.198a18.45 18.45 0 01-1.363-.002c-.204-.019-.204-.05-.236-.168z" fill="#bebebe"/><path d="M8.302 88.93c-.093-.002-.105.035-.153.149-.13.302-.108.409.3.532.211.064.82.125 1.45.126a1.743 1.743 0 01-.035-.65c-1.041-.053-1.412-.154-1.562-.157zM7.903 87.766c-.149.043-.344.07-.551.093.095.418.31.685.475.817.236.19.493.1.407-.242-.048-.195-.25-.311-.331-.668z" fill="#aeaeae"/><path d="M17.734 67.378c.582 0 .614.22.614.598s-.032 3.548-.048 3.91c-.015.362-.126.52-.582.52-.457 0-2.472.015-2.74-.032-.267-.047-.456.063-.472-.583-.015-.645-.015-3.406 0-3.847.016-.44.095-.535.441-.566.347-.032 2.236 0 2.787 0z" fill="#6b2729"/><path d="M14.807 70.797c-.423-.011-.534.312-.679.646-.145.333-.19.612-.212 1.102-.022.49.168.857.457.912.29.056.545.056.913.045.779.011.99-.134 1.024-.468.033-.334.067-.757.044-1.024-.022-.267-.367-.523-.723-.523s-.345-.278-.356-.478c-.011-.2-.045-.2-.468-.212zm.17 1.234c.057 0 .12 0 .186.002.535.01.702.078.69.5-.01.424-.1.501-.823.512-.624.023-.646-.167-.646-.578 0-.36.188-.431.592-.436z" fill="#5d5d5d"/><path d="M14.496 70.828c-.138-.004-.312.036-.312.036-.635.345-1.214.634-1.27 1.391-.055.757-.01 1.837.079 2.137.089.301.3.524.768.379.467-.145.846-.356.89-.612.045-.256.045-.713.056-1.17.011-.456-.011-1.958-.045-2.092-.012-.05-.083-.067-.166-.07zm-.445.716c.156.008.224.306.233.722.011.512.011 1.18 0 1.436s-.122.39-.323.501c-.2.111-.479.033-.5-.2a17.272 17.272 0 01-.034-1.38c.056-.702.256-.869.5-1.036a.206.206 0 01.124-.043z" fill="#646262"/><path d="M17.273 69.041c-.003.337.01.433-.206.654-.279.267-.735.78-1.214 1.002-.478.222-1.135.278-1.647.267-.512-.011-1.202-.334-.98-.913.223-.579 4.047-1.01 4.047-1.01z" fill="#882124"/><path d="M16.695 68.832c.662.095.645.189.488.41-.158.22-1.118 1.085-1.449 1.211-.33.126-.944.3-1.637.205-.692-.094-1.086-.457-.74-.834.347-.378.882-.787 1.134-.913.252-.126.217-.165.614-.174.396-.008.979.007 1.59.095z" fill="#c21b26"/><path d="M14.302 67.17c-1.033.001-1.87.006-2.34.013-1.438.018-4.552.08-6.375.153l-.019.552c.118-.004.23-.01.362-.01 1.737 0 8.787-.2 12.362-.15 3.574.05 14.422.224 16.134.249 1.713.025 19.896.173 20.653.235.206.017.357.053.473.105l.003-.72c-1.22-.05-8.966-.118-10.356-.142-1.464-.024-18.021-.148-20.826-.223-2.104-.056-6.972-.07-10.07-.063z" fill="#a6000b"/><path d="M55.555 67.597l-.003.72c.31.138.347.397.347.777 0 .52-.137 5.262-.113 6.429.025 1.166.497 1.204.92 1.216.421.012.346-.248.346-.484 0-.235.038-.434-.26-.496-.347-.037-.397-.26-.397-.832 0-.57.074-5.237.099-6.081.025-.844-.224-1.192-.72-1.242-.025-.003-.154-.005-.22-.008z" fill="#dedede"/><path d="M79.365 37.486c.099-1.208.173-1.578.937-1.578.765 0 4.685.197 5.203.296.518.098 1.06.025 1.134 1.183.074 1.16.05 4.66.025 5.549-.025.887-.296 1.06-.962 1.158-.666.1-4.561-.074-5.301-.172-.74-.099-.987-.197-1.11-1.085-.123-.888.025-4.439.074-5.35z" fill="#d3d3d3"/><path d="M79.809 37.61c.05-.79.099-1.184.814-1.16.715.025 4.167.272 4.685.346.518.074.937.27.986 1.11.05.838-.05 4.142-.099 4.684-.049.543-.172.839-.74.863-.566.025-4.167-.098-4.783-.197-.616-.099-.937-.542-.937-1.159 0-.616.025-3.847.074-4.488z" fill="#1f1f1f"/><path d="M80.43 37.038c-.068.003-.068.064-.074.21-.005.146-.005 4.983-.005 5.095 0 .112.021.14.063.151.043.012.386.028.433.032.048.003.064-.022.064-.151l-.003-1.684c0-.087.016-.103.074-.099.058.005.114.026.647.03.534.004.75-.637.75-1.82s-.39-1.6-.903-1.672a25.082 25.082 0 00-1.046-.092zm.792.987c.082.004.167.01.233.02.132.017.396.192.385.796-.01.603-.195.823-.375.836-.18.013-.417-.021-.475-.025-.058-.005-.074-.049-.08-.162a49.5 49.5 0 01-.004-1.27c.01-.189-.011-.199.1-.2.055 0 .135.002.216.005zM83.667 37.366c.079.006.084.015.084.179 0 .164.005 4.88 0 5.017-.005.138.005.148-.237.139-.243-.01-.286-.012-.291-.134-.005-.12 0-3.126 0-3.316 0-.19-.005-.242-.095-.248-.09-.007-.417-.048-.454-.042-.037.006-.053-.047-.058-.177-.006-.13-.006-.389-.006-.458s.016-.102.106-.096c.09.007.375-.025.48-.267a1.38 1.38 0 00.127-.51c.006-.103.016-.12.074-.115.058.004.19.022.27.028zM85.696 37.59c.116 0 .127-.034.132.398.005.432 0 .484-.069.496-.068.012-.718-.026-.85-.044s-.148.024-.164.152a15.03 15.03 0 00-.063.808c0 .112.026.131.105.042.08-.09.29-.238.54-.091.247.147.59.587.596 1.546.005.959-.29 2.138-.882 2.06-.592-.077-.835-.707-.877-1.185-.042-.478-.063-.488.222-.45.285.037.27.062.29.228.022.165.085.532.296.556.212.024.417-.34.433-1.005.016-.664-.163-.91-.348-.949-.185-.04-.328.15-.349.243-.021.093-.032.136-.237.086-.206-.05-.265-.036-.26-.226.006-.19.149-2.338.17-2.544.02-.206.037-.196.105-.2a26.65 26.65 0 011.21.079z" fill="#d3d3d3"/><path d="M74.91 16.893c.096-2.318.434-2.849 1.98-2.849 1.545 0 10.864.773 12.506 1.063 1.642.29 1.884 1.207 1.98 3.67.097 2.462 0 7.87-.096 9.416-.097 1.545-.194 2.221-2.029 2.173-1.835-.049-11.058-.532-12.554-.725-1.497-.193-1.787-1.014-1.884-2.897-.096-1.883.049-8.112.097-9.85z" fill="#0b0a09"/><path d="M75.634 17.183c.193-1.738.435-2.076 1.642-2.028 1.207.048 9.947.773 11.251.966 1.304.193 2.076.483 2.173 2.607.097 2.125-.097 7.823-.241 8.934-.145 1.11-.242 1.593-1.497 1.593-1.256 0-10.334-.435-11.493-.628-1.159-.193-1.787-.434-1.883-1.883-.097-1.449-.097-7.726.048-9.561z" fill="#2e2e2e"/><path d="M31.012 18.768c.593.551.657.586 1.45.58.893-.005 1.01-.102 1.25-.314.242-.212 1.227.06 1.205 1.336-.022 1.276-.16 1.768-.576 1.782-.417.015-.572.003-.857-.262-.285-.264-1.732-.274-2.313.212-.638.033-.159-3.334-.159-3.334z" fill="#1a1a1a"/><path d="M30.442 18.586c-.987-.017-1.47.753-1.513 1.79-.044 1.038.373 2.212 1.25 2.227.877.015 1.404-.798 1.448-2.18.043-1.384-.593-1.806-1.185-1.837z" fill="#151515"/><path d="M35.006 23.99c.016-.462.016-.574.255-.592.24-.019.462-.1.494-.515.032-.414.112-.67.112-.75 0-.08 2.23-.692 2.262-.517.031.175.382.553.78.852.398.299.701.407.717 1.155.016.749.032.956-.335.976-.366.02-3.44.083-3.823.071-.382-.012-.462-.027-.462-.68z" fill="#1d1d1d"/><path d="M33.767 18.018c.704.654.78.696 1.722.69 1.062-.008 1.2-.123 1.487-.375.287-.252 1.458.072 1.432 1.588-.026 1.517-.19 2.102-.685 2.12-.495.017-.68.002-1.018-.312-.34-.314-2.06-.327-2.75.25-.758.04-.188-3.961-.188-3.961z" fill="#1f1f1f"/><path d="M33.089 17.8c-1.174-.02-1.747.896-1.8 2.13-.052 1.232.444 2.629 1.487 2.646 1.043.018 1.669-.948 1.72-2.592.053-1.645-.703-2.146-1.407-2.184z" fill="#131313"/><path d="M36.985 18.672c.608.557.698.804 1.51.84.81.038 1.058.035 1.306-.193s1.217-.418 1.194.911c-.022 1.33-.27 1.445-.698 1.472-.428.027-.609-.152-.901-.419-.293-.267-1.848.064-2.23.857-.634-.013-.18-3.468-.18-3.468z" fill="#1a1a1a"/><path d="M36.4 18.498c-1.014.01-1.51.827-1.555 1.909-.045 1.082.383 2.294 1.284 2.284.901-.01 1.442-.87 1.487-2.313.045-1.442-.608-1.863-1.217-1.88z" fill="#131313"/><path d="M99.414 22.153c-.486.02-.508.041-.508.25 0 .21.055.211.475.236.42.024 11.098.804 13.373.95 2.275.146 59.19 4.543 59.919 4.592.729.048 1.016.558 1.06 1.265.044.707-.243 1.478-.817 1.475-.574-.003-.574.593-.199.617.375.024 1.612.076 1.634-1.735.022-1.811-.574-2.212-1.612-2.262-1.038-.05-72.31-5.371-73.325-5.388z" fill="#bc2f32"/><path d="M179.035 88.63c.02-.615.08-.595.794-.595.715 0 4.707 0 5.243.06.536.06.774.159.774.576 0 .417-.198.556-.675.595-.476.04-5.103-.02-5.54-.04-.437-.02-.576-.059-.596-.595z" fill="#b3b3b3"/><path d="M85.524 85.147c-.548-.22-.768-.695.037-.732.804-.036 2.925.841 2.962 2.268.037 1.426-.695 2.048-1.426 2.23-.732.183-1.39.403-.951-.255.439-.659.33-2.634-.622-3.511z" fill="#292929"/><path d="M76.107 84.214c-.95 0-1.462.256-1.956 1.372-.494 1.115-.213 3.685-.006 4.228.207.543 1.009.569 1.41.569.4 0-.57-.854-.57-.854l-.051-2.948z" fill="#1f1f1f"/><path d="M76.04 84.22c-.907-.003-1.43 1.224-1.481 2.982-.052 1.758-.026 3.129.905 3.18.93.052 1.732-.827 1.862-1.861.129-1.035.218-4.294-1.286-4.3z" fill="#2f2f2f"/><path d="M78.205 85.909c-1.577 0-1.758 0-2.224.052-.465.051-.905.594-.905 1.474 0 .879-.026 1.758.646 1.81a63.46 63.46 0 002.56.103c.233 0-.077-3.439-.077-3.439z" fill="#191919"/><path d="M77.403 87.486c.052-1.24.233-1.577.724-1.577.492 0 .88.465.931 1.68.052 1.216-.413 1.811-.801 1.785-.388-.026-.75-.801-.854-1.888z" fill="#2e2e2e"/><path d="M79.088 80.1c0-1.828.512-1.938 1.463-1.975.95-.036 1.572.549 1.572 1.792 0 1.244-.11 1.829-.84 2.158-.732.329-.988.439-1.025.914-.036.476-.548.549-.841-.146-.293-.695-.33-1.353-.33-2.743zM78.027 77.284c-.365 0-.658.622-.713 1.573-.055.95.293 1.353.585 1.408.293.055.659-.33.768-1.335.11-1.006-.256-1.591-.64-1.646zM99.15 83.53c-1.628-.052-2.507 0-2.714.776-.207.776-.492 3-.259 4.603.233 1.603 2.302 1.965 3 1.94.698-.027-.026-7.319-.026-7.319z" fill="#0d0d0d"/><path d="M99.1 83.53c.956.026 1.706 1.215 1.758 3.491.051 2.276-.828 3.75-1.604 3.775-.775.026-1.887-1.448-1.836-3.723.052-2.276.75-3.569 1.681-3.543z" fill="#191919"/><path d="M99.229 84.202c-.906.026-1.19 1.526-1.164 2.819.026 1.293.336 3.103 1.034 3.155.698.051 1.164-1.63 1.19-3.13.026-1.499-.647-2.792-1.06-2.844z" fill="#242424"/><path d="M93.824 80.246c.776 0 .698-.828.698-1.5s-.233-1.552-.646-1.552c-.414 0-.724.75-.647 1.604.078.853.155 1.474.595 1.448z" fill="#1b1b1b"/><path d="M70.078 71.968c-1.038.018-2.29-.286-2.29 1.395 0 1.682.34 1.628 1.145 1.7.805.071 1.36.16 1.36-.108s-.215-2.987-.215-2.987z" fill="#2a2a2a"/><path d="M69.897 73.621c-.05 1.417 0 1.695-.278 1.771-.279.076-.354.531-.05.557.303.025.935-.051.96-1.139.026-1.087-.004-13.27-.04-15.523-.036-2.254.537-22.394.716-24.254.178-1.86.321-2.719 1.931-2.504 1.61.215 1.753 1.037 1.753 3.04 0 2.004-.25 23.539-.322 24.47-.071.93-.071 1.34-.393 1.358-.322.018-.412.68-.09.68.322 0 1.056-.071 1.18-1.735.126-1.663.173-24.587.223-26.054.05-1.467.101-2.429-2.125-2.58-2.226-.152-2.428.506-2.63 2.276-.203 1.77-.911 22.36-.962 26.358-.05 3.996.102 11.838.127 13.28z" fill="#dedede"/><path d="M82.988 63.573c.055-.435.028-.475.3-.475.27 0 3.963.136 4.262.15.299.013.353.053.394.46.04.408-.027 1.956-.027 2.309 0 .353-.095.57-.285.57-.19 0-3.951-.068-4.263-.082-.313-.013-.408-.135-.421-.407-.014-.271.013-2.104.04-2.525z" fill="#dfdfdf"/><path d="M160.66 88.463c-.205-.178-.589-.348-.631-.675-.043-.327-1.08.348-1.428.17-.348-.177-1.015-.425-1.055-1.459-.04-1.034-.271-2.701.693-2.822.964-.12 2.109.804 1.998.512-.11-.291.342-.944.633-1.275.291-.332 1.888 1.105 1.888 1.105l.331 3.193-1.024.924z" fill="#131313"/><path d="M161.39 84.398c-.662-.773-.924-1.694.014-1.75.939-.054 2.788 1.75 2.843 3.102.056 1.353-.302 2.28-1.323 2.639s-2.803.37-2.14-.264c.662-.635 1.103-1.27 1.076-2.043-.028-.773 0-1.104-.47-1.684z" fill="#292929"/><path d="M158.63 84.757c-.725-.66-.8-1.104.056-1.16.855-.054 2.208.663 2.318 2.016.11 1.352-.276 2.07-1.132 2.29-.855.222-1.831.125-1.325-.386.809-.814.67-2.226.083-2.76zM156.008 83.432c.11 1.629.981 2.487 1.172 2.79.259.412 1.092.32.773-.358-.311-.662-1.117-1.852-.896-3.012.22-1.159-1.049.58-1.049.58z" fill="#292929"/><path d="M143.393 76.89c.056-1.656.221-1.711 1.38-1.711 1.16 0 4.914.165 8.005.276 3.092.11 15.127-.11 17.004-.11 1.877 0 2.153.22 2.208 2.263.055 2.043-.055 2.429-.441 2.484-.387.055-.718.994-.773 2.484-.056 1.491-.056 5.687-.11 6.79-.056 1.105-.94 1.547-2.706 1.547s-2.484-.829-2.65-1.436c-.165-.607-.993-6.735-4.03-6.735-3.036 0-3.975.11-5.3 1.546-1.325 1.435-2.373 1.049-3.533-.055-1.16-1.105-2.098-2.54-3.588-2.595-1.49-.055-2.65 1.767-2.43 5.134.222 3.368.553 4.803-.22 4.803s-1.325-1.215-1.877-3.699-.939-9.109-.939-10.986z" fill="#2c2c2c"/><path d="M169.554 83.194c-1.587.042-2.687.634-2.645 3.83.042 3.195 1.545 3.301 2.666 3.322 1.122.021-.02-7.152-.02-7.152z" fill="#0d0d0d"/><path d="M169.506 83.184c1.049-.055 1.518 1.6 1.518 3.947 0 2.346-.552 3.202-1.38 3.257-.828.055-1.656-1.38-1.656-3.671s.524-3.533 1.518-3.533z" fill="#191919"/><path d="M169.672 84.012c-.881.055-1.2 1.573-1.14 2.898.06 1.325.394 2.595.974 2.595s1.152-.773 1.046-2.512c-.107-1.74-.244-2.954-.88-2.981z" fill="#242424"/><path d="M149.797 82.981c-.737-.008-1.208.087-1.444.707-.235.62-.542 1.591-.53 3.2.01 1.61.455 3.297 1.875 3.297s.122-1.587.122-1.587z" fill="#0d0d0d"/><path d="M149.715 82.99c1.048-.055 1.518 1.601 1.518 3.948 0 2.346-.552 3.202-1.38 3.257-.829.055-1.657-1.38-1.657-3.671s.525-3.534 1.519-3.534z" fill="#191919"/><path d="M149.865 83.763c-.761.056-1.03 1.574-.972 2.899.058 1.325.351 2.594.853 2.594.501 0 .993-.773.893-2.512-.1-1.739-.224-2.953-.774-2.98z" fill="#242424"/><path d="M165.124 77.6c-.368 0-.693.304-.693.997 0 .694.173 1.149.52 1.17.347.022.52-.476.52-1.04 0-.563.065-1.127-.347-1.127zM160.27 77.427c-.586.021-.478.693-.478 1.409 0 .715-.021 1.322.455 1.365.477.043.629-.672.629-1.474 0-.802-.282-1.322-.607-1.3zM157.018 77.34c-.304.065-.369.303-.369.78 0 .477.044.997.39 1.019.347.022.456-.39.456-.759 0-.368-.022-.997-.477-1.04z" fill="#0d0d0d"/></svg>