<?xml version="1.0" encoding="UTF-8" standalone="no"?>
<!-- Created with Inkscape (http://www.inkscape.org/) -->

<svg
   xmlns:dc="http://purl.org/dc/elements/1.1/"
   xmlns:cc="http://creativecommons.org/ns#"
   xmlns:rdf="http://www.w3.org/1999/02/22-rdf-syntax-ns#"
   xmlns:svg="http://www.w3.org/2000/svg"
   xmlns="http://www.w3.org/2000/svg"
   xmlns:sodipodi="http://sodipodi.sourceforge.net/DTD/sodipodi-0.dtd"
   xmlns:inkscape="http://www.inkscape.org/namespaces/inkscape"
   width="1233.0176mm"
   height="488.23764mm"
   viewBox="0 0 1233.0176 488.23764"
   version="1.1"
   id="svg8"
   inkscape:version="0.92.2 5c3e80d, 2017-08-06"
   sodipodi:docname="button.svg">
  <defs
     id="defs2" />
  <sodipodi:namedview
     id="base"
     pagecolor="#ffffff"
     bordercolor="#666666"
     borderopacity="1.0"
     inkscape:pageopacity="0.0"
     inkscape:pageshadow="2"
     inkscape:zoom="0.075918083"
     inkscape:cx="2502.7997"
     inkscape:cy="1186.5754"
     inkscape:document-units="mm"
     inkscape:current-layer="layer1"
     showgrid="false"
     inkscape:window-width="1440"
     inkscape:window-height="775"
     inkscape:window-x="0"
     inkscape:window-y="1"
     inkscape:window-maximized="1"
     inkscape:snap-global="false" />
  <metadata
     id="metadata5">
    <rdf:RDF>
      <cc:Work
         rdf:about="">
        <dc:format>image/svg+xml</dc:format>
        <dc:type
           rdf:resource="http://purl.org/dc/dcmitype/StillImage" />
        <dc:title></dc:title>
      </cc:Work>
    </rdf:RDF>
  </metadata>
  <g
     inkscape:label="Layer 1"
     inkscape:groupmode="layer"
     id="layer1"
     transform="translate(644.2142,168.10559)">
    <path
       style="fill:#111111;fill-opacity:1;stroke:none;stroke-width:0.26458332px;stroke-linecap:butt;stroke-linejoin:miter;stroke-opacity:1"
       d="m -255.53559,260.89736 c 3.98645,39.2 11.29493,57.80341 62.45426,56.47459 51.15935,-1.32881 59.13225,-32.55594 60.46107,-51.15935 1.32879,-18.60339 -122.91533,-5.31524 -122.91533,-5.31524 z"
       id="path1297"
       inkscape:connector-curvature="0" />
    <path
       style="fill:#191919;fill-opacity:1;stroke:none;stroke-width:0.26458332px;stroke-linecap:butt;stroke-linejoin:miter;stroke-opacity:1"
       d="m -493.26987,271.50217 c 17.14795,0 26.30918,0.4698 31.24215,-0.46982 4.93297,-0.93961 56.84664,-98.4245 56.84664,-98.4245 l -74.46439,-8.92635 c 0,0 -29.59783,104.53201 -13.6244,107.82067 z"
       id="path1293"
       inkscape:connector-curvature="0"
       sodipodi:nodetypes="ccccc" />
    <path
       style="fill:#2a2a2a;fill-opacity:1;stroke:none;stroke-width:0.26458332px;stroke-linecap:butt;stroke-linejoin:miter;stroke-opacity:1"
       d="m -440.88641,190.9303 c 12.60495,0.0382 24.73039,-0.294 26.80666,0.0382 2.07627,0.33221 10.42554,38.60343 10.42554,38.60343 l -13.85931,1.05706 z"
       id="path1295"
       inkscape:connector-curvature="0" />
    <path
       style="fill:#151515;fill-opacity:1;stroke:none;stroke-width:0.26458332px;stroke-linecap:butt;stroke-linejoin:miter;stroke-opacity:1"
       d="m -441.12132,318.01304 c 31.59452,-0.4698 61.89704,-0.11745 69.7663,-1.40941 7.86927,-1.29199 22.55073,-10.80556 21.37622,-43.45715 -1.17451,-32.65157 -65.30314,-12.21497 -65.30314,-12.21497 z"
       id="path1291"
       inkscape:connector-curvature="0" />
    <path
       style="fill:#212121;fill-opacity:1;stroke:none;stroke-width:0.26458332px;stroke-linecap:butt;stroke-linejoin:miter;stroke-opacity:1"
       d="m -440.88641,190.9303 c -20.44171,-0.10874 -31.00725,29.83273 -30.77235,59.19566 0.23491,29.36293 8.92633,67.88708 31.71196,67.88708 22.78563,0 32.88648,-37.34964 32.88648,-64.59845 0,-27.24877 -10.09072,-62.35803 -33.82609,-62.48429 z"
       id="path1267"
       inkscape:connector-curvature="0"
       sodipodi:nodetypes="sssss" />
    <path
       style="fill:#111111;fill-opacity:1;stroke:none;stroke-width:0.26458332px;stroke-linecap:butt;stroke-linejoin:miter;stroke-opacity:1"
       d="m 267.0323,261.1149 c 3.48512,33.54424 13.0692,53.58365 51.40548,53.58365 38.33627,0 47.04905,-42.69266 46.17778,-59.24695 -0.87128,-16.55432 -97.58326,5.6633 -97.58326,5.6633 z"
       id="path1265"
       inkscape:connector-curvature="0" />
    <path
       style="fill:#191919;fill-opacity:1;stroke:none;stroke-width:0.26458332px;stroke-linecap:butt;stroke-linejoin:miter;stroke-opacity:1"
       d="m -27.770093,277.62204 c 20.022846,0.30803 30.8043786,0.92413 35.4250354,0.30803 4.6206566,-0.61609 61.6087316,-103.8107 61.6087316,-103.8107 0,0 12.696482,-15.39847 -49.903089,-16.01827 -62.224803,-0.61609 -53.291554,68.07766 -47.130678,119.52094 z"
       id="path1263"
       inkscape:connector-curvature="0"
       sodipodi:nodetypes="cccsc" />
    <path
       style="fill:#2a2a2a;fill-opacity:1;stroke:none;stroke-width:0.26458332px;stroke-linecap:butt;stroke-linejoin:miter;stroke-opacity:1"
       d="m 38.103748,182.26414 c 25.15817,0.21783 27.118547,0 30.385861,1.52474 3.267286,1.52474 -0.544566,18.07903 -0.544566,18.07903 z"
       id="path1261"
       inkscape:connector-curvature="0" />
    <path
       style="fill:#151515;fill-opacity:1;stroke:none;stroke-width:0.26458332px;stroke-linecap:butt;stroke-linejoin:miter;stroke-opacity:1"
       d="m 36.611048,320.13206 c 23.87338,-0.15401 35.887077,-0.46207 42.355981,-1.38621 6.46893,-0.92411 18.020559,-22.0251 20.792942,-40.81578 2.772409,-18.79066 -27.877928,-25.87565 -27.877928,-25.87565 0,0 -14.324039,66.38338 -35.270995,68.07764 z"
       id="path1138"
       inkscape:connector-curvature="0" />
    <path
       style="fill:#d1d1d1;fill-opacity:1;stroke:none;stroke-width:0.26458332px;stroke-linecap:butt;stroke-linejoin:miter;stroke-opacity:1"
       d="m -176.24711,-96.034923 c 0,-2.772384 0.15401,-5.082697 0.77009,-7.393037 0.61608,-2.31032 2.61837,-4.46662 22.17915,-7.08499 19.56078,-2.6184 44.20425,-3.08044 50.0571,-2.92642 5.852823,0.15401 13.707932,4.77467 13.707932,4.77467 l -0.154014,5.39078 z"
       id="path1132"
       inkscape:connector-curvature="0" />
    <path
       style="fill:#3e3e3e;fill-opacity:1;stroke:none;stroke-width:0.26458332px;stroke-linecap:butt;stroke-linejoin:miter;stroke-opacity:1"
       d="m -91.227071,-110.821 c -0.924137,10.47347 -2.156301,12.013693 2.464355,11.397611 4.620631,-0.616081 349.013436,-29.264161 349.013436,-29.264161 l -12.62978,-10.16542 -110.27963,8.6252 z"
       id="path1130"
       inkscape:connector-curvature="0" />
    <path
       style="fill:#e9e9e9;fill-opacity:1;stroke:none;stroke-width:0.26458332px;stroke-linecap:butt;stroke-linejoin:miter;stroke-opacity:1"
       d="m 188.52495,-131.33418 c -13.00212,0.90924 -285.682842,24.54947 -292.41122,25.09502 -6.72836,0.54554 -6.00096,-2.00033 -5.63727,-5.09175 0.3637,-3.09142 4.18248,-17.27554 6.9102,-22.54911 2.727726,-5.2736 12.001954,-10.00165 37.27879,-12.36568 25.276863,-2.36399 211.67082,-19.094 224.58201,-19.82139 12.91119,-0.72739 28.1864,-1.81848 34.00554,-2.00033 5.81912,-0.18185 -4.72805,36.73324 -4.72805,36.73324 z"
       id="path1128"
       inkscape:connector-curvature="0" />
    <path
       style="fill:#191919;fill-opacity:1;stroke:none;stroke-width:0.26458332px;stroke-linecap:butt;stroke-linejoin:miter;stroke-opacity:1"
       d="m -631.45083,-35.428592 -0.54098,179.605382 735.73289,-24.3441 2.70491,-206.113405 z"
       id="path932"
       inkscape:connector-curvature="0" />
    <path
       style="fill:#242424;fill-opacity:1;stroke:none;stroke-width:0.26458332px;stroke-linecap:butt;stroke-linejoin:miter;stroke-opacity:1"
       d="m 579.93882,-46.924421 c 5.40549,8.208328 7.57369,15.417932 8.38517,25.290833 0.81148,9.872874 0.40574,17.5818535 0.13526,22.7211463 -0.27049,5.1393197 -2.16393,6.4917514 -7.30324,7.1679858 -5.13932,0.6762362 -7.43846,-0.540969 -8.38518,-5.2745481 -0.94672,-4.7335829 -4.59834,-41.249732 -4.73358,-46.794763 -0.13525,-5.545058 0.94671,-5.545058 4.32784,-5.815542 3.38111,-0.270483 5.67294,-0.181485 7.57373,2.704888 z"
       id="path878"
       inkscape:connector-curvature="0"
       sodipodi:nodetypes="ssssssss" />
    <path
       style="fill:#1c1c1c;fill-opacity:1;stroke:none;stroke-width:0.99999994px;stroke-linecap:butt;stroke-linejoin:miter;stroke-opacity:1"
       d="m 4618.3672,1455.4316 c -16.8773,-0.042 -42.3144,1.1875 -48.5762,1.6348 -7.1563,0.5111 -7.1571,57.2502 1.0215,59.2949 8.1786,2.0446 11.7572,5.1122 32.7148,4.0899 20.9577,-1.0223 41.405,-0.5129 41.9161,-5.1133 0.5111,-4.6005 -0.5126,-5.6222 11.2441,-6.6445 11.7567,-1.0224 48.0496,-9.7115 68.4961,-13.8008 20.4464,-4.0893 39.3596,6.1327 41.4043,24.0234 2.0446,17.8907 -2.0441,110.4124 -3.0664,126.7695 0,16.3572 1.5337,15.8464 5.623,16.3575 4.0893,0.5112 4.0896,-1.0235 5.6231,-15.336 1.5334,-14.3126 8.1772,-158.4591 7.666,-167.6601 -0.5111,-9.2009 2.0459,-14.8249 -9.7109,-15.336 -11.7567,-0.5112 -104.7893,-2.0444 -117.5684,-1.5332 -12.779,0.5111 -14.3121,-6.1334 -30.1582,-6.6445 -1.9808,-0.064 -4.2179,-0.096 -6.6289,-0.1016 z m 42.1543,16.459 c 13.8013,0 13.8288,0.5045 13.5469,14.3125 -0.2556,12.5235 -2.3005,12.5226 -14.5684,11.7559 -12.2679,-0.7668 -11.3515,0.257 -11.502,-14.3125 -0.1055,-10.2354 -1.2779,-11.7559 12.5235,-11.7559 z m 47.3027,0.7012 c 17.2158,0.048 46.6878,0.3845 51.8633,0.5762 6.9007,0.2556 7.6665,0.7669 8.1777,10.9902 0.5112,10.2232 -0.2554,11.7556 -5.3672,7.9219 -5.1115,-3.8337 -7.6668,-9.4554 -17.3789,-9.711 -9.7121,-0.2556 -30.4146,4.8547 -41.6601,7.6661 -11.2456,2.8114 -14.3125,2.5568 -14.3125,-6.1329 0.2555,-10.4788 0.2552,-10.9904 6.9004,-11.2461 1.6612,-0.064 6.0387,-0.08 11.7773,-0.064 z"
       transform="matrix(0.26458333,0,0,0.26458333,-677.43414,-462.32898)"
       id="path880"
       inkscape:connector-curvature="0" />
    <path
       style="fill:#161616;fill-opacity:1;stroke:none;stroke-width:0.26458332px;stroke-linecap:butt;stroke-linejoin:miter;stroke-opacity:1"
       d="m 99.868212,118.61045 c 0,-15.87503 2.486448,-197.76837 2.486448,-201.976197 0,-4.207854 114.18541,-6.88557 114.18541,-6.88557 l -0.5738,38.444355 -1.72138,187.057502 z"
       id="path861"
       inkscape:connector-curvature="0" />
    <path
       style="fill:#d1d1d1;fill-opacity:1;stroke:none;stroke-width:0.26458332px;stroke-linecap:butt;stroke-linejoin:miter;stroke-opacity:1"
       d="m -444.09108,-75.395995 c 0,-3.542506 0.15403,-6.160875 0.92413,-8.163136 0.77011,-2.002287 11.55164,-5.544794 30.65034,-7.393067 19.0987,-1.848247 56.52603,-0.770096 68.84775,0.924137 12.32175,1.694233 14.6321,3.080438 14.78611,4.928711 0.15401,1.848247 -115.20833,9.703355 -115.20833,9.703355 z"
       id="path1134"
       inkscape:connector-curvature="0" />
    <path
       style="fill:#212121;fill-opacity:1;stroke:none;stroke-width:0.26458332px;stroke-linecap:butt;stroke-linejoin:miter;stroke-opacity:1"
       d="m 36.611048,320.13206 c 30.18827,-0.61608 37.889365,-42.81808 37.58131,-76.08678 -0.308028,-33.26871 -4.928684,-61.91676 -36.965228,-61.91676 -32.0365432,0 -38.8135012,40.9698 -38.5054733,64.99719 0.30805436,24.0274 4.6206568,72.08221 37.8893913,73.00635 z"
       id="path1136"
       inkscape:connector-curvature="0" />
    <path
       style="fill:#e1e1e1;fill-opacity:1;stroke:none;stroke-width:0.26458332px;stroke-linecap:butt;stroke-linejoin:miter;stroke-opacity:1"
       d="m 212.93477,129.35711 c -13.36739,-1.88716 -99.86232,-11.95203 -105.68106,-12.58108 -5.81876,-0.62905 -7.23413,-0.78632 -18.871625,-0.15727 -11.637499,0.62906 -706.899405,20.75879 -710.988275,21.07332 -4.08885,0.31452 -4.56063,0.15726 -4.7179,-3.30254 -0.15726,-3.4598 1.2581,-155.690861 1.41537,-158.993394 0.15726,-3.302533 0.62907,-3.302533 5.18969,-3.774325 4.56065,-0.471789 826.26242,-58.50202 830.03674,-58.816546 3.77433,-0.314529 3.93159,-0.471792 6.44781,-0.629055 2.51621,-0.157263 59.28832,-45.60641 25.94847,-43.24746 -33.33986,2.35895 -849.69468,66.679722 -864.16292,68.566884 -14.46823,1.887162 -20.75878,6.29054 -21.5451,26.420267 -0.78631,20.129727 0.78632,266.089839 0.78632,276.154699 0,10.06486 -0.62905,11.16571 6.60508,13.3674 7.23411,2.20169 27.04931,10.06486 33.18259,12.26654 6.13328,2.20171 30.35186,5.97602 41.83211,5.81875 11.48021,-0.15724 61.96181,-0.15724 67.15148,0 5.1897,0.15727 5.34697,-0.31451 5.6615,-4.08885 0.31454,-3.77431 -0.78631,-38.21502 3.77434,-58.65927 4.56062,-20.44426 9.75032,-34.44071 19.8152,-36.79966 10.06486,-2.35895 25.00487,-1.7299 31.76722,-0.78632 6.76233,0.94358 13.68193,11.6375 16.98445,24.06131 3.30253,12.42382 7.86318,33.65439 8.33496,48.59442 0.47181,14.94004 0.47181,23.27501 0.47181,26.89205 0,3.61707 0,3.77434 3.30253,3.77434 3.30252,0 372.557213,3.30253 376.017011,3.30253 3.459796,0 3.302533,0.31453 3.459796,-3.61707 0.157264,-3.93158 -0.629054,-40.41671 0.471791,-53.94137 1.100844,-13.52466 5.346959,-31.76723 11.480235,-43.0902 6.1332767,-11.32297 7.548648,-13.99645 17.1417215,-14.94003 9.5930735,-0.94358 26.7347945,-1.57263 35.0697595,-0.78632 8.334965,0.78632 11.322973,1.7299 16.19814,11.16571 4.875168,9.43581 13.681925,30.66638 15.569086,47.33631 1.887162,16.66993 2.830743,44.97736 3.145272,51.58242 0.314526,6.60508 1.258107,6.60508 5.504222,6.60508 4.246113,0 120.463836,0.15727 127.697956,0 7.23412,-0.15727 8.49223,-0.62904 10.69392,-1.02222 2.20169,-0.39317 -1.96579,-1.41536 -1.96579,-1.41536 0,0 0.87335,-146.28383 -3.22391,-146.33369 z"
       id="path859"
       inkscape:connector-curvature="0" />
    <path
       style="fill:#171717;fill-opacity:1;stroke:none;stroke-width:0.26458332px;stroke-linecap:butt;stroke-linejoin:miter;stroke-opacity:1"
       d="m 212.56688,141.13463 c -0.10208,-2.34767 0.15311,-3.47048 -0.81659,-4.08292 -0.96969,-0.61243 -0.76554,-2.60285 -0.71451,-4.23602 0.051,-1.63317 -0.28051,-31.4139 -0.28051,-41.229903 0,-9.815997 1.44353,-76.507048 1.73223,-87.333517 0.28871,-10.8264691 0.72177,-60.483874 1.29918,-65.969284 0.57741,-5.485414 12.12564,-2.309649 12.5587,-0.577414 0.43306,1.732235 10.97082,30.458468 10.97082,30.458468 l 8.22812,62.937873 5.05235,76.651407 -1.44353,31.61328 z"
       id="path2290"
       inkscape:connector-curvature="0" />
    <path
       style="fill:#292929;fill-opacity:1;stroke:none;stroke-width:0.26458332px;stroke-linecap:butt;stroke-linejoin:miter;stroke-opacity:1"
       d="m 247.62893,138.9911 c -0.20415,-15.10679 -3.26634,-72.471779 -4.28706,-86.557844 -1.02073,-14.086064 -6.32853,-71.04276 -12.04461,-90.844908 -5.71608,-19.80215 -6.73681,-24.497504 -7.75754,-27.55969 -1.02073,-3.06219 9.18656,1.020728 10.00314,5.511937 0.81659,4.491209 10.2073,40.829172 10.2073,40.829172 l 7.1451,54.098652 5.92023,108.401451 z"
       id="path2288"
       inkscape:connector-curvature="0" />
    <path
       style="fill:#dddddd;fill-opacity:1;stroke:none;stroke-width:0.26458332px;stroke-linecap:butt;stroke-linejoin:miter;stroke-opacity:1"
       d="m 212.70116,208.19178 c -0.24364,3.16737 -0.12182,5.72563 -0.24364,7.24841 -0.12183,1.52277 12.73039,1.70551 12.73039,1.70551 l 33.68378,-1.52278 -2.1928,-6.76112 z"
       id="path2028"
       inkscape:connector-curvature="0" />
    <path
       style="fill:#171717;fill-opacity:1;stroke:none;stroke-width:0.26458332px;stroke-linecap:butt;stroke-linejoin:miter;stroke-opacity:1"
       d="m 253.19503,137.63437 c 0,-10.1047 -3.89753,-68.711992 -4.6193,-82.425518 -0.72176,-13.713529 -5.48541,-59.9064631 -9.09423,-78.383637 -3.60882,-18.477174 -5.91847,-28.581879 -6.78459,-32.479408 -0.86612,-3.89753 -2.16529,-5.268881 -0.0722,-5.413235 2.09311,-0.144351 55.28717,0 55.28717,0 l 54.92628,-0.21653 54.2767,0.43306 113.60576,0.288705 c 0,0 20.2094,-1.515705 22.08599,0.21653 1.87658,1.732235 5.05235,15.373588 6.06282,20.498114 1.01047,5.12453 7.07329,43.8832896 8.66116,58.895994 1.5879,15.012703 4.76367,63.731816 5.26889,74.413931 0.50525,10.682114 2.8149,39.624874 2.8149,40.635344 0,1.01047 -3.17577,1.08265 -3.17577,1.08265 l -100.90269,1.44353 c 0,0 -199.35139,2.30965 -198.34092,1.01047 z"
       id="path2280"
       inkscape:connector-curvature="0" />
    <path
       style="fill:#cfcfcf;fill-opacity:1;stroke:none;stroke-width:0.26458332px;stroke-linecap:butt;stroke-linejoin:miter;stroke-opacity:1"
       d="m 253.93286,202.20676 c 0,6.59159 0.31388,11.61374 0.31388,15.38036 0,3.76662 9.41655,17.26367 9.41655,17.26367 l 25.42466,8.47489 h 121.78734 l 137.48157,-2.51107 10.04433,-24.79691 c 0,0 0.69117,-10.90505 0.46921,-15.01113 -0.22196,-4.10608 -2.05304,-56.15338 -2.164,-59.37166 -0.11099,-3.21827 -0.16648,-5.54875 -0.16648,-6.60301 0,-1.05427 -0.33292,-1.44268 -1.55366,-1.44268 -1.22071,0 -102.20735,1.76007 -118.21546,1.91701 -16.00814,0.15694 -131.98858,0.94166 -148.6245,1.0986 -16.63589,0.15694 -50.06463,0.47082 -56.49927,1.0986 -6.43464,0.62776 10.67209,19.61781 10.67209,19.61781 z"
       id="path2018"
       inkscape:connector-curvature="0"
       sodipodi:nodetypes="cscccccscssssccc" />
    <path
       style="fill:#7e7e7e;fill-opacity:1;stroke:none;stroke-width:0.26458332px;stroke-linecap:butt;stroke-linejoin:miter;stroke-opacity:1"
       d="m 304.46831,209.81847 c -8.78877,0 -9.73042,4.47286 -9.88737,9.25961 -0.15692,4.78674 2.04026,11.06444 9.10267,11.22138 7.06242,0.15694 6.51312,-9.10266 5.10064,-11.84915 -1.4125,-2.7465 1.334,-8.16101 -4.31594,-8.63184 z"
       id="path2012"
       inkscape:connector-curvature="0" />
    <path
       style="fill:#dfdfdf;fill-opacity:1;stroke:none;stroke-width:0.26458332px;stroke-linecap:butt;stroke-linejoin:miter;stroke-opacity:1"
       d="m 265.20859,269.88024 c -12.76889,1.017 -44.1826,6.44093 -47.68557,7.23193 -3.50297,0.791 -3.95496,0.56499 -4.06796,-2.71198 -0.113,-3.27697 -0.90399,-58.42046 -0.90399,-60.11544 0,-1.69499 -0.113,-1.80798 2.59897,-1.80798 2.71198,0 40.37764,1.10518 43.29408,1.46474 2.91643,0.35957 3.15614,0.51937 3.4358,1.43825 0.27965,0.91887 0.2397,4.19487 0.2397,4.19487 z"
       id="path1168"
       inkscape:connector-curvature="0" />
    <path
       style="fill:#e4e4e4;fill-opacity:1;stroke:none;stroke-width:0.26458332px;stroke-linecap:butt;stroke-linejoin:miter;stroke-opacity:1"
       d="m 335.84734,238.18042 c -5.8733,-0.0579 -39.61119,-0.75499 -50.41315,-1.65515 -10.80199,-0.90017 -18.49432,-7.52866 -22.17681,-16.85764 -3.68249,-9.32899 3.02783,10.39281 3.02783,10.39281 l 10.22916,8.26516 26.02294,3.19149 35.84294,0.32733 z"
       id="path1166"
       inkscape:connector-curvature="0" />
    <path
       style="fill:#dcdcdc;fill-opacity:1;stroke:none;stroke-width:0.26458332px;stroke-linecap:butt;stroke-linejoin:miter;stroke-opacity:1"
       d="m 338.38025,240.69876 c -8.01965,0.0818 -39.11626,-0.65467 -50.65474,-2.12766 -11.53848,-1.473 -16.44849,-3.928 -20.54014,-11.12932 -4.09165,-7.20132 -4.33715,-9.98365 -5.15549,-11.78398 -0.81833,-1.80033 -1.22749,-1.39116 -1.22749,2.12767 0,3.51882 0.2455,42.71692 0.16366,47.62691 -0.0818,4.91 0.16367,4.66449 1.964,4.66449 1.80034,0 71.93137,-3.51882 73.64987,-3.51882 1.7185,0 0.9411,-4.33716 0.9411,-4.33716 z"
       id="path1164"
       inkscape:connector-curvature="0" />
    <path
       style="fill:#d8d8d8;fill-opacity:1;stroke:none;stroke-width:0.26458332px;stroke-linecap:butt;stroke-linejoin:miter;stroke-opacity:1"
       d="m 487.02232,262.95852 c -1.86627,-0.33073 -1.91352,-0.8977 -3.4018,-0.8977 -1.48828,0 -62.67101,2.46593 -79.64263,2.86684 -16.97162,0.4009 -65.54747,1.64526 -67.15387,1.64526 -1.60639,0 -2.07885,0.28347 -1.79538,-1.93712 0.28348,-2.22062 1.60639,-8.64622 1.93712,-11.38655 0.33073,-2.74032 0.51972,-9.35491 0.23625,-11.57552 -0.28348,-2.22061 -3.49629,-3.30729 -1.88989,-3.44903 1.60641,-0.14174 69.2568,-1.49398 80.34848,-2.02852 11.09171,-0.53454 67.51799,-2.36021 71.6285,-2.83268 4.11049,-0.47247 3.70197,7.31804 3.70197,7.31804 z"
       id="path1162"
       inkscape:connector-curvature="0"
       sodipodi:nodetypes="cssscscssscc" />
    <path
       style="fill:#dcdcdc;fill-opacity:1;stroke:none;stroke-width:0.26458332px;stroke-linecap:butt;stroke-linejoin:miter;stroke-opacity:1"
       d="m 485.93562,235.72061 c -0.6142,-1.55916 -0.70868,-2.07887 0.66146,-2.26786 1.37017,-0.18899 30.19086,-2.88207 38.97881,-3.73251 8.78795,-0.85045 18.23734,-4.29948 21.4974,-9.26042 3.26004,-4.96094 5.81139,-10.96131 6.52007,-12.42597 0.70872,-1.46466 1.13393,-1.70089 2.55135,-1.65365 1.4174,0.0472 3.77976,0.42523 4.44122,0.70871 0.66146,0.28348 -1.22843,2.12612 -1.22843,2.12612 l -7.51227,14.45759 -10.96131,8.59896 z"
       id="path1160"
       inkscape:connector-curvature="0" />
    <path
       style="fill:#d6d6d6;fill-opacity:1;stroke:none;stroke-width:0.26458332px;stroke-linecap:butt;stroke-linejoin:miter;stroke-opacity:1"
       d="m 560.72767,252.58779 c -0.18899,12.47322 -2.83483,11.71727 -5.66965,11.90625 -2.8348,0.18898 1.13395,-2.64583 -7.74851,-2.83482 -8.88243,-0.18899 -55.26633,1.39755 -58.74081,1.39755 -3.47451,0 -2.86778,-0.82964 -2.75168,-2.42905 0.11812,-1.62725 1.81622,-19.62069 0.88079,-22.69429 -0.93544,-3.0736 -1.8709,-2.93996 2.00451,-3.20723 3.8754,-0.26727 37.685,-1.60362 49.04396,-3.34087 11.35896,-1.73725 19.51069,-18.70887 20.71338,-21.78247 1.20272,-3.0736 2.80633,-3.60814 2.93997,0.13364 0.13364,3.74177 -0.40849,37.19317 -0.67196,42.85129 z"
       id="path1158"
       inkscape:connector-curvature="0"
       sodipodi:nodetypes="csssscsscsc" />
    <path
       style="fill:#d7d7d7;fill-opacity:1;stroke:none;stroke-width:0.26458332px;stroke-linecap:butt;stroke-linejoin:miter;stroke-opacity:1"
       d="m 259.72814,209.87779 c 3.67246,-0.565 6.38443,-4.18096 10.33939,-7.96643 3.95497,-3.78546 9.77443,-5.98894 15.98936,-6.15844 6.21495,-0.1695 9.60493,0.0565 12.03438,0.1695 2.42949,0.11299 2.71198,-0.791 0.90401,-4.12447 -1.80798,-3.33347 -17.40183,-30.84871 -23.72979,-38.30665 -6.32794,-7.45793 -13.78587,-12.82538 -22.37379,-14.52037 -8.58792,-1.69498 1.63848,3.33347 1.63848,3.33347 l 3.44647,14.01188 z"
       id="path1172"
       inkscape:connector-curvature="0" />
    <path
       style="fill:#dcdcdc;fill-opacity:1;stroke:none;stroke-width:0.26458332px;stroke-linecap:butt;stroke-linejoin:miter;stroke-opacity:1"
       d="m 212.77706,207.61781 c -0.22599,3.27697 0.565,2.82497 3.05098,2.82497 2.48597,0 38.08065,-0.22599 42.26161,-0.45199 4.18096,-0.226 3.84197,-0.79099 3.95497,-3.61596 0.113,-2.82498 0.29625,-62.38117 -0.95766,-63.96663 -1.3035,-1.64818 -6.50713,-3.74601 -14.86905,-4.311 -8.36193,-0.565 -27.5649,-0.31275 -30.95487,-0.0868 -3.38997,0.226 -2.71197,1.35599 -2.59898,3.95497 0.113,2.59897 0,61.92343 0.113,65.6524 z"
       id="path1170"
       inkscape:connector-curvature="0"
       sodipodi:nodetypes="csssssccc" />
    <path
       style="fill:#e2e2e2;fill-opacity:1;stroke:none;stroke-width:0.26458332px;stroke-linecap:butt;stroke-linejoin:miter;stroke-opacity:1"
       d="m 281.09643,158.6491 c -0.75907,-4.27478 0.95882,-7.47087 7.11131,-10.18755 6.15249,-2.71668 23.25158,-7.59072 40.03106,-8.54955 16.7795,-0.95883 88.37199,-0.63922 115.37899,-1.11864 27.00698,-0.47941 44.26588,-1.27843 61.20519,2.07747 16.93929,3.3559 23.33149,7.99023 25.40895,10.14759 2.07745,2.15737 1.27844,5.03385 0.5593,6.7118 -0.71911,1.67795 -5.83287,-1.11863 -5.83287,-1.11863 z"
       id="path1179"
       inkscape:connector-curvature="0" />
    <path
       style="fill:#dadada;fill-opacity:1;stroke:none;stroke-width:0.99999994px;stroke-linecap:butt;stroke-linejoin:miter;stroke-opacity:1"
       d="m 1960.2411,584.02028 c -116.279,0.0175 -869.4356,8.23268 -889.1181,8.91722 -11.4589,0.39853 -10.0747,5.2849 -5.5507,12.8125 10.9248,18.17818 43.9889,71.19798 68.7597,116.46875 24.7708,45.27077 96.5202,143.62437 109.7598,156.00977 13.2396,12.38539 17.5111,14.52148 40.1465,14.52148 22.6354,0 516.7702,-11.10481 528.7285,-11.95898 11.9583,-0.85418 14.0924,0.42644 19.6445,-5.55274 5.5521,-5.97917 23.4904,-29.89594 59.3653,-82 35.875,-52.10409 98.5356,-168.93839 107.1972,-183.64453 12.8932,-21.89083 10.5396,-25.02094 -7.5661,-25.35022 -7.1869,-0.1307 -6.4011,-0.22701 -31.3666,-0.22325 z"
       transform="scale(0.26458333)"
       id="path1174"
       inkscape:connector-curvature="0"
       sodipodi:nodetypes="ssssssssssss" />
    <g
       transform="matrix(0.49643969,0,-0.02210357,0.61710176,499.72818,80.657048)"
       id="layer1-9"
       inkscape:label="Layer 1"
       style="fill:#18316e;fill-opacity:1">
      <path
         inkscape:connector-curvature="0"
         id="rect1914"
         transform="scale(0.26458333)"
         d="m -385.36914,475.20703 c -10.39773,-0.078 -20.95788,1.35823 -29.89648,4.39844 -3.93438,1.33818 -7.771,2.94615 -8.5254,3.57226 -1.13601,0.94281 -1.37109,12.12038 -1.37109,65.07032 v 63.93359 l 5.25,2.32031 c 5.29433,2.34104 16.86405,5.18116 24.25,5.95313 8.71453,0.91079 26.06206,-0.34505 33.48047,-2.42383 24.72051,-6.92655 38.70497,-28.08841 41.60742,-62.96094 1.311,-15.75159 -2.51519,-37.97072 -8.62305,-50.07031 -3.71636,-7.3621 -14.27575,-18.69225 -20.6582,-22.16602 -9.04388,-4.92229 -22.14516,-7.52672 -35.51367,-7.62695 z m 2.36523,21.91211 c 2.98931,-0.0619 6.36132,0.323 9.22657,1.17383 6.44446,1.9138 12.72608,8.87519 15.41015,17.07812 5.8262,17.80574 5.0552,56.21474 -1.38086,68.83008 -5.02264,9.84492 -14.63221,14.64321 -26.41406,13.18945 -1.92499,-0.23735 -4.0625,-1.16706 -4.75,-2.0664 -0.95887,-1.25431 -1.25,-12.52568 -1.25,-48.38867 v -46.75196 l 2.22266,-1.55664 c 1.33899,-0.93787 3.94624,-1.44595 6.93554,-1.50781 z m 400.544926,8.92969 c -11.8748315,-0.05 -26.6867776,1.28535 -34.699219,3.49609 -5.223292,1.44121 -10.510791,3.28375 -11.75,4.0957 l -2.253906,1.47657 v 50.77734 c 0,38.15985 0.297385,51.07477 1.199218,51.97656 1.66924,1.66927 27.9323232,1.66927 29.60156288,0 0.89670047,-0.89669 1.19921874,-12.23884 1.19921874,-44.87695 0,-37.83829 0.20229878,-43.84593 1.51757818,-44.9375 4.3471597,-3.60782 18.8438982,-2.83635 23.2675782,1.23828 5.09444,4.69244 5.214844,5.79409 5.214844,48.04297 0,29.25831 0.30657,39.64055 1.199218,40.5332 1.845891,1.84589 28.176325,1.65719 29.728516,-0.21289 0.8673,-1.04504 1.095268,-12.44708 0.873047,-43.75 -0.299339,-42.16849 -0.311186,-42.35873 -2.6875,-47.61718 -4.497921,-9.9532 -14.106058,-16.34661 -28.953125,-19.26758 -3.26865,-0.64307 -8.059381,-0.95189 -13.457031,-0.97461 z m 93.630864,0.11328 c -5.71492,0.003 -11.12909,0.69357 -15.275396,2.14844 -17.024311,5.9735 -26.725988,24.66576 -21.480468,41.38476 2.571299,8.19553 8.501423,13.8853 21.058593,20.21094 5.425141,2.7329 11.117241,6.2944 12.650391,7.91211 5.445,5.74526 4.50915,14.36042 -1.99609,18.38086 -3.00012,1.8542 -4.46199,2.07124 -10.750004,1.5957 -4.567899,-0.34545 -8.866203,-1.35908 -11.539062,-2.72265 -3.54624,-1.80919 -4.476375,-1.95013 -5.560547,-0.83789 -1.972978,2.02408 -7.474184,16.58695 -6.865235,18.17382 1.469541,3.82961 15.879336,7.45737 30.078128,7.57227 9.28234,0.0752 12.33866,-0.31004 18.21679,-2.29883 11.77519,-3.98385 19.18423,-10.7996 23.08985,-21.23828 3.81574,-10.19853 1.99653,-22.5575 -4.42578,-30.06055 -3.89662,-4.55233 -11.66688,-9.92409 -18.53516,-12.81445 -13.97246,-5.88004 -18.91821,-15.07991 -12.16797,-22.63477 2.37053,-2.65307 3.7149,-3.24196 8.25,-3.60937 3.58797,-0.29065 6.93793,0.12859 9.91797,1.24219 7.71003,2.88147 8.15151,2.71192 11.69727,-4.4961 4.11151,-8.35812 4.15334,-10.50778 0.24414,-12.52929 -6.72205,-3.47611 -17.08257,-5.38379 -26.60742,-5.37891 z m -288.8418,0.0195 c -7.16591,-0.004 -14.11077,1.0628 -18.99219,3.27734 -7.72096,3.50276 -14.68132,10.81549 -17.53711,18.42383 -1.69892,4.52621 -2.06134,7.3218 -1.76953,13.6875 0.6429,14.02447 5.3361,20.02024 22.24609,28.42383 12.74927,6.33589 15.56055,9.25271 15.56055,16.13867 0,4.01242 -0.53215,5.50175 -2.92187,8.17188 -2.87486,3.21218 -3.05945,3.26468 -11.25,3.16797 -6.2403,-0.0737 -9.55905,-0.64639 -13.24219,-2.28516 -2.70317,-1.20276 -5.25753,-1.83419 -5.67578,-1.40234 -1.07107,1.10581 -6.91016,16.05341 -6.91016,17.68945 0,2.25014 2.73812,3.8248 10.80664,6.21289 11.49075,3.40093 27.44689,3.31483 38.09766,-0.20508 17.84656,-5.89837 27.96544,-22.66277 23.70898,-39.27734 -2.94515,-11.49604 -9.03288,-17.76252 -23.94922,-24.6543 -9.47424,-4.37737 -13.32824,-7.62495 -14.77539,-12.45508 -0.97559,-3.25625 -0.86568,-4.40418 0.73242,-7.66992 1.03347,-2.11185 3.00391,-4.39828 4.37891,-5.08203 3.39084,-1.68612 11.62442,-1.51917 16.5,0.33594 7.8064,2.97003 7.26998,3.17491 10.52149,-3.9961 4.32123,-9.5303 4.26742,-10.56424 -0.70899,-13.34961 -6.02741,-3.37359 -15.607,-5.14768 -24.82031,-5.15234 z m 87.507811,0.38867 c -13.126541,0 -13.687281,0.0886 -20.287111,3.21485 -19.86061,9.40728 -29.82307,29.49726 -28.40625,57.28125 0.89657,17.58187 5.27915,29.57221 14.73828,40.31836 4.8597,5.5209 16.14707,11.47515 24.08985,12.70898 7.526585,1.1692 19.946186,0.1842 26.673824,-2.11719 11.721752,-4.00958 20.062741,-11.99363 26.173828,-25.05273 8.941391,-19.10733 7.489185,-47.72075 -3.359374,-66.23242 -3.585321,-6.11789 -11.930405,-13.35772 -19.623047,-17.02344 -6.273037,-2.98923 -6.971383,-3.09766 -20,-3.09766 z m -142.261721,1.38477 c -6.80386,-0.0537 -13.70511,0.38486 -14.47461,1.36523 -0.53964,0.6875 -1.92526,4.84999 -3.07812,9.25 -1.15287,4.39998 -2.98614,11.37499 -4.07617,15.5 -1.09004,4.12502 -4.06461,15.52682 -6.60938,25.33594 -2.54476,9.80908 -5.00294,18.80907 -5.46289,20 -1.06124,2.74772 -1.27307,2.20853 -4.43945,-11.33594 -2.35284,-10.06446 -4.12319,-17.50274 -10.69532,-44.94336 -1.63921,-6.84427 -3.46641,-13.03177 -4.0625,-13.75 -1.29989,-1.56627 -31.35224,-1.9022 -32.30468,-0.36133 -0.32104,0.51943 1.90089,8.61944 4.93945,18 3.03856,9.3806 8.03456,24.81717 11.10156,34.30469 3.06701,9.48749 8.50516,26.23028 12.08399,37.20508 l 6.50586,19.95313 -8.16993,20.8457 c -4.49435,11.46463 -7.92147,21.49684 -7.61523,22.29492 0.45223,1.1785 3.33294,1.44798 15.33789,1.43555 8.12976,-0.008 15.35039,-0.37553 16.04492,-0.81641 0.69454,-0.44088 2.40765,-4.37117 3.8086,-8.73437 1.40095,-4.3632 4.50373,-14.0086 6.89453,-21.4336 2.3908,-7.42503 7.34319,-22.94999 11.00586,-34.5 3.66266,-11.55001 7.48137,-23.47498 8.48437,-26.5 9.67634,-29.1832 19.12962,-60.33253 18.67188,-61.52539 -0.37967,-0.98938 -7.08677,-1.53616 -13.89063,-1.58984 z m 142.068361,18.11523 c 9.33631,0 14.14592,6.71732 16.28711,22.74414 1.423498,10.65491 0.629894,28.7636 -1.578125,36.01953 -3.08657,10.14305 -10.326464,15.37951 -18.164063,13.13477 -4.434928,-1.27019 -8.998823,-6.9156 -11.037113,-13.65234 -1.34811,-4.45561 -1.73792,-9.45047 -1.74023,-22.2461 -0.004,-19.82649 1.48472,-26.27581 7.447265,-32.25 3.335902,-3.34242 4.292126,-3.75 8.785156,-3.75 z"
         style="opacity:1;vector-effect:none;fill:#18316e;fill-opacity:1;stroke:none;stroke-width:2.51338577;stroke-linecap:round;stroke-linejoin:round;stroke-miterlimit:4;stroke-dasharray:none;stroke-dashoffset:0;stroke-opacity:1;paint-order:fill markers stroke" />
    </g>
    <g
       id="g2006"
       style="fill:#b6b6b6;fill-opacity:1;stroke:none">
      <path
         sodipodi:nodetypes="sssss"
         inkscape:connector-curvature="0"
         id="path1997"
         d="m 334.42335,213.15834 c -3.27414,-0.0248 -3.55121,-2.71889 -0.11099,-2.82986 3.44025,-0.11098 148.70658,-1.55366 151.98034,-1.49817 3.27377,0.0555 3.82864,2.6634 0.11098,2.82986 -3.71766,0.16647 -147.92986,1.52886 -151.98033,1.49817 z"
         style="fill:#b6b6b6;fill-opacity:1;stroke:none;stroke-width:0.26458332px;stroke-linecap:butt;stroke-linejoin:miter;stroke-opacity:1" />
      <path
         sodipodi:nodetypes="sssss"
         inkscape:connector-curvature="0"
         id="path1999"
         d="m 338.47394,218.42965 c -3.43862,0.10548 -3.38474,2.6634 -0.27744,2.71889 3.10729,0.0555 139.60662,-1.77559 142.88039,-1.88657 3.27375,-0.11097 4.16156,-2.94085 -2e-5,-2.88536 -4.16155,0.0555 -136.99446,1.88101 -142.60293,2.05304 z"
         style="fill:#b6b6b6;fill-opacity:1;stroke:none;stroke-width:0.26458332px;stroke-linecap:butt;stroke-linejoin:miter;stroke-opacity:1" />
      <path
         sodipodi:nodetypes="sssss"
         inkscape:connector-curvature="0"
         id="path2001"
         d="m 344.68854,226.19791 c -3.21819,0.11392 -3.60668,2.88535 -10e-6,2.88535 3.60669,0 128.73108,-2.16401 132.28227,-2.2195 3.55121,-0.0555 3.32927,-2.88536 -0.61035,-2.82987 -3.93962,0.0555 -128.61999,2.05599 -131.67191,2.16402 z"
         style="fill:#b6b6b6;fill-opacity:1;stroke:none;stroke-width:0.26458332px;stroke-linecap:butt;stroke-linejoin:miter;stroke-opacity:1" />
    </g>
    <path
       style="fill:#7e7e7e;fill-opacity:1;stroke:none;stroke-width:0.26458332px;stroke-linecap:butt;stroke-linejoin:miter;stroke-opacity:1"
       d="m 291.44211,219.07808 c -1.17708,9.02419 -3.68816,12.08457 -9.88737,12.08457 -6.19924,0 -14.67414,-2.27567 -14.98801,-17.34215 -0.31388,-15.06647 10.20124,-16.32201 14.6741,-16.40048 4.47287,-0.0785 9.65198,2.04025 11.69223,9.02419 2.04026,6.98394 -1.49095,12.63387 -1.49095,12.63387 z"
       id="path2010"
       inkscape:connector-curvature="0" />
    <path
       style="fill:#e0e0e0;fill-opacity:1;stroke:none;stroke-width:0.26458332px;stroke-linecap:butt;stroke-linejoin:miter;stroke-opacity:1"
       d="m 282.81026,229.12239 c 9.8089,0.15695 12.94776,-7.84712 12.94776,-13.73246 0,-5.88534 -2.11873,-15.14494 -12.39845,-15.69424 -10.27973,-0.5493 -13.18316,8.63183 -12.94776,15.14494 0.23543,6.51311 3.60968,14.04635 12.39845,14.28176 z"
       id="path2008"
       inkscape:connector-curvature="0" />
    <path
       style="fill:#e2881e;fill-opacity:1;stroke:none;stroke-width:0.26458332px;stroke-linecap:butt;stroke-linejoin:miter;stroke-opacity:1"
       d="m 305.72387,211.23096 c -6.82184,-0.27657 -8.16102,4.6298 -8.16102,8.39642 0,3.76661 1.72638,9.41654 7.76867,9.65196 6.04226,0.23541 7.69017,-4.70828 7.53321,-9.0242 -0.15692,-4.31591 -2.34201,-8.82962 -7.14086,-9.02418 z"
       id="path2014"
       inkscape:connector-curvature="0"
       sodipodi:nodetypes="ssccs" />
    <path
       style="fill:#dcdcdc;fill-opacity:1;stroke:none;stroke-width:0.26458332px;stroke-linecap:butt;stroke-linejoin:miter;stroke-opacity:1"
       d="m 516.18367,186.74793 c -2.67392,4.53769 -2.98192,6.98395 0.94164,6.827 3.92356,-0.15694 14.59566,-0.86318 20.32405,-0.78471 5.72842,0.0785 12.86928,6.43464 15.14496,9.10266 2.27566,2.66802 3.68814,3.37426 5.41452,3.37426 1.72635,0 2.19718,-1.09859 2.27565,-3.29579 0.0785,-2.19719 -1.17708,-58.46106 -1.6479,-61.28602 -0.47083,-2.82496 -1.41248,-3.5312 -6.59157,-3.21732 -5.17911,0.31389 -10.51514,2.98191 -13.8894,9.18113 -3.37428,6.19923 -10.67211,20.481 -12.94777,24.32608 -2.27565,3.84509 -7.00594,12.34772 -9.02418,15.77271 z"
       id="path2016"
       inkscape:connector-curvature="0"
       sodipodi:nodetypes="scccscccscs" />
    <path
       style="fill:#7e7e7e;fill-opacity:1;stroke:none;stroke-width:0.26458332px;stroke-linecap:butt;stroke-linejoin:miter;stroke-opacity:1"
       d="m 534.07508,192.9415 c -9.13096,0.77527 -14.98857,7.92498 -14.47171,18.08964 0.51684,10.16465 7.14971,15.41926 14.04099,15.33312 6.89131,-0.0861 9.73397,-5.77146 10.59537,-9.64781 0.86141,-3.87635 1.20598,-8.61411 0.77529,-13.52416 -0.43072,-4.91004 -2.32582,-10.07851 -10.93994,-10.25079 z"
       id="path2020"
       inkscape:connector-curvature="0" />
    <path
       style="fill:#e0e0e0;fill-opacity:1;stroke:none;stroke-width:0.26458332px;stroke-linecap:butt;stroke-linejoin:miter;stroke-opacity:1"
       d="m 535.62562,195.00888 c -8.72102,0.0417 -12.31817,9.38939 -12.14589,15.76383 0.17228,6.37445 3.70406,13.35187 11.88747,13.52416 8.1834,0.17228 11.80133,-7.40814 11.97361,-14.47171 0.17229,-7.06357 -2.3977,-14.86086 -11.71519,-14.81628 z"
       id="path2022"
       inkscape:connector-curvature="0"
       sodipodi:nodetypes="sssss" />
    <path
       style="fill:#7e7e7e;fill-opacity:1;stroke:none;stroke-width:0.26458332px;stroke-linecap:butt;stroke-linejoin:miter;stroke-opacity:1"
       d="m 511.24767,206.29337 c -6.7238,0.0487 -8.95868,4.47934 -8.95868,10.42308 0,5.94374 2.58424,9.99237 7.92498,9.82009 5.34078,-0.17228 7.66655,-6.54672 7.58042,-10.93992 -0.0861,-4.3932 -1.3755,-9.34072 -6.54672,-9.30325 z"
       id="path2024"
       inkscape:connector-curvature="0"
       sodipodi:nodetypes="sssss" />
    <path
       style="fill:#e2881e;fill-opacity:1;stroke:none;stroke-width:0.26458332px;stroke-linecap:butt;stroke-linejoin:miter;stroke-opacity:1"
       d="m 511.67839,225.07214 c 6.71901,0.0861 7.66657,-4.73776 7.49427,-9.04482 -0.17227,-4.30705 -2.15352,-7.92498 -6.2883,-8.18341 -4.13478,-0.25842 -7.92498,3.44565 -7.75271,8.70026 0.17229,5.25461 2.32582,8.70025 6.54674,8.52797 z"
       id="path2026"
       inkscape:connector-curvature="0" />
    <path
       style="fill:#f2f2f2;fill-opacity:1;stroke:#06436b;stroke-width:0.96499997;stroke-linecap:butt;stroke-linejoin:miter;stroke-miterlimit:4;stroke-dasharray:none;stroke-opacity:1"
       d="m 432.94538,241.18054 c 3.9625,-0.17229 4.30707,0.68913 4.30707,3.27336 0,2.58423 -0.60301,11.88748 -0.94755,14.21329 -0.34457,2.32581 -1.63669,2.23967 -3.96251,2.32581 -2.32582,0.0861 -37.12684,1.20597 -39.62493,1.20597 -2.49809,0 -4.04862,-0.68912 -3.87635,-3.87635 0.17229,-3.18722 0.68913,-11.54291 0.94755,-13.26573 0.25842,-1.72282 0.68913,-2.67038 3.44564,-2.84266 2.75654,-0.17228 35.23173,-0.94755 39.71108,-1.03369 z"
       id="path2049"
       inkscape:connector-curvature="0" />
    <path
       style="fill:#e4e4e4;fill-opacity:1;stroke:none;stroke-width:0.26458332px;stroke-linecap:butt;stroke-linejoin:miter;stroke-opacity:1"
       d="m 232.19955,-59.437719 c -5.66148,0 -14.23234,0.393158 -17.06309,0.629055 -2.83074,0.235894 -3.30253,-0.07863 -3.14527,-2.988009 0.15727,-2.909374 1.41537,-32.003121 2.04443,-41.124407 0.62905,-9.12128 2.20169,-20.28699 3.61706,-22.64594 1.41537,-2.35895 9.59307,-4.56064 36.32787,-6.60507 26.7348,-2.04442 -17.29899,9.59308 -17.29899,9.59308 z"
       id="path857"
       inkscape:connector-curvature="0" />
    <path
       style="fill:#e1e1e1;fill-opacity:1;stroke:none;stroke-width:0.26458332px;stroke-linecap:butt;stroke-linejoin:miter;stroke-opacity:1"
       d="m 273.99341,-131.51602 c -40.91575,-0.90924 -66.37446,-0.54555 -79.28565,0 -12.91119,0.54554 -11.4564,1.09108 -13.63858,-5.45542 -2.18215,-6.54653 -6.72835,-23.6402 -5.45542,-26.91347 1.27294,-3.27327 2.00033,-2.90957 11.8201,-3.81881 9.81978,-0.90924 79.83117,-0.3637 105.65355,2.54587 25.82238,2.90957 36.18773,9.81977 43.27978,20.73064 7.09207,10.91088 4.1825,10.72904 1.81848,10.72904 -2.36403,0 -64.19226,2.18215 -64.19226,2.18215 z"
       id="path1126"
       inkscape:connector-curvature="0" />
    <path
       style="fill:#eaeaea;fill-opacity:1;stroke:none;stroke-width:0.26458332px;stroke-linecap:butt;stroke-linejoin:miter;stroke-opacity:1"
       d="m 229.45995,-63.725739 c 0.10207,3.980844 -0.51037,4.287062 2.55182,4.389136 3.06219,0.102073 82.06663,0 93.09053,-0.102074 11.02386,-0.102071 144.53525,0.204147 157.49851,0.306221 12.96326,0.102071 45.01417,0.306218 48.48463,0.204145 3.47049,-0.102074 3.67464,-0.306219 3.77672,-3.164261 0.10208,-2.858042 -1.32696,-16.637889 -2.85806,-24.599577 -1.53109,-7.961688 -6.12436,-30.213591 -8.26791,-35.215161 -2.14352,-5.00157 -6.43059,-6.63474 -18.37311,-8.26791 -11.94253,-1.63316 -72.98214,-7.45132 -118.30254,-8.06376 -45.32037,-0.61244 -122.18128,4.69535 -138.92124,6.94096 -16.73997,2.2456 -18.16899,6.73681 -18.37313,12.0446 -0.20415,5.3078 -0.10208,50.219888 -0.30622,55.527681 z"
       id="path2282"
       inkscape:connector-curvature="0"
       sodipodi:nodetypes="csssssccssscc" />
    <path
       style="fill:#2f2f2f;fill-opacity:1;stroke:none;stroke-width:0.26458332px;stroke-linecap:butt;stroke-linejoin:miter;stroke-opacity:1"
       d="m 277.9583,-112.1122 v 41.018886 l 204.19425,-0.51435 -1.15729,-40.504536 z"
       id="path1124"
       inkscape:connector-curvature="0" />
    <path
       style="fill:#272727;fill-opacity:1;stroke:none;stroke-width:0.26458332px;stroke-linecap:butt;stroke-linejoin:miter;stroke-opacity:1"
       d="m 482.11818,-78.325541 c -9.72886,-0.181848 -198.75929,-0.86868 -202.87403,-0.997267 -4.11475,-0.128588 -7.32938,-27.131592 -1.41444,-27.131592 5.91495,0 199.17939,1.28585 202.39405,1.28585 3.21464,0 1.89442,26.843009 1.89442,26.843009 z"
       id="path1119"
       inkscape:connector-curvature="0" />
    <path
       style="fill:#2c2c2c;fill-opacity:1;stroke:none;stroke-width:0.99999994px;stroke-linecap:butt;stroke-linejoin:miter;stroke-opacity:1"
       d="m 3520.0508,1290.6074 -14.0938,31.1035 -3.4023,161.3496 248.3437,1.9434 762.5235,3.8887 -3.8887,-86.9942 -23.8125,-108.3769 z m 117.9258,35.9864 c 85.9089,0.1724 705.6643,3.8361 719.8398,4.4804 15.1206,0.6873 15.1212,3.0924 15.4648,11.6836 0.3436,8.5912 2.4061,102.8243 2.0626,113.1338 -0.3436,10.3095 0.3425,15.4649 -10.3106,15.4649 -10.6531,0 -728.8789,2.1692 -735.4082,1.8255 -6.5293,-0.3436 -11.6857,1.0321 -12.373,-9.2774 -0.6874,-10.3095 -2.0604,-108.7744 -1.0293,-124.2386 0.3435,-10.9968 1.7178,-12.715 12.0273,-13.0586 0.6443,-0.022 3.9993,-0.025 9.7266,-0.014 z"
       transform="matrix(0.26458333,0,0,0.26458333,-677.43414,-462.32898)"
       id="path1121"
       inkscape:connector-curvature="0"
       sodipodi:nodetypes="ccccccccscscsccccs" />
    <g
       id="g1107">
      <path
         sodipodi:nodetypes="cscccccccc"
         inkscape:connector-curvature="0"
         id="path1100"
         d="m 256.03514,-80.864006 c 1.50063,0 1.72071,-0.200078 1.72071,-1.820757 0,-1.620678 0.48022,-22.849547 0.44019,-23.809937 -0.04,-0.96041 0.06,-1.86078 -1.36057,-1.88079 -1.42057,-0.0201 -4.96204,-0.0201 -5.82241,0.04 -0.86035,0.06 -1.18049,-0.0201 -1.2005,1.12046 -0.0201,1.14046 -0.54022,22.949564 -0.58025,24.370164 -0.04,1.420601 0,1.940798 0.7203,1.98083 0.7203,0.04001 5.10214,0.02011 6.08253,0 z"
         style="fill:#e0e0e0;fill-opacity:1;stroke:none;stroke-width:0.26458332px;stroke-linecap:butt;stroke-linejoin:miter;stroke-opacity:1" />
      <path
         sodipodi:nodetypes="sssssssss"
         inkscape:connector-curvature="0"
         id="path1098"
         d="m 266.63957,-108.45552 c 3.04232,0.008 3.04129,0.0801 3.1213,2.8812 0.08,2.80117 0.08,19.52816 -0.08,22.169256 -0.16004,2.641099 -0.0822,2.577828 -2.56106,2.681114 -2.88121,0.12005 -5.64236,6e-6 -7.163,6e-6 -1.52064,0 -2.28094,-0.600248 -2.20093,-2.441033 0.08,-1.84076 0.1601,-21.288863 0.24012,-23.129643 0.08,-1.84076 0.51881,-2.11148 1.96082,-2.1609 2.51229,-0.0861 4.29407,-0.006 6.68275,0 z"
         style="fill:#e2881e;fill-opacity:1;stroke:none;stroke-width:0.26458332px;stroke-linecap:butt;stroke-linejoin:miter;stroke-opacity:1" />
    </g>
    <path
       style="fill:#272727;fill-opacity:1;stroke:none;stroke-width:0.99999994px;stroke-linecap:butt;stroke-linejoin:miter;stroke-opacity:1"
       d="m 3559.6016,1281.0996 c -7.8803,0.01 -13.0067,0.024 -14.9844,0.059 -31.644,0.5456 -40.3736,12.5495 -44.7383,39.2832 -4.3647,26.7337 -10.3646,123.8477 -9.2734,151.127 1.6367,24.0057 6.5464,22.914 24.5507,22.914 18.0044,0 961.868,3.819 983.6915,3.2735 21.8235,-0.5456 22.914,2.7279 22.914,-27.2793 0,-30.0073 -12.0023,-138.032 -21.2773,-163.1289 -9.275,-25.097 -20.1861,-22.3704 -53.4668,-22.9161 -31.2008,-0.5114 -769.2126,-3.4199 -887.416,-3.332 z m 4.3359,16.9082 c 79.5107,0.095 354.0802,2.9415 397.752,3.4707 49.9106,0.6048 463.4132,3e-4 488.8222,0.3027 25.409,0.3024 29.9462,9.6784 35.6934,24.8028 5.7473,15.1245 18.4515,127.9539 18.7539,140.9609 0.3025,13.007 -0.9071,12.4024 -13.9141,12.4024 -13.007,0 -512.7175,-4.5386 -552.041,-3.9336 -39.3235,0.605 -406.5445,4.8396 -418.0391,4.5371 -11.4946,-0.3025 -13.3829,-2.4072 -13.6132,-15.7285 -0.8475,-49.0249 4.6007,-97.4937 8.1679,-146.4043 1.0456,-14.3358 10.2855,-19.3602 27.5274,-20.2676 2.1552,-0.1134 9.5319,-0.1562 20.8906,-0.1426 z"
       transform="matrix(0.26458333,0,0,0.26458333,-677.43414,-462.32898)"
       id="path2284"
       inkscape:connector-curvature="0"
       sodipodi:nodetypes="csscscscccssssssssssss" />
    <path
       style="fill:#3e3e3e;fill-opacity:1;stroke:none;stroke-width:0.26458332px;stroke-linecap:butt;stroke-linejoin:miter;stroke-opacity:1"
       d="m 240.34762,-44.394666 c -1.68288,-6.616793 -1.29918,-6.495879 3.89753,-6.640233 5.1967,-0.144354 270.51738,-0.144354 277.1576,0.144354 6.64025,0.288705 7.93942,0.577407 9.38295,5.629762 1.44352,5.052349 8.08376,37.6761134 10.24906,58.607287 2.16529,20.931174 7.65068,98.737396 7.9394,105.377636 0.28871,6.64023 -0.28871,7.6507 -4.76364,8.08376 -4.47495,0.43306 -130.9281,1.44353 -156.91164,1.58788 -25.98351,0.14436 -116.7815,1.29918 -122.69997,1.29918 -5.91847,0 -6.64024,-1.01047 -7.0733,-6.49588 -0.43305,-5.48541 -2.454,-54.565407 -4.04188,-73.764346 -1.58788,-19.198937 -8.46724,-75.472215 -13.13611,-93.8294 z"
       id="path2286"
       inkscape:connector-curvature="0"
       sodipodi:nodetypes="ssssssssssss" />
    <path
       style="fill:#3e3e3e;fill-opacity:1;stroke:none;stroke-width:0.26458332px;stroke-linecap:butt;stroke-linejoin:miter;stroke-opacity:1"
       d="m 213.56197,124.44619 c -0.0162,5.15124 -0.2002,5.9572 4.59296,5.77968 4.79316,-0.17753 17.95265,-0.809 21.32561,-0.809 3.37297,0 3.37297,-0.88762 3.37297,-4.61563 0,-3.72802 -2.13029,-46.511422 -3.01792,-61.601003 -0.88762,-15.089584 -9.94137,-84.679185 -13.66938,-99.236193 -3.72802,-14.55701 -4.08307,-15.799681 -6.74593,-15.799681 -2.66287,0 -3.37297,0.532575 -3.55049,4.615638 -0.17753,4.083063 -2.29067,166.223599 -2.30782,171.666189 z"
       id="path855"
       inkscape:connector-curvature="0"
       sodipodi:nodetypes="sssssssss" />
    <g
       id="g876"
       style="fill:#3e3e3e;fill-opacity:1;stroke:none">
      <path
         sodipodi:nodetypes="cccsscssc"
         inkscape:connector-curvature="0"
         id="path870"
         d="m 110.23284,-15.818046 c 0,-4.192614 -0.27048,-4.733581 2.70492,-5.004091 2.97539,-0.270484 32.86453,-1.622928 36.92189,-1.487673 4.05735,0.135228 5.13931,0.405738 5.13931,3.922104 0,3.516365 -0.27051,102.380466 -0.54099,105.896832 -0.27048,3.516392 -1.21721,3.381137 -3.78685,3.516392 -2.56966,0.135228 -33.13504,0.540967 -36.6514,0.540967 -3.51637,0 -4.05736,-0.405739 -4.05736,-3.786849 0,-3.381137 0.40574,-96.8354353 0.27048,-103.597682 z"
         style="fill:#3e3e3e;fill-opacity:1;stroke:none;stroke-width:0.26458332px;stroke-linecap:butt;stroke-linejoin:miter;stroke-opacity:1" />
      <path
         inkscape:connector-curvature="0"
         id="path872"
         d="m 156.75715,86.832904 c 0.13523,4.192614 -0.13526,4.327842 3.51636,4.192614 3.65162,-0.135255 40.16777,-1.893438 43.00792,-2.299177 2.84014,-0.405738 2.70489,-0.811477 2.84014,-4.057359 0.13526,-3.245881 1.75818,-103.597682 1.75818,-106.30257 0,-2.704915 0.13526,-3.65162 -3.51636,-3.65162 -3.65162,0 -41.24973,2.028666 -44.08988,2.434404 -2.84014,0.405739 -2.84014,1.622954 -2.9754,4.733581 -0.13522,3.110627 -0.54096,100.351801 -0.54096,104.950127 z"
         style="fill:#3e3e3e;fill-opacity:1;stroke:none;stroke-width:0.26458332px;stroke-linecap:butt;stroke-linejoin:miter;stroke-opacity:1" />
    </g>
    <path
       style="fill:#292929;fill-opacity:1;stroke:none;stroke-width:0.26458332px;stroke-linecap:butt;stroke-linejoin:miter;stroke-opacity:1"
       d="m 189.35119,33.81686 c 13.59213,0 12.78065,1.758183 13.5245,7.979463 0.74385,6.22128 -0.67622,41.790699 -0.94671,45.983313 -0.27051,4.192587 -1.08196,5.815515 -12.84827,5.545031 -11.76634,-0.270483 -14.06549,-0.811477 -15.01222,-5.545031 -0.9467,-4.733581 -0.67622,-40.167771 0.94673,-46.79479 1.62293,-6.626992 3.38111,-7.303241 14.33597,-7.167986 z"
       id="path868"
       inkscape:connector-curvature="0" />
    <path
       style="fill:#222222;fill-opacity:1;stroke:none;stroke-width:0.99999994px;stroke-linecap:butt;stroke-linejoin:miter;stroke-opacity:1"
       d="m 3354.1523,1772.0039 c -0.5697,-0.015 -1.1509,0.012 -1.7382,0.057 -4.6989,0.3615 -7.5899,1.0855 -7.9512,8.6758 -0.3614,7.5904 -1.4416,5.939 -13.0117,6.1446 -7.3786,0.1311 -15.253,0.028 -24.9414,0.3613 -6.5137,0.224 -6.5059,5.783 -6.5059,12.289 0,6.506 -0.3617,41.5667 0,58.9161 0.3616,17.3494 1.4473,140.6029 1.4473,148.5547 0,7.9518 3e-4,11.205 5.0605,11.205 5.0604,0 5.7832,-1.0855 5.7832,-14.459 0,-13.3735 -1.0863,-122.5306 -0.7246,-142.4101 0.3616,-19.8796 3.6154,-45.1797 14.8203,-45.1797 11.2048,0 18.795,14.0965 19.1563,23.8555 0.3614,9.7591 3.2541,15.9025 8.6758,15.541 5.4217,-0.3615 6.5058,-2.8912 6.8671,-13.0117 0.3615,-10.1205 1.8069,-39.0361 1.084,-54.5782 -0.6325,-13.5994 -4.0336,-15.8522 -8.0215,-15.9609 z m -17.2851,26.5195 c 6.1339,0 7.668,0.7656 7.668,7.9219 0,7.1563 -0.7667,6.9004 -5.3672,5.1113 -4.6004,-1.7891 -7.668,-3.5778 -13.0352,-3.3222 -5.3672,0.2555 -6.9012,2.3002 -9.457,5.3672 -2.5558,3.0669 -4.8559,1.5345 -5.1113,-6.1328 0,-7.4119 0,-7.9241 6.3906,-8.1797 6.3895,-0.2556 12.7781,-0.7657 18.9121,-0.7657 z"
       transform="matrix(0.26458333,0,0,0.26458333,-677.43414,-462.32898)"
       id="path863"
       inkscape:connector-curvature="0" />
    <path
       style="fill:#3e3e3e;fill-opacity:1;stroke:none;stroke-width:0.99999994px;stroke-linecap:butt;stroke-linejoin:miter;stroke-opacity:1"
       d="m 2761.3105,1667.7344 c -33.0208,0.063 -62.373,3.8925 -62.373,17.3105 0,30.6698 -3.0672,409.9519 -2.0449,437.5547 1.0223,25.5581 0,29.6474 20.4453,28.625 20.4465,-1.0223 92.01,-4.0898 108.3672,-4.0898 16.3572,0 20.4472,-4.0885 20.4472,-22.4903 0,-18.4018 4.0879,-306.6984 4.0879,-322.0332 0,-15.3349 2.045,-128.8125 2.045,-128.8125 0,0 -48.5193,-6.1453 -90.9747,-6.0644 z m -170.2714,11.8379 c -48.8013,-0.2381 -104.6175,4.5781 -105.7676,12.6289 -2.0446,14.3126 -2.0449,114.4999 -2.0449,143.125 0,28.625 -9e-4,269.8933 1.0214,297.4961 1.0223,28.6251 -1.0209,28.6258 24.5372,27.6035 25.5581,-1.0224 104.2764,-4.0889 126.7675,-5.1113 22.4912,-1.0223 22.4903,1.0215 22.4903,-20.4473 0,-21.4689 6.1356,-428.3538 5.1132,-444.711 -0.4472,-7.1562 -34.1606,-10.3987 -72.1171,-10.5839 z m -168.1309,27.9629 -347.5898,18.4023 3.0683,117.5664 c 0,37.826 2.043,298.52 2.043,316.9219 0,18.4018 4.0892,18.4023 21.4687,18.4023 17.3795,0 283.1841,-11.2472 301.586,-12.2695 18.4018,-1.0223 16.3585,-6.1331 17.3808,-22.4902 1.0223,-16.3572 4.0888,-311.8086 3.0664,-333.2774 -1.0223,-21.4689 -1.0234,-103.2558 -1.0234,-103.2558 z m -376.2148,17.3808 -334.2989,19.4238 c 0,0 4.0879,112.4546 4.0879,122.6778 0,10.2233 -3.0664,278.0724 -3.0664,301.5859 0,23.5135 8.178,25.5594 31.6914,24.5371 23.5135,-1.0223 249.4481,-9.2014 269.8946,-11.2461 20.4464,-2.0446 23.5136,-2.0447 23.5136,-23.5136 0,-21.4687 5.1102,-264.7831 4.0879,-300.5645 15.3349,-3.067 4.0899,-132.9004 4.0899,-132.9004 z m -365.9922,19.4238 -353.7246,22.4903 -10.2227,124.7246 c -1.0223,52.1386 -5.1113,278.0717 -5.1113,295.4512 0,17.3795 3.0677,19.4238 20.4472,19.4238 17.3795,0 296.4727,-12.2676 317.9414,-12.2676 21.4689,0 24.5372,-5.1109 24.5372,-24.5351 0,-19.4242 4.0879,-292.385 4.0878,-308.7422 0,-16.3572 2.045,-116.545 2.045,-116.545 z"
       transform="matrix(0.26458333,0,0,0.26458333,-677.43414,-462.32898)"
       id="path888"
       inkscape:connector-curvature="0" />
    <path
       style="fill:#2a2a2a;fill-opacity:1;stroke:none;stroke-width:0.99999994px;stroke-linecap:butt;stroke-linejoin:miter;stroke-opacity:1"
       d="m 2850.2891,1644.7246 c -2.2845,-0.027 -4.8931,0.017 -7.875,0.1074 -23.8554,0.7229 -1533.2548,88.9153 -1548.4356,91.084 -15.1807,2.1687 -14.4588,7.9519 -15.1816,23.8555 -0.7229,15.9037 -2e-4,104.0979 0.7226,121.4473 0.7229,17.3493 -0.7224,20.9628 16.627,20.9628 17.3494,0 1515.9063,-73.011 1545.5449,-75.1796 25.3013,-1.4458 25.3005,-2.1687 26.0234,-23.8555 0.7229,-21.6868 3e-4,-119.2771 -0.7226,-138.0723 -0.6325,-16.4458 -0.7119,-20.1618 -16.7031,-20.3496 z m -18.3184,42.8242 c 10.2769,-0.037 11.625,3.4064 11.625,15.3867 0,12.7791 -2.0441,65.4294 -3.0664,77.6973 -1.0223,12.2679 -3.0684,15.3332 -17.3809,16.3555 -14.3125,1.0223 -305.6738,15.8476 -316.4082,15.8476 -10.7344,0 -11.2466,-1.0231 -11.7578,-16.8691 -0.5112,-17.3796 -0.5112,-67.4736 0,-77.1856 0.5112,-9.712 2.0461,-12.7798 13.8028,-13.291 11.7567,-0.5111 308.7418,-17.3795 321.0097,-17.8906 0.7668,-0.032 1.4907,-0.048 2.1758,-0.051 z m -428.2637,27.0801 c 12.9464,-0.1442 12.0775,2.4901 12.5567,15.9082 0.5112,14.3125 1.5346,67.985 1.0234,75.6524 -0.5111,7.6674 -3e-4,13.291 -12.7793,13.291 -12.7791,0 -295.9632,15.3351 -308.7422,16.3574 -12.7791,1.0223 -14.3131,-2.5563 -14.8242,-14.8242 -0.5112,-12.2679 -1.0218,-61.3395 0.5117,-73.6075 1.5335,-12.2677 1.0217,-15.8462 13.8008,-16.3574 12.7791,-0.5111 290.341,-15.8463 305.6758,-16.3574 0.9904,-0.032 1.9142,-0.053 2.7773,-0.062 z m -378.0625,21.4785 c 13.959,-0.037 14.4674,3.4084 15.4258,15.3887 1.0223,12.7791 1.0223,62.8719 0,72.584 -1.0223,9.7121 -3.0658,13.8019 -16.8672,14.8242 -13.8013,1.0223 -279.0956,15.3359 -289.8301,15.3359 -10.7343,0 -16.356,-3.58 -16.8671,-14.3144 -0.5112,-10.7344 -0.5121,-62.8724 1.0214,-73.0957 1.5335,-10.2232 5.1112,-13.2907 17.3789,-14.8242 12.2679,-1.5335 272.4511,-15.3346 286.7637,-15.8457 1.0543,-0.032 2.044,-0.05 2.9746,-0.053 z m -367.4238,19.9356 c 14.4906,-0.034 15.8685,3.4713 16.3477,16.4101 0.5112,13.8014 -1.5337,56.7383 -2.045,67.4727 -0.5111,10.7344 -2.5563,13.8019 -18.4023,14.8242 -15.8461,1.0223 -275.5167,14.3136 -294.4297,15.3359 -18.913,1.0223 -22.4902,0 -22.4902,-12.2695 0,-12.2679 -1.0229,-47.0264 -0.5117,-65.9394 0,-16.3572 3.066,-16.8684 15.3339,-17.8907 12.2679,-1.0223 285.7397,-17.3794 303.1192,-17.8906 1.0862,-0.032 2.1121,-0.051 3.0781,-0.053 z"
       transform="matrix(0.26458333,0,0,0.26458333,-677.43414,-462.32898)"
       id="path896"
       inkscape:connector-curvature="0" />
    <path
       style="fill:#3e3e3e;fill-opacity:1;stroke:none;stroke-width:0.99999994px;stroke-linecap:butt;stroke-linejoin:miter;stroke-opacity:1"
       d="m 1052.5312,1662.1816 -343.373,20.9649 c 0,0 -0.72265,103.3719 -0.72265,112.7695 0,9.3976 -2.17014,257.3512 -1.44727,276.1465 0.72291,18.7952 2.89301,25.3008 19.51953,25.3008 16.62652,0 279.75819,-7.2298 296.38479,-9.3985 16.6265,-2.1687 21.6873,-6.5053 22.4101,-26.0234 0.7229,-19.5181 3.6151,-243.6149 4.3379,-274.6992 z m -387.47065,26.0235 -362.16797,18.0722 c 0,0 -2.2e-4,96.1464 0.72265,108.4356 0.72291,12.2892 -5.78345,272.5302 -5.06054,287.7109 0.72287,15.1808 5.78284,18.0723 18.79492,18.0723 13.01204,0 310.84418,-14.4585 327.4707,-15.9043 16.62656,-1.4458 19.51758,-6.5063 19.51758,-23.1328 0,-16.6266 -0.72266,-239.276 -0.72266,-273.252 z"
       transform="matrix(0.26458333,0,0,0.26458333,-677.43414,-462.32898)"
       id="path927"
       inkscape:connector-curvature="0" />
    <path
       style="fill:#2a2a2a;fill-opacity:1;stroke:none;stroke-width:0.99999994px;stroke-linecap:butt;stroke-linejoin:miter;stroke-opacity:1"
       d="m 1047.1797,1609.2168 c -2.4426,0.024 -5.2202,0.103 -8.3828,0.1934 -25.3012,0.7229 -706.26706,46.9875 -725.78518,49.1562 -19.51809,2.1686 -18.79471,2.1698 -19.51758,20.2422 -0.72291,18.0723 -3.61353,121.4457 -2.89062,138.0723 0.72287,16.6265 1.44527,22.4104 19.51757,21.6875 18.07234,-0.7229 694.69951,-41.2066 723.61521,-42.6524 31.0844,-0.7229 33.2522,-0.7217 32.5293,-33.2519 -0.7229,-32.5302 3e-4,-107.7112 -0.7226,-130.8438 -0.6325,-20.2409 -1.2652,-22.7715 -18.3633,-22.6035 z m -17.6016,63.002 c 14.4597,-0.1377 15.8145,4.0142 17.1699,19.6015 1.4459,16.6266 2.1683,42.6513 1.4454,57.832 -0.723,15.1808 2.1692,18.7946 -19.5176,20.2403 -21.6868,1.4458 -274.69942,14.4587 -292.04885,15.1816 -17.34943,0.7229 -22.4099,10e-5 -23.13281,-18.0722 -0.72287,-18.0723 0.002,-36.8689 0.72461,-55.6641 0.72287,-18.0723 -0.72414,-19.5167 21.68555,-22.4082 22.40965,-2.8916 273.2541,-15.9041 290.6035,-16.627 1.0844,-0.045 2.1063,-0.075 3.0703,-0.084 z m -386.51755,25.3007 c 15.41,-0.1456 14.81641,3.8793 15.49414,17.4336 0.72287,14.4578 0.72265,46.9882 0.72265,59.2774 0,12.2892 -2.89127,17.3491 -18.79492,18.7949 -15.90361,1.4458 -298.55385,16.6267 -313.01172,17.3496 -14.45786,0.7229 -15.90382,-1.447 -17.34961,-14.459 -1.44578,-13.0121 -0.72312,-51.3241 0.72266,-63.6133 1.44578,-12.2892 4.33753,-15.1814 17.34961,-15.9043 13.01204,-0.7229 289.15672,-18.072 311.56641,-18.7949 1.1747,-0.045 2.27344,-0.074 3.30078,-0.084 z"
       transform="matrix(0.26458333,0,0,0.26458333,-677.43414,-462.32898)"
       id="path919"
       inkscape:connector-curvature="0" />
    <g
       id="g1115">
      <path
         sodipodi:nodetypes="sssssssss"
         inkscape:connector-curvature="0"
         id="path1109"
         d="m 498.69636,-83.157753 c 0.0668,1.523881 -0.44019,1.88076 -1.60067,1.960798 -1.16049,0.08004 -6.08254,0.160085 -7.4031,0.04003 -1.32056,-0.120055 -1.80077,-0.360149 -1.96083,-2.000832 -0.16006,-1.640679 -0.59302,-20.245793 -0.513,-21.766433 0.08,-1.52064 0.95385,-1.85718 2.15437,-1.9372 1.20049,-0.08 4.68128,-0.17644 6.00184,-0.0564 1.32053,0.12003 2.05774,0.26965 2.1609,1.68071 0.55005,7.523833 0.83012,14.542068 1.16049,22.079367 z"
         style="fill:#e2881e;fill-opacity:1;stroke:none;stroke-width:0.26458332px;stroke-linecap:butt;stroke-linejoin:miter;stroke-opacity:1" />
      <path
         sodipodi:nodetypes="sssssssss"
         inkscape:connector-curvature="0"
         id="path1111"
         d="m 498.0056,-83.006439 c 0.16503,1.999798 0.89084,1.76228 2.49149,1.682243 1.60068,-0.08004 6.68279,-0.240096 7.60317,-0.360151 0.92038,-0.120055 1.00042,-0.36015 0.96041,-1.760749 -0.04,-1.400572 -0.71043,-21.113054 -0.91051,-22.193514 -0.20007,-1.08045 -0.40019,-1.48062 -1.56065,-1.52064 -1.16049,-0.04 -6.21246,0.0243 -7.61306,0.14429 -1.40057,0.12002 -1.54639,0.48785 -1.53636,1.37631 0.0671,5.947383 0.10986,17.110438 0.56551,22.632211 z"
         style="fill:#e0e0e0;fill-opacity:1;stroke:none;stroke-width:0.26458332px;stroke-linecap:butt;stroke-linejoin:miter;stroke-opacity:1" />
    </g>
    <path
       style="fill:#1f1f1f;fill-opacity:1;stroke:none;stroke-width:0.26458332px;stroke-linecap:butt;stroke-linejoin:miter;stroke-opacity:1"
       d="m 34.916789,295.95062 c 20.022846,-0.30802 26.337735,-24.48946 26.64579,-41.73989 0.308028,-17.25047 -8.471218,-47.43874 -26.64579,-48.05482 -18.174573,-0.61608 -22.487176,30.03426 -22.64119,44.51231 -0.15404,14.47805 6.16085,45.43645 22.64119,45.2824 z"
       id="path1140"
       inkscape:connector-curvature="0" />
    <path
       style="fill:#858585;fill-opacity:1;stroke:none;stroke-width:0.99999994px;stroke-linecap:butt;stroke-linejoin:miter;stroke-opacity:1"
       d="m 2732.2598,2542.3848 c -17.6277,5.9546 -39.7714,16.9117 -59.1192,31.9062 -23.2851,18.0461 -6.4039,236.9284 2.9102,244.4961 8.5529,6.9492 13.7424,8.592 43.8203,42.1543 54.0979,-20.0415 72.1781,-96.238 73.1875,-152.7598 0.9101,-50.97 -19.1716,-131.8212 -60.7988,-165.7968 z"
       transform="matrix(0.26458333,0,0,0.26458333,-677.43414,-462.32898)"
       id="path1142"
       inkscape:connector-curvature="0" />
    <path
       style="fill:#787878;fill-opacity:1;stroke:none;stroke-width:0.26458332px;stroke-linecap:butt;stroke-linejoin:miter;stroke-opacity:1"
       d="m 30.373152,283.39787 c 4.928711,0 17.327456,-6.54595 17.327456,-30.26529 0,-23.71937 -10.627518,-34.03884 -18.174573,-33.88482 -7.54708,0.15401 -15.248175,12.47576 -15.248175,31.57447 0,19.09871 6.314916,32.80664 16.095292,32.57564 z"
       id="path1147"
       inkscape:connector-curvature="0" />
    <path
       style="fill:#1d1d1d;fill-opacity:1;stroke:none;stroke-width:0.99999994px;stroke-linecap:butt;stroke-linejoin:miter;stroke-opacity:1"
       d="m 2736.0059,2545.623 c -10.8778,8.6275 -22.1889,25.5553 -13.9668,30.1231 9.5237,5.2909 15.7348,2.8854 37.3203,-0.4375 -6.76,-11.4882 -14.5425,-21.6508 -23.3535,-29.6856 z m 34.6074,52.0938 c -8.1441,6.871 -16.7307,19.0369 -13.6465,30.7129 3.487,13.2009 14.2313,15.0933 28.1992,13.7265 -3.6082,-15.116 -8.4635,-30.2826 -14.5527,-44.4394 z m 21.0742,82.2734 c -10.5672,3.4637 -23.5488,9.2135 -24.2422,24.6993 -0.763,17.041 9.8091,22.3007 24.3359,26.0761 0.7324,-7.7441 1.1478,-15.3279 1.2774,-22.584 0.1546,-8.6566 -0.3119,-18.1869 -1.3711,-28.1914 z m -11.0449,88.6094 c -10.3965,0.2319 -23.1677,3.6155 -27.752,13.2207 -5.4379,11.3938 4.1316,17.2806 19.2149,26.2246 5.8029,-12.2549 10.2163,-25.6412 13.4707,-39.3125 -1.5472,-0.1212 -3.2072,-0.1713 -4.9336,-0.1328 z m -56.6309,55.3731 c -3.8413,-0.067 -6.9034,0.6617 -8.3769,2.3808 -5.1011,5.9514 -4.3476,13.0341 16.1113,28.9844 8.6171,-5.0026 16.1464,-11.5851 22.7012,-19.3223 -6.8329,-6.9003 -20.9884,-11.879 -30.4356,-12.0429 z"
       transform="matrix(0.26458333,0,0,0.26458333,-677.43414,-462.32898)"
       id="path1149"
       inkscape:connector-curvature="0" />
    <path
       style="fill:#686868;fill-opacity:1;stroke:none;stroke-width:0.26458332px;stroke-linecap:butt;stroke-linejoin:miter;stroke-opacity:1"
       d="m 30.681206,230.18331 c -8.394197,0.38507 -10.858552,10.55049 -10.781532,20.09986 0.07699,9.54934 3.69652,22.10213 10.935546,21.94809 7.239027,-0.15402 10.858527,-10.24245 10.858527,-20.79294 0,-10.5505 -3.234452,-20.79295 -11.012541,-21.25501 z"
       id="path1154"
       inkscape:connector-curvature="0" />
    <g
       id="g1250">
      <g
         transform="translate(0,-0.52916667)"
         id="g1163">
        <path
           style="fill:#8d8d8d;fill-opacity:1;stroke:none;stroke-width:0.26458332px;stroke-linecap:butt;stroke-linejoin:miter;stroke-opacity:1"
           d="m 21.222723,230.2934 c 0.05445,-2.72275 0,-3.59402 1.415812,-3.70292 1.415838,-0.10893 2.341562,1.3069 2.341562,3.32173 0,2.01483 -0.544539,3.7574 -1.742546,3.7574 -1.198007,0 -2.123731,-0.92575 -2.014828,-3.37621 z"
           id="path1156"
           inkscape:connector-curvature="0" />
        <path
           style="fill:#676767;fill-opacity:1;stroke:none;stroke-width:0.26458332px;stroke-linecap:butt;stroke-linejoin:miter;stroke-opacity:1"
           d="m 16.975234,229.80331 c 0.108903,-2.17821 1.198007,-2.39601 3.267287,-2.39601 2.069306,0 2.722747,1.03462 2.777199,2.72274 0.05448,1.6881 -0.653442,2.23264 -2.559368,2.23264 -1.905926,0 -3.485118,-0.27226 -3.485118,-2.55937 z"
           id="path1159"
           inkscape:connector-curvature="0" />
      </g>
      <g
         id="g1169"
         transform="translate(8.009135,-3.9176468)">
        <path
           inkscape:connector-curvature="0"
           id="path1165"
           d="m 21.222723,230.2934 c 0.05445,-2.72275 0,-3.59402 1.415812,-3.70292 1.415838,-0.10893 2.341562,1.3069 2.341562,3.32173 0,2.01483 -0.544539,3.7574 -1.742546,3.7574 -1.198007,0 -2.123731,-0.92575 -2.014828,-3.37621 z"
           style="fill:#8d8d8d;fill-opacity:1;stroke:none;stroke-width:0.26458332px;stroke-linecap:butt;stroke-linejoin:miter;stroke-opacity:1" />
        <path
           inkscape:connector-curvature="0"
           id="path1167"
           d="m 16.975234,229.80331 c 0.108903,-2.17821 1.198007,-2.39601 3.267287,-2.39601 2.069306,0 2.722747,1.03462 2.777199,2.72274 0.05448,1.6881 -0.653442,2.23264 -2.559368,2.23264 -1.905926,0 -3.485118,-0.27226 -3.485118,-2.55937 z"
           style="fill:#676767;fill-opacity:1;stroke:none;stroke-width:0.26458332px;stroke-linecap:butt;stroke-linejoin:miter;stroke-opacity:1" />
      </g>
      <g
         transform="translate(15.941259,1.8581717)"
         id="g1175">
        <path
           style="fill:#8d8d8d;fill-opacity:1;stroke:none;stroke-width:0.26458332px;stroke-linecap:butt;stroke-linejoin:miter;stroke-opacity:1"
           d="m 21.222723,230.2934 c 0.05445,-2.72275 0,-3.59402 1.415812,-3.70292 1.415838,-0.10893 2.341562,1.3069 2.341562,3.32173 0,2.01483 -0.544539,3.7574 -1.742546,3.7574 -1.198007,0 -2.123731,-0.92575 -2.014828,-3.37621 z"
           id="path1171"
           inkscape:connector-curvature="0" />
        <path
           style="fill:#676767;fill-opacity:1;stroke:none;stroke-width:0.26458332px;stroke-linecap:butt;stroke-linejoin:miter;stroke-opacity:1"
           d="m 16.975234,229.80331 c 0.108903,-2.17821 1.198007,-2.39601 3.267287,-2.39601 2.069306,0 2.722747,1.03462 2.777199,2.72274 0.05448,1.6881 -0.653442,2.23264 -2.559368,2.23264 -1.905926,0 -3.485118,-0.27226 -3.485118,-2.55937 z"
           id="path1173"
           inkscape:connector-curvature="0" />
      </g>
      <g
         id="g1182"
         transform="translate(20.792947,15.335081)">
        <path
           inkscape:connector-curvature="0"
           id="path1177"
           d="m 21.222723,230.2934 c 0.05445,-2.72275 0,-3.59402 1.415812,-3.70292 1.415838,-0.10893 2.341562,1.3069 2.341562,3.32173 0,2.01483 -0.544539,3.7574 -1.742546,3.7574 -1.198007,0 -2.123731,-0.92575 -2.014828,-3.37621 z"
           style="fill:#8d8d8d;fill-opacity:1;stroke:none;stroke-width:0.26458332px;stroke-linecap:butt;stroke-linejoin:miter;stroke-opacity:1" />
        <path
           inkscape:connector-curvature="0"
           id="path1180"
           d="m 16.975234,229.80331 c 0.108903,-2.17821 1.198007,-2.39601 3.267287,-2.39601 2.069306,0 2.722747,1.03462 2.777199,2.72274 0.05448,1.6881 -0.653442,2.23264 -2.559368,2.23264 -1.905926,0 -3.485118,-0.27226 -3.485118,-2.55937 z"
           style="fill:#676767;fill-opacity:1;stroke:none;stroke-width:0.26458332px;stroke-linecap:butt;stroke-linejoin:miter;stroke-opacity:1" />
      </g>
      <g
         transform="translate(-5.3137525,11.86959)"
         id="g1188">
        <path
           style="fill:#8d8d8d;fill-opacity:1;stroke:none;stroke-width:0.26458332px;stroke-linecap:butt;stroke-linejoin:miter;stroke-opacity:1"
           d="m 21.222723,230.2934 c 0.05445,-2.72275 0,-3.59402 1.415812,-3.70292 1.415838,-0.10893 2.341562,1.3069 2.341562,3.32173 0,2.01483 -0.544539,3.7574 -1.742546,3.7574 -1.198007,0 -2.123731,-0.92575 -2.014828,-3.37621 z"
           id="path1184"
           inkscape:connector-curvature="0" />
        <path
           style="fill:#676767;fill-opacity:1;stroke:none;stroke-width:0.26458332px;stroke-linecap:butt;stroke-linejoin:miter;stroke-opacity:1"
           d="m 16.975234,229.80331 c 0.108903,-2.17821 1.198007,-2.39601 3.267287,-2.39601 2.069306,0 2.722747,1.03462 2.777199,2.72274 0.05448,1.6881 -0.653442,2.23264 -2.559368,2.23264 -1.905926,0 -3.485118,-0.27226 -3.485118,-2.55937 z"
           id="path1186"
           inkscape:connector-curvature="0" />
      </g>
      <g
         id="g1194"
         transform="translate(-5.5447852,27.656827)">
        <path
           inkscape:connector-curvature="0"
           id="path1190"
           d="m 21.222723,230.2934 c 0.05445,-2.72275 0,-3.59402 1.415812,-3.70292 1.415838,-0.10893 2.341562,1.3069 2.341562,3.32173 0,2.01483 -0.544539,3.7574 -1.742546,3.7574 -1.198007,0 -2.123731,-0.92575 -2.014828,-3.37621 z"
           style="fill:#8d8d8d;fill-opacity:1;stroke:none;stroke-width:0.26458332px;stroke-linecap:butt;stroke-linejoin:miter;stroke-opacity:1" />
        <path
           inkscape:connector-curvature="0"
           id="path1192"
           d="m 16.975234,229.80331 c 0.108903,-2.17821 1.198007,-2.39601 3.267287,-2.39601 2.069306,0 2.722747,1.03462 2.777199,2.72274 0.05448,1.6881 -0.653442,2.23264 -2.559368,2.23264 -1.905926,0 -3.485118,-0.27226 -3.485118,-2.55937 z"
           style="fill:#676767;fill-opacity:1;stroke:none;stroke-width:0.26458332px;stroke-linecap:butt;stroke-linejoin:miter;stroke-opacity:1" />
      </g>
      <g
         transform="translate(7.3160373,46.370479)"
         id="g1200">
        <path
           style="fill:#8d8d8d;fill-opacity:1;stroke:none;stroke-width:0.26458332px;stroke-linecap:butt;stroke-linejoin:miter;stroke-opacity:1"
           d="m 21.222723,230.2934 c 0.05445,-2.72275 0,-3.59402 1.415812,-3.70292 1.415838,-0.10893 2.341562,1.3069 2.341562,3.32173 0,2.01483 -0.544539,3.7574 -1.742546,3.7574 -1.198007,0 -2.123731,-0.92575 -2.014828,-3.37621 z"
           id="path1196"
           inkscape:connector-curvature="0" />
        <path
           style="fill:#676767;fill-opacity:1;stroke:none;stroke-width:0.26458332px;stroke-linecap:butt;stroke-linejoin:miter;stroke-opacity:1"
           d="m 16.975234,229.80331 c 0.108903,-2.17821 1.198007,-2.39601 3.267287,-2.39601 2.069306,0 2.722747,1.03462 2.777199,2.72274 0.05448,1.6881 -0.653442,2.23264 -2.559368,2.23264 -1.905926,0 -3.485118,-0.27226 -3.485118,-2.55937 z"
           id="path1198"
           inkscape:connector-curvature="0" />
      </g>
      <g
         id="g1206"
         transform="translate(-1.0781522,40.979715)">
        <path
           inkscape:connector-curvature="0"
           id="path1202"
           d="m 21.222723,230.2934 c 0.05445,-2.72275 0,-3.59402 1.415812,-3.70292 1.415838,-0.10893 2.341562,1.3069 2.341562,3.32173 0,2.01483 -0.544539,3.7574 -1.742546,3.7574 -1.198007,0 -2.123731,-0.92575 -2.014828,-3.37621 z"
           style="fill:#8d8d8d;fill-opacity:1;stroke:none;stroke-width:0.26458332px;stroke-linecap:butt;stroke-linejoin:miter;stroke-opacity:1" />
        <path
           inkscape:connector-curvature="0"
           id="path1204"
           d="m 16.975234,229.80331 c 0.108903,-2.17821 1.198007,-2.39601 3.267287,-2.39601 2.069306,0 2.722747,1.03462 2.777199,2.72274 0.05448,1.6881 -0.653442,2.23264 -2.559368,2.23264 -1.905926,0 -3.485118,-0.27226 -3.485118,-2.55937 z"
           style="fill:#676767;fill-opacity:1;stroke:none;stroke-width:0.26458332px;stroke-linecap:butt;stroke-linejoin:miter;stroke-opacity:1" />
      </g>
      <g
         transform="translate(15.402183,42.904988)"
         id="g1212">
        <path
           style="fill:#8d8d8d;fill-opacity:1;stroke:none;stroke-width:0.26458332px;stroke-linecap:butt;stroke-linejoin:miter;stroke-opacity:1"
           d="m 21.222723,230.2934 c 0.05445,-2.72275 0,-3.59402 1.415812,-3.70292 1.415838,-0.10893 2.341562,1.3069 2.341562,3.32173 0,2.01483 -0.544539,3.7574 -1.742546,3.7574 -1.198007,0 -2.123731,-0.92575 -2.014828,-3.37621 z"
           id="path1208"
           inkscape:connector-curvature="0" />
        <path
           style="fill:#676767;fill-opacity:1;stroke:none;stroke-width:0.26458332px;stroke-linecap:butt;stroke-linejoin:miter;stroke-opacity:1"
           d="m 16.975234,229.80331 c 0.108903,-2.17821 1.198007,-2.39601 3.267287,-2.39601 2.069306,0 2.722747,1.03462 2.777199,2.72274 0.05448,1.6881 -0.653442,2.23264 -2.559368,2.23264 -1.905926,0 -3.485118,-0.27226 -3.485118,-2.55937 z"
           id="path1210"
           inkscape:connector-curvature="0" />
      </g>
      <g
         id="g1218"
         transform="translate(20.484903,31.045307)">
        <path
           inkscape:connector-curvature="0"
           id="path1214"
           d="m 21.222723,230.2934 c 0.05445,-2.72275 0,-3.59402 1.415812,-3.70292 1.415838,-0.10893 2.341562,1.3069 2.341562,3.32173 0,2.01483 -0.544539,3.7574 -1.742546,3.7574 -1.198007,0 -2.123731,-0.92575 -2.014828,-3.37621 z"
           style="fill:#8d8d8d;fill-opacity:1;stroke:none;stroke-width:0.26458332px;stroke-linecap:butt;stroke-linejoin:miter;stroke-opacity:1" />
        <path
           inkscape:connector-curvature="0"
           id="path1216"
           d="m 16.975234,229.80331 c 0.108903,-2.17821 1.198007,-2.39601 3.267287,-2.39601 2.069306,0 2.722747,1.03462 2.777199,2.72274 0.05448,1.6881 -0.653442,2.23264 -2.559368,2.23264 -1.905926,0 -3.485118,-0.27226 -3.485118,-2.55937 z"
           style="fill:#676767;fill-opacity:1;stroke:none;stroke-width:0.26458332px;stroke-linecap:butt;stroke-linejoin:miter;stroke-opacity:1" />
      </g>
    </g>
    <path
       style="fill:#5c5c5c;fill-opacity:1;stroke:none;stroke-width:0.26458332px;stroke-linecap:butt;stroke-linejoin:miter;stroke-opacity:1"
       d="m 31.024609,239.7141 c 3.757401,0.0545 6.697953,7.02469 6.589051,11.92564 -0.108929,4.90093 -1.579192,10.94545 -5.499947,10.94545 -3.920754,0 -5.663326,-4.30194 -5.717778,-10.67319 -0.05445,-6.37122 0.108903,-12.1979 4.628674,-12.1979 z"
       id="path1254"
       inkscape:connector-curvature="0" />
    <path
       style="fill:#646464;fill-opacity:1;stroke:none;stroke-width:0.99999994px;stroke-linecap:butt;stroke-linejoin:miter;stroke-opacity:1"
       d="m 2668.584,2664.916 c 0,0 -1.6465,67.3028 1.6465,67.3028 2.7449,-1e-4 14.0566,0.1343 24.3066,-0.295 5.4216,-8.2993 7.7454,-21.7401 8.0059,-33.459 0.2382,-10.7198 -3.3879,-24.0513 -9.2344,-33.4277 -5.5333,0.1427 -14.5908,0.2058 -24.7246,-0.1211 z"
       transform="matrix(0.26458333,0,0,0.26458333,-677.43414,-462.32898)"
       id="path1256"
       inkscape:connector-curvature="0" />
    <path
       style="fill:#6d6d6d;fill-opacity:1;stroke:none;stroke-width:0.26458332px;stroke-linecap:butt;stroke-linejoin:miter;stroke-opacity:1"
       d="m 28.447886,242.8131 c 4.081292,-0.0475 5.621786,3.54252 5.621786,9.1643 0,5.62179 -1.617213,8.54822 -5.005705,8.54822 -3.388492,0 -5.621787,-3.92756 -5.621787,-9.31834 0,-5.39075 2.463335,-8.36461 5.005706,-8.39418 z"
       id="path1252"
       inkscape:connector-curvature="0"
       sodipodi:nodetypes="sssss" />
    <path
       style="fill:#939393;fill-opacity:1;stroke:none;stroke-width:0.26458332px;stroke-linecap:butt;stroke-linejoin:miter;stroke-opacity:1"
       d="m -441.12132,214.42065 c -16.20833,0.46979 -20.43659,25.36957 -19.73188,41.34299 0.70471,15.97343 6.8122,39.46377 19.26208,39.69867 12.44988,0.2349 22.08092,-22.78563 21.61111,-40.87318 -0.46981,-18.08757 -8.22162,-39.69869 -21.14131,-40.16848 z"
       id="path1269"
       inkscape:connector-curvature="0" />
    <path
       style="fill:#737373;fill-opacity:1;stroke:none;stroke-width:0.99999994px;stroke-linecap:butt;stroke-linejoin:miter;stroke-opacity:1"
       d="m 933.29297,2580.4277 c -44.42136,35.9201 -57.11583,78.7325 -58.78711,138.0625 -1.6405,58.2386 19.45596,105.8642 56.98437,123.9786 25.94564,-29.9936 42.78581,-85.8357 41.56446,-132.8575 -1.21526,-46.787 -15.32495,-99.8049 -39.76172,-129.1836 z"
       transform="matrix(0.26458333,0,0,0.26458333,-677.43414,-462.32898)"
       id="path1271"
       inkscape:connector-curvature="0" />
    <path
       style="fill:#bababa;fill-opacity:1;stroke:none;stroke-width:0.99999994px;stroke-linecap:butt;stroke-linejoin:miter;stroke-opacity:1"
       d="m 968.69141,2671.2266 c -19.11098,-0.3819 -32.66211,12.1409 -32.66211,35.8593 0,23.3712 9.73705,40.4373 34.64648,39.211 1.84402,-12.4187 2.68678,-24.8325 2.37891,-36.6856 -0.32548,-12.5306 -1.58497,-25.5067 -3.71094,-38.3574 -0.21679,-0.01 -0.43695,-0.023 -0.65234,-0.027 z"
       transform="matrix(0.26458333,0,0,0.26458333,-677.43414,-462.32898)"
       id="path1276"
       inkscape:connector-curvature="0" />
    <path
       style="fill:#1c1c1c;fill-opacity:1;stroke:none;stroke-width:0.99999994px;stroke-linecap:butt;stroke-linejoin:miter;stroke-opacity:1"
       d="m 923.86328,2643.8086 c -1.14782,0.014 -2.35852,0.048 -3.63476,0.1035 -20.41996,0.8878 -16.86719,15.0933 -16.86719,21.752 0,6.6587 6.65721,13.761 16.86719,14.205 23.08342,0.4439 24.85992,-11.9854 24.41601,-22.1953 -0.41616,-9.5718 -3.56394,-14.0716 -20.78125,-13.8652 z m -0.0332,74.1172 c -1.59704,-0.033 -3.37935,0.01 -5.37696,0.1211 -15.98081,0.8878 -18.64312,15.093 -18.19921,23.5273 0.4439,8.4343 7.10229,15.9791 22.19531,15.5352 23.97124,-2.2195 21.30718,-15.0922 17.75586,-25.7461 -3.10737,-9.3221 -5.19571,-13.2069 -16.375,-13.4375 z m 19.87109,72.2558 c -8.15688,-0.1109 -16.14776,1.9968 -19.0332,7.7676 -5.52551,11.051 -2.84676,15.5917 23.10351,20.2442 4.15608,-7.8066 7.88463,-16.2911 11.125,-25.2032 -4.13616,-1.6482 -9.7004,-2.7338 -15.19531,-2.8086 z"
       transform="matrix(0.26458333,0,0,0.26458333,-677.43414,-462.32898)"
       id="path1281"
       inkscape:connector-curvature="0" />
    <g
       id="g1491"
       transform="matrix(1.6691018,0.02068503,0,1.6691018,-984.57993,32.747803)">
      <g
         style="fill:#99bd63;fill-opacity:1;stroke:none"
         transform="matrix(0.99821899,0,0.02383113,0.99821899,67.414794,0.60948052)"
         id="g1326">
        <path
           style="fill:#99bd63;fill-opacity:1;stroke:none;stroke-width:0.26458332px;stroke-linecap:butt;stroke-linejoin:miter;stroke-opacity:1"
           d="m 728.69217,-93.166813 c 1.39385,0 1.42229,-0.05689 1.39385,1.194726 -0.0285,1.251611 -0.14224,1.365382 -1.19473,1.365382 -1.05248,0 -2.27565,0.02847 -2.873,0.08535 -0.59738,0.05689 -0.68271,0.312897 -0.7965,1.649836 -0.11377,1.336966 -0.3129,1.47918 1.22317,1.47918 1.53606,0 2.07653,-0.08533 2.10499,1.109371 0.0285,1.194726 0.0569,1.336966 -1.25161,1.393852 -1.30852,0.05688 -0.9956,0.02844 -1.62142,0.08533 -0.62579,0.05691 -0.59735,0.512022 -0.65423,1.536065 -0.0569,1.024043 -0.17068,1.479179 0.79647,1.507622 0.96716,0.02844 2.33254,0.02844 3.01525,0.05691 0.68268,0.02844 0.68268,0.227542 0.68268,1.223142 0,0.995601 -0.1991,1.251612 -0.88181,1.336966 -0.6827,0.08533 -4.32374,0.199099 -5.1771,0.199099 -0.85339,0 -1.05251,-0.256011 -1.05251,-1.024043 0,-0.768033 0.76803,-11.435159 0.85339,-12.174749 0.0853,-0.739563 0.14221,-0.938689 0.9956,-0.995574 0.85336,-0.05691 3.52726,-0.02847 4.43751,-0.02847 z"
           id="path1299"
           inkscape:connector-curvature="0" />
        <path
           style="fill:#99bd63;fill-opacity:1;stroke:none;stroke-width:0.26458332px;stroke-linecap:butt;stroke-linejoin:miter;stroke-opacity:1"
           d="m 732.21943,-88.843072 c 1.13782,0 1.25162,-0.05688 1.28006,1.109398 0.0284,1.166257 0.6827,3.043687 1.62139,3.07213 0.93872,0.02844 1.90587,-2.019644 1.90587,-3.07213 0,-1.052486 0.11378,-1.33694 0.99561,-1.33694 0.8818,0 1.13781,0.284454 1.16625,1.137814 0.0285,0.853361 -2.36098,3.185928 -2.38942,3.81172 -0.0284,0.625793 0.42669,1.33694 1.28005,2.275655 0.85336,0.938715 0.85336,1.308497 0.85336,1.934316 0,0.625792 -0.25601,0.85336 -1.16626,0.824918 -0.91027,-0.02844 -0.93871,-0.08536 -0.93871,-0.853387 0,-0.768033 -0.85336,-3.385027 -1.73519,-3.441912 -0.8818,-0.05688 -2.01965,1.507622 -2.07653,2.873005 -0.0569,1.365408 -0.22757,1.393851 -1.28005,1.422294 -1.05249,0.02844 -1.10938,-0.170683 -1.05249,-1.280054 0.0569,-1.109398 0.39825,-1.507623 1.05249,-2.161884 0.65426,-0.654236 1.47917,-0.995601 1.47917,-1.536065 0,-0.540465 -0.93871,-1.507623 -1.5645,-2.104972 -0.62582,-0.59735 -0.68271,-0.796476 -0.62582,-1.564508 0.0569,-0.768033 0.22757,-1.080929 1.19472,-1.109398 z"
           id="path1301"
           inkscape:connector-curvature="0" />
        <path
           inkscape:connector-curvature="0"
           style="fill:#99bd63;fill-opacity:1;stroke:none;stroke-width:0.99999994px;stroke-linecap:butt;stroke-linejoin:miter;stroke-opacity:1"
           d="m 5372.3984,1409.5762 c -3.8603,-0.025 -8.7182,0.1165 -10.4922,0.1972 -2.3651,0.1075 -2.2576,1.2889 -2.58,3.8692 -0.3226,2.5802 -2.1507,30.1038 -2.043,32.1465 0.1075,2.0427 0.8586,2.4726 4.1914,2.4726 3.3329,0 4.3009,-0.5369 4.4082,-3.1172 0.1075,-2.5802 0.4314,-7.4193 0.6465,-10.4297 0.2151,-3.0102 2.9027,-3.117 9.4609,-3.332 6.5582,-0.215 9.2461,-5.8058 9.2461,-11.5039 0,-5.6981 -2.2577,-9.9978 -9.4609,-10.2129 -0.9139,-0.054 -2.0902,-0.081 -3.377,-0.09 z m -0.6015,5.4648 c 4.623,0 4.7304,1.2894 4.7304,5.4824 0,4.1929 -0.6451,5.6992 -4.623,5.8067 -3.9779,0.1075 -5.1605,-1.2913 -4.6231,-5.8067 0.3224,-4.7305 -0.1072,-5.4824 4.5157,-5.4824 z"
           id="path1303"
           transform="matrix(0.26458333,0,0,0.26458333,-677.43414,-462.32898)" />
        <path
           inkscape:connector-curvature="0"
           style="fill:#99bd63;fill-opacity:1;stroke:none;stroke-width:0.99999994px;stroke-linecap:butt;stroke-linejoin:miter;stroke-opacity:1"
           d="m 5399.5898,1409.3984 c -2.1699,0 -4.3398,0.041 -6.5058,0.1582 -2.6924,0.1463 -2.7948,0.9686 -3.1172,3.5489 -0.3225,2.5803 -2.1507,28.9198 -2.043,31.2851 0.1076,2.3652 1.1824,3.2266 4.9453,3.2266 3.7629,0 4.408,-0.3228 4.6231,-2.043 0.2151,-1.7202 0.2147,-2.5807 0.5371,-6.5586 0.3225,-3.9779 3.6555,-0.1077 6.9883,5.0528 3.3329,5.1606 4.3002,3.6562 7.3105,3.6562 3.0103,0 1.6124,-2.1509 -2.0429,-8.6016 -3.6555,-6.4507 -3.0099,-7.4173 -0.4297,-8.1699 2.5803,-0.7525 6.2364,-4.5159 6.3437,-11.1816 0.1075,-6.6657 -2.9045,-10.2481 -10.1074,-10.3223 -2.1629,-0.022 -4.332,-0.054 -6.502,-0.051 z m 3.0625,5.3204 c 4.7305,0.215 5.1605,0.537 4.7305,5.375 -0.4301,4.8379 -1.182,5.8047 -5.2676,5.6972 -4.0854,-0.1075 -4.7308,-0.6446 -4.4082,-5.2676 0.3224,-4.623 0.8599,-5.9121 4.9453,-5.8046 z"
           id="path1308"
           transform="matrix(0.26458333,0,0,0.26458333,-677.43414,-462.32898)" />
        <path
           style="fill:#99bd63;fill-opacity:1;stroke:none;stroke-width:0.26458332px;stroke-linecap:butt;stroke-linejoin:miter;stroke-opacity:1"
           d="m 762.59942,-89.696433 c 1.3085,0 1.39383,0.02844 1.39383,0.711147 0,0.682705 -0.39825,0.853361 -1.19473,0.853361 -0.79647,0 -2.13341,0.05688 -2.873,0.05688 -0.73959,0 -0.68271,0.227569 -0.73959,1.393852 -0.0569,1.166283 -0.25601,1.536065 1.76363,1.59295 2.01964,0.05689 1.84896,0.369808 1.84896,0.853387 0,0.483553 -0.54046,0.483553 -2.07653,0.512022 -1.53606,0.02844 -1.64983,0.02844 -1.70675,1.422268 -0.0569,1.393851 0.0285,1.507622 0.9956,1.536065 0.96716,0.02844 1.96276,0 2.70235,0.02844 0.73959,0.02844 1.05249,0.05691 1.08093,0.682705 0.0284,0.625792 -0.36978,0.654261 -1.05249,0.654261 -0.6827,0 -4.66508,0.05689 -5.43311,0.05689 -0.76803,0 -0.91027,-0.199126 -0.91027,-0.853387 0,-0.654235 0.34134,-7.594971 0.39825,-8.306118 0.0569,-0.711147 0.14221,-1.052486 0.73959,-1.080928 0.59735,-0.02847 3.92549,-0.14224 5.06333,-0.113798 z"
           id="path1313"
           inkscape:connector-curvature="0" />
        <path
           style="fill:#99bd63;fill-opacity:1;stroke:none;stroke-width:0.26458332px;stroke-linecap:butt;stroke-linejoin:miter;stroke-opacity:1"
           d="m 769.59704,-89.696433 c 1.79199,0.01757 2.56011,1.507623 2.617,2.104972 0.0569,0.597377 0.14224,0.768019 -1.05249,0.796476 -1.1947,0.02846 -1.22319,-0.170656 -1.25161,-0.59735 -0.0284,-0.426693 -0.17066,-0.88179 -1.08093,-0.910246 -0.91027,-0.02846 -1.19472,0.654235 -1.25161,1.735164 -0.0569,1.080955 0.1138,1.308523 1.45073,1.308523 1.33694,0 2.90148,0.654234 2.98681,2.645437 0.0853,1.9912 -0.59738,3.072142 -2.36101,3.214369 -1.76364,0.142227 -2.50323,0.142197 -3.44191,-0.02847 -0.93872,-0.170673 -1.4223,-1.649836 -1.4223,-2.304097 0,-0.654235 0.22757,-0.568907 1.22317,-0.568907 0.9956,0 1.22317,0.227568 1.22317,0.711147 0,0.483579 0.0853,0.768033 1.10937,0.796475 1.02404,0.02844 1.33697,-0.369781 1.36541,-1.422294 0.0284,-1.052485 -0.34137,-1.564505 -1.53609,-1.621393 -1.1947,-0.05689 -3.10056,-0.654235 -3.15746,-2.958359 -0.0569,-2.304098 0.73959,-2.645423 1.79208,-2.78765 1.05248,-0.142226 1.67799,-0.124675 2.78767,-0.113797 z"
           id="path1315"
           inkscape:connector-curvature="0"
           sodipodi:nodetypes="sssssssssssssssssss" />
        <path
           sodipodi:nodetypes="sssssssssssssssssss"
           inkscape:connector-curvature="0"
           id="path1317"
           d="m 777.99981,-89.867107 c 1.79199,0.01757 2.56011,1.507623 2.617,2.104972 0.0569,0.597377 0.14224,0.768019 -1.05249,0.796476 -1.1947,0.02846 -1.22319,-0.170656 -1.25161,-0.59735 -0.0284,-0.426693 -0.17066,-0.88179 -1.08093,-0.910246 -0.91027,-0.02846 -1.19472,0.654235 -1.25161,1.735164 -0.0569,1.080955 0.1138,1.308523 1.45073,1.308523 1.33694,0 2.90148,0.654234 2.98681,2.645437 0.0853,1.9912 -0.59738,3.072142 -2.36101,3.214369 -1.76364,0.142227 -2.50323,0.142197 -3.44191,-0.02847 -0.93872,-0.170673 -1.4223,-1.649836 -1.4223,-2.304097 0,-0.654235 0.22757,-0.568907 1.22317,-0.568907 0.9956,0 1.22317,0.227568 1.22317,0.711147 0,0.483579 0.0853,0.768033 1.10937,0.796475 1.02404,0.02844 1.33697,-0.369781 1.36541,-1.422294 0.0284,-1.052485 -0.34137,-1.564505 -1.53609,-1.621393 -1.1947,-0.05689 -3.10056,-0.654235 -3.15746,-2.958359 -0.0569,-2.304098 0.73959,-2.645423 1.79208,-2.78765 1.05248,-0.142226 1.67799,-0.124675 2.78767,-0.113797 z"
           style="fill:#99bd63;fill-opacity:1;stroke:none;stroke-width:0.26458332px;stroke-linecap:butt;stroke-linejoin:miter;stroke-opacity:1" />
      </g>
      <path
         inkscape:connector-curvature="0"
         id="path1328"
         d="m 872.44851,-92.848328 c -0.0426,-0.0018 -0.0857,-0.0015 -0.12879,7.02e-4 -0.53605,0.02647 -1.10273,0.35165 -1.80872,1.094768 -1.61372,1.698548 -1.7085,1.819726 -1.74017,2.638678 -0.0317,0.818952 -0.0317,1.910839 0,2.396138 0.0317,0.4853 0.0635,0.736056 0.63296,0.728024 2.01495,-0.02846 4.02906,-0.07236 6.04322,-0.129988 0.88613,-0.02538 1.10759,-9.4e-5 1.10759,-1.183001 0,-1.182928 0.0318,-1.143644 0.0318,-1.962579 0,-0.818952 -0.66458,-1.213564 -2.12009,-2.457136 -0.76755,-0.655815 -1.37676,-1.100662 -2.01782,-1.125627 z m -1.89245,3.820952 c 0.80569,-0.01152 0.78297,0.321551 0.78297,0.79339 0,0.471841 -0.0894,0.729494 -0.69358,0.708057 -0.60409,-0.02144 -0.7159,-0.128705 -0.7159,-0.621999 0,-0.493293 -0.0685,-0.869501 0.62651,-0.879448 z m 4.00497,0 c 0.80568,-0.01152 0.78296,0.321551 0.78296,0.79339 0,0.471841 -0.0894,0.729494 -0.69358,0.708057 -0.6041,-0.02144 -0.71591,-0.128705 -0.71591,-0.621999 0,-0.493293 -0.0685,-0.869501 0.62653,-0.879448 z m -2.62047,4.48798 c -1.27811,0 -2.46966,0.0053 -2.70458,0.01599 -0.46984,0.02145 -0.64887,-5.5e-5 -0.62651,1.651403 0.0224,1.651457 1.11855,1.587261 1.16326,2.766861 0.0448,1.179617 0.20169,1.436824 0.7163,1.415389 0.5146,-0.02145 0.62651,-0.128557 0.64887,-0.771973 0.0224,-0.643416 0.24605,-0.772308 1.40947,-0.793743 1.16346,-0.02145 1.20826,0.23603 1.25304,0.879447 0.0446,0.643453 0.3803,0.686269 0.73826,0.686269 0.35799,0 0.49204,-0.04291 0.51441,-1.265434 0.0224,-1.222489 1.54396,-2.016064 1.5216,-3.195682 -0.0224,-1.179598 -0.15655,-1.393973 -1.40948,-1.372537 -0.58171,-0.01072 -1.94654,-0.01599 -3.22464,-0.01599 z m -1.51896,1.345673 c 0.80568,-0.01152 0.78334,0.321922 0.78334,0.793762 0,0.471821 -0.0894,0.729121 -0.69357,0.707685 -0.6041,-0.02144 -0.7159,-0.128704 -0.7159,-0.621998 0,-0.493295 -0.0689,-0.869502 0.62613,-0.879449 z m 4.00495,0 c 0.80569,-0.01152 0.78334,0.321922 0.78334,0.793762 0,0.471821 -0.0894,0.729121 -0.69356,0.707685 -0.60411,-0.02144 -0.71628,-0.128704 -0.71628,-0.621998 0,-0.493295 -0.0685,-0.869502 0.6265,-0.879449 z"
         style="fill:#99bd63;fill-opacity:1;stroke:none;stroke-width:0.18988302px;stroke-linecap:butt;stroke-linejoin:miter;stroke-opacity:1" />
    </g>
  </g>
</svg>
