<svg xmlns="http://www.w3.org/2000/svg" width="4368.074" height="1678.66" viewBox="0 0 1155.72 444.145"><path d="M766.277 15.796c-.168-8.236.966-11.95-16.809-13.279-16.378-1.224-63.436-1.059-83.708 1.513-18.072 2.293-25.55 3.362-26.558 9.413-1.009 6.051-1.009 9.75-1.009 10.758 0 1.008 128.084-8.405 128.084-8.405z" fill="#e1e1e1"/><path d="M211.248 442.573c38.324-.336 66.227-.336 75.64-2.017 9.413-1.68 16.137-8.068 18.154-21.851 2.017-13.783 2.69-24.205 2.353-29.92-.336-5.715-75.304 5.379-75.304 5.379z" fill="#161616"/><path d="M166.768 403.728c25.436.237 29.001-.238 29.952-7.845.951-7.607 28.526-82.01 28.526-82.01s-34.706-30.428-42.075-7.608c-7.37 22.82-21.395 97.463-16.403 97.463z" fill="#0f0f0f"/><path d="M208.606 323.143c26.148-.476 32.804 6.18 34.23 14.976 1.427 8.795 6.894 37.32.951 60.854-5.942 23.534-11.648 42.789-32.566 43.74-20.919.95-34.231-38.748-33.518-66.322.713-27.575 15.927-53.01 30.903-53.248z" fill="#1d1d1d"/><path d="M244.5 399.449c-6.18-.238-6.655-.713-7.13-6.418-.476-5.706-.714-35.42-6.895-50.871-6.18-15.451-13.074-31.854-29.951-32.33-16.878-.474-24.485 35.42-25.198 45.166-.713 9.747-1.664 31.379-1.664 35.895 0 4.517-.713 6.418-4.517 6.656-3.803.238-5.23-16.64-5.23-16.64l8.32-67.51s36.133-26.387 47.306-11.41c11.172 14.975 34.944 63.469 34.944 63.469z" fill="#161616"/><path d="M398.835 387.104c12.775 51.771 16.137 55.133 70.597 54.46 54.461-.671 53.789-30.927 57.15-48.409 3.362-17.48-127.747-6.05-127.747-6.05zM825.594 384.004c8.068 48.41 28.195 60.556 70.82 59.092 43.754-1.502 58.459-33.132 57.786-56.664-.672-23.533-128.606-2.428-128.606-2.428zM563.226 403.24c37.988-1.008 64.546-29.247 64.546-29.247l5.379-76.312-55.806 4.706s-39.669 97.156-14.12 100.854z" fill="#0f0f0f"/><path d="M638.154 444.139c60.379-.475 63.707-43.74 63.232-67.51-.476-23.772-17.809-68.527-56.469-68.19-38.66.336-71.606 7.06-73.287 68.916-1.68 61.857 47.658 67.005 66.524 66.784z" fill="#1d1d1d"/><path d="M634.35 332.414c-34.944-1.159-41.276 21.846-42.075 37.083-1.358 25.893 10.697 48.731 35.182 49.682 31.377 1.219 38.747-33.28 39.936-38.51 1.188-5.23-24.961-47.987-33.043-48.255z" fill="#5a5a5a"/><path d="M655.086 402.652c-8.488 8.237-12.354 12.019-22.355 12.187-10.002.168-20.34-2.101-29.416-15.632-9.077-13.532-7.48-28.912-6.051-36.308 1.429-7.396 9.665-17.229 14.035-20.927 4.37-3.698 12.859-6.807 23.7-5.715 10.842 1.093 11.515 23.197 11.515 23.197z" fill="#4f4f4f"/><path d="M625.25 344.073c19.33 1.177 24.542 19.835 24.205 28.744-.336 8.908.673 35.466-23.196 34.29-23.868-1.177-27.903-22.524-27.062-35.803.84-13.28 9.58-27.903 26.054-27.23z" fill="#666"/><path d="M624.074 355.84c16.136 1.008 19.666 10.925 20.003 16.977.336 6.05-3.362 26.053-18.49 24.372-15.128-1.68-18.49-16.64-17.481-24.54 1.008-7.9 6.891-17.314 15.968-16.81z" fill="#575757"/><path d="M623.178 347.627c2.971 0 3.922 1.189 4.16 3.447s-.594 3.566-3.804 3.566c-3.209 0-5.11-1.664-5.11-3.328s.95-3.566 4.754-3.685zM610.58 352.738c2.97 0 3.921 1.189 4.16 3.447.237 2.258-.595 3.566-3.804 3.566-3.21 0-5.111-1.664-5.111-3.328s.95-3.566 4.754-3.685zM603.685 365.931c2.972 0 3.923 1.189 4.16 3.447.238 2.258-.594 3.566-3.803 3.566-3.21 0-5.11-1.664-5.11-3.328s.95-3.566 4.753-3.685zM604.399 380.907c2.971 0 3.922 1.189 4.16 3.447.237 2.258-.595 3.566-3.804 3.566-3.209 0-5.11-1.664-5.11-3.328s.95-3.566 4.754-3.685zM612.6 393.268c2.971 0 3.922 1.189 4.16 3.447.237 2.258-.595 3.566-3.804 3.566-3.209 0-5.11-1.664-5.11-3.328s.95-3.566 4.754-3.685zM624.96 398.141c2.972 0 3.923 1.189 4.16 3.447.238 2.259-.594 3.566-3.803 3.566s-5.11-1.664-5.11-3.328.95-3.566 4.754-3.685zM637.084 392.793c2.972 0 3.922 1.188 4.16 3.447.238 2.258-.594 3.565-3.803 3.565-3.21 0-5.111-1.664-5.111-3.328s.95-3.565 4.754-3.684zM636.728 350.718c2.971 0 3.922 1.188 4.16 3.446.237 2.259-.595 3.566-3.804 3.566-3.209 0-5.11-1.664-5.11-3.328s.95-3.566 4.754-3.684z" fill="#131313"/><path d="M635.924 407.527c3.362-1.345 5.631-.504 6.976 1.429 1.345 1.933.885 3.277-1.38 4.251-1.973.848-3.915.875-6.184-1.226-2.27-2.1-1.009-3.614.588-4.454zM618.359 407.863c3.446.42 4.622 2.101 5.463 3.698.84 1.597-.084 2.774-3.95 1.429s-3.782-2.017-3.95-3.278c-.168-1.26.168-2.101 2.437-1.849zM606.509 401.476c0-3.11-1.261-4.707-2.606-6.051-1.344-1.345-3.193-1.43-2.017 1.092 1.177 2.521 4.79 7.564 4.623 4.959zM596.34 377.271c.167-6.724 2.016-4.959 2.184-.084.169 4.875-2.017 6.64-2.185.084zM601.214 354.915c2.857-5.21 4.706-3.362 2.017 1.177-2.69 4.538-4.622 4.034-2.017-1.177zM614.409 341.636c-1.435 3.719.672 3.782 3.278 2.101 2.605-1.68 3.025-2.941 3.193-4.034.168-1.092-1.008-1.68-2.857-1.26-1.85.42-3.186 2.084-3.614 3.193zM633.823 340.796c-.444-2.759 1.26-3.11 3.026-2.438 1.765.673 3.614 5.043 2.521 5.127-1.093.084-4.75 2.257-5.547-2.69z" fill="#0d0d0d"/><path d="M650.04 399.449c-5.706-.238-6.656-.238-7.132-6.18-.475-5.944-2.615-52.298-13.312-67.987-10.697-15.689-15.469-23.31-33.825-19.672-12.622 2.502-24.864 38.417-25.128 57.706-.356 26.03-.41 26.168-5.556 26.12-4.252-.041.564-65.342.564-65.342l33.993-33.993 33.518 9.033 15.451 46.592z" fill="#161616"/><path d="M12.231 97.992l2.017 183.552 771.863-26.221-4.034-204.396z" fill="#151515"/><path d="M461.364 123.541c0 15.8 1.009 109.93 1.345 116.317.336 6.388 0 8.069 8.068 8.069s82.027-1.681 88.75-2.017c6.724-.337 9.75-1.345 9.75-7.396s-5.043-118.67-5.043-120.688c0-2.017 4.035-5.715 4.035-5.715l-2.354-29.584-107.913 4.37zM453.296 124.213c0 14.456.672 111.275 1.008 116.654.337 5.379-1.68 7.732-6.387 8.068-4.706.336-76.985 2.017-82.7 2.017-5.715 0-7.732.337-8.068-6.387-.336-6.724-3.362-110.939-3.698-115.309-.336-4.37.673-34.962.673-34.962l95.474-5.38zM343.366 130.265c.336 16.136 1.008 89.759 1.345 96.819.336 7.06.672 9.749-4.707 10.421-5.379.673-71.606 2.017-79.338 2.353-7.732.337-9.413 0-9.749-7.732-.336-7.732.336-97.155 0-102.534-.336-5.379 1.345-31.264 1.345-31.264l93.12-2.017zM243.185 135.307v98.5c0 5.043-1.68 7.06-8.404 7.396-6.724.336-62.193 3.362-67.572 3.362-5.379 0-9.413.336-10.085-7.732-.673-8.068-1.345-95.138-1.681-99.845-.336-4.706.336-31.6.336-31.6l91.44-3.362s3.026 34.29-4.034 33.281zM145.694 137.997c-.337 17.48-.673 90.431-.673 97.491 0 7.06-3.025 9.413-10.757 10.085-7.733.673-58.495.673-64.547 1.009-6.05.336-9.749-.336-10.421-8.068-.672-7.732-.672-94.802-1.009-100.181-.336-5.379.337-27.903.337-27.903l87.742-6.387zM603.35 84.722c0-4.992-.238-4.992 4.516-5.23 4.754-.238 35.42-1.664 40.173-1.664 4.755 0 5.694.713 5.705 5.23l.337 135.016c.011 4.754-.238 7.844-3.566 8.082-3.328.238-35.182 1.426-39.46 1.664-4.28.238-5.23-.713-5.706-5.705-.475-4.992-2.237-129.311-2-137.393zM38.79 114.128c9.748-.336 10.084-.336 10.757 9.413.672 9.75-.673 105.896-.673 113.628 0 7.732 1.35 10.57-7.732 10.422-8.4-.138-8.404-1.681-8.74-10.758-.336-9.077-1.009-103.207-1.009-112.283 0-9.077.336-9.75 7.396-10.422zM734.19 210.467c-.95-33.756-1.902-90.094-1.902-92.708 0-2.615.238-4.28 5.23-4.517 4.992-.238 22.345-.475 27.337-.713 4.992-.238 5.467-.238 5.705 4.516.238 4.755 1.189 85.34 1.426 90.807.238 5.467.476 7.844-3.565 8.082-4.041.238-22.108.713-24.01.713-1.901 0-10.221-6.18-10.221-6.18zM719.808 114.55c6.537-.238 7.607-.595 7.964 5.348.356 5.943 1.307 89.737 1.307 93.302 0 3.566 0 4.517-3.922 4.755-3.922.237-24.366 1.07-28.526 1.07s-4.873-.476-4.992-4.398c-.119-3.923-1.188-90.926-1.307-94.135-.119-3.209 0-4.635 3.566-4.873 3.565-.238 19.968-.832 25.91-1.07zM688.668 234.595c.238-5.705-.238-5.943 4.754-6.419 4.992-.475 70.72-2.496 75.83-2.733 5.112-.238 5.468.237 5.944 5.586.475 5.349-3.685 10.222-3.685 10.222s-12.718.95-19.492 1.188c-6.775.238-51.822 1.664-56.933 1.902-5.11.238-5.943-.95-6.18-4.279-.238-3.328-.238-2.971-.238-5.467z" fill="#4b4b4b"/><path d="M747.955 232.63c13.28.673 13.28-.504 14.624-8.068 1.345-7.564 2.185-33.954 1.68-39.837-.503-5.883.337-8.236-12.27-8.236-12.606 0-14.791 2.185-16.136 9.077-1.345 6.891-2.017 30.088-1.009 38.156 1.009 8.068 3.026 8.74 13.111 8.909z" fill="#1e1e1e"/><path d="M770.311 232.967c0-2.522.336-3.53 1.85-3.53 1.512 0 1.512.504 1.68 2.69.168 2.185.336 3.193 2.69 3.361 2.353.168 6.219-.84 6.387.336.168 1.177.336 15.8.336 15.8s-13.111 2.186-13.111-.672c0-2.857.168-3.698-2.521-3.866-2.69-.168-7.564-.168-9.413-.168-1.85 0-3.026-.504-3.194-3.025-.168-2.522-.336-9.918-.504-12.775-.168-2.858 1.176-4.034 1.345-6.556.168-2.52.672-37.315.672-40.34 0-3.026.336-4.875 1.513-4.875 1.176 0 1.68.168 1.849 3.193.168 3.026-.673 38.66-.673 41.014 0 2.353-1.176 16.64 4.539 16.64s6.05-3.865 6.555-7.227z" fill="#242424"/><path d="M774.168 38.488l-22.94 2.621 3.966 21.155c11.047-.658 18.378-1.126 19.433-1.272 1.197-.166 2.106-.378 2.803-.627z" fill="#b95428"/><path d="M754.505 39.58l-59.864 5.243-4.944 21.163c30.55-1.697 56.49-3.167 71.345-4.071z" fill="#b33b27"/><path d="M689.835 60.117l-.703 5.9c5.763-.32 11.374-.632 16.76-.934z" fill="#b95428"/><path d="M689.398 61.21l47.41-18.134-48.721-1.311z" fill="#aa683b"/><path d="M686.995 44.605l1.747 16.167 6.336-15.293z" fill="#b95428"/><path d="M688.96 60.772l.875-16.386-22.94.656s18.57 17.697 22.066 15.73z" fill="#b33b27"/><path d="M643.141 43.349l.142 25.193c15.845-.868 31.473-1.727 45.875-2.526l-.906-6.91-11.896-13.285z" fill="#983629"/><path d="M643.299 47.554l-13.11 1.202-4.187 20.734c6.835-.373 13.343-.732 20.068-1.1z" fill="#b95428"/><path d="M632.593 46.79l-19.335 1.748-6.775 22.016c8.274-.45 16.12-.88 24.36-1.33z" fill="#aa683b"/><path d="M609.98 67.217l6.555-20.755-16.823.983s4.807 20.319 10.269 19.772z" fill="#b95428"/><path d="M603.208 47.554l-21.302.547 3.93 23.575c7.677-.417 15.225-.826 23.008-1.25l1.137-3.208z" fill="#b33b27"/><path d="M550.008 45.26l7.675 27.943c10.38-.56 21.179-1.149 32.073-1.74l-2.388-23.144zM498.228 66.672l-8.593 10.192c9.146-.49 11.704-.624 24.064-1.289l1.134-4.534z" fill="#aa683b"/><path d="M496.377 54.78s4.017 19.157 7.107 18.54c3.09-.619 9.887-17.303 9.887-17.303s-15.758-9.27-16.994-1.236z" fill="#b95428"/><path d="M510.245 54.873l-5.79 17.042 6.991.655 17.042-19.226z" fill="#b33b27"/><path d="M555.47 52.47l-28.62 1.31-22.067 18.135 3.341 3.96c16.783-.902 35.008-1.884 55.91-3.015z" fill="#5e1e24"/><path d="M495.17 50.722l-38.453 3.496 7.621 23.999c5.384-.286 16.535-.884 28.9-1.546l10.89-4.538z" fill="#b33b27"/><path d="M689.32 65.776c2.63-.272 3.004-2.182 2.877-5.865-.127-3.683-1.37-4.637-3.12-4.365-1.749.273-2.467 1.774-2.464 5.047.003 3.274.614 5.047 2.708 5.183zM503.979 74.686c1.417-.147 1.618-1.176 1.55-3.161-.069-1.985-.738-2.5-1.681-2.353-.943.147-1.33.956-1.329 2.72.001 1.765.331 2.72 1.46 2.794z" fill="#e3e3e3"/><path d="M78.093 79.999l1.966 18.789 14.42-17.697z" fill="#b33b27"/><path d="M90.983 81.31L80.059 96.383l-4.404 5.462 34.126-2.092-.883-17.134z" fill="#832421"/><path d="M80.933 83.057l.218 14.42S66.513 85.679 70.227 84.15c3.715-1.53 10.706-1.093 10.706-1.093z" fill="#c06e39"/><path d="M80.714 95.73l-33.864.436-10.974 8.118c2.846-.173 33.793-2.071 44.058-2.7z" fill="#b95428"/><path d="M47.943 97.258h31.242l-5.025-15.73-30.587 1.092z" fill="#832421"/><path d="M47.943 83.494v13.983S24.565 82.839 31.775 82.402c7.21-.437 16.168 1.092 16.168 1.092z" fill="#983629"/><path d="M35.49 81.528L4.037 86.483c.007 1.63.022 3.355.036 5.17l8.694 91.905h6.003c-.182-37.42-.352-74.202-.314-75.553.08-2.765.316-2.686 5.69-3.002l22.396-1.373 1.181-5.498z" fill="#b33b27"/><path d="M11.02 79.998l-6.955 1.776c-.085 4.078.031 8.925.031 14.506 0 10.716-1.04 49.413-1.824 81.251 3.634 3.434 8.22 4.865 13.991 3.405z" fill="#b95428"/><path d="M2.762 157.898c-.569 22.629-1.135 45.174-1.297 56.85l16.109-30.753z" fill="#832421"/><path d="M16.482 180.28L1.58 207.978c-.101 5.27-.166 9.557-.166 12.114 0 3.127.148 9.678.383 18.215 1.876 2.516 4.143 4.21 6.82 4.022 3.08-.214 6.775-.497 10.44-.784l-.299-60.761a7.08 7.08 0 00-2.276-.502z" fill="#c06e39"/><path d="M19.103 348.072l-13.567 3.422c.142 4.203.237 7.11.237 7.495 0 2.793-1.453 2.793-3.576 2.905-2.124.112-1.788 1.564-2.012 4.47-.223 2.905-.224 10.168-.112 13.856.112 3.687.894 6.369 4.917 7.822 1.851.668 13.499 3.454 26.317 6.406z" fill="#b95428"/><path d="M39.203 312.68l-34.32 19.8c.512 14.818.89 25.705.89 26.509 0 .199-.01.38-.024.551 9.767 1.626 9.77 1.626 12.262 2.078 2.621-.218 21.192-48.939 21.192-48.939z" fill="#832421"/><path d="M1.845 240.026c.724 25.756 2.187 67.891 3.11 94.542l33.52-19.01z" fill="#983629"/><path d="M1.687 234.122c.116 4.465.258 9.521.43 15.243l35.12 66.81 9.58-37.695-5.257-9.337c-10.218.338-17.007.581-18.836.685-3.317.187-3.556-.699-3.556-5.595 0-.552-.097-19.7-.138-27.991z" fill="#b95428"/><path d="M66.928 268.333c-14.014.438-25.672.813-33.197 1.072l3.724 46.77z" fill="#b33b27"/><path d="M81.597 267.88c-8.68.267-17.619.541-24.535.761l-19.607 47.097 41.293-.437z" fill="#b95428"/><path d="M37.237 315.738l37.36-8.521s1.53 55.712-15.512 52.435c-17.041-3.277-21.848-43.914-21.848-43.914zM37.019 316.612L18.01 361.618s.298 21.074.893 29.94c3.919.93 8.398 1.97 12.987 3.025 1.971-.462 3.38-.848 3.38-.848z" fill="#5e1e24"/><path d="M37.237 315.52l-8.859 78.25c1.953.454 3.87.9 5.882 1.361 10.28-7.625 24.607-35.698 24.607-35.698z" fill="#b33b27"/><path d="M58.701 360.436l-28.05 33.86c11.739 2.708 24.57 5.582 32.074 7.152z" fill="#b95428"/><path d="M58.713 361.131l-3.123 38.785c5.608 1.224 10.093 2.167 12.2 2.54.44.078.893.151 1.348.223z" fill="#5e1e24"/><path d="M64.765 358.997l-6.117 1.529 2.64 40.617c2.867.607 5.182 1.08 6.502 1.314 4.982.883 11.032 1.41 17.185 1.68z" fill="#c06e39"/><path d="M59.303 359.652l21.702 44.272c5.993.383 12.29.495 17.961.432 3.831-.042 14.424-.119 25.783-.2l-3.616-24.841z" fill="#b95428"/><path d="M162.863 387.399l-5.244.437-10.246 16.15c5.278-.04 10.306-.08 13.618-.114z" fill="#b33b27"/><path d="M162.644 387.836l-43.218 15.393v.966c9.865-.072 20.245-.148 29.47-.22z" fill="#983629"/><path d="M126.814 331.905s-24.07 49.962-7.818 72.293l.358-.003 42.198-13.738 5.025-12.453z" fill="#832421"/><path d="M124.629 336.493S62.58 351.35 58.867 358.997l60.187 45.2c.095 0 .199 0 .295-.002z" fill="#b33b27"/><path d="M74.597 307.217l-15.512 52.872 63.796-22.285s-36.268-37.578-48.284-30.587z" fill="#832421"/><path d="M107.734 267.08c-12.563.38-23.409.714-33.528 1.028l.39 39.109 49.814 33.864z" fill="#c06e39"/><path d="M125.415 266.55c-11.54.345-22.721.681-32.62.984l30.96 73.11z" fill="#983629"/><path d="M147.312 265.893c-10.693.317-19.775.592-29.38.881l5.386 72.997z" fill="#b95428"/><path d="M168.572 264.74c-10.68.314-21.087.62-30.879.912l-14.594 73.37 53.746-14.2z" fill="#832421"/><path d="M173.787 317.267l-50.688 21.63 39.982 47.847z" fill="#5e1e24"/><path d="M37.573 318.263c1.562-.147 1.785-1.176 1.71-3.161-.076-1.985-.814-2.5-1.854-2.353-1.04.147-1.466.956-1.464 2.72.001 1.765.365 2.72 1.608 2.794zM79.877 100.382c2.287-.238 2.612-1.898 2.501-5.101-.11-3.203-1.19-4.034-2.712-3.796-1.522.237-2.146 1.542-2.144 4.389.002 2.847.534 4.39 2.355 4.508zM58.85 364.248c2.722-.265 3.11-2.117 2.978-5.69-.131-3.571-1.417-4.497-3.228-4.233-1.811.265-2.555 1.72-2.551 4.895.003 3.175.635 4.895 2.802 5.028zM16.648 183.602c1.345-.13 1.536-1.046 1.471-2.81-.065-1.765-.7-2.223-1.595-2.092-.895.13-1.262.85-1.26 2.418 0 1.569.314 2.419 1.384 2.484zM47.61 100.588c1.707-.177 1.95-1.417 1.867-3.808-.082-2.39-.889-3.01-2.025-2.833-1.136.177-1.602 1.151-1.6 3.276.002 2.125.399 3.277 1.758 3.365zM122.647 343.055c2.721-.264 3.108-2.117 2.977-5.689-.132-3.572-1.417-4.498-3.228-4.233-1.811.264-2.555 1.72-2.551 4.895.003 3.175.635 4.895 2.802 5.027z" fill="#e3e3e3"/><path d="M539.958 378.66l-3.083 24.665c14.923-.029 24.721-.068 25.518-.121 4.741-.316 4.584-.632 4.584-5.531 0-1.234-.08-3.51-.175-6.532z" fill="#983629"/><path d="M550.227 325.35l-10.706 54.184 27.456 18.244v-.105c0-4.899-1.258-26.057.307-46.171.379-4.874 1.235-10.432 2.652-16.083z" fill="#5e1e24"/><path d="M569.179 254.182l-1.273.033c-12.192.316-24.336.631-37.054.965l-.639.016 21.626 71.484 22.555-56.851z" fill="#b95428"/><path d="M574.478 267.236l-30.15 58.77 22.205 43.233v-.003a336.466 336.466 0 01.17-7.163c.028-.788.058-1.578.093-2.37.02-.452.038-.903.06-1.356l.014-.265a257.892 257.892 0 01.218-3.805c.015-.233.029-.466.045-.698.047-.694.097-1.386.15-2.078a88.575 88.575 0 01.19-2.092c.06-.58.123-1.168.195-1.763l.022-.175c.067-.543.14-1.093.218-1.647l.06-.427c.085-.593.177-1.19.275-1.793l.06-.356c.087-.517.178-1.037.274-1.56l.086-.472c.114-.603.233-1.209.36-1.818.03-.152.064-.304.096-.456.11-.52.226-1.041.345-1.564l.097-.427a97.718 97.718 0 01.708-2.839l.03-.115a94.09 94.09 0 01.78-2.745l.037-.126c.124-.411.251-.822.382-1.232l.053-.171a83.94 83.94 0 011.428-4.101l.027-.072a73.456 73.456 0 011.67-4.053l.023-.05c.192-.428.388-.853.588-1.276l.025-.055a64.06 64.06 0 012.01-3.887 53.725 53.725 0 012.238-3.636l.057-.084c.254-.376.513-.748.776-1.115l.008-.011a44.535 44.535 0 011.711-2.232z" fill="#aa683b"/><path d="M577.882 253.957c-6.754.174-13.408.345-20.345.526l17.938 13.028z" fill="#5e1e24"/><path d="M584.705 253.78l-10.166.263.782 13.004z" fill="#b33b27"/><path d="M599.58 253.395c-5.84.15-12.18.316-18.187.47l-6.072 12.874 14.213 4.634z" fill="#832421"/><path d="M574.04 268.765l5.731 43.516c4.965-7.257 11.584-12.734 20.192-14.29z" fill="#b33b27"/><path d="M574.548 267.047l16.074 34.52c3.52-2.155 7.495-3.553 11.973-3.926 24.136-2.012 39.13 35.398 41.184 48.357.37 2.334.734 5.466 1.086 9.024.152-.064.3-.138.44-.225 9.886-6.18 24.408-53.762 24.408-53.762z" fill="#b95428"/><path d="M660.122 313.553l-19.473 21.2c1.626 5.81 2.347 10.449 2.793 13.262 1.735 10.942 3.682 36.792 4.335 47.355.6-.242 1.22-.704 1.858-1.417 11.142-12.453 16.386-76.249 10.487-80.4z" fill="#983629"/><path d="M659.685 313.99l-12.4 73.401c.38 6.14.659 10.902.76 12.02.317 3.477.633 4.741 3.951 4.583.863-.041 9.222-.149 21.041-.29z" fill="#832421"/><path d="M664.844 251.74c-21.837.547-46.23 1.167-72.016 1.83l-18.569 14.54 85.863 45.88z" fill="#983629"/><path d="M685.115 251.239c-10.33.255-20.659.512-32.24.803l6.81 61.292z" fill="#b95428"/><path d="M699.21 250.89c-7.205.176-14.918.368-22.877.566l-16.648 62.752 48.72 6.118z" fill="#b33b27"/><path d="M727.085 250.211c-9.68.233-20.138.488-32.019.781l7.862 63.174 45.24 9z" fill="#5e1e24"/><path d="M744.744 249.787c-9.135.216-19.858.473-31.99.769l32.793 69.115 5.025.436z" fill="#983629"/><path d="M757.12 249.502c-5.278.12-10.799.249-17.828.416l7.566 70.408 7.428-7.865z" fill="#b33b27"/><path d="M773.976 249.126c-4.478.09-12.33.268-21.896.49l-6.096 67.432c6.99 4.594 24.933-57.18 27.992-67.922zM731.277 392.415l-6.875 3.012-.457 7.679c5.45-.065 10.7-.128 15.941-.193z" fill="#b95428"/><path d="M725.02 395.89c-2.895 1.687-1.506 4.801-2.175 7.23l6.135-.074z" fill="#983629"/><path d="M724.248 395.427l-7.914 7.77 8.4-.1z" fill="#b95428"/><path d="M659.671 312.93l6.371 90.86c12.648-.157 31.88-.377 52.117-.616l6.707-8.673-15.913-54.535z" fill="#983629"/><path d="M779.163 249.03c-1.174.012-4.225.072-8.621.166l-23.684 68.726c-4.31 14.3 28.529.535 35.383-2.472-.39-24.957-1.222-66.457-2.477-66.418a9.462 9.462 0 00-.6-.002z" fill="#b33b27"/><path d="M746.202 320.107l35.831-9.613 4.151 64.889s-42.822-35.394-39.982-55.276z" fill="#983629"/><path d="M702.928 314.167a4829.944 4829.944 0 00-43.102-.927s-1.081.618 1.081 3.09c2.163 2.471 63.186 78.634 63.186 78.634l3.553-7.261z" fill="#aa683b"/><path d="M724.402 393.573c-6.025-24.872-21.474-79.406-21.474-79.406s40.167 6.025 42.33 6.334c2.163.309 2.317 15.448 2.317 15.448s-18.075 60.714-23.173 57.624z" fill="#b95428"/><path d="M724.248 394.655c4.789-14.368 20.546-67.975 21.628-70.91 1.081-2.935.618-2.627 2.78.463 2.164 3.09 31.98 43.875 33.216 46.038 1.236 2.163.463 16.993.463 16.993z" fill="#b33b27"/><path d="M784.318 382.525c-8.888 1.803-53.844 10.642-57.135 11.358-3.553.772-3.09 1.699-3.09 1.699s.336.128 11.163 7.389c22.358-.272 42.406-.538 49.8-.715z" fill="#c06e39"/><path d="M724.683 397.322c1.621-.135 1.892-1.08 1.892-2.904 0-1.824-.743-2.297-1.824-2.162-1.08.135-1.554.878-1.621 2.5-.068 1.62.27 2.498 1.553 2.566zM746.653 325.716c2.867-.298 3.274-2.38 3.136-6.395-.139-4.015-1.493-5.056-3.4-4.758-1.908.297-2.69 1.933-2.687 5.502.003 3.569.669 5.502 2.951 5.65zM659.657 316.319c1.27-.14 1.451-1.124 1.39-3.021-.062-1.897-.662-2.389-1.507-2.248-.845.14-1.192.913-1.19 2.6 0 1.685.296 2.598 1.307 2.669zM574.836 273.718c2.867-.298 3.274-2.38 3.136-6.395-.139-4.015-1.493-5.056-3.4-4.758-1.908.297-2.69 1.933-2.687 5.502.003 3.569.669 5.502 2.951 5.65z" fill="#e3e3e3"/><path d="M1117.397 365.246c-1.788 11.063-6.146 21.455-21.008 22.796-14.862 1.34-128.836 5.834-149.221 6.466-20.386.632-161.084 8.301-162.743 7.827-1.66-.474 4.108-8.929 4.108-8.929l66.057-10.43s262.18-14.126 262.807-17.73z" fill="#1d1d1d"/><path d="M1102.161 237.267c-.958-12.655-9.778-151.666-9.97-156.076-.192-4.41-39.882-8.82-39.882-8.82L785.982 91.736l3.835 163.363s311.386-10.354 312.344-17.832z" fill="#4f4f4f"/><path d="M1085.743 73.559c-8.261.029-21.432 1.422-21.432 1.422l-276.246 8.574-4.823 28.045 1.25 74.13 4.288 69.128 46.979 3.572 268.297-12.86-1.363-7.068c-.758-2.652-1.453-2.59-3.41-2.526-1.958.063-35.597 1.02-45.243 1.555-9.645.536-73.594 3.305-77.166 3.305-3.573 0-4.287-.447-4.734-3.216-.447-2.768-15.273-140.846-15.987-144.598-.715-3.75-.536-4.287 3.751-4.823 4.287-.535 122.18-2.857 126.647-3.036 4.465-.179 5.716-.536 5.716-3.394s.089-4.555 0-7.146c-.028-.809-2.77-1.077-6.524-1.064zM941.185 90.067c4.665.007 5.376 1.902 6.086 7.35.758 5.81 17.655 125.727 18.528 135.648.674 7.66.178 7.86-5.538 8.218-5.716.357-122.538 5.894-131.469 5.18-8.931-.715-28.937-2.144-30.724-20.9-1.786-18.756-1.609-52.11-2.114-65.75-.505-13.642-.758-37.893-.758-46.987 0-9.094 1.263-18.441 17.178-19.704 15.915-1.264 122.266-2.78 127.824-3.032.347-.016.676-.024.987-.023z" fill="#282828"/><path d="M1106.04 247.344c-.631-6.82-4.168-12.757-4.294-8.463-.127 4.295-3.284 3.158-6.19 3.41-2.904.253-42.313 1.137-60.248 1.769-17.936.631-137.297 5.431-157.885 6.063-20.589.631-53.176 3.789-67.954-.253-14.778-4.042-18.546-23.414-19.796-32.524s-4.108 33.404-4.108 33.404l31.08 18.755 221.319-7.86 68.592-1.786z" fill="#303030"/><path d="M788.824 309.568l1.512 34.962 116.606-4.724-2.268-36.475s-115.472 3.78-115.85 6.237z" fill="#121212"/><path d="M1107.175 297.85c1.417 4.725 2.646 23.813 2.268 25.986-.378 2.174-11.34 5.575-11.34 5.575l-57.01 3.647-.801-34.745 65.882-2.673z" fill="#141414"/><path d="M1112.845 291.236L784.1 302.386l2.267 44.223 122.276-4.535 139.851-6.426 52.539-2.08s12.473.096 12.85-.755c.379-.85.19-4.347.19-7.182 0-2.834.189-3.59-1.228-3.78-1.418-.188-3.119-.094-5.954.095-2.834.19-3.023.567-3.118 2.268-.095 1.7-.378 2.457-3.307 2.74-2.93.284-51.5 2.93-54.145 3.024-2.646.095-3.496-1.039-3.591-3.118-.094-2.079-.661-20.883-.661-23.718 0-2.835.094-3.496 2.55-3.874 2.458-.378 49.043-2.74 53.579-2.74 4.536 0 4.536 1.04 4.536 1.89 0 .85.756 1.7 2.079 1.795 1.322.094 4.252-.095 6.425-.85 2.173-.757 1.796-.662 1.607-8.127zm-213.06 13.602c1.836.031 2.262.457 2.462 3.363.267 3.876.268 23.788.134 26.193-.134 2.406-.267 3.742-3.742 4.143-3.474.4-55.191 2.138-58.8 2.004-3.608-.134-3.875-1.07-4.543-3.742-.668-2.672-1.07-4.008-6.147-3.741-5.078.267-29.266 1.47-33.542 1.336-4.277-.133-4.811-.802-5.079-3.608-.267-2.807-.801-12.027-.801-14.433 0-2.405-.936-3.741 2.94-4.276 3.875-.534 30.87-1.069 35.68-1.336 4.811-.267 5.88-.134 5.88-1.604 0-1.47.134-1.47 3.208-1.737 3.073-.267 53.854-2.406 60.002-2.54.968 0 1.736-.033 2.348-.022z" fill="#1b1b1b"/><path d="M782.51 345.218l.268 5.747s310.834-13.23 314.576-12.963c3.742.267 3.34-4.677 2.005-4.81-1.337-.134-56.662 2.94-56.662 2.94l-143.256 6.146-81.116 3.074s-34.478 1.87-35.815-.134z" fill="#211b1d"/><path d="M454.885 55.716c-17.517-.091-354.913 20.45-354.913 20.45 1.425 4.48 4.029 13.006 7.275 23.743 106.764-6.548 332.159-20.378 346.739-21.139 1.063-.055 10.43-.559 13.277-.71-1.928-5.217-3.887-10.105-5.242-14.186-2.71-8.166-2.57-8.13-7.136-8.158zm78.657 199.393c-41.44 1.086-85.103 2.25-129.028 3.456-90.008 2.47-178.319 5-247.671 7.048 6.439 21.427 11.026 36.502 11.74 38.286 2.682 6.704 2.235 9.833 1.117 18.773-1.064 8.51-10.009 69.76-11.832 81.23 4.739-.043 8.177-.08 8.704-.104 2.346-.112 2.904-.447 2.793-3.24-.112-2.795-1.23-26.26 3.017-53.303 4.246-27.042 14.08-42.686 30.17-42.462 16.092.223 25.255 16.761 32.63 36.651 7.375 19.89 7.36 53.226 7.36 57.02 0 3.792-.79 4.898 4.583 4.898 4.55 0 223.503.112 293.513-.045 3.246-16.71 12.45-79.242 13.907-84.444 1.564-5.588 1.564-9.834-1.788-16.315-2.132-4.12-11.737-28.416-19.215-47.45z" fill="#e3e3e3"/><path d="M257.304 47.397c1.681-8.236 1.009-9.077 5.547-9.245 4.539-.168 40.51-2.017 45.72-2.185 5.211-.168 5.715-.336 5.715 2.69 0 3.025-.168 6.05-.168 6.05z" fill="#b95428"/><path d="M402.197 39.329c-.504-7.9-5.547-11.43-16.473-11.935-10.926-.504-50.594 2.354-59.84 3.026-9.244.672-13.11 3.026-13.446 7.396-.337 4.37-.169 5.547-.169 6.555 0 1.009 86.398-2.857 89.928-5.042zM152.08 54.12c-1.176-11.093-4.201-12.102 11.263-13.615 15.464-1.513 16.304-1.344 17.481 5.547 1.177 6.892 1.849 7.732-.168 7.9-2.017.168-28.575.168-28.575.168z" fill="#e1e1e1"/><path d="M810.681 9.338l-.02.005c-5.81 2.01-99.675 6.034-144.373 9.163-44.697 3.129-506.868 34.193-540.168 35.981-33.3 1.788-108.838 10.28-115.99 12.292-6.037 1.698-6.18 9.311-6.079 21.99 23.626-.6 110.627-8.151 132.5-9.254 22.733-1.146 297.05-18.958 316.153-19.913 19.104-.955 315.84-16.44 321.19-17.014 4.29-.46 27.622-23.895 36.787-33.25z" fill="#cf5e27"/><path d="M798.413 89.842c6.28-2.94 11.626-3.875 23.252-4.543 11.627-.668 115.728-3.074 147.533-4.143 31.805-1.069 111.719-3.207 117.465-3.34 5.746-.134 5.613-.402 5.613-3.342s-3.528-44.798-5.04-55.57c-1.511-10.772-4.913-11.717-13.418-12.851-8.504-1.134-75.406-6.237-128.322-6.048-52.917.19-110.18 6.237-128.323 8.316-18.143 2.078-43.751 7.843-44.885 13.796-1.134 5.953 26.125 67.725 26.125 67.725z" fill="#e7e7e7"/><path d="M1112.922 286.887c-.267 5.746.468 6.347-2.205 6.548-2.672.2-65.882 2.606-70.292 2.74-4.41.133-4.677.534-6.548 3.875-1.87 3.34-13.363 24.99-17.105 29.533-3.742 4.544-4.677 4.677-10.557 4.945-5.88.267-62.407 3.073-67.218 2.672-4.811-.4-5.747-.801-8.687-4.276-2.94-3.474-16.837-25.524-19.51-28.464-2.673-2.94-3.074-3.074-7.885-3.074-4.81 0-71.227 3.207-83.12 3.207-11.894 0-34.478.802-36.35 0-1.87-.801 1.872-8.151 1.872-8.151z" fill="#232323"/><path d="M776.312 19.073c-3.927.21-5.064 4.822-5.064 11.17 0 6.804.662 23.718.756 27.12.095 3.402-.283 3.402 3.025 3.591 3.307.189 3.339 2.028 3.339 6.839 0 4.81 1.603 94.079 1.603 115.193 0 21.114 1.672 62.845 1.766 64.263.095 1.417-.236 1.7-1.937 1.7l1.374 64.064s1.002 32.606 1.938 33.275c.935.668 9.154 1.336 16.103 1.069 6.949-.268 115.46-4.477 126.084-4.945 10.624-.467 79.38-3.474 90.003-4.143 10.624-.668 60.47-3.207 66.617-3.407 6.147-.2 28.846-1.057 30.878-1.199 2.032-.141 1.748-1.606-1.654-1.512-3.401.095-26.552.946-39.403 1.607-12.852.662-117.929 5.008-130.78 5.575-12.851.567-104.133 4.064-114.527 4.63-10.394.568-32.506 1.134-36.097 1.229-3.59.094-2.93-.19-3.307-2.93-.378-2.74-1.417-33.64-1.512-37.703-.094-4.063.19-3.968 3.969-3.496 3.78.473 37.792-.211 59.174-.746 21.381-.534 87.53-2.806 119.603-4.276 32.072-1.47 95.444-4.805 111.13-5.278 15.686-.472 29.908-1.464 31.75-1.7 1.843-.237 1.843-.379 1.749-2.032-.094-1.654-.709-12.048-1.181-19.04-.473-6.993-1.418-14.836-3.119-19.467-1.7-4.63-3.496-3.78-3.024-.945.473 2.835.567 4.536-6.047 5.481-6.615.945-75.973 4.158-103.755 5.67-27.78 1.512-146.465 5.291-175.947 4.724-29.483-.567-29.388-26.647-29.672-37.986-.283-11.34.284-51.121-.283-60.287-.567-9.166-1.7-36.38-2.362-43.846-.662-7.465-.17-21.976 7.37-28.442 5.187-4.448 5.722-3.41 5.445-6.798-.303-3.703-7.837-47.411-13.194-56.23-4.344-7.153-5.726-11.063-10.811-10.792z" fill="#ebebeb"/><path d="M1118.042 356.626c-.567 15.308-2.08 15.686-10.962 16.82-8.882 1.134-74.083 4.346-98.462 5.858-24.38 1.512-131.914 4.536-153.27 5.67-21.355 1.134-58.586 14.174-64.634 15.875-6.047 1.7-7.748 2.835-8.126-1.701-.378-4.536-4.158-95.061-4.536-104.321-.378-9.26-.567-42.05-.567-43.751 0-1.701.181-2.03 2.268-2.08 1.984-.046 2.079 0 2.126 1.513.095 3.022 2.22 90.242 2.22 94.21 0 3.97.946 3.97 5.67 3.97 4.725 0 33.83-1.513 49.704-2.08 15.875-.567 99.03-3.78 125.3-5.102 26.269-1.323 111.88-5.103 124.354-5.859 12.473-.756 21.544-.945 24.001-.756 2.457.189 2.835 1.134 3.59 6.048.757 4.913 1.324 10.772 1.324 15.686z" fill="#f0f0f0"/><path d="M1107.176 300.785c4.276-.267 4.276-.267 4.61 2.539.335 2.806.602 12.695.468 14.767-.133 2.07.134 2.539-4.142 2.672-4.277.134-5.413 0-5.747-2.205-.334-2.205-.4-11.693-.334-14.633.067-2.94.134-2.672 5.145-3.14z" fill="#f38c12"/><path d="M1091.073 300.785c6.75-.185 7.15 1.938 7.484 10.022.334 8.085-.468 10.758-5.613 11.025-5.145.268-12.361.535-15.836.2-3.474-.333-4.543-2.137-4.543-11.425s1.416-8.793 3.942-9.087c2.873-.334 9.088-.585 14.566-.735zM1061.406 301.72c6.22.22 7.083 3.074 7.016 10.557-.067 7.484-1.737 10.09-5.145 10.624-3.408.535-11.693.735-15.368.2-3.675-.534-5.011-2.805-4.944-10.824.067-8.018 1.737-9.22 4.343-9.688 2.606-.468 8.956-1.05 14.098-.869z" fill="#c9c9c9"/><path d="M827.567 312.213c2.93.095 2.646.662 3.024 3.024.378 2.363.567 12.284.472 13.985-.094 1.701-.283 2.552-2.079 2.835-1.795.284-28.064 1.418-30.71 1.418-2.646 0-3.591-.756-3.874-2.363-.284-1.606-.473-12.378-.284-14.552.19-2.173.284-3.307 2.93-3.59 2.645-.284 26.647-.946 30.521-.757z" fill="#f38c12"/><path d="M855.876 310.072c6.28 0 7.483 2.139 7.884 10.023.401 7.885-.935 10.557-5.345 11.359-4.41.802-11.76.535-15.635.4-3.876-.133-4.811-1.736-4.811-10.823 0-9.088 1.336-9.89 5.212-10.29 3.875-.401 8.151-.669 12.695-.669zM888.978 309.515c6.417-.214 6.454 1.76 7.122 9.11.668 7.35-.802 11.36-4.945 12.027-4.142.668-11.893.668-15.501.668-3.608 0-4.677-2.271-5.212-10.824-.534-8.553 1.07-9.889 4.677-10.29 3.608-.4 8.248-.504 13.86-.691z" fill="#c9c9c9"/><path d="M945.545 307.667c2.405 0 3.007 1.737.267 1.938-2.74.2-22.247.914-24.522 1.069-2.94.2-3.207-1.804-.334-1.938 2.757-.128 21.448-1.069 24.589-1.069zM948.618 312.828c2.406.055 3.007 1.806.268 1.944-2.74.137-22.247.4-24.522.503-2.94.132-3.207-1.878-.334-1.946 2.756-.064 21.448-.574 24.588-.501zM952.108 317.458c2.389.033 2.986 1.78.265 1.942-2.72.163-22.092.606-24.351.73-2.92.16-3.185-1.85-.332-1.943 2.738-.09 21.3-.772 24.418-.729zM955.85 322.244c2.388.06 2.985 1.814.265 1.945-2.72.13-22.092.349-24.351.446-2.92.126-3.185-1.886-.332-1.946 2.738-.059 21.299-.525 24.418-.445zM959.658 327.255c2.389.06 2.986 1.814.266 1.945-2.72.13-22.092.35-24.352.447-2.92.126-3.185-1.886-.332-1.947 2.738-.058 21.3-.525 24.418-.445zM962.732 331.398c2.388.06 2.986 1.814.265 1.945-2.72.13-22.092.349-24.351.446-2.92.126-3.185-1.886-.332-1.946 2.738-.059 21.3-.525 24.418-.445zM1010.791 328.969c2.294.01 2.867 1.755.255 1.943-2.612.188-21.215.812-23.385.957-2.803.187-3.058-1.823-.318-1.944 2.629-.115 20.453-.971 23.448-.956zM1013.798 323.86c2.294-.028 2.867 1.706.255 1.939-2.613.232-21.215 1.171-23.385 1.353-2.803.235-3.058-1.772-.318-1.939 2.628-.16 20.453-1.317 23.448-1.353zM1016.671 318.874c2.294-.056 2.867 1.672.255 1.936-2.613.264-21.215 1.428-23.385 1.636-2.803.269-3.058-1.735-.318-1.935 2.629-.192 20.453-1.565 23.448-1.637zM1019.774 313.995c2.26-.055 2.826 1.673.252 1.937-2.575.264-20.906 1.43-23.044 1.637-2.763.269-3.014-1.735-.314-1.935 2.59-.193 20.155-1.567 23.106-1.639zM1022.774 309.14c2.344-.005 2.93 1.734.26 1.94-2.67.207-21.68.966-23.896 1.126-2.865.208-3.126-1.799-.326-1.94 2.687-.134 20.901-1.118 23.962-1.125zM1025.38 304.062c2.343-.006 2.93 1.733.26 1.94-2.67.207-21.68.966-23.897 1.126-2.865.208-3.125-1.8-.325-1.94 2.686-.134 20.901-1.118 23.961-1.126z" fill="#141414"/><path d="M943.805 334.613c-2.704 1.875-3.118 2.362-.19 2.268 2.93-.095 7.712-.158 9.79-.253 2.08-.094 2.269-.567 4.726-1.89 2.456-1.323 62.614-36.957 64.819-38.718 2.068-1.652 2.458-2.733.095-2.674-2.456.06-5.586.28-7.948.47-2.362.189-2.222.183-5.427 2.274-20.64 13.466-45.716 24.547-65.865 38.523z" fill="#d2d2d2"/><path d="M894.66 296.62c-.048-5.907-.616-22.96-.616-24.567 0-1.606 0-2.078 1.464-2.173 1.465-.094 149.82-6.047 151.332-6.095 1.512-.047 1.89.048 1.985 2.126.094 2.08.52 21.414.52 23.588" fill="none" stroke="#323232" stroke-width=".565" stroke-linecap="round" stroke-opacity=".72"/><path fill="#fff" paint-order="fill markers stroke" d="M940.627 278.074l16.351-.66v8.318l-16.35.659zM959.373 276.602l44.098-1.777v7.78l-44.098 1.778z"/><path d="M958.744 275.71v10.04l21.415-.88c17.97-.738 21.478-.896 21.802-.98.212-.057.386-.126.386-.155 0-.03.038-.054.084-.056.082-.003.342-.157.65-.384.183-.136.635-.653.75-.86.212-.376.462-.967.462-1.089 0-.074.032-.17.072-.215.055-.061.076-.903.09-3.672l.019-3.592-22.865.922zm22.347 1.325c.498-.014 1.074.042 1.197.154.03.027.1.047.157.045.057-.002.103.024.103.058s.04.06.09.058c.13-.005.733.66.847.935.054.13.123.283.153.34.03.059.055.175.055.258 0 .084.025.169.057.188.032.02.057.309.057.652 0 .37-.023.617-.057.619-.032 0-.057.08-.057.176 0 .175-.235.777-.362.927a6.296 6.296 0 00-.158.199c-.27.354-.903.802-1.147.812-.055.002-.116.033-.136.068-.02.036-.324.075-.715.09-.392.016-.695.002-.715-.033-.02-.033-.092-.057-.161-.054-.318.015-1.299-.729-1.299-.985 0-.044-.022-.078-.05-.077-.027 0-.108-.142-.18-.318-.106-.257-.137-.466-.157-1.057-.026-.743.006-.976.207-1.486.051-.13.113-.237.137-.238.024 0 .043-.037.043-.08 0-.042.149-.237.33-.431.308-.329.437-.426.772-.58l.289-.136c.129-.062.4-.095.7-.104zm6.55-.14h.472l.472-.001v1.92c0 2.087 0 2.094-.337 2.648-.218.36-.341.48-.664.653a9.931 9.931 0 00-.357.199c-.123.075-1.185.116-1.303.05a9.088 9.088 0 00-.354-.175c-.147-.07-.35-.21-.448-.311-.228-.232-.457-.707-.457-.948 0-.1-.025-.2-.057-.22-.036-.022-.057-.7-.057-1.828v-1.792l.13-.041c.072-.022.298-.039.501-.037l.37.004.029 1.864c.023 1.519.044 1.885.113 1.979.191.257.407.442.512.438.062-.002.128.022.147.056.02.033.123.057.23.052.106-.004.209-.036.228-.07.02-.036.096-.067.17-.07.183-.007.546-.48.546-.71 0-.095.025-.19.057-.212.036-.026.057-.676.057-1.744zm-27.638 1.116l.694-.01c.738-.012.705-.025.838.324.032.083.109.276.171.426.062.151.13.344.152.428.042.161.126.387.211.564.028.058.05.162.05.23 0 .069.02.124.044.123.023 0 .093.17.154.381.062.211.13.424.153.475.023.05.056.14.073.198.017.059.058.106.092.105.033-.001.074-.052.091-.112.017-.06.055-.16.084-.22a.642.642 0 00.054-.234c0-.069.025-.126.057-.127.031-.001.057-.057.057-.124s.042-.23.094-.36c.051-.132.12-.31.15-.396l.115-.315c.084-.232.136-.383.216-.628.089-.272.221-.629.28-.755.036-.076.181-.1.754-.123l.709-.029v5.268l-.501.038-.5.038-.005-1.877c-.003-1.356-.02-1.833-.063-1.72a4.637 4.637 0 01-.11.267.585.585 0 00-.052.204c0 .051-.026.095-.057.096-.031.001-.057.058-.057.125 0 .112-.09.413-.242.817a30.734 30.734 0 00-.22.597c-.025.07-.062.196-.082.282a8.631 8.631 0 01-.32.957.572.572 0 00-.052.204c0 .075-.08.097-.4.11-.35.014-.4.002-.4-.098 0-.062-.02-.132-.042-.156-.063-.066-.245-.604-.245-.726 0-.06-.026-.107-.057-.106-.032.001-.057-.054-.057-.122a.636.636 0 00-.05-.23c-.14-.292-.35-.936-.35-1.072 0-.059-.027-.105-.058-.104-.032 0-.057-.048-.057-.11a.301.301 0 00-.05-.168c-.027-.031-.098-.235-.157-.453l-.108-.396-.029 1.89-.028 1.888-.472.037-.472.037v-2.67zm30.492-1.226c.687-.032 1.557-.042 1.58-.001.02.033.082.059.138.056.314-.012.849.477.964.883.14.49.047 1.115-.222 1.498-.148.213-.5.46-.663.466-.097.004-.118.031-.09.113a.35.35 0 00.078.136c.054.039.394.666.435.804.018.058.055.106.083.105.027-.001.05.027.05.062 0 .036.027.097.06.137.12.148.455.787.455.87 0 .067-.124.09-.574.108-.494.02-.58.008-.61-.083a.441.441 0 00-.07-.137 2.3 2.3 0 01-.168-.303c-.075-.15-.233-.465-.352-.699l-.348-.683c-.123-.242-.146-.257-.376-.248l-.246.01-.015 1.1-.016 1.101-.46.037c-.254.02-.48.017-.501-.006-.023-.023-.04-1.206-.04-2.628 0-2.3.01-2.59.09-2.627.059-.027.405-.053.818-.072zm4.203-.169c.634-.025.675-.003.925.503.063.127.13.243.15.26.07.057.451.72.451.784 0 .036.02.064.043.064.024 0 .146.168.271.376.126.208.248.386.272.397.024.01.044.048.044.083 0 .036.09.197.2.359.11.162.2.322.2.356 0 .034.023.06.05.06.029-.002.073.06.1.135.028.082.06-.586.077-1.66l.03-1.8.487-.019.487-.02.014 2.65.015 2.648-.59.024c-.56.022-.598.015-.717-.127-.068-.083-.124-.178-.124-.212s-.022-.06-.048-.06c-.027.002-.098-.107-.158-.24-.06-.134-.128-.243-.152-.242-.024 0-.043-.039-.043-.087 0-.048-.02-.096-.043-.106-.061-.028-.357-.519-.357-.594 0-.035-.026-.062-.058-.061-.031 0-.057-.04-.057-.09 0-.052-.02-.093-.046-.092-.026.001-.09-.087-.143-.196a2.48 2.48 0 00-.34-.552c-.055-.065-.1-.156-.1-.2 0-.045-.02-.081-.044-.08-.025 0-.096-.1-.158-.226a2.055 2.055 0 00-.213-.344c-.096-.11-.1-.032-.1 1.755v1.87l-.477.02c-.262.01-.494 0-.515-.021-.021-.022-.038-1.187-.038-2.589 0-1.9.017-2.568.068-2.626.045-.05.272-.085.638-.1zm-23.5.955c.153-.007.293-.005.347.007l.13.03v4.274l.967-.04c.762-.03.98-.02 1.033.047.04.05.06.241.05.478l-.018.393-1.503.078c-1.173.06-1.51.06-1.532 0-.015-.043-.02-1.236-.013-2.65l.015-2.573.37-.033c.051-.005.104-.008.155-.011zm30.529-1.229c.574-.024 1.012-.033 1.066-.021.124.028.13.055.114.477l-.017.449-1.158.063-1.16.063V278.484l1.102-.028 1.102-.028v.93l-1.102.061-1.101.061V280.715l1.216-.033 1.216-.032v.93l-1.704.085c-1.332.066-1.71.068-1.732.008-.015-.043-.02-1.235-.012-2.65l.015-2.572 1.545-.08.61-.029zm-33.007 1.332c.62-.023.89-.015.934.022.058.05.076.184.064.479l-.016.41-1.16.063-1.158.063v1.113l1.045-.041c.574-.023 1.077-.02 1.118.007.052.034.07.176.057.477l-.017.429-1.101.06-1.102.062v1.234l1.216-.032 1.216-.032v.929l-1.732.087-1.731.086.015-2.65.015-2.652 1.595-.08c.29-.015.535-.026.742-.034zm7.31-.294c.462-.017.733-.01.76.019.032.033.118.058.19.055.073-.003.132.023.132.057s.034.06.075.059c.092-.004.44.364.44.465 0 .041.026.074.057.073.084-.003.072.963-.014 1.128-.123.236-.345.497-.424.5-.122.005-.089.115.047.157.161.049.517.424.607.641.039.094.07.352.07.573 0 .432-.137.827-.366 1.053-.17.17-.524.372-.658.377-.062.003-.13.033-.149.068-.055.1-2.485.183-2.52.086-.015-.042-.02-1.234-.012-2.649l.015-2.572 1.226-.066c.194-.01.37-.018.524-.024zm5.146.65c-.19.007-.38.033-.445.071-.055.033-.176.1-.268.15-.36.196-.776.796-.776 1.118 0 .08-.026.146-.057.147-.032.001-.057.154-.057.34 0 .185.025.353.057.373.031.02.057.102.057.184 0 .08.026.163.057.183.032.02.057.088.057.152 0 .168.547.72.749.756.093.016.183.053.2.082.017.03.205.046.417.037.3-.012.457-.054.697-.19.171-.096.344-.227.384-.291.04-.064.112-.16.158-.212.047-.052.085-.125.085-.161 0-.037.02-.067.045-.068.155-.006.272-1.428.129-1.577a.288.288 0 01-.06-.174c0-.061-.025-.11-.057-.109-.031.001-.057-.026-.057-.061 0-.118-.366-.485-.57-.573a5.255 5.255 0 01-.302-.14c-.063-.033-.253-.044-.443-.037zm-5.895.36v1.13l.558-.048c.35-.03.606-.084.687-.143.177-.13.263-.437.185-.657-.103-.29-.207-.327-.844-.303zm15.335-.618V279.025l.415-.05c.229-.026.539-.083.69-.125.362-.102.44-.2.44-.555 0-.242-.027-.316-.157-.432-.144-.129-.208-.138-.772-.116zm-15.335 2.725v1.24l.653-.027c.62-.025.663-.035.83-.193.153-.146.176-.208.176-.477 0-.298-.086-.482-.225-.477a.059.059 0 01-.06-.06c0-.037-.268-.05-.687-.033z" fill="#fc7f3d" paint-order="fill markers stroke"/><path d="M957.6 275.756l-7.425.321c-4.084.177-7.535.347-7.669.378-.134.031-.257.082-.275.113-.017.032-.084.06-.149.062-.1.004-.65.304-.734.401-.016.018-.132.12-.257.226-.284.238-.308.265-.517.58a4.48 4.48 0 01-.201.287c-.057.057-.341.758-.341.84a.253.253 0 01-.052.14c-.112.133-.136.754-.157 4.015l-.022 3.394 8.9-.359 8.898-.358v-5.02zm-11.16 2.491l1.474-.037c.944-.024 1.58-.013 1.769.03.401.093.922.532 1.1.928.073.163.157.345.185.403.072.15.066 2.895-.006 2.898-.032.001-.058.054-.058.117 0 .17-.141.452-.354.706-.212.252-.633.582-.749.587a.218.218 0 00-.13.063c-.106.116-.963.229-2.018.267-.588.02-1.101.025-1.14.01-.056-.022-.072-.495-.072-2.07v-2.042l.615-.007.615-.007.016 1.378.015 1.378.467-.019c.643-.026 1.083-.183 1.218-.436.122-.227.186-1.372.117-2.069-.035-.358-.067-.446-.214-.588-.104-.102-.235-.165-.334-.161-.089.004-.178-.02-.197-.054-.022-.037-.478-.043-1.177-.014l-1.14.046v-.653zm8.187-.326l1.542-.062v1.302l-1.098.044c-1.075.043-1.296.082-1.685.297-.276.153-.307.302-.307 1.46 0 1.616-.001 1.615 1.86 1.592l1.201-.015.016.614c.012.45-.003.628-.057.668-.101.073-2.58.156-2.935.098-.157-.026-.31-.073-.34-.104a.218.218 0 00-.143-.053c-.278.01-1.033-.863-1.033-1.192 0-.067-.026-.138-.057-.157-.072-.046-.078-2.774-.007-2.929.028-.06.086-.195.129-.299.185-.447.862-1.057 1.188-1.07.062-.003.13-.033.149-.068.022-.04.61-.087 1.577-.126zm-10.834.449c.19-.008.406-.017.649-.024l1.512-.044v1.24l-1.144.085c-.63.047-1.24.109-1.355.138-.236.06-.562.353-.562.506 0 .054-.026.117-.057.14-.034.024-.057.414-.057.962s.023.937.057.959c.031.02.057.077.057.128 0 .129.225.365.43.45.11.047.604.066 1.401.056l1.23-.016.017.587c.014.498.002.6-.082.67-.116.096-2.425.197-2.921.127-.492-.069-1.057-.442-1.313-.867-.335-.555-.332-.534-.334-2.066-.002-1.385.002-1.434.137-1.74.077-.174.232-.421.345-.55.248-.282.69-.577.875-.584.074-.003.161-.035.193-.07.028-.032.352-.062.922-.087z" fill="#005cb9" paint-order="fill markers stroke"/><path d="M1025.815 268.337c1.714-.054 1.714.16 1.821 1.66.108 1.5.376 9.215.322 10.555-.054 1.34-.375 1.446-1.5 1.553-1.125.108-1.447-.428-1.607-1.392-.161-.965-.482-9.697-.375-10.769.107-1.071-.054-1.446 1.34-1.607zM917.489 272.623c1.714-.054 1.714.16 1.822 1.66.107 1.5.375 9.215.321 10.555-.054 1.34-.375 1.446-1.5 1.553-1.125.108-1.447-.428-1.607-1.393-.161-.964-.482-9.696-.375-10.768.107-1.071-.054-1.446 1.339-1.607z" fill="#464646"/><rect transform="skewY(-4.185) scale(.99733 1)" ry="2.606" rx="2.172" y="346.645" x="1053.146" height="18.694" width="15.577" fill="#023398" paint-order="fill markers stroke"/><path d="M1056.1 271.634c-.347.025-.578.17-.825.519-.337.474-.363 1.139-.064 1.66l.164.285.185 2.714c.102 1.492.204 2.803.226 2.913l.04.2 1.874-.104 1.874-.103.76 2.071c.418 1.14.78 2.11.807 2.157.026.047.077.07.112.05.035-.018.503-.29 1.04-.603.535-.313.987-.61 1.002-.66.031-.097-.132-.588-.241-.728-.056-.07-.172-.023-.67.274-.332.198-.624.336-.65.307-.024-.029-.378-.924-.784-1.99-.406-1.066-.764-1.974-.795-2.018-.043-.06-.464-.05-1.75.044-1.243.09-1.712.104-1.761.048-.091-.103-.09-.653 0-.668.039-.006.575-.046 1.192-.088.617-.042 1.155-.104 1.195-.138.052-.043.068-.207.056-.56l-.017-.5-1.26.074c-.694.041-1.28.054-1.301.028-.022-.025-.081-.585-.13-1.244-.092-1.206-.079-1.39.1-1.402.14-.01.492-.41.597-.68.125-.32.15-.808.054-1.102-.142-.443-.612-.787-1.034-.756zm-1.005 5.542c-.143.01-.771.604-1.114 1.052a5.275 5.275 0 00-.92 1.899c-.125.468-.148.673-.149 1.361 0 .697.02.884.147 1.34.43 1.541 1.382 2.543 2.76 2.908.436.116 1.636-.03 2.104-.256.814-.392 1.76-1.38 2.101-2.194l.156-.372-.247-.652c-.136-.359-.275-.661-.308-.672-.033-.011-.09.128-.128.308-.171.833-.743 1.74-1.383 2.195-1.644 1.17-3.614.33-4.14-1.766-.115-.456-.117-1.333 0-1.86.156-.735.44-1.222 1.16-1.988.127-.136.143-.196.12-.448-.065-.746-.086-.86-.155-.855z" fill="#edf0f4"/><path d="M1071.042 21.086c6.09.124 5.842.373 6.588 4.475.746 4.102 1.243 9.447 1.367 12.306.125 2.86-1.367 3.108-5.718 3.232-4.35.125-6.09-.124-6.712-3.232-.622-3.107-1.368-10.068-1.616-13.052-.249-2.983.994-3.729 6.09-3.729zM811.49 27.674c7.83-.373 7.706.498 8.577 4.6.87 4.102 1.243 9.198 1.367 12.057.124 2.86-.622 3.605-7.21 3.978-6.588.373-8.204 1.492-9.199-3.232-.994-4.723-1.243-9.571-1.243-12.803 0-3.232.249-4.102 7.707-4.6z" fill="#c1c1c1"/><path d="M1076.138 47.19c4.724 0 4.973.87 5.47 4.848.497 3.978 1.119 8.453 1.119 11.685 0 3.232-.373 4.351-5.594 4.351s-6.713-.994-7.334-4.724c-.622-3.729-1.492-8.825-1.616-12.182-.125-3.356-.249-4.102 7.955-3.978zM814.846 54.4c8.95-.497 7.831.87 8.701 4.351.87 3.48 1.616 9.447 1.492 12.804-.125 3.356-1.99 3.604-7.832 3.853-5.842.249-7.707.124-8.577-3.356-.87-3.48-1.616-8.453-1.74-12.182-.124-3.73 1.367-5.345 7.956-5.47z" fill="#fb9120"/><path d="M831.387 29.82c-.703-5.802-.176-6.154 6.153-6.505 6.328-.352 202.517-4.57 209.022-4.747 6.504-.176 7.383.176 8.262 5.977.879 5.802 4.22 35.335 4.747 40.433.527 5.099-.176 6.33-5.274 6.68-5.098.352-206.385 6.33-211.66 6.154-5.273-.176-5.976-.528-6.855-5.977-.88-5.45-4.22-35.863-4.395-42.016z" fill="#3b3b3b"/><path d="M844.835 39.049c-.35-4.938-.615-5.362 4.659-5.714 5.274-.351 183.004-5.098 188.278-5.098 5.274 0 5.45 1.23 5.801 4.747.352 3.515.176 9.141.176 12.13 0 2.988-.352 4.394-3.692 4.57-3.34.176-185.465 5.274-188.98 5.274-3.517 0-4.682-.71-5.099-4.043-.527-4.22-.8-7.039-1.143-11.866z" fill="#272727"/><path d="M867.52 33.397c2.208.048 2.122.223 2.122.873s-.433.83-1.95.813c-1.515-.017-1.732.204-1.819 1.028-.086.825-.65 15.648-.78 16.863-.13 1.216-.476 1.525-1.169 1.494-.693-.032-.866-.548-.823-1.415.043-.868.866-15.48.866-16.345 0-.867.13-1.692-1.212-1.712-1.343-.02-2.166-.006-2.166-.612s.172-1 .953-1.013c1.862-.032 3.855-.067 5.977.026zM873.958 33.087c-.466.008-.894.024-1.284.047-1.04.061-1.04.711-1.17 1.883-.13 1.172-.91 16.346-.91 17.688 0 1.343.217 1.6 1.084 1.584.866-.015.78-1.486.823-4.042.043-2.557.476-2.564 1.342-1.583.867.98 3.422 4.228 4.072 4.867.65.638 1.04.718 1.386.365.347-.352.606-.53.087-1.344-.52-.814-2.848-3.683-3.798-4.8-.95-1.116-1.01-1.88.766-1.973 1.777-.092 3.829-2.578 3.951-7.052.123-4.474-.367-5.384-3.706-5.632a70.921 70.921 0 00-2.643-.008zm.34 1.535c.996-.018 2.317.024 3.096.162.779.138 1.08.631 1.222 2.448.143 1.817-.214 3.564-.435 4.586-.222 1.022-.635 1.354-1.307 1.43-.671.077-2.489.035-3.182.047-.693.012-.974-.026-.949-.806.026-.78.177-5.158.313-6.395.137-1.301.246-1.455 1.242-1.472zM886.448 32.912c-3.545.011-4.124 1.91-4.272 3.485-.154 1.626-.766 15.328-.797 16.217-.03.888.215 1.221.797 1.211.581-.01.888-.23.918-1.088.031-.858.245-3.588.276-4.477.03-.888.123-1.043 1.164-1.122a25.83 25.83 0 013.43 0c1.103.074 1.134.716 1.011 1.392-.122.676-.398 3.07-.46 4.02-.06.951.154 1.131.797 1.212.643.08.796-.167.888-1.271.092-1.105.888-13.156.797-15.604-.092-2.449-.797-4.06-4.197-3.97-.12-.004-.238-.005-.352-.005zm-.308 1.477c.139-.002.287-.001.446.002 2.542.047 2.695.443 2.665 2.128-.03 1.685-.245 3.71-.337 4.998-.092 1.288-.245 1.628-1.195 1.645-.95.016-2.113.067-3.062.022-.95-.045-.932-.23-.889-1.118.086-1.758.196-3.516.307-5.273.111-1.78-.013-2.376 2.065-2.404zM897.147 32.577c1.43.062 1.473.148 1.43 1.708-.044 1.56-.174 1.78-.954 1.836-.78.057-1.126.106-1.17 1.277-.042 1.17-.519 9.061-.562 10.232-.043 1.17.13 1.514.866 1.544.737.03.953-.017.953 1.976 0 1.992-.346 2.388-1.3 2.405-.952.016-2.165.08-3.118.098-.953.016-1.083-.198-1.04-1.975.044-1.777.044-2.34.737-2.308.693.03 1.04-.278 1.126-1.233.087-.954.693-9.498.736-10.495.044-.997-.26-1.425-.91-1.414-.65.012-.952-.113-.866-1.587.087-1.474-.043-1.862.823-1.964.867-.101 2.123-.123 3.249-.1zM900.032 34.218c.092-1.503.214-1.658 1.072-1.673.858-.015.98.504.888 1.945-.092 1.441-.153 3.157.307 3.792.459.636 3.032 3.286 3.706 3.795.673.509 1.163.072 1.163-.633 0-.704.245-7.232.307-7.938.061-.705.245-.954.857-.964.613-.011.92.167.92.75 0 .581-.583 17.376-.705 18.511-.123 1.136-.337 1.415-1.042 1.397-.704-.019-.95-.382-.888-1.455.061-1.073.123-1.901.123-2.79 0-.888-.123-1.866-1.042-2.646-.919-.78-2.052-2.016-2.879-2.645s-1.164-.592-1.194.664c-.03 1.256-.307 7.417-.368 8.092-.061.675-.184.984-.95.936-.765-.048-1.04-.105-1.01-1.238.03-1.134.643-16.49.735-17.9zM918.676 31.695c-.466.009-.895.024-1.285.047-1.04.061-1.04.711-1.169 1.883-.13 1.172-.91 16.346-.91 17.688 0 1.343.217 1.6 1.083 1.584.867-.015.78-1.486.823-4.042.044-2.557.477-2.564 1.343-1.583.866.981 3.422 4.228 4.072 4.867.65.638 1.04.718 1.386.365.346-.352.606-.53.086-1.344-.52-.814-2.847-3.682-3.797-4.8-.95-1.116-1.01-1.88.766-1.973 1.776-.092 3.828-2.578 3.951-7.052.123-4.474-.368-5.384-3.706-5.632a70.92 70.92 0 00-2.643-.008zm.34 1.535c.996-.018 2.317.024 3.096.162.779.138 1.08.631 1.222 2.448.143 1.817-.214 3.565-.436 4.586-.221 1.022-.634 1.354-1.306 1.43-.672.078-2.49.035-3.182.047-.693.012-.975-.026-.95-.806.026-.78.178-5.158.314-6.395.136-1.301.245-1.455 1.242-1.472zM962.683 30.717c-3.545.011-4.124 1.91-4.272 3.485-.154 1.626-.766 15.328-.797 16.217-.03.888.215 1.221.796 1.211.582-.01.889-.23.92-1.088.03-.858.244-3.588.275-4.477.03-.888.122-1.043 1.164-1.122a25.827 25.827 0 013.43.001c1.103.073 1.134.715 1.011 1.391-.122.676-.398 3.07-.46 4.02-.06.951.154 1.131.797 1.212.643.08.796-.167.888-1.271.092-1.105.888-13.155.797-15.604-.092-2.449-.797-4.06-4.197-3.97-.12-.004-.238-.005-.352-.005zm-.308 1.477c.139-.002.287-.001.446.002 2.542.048 2.695.443 2.665 2.128-.03 1.685-.245 3.71-.337 4.998-.092 1.288-.245 1.628-1.195 1.645-.95.016-2.113.067-3.062.022-.95-.045-.932-.229-.889-1.117.086-1.759.196-3.517.307-5.274.111-1.78-.013-2.376 2.065-2.404zM1011.699 31.045c.102-1.502.22-1.658 1.033-1.672.813-.014.924.505.822 1.946-.101 1.442-.176 3.159.253 3.794.43.636 2.842 3.29 3.476 3.8.634.51 1.103.072 1.11-.633.01-.704.304-7.234.369-7.94.065-.705.242-.954.823-.964.58-.01.869.169.863.751-.01.582-.724 17.381-.851 18.517-.128 1.135-.334 1.415-1.001 1.396-.668-.02-.897-.383-.828-1.456.069-1.074.135-1.902.144-2.79.01-.889-.098-1.867-.961-2.649-.864-.78-1.926-2.018-2.704-2.648-.777-.63-1.097-.594-1.139.663-.04 1.257-.364 7.42-.428 8.094-.065.675-.184.984-.91.935-.725-.048-.986-.105-.946-1.24.04-1.133.774-16.493.875-17.904zM1028.997 29.006c2.184.047 2.099.218 2.099.855s-.428.814-1.927.798c-1.5-.016-1.714.2-1.8 1.008-.085.809-.641 15.343-.77 16.534-.129 1.192-.471 1.495-1.156 1.464-.686-.03-.857-.537-.814-1.387.043-.85.857-15.176.857-16.026 0-.85.128-1.658-1.2-1.678-1.327-.02-2.141-.005-2.141-.6 0-.594.17-.98.942-.993 1.842-.032 3.812-.066 5.91.025zM933.928 31.366c1.605-.028 1.76.28 1.76.953 0 .673-.673.788-1.657.805-.984.018-2.589-.006-3.883.068-1.294.074-1.346.282-1.45 1.268-.103.985-.103 2.383-.155 3.472-.052 1.088.052 1.655.725 1.695.673.04 2.381-.041 3.313-.006.932.036 1.191.083 1.14 2-.052 1.916-.26 2.23-1.14 2.246l-3.417.06c-.776.013-.673.167-.776 1.307-.104 1.141-.104 2.953-.156 3.99-.051 1.036.26 1.186 1.191 1.118.932-.068 3.365-.11 4.401-.128 1.035-.018 1.346.131 1.294 1.013-.051.88-.31 1.092-1.19 1.16-.88.066-5.126.244-6.524.217-1.398-.028-1.502-.285-1.502-1.631s.674-16.787.777-17.876c.104-1.089.104-1.348 1.502-1.476 1.397-.128 4.142-.227 5.747-.255zM987.085 29.56c1.605-.027 1.76.28 1.76.954 0 .673-.672.788-1.656.805-.984.017-2.589-.006-3.883.068-1.294.074-1.346.282-1.45 1.268-.103.985-.103 2.383-.155 3.471-.052 1.089.052 1.656.725 1.696.673.04 2.381-.041 3.313-.006.932.036 1.191.083 1.14 2-.052 1.916-.26 2.23-1.14 2.246l-3.417.06c-.776.013-.673.166-.776 1.307-.104 1.141-.104 2.953-.156 3.99-.052 1.036.26 1.186 1.191 1.118.932-.068 3.365-.11 4.4-.129 1.036-.018 1.347.132 1.295 1.013-.052.881-.31 1.093-1.19 1.16-.88.067-5.126.245-6.524.217-1.398-.027-1.502-.284-1.502-1.63 0-1.346.673-16.787.777-17.876.104-1.089.104-1.348 1.501-1.476 1.398-.128 4.142-.227 5.747-.255zM1008.027 28.756c1.605-.028 1.76.28 1.76.954 0 .673-.673.788-1.657.805-.984.017-2.589-.007-3.883.068-1.294.074-1.346.282-1.45 1.268-.103.985-.103 2.383-.155 3.471-.052 1.088.052 1.656.725 1.696.673.04 2.381-.041 3.313-.006.932.036 1.191.083 1.14 2-.053 1.916-.26 2.23-1.14 2.246l-3.417.06c-.776.013-.673.166-.776 1.307-.104 1.14-.104 2.953-.156 3.99-.052 1.036.26 1.186 1.191 1.118.932-.068 3.365-.11 4.4-.129 1.036-.018 1.347.132 1.295 1.013-.052.881-.31 1.093-1.19 1.16-.88.067-5.126.245-6.524.217-1.398-.027-1.502-.284-1.502-1.63 0-1.347.674-16.787.777-17.876.104-1.09.104-1.348 1.502-1.476 1.397-.128 4.142-.228 5.747-.256zM942.65 31.164c-1.538.064-2.93.051-3.954.106-1.025.054-.915.528-1.062 1.63-.146 1.1-.988 15.466-.952 17.296.037 1.83.037 2.123.842 2.108.806-.014.879-.308 1.025-1.372.147-1.064.33-4.29.367-5.608.036-1.318.256-1.359 1.098-1.483.842-.125.732-.05 2.343-.224 1.61-.175 3.441-1.525 3.88-6.511.44-4.987-.366-5.998-3.587-5.942zm-.403 1.838c2.05-.058 2.16 1.573 2.05 4.138-.11 2.564-.878 4.189-1.72 4.24-.843.051-1.721.066-2.563.081-.842.015-1.062-.31-1.062-1.336 0-1.025.256-4.617.366-5.571.11-.954.073-1.32.66-1.403.585-.083.987-.113 2.269-.15zM949.203 31.197c.842.022.842.095.879 1.302.036 1.208-.586 14.838-.623 15.827-.036.989.183 1.241 1.245 1.296 1.062.055 3.368.014 4.357-.003.988-.017 1.208.309 1.171 1.042-.036.732-.146.88-1.135.971-.988.09-5.711.173-6.59.152-.878-.022-1.171-.383-1.208-1.407-.036-1.025.77-16.635.806-17.587.036-.953.146-1.54 1.098-1.593zM973.768 30.22c3.369.087 4.137 1.099 4.503 2.008.367.908.257 1.423-.22 1.614-.475.192-.951-.056-1.28-.527-.33-.47-.88-1.375-2.71-1.38-1.83-.005-2.636.924-2.892 3.126-.256 2.2-.476 10.076-.403 11.758.074 1.683.513 2.335 2.197 2.378 1.684.044 2.416-.518 3.039-1.407.622-.89.695-1.257 1.318-1.048.622.209.951.606.183 1.9-.77 1.295-.879 2.578-4.394 2.493-3.514-.085-4.137-2.124-4.32-4.318-.183-2.193.44-12.455.733-14.107.292-1.653 1.61-2.445 4.246-2.49zM990.609 31.72c.183-2.054.183-2.017.879-1.993.695.025 1.537.889 2.343 2.193.805 1.304 1.208 1.626 2.38-.078 1.17-1.705 1.427-2.149 2.196-2.199.769-.05.988.46.988 1.887 0 1.428-.585 16.375-.659 17.401-.073 1.027-.146 1.284-.805 1.259-.659-.025-1.135-.09-1.098-1.043.036-.952.586-10.59.622-11.872.037-1.282-1.135-1.7-1.684-.666-.55 1.034-1.025.933-1.61-.155-.587-1.088-1.868-.737-1.978 1.023-.11 1.759-.439 10.954-.549 11.87-.11.918-.403 1.253-1.062 1.228-.659-.026-.915-.277-.915-1.412 0-1.135.842-15.867.952-17.443z" fill="#769c62"/><path d="M890.094 351.723c2.924 0 3.216.22 3.363 2.778.146 2.56.585 11.113.512 13.38-.074 2.266 0 2.559-2.706 2.778-2.705.22-39.188 1.609-42.698 1.682-3.51.073-3.582-1.755-3.729-4.68-.146-2.924-.219-10.162-.073-12.063.146-1.901.439-2.56 3.51-2.705 3.07-.147 37.946-1.17 41.82-1.17z" fill="#f0f0f0" stroke="#06436b" stroke-width=".465"/><path d="M139.81 327.991c5.043.247 5.884-.412 6.22 5.645.336 6.056.84 49.77.84 53.972 0 4.202.673 5.221-4.202 5.481-4.875.26-49.082.576-53.452.676-4.37.1-4.203-1.41-4.707-5.453-.504-4.042-2.017-50.458-2.017-53.82 0-3.361-.336-5.216 4.539-5.475 4.874-.26 45.552-1.307 52.78-1.026z" fill="#1e1e1e"/><path fill="#fff" paint-order="fill markers stroke" d="M183.123 270.602l14.393-.29v12.812l-14.393.29zM199.624 269.167l38.818-.782v11.985l-38.818.782z"/><path d="M199.07 267.765v15.465l18.852-.405c15.819-.34 18.906-.428 19.191-.544.187-.077.34-.176.34-.22 0-.045.033-.083.074-.083.072-.001.301-.227.571-.562.162-.201.56-.978.662-1.292.186-.57.406-1.47.406-1.657 0-.114.028-.261.063-.328.048-.092.066-1.388.08-5.652l.016-5.532-20.128.405zm19.672 3.032c.439.001.945.113 1.053.29a.176.176 0 00.139.076c.05 0 .09.042.09.094 0 .053.036.095.079.094.114-.002.646 1.049.747 1.477.047.202.108.442.134.532.026.09.048.27.048.4 0 .128.023.26.05.292.028.032.05.477.05 1.007 0 .569-.02.949-.05.95-.027 0-.05.121-.05.27 0 .268-.207 1.185-.318 1.41-.033.067-.096.201-.14.3-.237.533-.794 1.196-1.01 1.2-.048.001-.102.045-.119.098-.018.055-.285.101-.63.108-.344.007-.611-.028-.629-.083-.017-.052-.08-.093-.142-.09-.28.008-1.142-1.18-1.142-1.576 0-.066-.02-.12-.044-.12-.024 0-.096-.224-.16-.498-.092-.4-.12-.724-.138-1.636-.022-1.145.006-1.502.183-2.279.045-.198.099-.36.12-.36.021 0 .039-.055.039-.121s.13-.359.29-.65c.27-.493.385-.637.68-.86l.253-.197c.114-.089.353-.128.617-.128zm5.766.076l.415.019.416.02v2.959c0 3.214-.001 3.224-.297 4.063-.192.543-.3.725-.585.976-.124.11-.266.241-.314.29-.108.111-1.043.127-1.146.02a8.32 8.32 0 00-.312-.286 2.206 2.206 0 01-.395-.5c-.2-.366-.402-1.108-.402-1.478 0-.156-.022-.31-.05-.342-.032-.037-.05-1.081-.05-2.819v-2.76l.114-.058c.064-.03.262-.046.441-.034l.326.022.025 2.873c.02 2.34.04 2.906.1 3.052.168.406.358.7.45.698a.143.143 0 01.13.093c.017.052.108.093.202.091.093-.002.184-.047.201-.1.017-.052.085-.097.15-.098.16-.003.48-.716.48-1.071 0-.145.023-.29.05-.324.032-.037.05-1.037.05-2.683zm-24.33.492l.612.014c.649.015.62-.005.737.537l.15.665c.055.235.116.535.135.666.037.25.11.601.185.877.025.091.045.252.045.358 0 .105.017.191.038.191.02 0 .082.267.136.594.054.327.115.659.135.737.02.078.049.217.064.309.015.091.051.166.08.165.03 0 .066-.076.081-.168.015-.093.049-.243.074-.335.026-.091.047-.253.047-.359 0-.105.023-.192.05-.193.028 0 .05-.085.05-.188 0-.104.038-.351.083-.55a44.242 44.242 0 00.233-1.083c.075-.355.12-.585.191-.958.078-.415.194-.96.246-1.15.032-.117.16-.147.664-.157l.624-.013v8.114l-.44.036-.442.037-.003-2.891c-.002-2.089-.018-2.825-.055-2.652-.029.132-.073.315-.098.407a1.442 1.442 0 00-.045.31c0 .08-.022.146-.05.146-.028 0-.05.086-.05.19 0 .173-.08.633-.213 1.247-.03.132-.076.348-.103.48l-.091.431a7.02 7.02 0 00-.072.431c-.042.31-.221 1.245-.281 1.46a1.41 1.41 0 00-.046.311c0 .116-.072.146-.353.152-.308.006-.353-.015-.353-.168a.695.695 0 00-.036-.242c-.055-.105-.215-.942-.216-1.13 0-.091-.022-.166-.05-.165-.028 0-.05-.086-.05-.191 0-.106-.02-.267-.045-.357-.123-.456-.308-1.457-.308-1.667 0-.09-.023-.163-.05-.162-.028 0-.05-.077-.05-.171a.753.753 0 00-.044-.262c-.024-.05-.087-.366-.139-.704l-.095-.615-.025 2.908-.025 2.908-.416.036-.415.036v-4.111zm26.842-.537c.605-.017 1.37.005 1.391.07.018.051.072.093.122.092.276-.006.747.773.848 1.402.123.76.041 1.72-.195 2.299-.131.32-.44.685-.584.689-.085.002-.104.042-.08.169a.733.733 0 00.07.213c.047.062.346 1.044.382 1.257.016.092.048.166.073.166.024 0 .044.044.044.098 0 .055.024.151.052.214.107.234.402 1.233.402 1.36 0 .103-.11.134-.506.142-.435.009-.51-.013-.537-.157a.973.973 0 00-.062-.213 4.944 4.944 0 01-.147-.475c-.066-.235-.205-.726-.31-1.091l-.306-1.068c-.108-.378-.129-.403-.332-.399l-.216.004-.013 1.695-.014 1.694-.406.036c-.223.02-.42.006-.44-.03-.02-.037-.036-1.86-.036-4.05 0-3.544.01-3.99.08-4.043.052-.039.357-.063.72-.074zm3.7-.073c.557-.01.594.026.814.816.055.198.114.38.132.406.061.092.397 1.13.397 1.229 0 .055.017.1.038.1.02 0 .128.266.239.592.11.325.218.605.24.622.02.017.037.076.037.131 0 .055.08.308.177.562.097.254.176.504.176.556 0 .053.02.095.045.095.024 0 .063.095.086.213.025.128.053-.9.07-2.555l.026-2.769.428-.009.428-.009.013 4.08.013 4.081-.52.01c-.493.01-.526-.001-.63-.226-.06-.13-.11-.28-.11-.332 0-.052-.019-.094-.042-.094-.023 0-.086-.17-.139-.378-.053-.208-.113-.379-.134-.379-.02 0-.037-.06-.037-.135 0-.075-.018-.15-.038-.167-.055-.044-.315-.814-.315-.93 0-.053-.023-.097-.05-.096-.028 0-.05-.064-.05-.143 0-.078-.02-.142-.042-.142-.023 0-.079-.138-.126-.308a5.117 5.117 0 00-.299-.865.946.946 0 01-.088-.314c0-.069-.018-.125-.039-.125s-.084-.159-.139-.355a4.243 4.243 0 00-.187-.539c-.084-.175-.088-.053-.088 2.699v2.881l-.42.008c-.231.005-.435-.02-.454-.054-.018-.035-.033-1.83-.033-3.99 0-2.926.015-3.956.06-4.042.04-.074.24-.12.561-.126zm-20.686.429a.89.89 0 01.305.026l.115.053v6.582l.85-.017c.671-.013.863.011.91.117.035.08.052.375.043.739l-.015.605-1.323.052c-1.032.04-1.33.026-1.348-.068-.014-.067-.019-1.903-.012-4.082l.014-3.962.325-.036a2.06 2.06 0 01.136-.01zm26.873-.538c.506-.012.89-.007.939.014.109.048.114.09.1.74l-.014.69-1.02.046-1.02.047v1.71l.97.006.969.006v1.432l-.97.045-.97.045V277.328l1.07.005 1.071.004v1.432l-1.5.055c-1.172.044-1.504.03-1.524-.065-.013-.067-.018-1.903-.011-4.082l.013-3.961 1.36-.055c.187-.007.369-.013.537-.017zm-29.055.587c.546-.008.784.015.822.075.052.08.068.287.057.74l-.015.63-1.02.046-1.02.047v1.714l.92-.017c.505-.009.948.018.984.06.046.055.061.274.05.738l-.015.66-.97.045-.969.045V277.917l1.07.005 1.071.004v1.431l-1.524.056-1.525.056.014-4.082.013-4.083 1.404-.053c.254-.01.47-.016.653-.019zm6.435-.13c.406-.004.645.018.67.063a.202.202 0 00.166.094c.064 0 .116.041.116.094 0 .052.03.094.066.094.081-.002.388.58.388.736 0 .063.022.114.05.114.074-.001.063 1.487-.013 1.737-.108.358-.303.751-.373.753-.107.002-.078.173.041.242.142.083.455.677.535 1.015.034.146.062.545.062.886 0 .665-.12 1.268-.322 1.606-.15.253-.462.55-.58.551a.151.151 0 00-.13.099c-.05.15-2.189.17-2.22.02-.013-.065-.018-1.901-.01-4.08l.013-3.962 1.08-.047c.17-.008.325-.013.46-.014zm4.53 1.23c-.167.004-.335.034-.392.09a9.324 9.324 0 01-.236.22c-.316.285-.683 1.19-.683 1.686 0 .124-.023.225-.05.225-.028 0-.05.235-.05.52 0 .286.022.546.05.578.027.032.05.16.05.285 0 .125.023.254.05.286.028.032.05.138.05.236 0 .259.482 1.133.66 1.197.082.03.161.09.176.136.015.046.18.08.367.076.264-.005.402-.064.614-.262.15-.14.302-.335.338-.432.035-.097.098-.24.139-.319a.668.668 0 00.074-.244c0-.057.018-.103.04-.104.137-.003.239-2.187.113-2.423a.701.701 0 01-.052-.27c0-.094-.023-.171-.05-.17-.028 0-.05-.043-.05-.097 0-.182-.322-.764-.502-.908a4.588 4.588 0 01-.266-.228c-.056-.055-.223-.08-.39-.077zm-5.19.294v1.74l.492-.05c.308-.03.533-.101.604-.189.156-.192.232-.661.163-1.004-.09-.45-.182-.513-.742-.505zm13.5-.272v1.93l.365-.057c.201-.032.474-.106.607-.164.32-.14.388-.289.388-.835 0-.372-.024-.488-.139-.673-.127-.204-.183-.222-.68-.212zm-13.5 3.517v1.91l.576-.012c.545-.011.583-.025.73-.262.135-.218.155-.312.155-.726 0-.46-.076-.747-.198-.744-.03 0-.054-.042-.054-.095 0-.058-.235-.09-.604-.083z" fill="#fc7f3d" paint-order="fill markers stroke"/><path d="M198.063 267.784l-6.536.166c-3.595.092-6.632.2-6.75.242-.118.042-.227.115-.242.162-.016.048-.075.087-.132.088-.088.002-.571.44-.646.586a6.68 6.68 0 01-.226.336c-.25.354-.271.395-.455.871a7.857 7.857 0 01-.177.433c-.05.086-.3 1.153-.3 1.278 0 .067-.02.163-.046.214-.098.2-.12 1.155-.138 6.178l-.02 5.227 7.834-.158 7.834-.157v-7.733zm-9.823 3.343l1.297.008c.831.005 1.39.05 1.557.126.354.16.812.859.968 1.476.065.256.138.539.163.63.064.233.058 4.462-.006 4.464-.028 0-.05.08-.05.177 0 .262-.125.69-.312 1.072-.186.379-.557.87-.66.871-.036.001-.087.042-.114.091-.093.174-.848.31-1.776.322-.518.006-.97-.01-1.004-.036-.049-.036-.063-.765-.063-3.192v-3.145l.541.016.542.016.013 2.124.014 2.123.411-.008c.566-.011.954-.234 1.072-.617.107-.345.164-2.105.103-3.182-.031-.554-.06-.69-.188-.916-.092-.162-.207-.264-.294-.262-.079.002-.157-.04-.174-.092-.02-.058-.42-.087-1.036-.075l-1.004.02v-1.005zm7.206-.139l1.357-.027v2.005l-.966.02c-.946.018-1.14.068-1.483.383-.243.222-.27.45-.27 2.235 0 2.49-.002 2.488 1.636 2.534l1.058.03.015.947c.01.693-.003.968-.05 1.026-.09.109-2.272.126-2.584.02-.139-.046-.273-.125-.3-.173-.026-.05-.083-.089-.126-.089-.244.001-.909-1.376-.909-1.882 0-.103-.023-.213-.05-.245-.064-.073-.07-4.276-.006-4.512.024-.091.075-.296.113-.454.163-.681.759-1.59 1.046-1.596a.15.15 0 00.131-.098c.02-.06.538-.106 1.388-.124zm-9.537.21c.167-.004.358-.007.572-.007h1.331v1.908l-1.007.081c-.554.045-1.091.114-1.193.153-.207.08-.495.52-.495.754 0 .084-.022.18-.05.213-.03.036-.05.637-.05 1.48 0 .845.02 1.445.05 1.48.028.031.05.121.05.2 0 .198.199.572.378.712.098.077.532.129 1.234.148l1.083.03.015.905c.012.768 0 .923-.073 1.027-.102.144-2.134.197-2.57.068-.433-.128-.931-.729-1.157-1.394-.294-.87-.292-.838-.293-3.197-.002-2.134.002-2.21.12-2.675.068-.264.205-.638.304-.832.218-.423.607-.857.77-.86a.214.214 0 00.17-.101c.025-.047.31-.079.811-.092z" fill="#005cb9" paint-order="fill markers stroke"/><path d="M652.48 71.77c-4.033 0-47.568 2.69-50.93 3.026-3.362.336-3.194 1.68-3.362 5.21-.168 3.53.168 29.752.337 35.13 0 4.203.672 4.875 3.698 4.875 3.025 0 46.056-1.68 50.09-2.017 4.034-.336 5.715-1.345 5.715-4.37 0-3.026-.504-30.928-.672-35.635-.169-4.706-.84-6.22-4.875-6.22zm-6.386 8.573c3.362 0 4.202 1.68 4.202 4.874 0 3.193.168 18.994.168 21.515 0 2.521-.84 3.866-4.202 4.202-3.362.337-33.618 1.681-36.98 1.85-3.362.168-4.628-.67-4.706-4.707-.09-4.718-.169-17.313-.169-20.675 0-3.362.505-4.538 4.035-5.043 3.53-.504 34.29-2.016 37.652-2.016zM565.601 76.768a26.885 26.885 0 00-2.04.044c-6.218.337-501.387 29.536-507.092 30.25-5.705.712-5.23 2.852-5.23 6.418 0 3.565.476 21.394.714 25.91.237 4.517.237 7.607 4.992 7.607 4.754 0 496.609-24.404 505.272-24.8 8.573-.337 9.077-1.345 8.91-7.06-.169-5.715-1.01-28.24-1.346-32.778-.294-3.97-.073-5.497-4.18-5.59zm-7.304 9.44c3.768-.015 5.107 1.078 5.265 4.388.168 3.53.75 13.952.84 18.994.079 4.373-.672 5.379-5.042 5.547-4.37.168-89.087 4.202-92.617 4.37-3.53.168-4.202-1.009-4.37-4.875-.168-3.866-.336-16.472-.168-19.33.168-2.857.504-3.866 4.37-4.202 3.866-.336 86.566-4.707 90.936-4.875.273-.01.535-.016.786-.017zm-114.106 6.378c3.447-.014 4.672 1.014 4.816 4.125.154 3.318.687 13.115.769 17.854.071 4.11-.615 5.056-4.613 5.214-3.997.158-81.49 3.95-84.718 4.109-3.23.158-3.844-.948-3.998-4.582-.154-3.635-.308-15.485-.154-18.171.154-2.687.461-3.635 3.998-3.95 3.536-.317 79.183-4.425 83.181-4.583.25-.01.49-.015.72-.016zm-107.445 5.709c3.162-.014 4.286 1.003 4.418 4.082.141 3.284.63 12.98.705 17.67.066 4.068-.564 5.004-4.232 5.16-3.668.156-74.765 3.909-77.727 4.065-2.962.157-3.527-.938-3.668-4.534-.141-3.597-.282-15.324-.141-17.983.141-2.658.423-3.596 3.668-3.909 3.245-.313 72.65-4.379 76.317-4.535.229-.01.449-.015.66-.016zm-97.156 5.715c3.163-.014 4.286 1.003 4.419 4.082.14 3.284.63 12.98.705 17.67.066 4.068-.564 5.003-4.232 5.16-3.668.156-74.765 3.91-77.727 4.066-2.963.156-3.527-.939-3.668-4.535-.141-3.597-.282-15.324-.141-17.983.14-2.658.423-3.596 3.668-3.91 3.244-.312 72.649-4.377 76.316-4.534.23-.01.45-.015.66-.016zm-101.618 5.04c3.013-.014 4.085 1.003 4.21 4.082.135 3.285.601 12.982.673 17.674.063 4.068-.538 5.004-4.033 5.16-3.496.157-71.256 3.91-74.08 4.067-2.823.156-3.36-.939-3.495-4.536-.134-3.597-.269-15.326-.134-17.985.134-2.659.403-3.598 3.495-3.91 3.093-.313 69.24-4.38 72.735-4.536.218-.01.428-.015.629-.016z" fill="#212121"/><path d="M624.914 365.253c7.564.168 10.758 5.21 10.758 10.757s-5.043 9.75-9.581 9.75c-4.538 0-8.573-4.539-8.74-10.422-.169-5.883 2.353-9.581 7.563-10.085z" fill="#131313"/><path d="M208.223 340.544c13.11-.168 18.49 17.48 20.338 34.962 1.85 17.481-5.042 46.393-18.321 45.72-13.28-.672-19.163-30.76-18.994-49.418.168-18.658 8.908-31.096 16.977-31.264z" fill="#414141"/><path d="M217.146 343.874c-12.729 16.115-13.45 27.592-13.294 36.17.161 8.856 7.108 31.433 17.738 33.025 5.639-9.73 8.183-26.102 6.971-37.563-1.355-12.816-4.609-25.722-11.415-31.632zM1141.283 67.568c7.144-.42 8.32 2.1 10.001 11.01 1.681 8.908 3.866 31.012 4.202 35.298.337 4.286 1.177 6.471-5.126 7.9-6.304 1.429-8.573.588-10.338-4.286-1.765-4.875-6.387-36.643-6.555-42.106-.168-5.463 1.008-7.732 7.816-7.816z" fill="#2e2e2e"/><path d="M1144.416 44.196c-1.115-.019-2.43.091-3.974.344-8.236 1.344-21.347 5.378-30.256 8.404-8.908 3.025-13.783 4.202-20.674 5.042l-.061 2.438c2.349-.213 3.114-.205 3.338 2.858.252 3.445.84 9.076.84 10.673 0 1.597.42 2.69-1.68 2.773a29.62 29.62 0 01-2.537-.025c.09 2.096.25 3.527.516 3.616 1.07.356 2.139.237 5.705.119 3.565-.12 3.565-1.07 3.446-2.14-.118-1.07-.118-1.426 1.664-1.426 1.783 0 4.28-.357 8.201-3.21 3.923-2.852 23.415-16.639 26.03-18.54 2.615-1.902 6.18-2.734 8.201-2.853 2.02-.12 2.496.356 2.496 2.02 0 1.664 1.307 2.853 1.307 5.111 0 2.258.713 20.919.713 25.079s-.118 6.418 1.546 6.418c1.664 0 1.189-2.496 1.308-6.656.118-4.16-.832-20.68-.951-24.722-.12-4.041.765-3.886.765-8.76 0-3.96-1.11-6.479-5.943-6.563zm-8.442 3.235c1.098-.017 1.553.46 1.611 1.731.084 1.849-1.85 2.689-4.37 4.202-2.522 1.513-6.556 4.202-8.91 5.883-2.352 1.681-2.857 1.26-3.445-2.353-.672-4.37-.672-4.034 1.765-5.21 2.437-1.177 8.909-3.363 11.43-3.95.788-.185 1.42-.295 1.919-.303zm-20.31 6.597c.72.008 1.288.512 1.666 3.286.504 3.698.337 5.967-1.008 7.312-1.345 1.345-8.573 6.64-11.262 8.236-2.69 1.597-8.331 2.27-6.471-6.219 1.37-6.258 2.94-8.404 8.152-10.085 5.21-1.681 7.06-2.27 8.152-2.438.273-.042.53-.094.77-.092z" fill="#282828"/><path d="M565.755 307.533c4.677.234 5.379.936 5.379 5.38 0 4.443-2.105 3.975-5.613 3.975-3.508 0-3.742-2.339-3.742-5.613 0-3.274 0-3.742 3.976-3.742zM565.872 319.145c4.677 0 5.379.666 5.379 5.11 0 4.443-2.105 4.08-5.613 4.256-3.508.175-3.742-2.152-3.742-5.426s0-3.742 3.976-3.94zM237.504 312.578c4.678.214 5.38.858 5.38 4.933 0 4.076-2.106 3.647-5.614 3.647-3.507 0-3.741-2.145-3.741-5.148 0-3.003 0-3.432 3.975-3.432zM237.621 323.228c4.677 0 5.38.611 5.38 4.687 0 4.076-2.106 3.743-5.614 3.904-3.507.16-3.741-1.973-3.741-4.977 0-3.003 0-3.432 3.975-3.614z" fill="#862f20"/><path d="M58.103 322.83c3.908.145 5.065 3.62 5.21 16.645.145 13.026-1.302 16.645-4.342 16.79-3.04.144-4.197-6.658-4.342-17.948-.145-11.289.868-15.486 3.474-15.486z" fill="#1b1b1b"/></svg>