<svg xmlns="http://www.w3.org/2000/svg" width="4476.438" height="2059.869" viewBox="0 0 1184.391 545.007"><path d="M18.424 226.278c-6.208-.4-8.411 0-8.812-8.01-.4-8.012.2-36.45.4-41.056.201-4.606-.6-7.21 6.41-7.61 7.009-.4 9.813-.4 10.013 2.203.2 2.603-8.011 54.473-8.011 54.473z" fill="#353535"/><path d="M217.084 0c42.767 1.416 68.823 2.832 81.993 6.373 13.17 3.54 14.161 5.24 14.161 8.638 0 3.399-.85 5.24-4.39 4.815-3.54-.425-75.337-2.974-75.337-2.974z" fill="#faf2e2"/><path d="M1164.564 378.282c18.625.2 19.827 0 19.827 4.006 0 4.005-.6 12.817-.801 16.422-.2 3.605.2 4.205-7.81 8.411-8.011 4.206-10.615 5.808-11.216-.2-.6-6.008 0-28.639 0-28.639z" fill="#f3c300"/><path d="M1030.501 420.303c-24.074 0-30.021.284-34.553.567-4.532.283-42.483-104.51-42.483-104.51s58.627-27.472 65.707-3.398c7.08 24.074 11.33 107.341 11.33 107.341z" fill="#161616"/><path d="M979.946 328.68c-22.092 0-27.898-.424-31.013.142-3.115.567-4.39 36.536 1.983 35.545 6.372-.991 29.03-35.686 29.03-35.686z" fill="#1b1b1b"/><path d="M979.521 460.521c-41.35-.85-65.425-.283-73.355-1.982-7.93-1.7-26.34-20.959-24.64-42.484 1.7-21.525 72.788-16.71 72.788-16.71z" fill="#0c0c0c"/><path d="M979.238 460.804c25.207-.85 34.27-42.766 33.703-69.39-.566-26.622-12.461-61.742-32.287-62.592-19.826-.85-33.137 30.872-33.704 58.344-.566 27.473 4.532 74.205 32.288 73.638z" fill="#282828"/><path d="M668.898 399.911c12.817 48.065 18.425 60.882 67.29 59.28 48.866-1.602 58.48-28.839 63.286-45.661 4.806-16.823-130.576-13.619-130.576-13.619z" fill="#131313"/><path d="M609.819 433.557c-21.028.6-29.64-.2-34.446-1.202-4.807-1.001-64.287-103.139-64.287-103.139s55.074-55.274 76.303-16.822c21.228 38.451 22.43 121.163 22.43 121.163z" fill="#161616"/><path d="M545.733 480.82c-42.858.801-49.005-.286-57.077-6.008-9.668-6.853-26.522-36.543-23.832-45.461-1.001-7.81 54.473 3.805 54.473 3.805z" fill="#0c0c0c"/><path d="M541.375 324.857c-32.005 1.416-37.67 2.832-40.785 6.514-3.115 3.682 25.774 20.11 25.774 20.11z" fill="#1c1c1c"/><path d="M540.525 325.14c29.738.567 45.316 36.536 46.449 68.54 1.132 32.005-15.295 86.384-40.218 87.233-24.924.85-51.547-36.252-54.946-65.141-3.398-28.889 18.127-90.915 48.715-90.632z" fill="#282828"/><path d="M543.73 358.456c20.436 0 26.636 25.634 27.036 42.857.4 17.223-8.21 48.666-27.637 48.866-19.426.2-25.234-25.635-24.433-51.269.801-25.634 15.402-40.454 25.034-40.454z" fill="#756f69"/><path d="M531.707 364.578c-6.666 6.61-12.512 18.375-13.01 34.332-.53 16.935 1.827 33.954 9.087 43.5.843.291 1.655.45 2.403.41 5.381-.283 13.878-1.133 23.65-6.94 0 0 .708-59.618-.992-63.866-1.454-3.636-9.043-6.024-21.138-7.436z" fill="#c2c2ba"/><path d="M211.21 408.408c9.63 48.714 24.924 65.708 56.645 65.708 31.721 0 52.113-31.155 55.512-56.078 3.399-24.924-112.156-9.63-112.156-9.63z" fill="#131313"/><path d="M878.41 423.702c-42.483.85-93.18 3.116-101.394 3.399-8.213.283-119.52-21.808-119.52-21.808l-75.904-96.296s-68.257-8.214-71.938 7.08c-3.682 15.294-32.005 120.653-46.732 121.22-14.728.566-114.423 1.133-120.087 1.416-5.664.283-1.7-54.662-1.7-54.662l-5.38-143.311 3.398-176.732 828.712 55.512 1.133 147.843-284.923-2.832z" fill="#202020"/><path d="M17.411 251.502c-7.647-.566-7.647-3.115-7.93-8.78-.283-5.664 1.7-22.374 2.266-30.304.566-7.93 4.815-9.064 4.815-1.983 0 7.08-.85 21.808-1.416 25.773-.567 3.965-.284 4.532 1.699 5.098 1.982.567.566 10.196.566 10.196z" fill="#222"/><path d="M12.934 270.284c2.535-17.018 11.044-162.94 11.406-169.276.362-6.336 20.639.543 20.639.543h283.695l6.156 45.985-7.604 129.628z" fill="#535353"/><path d="M28.535 89.366c-2.034.056-3.628 1.409-3.964 5.227-1.074 12.218 1.074 11.278 7.25 11.278s117.347-.537 121.644-.268c4.296.268 4.834.268 4.834 4.565 0 4.296-2.954 34.103-4.028 47.261-1.075 13.158-8.325 103.384-8.728 106.875-.402 3.49-.94 4.296-6.31 4.162-5.37-.134-118.287-2.014-122.047-2.014-3.759 0-4.296 3.357-5.773 7.787-1.426 4.965 279.03 9.466 279.03 9.466l41.772-8.544 4.925-151.835-1.88-17.589-18.394-10.473-277.258.135s-6.6-6.156-11.073-6.033zm178.09 15.525c29.405-.018 70.23.107 92.384.443 35.445.537 25.241 17.723 26.047 33.03.806 15.306 1.343 85.929-.806 108.485-2.148 22.557-28.598 24.168-39.608 24.168-11.01 0-123.658-2.282-128.223-2.417-4.565-.134-4.834-.268-4.43-4.43.67-7.922 11.143-143.53 11.68-150.78.538-7.25 1.075-8.056 8.862-8.324 2.92-.1 16.451-.164 34.094-.175z" fill="#303030"/><path d="M9.53 282.224c.967-5.957 1.45-7.084 2.094-8.372.644-1.288.966-1.288 5.634-1.288 4.67 0 125.093 2.898 136.685 3.542 11.592.644 131.372 3.381 145.217 1.61 13.846-1.77 29.14-6.44 31.716-28.818 2.576-22.378 5.635 26.725 5.635 26.725l-25.437 17.87S9.678 316.629 9.53 282.225z" fill="#212121"/><path d="M8.565 330.523c-.644 7.083-.322 28.013 0 30.75.322 2.737 68.422 5.473 68.422 5.473l-1.126-36.545s-66.008-2.737-67.296.322zM212.702 332.973l-1.821 40.3 126.59 2.732-.91-40.072z" fill="#44444c"/><path d="M10.23 366.77c-2.138 0-3.742 4.41-1.737 4.81 2.004.402 333.552 11.76 333.552 11.76s2.54-4.008-1.737-4.543c-4.277-.534-197.111-5.212-197.111-5.212s-133.1-4.81-132.967-6.815z" fill="#1b1b1b"/><path d="M3.966 324.033c0 3.307 0 5.48.19 7.087.188 1.606-.473 3.023 4.819 3.118 5.291.094 5.669-.473 5.669-2.08 0-1.606.095-2.078 2.74-1.984 2.646.095 47.53 1.324 51.31 1.607 3.78.284 4.725.378 5.009 3.213.283 2.835.283 24.19.094 26.269-.188 2.079-1.039 2.174-3.401 2.174-2.363 0-47.815-1.796-51.406-1.985-3.59-.189-4.535-.472-4.63-2.173-.094-1.701-.85-2.173-4.252-2.362-3.401-.19-4.44.094-4.63 3.212-.189 3.119-1.228 8.316 2.08 8.6 3.306.283 45.356 1.89 51.876 2.173 6.52.283 117.645 4.819 125.205 5.008 7.56.189 119.251 3.307 125.393 3.59 6.142.284 29.293.662 31.183.568 1.89-.095 2.457-7.56 2.457-7.56l-.661-39.688zm213.887 11.526c.164-.004.337-.004.52.002 2.93.094 54.315 1.656 60.463 2.077 3.887.266 4.17.663 4.17 1.891 0 1.229.473 1.888 3.214 1.888 2.74 0 39.593.095 42.617.189 3.023.095 3.59 1.042 3.685 3.499.094 2.457-.378 14.93-.567 17.48-.19 2.552-.756 3.214-3.78 3.497-3.024.284-37.041.095-40.726-.189-3.686-.283-4.536.567-4.914 2.646-.378 2.079-.473 3.024-4.064 3.024-3.59 0-57.452-1.89-60.948-2.173-3.497-.284-3.97-1.229-3.875-4.347.095-3.118 1.04-23.624 1.229-25.986.177-2.215.52-3.433 2.976-3.498z" fill="#a0dbec"/><path d="M100.767 367.037c1.003 1.002 1.003 1.604 9.422 2.005 8.419.4 62.44 2.439 67.385 2.171 4.945-.267 5.279-1.002 7.116-3.942 1.758-2.813 19.01-30.034 21.014-32.173 1.813-1.933 5.312-2.739 6.983-2.94 1.67-.2-5.88.201-5.88.201l-10.825 13.564-13.43 22.851s.468 2.005-9.288 1.537c-9.755-.467-68.287-1.737-72.497-3.274z" fill="#82b6b8"/><path d="M4.885 320.465c-.87 1.604-.87 2.606-.87 3.876s.201 2.138 1.738 2.272c1.537.133 65.682 2.071 69.29 2.338 3.608.268 4.142.268 6.013 3.742 1.871 3.475 15.101 27.128 17.373 31.137 2.272 4.009 2.806 4.009 7.617 4.544 4.81.534 66.684 2.539 71.495 2.405 4.81-.134 5.612-1.737 7.082-4.276 1.47-2.54 17.64-28.598 19.912-31.004 2.272-2.405 2.94-3.207 7.216-3.073 4.276.133 69.891 2.539 84.324 2.405 14.432-.133 33.007-.267 35.547-.267 2.539 0 9.087 0 11.225-.134 2.138-.133-1.871-7.082-1.871-7.082l-23.252-.134s-302.55-8.953-312.84-6.749z" fill="#a6dfee"/><path d="M1150.432 84.352s3.243 39.042 7.851 39.298c4.609.256 3.969 1.024 4.225 4.353.256 3.328 2.048 125.456 1.792 130.833-.256 5.377.256 5.889-4.864 6.145-5.121.256-270.629-6.657-275.494-6.657-4.864 0-5.377.768-5.889 6.401-.512 5.633-2.816 146.708-3.072 152.34-.256 5.634-.512 6.658 3.329 6.658 3.84 0 60.936-.768 65.288-1.024 4.353-.256 4.097-1.793 4.097-14.339 0-12.545 0-56.583 14.594-79.882 14.594-23.3 34.82-19.203 49.415-.256 14.594 18.946 11.521 76.554 11.521 82.955 0 6.4.256 9.217 4.865 9.217 4.608 0 41.733 0 51.975-.256 10.241-.256 54.663-6.4 70.665-8.321 16.002-1.92 14.978-3.585 15.106-6.785.128-3.2.128-24.452.128-27.012 0-2.56.896-2.944 6.785-2.944s5.377-.896 5.505-3.457c.128-2.56.384-76.938.384-91.532 0-14.594-1.23-105.394-1.593-116.257-.362-10.863-2.625-67.62-3.892-72.688-1.267-5.07-8.328-5.16-22.721-6.79zm-683.57 168.084c-5.632 0-5.632.767-5.632 6.4s-2.21 162.001-2.385 173.301c-.181 5.25-.905 5.25 3.62 5.25 4.527 0 31.683-1.086 36.21-1.267 4.525-.181 4.323-.364 4.707-5.25.383-4.889-1.591-46.833 9.054-80.117 10.81-33.795 33.555-47.063 57.864-36.869 15.874 6.657 26.628 33.54 30.724 53.767 4.097 20.226 3.073 51.463 2.56 57.864-.511 6.4.256 8.193 4.865 8.193s161.302-6.145 167.703-6.4c6.4-.257 7.169-.257 7.425-6.914.256-6.657 4.608-155.285 4.608-158.87 0-3.584-.256-3.456-3.328-3.712-3.073-.256-312.362-5.376-317.995-5.376z" fill="#86c1d6"/><path d="M327.323 18.164c34.693 4.609 540.745 44.038 567.117 46.086 26.371 2.048 242.72 18.947 254.498 19.97 11.778 1.025 13.314 2.817 13.826 13.57a245.482 245.482 0 010 22.532c-.128 2.688-.64 3.584-3.457 3.456-2.816-.128-46.894-3.217-67.352-4.846-20.458-1.63-304.46-19.743-326.007-21.148-21.356-1.392-403.658-25.978-413.195-27.191-6.654-.847-6.517-.272-8.056-.362-1.539-.09-2.173.814-2.263 1.448-.09.634-.815-9.324-.815-9.324z" fill="#88d0e6"/><path d="M169.427 14.994c3.605-12.016 21.629-15.22 46.462-14.82 24.834.4 32.043 4.006 33.245 8.01C250.336 12.19 251.537 19 243.927 19c-7.61 0-74.5-4.005-74.5-4.005z" fill="#fcf8ef"/><path d="M203.943 12.065c-3.975-.007-8.011.005-12.104.039-65.48.534-130.962 9.087-144.592 11.225-13.631 2.138-15.235 5.078-16.037 10.958-.801 5.88-5.612 51.048-6.146 56.928-.535 5.88-1.07 7.216 3.741 6.949 4.811-.267 109.848-.267 135.239-.267 25.39 0 130.961-2.138 146.463-.267 15.502 1.87 21.115 10.156 22.184 21.114 1.069 10.958-1.07 99.691-1.337 119.47-.267 19.777-1.336 43.297-18.441 48.108-17.106 4.81-87.932 4.544-122.677 3.742-34.745-.802-117.599-2.406-143.257-3.742-25.657-1.336-35.814-.267-35.814-3.608s-.668-6.014-3.207-.802c-2.539 5.212-2.54 9.755-3.074 23.52-.3 7.742-.296 10.733-.42 14.671-.062 1.94 1.366 1.683 2.643 1.717 3.497.095 123.954 3.914 133.97 4.197 10.016.284 122.937 2.835 140.985 3.024 18.049.189 48.665.094 53.578.189 4.914.094 5.764.283 5.764 2.267 0 1.985-.472 46.492-.756 48.193a.409.409 0 01-.127.218c.253.15.344.353.317.632-.095.945-.19 4.252-.19 4.252l-3.213 53.874c2.873.066 4.744.133 5.612.066.869-.067 1.003-.4 1.07-1.87.066-1.47-.823-22.965-.067-32.982.756-10.016 1.323-36.285 1.323-44.223 0-7.937.756-58.208 1.134-74.272.378-16.064.756-27.782.756-30.994 0-3.213-.378-4.347-2.646-4.347s-2.267-.945-2.267-6.426v-92.415c0-13.23.378-69.737.566-74.083.19-4.347-.377-6.73 2.08-6.918 2.456-.19 2.834-1.209 2.834-6.122 0-4.914-.756-29.294-1.134-35.53-.378-6.237-3.969-8.694-21.167-10.395-16.123-1.594-61.964-5.988-121.586-6.09z" fill="#99dff3"/><path d="M336.432 380.935c6.415.267 5.613 1.07 5.88 5.346.268 4.276-1.603 40.357-1.87 46.504-.268 6.148-1.07 7.217-8.82 4.544-7.751-2.673-34.478-14.7-106.106-17.64-71.629-2.94-179.606-7.75-194.305-6.681-14.7 1.069-13.631 3.741-14.166 6.414-.534 2.673-11.492-2.94-14.967-12.829-3.474-9.889-1.603-24.321-1.336-29.667.267-5.345 1.603-7.216 5.88-7.216 4.276 0 110.382 5.078 140.049 6.147 29.667 1.07 129.091 4.01 150.205 4.811 21.115.802 32.073.267 39.556.267z" fill="#ffe428"/><path d="M161.905 386.28c2.94.134 2.94.201 3.007 3.275.067 3.073-.2 12.829-.468 15.3-.267 2.473-.668 2.54-4.142 2.406-3.475-.133-37.418-1.603-40.692-1.937-3.274-.335-3.14-1.604-3.14-4.277 0-2.672.4-11.492.668-13.697.267-2.205 1.27-2.606 4.276-2.473 3.007.134 36.482 1.203 40.491 1.404z" fill="#e3e3e3" stroke="#06436b" stroke-width=".965"/><path d="M5.299 295.45c-.144 2.702-.257 5.93-.415 9.981a551.105 551.105 0 00-.31 10.283c.272.112.555.194.851.239 6.923 1.046 58.763 2.737 67.699 2.898 8.935.16 12.88.08 15.294.08 2.415 0 1.69.724 1.69 2.173 0 1.45-.16 22.62-.24 25.035-.081 2.415 0 3.542 2.817 3.703 2.817.161 99.092 2.34 103.68 2.26 3.22.08 3.3-.16 3.3-2.334s.403-24.397.483-26.168c.08-1.771-.402-2.174 2.093-2.093 2.496.08 26.967 1.288 41.537 1.368 14.57.08 53.45.403 65.525.564 11.411.152 31.5.16 36.529.297.106-6.937.215-13.887.325-20.24a5.104 5.104 0 00-.308-.02c-8.533-.242-38.478-.242-49.184-.564-10.706-.322-84.04-1.208-93.297-1.53-9.257-.322-118.009-1.77-136.926-2.495-18.917-.725-31.796-.322-47.573-1.932-6.656-.679-10.802-1.163-13.57-1.506z" fill="#36648a"/><path d="M119.433 319.572l-.576.79c-.316.434-2.021 2.625-3.788 4.87a698.292 698.292 0 00-3.99 5.1c-.427.562-.778.925-.78.808-.004-.207.669-2.014 2.68-7.192 1.163-2.996 1.272-3.546.82-4.122-.319-.405-.385-.411-6.1-.508l-5.78-.098-.743 1.66c-.41.913-.744 1.734-.744 1.825 0 .092 2.144.221 4.78.288 3.884.1 4.779.17 4.779.375 0 .138-.24.858-.531 1.6-.292.74-.531 1.378-.531 1.417 0 .04-.265.775-.588 1.636a463.522 463.522 0 00-1.688 4.563c-.188.516-.573 1.555-.854 2.31-.282.755-.512 1.406-.512 1.447 0 .041-.273.765-.607 1.608-.333.843-.607 1.605-.607 1.693 0 .088.598.165 1.328.171l1.328.011 1.444-1.88c2.84-3.696 6.472-8.392 8.048-10.406a337.817 337.817 0 002.411-3.113l.808-1.066 11.47.244 11.468.244.703-1.685c.387-.926.675-1.75.64-1.828-.036-.079-5.515-.283-12.176-.453zm28.047.716l-.434 1.171c-.239.645-.63 1.699-.867 2.343l-.433 1.172-1.757-.042c-.965-.023-1.832.018-1.924.092-.093.075-.287.42-.432.768-.358.864-.2.957 1.7 1.009.856.023 1.556.109 1.556.19 0 .227-1.301 3.875-2.06 5.773-.957 2.399-2.09 3.743-3.643 4.322-.73.272-1.108.203-1.33-.241-.125-.25.036-1.053.704-3.523 1.202-4.438 1.17-5.75-.145-6.195-.6-.203-1.685.183-2.554.908-.8.667-.96.6-.71-.293.085-.298.114-.594.065-.656-.129-.163-2.208-.187-2.4-.027-.088.074-.484 1.161-.878 2.416s-.977 2.773-1.295 3.373c-1.046 1.973-2.707 3.45-4.851 4.316-.949.382-3.008.405-3.83.042-.686-.304-1.305-1.06-1.512-1.85-.315-1.198-.314-1.198 2.954-1.115l2.953.076.296-.513c.792-1.37 1.037-3.637.55-5.1-.898-2.705-3.68-3.361-6.743-1.589-1.14.66-2.686 2.604-3.252 4.088l-.445 1.166-.88-.022c-.868-.022-.883-.013-1.179.703-.165.4-.257.78-.205.846.052.067.522.132 1.045.145 1.028.026.985-.022 1.207 1.349.128.797.293 1.187.952 2.256 1.137 1.846 3.577 2.611 6.344 1.99 2.017-.453 3.491-1.193 4.877-2.448l.802-.726-.103.529c-.057.29-.23.933-.384 1.427-.155.494-.282.98-.282 1.08 0 .104.615.198 1.43.22l1.431.036.3-.986c.28-.92 1.134-3.783 1.64-5.492.323-1.094 1.154-2.409 1.736-2.745.278-.161.56-.25.626-.197.19.15.14.99-.092 1.543-.402.96-1.183 4.068-1.262 5.027-.092 1.107.162 1.899.826 2.57.62.628 2.48.533 3.758-.191 1.04-.589 2.337-1.722 2.619-2.287.316-.636.452-.436.522.768.053.93.143 1.244.477 1.668.39.496.483.523 1.81.54 1.289.015 1.486-.036 2.483-.634.595-.358 1.375-.99 1.732-1.404.357-.414.67-.752.698-.751.027 0 .092.336.144.746.128 1 .576 1.885 1.085 2.145.625.32 2.139.141 2.88-.34.353-.228.99-.832 1.416-1.341.802-.959 1.044-.954 1.05.02.006 1.07 1.162 1.994 2.539 2.03 3.072.078 5.913-2.793 7.63-7.71.35-1.003.773-1.969.94-2.146.32-.339 1.032-.43 1.032-.133 0 .095-.228.834-.505 1.643-.734 2.139-1.038 3.679-1.053 5.332-.01 1.207.044 1.56.314 2.04 1.18 2.097 4.188 1.44 6.746-1.475.628-.714 1.183-1.298 1.233-1.297.05.001.093.236.093.523.002.809.836 2.462 1.547 3.066.55.468.768.537 1.704.538 1.332.002 2.25-.445 3.249-1.584l.732-.836.29.694c.16.381.554.964.874 1.296.562.58.636.603 2.049.64 1.344.034 1.533-.009 2.286-.51 2.012-1.337 3.516-4.098 2.898-5.318-.119-.233-.36-.02-1.271 1.12-1.582 1.978-3.032 2.689-3.764 1.844-.406-.469-.354-.92.46-3.98 1.008-3.79 1.387-5.327 1.387-5.624 0-.19-.31-.26-1.252-.281-1.354-.031-1.491.02-1.77.67l-.183.431-.509-.57c-1.116-1.25-2.832-1.368-4.495-.31-1.234.787-2.224 1.973-6.667 7.995-.867 1.174-1.484 1.612-2.244 1.592-1.191-.03-1.145-.864.226-4.137.457-1.091.933-2.47 1.057-3.063.206-.985.203-1.14-.034-1.767-.348-.925-.759-1.09-2.441-.979-.777.052-1.413.055-1.413.006 0-.047.109-.48.241-.962.226-.82.224-.922-.038-1.593-1.044-2.681-3.957-.362-3.404 2.71.155.861.411 1.452.729 1.682.233.168.217.297-.18 1.47-1.24 3.668-3.185 6.04-4.917 5.995-.674-.017-.927-.293-.927-1.01 0-.463 1.274-4.446 2.366-7.394.2-.542.365-1.076.365-1.187 0-.127-.517-.214-1.416-.237-1.317-.034-1.428-.007-1.587.385-.375.927-1.853 4.877-1.853 4.952 0 .235-1.17 2.308-1.646 2.917-1.045 1.335-2.193 1.88-2.673 1.27-.205-.26-.238-.51-.157-1.184.142-1.172.337-1.755 2.425-7.248.196-.514.324-1 .284-1.08-.04-.08-.714-.163-1.5-.183l-1.428-.037-1.44 3.522c-1.57 3.842-2.21 4.908-3.427 5.703-.89.581-1.899.696-2.126.243-.36-.72-.185-1.492 1.88-8.274l.486-1.596 1.74-.002c2.28-.003 2.341-.024 2.634-.929.134-.415.245-.796.245-.846 0-.05-.85-.113-1.888-.14-1.038-.026-1.918-.112-1.955-.191-.037-.079.257-1.09.655-2.245.397-1.157.685-2.15.64-2.207-.045-.058-.649-.12-1.34-.137zm-23.54 7.887c.232.012.443.086.617.227.363.295.229 1.66-.293 2.976l-.464 1.17-1.67-.042c-.918-.023-1.67-.082-1.67-.131 0-.37.823-2.212 1.266-2.834.631-.887 1.517-1.402 2.214-1.366zm57.909 1.693c.596.015.707.088.973.64.343.71.409 2.408.137 3.533-.225.93-1.158 2.586-1.819 3.228-.68.66-1.456.814-1.924.383-.792-.73-.98-2.014-.558-3.814.515-2.192 1.968-4.001 3.19-3.97z" fill="#fed402" paint-order="fill markers stroke"/><path d="M172.565 320.748c.434.023.49-.082.623-.407.132-.326.075-.445-.227-.453-.301-.008-.471.012-.565.244-.095.233-.265.593.17.616zM171.226 319.89c.66.018.717.09.698.489-.019.4-.188.536-.679.5-.49-.036-.961.022-.679.57.283.548.68.982.528 1.472-.15.49-.264 1.404-1.584 1.229-1.32-.175-1.169-1.135-.565-1.05.603.087 1.15.171 1.225-.156.076-.327-.207-.593-.509-1.024-.301-.43-.452-2.104 1.565-2.03zM172.32 321.212c.434.082.359.244.17.733a65.01 65.01 0 01-.698 1.722c-.15.35-.245.417-.566.41-.32-.009-.282-.15-.113-.71.17-.56.472-1.304.66-1.699.189-.395.245-.44.547-.456zM172.955 321.621c.235-.586.653-.665 1.28-.649.627.016.938.44.806 1.085-.133.645-.396 1.137-.564 1.532-.168.394-.198.577-.425.57-.227-.005-.357-.158-.258-.455.1-.296.324-.856.408-1.07.084-.214.117-.529-.175-.603-.292-.074-.564.202-.831.91-.268.708-.237 1.19-.69 1.18-.454-.012-.411-.16-.213-.754.199-.594.434-1.18.662-1.746zM176.744 321.103c.828.1.706.533.6.763-.107.23-.419.06-.694 0-.386-.085-.76.146-.866.775-.107.63.053.966.36 1.057.306.09.64.465.026.533-.613.067-1.303-.529-1.066-1.507.286-1.189.884-1.713 1.64-1.621z" fill="#fed402"/><path d="M178.298 321.233c-.302.075-.354.14-.681.532-.373.448-.74 1.336-.62 1.954.12.619 1.347.526 1.687.368.34-.158-.06-.343-.727-.343s-.3-.723-.06-.766c.24-.044.827.067 1.113.086.278.02.32-.016.447-.454.127-.437.002-1.258-.667-1.4a.994.994 0 00-.492.023zm-.085.9c.234-.199.448-.172.598-.001.296.339.258.476-.454.408-.478-.045-.373-.211-.144-.407zM182.682 320.3c.359.069.368.022.198.805-.17.784-.905 2.61-1.093 2.97-.189.36-.16.384-.462.376-.302-.008-.34-.208-.189-.533.15-.326.613-1.384.754-1.745.142-.36-.019-.423-.264-.453-.245-.03-.34-.162-.103-.52.235-.359.726-.934 1.16-.9zM184.568 320.255c-.641-.036-1.009.527-1.197 1.086-.189.56-.425 1.423.037 1.494.462.07.584.205.434.67-.131.405-.411.306-.949.28-.537-.025-.644.643.374.669 1.018.026 2.084-1.675 2.187-2.59.104-.914.038-1.558-.886-1.61zm-.161 1.028c.297.013.365.497.312.751-.064.305-.117.57-.575.479-.225-.045-.283-.23-.208-.699.066-.41.27-.54.47-.531z" fill="#fed402"/><path d="M187.024 320.329c1.014.06 1.134 1.126.747 1.864-.387.738-1.24 1.348-1.507 1.525-.266.176-.36.34.28.406s.734.434.2.487c-.533.053-1.226.019-1.68-.093-.453-.111-.213-.77.374-1.104.586-.334 1.333-.88 1.586-1.373.254-.492.054-.93-.546-.795-.6.134-.734-.202-.52-.48.213-.276.64-.463 1.066-.438zM190.001 320.627c-.162.01-.39.14-.67.425-.36.357-1.24 1.349-1.56 1.856-.32.507-.187.81.32.84.507.029.48.111.387.425-.093.314.067.484.293.49.227.006.28-.11.44-.421.16-.312.28-.426.44-.421.16.004.213-.012.28-.243.067-.23.013-.532-.12-.535-.133-.003-.187-.104-.133-.269.053-.165.293-.525.533-1.333.15-.506.06-.829-.21-.814zm-.922 1.746c.08.013.075.182-.015.385-.16.362-.213.327-.333.324-.12-.003-.213-.072 0-.399.17-.235.285-.32.348-.31z" fill="#fed402"/><path d="M231.887 340.262a74.093 74.093 0 00-4.727.11c-3.87.229-5.579.912-6.376 9.677-.797 8.766-.113 11.84 4.668 12.637 4.782.797 10.598 1.162 15.428.84 4.83-.322 6.44-3.542 6.44-12.074 0-8.533-1.288-10.465-6.923-10.787a105.917 105.917 0 00-8.51-.403zm32.367 1.145c-1.832-.011-3.54.047-4.991.218-3.87.455-5.465 2.39-5.806 9.221-.342 6.83-.228 12.523 4.44 13.092 4.667.569 12.067 1.138 16.051.683 3.984-.455 5.237-2.733 5.35-10.93.114-8.196-.113-11.61-5.464-11.838-3.13-.214-6.528-.427-9.58-.446z" fill="#e4e4e4"/><path d="M323.81 343.219c3.645.046 3.985.683 4.212 3.87.228 3.188 0 10.246-.341 13.32-.342 3.073-.797 3.756-3.302 3.984-2.504.228-26.183.228-30.85-.228-4.668-.455-5.465-.455-5.692-3.984-.228-3.529-.228-10.815.227-13.433.456-2.619.456-3.87 3.757-3.87s26.64.273 31.99.34z" fill="#ce7f35"/><path d="M30.657 335.364c-2.405 0-4.653.056-6.589.227-3.87.342-4.781 3.074-5.237 9.79-.455 6.717.228 10.93 4.554 11.499 4.326.569 11.726.683 15.482.114 3.757-.57 4.213-3.757 4.327-11.157.114-7.4-.342-9.79-5.01-10.36-2.56-.056-5.122-.113-7.527-.113zm31.356.098c-3.117-.013-6.283.058-8.916.13-4.212.113-5.122 3.414-5.464 10.017-.341 6.603-.227 11.043 4.554 11.498 4.781.456 9.676 1.025 15.14.57 5.465-.456 5.123-2.847 5.123-10.93 0-8.082-.797-10.7-5.009-11.156a119.953 119.953 0 00-5.428-.13z" fill="#e4e4e4"/><path d="M9.772 335.352c4.508.08 4.991.805 5.071 3.06.081 2.253 0 11.671-.08 14.328-.08 2.656-1.368 3.3-4.83 3.22-3.461-.08-5.152-.242-5.232-4.186-.08-3.944 0-12.397.16-14.248.162-1.852.806-2.174 4.911-2.174z" fill="#ce7f35"/><path d="M306.457 36.342c6.044.508 6.272 1.153 6.016 5.505-.256 4.353-1.024 9.473-1.792 13.186-.768 3.712-2.048 4.224-9.601 3.712-7.553-.512-7.681-1.92-7.553-5.888.128-3.969 1.28-11.778 1.92-14.466.64-2.689 1.81-2.822 11.01-2.049z" fill="#e0e0e0"/><path d="M300.056 64.89c8.96.512 8.96.768 8.705 4.993-.256 4.224-1.024 11.906-2.048 14.978-1.025 3.072-3.713 3.2-8.962 2.944-5.248-.256-6.913-.256-6.913-5.376 0-5.121.769-11.906 1.665-14.594.896-2.689 1.28-2.945 7.553-2.945z" fill="#cc7e2d"/><path d="M44.021 38.007c6.913-.128 6.913 1.152 6.53 5.376-.385 4.225-1.153 9.602-2.177 12.802-1.024 3.2-1.792 4.097-7.17 3.969-5.376-.128-6.4-.769-6.016-6.657.384-5.89 1.024-8.577 1.664-11.778.64-3.2 2.433-3.456 7.17-3.712z" fill="#e0e0e0"/><path d="M39.797 65.658c6.913 0 7.04 0 6.913 5.121-.128 5.12-.897 11.394-1.793 14.338-.896 2.944-1.92 2.944-6.913 3.072-4.992.128-6.656-.896-6.656-4.48 0-3.585 1.024-11.394 1.792-14.338.768-2.945 1.28-3.457 6.657-3.713z" fill="#cc7e2d"/><path d="M279.069 31.668c6.155.363 5.974.363 5.43 5.975-.542 5.612-4.525 42.907-4.706 47.252-.181 4.345-1.087 5.432-5.794 5.432s-210.01 0-214.899-.181c-4.888-.181-5.25-.725-4.707-6.337.543-5.612 4.888-41.278 5.613-45.08.724-3.802 2.172-4.345 6.517-4.526 4.345-.181 203.493-2.535 212.546-2.535z" fill="#4a4a4a"/><path d="M264.947 39.091c5.431 0 5.975 1.086 5.612 5.07-.362 3.982-1.448 11.224-1.991 15.75-.543 4.526-.543 5.975-4.526 6.337-3.983.362-186.245 1.022-190.409 1.203-4.164.18-4.164-1.268-3.802-4.526.362-3.26 1.761-15.687 2.124-18.221.362-2.535 1.086-2.897 3.982-3.26 2.897-.361 181.225-2.534 189.01-2.353z" fill="gray"/><path d="M514.311 256.128c-2.207.026-2.515.628-3.411 3.092-1.024 2.817-13.698 38.79-14.594 41.35-.896 2.56-1.024 2.432-3.712 2.56-2.466.118-20.257-.405-31.927-.79-.102 7.49-.21 15.292-.326 23.676 10.205.028 32.356.392 34.894.392 3.078 0 3.62-.363 4.526-3.26.905-2.896 3.802-14.483 4.345-17.38.543-2.896.905-2.534 3.44-2.715 2.534-.18 19.734.181 31.14.181 11.405 0 216.89.724 225.76.905 2.07.043 10.779.053 22.558.048.649-22.622 1.181-41.473 1.181-42.662a33.9 33.9 0 00-.012-.86c-12.552-.122-100.094-1.433-110.627-1.606-11.044-.18-158.965-2.783-162.165-2.911-.4-.016-.755-.024-1.07-.02zm364.125 5.577c-.157.808-.271 1.793-.383 3.02-.165 1.82-.524 18.344-.934 39.304 17.695-.04 32.61-.071 37.775-.071 17.742 0 251.108 1.81 257.082 1.63 2.631-.08 4.754-.162 6.603-.288.034-11.199.059-20.946.059-25.213 0-2.341-.04-7.105-.095-12.725-19.001-.26-261.823-4.873-273.788-5.225-3.418-.1-13.622-.258-26.32-.432z" fill="#2d5270"/><path d="M982.898 278.668l-.184.405c-.1.223-.64 1.35-1.2 2.503a433.946 433.946 0 00-1.263 2.622c-.135.289-.245.476-.243.417.003-.106.238-1.028.933-3.672.402-1.53.446-1.81.329-2.098-.083-.203-.102-.205-1.746-.206h-1.662l-.252.848c-.138.467-.253.887-.255.933-.002.046.613.094 1.37.105 1.117.017 1.373.045 1.369.15-.003.07-.088.437-.19.815-.1.379-.183.704-.184.724 0 .02-.093.395-.206.835-.19.742-.272 1.07-.588 2.33l-.298 1.178c-.098.386-.179.718-.18.739 0 .02-.095.39-.21.82-.115.431-.21.82-.213.865-.002.045.168.079.379.076l.382-.006.458-.966c.9-1.9 2.052-4.314 2.55-5.348.28-.58.623-1.3.765-1.6l.256-.549 3.298.026 3.297.026.24-.86c.133-.474.234-.894.226-.934-.008-.04-1.582-.096-3.497-.125zm8.061.123l-.15.598-.303 1.196-.151.598-.505-.006c-.278-.003-.528.025-.556.063a2.005 2.005 0 00-.142.394c-.122.44-.08.487.467.497.246.005.446.042.444.083-.005.115-.461 1.977-.722 2.946-.33 1.225-.686 1.917-1.146 2.224-.217.144-.324.113-.378-.111-.03-.126.034-.534.282-1.793.445-2.262.466-2.927.096-3.142-.168-.098-.489.107-.755.483-.246.345-.29.313-.198-.143.03-.152.046-.302.033-.333-.033-.082-.632-.076-.69.007-.028.038-.166.593-.307 1.233-.142.64-.344 1.415-.449 1.722-.345 1.01-.857 1.774-1.494 2.231-.281.203-.875.232-1.103.055-.191-.149-.353-.527-.395-.926-.064-.605-.063-.605.876-.59l.849.012.097-.262c.258-.702.38-1.854.272-2.592-.198-1.365-.985-1.674-1.906-.749-.343.345-.832 1.344-1.028 2.102l-.155.595-.252-.004c-.25-.004-.254.001-.356.367-.056.204-.091.398-.078.431.014.033.148.062.298.065.295.005.284-.02.317.674.02.403.058.6.224 1.136.286.927.972 1.294 1.783.955.59-.247 1.032-.635 1.459-1.283l.247-.375-.041.269a14.84 14.84 0 01-.143.727 6.57 6.57 0 00-.105.55c-.002.053.172.096.407.1l.411.005.108-.502c.102-.47.412-1.93.595-2.8.118-.558.387-1.232.562-1.408.084-.084.167-.132.185-.106.051.075.018.502-.061.784-.138.49-.432 2.074-.476 2.561-.051.563.004.962.18 1.297.165.313.702.25 1.087-.129.312-.308.711-.894.805-1.183.106-.325.14-.225.133.386-.005.47.014.63.1.842.102.248.128.26.51.258.37-.003.428-.03.729-.343.18-.186.418-.513.53-.727a4.04 4.04 0 01.218-.387c.008 0 .019.17.025.377.014.506.123.952.264 1.08.173.156.613.053.837-.197.107-.12.304-.431.438-.693.253-.494.322-.493.302 0-.022.544.29 1.003.686 1.009.883.013 1.765-1.468 2.37-3.977.123-.511.266-1.005.319-1.097.1-.174.306-.227.3-.076-.002.048-.084.425-.182.838-.26 1.091-.382 1.875-.423 2.714-.03.613-.022.791.045 1.032.293 1.054 1.174.695 1.976-.806.196-.368.37-.669.384-.668.014 0 .021.119.015.264-.017.41.186 1.242.377 1.542.148.233.209.266.478.259.384-.01.658-.245.972-.832l.23-.43.067.35c.038.191.138.484.223.65.149.29.17.3.575.306.387.006.442-.017.67-.277.61-.696 1.105-2.11.954-2.723-.03-.117-.103-.007-.391.579-.5 1.017-.933 1.39-1.125.968-.107-.235-.082-.465.221-2.024.375-1.931.519-2.714.525-2.865 0-.096-.083-.128-.354-.131-.39-.004-.43.023-.524.355l-.063.22-.134-.285c-.294-.625-.785-.67-1.288-.119-.373.41-.684 1.02-2.099 4.113-.276.603-.463.83-.682.827-.342-.005-.31-.428.158-2.1a18.85 18.85 0 00.373-1.564c.081-.501.084-.58.03-.896-.08-.466-.195-.546-.682-.475-.224.033-.408.04-.407.015.001-.024.042-.245.091-.49.084-.418.085-.47.025-.808-.24-1.351-1.132-.15-1.041 1.404.025.436.086.733.172.847.064.084.056.149-.084.747-.44 1.872-1.053 3.091-1.55 3.084-.194-.003-.261-.141-.245-.504.01-.236.466-2.267.847-3.772.07-.277.129-.549.131-.605.003-.065-.144-.104-.402-.108-.379-.006-.411.009-.466.209-.128.473-.642 2.49-.644 2.527-.005.12-.389 1.181-.54 1.494-.33.687-.673.973-.798.668-.053-.13-.057-.257-.018-.6.067-.596.136-.893.86-3.697.068-.263.116-.51.106-.551-.01-.04-.202-.076-.428-.08l-.41-.006-.494 1.8c-.538 1.962-.746 2.508-1.114 2.922-.27.302-.563.37-.618.14-.088-.361-.02-.754.727-4.212l.175-.814.501-.016c.657-.021.675-.033.78-.494.048-.212.088-.406.09-.432 0-.025-.243-.05-.541-.054-.299-.005-.55-.04-.56-.08-.008-.04.1-.555.24-1.145.14-.59.245-1.096.233-1.125-.011-.03-.184-.055-.383-.058zm-6.956 4.203c.067.004.126.04.173.11.098.146.029.84-.151 1.512l-.16.598-.48-.007c-.264-.004-.479-.028-.478-.053.008-.187.287-1.129.428-1.448.202-.456.468-.725.668-.712zm16.64.363c.172.003.202.038.266.316.083.357.064 1.218-.04 1.791-.086.474-.391 1.322-.596 1.653-.21.34-.437.426-.562.211-.212-.364-.238-1.013-.076-1.93.197-1.117.656-2.047 1.008-2.041z" fill="#fed402" paint-order="fill markers stroke"/><path d="M998.174 278.81c.124.008.143-.046.188-.212.045-.167.032-.227-.055-.228-.087-.001-.136.01-.168.129-.033.118-.09.303.035.31zM997.807 278.386c.19.003.205.039.19.242-.014.202-.066.273-.207.26-.14-.015-.277.019-.208.294.07.276.174.492.12.742-.055.25-.108.715-.484.638-.377-.078-.312-.566-.14-.528.172.039.328.077.357-.09.029-.167-.047-.299-.124-.515-.077-.216-.083-1.064.496-1.043zM998.093 279.047c.123.038.097.12.032.37s-.188.702-.24.88c-.05.178-.08.214-.171.212-.093 0-.079-.072-.017-.358.061-.285.165-.666.228-.868.063-.202.08-.225.168-.236zM998.266 279.25c.081-.3.203-.344.383-.341.18.003.26.215.208.543-.053.329-.14.58-.196.782-.058.202-.07.295-.136.294-.065-.001-.099-.078-.064-.23.035-.15.113-.436.142-.546.029-.109.045-.27-.037-.304-.083-.035-.167.107-.26.469-.093.361-.095.606-.225.604-.13-.002-.115-.078-.044-.38.07-.303.15-.603.23-.892zM999.369 278.954c.236.043.192.264.156.382-.036.118-.122.034-.2.005-.11-.04-.222.08-.267.401-.045.32-.006.49.08.533.086.043.174.23-.004.27-.178.04-.363-.257-.273-.755.109-.606.293-.877.508-.837z" fill="#fed402"/><path d="M999.814 279.007c-.089.04-.105.074-.208.275-.118.23-.243.684-.223.997.021.313.377.255.478.172.101-.083-.01-.173-.202-.168-.192.006-.07-.364 0-.388.07-.024.237.027.319.034.08.007.092-.01.139-.234.046-.223.029-.638-.16-.704-.041-.014-.078-.014-.143.016zm-.045.457c.072-.103.133-.092.172-.006.078.17.064.24-.14.211-.136-.019-.102-.104-.032-.205zM1001.097 278.496c.102.031.106.008.04.406-.067.4-.32 1.332-.382 1.517-.062.184-.055.196-.142.194-.087 0-.093-.103-.042-.269.051-.166.208-.707.257-.891.049-.184 0-.215-.066-.228-.07-.013-.094-.079-.018-.263s.23-.48.354-.466zM1001.641 278.457c-.183-.013-.302.276-.369.561-.067.285-.154.726-.023.757.132.032.164.1.11.336-.047.207-.125.16-.28.15-.154-.007-.2.333.094.337.292.004.637-.868.688-1.332.05-.465.046-.791-.22-.81zm-.069.522c.085.004.094.25.073.379-.025.155-.046.29-.176.248-.064-.02-.076-.115-.044-.353.028-.208.09-.277.148-.274z" fill="#fed402"/><path d="M1002.347 278.473c.29.022.301.562.174.94a2.527 2.527 0 01-.469.786c-.08.091-.11.175.072.203.183.029.202.215.047.246a.923.923 0 01-.481-.033c-.129-.052-.044-.389.132-.563.176-.175.404-.458.488-.71.084-.252.036-.472-.14-.4-.176.074-.207-.095-.14-.238.069-.142.196-.24.318-.231zM1003.198 278.599c-.047.006-.116.074-.203.221a9.115 9.115 0 00-.49.955c-.104.26-.072.413.073.423.145.011.135.053.101.213s.01.245.073.246c.065 0 .083-.058.136-.218.053-.16.09-.218.137-.217.046 0 .062-.008.086-.125.024-.118.016-.27-.023-.27-.038-.001-.051-.052-.032-.136.019-.084.096-.269.183-.681.054-.258.036-.42-.042-.411zm-.305.894c.023.006.018.091-.013.195-.054.185-.069.168-.103.167-.034 0-.06-.034.01-.202.054-.121.089-.165.107-.16z" fill="#fed402"/><path d="M1025.922 371.166c3.915.072 4.008-.333 4.027-2.797.027-3.394-.783-3.355-3.58-3.355-2.795 0-3.13.447-3.13 3.02 0 2.572.556 3.092 2.683 3.132zM946.594 371.892c2.91.03 2.91-.03 2.91-3.27s-.87-3.03-3.06-3.03-3.03-.15-3.03 2.94.24 3.33 3.18 3.36z" fill="#ea953d"/><path d="M944.763 357.835c5.694 0 6.327.158 6.01 3.955-.316 3.796-.949 3.954-5.061 4.27-4.113.317-60.9.95-64.855.792-3.954-.159-4.112-1.108-4.112-4.43 0-3.321.474-3.796 2.689-3.954 2.214-.158 59.001-.633 65.329-.633zM1022.587 360.84c-.414-3.645-.316-4.112 2.215-4.27 2.53-.158 50.618-.317 60.109-.633 9.49-.316 69.283-1.74 73.712-1.74 4.429 0 4.903.317 4.745 3.638-.158 3.322-.949 4.113-3.322 4.271-2.372.158-64.537 2.531-71.34 2.69-6.8.157-17.873.474-24.517.316-6.644-.159-35.59 0-38.596 0-3.006 0-2.629-.956-3.006-4.271z" fill="#252525"/><path d="M1156.925 369.534c3.648-.085 3.563-.594 3.733-3.14.17-2.545-.085-3.393-3.479-3.224-3.394.17-3.309.51-3.309 3.14s-.17 3.14 3.055 3.224zM781.835 376.272c3.96-.075 4.2-.36 4.2-3.36s-.006-3.48-3.726-3.24c-3.72.24-3.608.895-3.608 3.535s.732 3.11 3.134 3.065zM613.702 374.37c5.261-.169 6.449.51 6.534 4.583.085 4.073-.085 4.667-5.346 4.836-5.26.17-5.855-.848-6.024-4.497-.17-3.648.254-4.751 4.836-4.921zM501.019 374.88c4.327 0 4.751.34 4.751 3.479 0 3.14-.763 3.733-4.751 3.649-3.988-.085-4.413-.425-4.497-3.734-.085-3.31.848-3.394 4.497-3.394z" fill="#ea953d"/><path d="M782.428 358.643c-.18.002-.372.007-.578.013-3.305.1-93.326 1.602-102.538 1.802-9.212.2-74.5 1.302-76.403 1.502-1.902.2-1.902.901-1.201 5.708.3 4.406.701 4.606 3.705 4.506 3.004-.1 34.746-1.001 45.46-1.302 10.715-.3 130.276-2.403 132.178-2.603 1.903-.2 1.803-.801 1.803-5.107 0-4.037.264-4.553-2.426-4.52zm-277.252 4.443c-3.054 0-41.323.139-43.105.223-1.781.085-1.995.88-1.95 6.056.04 4.751.173 4.875 2.04 4.875s41.828-.256 43.185-.341c1.358-.085 1.867-1.734 2.291-5.807.424-4.073.594-5.006-2.46-5.006z" fill="#252525"/><path d="M514.044 308.855c6.655-.283 6.089.991 6.089 6.373 0 5.38-.85 5.664-6.656 5.664s-5.806-1.274-5.806-6.514 1.274-5.523 6.373-5.523z" fill="#3e8294"/><path d="M788.86 400.512c0 4.807.8 5.207 4.205 5.207 3.405 0 22.23-.4 25.634-.4 3.405 0 5.007.2 5.207-3.605.2-3.805 1.002-117.158 1.202-129.574.2-12.417-2.203-152.605-2.203-156.61 0-4.006-.2-4.807-4.806-5.208-4.607-.4-20.027-1.201-23.832-1.201-3.805 0-4.206.4-4.406 4.606-.2 4.205 1.402 149.801 1.201 165.823-.2 16.021-2.203 113.953-2.203 120.962zM831.316 399.51c0 5.208.2 5.208 5.007 5.208 4.807 0 20.628-.4 26.035-.601 5.407-.2 5.808-1.202 6.008-6.008.2-4.807 1.402-134.58 1.402-146.797 0-12.217-1.802-124.968-2.003-129.975-.2-5.007-.6-7.41-6.008-8.01-5.407-.602-19.025-1.403-23.03-1.403-4.006 0-5.007.4-5.007 5.808 0 5.407-.2 149.2-.2 160.215 0 11.015-2.404 112.752-2.204 121.564z" fill="#323232"/><path d="M804.782 128.913a59.023 59.023 0 00-6.358.318c-3.806.4-3.405 2.202-3.405 6.809 0 4.606 1.333 139.304 1.133 151.12-.2 11.816-3.419 73.498-3.419 78.105 0 4.606.4 8.01 4.606 8.211 4.206.2 9.144.2 14.752.4 6.008 0 6.809-.6 7.21-7.009.4-6.408 1.602-160.816 1.401-170.63-.2-9.813-.8-52.87-1.001-58.478-.2-5.608-.2-7.81-6.61-8.411-3.203-.3-5.919-.43-8.31-.435zm36.965 1.212c-3.718-.048-4.41 1.125-4.222 8.635 0 8.812-.2 80.509-.2 89.32 0 8.812-2.603 133.58-2.403 138.587.2 5.006.4 7.41 4.606 7.81 4.205.4 15.918.6 19.924.4 4.005-.2 5.06-1.802 5.007-6.808 0 0 1.413-61.15 1.319-70.095-.093-8.811-1.202-151.003-1.402-157.411-.2-6.409-1.002-8.411-5.007-9.012-4.006-.6-12.431-1.202-16.837-1.402a24.3 24.3 0 00-.784-.024z" fill="#494949"/><path d="M440.391 88.293c8.211.4 7.61 1.802 7.81 9.012.2 7.21 1.402 145.996 1.402 161.016 0 15.02-1.802 146.998-1.802 151.203 0 4.206-.4 5.007-4.606 5.207-4.206.2-30.04.601-34.046.601-4.005 0-3.805-.4-4.005-5.007-.2-4.606 2.403-95.728 2.803-110.548.401-14.82 1.402-174.435 1.402-184.248V94.501c0-5.207.2-8.411 4.006-8.411 3.805 0 21.629 1.602 27.036 2.203zM388.859 84.4c5.523.284 4.956 1.558 5.24 4.957.283 3.399 0 24.64 0 32.854 0 8.213.831 123.293.63 133.306-.2 10.014-2.202 149-2.202 153.607 0 4.606 0 6.609-4.206 6.809-4.206.2-27.837.2-32.844.2-5.007 0-5.808.2-6.008-6.008-.2-6.208 1.296-73.372 1.296-81.87 0-8.496 1.983-118.67 2.266-131.415.283-12.745-.283-99.411-.283-105.359 0-5.948.566-9.063 5.948-8.78 5.38.283 22.09 1.133 30.163 1.7z" fill="#323232"/><path d="M367.856 94.49c-1.814 0-3.425.036-4.63.107-4.814.283-5.663 3.398-5.947 8.213-.283 4.815-.85 96.58-.85 110.457 0 13.878-1.416 148.126-1.416 152.516 0 4.39.426 6.09 4.957 6.514 4.532.425 17.418.708 21.667.566 4.248-.141 6.23-.566 6.23-6.797.85-11.187 2.55-98.986 2.55-114.847 0-15.86.283-135.664 0-145.577-.284-9.912-1.416-9.346-6.231-10.196-3.611-.637-10.887-.956-16.33-.956zm48.334 1.523c-2.832 0-3.965.85-4.248 7.08-.284 6.231.283 62.026.283 76.47 0 14.445-.566 109.325-.566 124.902 0 15.577-1.134 50.697-1.134 61.177-.283 7.08.85 7.93 6.231 8.213 5.382.283 15.578 0 21.242 0 5.664 0 7.08-2.55 7.08-6.514 0-3.965.284-88.366.284-97.429 0-9.063-.283-98.562-.283-110.174 0-11.612-.567-48.998-.85-54.946-.283-5.947-1.133-7.363-5.665-7.646-4.531-.283-19.542-1.133-22.374-1.133z" fill="#494949"/><path d="M446.212 426.393c4.39 0 4.673 1.274 3.681 3.54-.99 2.266-1.982 2.266-5.24 2.407-3.256.142-84.825 2.833-88.931 2.833-4.107 0-4.249-.708-4.532-2.833-.283-2.124.425-3.257 2.55-3.398 2.123-.142 86.665-2.55 92.472-2.55zM862.267 412.232c5.38-.142 5.522.283 5.664 1.84.142 1.558-.991 2.266-4.532 2.408-3.54.142-66.415 3.257-70.522 3.115-4.107-.141-4.107-.283-4.107-1.84 0-1.558-.283-2.55 2.974-2.691 3.257-.142 63.017-2.69 70.523-2.832z" fill="#ccc"/><path d="M472.234 124.341v100.135c0 6.408 0 7.21 8.411 7.61 8.411.4 104.54 2.002 110.549 2.403 6.008.4 7.21-.4 7.61-7.61.4-7.21 1.602-126.17 1.202-128.974-.4-2.803-126.17-8.41-126.17-8.41zM606.8 135.38c0 10.763-.567 87.517-.567 92.615 0 5.098.566 6.514 5.664 6.797 5.098.283 45.882 1.7 50.98 1.7 5.098 0 4.532-.567 4.815-6.515.283-5.947 0-89.498 0-92.614 0-3.115 2.55-9.063 2.55-9.063l-.567-26.623-64.292-3.682z" fill="#494949"/><path d="M672.369 138.597c0 5.608.138 31.62.138 41.25 0 8.218.85 46.732.85 51.263 0 4.532.85 5.665 5.38 5.948 4.532.283 25.774.566 33.421.283 7.647-.283 11.046 1.133 11.33-8.213.282-9.347.566-85.817.566-90.632 0-4.815 1.133-32.287-.85-32.854-1.983-.566-53.812-9.063-53.812-3.115s2.977 36.07 2.977 36.07zM730.851 115.838c0-6.797.85-6.514 4.815-6.514 3.965 0 26.34 1.465 32.57 2.031 6.231.567 7.081 1.133 7.364 6.231.283 5.098 1.133 107.293.85 113.524-.283 6.231-.981 6.964-5.948 7.364-3.952.319-33.137-.815-36.252-.815-3.116 0-3.682-3.399-3.682-8.497s.283-105.11.283-113.324z" fill="#494949"/><path d="M473.687 84.921c-4.287.05-6.27 1.32-6.517 6.277-.283 5.664-.152 22.371 0 30.871.131 7.363 0 7.081 6.514 7.93 6.514.85 244.139 15.295 249.52 15.295s5.381-1.417 5.665-5.665c.283-4.248-.284-28.606-.284-32.287 0-3.682-1.416-5.665-7.363-6.231-5.948-.566-239.89-15.86-245.555-16.144a32.363 32.363 0 00-1.98-.046zm6.127 7.67c.298-.002.615.006.95.023 5.382.283 95.164 6.23 103.378 7.08 8.213.85 11.612 1.134 11.895 5.949.283 4.814.283 9.346.283 17.276 0 7.364 1.982 8.78-6.514 8.497-8.497-.284-103.377-5.381-109.041-5.665-5.665-.283-5.665-1.133-5.948-6.23-.283-5.099-.283-18.127 0-21.526.265-3.186.53-5.376 4.997-5.404zm137.181 8.803c7.647 0 39.652 2.5 44.75 3.067 5.098.566 5.584 2.003 5.947 5.098.4 3.415.6 13.01.283 18.126-.299 4.814.118 6.297-6.23 6.231-5.975-.062-39.652-1.65-46.45-2.5-6.797-.85-6.938-1.412-7.08-7.93-.141-6.513.284-13.312.567-16.994.283-3.682.566-5.098 8.213-5.098zm59.684 3.71c4.744-.074 36.003 2.033 39.883 2.615 4.006.6 4.606 2.203 4.606 4.806 0 2.604.2 16.623 0 19.827-.2 3.204-1.602 3.605-5.808 3.404-4.205-.2-34.846-1.401-38.451-1.602-3.605-.2-4.13-1.202-4.206-4.806-.125-6.01-.334-16.819-.2-19.827.174-3.92 1.827-4.381 4.176-4.418z" fill="#303030"/><path d="M884.924 145.294c0 14.16-.85 90.348-.85 95.163 0 4.814 1.134 5.947 7.365 6.514 6.23.566 79.302 2.549 86.666 2.549 7.364 0 8.78-1.416 8.78-6.798 0-5.38 1.416-85.25 1.982-92.33.567-7.081.284-30.589.284-30.589l-103.377-6.797zM993.116 152.94c0 11.613-1.133 84.968-1.133 89.782 0 4.815 1.133 7.364 7.08 7.647 5.948.284 70.806 1.983 77.037 1.7 6.231-.283 8.78-1.133 9.063-7.364.284-6.231 1.417-80.719 1.417-86.1v-32.004l-94.88-5.665zM1095.076 160.87c0 8.498-1.982 64.859-2.266 70.24-.283 5.381 1.133 8.214 6.231 8.497 5.098.283 47.015 1.416 52.963 1.7 5.948.283 7.364-2.55 7.647-8.214.283-5.665-.566-64.575-.283-69.107.283-4.531 1.133-33.137 1.133-33.137l-69.673-4.248s-1.416 32.854 4.248 34.27z" fill="#5f6261"/><path d="M886.558 109.546c-4.368-.027-5.917.84-6.165 4.31-.284 3.965.283 22.941.567 31.155-.567 7.363 1.415 7.363 6.513 7.646 5.098.283 263.964 13.878 269.062 14.162 5.098.283 4.816-.284 5.099-5.098.283-4.815 0-25.208-.284-29.173-.283-3.965 0-5.38-6.797-5.947-6.797-.567-260-16.71-265.947-16.993a50.087 50.087 0 00-2.048-.062zm6.241 6.985c4.006 0 84 5.573 88.406 5.773 4.406.2 5.808 1.803 5.608 5.007-.2 3.204-.2 14.219-.801 18.625-.601 4.406-1.603 5.407-8.812 5.007-7.21-.401-77.592-4.773-83.2-5.173-5.607-.4-7.209-.801-7.009-7.01-.2-5.006.2-15.02.4-18.224.201-3.204 1.403-4.005 5.408-4.005zm103.74 7.01c2.603 0 76.703 4.405 82.31 4.805 5.608.401 5.007 1.803 5.207 4.006.2 2.203.2 17.223.2 20.227 0 3.004-1 4.005-4.606 3.805-3.605-.2-76.703-3.605-81.109-4.005-4.406-.4-4.685-.8-4.806-7.21-.08-4.224-.4-15.02-.2-18.024.2-3.004.4-3.605 3.004-3.605zm99.517 6.001c.38.001.808.015 1.286.033 3.824.141 52.538 2.973 56.645 3.257 4.107.283 4.815 1.274 4.673 5.523-.142 4.248-.142 12.886-.425 16.993-.283 4.107-.425 5.24-4.107 5.098-3.681-.142-53.529-2.407-56.361-2.407-2.832 0-4.39-1.275-4.532-6.09-.142-4.815-.283-13.17-.283-18.126 0-3.717.434-4.29 3.104-4.28z" fill="#303030"/><path d="M552.141 371.999c-11.366.114-13.465 3.104-17.824 9.59-4.513 6.717-5.49 19.946-5.006 31.4.438 10.393 5.988 25.429 20.407 24.377 14.42-1.051 2.423-65.367 2.423-65.367z" fill="#a9a398"/><path d="M551.54 371.752c11.816.638 15.421 16.58 16.022 28.91.6 12.328-6.81 36.773-18.425 36.56-11.615-.212-16.222-16.154-16.222-37.198 0-21.045 11.816-27.847 18.625-28.272z" fill="#b2aea1"/><path d="M531.707 364.578a34.318 34.318 0 00-2.904 3.29c9.9 3.274 11.451 2.58 12.572 1.739.71-.533-.36-2.4-2.442-3.963-2.188-.403-4.593-.759-7.226-1.066zm-6.56 8.9c-1.69 3.103-3.153 6.655-4.26 10.632 6.951-.113 14.307-3.423 4.769-10.255-.182-.13-.34-.252-.508-.377zm-6.088 20.267a67.13 67.13 0 00-.363 5.165c-.09 2.869-.094 5.74-.008 8.577 6.727-3.024 9.004-8.612.37-13.742zm.513 24.998c.502 3.787 1.218 7.404 2.172 10.75 7.482-1.903 8.079-8.738-2.172-10.75zm11.74 17.867c-1.547.011-3.497.173-5.94.545-.248.038-.48.066-.718.097.922 1.89 1.962 3.622 3.13 5.158.215.074.428.14.639.196 3.623-.825 6.74-1.222 7.712-2.194 1.036-1.035 1.884-3.847-4.822-3.802z" fill="#171717"/><path d="M551.24 383.289c7.41.5 10.514 12.417 10.714 21.73.2 9.312-4.506 20.126-12.917 20.927-8.411.801-10.514-13.418-10.113-24.533.4-11.115 6.909-18.424 12.316-18.124z" fill="#9a8e81"/><path d="M548.236 397.008c-4.364.344-7.118.57-8.94.737a28.355 28.355 0 00-.372 3.669c-.109 3.008-.032 6.242.302 9.346 3.142.6 7.148 1.018 9.11.867 2.603-.2-.1-14.62-.1-14.62z" fill="#7e776c"/><path d="M548.036 397.108c4.005.1 5.006 4.906 5.107 8.11.1 3.205-2.103 6.109-4.707 6.309-2.603.2-4.506-3.705-4.506-7.51 0-3.805 1.402-6.81 4.106-6.91z" fill="#b4aea6"/><path d="M544.915 380.086c-3.045 1.982-2.55 6.372.991 5.31 3.54-1.062 7.08-2.903 8.992-3.753 1.912-.85 2.55-5.876-1.345-4.885-3.894.991-6.018 1.912-8.638 3.328zM536.914 395.592c.708-5.381 5.452-4.744 5.593-.07.142 4.673-.495 13.807-.92 16.356-.425 2.549-6.443 4.319-6.16-1.558.283-5.877 1.062-11.542 1.487-14.728zM542.437 427.242c-3.682-3.398-1.204-6.797 1.77-5.168 2.974 1.628 6.656 4.744 8.072 6.443 1.416 1.7.779 5.381-2.762 3.894-3.54-1.487-5.098-3.257-7.08-5.169zM558.439 424.552c-1.275 4.673 1.628 6.656 3.965 2.69 2.337-3.965 4.744-7.859 5.452-11.116.708-3.257-1.629-6.585-3.824-2.974-2.195 3.611-4.744 8.568-5.593 11.4zM564.316 399.062c2.195 5.452 6.018 3.682 5.027-.92-.991-4.603-2.832-10.55-4.248-14.02-1.417-3.47-6.16-3.399-4.815 1.84 1.345 5.24 3.115 10.126 4.036 13.1z" fill="#c2a962"/><path d="M979.406 434.465c16.91 0 20.79-27.636 20.79-41.314 0-13.679-5.266-36.01-19.958-36.29-14.692-.279-19.682 21.216-19.127 38.523.554 17.307 6.098 38.243 18.295 39.08z" fill="#c2c2ba"/><path d="M969.345 361.995c-6.335 7.371-8.619 21.386-8.234 33.389.015.481.036.966.059 1.452l.018.364a95.556 95.556 0 00.349 4.604l.025.258c.05.489.106.978.164 1.468l.044.359c.052.418.106.836.163 1.253l.04.292c.067.48.138.959.213 1.437l.068.42c.06.365.12.73.185 1.095a82.34 82.34 0 00.335 1.803c.03.153.062.304.093.455.068.331.138.66.21.99.036.167.072.336.11.503.1.447.204.891.311 1.332l.086.342a68.582 68.582 0 00.736 2.705l.138.456a58.543 58.543 0 00.795 2.416 51.787 51.787 0 00.744 1.963c.114.284.232.565.351.843.185.431.373.858.568 1.273.42.892.863 1.746 1.33 2.555l.017.028c.309.534.628 1.049.959 1.542l.021.03c.163.242.327.479.495.71l.004.006c5.556-6.621 9.664-18.864 9.664-26.813 0-9.557 1.185-23.801-10.061-39.53z" fill="#424240"/><path d="M322.939 115.414c5.098.283 5.664 2.124 5.876 7.222.213 5.098.567 45.599.213 48.997-.354 3.399-1.7 4.178-4.886 4.461-3.186.283-12.39.637-16.002.07-3.61-.566-4.673-.99-5.452-8.496-.779-7.505-.283-40.855.142-44.89.425-4.037 1.133-5.736 4.815-6.232 3.681-.495 11.682-1.132 15.294-1.132z" fill="#2b2d2e"/><path d="M335.975 76.601c-.533.004-1.123.01-1.778.01-5.56.536-4.855 1.067-4.755 2.67.1 1.601-.801 1.501-3.104 1.802-2.303.3-17.023 2.203-20.428 3.104-3.404.901-4.405 3.205-3.804 8.612.6 5.407 2.102 21.829 2.503 26.635.4 4.807 1.201 25.134 1.201 28.539 0 3.404.6 4.406 2.103 4.206 1.502-.2 1.803-1.302 2.003-5.508.2-4.206-1.703-22.13-2.003-26.736-.3-4.606-1.802-17.423-.7-23.432 1.1-6.008 4.305-6.007 9.712-5.106 5.408.901 7.61 1 9.613 1.101 2.003.1 3.705-.2 3.805.901.1 1.102.88 1.48 5.412 1.764 4.531.283 4.956-.991 5.097-2.974.142-1.983-.283-8.355-.283-12.179 0-3.345-.867-3.438-4.594-3.409zm-7.054 6.377c.858.016 1.128.896 1.222 3.713.1 3.004 0 3.804-1.102 4.005-1.101.2-1.302-.902-1.402-3.906 0-3.604.1-3.704 1.102-3.805a1.6 1.6 0 01.18-.008zm-7.186 1.178c2.07.039 2.3.882 2.3 3.336 0 2.803-.4 2.603-2.804 2.203-2.403-.4-3.255-.651-4.606-.801-1.352-.15-2.003-.451-1.903-2.003.1-1.552-.15-2.003 1.051-2.153 1.202-.15 3.255-.35 4.957-.551a11.96 11.96 0 011.005-.03zm-10.768 1.484c.536.03.677.298.666 1.153-.015 1.125-.851 1.232-2.554 2.584-1.702 1.352-2.518 1.569-2.518.017s.1-1.953.15-2.554c.05-.6.1-.75.751-.85.651-.1 1.397-.14 2.304-.25.386-.048.698-.088.947-.1a2.55 2.55 0 01.254 0z" fill="#3a3a3a"/><path d="M107.633 41.836c2.833.074 2.833.499 2.566 2.308-.267 1.809-.588 2.025-2.94 2.052l-5.027.058c-1.39.015-1.497-.036-1.817 2.41-.321 2.448-1.07 3.36 2.62 3.37 3.689.011 3.796.276 3.582 2.031-.214 1.755-.802 2.08-2.246 2.044-1.444-.036-2.94-.02-3.69-.01-.748.008-1.015.383-1.336 2.564-.32 2.182-.32 2.926 1.123 3.015 1.444.09 4.063.06 5.56.096 1.498.036 1.818.298 1.605 2.213-.214 1.914-.321 2.128-2.62 2.154l-9.624.11c-1.658.02-1.979-.136-1.818-1.838.16-1.701 2.62-19.1 2.834-20.377.213-1.277.16-1.967 1.657-2.09 1.497-.124 7.378-.19 9.57-.11zM121.32 42.053c2.566.131 2.513.239 2.406 1.95a400.11 400.11 0 01-.374 5.512c-.107 1.338.32 1.707 1.604 1.746 1.283.039 2.138.19 2.352-1.524.214-1.713.642-4.98.695-6.264.054-1.283.535-1.396 2.62-1.313 2.085.083 2.085.19 2.085 1.74 0 1.551-.16 2.515-.428 3.641-.267 1.126-4.565 5.208-4.672 6.599-.107 1.391 1.25 3.332 2.267 4.443 1.015 1.111 1.39 2.39 1.176 4.638-.214 2.248-.588 2.947-2.406 2.915-1.818-.033-2.3-.348-2.192-1.9.107-1.552.267-2.89.32-4.388.054-1.497-.641-3.147-1.924-3.292-1.284-.146-2.674.886-2.941 3.402-.267 2.516-.428 3.854-.535 4.818-.107.964-.374 1.501-2.138 1.415-1.765-.087-2.513-.453-2.46-2.004.054-1.55.214-3.103.642-4.07.428-.968 1.176-1.672 2.727-2.759 1.55-1.087 1.927-1.947 2.034-3.124.107-1.178-.858-2.931-1.98-3.827-1.124-.896-1.551-1.586-1.444-3.03.106-1.446.374-3.694.48-4.337.108-.643.268-1.02 2.086-.987zM150.031 41.883c-1.55.018-4.544.106-5.988.283-1.443.177-1.497.659-1.71 2.051-.215 1.393-2.353 17.939-2.567 19.759-.214 1.82-.107 2.193 2.192 2.113 2.299-.08 2.246-.507 2.406-1.845.16-1.339.481-3.802.695-5.73.214-1.926.267-1.98 1.39-2.047 1.123-.066.642-.007 3.154-.09 2.513-.082 5.08-2.624 5.508-6.853.427-4.229-.375-7.481-5.08-7.64zm-2.447 4.223c.258-.008.57.003.95.018 2.032.084 2.192.189 1.818 2.278-.374 2.09-.534 2.84-2.513 2.81-1.978-.031-2.406-.294-1.871-2.76.39-1.915.5-2.31 1.616-2.346zM166.98 41.327c-1.39.015-1.336.811-1.657 2.743-.321 1.932-2.513 18.273-2.567 20.085-.053 1.812.375 2.11 2.086 2.08 1.71-.03 2.405-.224 2.673-3.644.267-3.42.909-3.291 2.192-2.13 1.283 1.161 1.925 2.887 1.871 4.113-.053 1.227.91 1.393 2.567 1.365 1.657-.028 2.352-.648 2.406-1.981.053-1.333-.321-2.007-2.086-3.783-1.764-1.777-1.817-3.105-.107-4.253 1.711-1.148 3.155-3.508 3.369-7.404.214-3.895-1.444-7.22-6.47-7.187a151.334 151.334 0 00-4.277-.003zm3.68 5.615l.33-.01c1.871-.038 2.406-.01 2.3 2.177-.108 2.187-.429 2.948-2.407 2.938-1.978-.01-2.406-.254-2.139-2.716.351-2.063.373-2.332 1.917-2.39zM198.414 41.109c2.778.072 2.778.492 2.516 2.277-.262 1.786-.576 2-2.883 2.026l-4.928.056c-1.363.016-1.468-.035-1.782 2.38-.315 2.415-1.049 3.315 2.568 3.326 3.618.01 3.723.271 3.513 2.004-.21 1.732-.787 2.053-2.202 2.017-1.415-.036-2.883-.02-3.617-.01-.734.007-.996.378-1.31 2.53-.315 2.154-.315 2.888 1.1 2.976 1.416.089 3.984.06 5.452.095s1.783.294 1.573 2.183c-.21 1.89-.315 2.1-2.569 2.127l-9.436.108c-1.625.02-1.94-.134-1.782-1.814.157-1.68 2.568-18.85 2.778-20.11.21-1.26.157-1.941 1.625-2.063 1.468-.122 7.235-.188 9.384-.108zM216.886 40.615c4.868.064 6.37 3.291 6.37 5.274s-.24 2.467-1.983 2.427c-1.743-.04-2.163-.216-2.103-1.238.06-1.022-.601-1.615-2.584-1.593-1.983.023-2.584.811-2.824 2.917-.24 2.106.6 2.757 2.764 2.793 2.163.035 5.889 1.133 5.468 7.027-.42 5.894-3.786 7.134-7.812 7.12-4.026-.013-6.069-3.415-6.008-4.918.06-1.503-.18-2.1 1.862-2.064 2.043.036 2.284.394 2.404 1.354.12.96.42 1.678 2.283 1.716 1.863.039 2.464-.87 2.704-2.554.24-1.686-.42-2.88-2.584-2.975-2.163-.095-5.948-.833-5.287-7.63.66-6.798 5.107-7.69 7.33-7.656zM239.72 40.352c4.867.064 6.37 3.291 6.37 5.274s-.24 2.467-1.983 2.427c-1.743-.04-2.164-.216-2.103-1.238.06-1.022-.601-1.615-2.584-1.593-1.983.023-2.584.811-2.824 2.917-.24 2.106.6 2.757 2.764 2.793 2.163.035 5.888 1.134 5.468 7.027-.42 5.894-3.786 7.134-7.812 7.12-4.026-.013-6.069-3.415-6.009-4.918.06-1.503-.18-2.1 1.863-2.064 2.043.036 2.283.394 2.404 1.354.12.96.42 1.678 2.283 1.716 1.863.039 2.464-.87 2.704-2.554.24-1.686-.42-2.88-2.584-2.975-2.163-.095-5.949-.833-5.288-7.63.661-6.798 5.108-7.69 7.331-7.656z" fill="#9cb77a"/><path d="M537.922 521.386c-10.454 2.525-9.88 2.694-85.067-25.001-38.734-14.268-72.07-26.915-74.08-28.105-2.011-1.19-5.13-3.647-6.935-5.46-1.803-1.813-3.44-3.385-3.636-3.492-.2-.106-2.434 3.05-4.972 7.014-16.723 26.126-43.014 48.586-73.054 62.407-42.527 19.568-88.476 21.513-132.556 5.613-35.118-12.667-64.868-36.233-86.322-68.378-7.125-10.677-18.256-34.811-21.467-46.55-8.292-30.302-9.284-58.015-3.12-87.199 2.175-10.294 11.315-34.998 16.364-44.23 14.433-26.388 34.854-48.37 60.76-65.407 8.731-5.741 34.205-17.179 44.968-20.19 50.103-14.016 100.038-6.678 143.75 21.124 43.883 27.91 73.91 77.679 78.887 130.749 1.018 10.86.721 27.598-.665 37.486-1.258 8.968-1.23 9.558.398 8.809.596-.274 4.11-.395 7.809-.269 6.137.21 12.984 2.548 78.24 26.72 62.281 23.068 72.048 26.947 75.636 30.04 23.247 20.04 14.622 57.178-14.936 64.317zm-246.68-43.642c35.47-24.313 56.717-64.576 56.7-107.446-.014-32.505-12.991-65.743-34.613-88.657-24.219-25.665-54.828-39.88-89.812-41.71-45.082-2.359-90.454 20.754-115.235 58.7-10.046 15.383-17.911 36.645-20.319 54.93-4.453 33.822 5.862 70.804 27.22 97.587 42.94 53.845 119.443 65.402 176.059 26.596z" fill="#c5c5c5"/></svg>