<svg xmlns="http://www.w3.org/2000/svg" width="3675.309" height="1491.127" viewBox="0 0 972.426 394.527"><path d="M456.667 360.356c-10.11.147-25.935.88-28.132.733-2.198-.147-46.45-82.201-46.45-82.201s36.632-19.488 40.588-17.73c3.957 1.758 36.192 23.737 36.192 23.737z" fill="#121212"/><path d="M408.46 280.793c-27.84.44-27.986.879-29.89 1.318-1.906.44 6.593 19.488 6.593 19.488zM406.279 394.2c-28.1.48-30.564.48-34.837-.322-4.272-.802-8.38-5.453-13.146-16.68-4.765-11.227-5.094-31.918-5.094-35.927 0-4.01 30.565-5.774 30.565-5.774z" fill="#0d0d0d"/><path d="M404.711 393.977c23.57-.871 28.817-32.211 28.76-63.787-.058-31.575-13.5-49.376-25.386-49.376s-29.789 11.655-31.55 53.615c-1.76 41.96 17.345 59.949 28.176 59.548z" fill="#151515"/><path d="M408.371 301.783c-12.742.15-18.576 20.38-18.73 34.016-.153 13.636 2.764 33.266 14.432 33.715 11.667.45 18.115-20.829 17.962-34.015-.154-13.187-1.996-33.716-13.664-33.716z" fill="#0f0f0f"/><path d="M406.635 301.933c-11.538 1.871-16.847 20.865-16.994 33.866-.127 11.293 1.852 26.697 9.164 31.913 3.542-2.358 10.14-6.556 12.407-6.664 3.147-.15-2.303-10.64-2.303-10.64l7.08-37.669c-5.002-3.435-8.004-9.004-9.354-10.806z" fill="#393939"/><path d="M412.115 311.647c8.468-.061 10.964 12.504 11.29 24.053.326 11.55-4.234 25.324-12.701 25.324-8.468 0-12.159-14.092-12.376-27.02-.217-12.926 7.704-22.312 13.787-22.357z" fill="#2d2d2d"/><path d="M413.975 319.016c-5.988.074-8.905 6.218-9.212 14.91-.307 8.69.691 18.206 5.45 18.356 4.76.15 9.212-7.568 9.442-17.457.23-9.89-1.535-15.735-5.68-15.81z" fill="#0d0d0d"/><path d="M406.635 301.933c-.709.115-1.394.295-2.056.534 3.001 6.957 4.83 7.642 6.016 7.273.564-.175.933-.435 1.155-.81-2.531-2.838-4.202-5.778-5.115-6.997zm-2.871.865c-1.228.55-2.373 1.305-3.434 2.233 1.55-1.04 2.734-1.794 3.434-2.233zm-6.473 5.637a28.48 28.48 0 00-1.877 3.03c1.214 2.592 5.006 5.318 6.822 3.732 1.92-1.676-1.988-6.56-4.945-6.762zm-4.171 14.852a6.41 6.41 0 00-2.048.378 62.484 62.484 0 00-.841 4.67c2.78 2.133 6.754 3.67 7.446.16.61-3.1-1.65-5.245-4.557-5.208zm-.21 17.743a9.545 9.545 0 00-3.148.548c.11 2.083.296 4.217.573 6.333 3.66.638 7.696-.363 6.962-3.946-.461-2.252-2.44-2.933-4.388-2.935zm6.09 14.966c-.257 0-.535.032-.835.101-2.26.523-4.234 1.59-5.514 2.18.623 1.799 1.363 3.462 2.228 4.932 2.291-1.021 4.523-2.175 5.512-2.98 1.475-1.2 1.079-4.227-1.392-4.233z" fill="#0f0f0f"/><path d="M403.05 324.68c-.108-1.907.38-2.384 1.249-2.437.868-.053 1.303.583 1.357 1.802.054 1.218 0 2.278-1.031 2.225-1.032-.053-1.575-.636-1.575-1.59z" fill="#252525"/><path d="M404.264 324.298c-.038-1.012.384-1.162 1.459-1.2 1.075-.036 1.151.488 1.19 1.162.038.675-.077 1.05-1.075 1.124-.998.075-1.497 0-1.574-1.086z" fill="#363636"/><path d="M400.77 335.965c-.108-1.907.38-2.384 1.25-2.437.868-.053 1.302.583 1.356 1.801.054 1.219 0 2.278-1.031 2.225-1.031-.053-1.574-.635-1.574-1.589z" fill="#252525"/><path d="M401.985 335.582c-.039-1.011.384-1.161 1.458-1.199 1.075-.037 1.152.488 1.19 1.162.038.674-.077 1.049-1.075 1.124-.998.075-1.497 0-1.573-1.087z" fill="#363636"/><path d="M401.912 347.715c-.12-2.094.417-2.617 1.37-2.676.954-.058 1.43.64 1.49 1.978.06 1.338 0 2.5-1.132 2.443-1.132-.058-1.728-.698-1.728-1.745z" fill="#252525"/><path d="M403.245 347.295c-.042-1.11.421-1.275 1.601-1.316 1.18-.041 1.264.534 1.306 1.275.042.74-.084 1.151-1.18 1.233-1.095.083-1.643 0-1.727-1.192z" fill="#363636"/><path d="M413.202 355.079c-.12-2.094.417-2.617 1.37-2.676.954-.058 1.43.64 1.49 1.978.06 1.338 0 2.501-1.132 2.443-1.132-.058-1.728-.698-1.728-1.745z" fill="#252525"/><path d="M414.535 354.659c-.042-1.11.421-1.275 1.601-1.316 1.18-.041 1.264.534 1.306 1.275.042.74-.084 1.151-1.18 1.234-1.095.082-1.643 0-1.727-1.193z" fill="#363636"/><path d="M418.141 348.033c-.119-2.094.418-2.618 1.371-2.676.953-.058 1.43.64 1.49 1.978.06 1.338 0 2.5-1.133 2.443-1.132-.059-1.728-.698-1.728-1.745z" fill="#252525"/><path d="M419.474 347.613c-.042-1.11.422-1.275 1.601-1.316 1.18-.042 1.264.534 1.307 1.275.042.74-.085 1.151-1.18 1.233-1.096.083-1.644 0-1.728-1.192z" fill="#363636"/><path d="M406.967 355.232c-.12-2.094.417-2.618 1.37-2.676.954-.058 1.43.64 1.49 1.978.06 1.337 0 2.5-1.132 2.442-1.132-.058-1.728-.698-1.728-1.744z" fill="#252525"/><path d="M408.3 354.811c-.042-1.11.421-1.275 1.601-1.316 1.18-.04 1.264.535 1.306 1.275.042.74-.084 1.152-1.18 1.234-1.095.082-1.643 0-1.727-1.193z" fill="#363636"/><path d="M420.204 336.801c-.12-2.094.417-2.617 1.37-2.675.954-.059 1.43.64 1.49 1.977.06 1.338 0 2.501-1.132 2.443-1.132-.058-1.728-.698-1.728-1.745z" fill="#252525"/><path d="M421.537 336.381c-.042-1.11.421-1.275 1.601-1.316 1.18-.041 1.264.535 1.306 1.275.042.74-.084 1.151-1.18 1.234-1.095.082-1.643 0-1.727-1.193z" fill="#363636"/><path d="M419.281 325.517c-.119-2.094.417-2.618 1.37-2.676.954-.058 1.431.64 1.49 1.978.06 1.337 0 2.5-1.132 2.442-1.132-.058-1.728-.697-1.728-1.744z" fill="#252525"/><path d="M420.614 325.096c-.042-1.11.421-1.274 1.601-1.316 1.18-.04 1.264.535 1.306 1.275.043.74-.084 1.152-1.18 1.234-1.095.082-1.643 0-1.727-1.193z" fill="#363636"/><path d="M414.559 317.729c-.12-2.094.417-2.618 1.37-2.676.954-.058 1.43.64 1.49 1.978.06 1.337 0 2.5-1.132 2.442-1.132-.058-1.728-.697-1.728-1.744z" fill="#252525"/><path d="M415.892 317.308c-.042-1.11.421-1.274 1.601-1.316 1.18-.04 1.264.535 1.306 1.275.042.74-.084 1.152-1.18 1.234-1.095.082-1.643 0-1.727-1.193z" fill="#363636"/><path d="M407.991 317.994c-.119-2.094.417-2.618 1.37-2.676.954-.058 1.431.64 1.49 1.978.06 1.337 0 2.5-1.132 2.442-1.132-.058-1.728-.698-1.728-1.744z" fill="#252525"/><path d="M409.324 317.573c-.042-1.11.421-1.275 1.601-1.316 1.18-.04 1.264.535 1.306 1.275.043.74-.084 1.152-1.18 1.234-1.095.082-1.643 0-1.727-1.193z" fill="#363636"/><path d="M754.655 292.645l41.206 8.76 10.951 33.677s-8.213 26.147.548 26.969c8.761.821 13.416 1.095 16.838.958 3.423-.137-2.327-42.027-2.327-42.027l-5.339-29.706-17.249-18.618-25.6.684z" fill="#121212"/><path d="M787.1 289.085c-26.148.137-28.338.137-31.897.41-3.56.275-4.244 39.838-.822 38.742 3.423-1.095 32.719-39.152 32.719-39.152z" fill="#0f0f0f"/><path d="M779.98 394.495c-39.454-.593-51.263-.787-59.2-1.561-7.938-.775-18.586-13.552-21.878-32.719-3.29-19.166 60.79-24.2 60.79-24.2z" fill="#0d0d0d"/><path d="M779.98 394.495c24.095 0 31.76-32.034 31.213-57.77-.547-25.736-8.761-47.366-25.189-47.64-16.427-.274-31.76 19.44-33.128 44.628-1.37 25.189 7.118 60.508 27.105 60.782z" fill="#151515"/><path d="M528.367 350.14c4.38 24.368 13.416 35.32 53.663 35.32s46.544-23.82 47.913-32.308c1.37-8.487-101.576-3.011-101.576-3.011zM155.081 334.466c.775 33.3 6.583 47.239 34.074 47.239 27.49 0 32.912-28.653 32.912-48.4s-66.986 1.161-66.986 1.161z" fill="#080808"/><path d="M348.911 359.621c-9.396 0-6.33-.049-7.893-.18-1.563-.13-2.345-.13-2.475-1.432-.13-1.303-.26-1.824-2.084-1.824s-67.091-.651-71.13-.782c-4.038-.13-12.115-.13-27.097-5.732-14.982-5.601-36.998-8.468-42.86-8.468-5.863 0 52.11-1.172 52.11-1.172l10.291 6.383.912-45.074 1.172-132.49.652-97.575 93.146 4.56.26 10.292z" fill="#101010"/><path d="M621.938 361.76c7.34 0 54.69.261 57.405.335 2.715.073-1.995-16.995-1.995-16.995l-55.263.807z" fill="#797979"/><path d="M676.468 346.861c-7.633 0-51.08-.293-53.429-.293-2.348 0-1.761-6.605-1.761-6.605l4.99-243.95 55.19 3.522z" fill="#191919"/><path d="M620.402 321.158c17.3.352 52.06.591 58.204.794 6.144.202 7.99 10.983-.264 10.99-8.254.008-51.384-.238-58.258-.598-6.873-.36.318-11.186.318-11.186z" fill="#c94d11"/><path d="M669.46 318.886c-.146 4.11-.146 4.55-3.963 4.697-3.816.146-39.3-.233-41.942-.673-2.642-.44-1.614-8.807-1.614-8.807s2.273-204.587 4.327-204.733c2.055-.147 38.726 1.068 42.69 1.215 3.963.147 4.256.44 4.256 4.403 0 3.963-3.607 198.173-3.754 203.898z" fill="#333"/><path d="M615.456 361.792c4.158-.008 4.721-.033 6.41-.033 1.687 0 1.834-.293 1.907-1.908.074-1.614 1.908-70.601 2.275-78.087.367-7.486 2.422-116.03 2.642-123.37.22-7.339.367-53.281.367-55.63 0-2.348.587-2.642 2.936-2.642 2.348 0 39.044 1.615 42.86 1.908 3.816.294 4.697 1.028 4.697 4.55 0 3.523-3.67 245.712-3.67 250.41 0 4.696-.261 5.113 4.302 5.102 3.596-.01 2.744-3.782 2.744-3.782l.42-128.774 1.038-136.588-62.274-2.076z" fill="#101010"/><path d="M680.844 239.868c.414-12.73 1.863-138.893 1.76-141.79-.104-2.899.31-3.52-3.83-3.726-4.14-.207-51.127-2.07-53.093-1.967-1.967.104-1.967.104-2.07 2.898-.104 2.794-.828 140.342-1.139 142.308-.31 1.966-11.28-.621-11.28-.621s-261.387 2.188-261.387-6.594 2.122-145.269 2.122-148.343c0-3.073 0-4.683-4.976-5.05-4.977-.365-78.526-3.951-81.307-3.951-2.781 0-5.562.146-6.147-.732-.586-.878 4.098-5.855 4.098-5.855l125.436 5.562 572.293 32.201-1.171 140.512z" fill="#181818"/><path d="M227.5 28.944l64.452 4.707s277.72 19.553 277.359 17.742c-.362-1.81-3.621-7.241-5.794-7.603-2.172-.363-208.019-12.13-208.019-12.13l-24.984-.363S227.68 21.702 227.5 28.944z" fill="#292929"/><path d="M301.928.53C348.143 2.45 426.745 6.675 441.34 7.7c14.594 1.024 87.564 6.912 103.054 8.577 15.49 1.664 22.66 4.352 26.244 13.57 3.584 9.217 3.84 11.905 4.096 14.081.256 2.177.128 2.56-3.072 2.433-3.2-.128-201.883-13.186-210.333-13.442-8.449-.256-13.374.227-15.45.4-1.46-.392 2.073-8.85 2.073-8.85l5.12-14.21z" fill="#a0a0a0"/><path d="M174.997 15.004C184.412 2.874 199.8 1.787 217.181.7c17.38-1.086 88.892-1.086 112.066 1.267 23.173 2.354 25.708 3.802 28.967 5.794 3.258 1.991 1.991 3.62-.906 6.698-2.896 3.078-8.418 10.863-8.87 14.665-.453 3.802-.544 4.254-3.893 4.254-3.35 0-18.92-1.629-29.872-2.353-10.954-.724-40.192-2.716-57.482-2.987-17.29-.272-45.713.362-49.515.452-3.802.09-32.679-13.487-32.679-13.487z" fill="#a8a8a8"/><path d="M208.343 36.468l-75.029-4.725L84.84 33.35l-33.924 1.89-4.819 49.325 20.505.567 137.584 1.323z" fill="#171717"/><path d="M9.881 207.465c-3.097-15.1-3.097-31.363-2.71-38.139.387-6.776 1.936-7.938 5.034-8.518 3.097-.581-2.324 46.657-2.324 46.657z" fill="#222"/><path d="M15.291 83.431c-.945 12.852-9.095 148.275-9.295 149.945-.2 1.67 2.327 1.504 2.327 1.504l158.49 7.35 79.513-.668 5.212-13.363-1.604-139.114-70.826-2.406z" fill="#3e3e3e"/><path d="M206.736 47.335c-16.82-.284-144.481-.85-148.167-.85-3.685 0-3.874.283-4.063 2.834-.189 2.551-1.606 23.53-1.606 25.797 0 2.268-.378 3.307 1.795 3.402 2.174.094 144.576 1.795 147.789 2.079 3.213.283 4.252-33.262 4.252-33.262z" fill="#212121"/><path d="M176.934 78.548c.364 0 .777-.007 1.278-.023 2.005-.067 2.773-.902 3.14-2.973.368-2.072.435-5.079.335-8.754-.1-3.675-2.105-4.81-4.845-4.944-2.74-.134-2.772-.468-2.806-1.704-.033-1.236.1-6.18.167-7.015.067-.836.936-.836 2.44-.736 1.503.1 2.07.134 2.003.97-.067.834.1 1.302 1.637 1.369 1.537.067 1.604-.134 1.738-2.138.133-2.005-.602-3.608-5.346-4.01-4.744-.4-5.412 1.337-5.679 4.812-.267 3.474-.668 17.439-.468 20.846.2 3.408.267 4.244 3.475 4.244 1.202 0 1.841.056 2.931.056zm-.96-3.498c-2.004 0-2.071-.334-2.105-1.536-.033-1.203.033-4.644.134-6.048.1-1.403.367-1.57 1.837-1.636 1.47-.067 2.105-.1 2.172 1.536.066 1.637 0 5.012-.1 6.248-.1 1.236-.401 1.403-1.938 1.436zM188.117 48.675c-.754 0-1.513.026-2.26.085-1.77.141-2.506 1.07-2.673 3.341-.167 2.272-.535 21.015-.568 22.952-.034 1.938.835 3.341 2.572 3.441 1.738.1 2.44.234 4.978.134 2.54-.1 3.575-1.403 3.775-3.675.2-2.272.635-19.277.535-22.016-.1-2.74.067-3.9-2.706-4.11a47.964 47.964 0 00-3.653-.152zm.678 3.56c2.272-.035 2.035.368 2.084 2.372.049 2.005-.243 16.203-.326 18.007-.083 1.804-.052 2.072-2.257 2.072s-2.335-.334-2.355-1.838c-.02-1.503.522-17.773.633-19.01.112-1.235.249-1.573 2.221-1.603zM200.946 48.713c1.656 0 1.8.072 1.87 1.222.069 1.15-.267 20.768-.27 22.35-.005 1.58.21 2.012.859 2.012.648 0 1.009-.144 1.003 2.012-.005 2.156-.222 2.587-1.375 2.587-1.152 0-5.33-.072-6.555-.216-1.224-.144-1.151-.503-1.003-2.3.149-1.796.366-2.299 1.519-2.299 1.152 0 1.513-.144 1.588-1.437.075-1.294.464-12.936.468-14.445.004-1.509.22-1.796-1.58-1.94-1.801-.144-1.8-.288-1.725-1.869.076-1.58.51-2.155 1.014-2.227.504-.072.938-.432 1.95-1.725 1.01-1.294.796-1.725 2.237-1.725z" fill="#98bd65"/><path d="M56.565 34.562L22.087 38.17l-4.009 18.442-1.07 27.261s30.87 2.406 31.405-.133c.535-2.54 5.613-38.487 8.152-49.178zm150.339 3.207c-2.54 11.226-7.617 45.169-7.617 47.173 0 2.005 48.777 3.475 48.777 3.475l.801-39.423-9.22-9.22z" fill="#1e1e1e"/><path d="M89.941 26.357l-62.554 5.48-7.466 6.332s-2.929 17.009-3.118 20.127c-.189 3.119-1.228 20.884-1.417 24.569-.19 3.685-.19 3.969 3.874 3.969 4.063 0 42.144-.095 58.303 0 16.158.094 101.392 2.456 116.7 2.834 15.308.378 47.625 1.795 50.177 1.89 2.55.094 2.645.378 2.645 2.74 0 2.363-.378 46.302-.283 55.09.094 8.788.661 66.146.378 74.84-.284 8.693-.85 12.473-3.497 13.796-2.645 1.323-8.599 1.606-17.576 1.228-8.977-.378-137.583-3.685-147.316-4.252-9.733-.567-69.5-2.93-71.863-3.07-2.362-.143-2.645.33-3.165 1.7-.52 1.37-.33 1.795.047 2.74.378.945.567 1.087.426 3.449l95.627 4.063 142.498 3.686 12-7.56.662-188.61-1.796-15.119-77.768-7.087zm24.85 9.245a1553.3 1553.3 0 017.751.016c41.388.189 98.746 4.441 111.408 6.236 12.662 1.796 12.663 10.678 12.946 17.387.284 6.709.19 23.34.095 24.852-.095 1.512-.095 1.7-2.835 1.512-2.74-.19-12.757-.661-20.41-.85-7.655-.19-83.723-1.796-108.575-2.458-24.851-.661-90.997-.472-94.021-.472-3.024 0-3.308.095-2.835-3.307.283-6.048 1.418-22.112 2.362-27.592.945-5.481 1.512-10.962 10.395-12.474 8.327-1.417 45.058-2.835 83.72-2.85z" fill="#0d0d0d"/><path d="M261.161 242.08c-.144-.084-.72.969-3.476.818-3.675-.2-7.35 1.671-7.35 1.671l-17.64 8.486-36.348 11.693-47.775.066-102.297-4.209-28.064-3.608-8.418-7.417-4.677-2.071 7.149 12.228 28.798 6.214 12.829 31.604-41.76-2.338S.103 292.744.036 294.014c-.066 1.27.2 2.806.334 5.546s46.576 1.964 46.576 1.964l183.696 5.291s29.435 4.347 29.435 3.072c0-1.276.047-3.733-.054-6.084l-34.745-.835-46.973-1.07-22.25-.4 11.96-23.387 6.147-8.352 18.442-.802 36.75-10.49 18.575-9.622 10.022-3.608s3.308 1.136 3.308.501c0-.635.033-1.637-.033-3.107-.017-.367-.017-.522-.066-.55zM44.43 264.667l125.196 3.138-2.023 4.743-14.717 28.666-94.995-2.86-12.485-27.55z" fill="#1f1f1f"/><path d="M257.48 306.009c2.835.07 2.598.098 2.598 2.082 0 1.984-.898 36.333-1.087 38.223-.189 1.89-.094 2.268-2.362 2.551-2.268.284-7.087-.472-12-1.228-4.914-.756-23.057-5.292-49.894-6.237-26.836-.945-126.622-6.425-156.67-6.425-30.05 0-34.954 3.005-35.622.466C1.775 332.9.639 316.464.37 309.582c-.267-6.882 0-9.22.067-10.624.067-1.403.468-1.87 3.14-1.87 2.673 0 45.436 2.605 54.39 2.873 8.953.267 86.93 2.74 95.415 3.073 8.486.334 58.399 1.86 70.025 2.138 11.36.273 22.71.559 34.071.837z" fill="#d65212"/><path d="M38.275 317.56c.258.007.468.112.468.437 0 .1-.009.2-.029.275l-.132.745c-.087.484-.155.807-.633.793l-.707-.022.392-2.248zm-2.946 3.72l2.869.086c.824.025 1.378-.197 1.646-.95.19-.544.469-2.172.469-2.584 0-.836-.536-1.04-.833-1.149.737-.127 1.006-.368 1.187-1.063.067-.26.219-1.08.219-1.567 0-1.423-1.119-1.456-2.066-1.485l-1.941-.058zm3.463-7.129c.267.008.546.017.546.455 0 .076-.011.15-.02.225l-.105.585c-.105.582-.345.662-.727.65l-.583-.017.344-1.914zM43.01 314.816l-.773 4.347c-.06.311-.089.485-.089.634 0 .338.184.493.365.498.411.013.535-.62.613-1.054l.773-4.399 1.54.046-1.186 6.659-1.53-.046.114-.696c-.238.318-.611.806-1.3.786-.373-.011-1.005-.206-1.005-1.241 0-.125.01-.388.077-.748l.852-4.832z" fill="#fff"/><path d="M51.134 304.391l-36.973-1.105-4.833-.144v13.876c0 3.469 2.175 6.373 4.833 6.453h.023l36.95 1.105z"/><path d="M46.56 319.331c-.048.197-.106.434-.106.659 0 .348.22.43.382.435.048.001.173.005.278-.08.181-.155.22-.492.22-.667 0-.25-.077-.352-.192-.48-.143-.167-.957-.953-.974-.979-.356-.372-.565-.741-.565-1.253 0-.386.143-.957.258-1.229.277-.64.927-.958 1.76-.934 1.004.03 1.78.566 1.78 1.59 0 .237-.04.461-.077.684l-1.444-.043a3.22 3.22 0 00.083-.534c0-.05-.007-.376-.38-.387-.46-.014-.46.611-.46.637 0 .237.105.364.297.559.01.013.477.45.536.515.65.606.976.915.976 1.638 0 .413-.134 1.159-.393 1.563-.248.392-.775.763-1.675.736-.726-.021-1.04-.205-1.185-.297-.489-.302-.707-.709-.707-1.358 0-.312.057-.558.113-.819z" fill="#fff"/><path d="M14.46 317.632c-.075.373-.18.92-.18 1.13 0 .576.402.588.486.59a.507.507 0 00.489-.261c.135-.221.23-.804.23-1.053 0-.3-.095-.465-.354-.748-.134-.142-.202-.206-.641-.656-.746-.747-.986-.992-.986-1.815 0-.676.316-1.889.604-2.381.172-.28.45-.734 1.645-.699 1.213.037 2.027.449 2.027 1.708 0 .35-.066.724-.171 1.294l-1.55-.046c.047-.261.142-.745.142-.945 0-.411-.268-.508-.429-.512a.448.448 0 00-.449.286c-.135.246-.202.793-.202.968 0 .4.105.502.67 1.07 1.234 1.247 1.388 1.515 1.388 2.25 0 .176-.02.35-.049.525-.24 1.74-.756 2.536-2.391 2.487-.88-.027-2.105-.275-2.105-1.786 0-.449.105-.959.202-1.455zM19.837 314.895c.469-.834 1.196-.876 1.376-.871.355.01.9.215.967.954.374-.601.9-.91 1.502-.892.373.011 1.052.206 1.052 1.18 0 .2-.027.387-.055.573l-.91 5.105-1.55-.046.841-4.72c.01-.088.02-.161.02-.25 0-.26-.106-.526-.392-.535-.422-.012-.517.521-.555.745l-.842 4.732-1.56-.047.852-4.794c.019-.086.03-.161.03-.236 0-.313-.164-.517-.403-.524-.316-.009-.497.285-.575.718l-.85 4.808-1.531-.046 1.176-6.657 1.541.046zM28.982 316.493c.048-.249.086-.497.086-.747 0-1.175-.909-1.49-1.789-1.516-.536-.016-1.023.083-1.378.31-.468.298-.583.682-.802 1.837l1.455.043c.141-.67.22-.968.648-.955.164.005.412.037.412.387 0 .1-.067.522-.114.783-1.79.622-2.248.782-2.564 1.246-.315.466-.518 1.636-.518 2.046 0 1.213.91 1.24 1.015 1.243.603.018 1.033-.457 1.378-.834l-.134.694 1.74.052c-.076-.1-.143-.166-.143-.464 0-.1.02-.2.028-.3zm-2.02 3.022c-.16.184-.361.39-.63.381-.258-.008-.335-.196-.335-.421 0-.125.067-.835.317-1.09.18-.182.62-.342.965-.47zM31.287 315.813c.421-1.037.738-1.266 1.54-1.404l-.382 1.85c-.107-.015-.21-.018-.316-.022-.842-.025-.994.446-1.215 1.662l-.573 3.241-1.512-.045 1.185-6.657 1.513.045zM34.195 312.427l1.503.045-.383 2.124.678.02-.22 1.193-.668-.02-.623 3.466a2.64 2.64 0 00-.039.385c0 .35.192.355.622.368l-.22 1.267c-1.34-.04-2.038-.061-2.038-1.059 0-.212.03-.374.088-.645l.708-3.827-.614-.019.21-1.192.623.019z" fill="#f1682f"/><path d="M260.024 303.803c0 1.67.1 1.603-1.704 1.536-1.804-.066-12.863-.167-17.673-.334-4.811-.167-28.665-.802-34.11-1.002-5.446-.2-21.249-.835-26.56-.969-5.313-.133-21.55-.468-23.554-.468-2.004 0-2.439-.167-1.904-1.436.535-1.27 14.9-28.899 15.97-30.369 1.068-1.47 2.806-2.873 3.474-3.173.668-.301 1.203-.268 2.906-.301 1.704-.034 11.252.739 18.15-.584 6.898-1.323 21.923-4.867 30.285-8.41 8.363-3.544 19.04-8.363 22.962-10.914 3.922-2.552 4.583-2.882 8.694-2.93 4.11-.047 4.346-.047 4.3 1.087-.048 1.134-1.149 56.151-1.236 58.267z" fill="#9b9b9b"/><path d="M170.221 266.953c2.94.063 2.74.367 1.37 1.503s-1.871 1.871-2.907 3.775c-1.035 1.905-14.132 27.362-14.8 28.665-.668 1.303-.868 1.37-2.238 1.336-1.37-.033-46.472-1.603-52.686-1.77-6.214-.167-39.088-1.236-40.224-1.236-1.136 0-1.442-.112-1.891-1.01-.449-.897-8.508-19.025-9.43-21.033-.92-2.008-3.705-9.748-3.94-11.165-.237-1.418-.072-1.725.353-2.221.426-.496 1.276-.496 2.103-.472.827.023 39.12 1.523 42.853 1.582 4.467.071 79.72 2.009 81.437 2.046z" fill="#989898"/><path d="M251.715 229c-1.37 9.732-1.937 16.725-14.032 16.536-12.095-.189-117.22-2.977-134.323-3.449-17.104-.472-93.266-3.496-96.195-3.78-2.93-.283-2.835.142-2.93 1.37-.094 1.229-.141 3.591-.33 4.489-.19.898-.237-.142 1.89 3.496 2.126 3.638 4.069 7.758 14.934 10.883 14.884 4.28 23.712 3.558 41.723 3.96 17.395.387 34.742 1.156 39.556 1.277 9.545.24 65.844 2.306 71.466 2.495 5.623.19 14.174.804 20.978-.472 6.803-1.276 15.119-3.024 24.332-6.331 9.213-3.307 25.947-11.25 27.931-12.432 1.985-1.181 6.56-6.656 6.56-6.656z" fill="#9b9b9b"/><path d="M6.916 272.01c-2.843.587-3.791 1.264-4.197 3.43-.407 2.167-.993 7.718-1.084 9.569-.09 1.85 1.472 3.561 4.721 4.013 3.25.451 5.84.184 5.84.184l.272-16.88z" fill="#d18c25"/><path d="M40.027 263.211c2.342.163 2.484.6 2.75 2.234.305 1.865 2.01 7 3.547 10.642 1.537 3.642 9.299 20.733 9.8 21.87.5 1.135-.27 1.121-1.339 1.02-1.07-.1-26.284-1.355-30.159-1.589-3.875-.234-21.21-1.184-22.985-1.303-1.8-.12-1.637-.601-1.637-1.236s.067-4.076.167-4.878c.1-.801.701-1.47 2.873-1.403 2.172.067 5.345.109 6.481.175 1.136.067 1.57.167 1.67-.634.101-.802.468-12.954.502-13.856.033-.902.234-1.303-1.17-1.437-1.403-.133-6.092-.432-7.528-.646-1.421-.212-1.692-.507-1.726-2.043-.033-1.537.368-19.41 1.103-22.885.735-3.475 1.37-4.377 2.071-5.145.626-.686 1.07-.134 1.136 1.603.067 1.738.586 6.84 4.143 10.09 3.875 3.541 12.23 8.163 30.301 9.421z" fill="#969696"/><path d="M953.455 347.504c12.42-3 14.49-5.07 15.11-9.314.621-4.244 3.83-43.572 3.83-45.953 0-2.38.517-2.69-2.691-3.001-3.209-.31-11.488-.725-6.313-1.76 5.174-1.035-7.866.518-7.866.518z" fill="#757575"/><path d="M873.188 46.849c-28.4-1.172-33.285-1.172-41.101 4.169-7.817 5.341-12.832 13.874-13.093 15.177-.26 1.302 36.347 1.824 36.347 1.824z" fill="#858585"/><path d="M842.11 69.082c4.974-13.081 15.844-22.477 27.635-22.293 11.79.184 84.38 4.79 89.907 5.711 5.527.922 6.264.737 7 9.212.738 8.475.185 16.581-.552 16.581-.737 0-123.99-9.211-123.99-9.211z" fill="#7b7b7b"/><path d="M232.818 28.008c31.158 1.444 167.582 11.068 186.59 12.27 19.007 1.204 180.093 9.745 192.243 10.587 12.151.843 209.809 12.873 224.365 14.076 14.557 1.203 120.063 6.737 126.68 8.18 6.616 1.444 7.217 3.73 7.578 10.707.361 6.978 1.805 198.981 1.685 201.267-.12 2.286 1.924 2.887-5.895 3.008-7.82.12-7.94-.602-8.18 2.406-.241 3.007-1.324 50.888-1.444 53.294-.12 2.406-.12 3.008-3.128 3.73-3.008.721-74.588 12.631-78.678 13.473-4.09.842-11.43 1.564-20.091 1.805-8.662.24-29.354.24-32.362.24-3.007 0-2.646-.721-2.646-2.766 0-2.046.481-25.625-1.444-38.858-1.925-13.234-9.383-46.437-28.873-46.918-19.489-.482-32 27.429-34.166 43.79-2.165 16.361-2.406 28.872-2.646 35.369-.24 6.496.481 8.662-3.369 8.902-3.85.24-64.924-.459-67.986-.459-3.063 0-3.063-.255-3.233-3.147-.17-2.893 2.8-117.8 3.14-121.032.34-3.233 1.539-3.166 4.771-3.166 3.233 0 265.07 8.677 269.152 8.677 4.084 0 4.084-.68 4.084-4.084 0-3.402 1.53-126.92 1.36-130.152-.17-3.233-.51-3.403-3.912-3.573-3.403-.17-686.661-37.6-689.894-37.43-3.232.17-4.593 1.021-4.934 4.934-.34 3.914-6.835-45.345-28.767-45.13z" fill="gray"/><path d="M227.038 19.733c-4.288-4.097-7.617-5.377-27.075-6.849-19.459-1.472-49.35-1.152-56.968-.64-7.617.512-10.69 2.368-12.29 3.713z" fill="#dbdbdb"/><path d="M234.207 29.59c-1.408-2.688-1.91-6.62-1.91-8.612 0-1.991.272-2.444-3.077-2.625-3.35-.181-42.817-2.897-61.102-3.168-18.286-.272-40.554-.272-42.908-.09-2.353.18-2.263 2.805-2.263 4.797 0 1.991-.271 2.625.996 2.715 1.267.09 25.437.906 25.437.906l66.986 4.345z" fill="#d3d3d3"/><path d="M260.124 243.533c1.102 0 1.136-.033 1.136-1.136 0-1.102-.379-52.282-.379-57.479 0-5.197.813-125.233 1.08-136.993.268-11.76 1.07-16.437-9.621-17.773-10.691-1.336-69.09-7.884-103.033-7.884s-60.536.801-88.199 2.539c-27.662 1.737-37.818 2.271-40.758 6.548-2.94 4.276-3.341 12.561-3.876 20.446-.534 7.884.134 16.437 1.337 5.345 1.202-11.091 1.87-21.248 10.156-23.653 8.285-2.406 70.425-3.742 100.226-4.143 29.8-.4 95.148 5.212 108.511 6.816 13.364 1.603 16.17 11.626 16.037 27.93-.134 16.303-.261 150.356-.936 161.03-.735 11.625-.534 15.568-4.677 19.243-4.143 3.674-4.152 4.928-.668 2.873 6.371-3.758 6.214-3.742 13.664-3.709z" fill="#8d8d8d"/><path d="M234.612 45.256c3.403.155 3.874.945 3.969 3.59.094 2.646.117 7.788-.028 10.728-.135 2.72-.342 2.886-3.43 2.999-2.675.098-3.91.083-6.004-.007-1.975-.085-2.73-.21-2.872-2.576-.159-2.656-.14-8.97-.045-11.049.094-2.079.283-3.307 2.268-3.496 1.984-.19 3.308-.318 6.142-.19z" fill="#c4c4c4"/><path d="M235.462 63.493c2.648.03 3.119.19 3.308 2.363.189 2.173.283 9.543.094 11.339-.189 1.795-.661 2.551-2.835 2.74-2.173.19-4.063.19-6.142.095-2.079-.095-3.024-.19-3.307-2.174-.284-1.984-.095-10.678 0-12.095.094-1.417.651-2.017 2.268-2.079 1.79-.068 3.957-.218 6.614-.189z" fill="#d18c25"/><path d="M32.365 41.928c-3.403.198-3.868.987-3.943 3.608-.075 2.621-.06 7.713.107 10.621.154 2.692.363 2.854 3.452 2.924 2.675.06 3.91.03 6.003-.088 1.975-.11 2.729-.245 2.853-2.588.14-2.632.074-8.884-.035-10.941-.11-2.057-.308-3.271-2.294-3.432-1.985-.16-3.31-.27-6.143-.104z" fill="#c4c4c4"/><path d="M31.648 59.997c-2.647.064-3.117.229-3.29 2.383-.173 2.155-.214 9.454-.012 11.229.202 1.775.68 2.517 2.855 2.675 2.175.158 4.065.133 6.143.012 2.078-.122 3.022-.228 3.291-2.197.27-1.968.017-10.574-.088-11.976-.105-1.402-.667-1.988-2.283-2.028-1.791-.044-3.96-.163-6.616-.098z" fill="#d18c25"/><path d="M618.003 233.522c4.609 0 4.353.128 4.48 3.456.129 3.329-2.816 115.216-3.2 119.824-.384 4.609-.128 4.865-2.816 4.993-2.689.128-157.845-1.408-160.662-1.28-2.816.128-2.56-1.408-2.688-3.84-.128-2.433.128-26.884-.512-35.845-.64-8.962-4.225-23.684-10.754-36.613-6.529-12.93-15.746-17.155-25.731-17.667-9.986-.512-19.459 6.657-27.14 22.531-7.68 15.874-10.753 33.669-11.265 45.83-.512 12.162-.64 17.667-.64 20.74 0 3.072 0 3.84-2.945 3.84-2.944 0-22.53.128-25.22.128-2.688 0-2.304-1.664-2.304-4.097 0-2.432 1.624-52.23 1.752-62.6.128-10.37 1.193-60.168 1.32-63.369.129-3.2.257-4.096 3.585-3.968 3.329.128 258.34 7.809 264.74 7.937z" fill="gray"/><path d="M361.187 216.703c-.386 0-.686-.56-.67-1.251l.25-10.481c.016-.691.342-1.252.728-1.252h1.83c.776 0 1.43.465 1.893 1.344.438.833.663 1.984.633 3.242-.06 2.551-1.251 4.55-2.71 4.55h-1.164l-.061 2.597c-.017.69-.343 1.251-.73 1.251zm1.945-6.13c.735 0 1.29-.953 1.321-2.268.027-1.114-.289-2.305-1.253-2.305h-1.06l-.109 4.574z" fill="#dcdcdc" fill-rule="evenodd"/><path d="M367.811 215.452c-.016.691.283 1.252.67 1.252.385 0 .712-.56.728-1.252l.221-9.34h1.328c.369 0 .68-.536.696-1.197.016-.66-.27-1.196-.64-1.196h-4.052c-.37 0-.681.536-.697 1.196-.015.66.27 1.196.64 1.196h1.327l-.221 9.34" fill="#dcdcdc"/><path d="M377.776 206.275c.305-.233.528-.768.542-1.39.015-.624-.182-1.16-.477-1.392l-5.935-4.673c-.348-.273-.766.02-.934.654-.168.635-.023 1.37.325 1.645l4.782 3.764-4.96 3.765c-.361.274-.542 1.01-.404 1.645s.542.928.903.654l6.158-4.672" fill="#d92b26"/><path d="M375.167 196.555c-.052 1.655-.259 1.604-1.294 1.604-1.035 0-2.846-.104-3.83-.104-.982 0-1.034.052-1.655 1.139-.621 1.086-.983 1.138-1.708.155-.724-.983-.62-1.397-1.76-1.449-1.138-.052-2.742-.052-3.932-.207s-1.19-.57-1.242-1.449c-.052-.88.259-22.614.362-24.063.104-1.449.621-1.708 1.76-1.76 1.138-.051 11.177.156 12.367.26 1.19.103 1.45.569 1.45 1.862 0 1.294-.518 22.51-.518 24.012z" fill="#9eb13c"/><path d="M356.072 90.626c.13-7.037-.127-7.27 5.296-7.193 6.036.086 92.589 3.777 96.248 4.363 3.66.585 3.806 1.903 3.806 4.976 0 3.074-1.989 122.235-1.989 125.016 0 2.781-1.17 3.66-4.244 3.66s-92.461-2.817-96.413-2.963c-3.952-.147-3.66-.586-3.806-3.074-.146-2.488.986-118.496 1.102-124.785zM468.573 217.202c0 4.14.103 4.657 4.14 4.761 4.036.103 87.558 2.69 89.628 2.69 2.07 0 2.794-.62 3.001-3 .207-2.38.414-123.369.31-125.749-.103-2.38-.413-3.312-4.036-3.519-3.622-.207-85.178-4.14-88.386-3.933-3.208.207-3.83.828-4.036 3.726-.207 2.898-.725 120.988-.621 125.024zM574.346 97.042c.104-3.415.621-3.725 3.105-3.622 2.484.104 38.294 2.07 40.778 2.38 2.484.31 2.38 1.035 2.38 3.416 0 2.38-1.242 122.643-1.242 124.713 0 2.07-.414 2.588-2.897 2.691-2.484.104-34.879-.931-38.501-1.138-3.623-.207-4.554-.414-4.554-3.312 0-2.898.828-121.402.931-125.128zM688.643 102.89c.062-3.804.732-3.951 3.513-3.951 2.78 0 37.177 2.195 39.958 2.342 2.78.146 3.22 1.317 3.366 4.537.147 3.22-.93 116.682-1.076 120.049-.146 3.366-.06 3.192-3.865 3.192s-37.546-.937-39.45-1.059c-4.056-.259-4.427-.436-4.375-4.52.033-2.634 1.845-115.465 1.929-120.59zM743.238 107.72c-.147-4.83 1.17-6 5.562-5.708 4.39.293 69.67 3.367 72.451 3.66 2.781.292 2.781 1.756 2.781 4.976 0 3.22-.44 79.038-.878 82.844-.44 3.805-.293 4.976-4.83 5.122-4.538.147-65.28-1.61-69.817-1.902-4.537-.293-5.416-.879-5.562-5.123-.146-4.245.44-77.72.293-83.868zM832.375 113.575c.146-5.415-.732-6.732 2.78-6.586 3.514.146 63.963 3.074 68.647 3.366 4.683.293 5.562.732 5.708 4.977.146 4.244-1.025 51.52-1.317 57.376-.293 5.854-.878 7.61-6.44 7.61s-58.84-1.756-63.523-2.049c-4.684-.292-6.44-1.17-6.44-5.854s.585-49.911.585-58.84zM917.231 117.638c.104-5.588.828-5.589 4.968-5.382 4.14.207 24.425 1.45 27.944 1.863 3.519.414 4.14.828 4.14 5.382 0 4.554-.207 53.198-.414 57.751-.207 4.554-1.45 5.175-6.003 5.382-4.554.207-21.113-.207-25.253-.414-4.14-.207-6.831 0-6.624-6.21.207-6.21 1.138-52.78 1.242-58.372z" fill="#3b3b3b"/><path d="M336.98 344.981c-3.127-.03-69.045-1.172-71.912-1.172-2.866 0-3.517 0-3.517-3.648 0-3.647 3.778-251.56 3.908-255.207.13-3.648.391-3.908 2.215-3.908 1.824 0 75.29 3.908 77.764 4.038 2.476.13 3.388.391 3.388 3.909 0 3.517-5.463 250.576-5.723 254.034-.195 2.588-4.17 1.973-6.123 1.954z" fill="#191919"/><path d="M304.5 315.859c0 2.736-.391 3.127 2.215 3.257 2.605.13 26.054.912 28.53.912 2.475 0 2.735-.26 3.126-3.127.391-2.866 2.908-140.885 3.038-149.483.13-8.598 1.712-65.182 1.712-68.439 0-3.257 0-4.299-2.866-4.56-2.866-.26-27.322-1.41-29.667-1.41-2.345 0-2.866 1.042-2.866 3.778 0 2.736-3.352 215.164-3.222 219.072zM296.124 314.817c-.13 3.908-.521 3.778-2.605 3.778-2.085 0-21.626-.782-24.622-.912-2.997-.13-3.908-.13-3.908-3.778s3.076-214.1 3.206-218.268c.13-4.17 1.303-4.56 3.908-4.43 2.606.13 21.626 1.043 24.752 1.303 3.127.26 3.127 1.694 3.127 4.169 0 2.475-3.597 212.536-3.858 218.138z" fill="#333"/><path d="M162.774 49.789c1.498.048 1.837.193 1.86.99.025.798-.386 1.04-.87 1.04-.483 0-.628-.073-.628.942s-.048 6.647-.024 7.348c.024.7.17.942.822.966.652.025.942.049.942.846 0 .798.025 1.16-.749 1.16-.773 0-4.544-.024-5.269-.072-.725-.048-.797-.483-.773-1.208.024-.726.145-.895.7-.919.557-.024.798-.193.847-.725.048-.532.169-7.106.145-7.662-.024-.555-.218-.628-.822-.676-.604-.049-.797-.073-.75-1.088.05-1.015.17-1.04.726-1.04.556 0 2.465.073 3.843.098zM71.302 48.31c1.921.073 2.311 1.088 3.098 2.32.787 1.233 1.606 1.528 2.852-.031 1.247-1.56 1.335-1.999 2.604-1.962 1.269.036 1.558.108 1.586 1.087.028.98.053 10.37.045 11.24-.007.87-.298.979-1.785 1.015-1.487.036-1.777 0-1.84-1.051-.063-1.052.078-4.678.05-5.584-.029-.906-.173-.979-.5-.979-.326 0-.848 1.632-1.428 1.668-.58.036-1.218-1.668-1.798-1.704-.58-.036-.69.109-.732.797-.043.69-.007 4.968-.052 5.802-.043.833-.08.87-1.712.906-1.632.036-1.847-.218-1.876-1.015-.029-.798.129-10.478.173-11.421.045-.943.155-1.088 1.315-1.088zM86.687 48.809c-2.05-.026-3.932 1.102-4.098 2.486-.166 1.385-.385 5.846-.196 7.692.188 1.846 1.305 3.23 3.996 3.282 2.692.051 3.985-1.257 4.228-2.641.243-1.385.404-5.128.242-7.179-.161-2.05-.762-3.64-4.172-3.64zm.213 2.05c.692.026.818.206.812.898-.006.693-.032 6.538-.088 7.102-.056.564-.135.795-.725.82-.59.026-.813-.128-.832-.846-.02-.718.049-6.358.08-7.025.032-.666.086-.897.752-.948zM91.712 50.74c.092-1.725.215-1.886 1.743-1.862 1.528.024 1.838.883 2.793 2.124.955 1.242 1.886 1.504 1.981.048.096-1.456.263-1.838 1.003-1.838.74 0 1.36.072 2.053.215.692.143.883.573.86 1.695-.025 1.122.047 9.023.023 10.002-.024.978-.167 1.36-1.934 1.384-1.766.024-2.076-.19-2.124-.907-.048-.716 0-2.196 0-2.864 0-.669.048-1.122-.979-2.077-1.026-.955-1.408-1.552-1.456-.334-.048 1.217-.167 4.702-.143 5.442.024.74-.501.669-2.005.716-1.504.048-1.88-.07-1.886-.93-.023-3.604-.119-7.216.071-10.814zM106.981 48.9c-2.153.06-3.696 1.085-3.81 3.869-.068 1.67-.239 8.02-.239 8.737 0 .716.573.954 2.005.954s1.67.048 1.719-.668c.047-.716.023-2.96.07-3.676.048-.716.049-1.241.67-1.241.62 0 .544.667.524 1.384-.024.837-.023 2.1-.023 3.008 0 .907 0 1.145 1.719 1.145 1.718 0 1.718-.094 1.766-1.05.048-.954.143-5.872 0-8.02-.143-2.149-.765-4.347-3.963-4.44a7.682 7.682 0 00-.438-.001zm.396 2.209c.433 0 .53.288.53 1.899 0 1.61-.025 1.61-.746 1.586-.48 0-.48.001-.457-1.706.025-1.707.24-1.78.674-1.78zM116.562 49.065c3.053.096 4.063 1.9 4.063 2.981 0 1.082-.529 1.082-1.298 1.082-.77 0-1.226-.024-1.731-.144-.505-.12-.025-1.78-.842-1.803-.817-.024-.817.408-.913 1.803-.097 1.394-.169 1.803 1.538 1.9 1.707.095 3.607 1.778 3.559 4.063-.049 2.284-1.203 3.846-4.016 3.774-2.813-.072-4.351-1.923-4.375-3.221-.024-1.299.216-1.227 1.635-1.155 1.418.073 1.586.41 1.562 1.106-.024.698.073 1.154.674 1.227.6.072.89.144.985-1.683.096-1.828.12-2.164-1.803-2.333-1.923-.168-3.27-1.346-3.27-3.726s1.611-3.895 4.232-3.871zM123.63 49.281c1.731.048 1.972.289 1.924 2.837-.048 2.549-.145 2.886.336 2.886s.674.192.722-2.453c.048-2.644.288-2.981 2.02-2.981 1.73 0 2.019.433 2.019 1.539 0 1.106-.096 9.232-.145 10.194-.048.961-.144 1.298-1.923 1.298-1.78 0-2.02-.192-2.02-1.106v-3.462c0-.529.027-.855-.38-.855-.409 0-.545.204-.579.884-.034.68-.034 3.23-.068 3.808-.034.578-.068.714-2.142.68-2.074-.034-1.836-.306-1.904-.952-.068-.646.136-10.336.204-11.186.068-.85.166-1.139 1.936-1.13zM146.795 51.284c.091-1.725.215-1.886 1.742-1.862 1.528.024 1.838.883 2.793 2.124.955 1.242 1.886 1.504 1.982.048.095-1.456.262-1.838 1.002-1.838s1.36.072 2.053.215c.692.143.883.573.86 1.695-.024 1.122.047 9.023.023 10.002-.024.978-.167 1.36-1.933 1.384-1.767.024-2.077-.19-2.125-.907-.048-.716 0-2.196 0-2.864 0-.669.048-1.122-.979-2.077-1.026-.955-1.408-1.552-1.456-.334-.047 1.217-.167 4.702-.143 5.442.024.74-.501.669-2.005.716-1.504.048-1.88-.07-1.886-.93-.023-3.604-.119-7.216.072-10.814zM143.946 49.45c1.667-.042 1.934.024 1.982 1.088.048 1.063-.097 7.565-.193 8.725-.097 1.16-1.185 3.915-4.23 3.94-3.045.024-3.915-1.547-4.06-3.868-.145-2.32-.073-8.241-.049-9.063.024-.822.314-.75 1.33-.773 1.015-.025 1.957-.025 1.981.483.025.507 0 8.773.025 9.474.024.701.217 1.112.725 1.112.507 0 .749-.411.797-.991.049-.58.282-8.87.314-9.474.04-.747.318-.626 1.378-.653zM88.069 63.963c2.918.097 3.883 1.9 3.883 2.983 0 1.083-.505 1.083-1.24 1.083-.736 0-1.173-.024-1.655-.144-.483-.12-.023-1.78-.804-1.805-.782-.024-.782.41-.873 1.805-.092 1.395-.161 1.804 1.47 1.9 1.631.096 3.447 1.78 3.4 4.066-.045 2.285-1.148 3.85-3.836 3.777-2.689-.072-4.16-1.925-4.182-3.224-.023-1.299.206-1.227 1.562-1.154 1.356.072 1.517.409 1.494 1.106-.024.698.069 1.155.643 1.227.574.072.85.144.942-1.684.092-1.828.115-2.165-1.723-2.333-1.838-.169-3.125-1.348-3.125-3.73 0-2.381 1.54-3.897 4.044-3.873zM94.824 64.18c1.655.048 1.884.289 1.838 2.839-.046 2.55-.138 2.887.322 2.887s.643.192.69-2.454c.045-2.647.275-2.983 1.93-2.983 1.654 0 1.93.433 1.93 1.54 0 1.106-.092 9.237-.138 10.2-.046.962-.138 1.299-1.839 1.299-1.7 0-1.93-.193-1.93-1.107v-3.464c0-.53.026-.856-.364-.856s-.52.204-.552.885c-.033.68-.033 3.232-.065 3.81-.033.579-.065.715-2.047.68-1.983-.033-1.755-.305-1.82-.952-.065-.646.13-10.343.195-11.193.065-.85.159-1.14 1.85-1.131zM109.493 63.943c1.667-.043 1.933.024 1.981 1.087.049 1.064-.096 7.565-.193 8.725-.097 1.16-1.184 3.916-4.23 3.94-3.045.024-3.915-1.547-4.06-3.867-.145-2.32-.073-8.242-.048-9.064.024-.821.314-.749 1.329-.773 1.015-.024 1.958-.024 1.982.483.024.508 0 8.774.024 9.475.024.7.218 1.111.725 1.111.508 0 .75-.41.798-.99.048-.58.282-8.871.314-9.475.04-.747.317-.625 1.377-.652zM120.394 64.17c1.61.003 1.56.437 1.61 1.217.048.781-.293.927-1.318.976-1.024.049-1.871.244-1.871 1.22 0 .975 0 7.22-.049 8.196-.049.975-.031 1.414-1.69 1.463-1.658.049-1.658-.341-1.658-1.463s.048-7.27.048-8.099c0-.829-.209-1.28-1.575-1.329-1.366-.049-1.4-.232-1.45-1.061-.048-.83.293-1.218 1.22-1.217 2.245.002 4.489.094 6.733.097zM131.565 64.268c1.61.002 1.561.436 1.61 1.217.049.78-.292.927-1.317.976-1.024.048-1.872.244-1.872 1.22 0 .975 0 7.22-.048 8.195-.05.976-.031 1.415-1.69 1.464-1.659.048-1.659-.342-1.659-1.464 0-1.122.05-7.269.05-8.098 0-.83-.21-1.28-1.576-1.33-1.366-.048-1.4-.231-1.45-1.06-.048-.83.293-1.219 1.22-1.218 2.244.003 4.488.094 6.732.098zM136.361 64.337c1.69.07 1.966.173 2 1.829.035 1.655.07 5.795.035 6.485-.034.69-.172 1 2.105 1.035 2.276.034 2.38.345 2.449 2.104.069 1.76-.173 2.07-.828 2.139-.656.069-5.278-.035-6.554-.07-1.277-.034-1.518-.068-1.587-1.345-.07-1.276.103-10.348.172-11.142.07-.793.242-1 2.208-1.035zM150.711 64.2c1.208.034 1.346.31 1.346 1.103 0 .794-.345 1.173-1.139 1.173-.793 0-1.414-.034-2.414-.034-1 0-1.07.207-1.139 1.724-.069 1.518 0 2.001 1.622 2.105 1.62.103 1.724.38 1.724 1.207 0 .828-.345.931-1.759.931s-1.483.276-1.518 1.622c-.034 1.345-.069 1.587 1.725 1.621 1.794.035 2.76-.069 2.76.966s-.104 1.518-1.518 1.552c-1.414.035-4.76-.034-5.657-.103-.897-.07-1.035-.138-1.104-.828-.07-.69.069-10.694.138-11.798.069-1.104.138-1.242 1.103-1.31.966-.07 4.864 0 5.83.068z" fill="#98bd65"/><path d="M108.5 247.315c-24.226-.676-25.188-.917-26.256-.176-1.64 1.138-2.044 1.84-2.094 6.265l-.057 5.151 25.141.7c24.25.674 25.185.672 26.363-.061 1.615-1.006 2.108-1.476 2.01-6.093l-.062-5.088z" fill="#e1e1e1" paint-order="fill markers stroke"/><path d="M132.362 249.74l-17.936-.483-17.868-.48-.094 8.473 10.417.292 22.66.632c.844.013.999-.016 1.622-.237.448-.159.798-.334 1.014-.817.122-.273.11-.564.11-.564l.037-3.408zm-18.392 1.343c.092.003.205.013.353.025.375.032.703.099.844.173.328.17.747.648.93 1.058.139.312.155.428.15 1.07-.006.616-.029.774-.156 1.08-.188.452-.644.905-1.088 1.08-.45.176-1.207.154-1.643-.048-.421-.196-.824-.63-1.019-1.095-.141-.34-.16-.468-.156-1.083.004-.569.03-.757.136-1.012.197-.471.54-.843.99-1.072.289-.146.381-.186.659-.176zm7.794.288c.316.01.673.042.943.094.463.088.747.289.944.666.136.263.146.84.018 1.17-.086.224-.444.578-.58.574-.16-.004-.003.408.512 1.35.21.382.235.558.09.616-.153.062-.57.033-.696-.048-.063-.04-.277-.429-.474-.864-.396-.872-.464-.966-.67-.94-.136.019-.142.045-.18.873-.04.84-.043.855-.193.898-.224.064-.382.055-.5-.027-.098-.067-.104-.245-.083-2.164l.023-2.092.157-.062c.1-.04.374-.054.69-.044zm-2.168-.055c.057.003.127.02.214.041l.289.068-.02 1.612c-.017 1.38-.034 1.642-.124 1.824-.183.368-.425.632-.73.798-.239.129-.386.157-.768.146-.413-.012-.513-.041-.786-.227-.683-.465-.8-.887-.778-2.817l.016-1.396.165-.066a.786.786 0 01.387-.017l.221.048.037 1.584.036 1.583.208.203c.28.275.541.33.832.178.432-.227.477-.403.517-2.014.033-1.322.037-1.562.284-1.548zm5.373.154c.125.003.248.022.338.058.166.067.267.194.494.622.157.297.379.696.492.888.113.192.313.545.444.784.131.24.263.437.293.438.03 0 .06-.114.067-.256l.06-1.32.05-1.062.364.01.364.01-.024 2.162-.024 2.162-.446-.013c-.536-.015-.43.111-1.415-1.687-.387-.708-.728-1.27-.757-1.251-.03.02-.06.645-.069 1.39-.01.962-.036 1.378-.089 1.435-.11.12-.57.087-.685-.048-.086-.102-.093-.342-.056-2.127.028-1.412.062-2.035.112-2.09.067-.072.28-.11.487-.105zm-18.722-.51a.753.753 0 01.292.046l.164.075-.019 1.71c-.017 1.496-.007 1.715.077 1.754.052.025.388.053.746.063.426.012.676.047.723.102.079.092.095.58.02.627-.083.054-1.986.052-2.172-.003l-.181-.052.008-2.139.008-2.138.231-.037a.82.82 0 01.103-.01zm3.734.108c1.126.034 1.519.361 1.51 1.17-.004.368-.027.444-.197.655l-.192.239.276.346c.264.33.277.366.273.746-.006.57-.147.826-.583 1.06-.327.177-.41.191-1.122.188-.424-.002-.865-.027-.982-.056l-.212-.053.008-2.134.008-2.135.685-.023c.191-.006.367-.008.528-.003zm-5.825-.16c.231.006.427.017.533.031.326.043.392.075.434.208a.761.761 0 01.002.35l-.048.194-.755-.004c-1.08-.006-1.038-.027-1.022.489l.013.427.786.041c.452.024.82.074.865.119.1.098.098.584-.003.654-.042.028-.432.058-.867.065l-.79.013-.023.461c-.028.557-.085.526 1.075.582l.82.04.015.3c.01.167-.007.326-.034.355-.028.029-.628.058-1.335.065-1.222.013-1.288.007-1.338-.117-.03-.072-.032-1.06-.007-2.196l.046-2.065.891-.016c.245-.004.511-.003.742.004zm-6.655-.183l.485.033c.327.023.516.068.576.138.05.057.263.639.473 1.292.211.654.418 1.202.459 1.219.081.033.072.055.607-1.462.287-.814.394-1.045.493-1.07.07-.018.332-.018.582 0l.455.033-.008 2.113c-.008 2.363.031 2.182-.477 2.187l-.293.003-.03-1.202a57.426 57.426 0 00-.047-1.409l-.016-.206-.103.237c-.057.131-.22.59-.363 1.02-.458 1.383-.506 1.494-.663 1.534-.255.065-.422-.034-.524-.313-.053-.144-.191-.573-.307-.954-.306-1.003-.448-1.418-.498-1.454-.058-.043-.132.906-.143 1.827-.005.404-.033.75-.064.771-.031.02-.181.053-.334.073-.208.026-.286.01-.31-.062-.016-.053-.013-1.053.009-2.222zm33.085.933c.896.02.9.063.899.403-.002.399-.007.4-.91.375-.566-.015-.855.002-.905.057-.1.109-.101.703-.002.8.045.044.412.095.864.118l.786.041.016.302c.009.166-.015.335-.053.376-.04.043-.405.08-.87.086l-.803.013-.023.417c-.015.29.003.442.06.498.05.049.42.096.958.123l.877.044.015.301c.01.166-.007.324-.034.352-.066.067-2.179.076-2.45.01l-.212-.051.007-2.09c.004-1.149.03-2.114.058-2.145.029-.03.604-.047 1.28-.037l.441.007zm-16.324.258c-.533-.03-1.068.357-1.261 1.097-.072.275-.07.367.02.708.132.504.32.79.642.98.657.389 1.497.016 1.695-.752.036-.14.068-.427.07-.64.005-.323-.027-.442-.189-.722-.25-.434-.613-.65-.977-.671zm7.793.29c-.122 0-.221.015-.263.053-.099.089-.144.817-.057.922.064.077.778.014.976-.087.214-.109.267-.505.093-.69-.104-.11-.48-.194-.749-.197zm-12.169-.336a.633.633 0 00-.208.015c-.111.037-.129.096-.133.439-.002.217.014.416.036.442.108.127.926-.007 1.035-.17.114-.17.105-.397-.02-.528-.09-.095-.453-.186-.71-.198zm.368 1.797c-.062-.003-.128-.004-.202-.003l-.491.006-.024.44c-.016.303.001.458.056.502.043.036.28.055.528.043.523-.025.696-.151.7-.51.004-.325-.14-.455-.567-.478z" fill="#f77d3d"/><path d="M81.426 256.781s.011-1.488.03-3.104c0 0 .025-1.971.032-2.938.009-.468.045-.78.316-1.218.37-.597.628-.758 1.159-1.012.3-.144.664-.128.664-.128l5.96.166 6.024.168s-.026 2.701-.048 4.063c-.023 1.497-.022 2.943-.071 4.396l-6.987-.196-7.08-.197zm4.676-1.715c.166-.045.231-.346.162-.742l-.048-.276-.999-.097c-.608-.059-1.054-.134-1.14-.191-.224-.151-.308-.493-.3-1.221.013-1.198.124-1.296 1.504-1.33.501-.011.934-.045.96-.073.028-.028.044-.25.037-.491l-.014-.44-1.275-.035c-1.19-.034-1.293-.026-1.522.105-.313.18-.561.45-.717.783-.112.239-.123.377-.117 1.508.006 1.22.009 1.251.167 1.536.228.41.642.76 1.041.88.222.067 2.073.136 2.261.084zm3.18-.053c.376-.177.728-.524.866-.854.096-.23.116-.46.128-1.46.016-1.303-.007-1.42-.364-1.866-.394-.491-.53-.533-1.931-.602l-1.26-.061-.007.511-.006.511.901.065c.925.066 1.23.152 1.403.398.07.099.088.33.08 1.041-.01.89-.015.919-.168 1.086-.175.19-.835.338-1.117.25l-.158-.05.012-1.053c.01-.824-.007-1.072-.073-1.137-.051-.05-.238-.079-.47-.073l-.385.01-.035 1.604c-.025 1.202-.015 1.63.04 1.709.064.088.247.105 1.17.104.928-.001 1.138-.021 1.374-.132zm4.965.265c.056-.038.076-.196.067-.53l-.013-.474-.88-.075c-1.004-.086-1.301-.167-1.407-.386-.049-.102-.071-.462-.065-1.056.008-.786.024-.92.124-1.041.184-.222.489-.286 1.435-.305l.886-.018.005-.48.005-.48-1.173-.052c-.664-.03-1.273-.024-1.404.012-.315.087-.703.404-.909.743-.165.272-.172.32-.204 1.316-.039 1.223.02 1.628.3 2.057.406.621.75.748 2.15.792.552.017 1.039.007 1.083-.023z" fill="#045cb7"/><rect transform="skewX(-1.091) scale(1 .99982)" ry="2.193" rx="1.89" y="247.462" x="164.754" height="15.732" width="13.557" fill="#023398" paint-order="fill markers stroke"/><path d="M165.033 249.323c-.302 0-.506.108-.727.385-.302.379-.335.937-.083 1.393l.138.25.119 2.295c.065 1.262.132 2.372.15 2.465l.031.17 1.635.03 1.635.027.629 1.79c.346.984.647 1.823.669 1.864.022.041.066.064.097.05l.915-.444c.472-.23.87-.452.885-.493.028-.08-.106-.503-.2-.628-.047-.063-.149-.03-.588.19-.292.146-.548.244-.57.218-.022-.026-.315-.801-.652-1.723s-.634-1.708-.66-1.747c-.038-.054-.404-.07-1.527-.07-1.084 0-1.493-.019-1.535-.069-.077-.092-.067-.555.013-.562a53.23 53.23 0 011.04 0c.54.003 1.009-.016 1.044-.042.046-.034.063-.17.058-.469l-.007-.42-1.1-.016c-.605-.008-1.115-.034-1.134-.057-.019-.023-.06-.498-.093-1.055-.06-1.02-.046-1.174.11-1.174.123 0 .435-.314.531-.535.114-.261.143-.67.066-.924-.117-.381-.522-.7-.89-.7zm-.965 4.601c-.124 0-.681.46-.987.816a4.114 4.114 0 00-.833 1.542c-.116.386-.139.557-.15 1.136-.013.586.002.745.106 1.136.35 1.323 1.163 2.225 2.358 2.617.378.124 1.426.075 1.838-.086.715-.28 1.555-1.052 1.866-1.717l.142-.303-.205-.564c-.113-.31-.229-.573-.257-.584-.03-.012-.082.102-.117.251-.163.69-.675 1.418-1.24 1.762-1.452.883-3.155.054-3.58-1.741-.093-.391-.08-1.129.026-1.564.148-.61.403-1.002 1.042-1.603.114-.107.129-.156.113-.369-.045-.632-.062-.729-.122-.729z" fill="#edf0f4"/><path d="M176.589 278.846c7.181.056 8.463 5.33 8.416 9.313-.057 4.713-3.086 8.977-8.921 8.81-5.836-.17-7.126-5.5-6.79-10.1.337-4.6 3.143-7.855 7.295-8.023z" fill="#838383"/><path d="M179.001 281.483c3.367.112 4.825 2.3 4.994 5.274.168 2.973-.954 6.508-4.77 6.676-3.815.169-4.88-3.478-4.825-6.396.056-2.917 1.29-5.554 4.601-5.554z" fill="#dcdcdc"/><path d="M196.45 278.79c7.182.056 8.464 5.33 8.416 9.313-.056 4.713-3.085 8.977-8.92 8.809-5.836-.168-7.126-5.498-6.79-10.1.337-4.6 3.142-7.854 7.294-8.023z" fill="#838383"/><path d="M198.863 281.427c3.366.112 4.825 2.3 4.994 5.274.168 2.973-.954 6.508-4.77 6.676-3.815.169-4.88-3.478-4.825-6.396.056-2.917 1.29-5.554 4.601-5.554z" fill="#dcdcdc"/><path d="M211.564 297.519l33.375.237v-16.885l-32.74-.397z" fill="#d18c25"/><path d="M213.403 294.461c-.056 1.878.336 2.27 1.597 2.298 1.261.028 25.898.28 27.468.225 1.57-.056 1.625-.337 1.653-1.234.028-.896.224-12.472.224-13.117 0-.644-.168-1.149-1.401-1.12-1.233.027 1.43-.814 1.43-.814s1.737-.98 3.7-.925c1.961.057 2.55.197 2.522 1.122-.028.925-.197 15.695-.28 16.564-.085.869-.085 1.177-1.486 1.233-1.401.056-41.482-.784-41.986-.869-.505-.084-.392-1.373.28-1.681.673-.309 6.279-1.682 6.279-1.682z" fill="#a7a7a7"/><path d="M206.816 279.718c1.037-.616 3.616-.56 5.83-.532 2.214.028 33.493.56 35.567.616 2.074.057 1.626 1.178-.784 1.57-2.41.392-8.801.112-13.286.056-4.484-.056-18.218-.336-19.17-.28-.954.056-1.556.28-1.613 1.681-.056 1.402-6.544-3.11-6.544-3.11z" fill="#7e7e7e"/><path d="M206.508 280.812c.032-1.57.84-1.57 2.746-.785 1.906.785 4.064 1.765 4.092 2.606.028.841.14 11.492.028 12.305-.112.812-.112 1.177-1.205 1.457s-3.055.995-4.344 1.275c-1.29.28-1.556.224-1.542-.56.096-5.312.115-10.989.225-16.299z" fill="#969696"/><path d="M34.92 291.664c6.161.268 6.965-4.108 6.965-9.287 0-5.18-2.5-7.77-6.251-8.038-3.751-.268-6.698 3.75-6.877 8.841-.178 5.09 2.59 8.395 6.162 8.484z" fill="#838383"/><path d="M37.564 276.388c-3.473.127-4.799 2.716-4.925 5.936-.127 3.22 1.705 5.747 4.294 5.936 2.589.19 4.483-2.084 4.61-5.115.126-3.031-.569-6.63-3.979-6.757z" fill="#dcdcdc"/><path d="M18.308 290.503c6.163.268 6.966-4.108 6.966-9.287 0-5.18-2.5-7.77-6.251-8.038-3.751-.268-6.698 3.75-6.877 8.841-.178 5.09 2.59 8.395 6.162 8.484z" fill="#838383"/><path d="M22.219 275.441c-3.726.063-4.862 2.842-4.925 6.062-.064 3.22 1.641 6.252 4.546 6.315 1.256.027 2.169-.407 2.832-1.249.484-1.527.602-3.382.602-5.354 0-2.328-.507-4.132-1.404-5.438a4.57 4.57 0 00-1.651-.336z" fill="#dcdcdc"/><path d="M518.115 65.522c0 2.965 0 5.692.118 7.353.119 1.66.475 2.372 2.965 2.49 2.481.119 441.904 24.042 449.32 24.457-.033-2.826-.063-5.346-.092-7.482-14.598-.858-270.954-15.554-274.478-15.789-3.558-.237-.534-1.008-.534-1.008z" fill="#db5412"/><path d="M408.957 53.058c-12.784-.025-17.55 12.484-18.152 21.745l43.392 2.353c1.426-8.724 7.392-14.579 17.386-14.125 10.436.475 242.645 13.402 244.661 13.52 2.017.12 1.78 0 1.898-3.676.119-3.677 0-3.558-2.135-3.795-2.134-.237-272.53-15.536-286.407-16.01a20.045 20.045 0 00-.643-.012z" fill="#1d1d1d"/><path d="M912.49 80.874c2.726-3.972 5.038-1.245 3.26 2.312-1.779 3.556-2.55 4.801-2.964 5.69-.415.89-.178 1.126.533 2.668.711 1.54 1.897 3.675 2.43 5.394.534 1.719-.652 4.564-2.134 2.49-1.481-2.075-3.853-6.521-4.742-8.714-.889-2.193-.415-2.55.178-3.735s2.49-4.683 3.438-6.105zM918.773 85.735c1.6.059 1.896 1.719 1.778 3.793-.119 2.075-1.008 2.905-1.897 2.905-.89 0-1.66-1.008-1.6-3.26.059-2.253.414-3.38 1.719-3.438zM924.76 86.15c1.6.059 1.896 1.718 1.778 3.793-.119 2.075-1.008 2.905-1.897 2.905-.89 0-1.66-1.008-1.6-3.26.059-2.253.414-3.38 1.719-3.439zM930.806 86.446c1.6.06 1.897 1.719 1.778 3.794-.118 2.074-1.008 2.904-1.897 2.904s-1.66-1.008-1.6-3.26c.059-2.253.415-3.379 1.719-3.438z" fill="#181818"/><path d="M263.909 313.286c-.226 0-.393 0-.498.006-.478.023-.988.481-1.493 1.233-.153 10.352-.253 17.28-.301 20.85 6.457.474 16.974.476 21.934.636 1.302.042 6.078-.172 12.246-.505l.398-20.965c-15.553-.707-29.245-1.244-32.286-1.255zm40.465 1.637l-.388 20.117c14.078-.837 31.44-2.025 39.408-2.808.102-4.093.217-8.838.366-15.124-8.595-.64-24.186-1.463-39.386-2.185zm45.182 9.467l-.097 5.316c.48-1.42.4-3.38.097-5.316z" fill="#c94d11"/><path d="M347.805 314.627c-.167 5.753-.335 11.38-.508 17.129 5.463-1.044 21.336-2.624 30.901-3.393.398-3.86 1.023-8.06 1.917-12.437zm104.327 1.948c.217 1.52.38 2.954.473 4.255.15 2.106.25 5.083.318 8.415 50.444 1.14 111.67 2.63 123.127 2.779 8.53.11 26.332.22 44.034.32.136-4.706.274-9.54.424-14.96zm226.538 2.77c-.123 4.936-.225 9.24-.328 13.598 7.044.254 15.012.564 16.626.479 2.413-.127 3.049-.382 3.049-3.177s.127-2.922.127-9.529z" fill="#db5412"/><path d="M262.086 303.158l-.173 11.658c5.827.169 19.55.642 34.255 1.134l.231-12.186c-14.595-.302-28.28-.562-34.313-.606zm42.5.777l-.237 12.286c15.352.506 30.778.988 39.404 1.152l.294-12.554c-6.245-.15-22.7-.527-39.461-.884zm45.314 1.661l-.127 6.936c.877-2.643 1.434-5.622.127-6.936z" fill="#141414"/><path d="M852.627 240.167c-.255 15.966-.712 34.592-1.252 46.22-.949 20.392-9.485 25.608-18.97 25.845-3.742.094-9.542.038-16.036-.062a125.2 125.2 0 011.722 9.256c.106.725.203 1.486.294 2.267 12.327.07 28.928.158 43.422.158 23.474 0 24.185-14.227 25.371-25.845.963-9.438.987-34.521.581-56.695l-35.132-1.144zm-504.549 64.747c-.103 3.824-.221 8.008-.353 12.519 9.544.177 20.667.373 31.984.56a127.555 127.555 0 013.002-12.507c-16.288-.257-29.421-.47-34.633-.572zm102.03 1.617c1.168 4.585 1.943 8.836 2.323 12.388 35.188.438 101.412 1.332 167.97 2.239.108-3.854.214-7.768.326-11.865-18.576-.426-100.115-1.678-170.62-2.762zm228.79 3.846c-.1 3.946-.2 7.843-.292 11.575 27.842.38 55.62.759 75.868 1.033.177-1.528.366-3.082.578-4.686.28-2.117.737-4.429 1.356-6.846-21.84-.27-51.622-.682-77.51-1.076z" fill="#1d1d1d"/><path d="M892.357 249.012c7.013-10.094 12.62-3.722 7.992 5.23-4.628 8.95-6.617 12.103-7.7 14.337-1.083 2.234-.505 2.784 1.18 6.465 1.686 3.681 4.52 8.751 5.753 12.892 1.233 4.14-1.878 11.27-5.454 6.385-3.575-4.886-9.233-15.462-11.325-20.718-2.093-5.255-.892-6.19.65-9.173 1.543-2.984 6.463-11.806 8.904-15.418zM907.736 260.083c3.983-.068 4.629 3.96 4.218 9.058-.41 5.1-2.672 7.251-4.886 7.37-2.215.118-4.078-2.248-3.805-7.775.273-5.527 1.222-8.333 4.473-8.653zM922.625 260.301c3.983-.068 4.628 3.96 4.218 9.058-.411 5.1-2.672 7.251-4.887 7.37-2.214.118-4.078-2.248-3.804-7.775.273-5.526 1.221-8.333 4.473-8.653zM937.668 260.221c3.983-.068 4.628 3.959 4.217 9.058-.41 5.1-2.671 7.251-4.886 7.37-2.215.118-4.078-2.248-3.805-7.775.274-5.527 1.222-8.334 4.474-8.653z" fill="#252525"/><path d="M589.915 257.177l-3.618 27.425c-.276 1.962-.413 3.057-.421 3.993-.018 2.13.78 3.097 1.572 3.12 1.804.053 2.381-3.94 2.742-6.676l3.62-27.747 6.744.198-5.541 42.002-6.708-.197.54-4.391c-1.06 2.017-2.723 5.115-5.744 5.027-1.632-.048-4.392-1.237-4.339-7.755.006-.789.064-2.443.377-4.715l3.983-30.483zM605.24 285.401c-.22 1.244-.485 2.737-.497 4.155-.018 2.195.946 2.697 1.651 2.718.214.006.759.022 1.223-.52.805-.986.995-3.11 1.004-4.214.013-1.569-.324-2.213-.819-3.007-.618-1.05-4.146-5.952-4.222-6.11-1.54-2.321-2.436-4.637-2.41-7.861.02-2.431.676-6.034 1.193-7.752 1.25-4.051 4.116-6.093 7.765-5.985 4.399.129 7.77 3.453 7.718 9.902-.012 1.496-.192 2.909-.37 4.314l-6.33-.186c.13-.773.389-2.503.396-3.365.003-.319-.013-2.367-1.647-2.415-2.018-.06-2.05 3.876-2.051 4.036-.012 1.495.443 2.29 1.272 3.504.043.083 2.069 2.807 2.325 3.211 2.817 3.778 4.231 5.708 4.194 10.26-.022 2.6-.646 7.303-1.803 9.864-1.11 2.486-3.437 4.854-7.38 4.738-3.183-.094-4.555-1.23-5.18-1.8-2.13-1.877-3.067-4.423-3.033-8.51.016-1.965.279-3.523.54-5.166z" fill="#fff" stroke="#242424" stroke-width="1.205"/><path d="M464.6 276.61c-.35 2.352-.838 5.804-.85 7.128-.029 3.625 1.734 3.677 2.101 3.688.883.025 1.64-.427 2.156-1.675.602-1.4 1.049-5.074 1.062-6.647.015-1.889-.393-2.922-1.514-4.689-.578-.883-.872-1.284-2.775-4.091-3.23-4.661-4.273-6.188-4.23-11.374.035-4.254 1.484-11.912 2.771-15.03.771-1.776 2.013-4.65 7.248-4.496 5.32.156 8.866 2.705 8.8 10.636-.017 2.203-.329 4.561-.818 8.156l-6.795-.2c.223-1.645.666-4.697.676-5.956.022-2.59-1.148-3.181-1.853-3.202-1.345-.04-1.857 1.368-1.985 1.83-.604 1.556-.929 5.009-.938 6.108-.02 2.518.436 3.156 2.88 6.695 5.35 7.784 6.01 9.46 5.972 14.09a28.98 28.98 0 01-.241 3.308c-1.138 10.978-3.446 16.016-10.614 15.805-3.858-.113-9.21-1.603-9.132-11.12.023-2.828.509-6.044.957-9.174zM488.31 259.056c2.101-5.28 5.292-5.592 6.082-5.569 1.556.046 3.936 1.301 4.19 5.948 1.67-3.805 3.992-5.78 6.628-5.704 1.638.049 4.605 1.235 4.555 7.374-.01 1.258-.142 2.432-.274 3.605l-4.256 32.204-6.793-.2 3.935-29.768c.051-.56.096-1.02.1-1.58.014-1.642-.436-3.307-1.689-3.344-1.85-.054-2.293 3.313-2.473 4.722l-3.936 29.851-6.839-.2 3.986-30.247c.085-.54.137-1.013.14-1.487.017-1.97-.69-3.241-1.738-3.272-1.383-.04-2.194 1.824-2.556 4.555l-3.98 30.329-6.708-.197 5.503-41.999 6.754.199zM528.324 268.572c.225-1.567.403-3.136.416-4.705.06-7.401-3.907-9.329-7.765-9.442-2.349-.07-4.492.584-6.058 2.03-2.066 1.91-2.591 4.33-3.612 11.617l6.377.187c.653-4.223 1.011-6.11 2.89-6.055.718.021 1.806.209 1.788 2.416-.005.629-.321 3.289-.54 4.934-7.88 4.024-9.9 5.06-11.307 8.002-1.406 2.951-2.356 10.33-2.377 12.917-.063 7.634 3.926 7.752 4.388 7.765 2.643.078 4.55-2.94 6.082-5.336l-.624 4.384 7.627.224c-.328-.63-.617-1.04-.601-2.92.005-.629.093-1.256.137-1.884zm-9.009 19.155c-.717 1.17-1.608 2.471-2.782 2.437-1.133-.034-1.464-1.216-1.452-2.634.006-.785.34-5.264 1.45-6.878.8-1.162 2.734-2.196 4.253-3.018zM538.464 264.151c1.9-6.554 3.3-8.013 6.826-8.927l-1.773 11.667c-.466-.087-.919-.1-1.385-.114-3.689-.108-4.377 2.864-5.41 10.539l-2.683 20.445-6.625-.195 5.542-41.997 6.627.194zM551.39 242.658l6.584.194-1.788 13.4 2.974.087-1.025 7.52-2.932-.086-2.91 21.865c-.089.696-.182 1.724-.188 2.431-.018 2.198.82 2.223 2.705 2.278l-1.026 7.99c-5.872-.172-8.933-.262-8.881-6.543.01-1.336.146-2.358.415-4.07l3.303-24.144-2.69-.08.985-7.52 2.725.08z" fill="#df5612" stroke="#242424" stroke-width="1.205"/><path d="M569.013 274.735c1.128.033 2.045.68 2.028 2.733-.005.629-.05 1.253-.14 1.729l-.621 4.703c-.404 3.05-.72 5.088-2.813 5.027l-3.1-.091 1.833-14.184zm-13.11 23.61l12.573.369c3.61.106 6.054-1.323 7.267-6.082.86-3.437 2.168-13.708 2.189-16.299.043-5.267-2.298-6.522-3.594-7.185 3.24-.845 4.429-2.38 5.26-6.766.305-1.642 1.014-6.813 1.04-9.882.073-8.962-4.829-9.106-8.979-9.228l-8.51-.25zm15.55-45.101c1.17.034 2.392.07 2.37 2.829-.004.478-.056.942-.1 1.42l-.49 3.689c-.491 3.672-1.546 4.189-3.219 4.14l-2.558-.076 1.607-12.073z" fill="#fff" stroke="#242424" stroke-width="1.205"/><path d="M373.817 234.891c7.144-10.083 13.304-3.717 8.66 5.224-4.642 8.941-6.659 12.09-7.74 14.321-1.083 2.232-.452 2.78 1.455 6.458 1.908 3.677 5.079 8.741 6.52 12.877 1.44 4.136-1.648 11.257-5.602 6.377-3.955-4.88-10.3-15.444-12.69-20.693-2.388-5.25-1.14-6.183.408-9.163 1.547-2.98 6.504-11.793 8.989-15.4z" fill="none" stroke="#cfcfcf" stroke-width="2.545"/><path d="M390.627 246.41c4.402-.077 5.116 4.428 4.661 10.133-.454 5.704-2.952 8.112-5.4 8.245-2.448.132-4.507-2.515-4.205-8.698.302-6.184 1.35-9.324 4.944-9.681zM407.082 246.653c4.401-.076 5.115 4.43 4.66 10.134-.453 5.704-2.952 8.112-5.4 8.245-2.447.132-4.506-2.515-4.204-8.698.302-6.184 1.35-9.324 4.944-9.68zM423.707 246.563c4.401-.076 5.115 4.43 4.66 10.134-.453 5.705-2.952 8.112-5.4 8.245-2.447.132-4.506-2.515-4.204-8.698.302-6.183 1.35-9.324 4.944-9.68z" fill="none" stroke="#cfcfcf" stroke-width="2.745"/><path d="M790.607 239.346c-23.284-.636-24.21-.971-25.229.111-1.563 1.661-1.944 2.679-1.944 9.05v7.418l24.163.659c23.308.635 24.206.62 25.33-.453 1.541-1.47 2.01-2.154 1.866-8.8l-.113-7.326z" fill="#e1e1e1" paint-order="fill markers stroke"/><path d="M813.561 242.507l-17.239-.446-17.173-.445v12.202c2.896.081 5.796.162 10.012.278 21.65.592 21.701.595 21.779.595.812.007.96-.037 1.556-.364.43-.235.764-.491.966-1.19.115-.395.1-.813.1-.813v-4.908zm-17.657 2.19c.088.004.197.015.34.03.36.041.676.133.812.237.317.242.725.924.905 1.511.137.448.154.614.155 1.54.001.886-.019 1.114-.138 1.556-.176.654-.61 1.313-1.033 1.57-.43.26-1.159.24-1.58-.047-.407-.275-.799-.894-.99-1.562-.14-.487-.159-.671-.162-1.557-.003-.818.02-1.09.12-1.46.184-.68.51-1.22.94-1.556.275-.215.364-.273.63-.262zm7.492.305c.303.01.647.052.907.123.446.121.72.406.913.946.135.377.15 1.207.031 1.685-.08.323-.42.838-.552.835-.153-.004.002.587.507 1.935.205.548.231.8.093.887-.146.09-.547.055-.67-.059-.06-.057-.27-.614-.464-1.239-.39-1.249-.456-1.384-.654-1.342-.13.028-.135.066-.164 1.259-.028 1.21-.031 1.231-.175 1.295-.215.095-.366.085-.482-.032-.093-.095-.102-.351-.102-3.115v-3.012l.15-.093c.097-.06.359-.082.662-.073zm-2.084-.047c.055.004.123.027.206.055l.278.094-.001 2.321c-.001 1.988-.016 2.366-.1 2.628-.171.533-.4.917-.692 1.16-.229.189-.37.231-.737.22-.397-.011-.493-.051-.758-.315-.66-.66-.777-1.266-.777-4.045v-2.01l.158-.098a.517.517 0 01.371-.03l.214.066.052 2.28.052 2.278.201.29c.272.392.524.469.802.245.412-.332.454-.587.475-2.906.018-1.905.019-2.251.257-2.234zm5.164.147c.12.003.239.027.325.078.161.094.26.276.482.89.154.424.371.996.482 1.27.11.275.307.78.435 1.124.128.343.257.625.287.626.029 0 .056-.166.06-.37l.044-1.9.036-1.532.35.01.351.01v6.227l-.429-.012c-.515-.014-.412.166-1.377-2.41-.38-1.014-.713-1.82-.741-1.79-.028.028-.051.929-.051 2.002 0 1.386-.02 1.985-.07 2.068-.104.173-.547.133-.66-.06-.083-.145-.092-.492-.076-3.062.012-2.034.038-2.93.085-3.01.064-.105.267-.163.467-.159zm-17.994-.476a.513.513 0 01.281.062l.158.106v2.463c0 2.154.012 2.47.093 2.525.05.034.374.07.718.08.409.01.65.058.696.137.076.132.097.834.026.903-.08.078-1.909.101-2.087.026l-.175-.073-.016-3.079-.015-3.079.222-.057a.476.476 0 01.099-.014zm3.589.105c1.082.033 1.463.498 1.463 1.664 0 .53-.021.639-.182.945l-.182.346.27.495c.256.472.27.524.27 1.07 0 .821-.133 1.191-.55 1.536-.312.258-.391.28-1.076.285-.407.003-.831-.027-.944-.067l-.204-.073-.016-3.074-.015-3.073.658-.043a5.32 5.32 0 01.508-.011zm-5.599-.15c.222.005.411.018.513.037.313.058.377.102.42.293.027.123.03.35.005.504l-.044.28-.726.004c-1.038.006-.997-.024-.976.718l.017.615.755.049c.435.028.788.095.832.158.098.14.1.84.004.942-.04.042-.414.09-.832.106l-.759.03-.017.664c-.02.802-.076.758 1.04.823l.787.045.019.434c.01.24-.003.468-.03.51-.026.042-.603.093-1.282.113-1.173.035-1.237.028-1.286-.15-.029-.104-.043-1.526-.03-3.162l.021-2.974.857-.035c.235-.01.49-.01.713-.005zm-6.396-.172l.467.041c.314.029.495.091.554.19.049.083.26.917.469 1.855.21.938.414 1.725.453 1.748.079.047.07.079.568-2.113.267-1.177.367-1.51.463-1.549.067-.026.318-.03.559-.007l.437.042.015 3.042c.018 3.403.054 3.14-.435 3.156l-.28.01-.043-1.731c-.023-.952-.05-1.865-.06-2.028l-.018-.297-.096.343c-.053.189-.205.852-.337 1.473-.425 1.998-.47 2.159-.622 2.219-.244.097-.405-.045-.506-.444-.053-.206-.19-.822-.305-1.37-.305-1.44-.446-2.035-.494-2.087-.056-.06-.117 1.308-.118 2.634 0 .58-.024 1.08-.054 1.11-.029.03-.173.08-.32.11-.2.04-.274.02-.297-.084-.017-.076-.024-1.517-.016-3.201zm31.799.885c.861.015.866.079.868.568.002.574-.002.577-.87.553-.544-.015-.822.015-.87.095-.094.157-.089 1.013.008 1.15.044.064.397.131.832.16l.755.048.018.434c.01.239-.01.482-.046.542-.038.062-.389.12-.836.136l-.77.03-.018.6c-.012.417.007.637.062.716.05.07.406.133.923.164l.842.051.019.434c.01.239-.003.467-.03.507-.063.098-2.092.14-2.353.048l-.205-.07-.015-3.01c-.01-1.654.006-3.044.033-3.089.027-.044.58-.077 1.229-.071.16 0 .301.003.424.005zm-15.682.597c-.512-.036-1.022.53-1.2 1.598-.066.397-.062.529.027 1.019.133.724.315 1.133.628 1.404.635.55 1.438 0 1.62-1.108.033-.2.06-.616.061-.923 0-.465-.03-.636-.19-1.037-.245-.62-.596-.928-.946-.953zm7.492.312c-.118 0-.213.024-.253.078-.094.13-.13 1.179-.045 1.33.062.11.748.008.937-.14.205-.16.252-.73.082-.996-.101-.157-.464-.272-.721-.272zm-11.697-.317a.408.408 0 00-.2.025c-.106.055-.122.14-.122.633 0 .314.017.6.039.637.105.181.89-.023.992-.259.108-.246.098-.574-.024-.76-.087-.135-.437-.261-.685-.276zm.373 2.583a2.033 2.033 0 00-.194-.002l-.472.015-.018.633c-.012.437.006.661.059.724.041.05.27.074.508.054.502-.043.667-.228.667-.745 0-.467-.14-.653-.55-.68z" fill="#f77d3d"/><path d="M764.695 253.353s-.005-2.144-.005-4.471c0 0 .003-2.838 0-4.231.003-.673.035-1.123.29-1.758.35-.865.596-1.1 1.103-1.473.288-.212.637-.193.637-.193l5.73.156 5.789.159s.004 3.89-.002 5.85c-.007 2.157.01 4.238-.022 6.33l-6.715-.185-6.804-.184zm4.475-2.534c.159-.068.219-.502.148-1.071l-.05-.397-.96-.126c-.585-.076-1.014-.178-1.097-.26-.218-.214-.302-.706-.302-1.754 0-1.724.105-1.867 1.43-1.934.482-.025.897-.079.923-.12.026-.041.039-.36.03-.708l-.018-.632-1.226-.034c-1.143-.031-1.242-.02-1.46.173-.3.263-.536.656-.682 1.137-.105.345-.114.544-.096 2.173.018 1.757.022 1.802.177 2.21.224.588.624 1.085 1.01 1.253.214.093 1.992.167 2.173.09zm3.055-.12c.359-.261.694-.767.823-1.244.09-.33.106-.663.107-2.103.001-1.877-.022-2.046-.37-2.682-.384-.702-.515-.76-1.862-.84l-1.211-.07v1.472l.866.08c.889.082 1.183.202 1.352.554.069.141.088.473.088 1.498 0 1.281-.004 1.323-.15 1.566-.166.276-.799.498-1.07.375l-.152-.068v-1.518c0-1.187-.018-1.544-.083-1.636-.05-.071-.23-.11-.452-.099l-.37.02-.016 2.31c-.012 1.732.003 2.347.057 2.46.062.126.238.147 1.125.133.892-.014 1.093-.046 1.318-.209zm4.773.31c.054-.055.071-.282.059-.762l-.018-.683-.846-.096c-.965-.11-1.252-.223-1.356-.536-.048-.146-.073-.665-.074-1.52 0-1.132.013-1.325.108-1.5.175-.322.467-.42 1.375-.46l.852-.038v-1.383l-1.128-.058c-.638-.033-1.223-.017-1.348.037-.302.13-.671.59-.866 1.082-.156.394-.162.464-.182 1.898-.024 1.761.037 2.343.31 2.958.397.888.729 1.066 2.075 1.11.53.017.998-.004 1.04-.048z" fill="#045cb7"/><path d="M964.306 287.939c3.773.074 3.699-.962 3.847-3.33.148-2.366-.592-3.698-3.773-3.92-3.181-.222-3.181.888-3.181 3.699s.444 3.625 3.107 3.55zM951.211 302.439c4.07.074 3.995.444 3.995 2.811s-.222 2.811-3.55 2.885c-3.33.074-3.552-.74-3.552-3.033s.444-2.59 3.107-2.663zM835.36 300.071c3.256.074 3.7.74 3.7 3.108 0 2.367-.444 2.663-3.626 2.737-3.18.074-3.033-.518-3.033-2.516 0-1.997-.074-3.255 2.96-3.329zM767.67 282.464c3.847-.148 5.178-1.701 5.178-3.772 0-2.072-.813-3.551-4.29-3.7-3.478-.147-4.07.666-4.143 3.404-.074 2.737.444 3.699 3.255 4.068zM768.188 273.957c4.882 0 5.178-.814 5.252-2.59.074-1.775-.148-4.734-4.439-4.808-4.29-.074-4.29 1.258-4.364 3.92-.074 2.664.887 3.256 3.55 3.478zM689.383 297.48c3.662.105 4.08.105 3.976 2.93-.105 2.825-.314 2.93-3.243 3.034-2.93.104-3.976-.523-3.871-3.034.104-2.511.104-2.93 3.138-2.93zM522.825 300.096c3.453.314 3.767-.314 4.08-2.302.314-1.988.314-2.72-2.824-3.034-3.139-.314-3.662.105-3.767 2.406-.104 2.302 0 2.616 2.511 2.93zM367.67 286.914c3.767.104 3.872.523 3.872 2.929 0 2.406-.21 3.034-3.453 3.034s-3.87-.314-4.08-2.93c-.21-2.615.418-2.929 3.662-3.033zM355.012 274.045c6.068.105 6.068-2.302 6.068-4.499 0-2.197-.837-3.557-5.232-3.766-4.394-.21-4.498 1.255-4.603 3.976-.105 2.72.732 4.184 3.767 4.289zM355.43 264.629c5.545.105 5.754-.837 5.754-3.348 0-2.51-.941-4.29-5.545-4.394-4.603-.105-4.394 1.988-4.603 4.708-.21 2.72 1.465 2.93 4.394 3.034z" fill="#d87726"/><path d="M254.107 100.114c5.808.58 6.292 1.259 6.97 8.228.677 6.97-.871 29.04-1.84 33.3-.967 4.258-1.16 5.71-11.422 5.033-10.26-.678-10.744-.775-11.519-5.808-.774-5.034.194-27.588 1.162-33.783s2.323-7.357 5.324-7.357c3 0 7.84.194 11.325.387z" fill="#212121"/><path d="M244.526 79.835c-1.32-.014-2.023.031-2.203 1.648-.205 1.848-.752 9.377-.752 12.731 0 3.354-.959 30.528-1.027 31.623-.069 1.095.205 1.711 1.3 1.848 1.096.137 1.643-.342 1.78-1.437s.48-20.671.616-24.573c.137-3.901.48-8.213.821-12.32.343-4.107 2.739-3.628 6.982-2.122 4.244 1.506 5.133 1.369 6.434 1.437 1.3.068 1.506.274 1.506 1.917 0 1.642.548 2.258 2.19 2.327 1.643.068 1.848-.89 1.985-2.327.137-1.438.137-6.572 0-8.214-.137-1.643-.342-2.054-2.258-2.122-2.601-.205-15.059-.41-16.77-.41-.214 0-.415-.004-.604-.006zm14.636 1.169c.992 0 1.197.513 1.232 1.369.034.855-.035 2.156-.171 3.73-.137 1.575-.72 1.609-2.636 1.232-1.916-.376-2.257-1.122-1.54-2.396.654-1.16 2.122-3.935 3.115-3.935zm-5.954.466c.15 0 .288.004.416.01 1.016.049 1.306.242 1.306 1.452s0 1.259-.048 1.985c-.048.726-.674 1.1-1.452.87-.985-.29-1.04-.41-2.611-1.21-1.623-.825-2.81-1.5-1.407-2.274 1.229-.678 2.753-.836 3.796-.833z" fill="#191919"/><path d="M780.408 375.703c13.745-.387 19.553-19.747 19.36-35.041-.194-15.295-6.97-31.557-16.069-31.557-9.1 0-19.747 17.617-19.36 35.041.387 17.424 6.582 31.557 16.069 31.557z" fill="#7f7f7f"/><path d="M775.537 313.275c-6.274 6.244-11.47 18.605-11.198 30.871.25 11.27 2.931 21.16 7.36 26.743 9.873-.523 17.035-16.26 16.906-27.867-.12-10.867-3.757-24.821-13.068-29.747z" fill="#4b4b4b"/><path d="M771.356 350.414c4.45.822 5.545 3.56 5.134 5.134-.41 1.574-3.422 2.738-5.955 1.369-2.532-1.369-1.916-6.708.822-6.503zM772.657 341.037c5.681-.068 6.16-2.122 6.092-3.49-.069-1.37-.093-3.758-5.408-3.08-5.314.676-2.669 6.639-.684 6.57zM772.152 319.784a5.644 5.644 0 00-1.625.197 43.955 43.955 0 00-2.097 4.164c.985 1.715 2.25 1.453 5.048.738 3.217-.82 4.039-4.312-.205-4.996a7.836 7.836 0 00-1.121-.103z" fill="#0d0d0d"/><path d="M768.053 325.026c-2.387 5.734-3.862 12.44-3.714 19.12.101 4.539.596 8.853 1.44 12.753 3.807-7.729 5.843-26.566 2.274-31.873z" fill="#1c1c1c"/><path d="M768.211 335.096c-.694 0-1.876.082-3.154.13a45.068 45.068 0 00-.718 8.92c.078 3.515.393 6.894.923 10.051.719-.01 1.472-.022 2.562-.032 0 0 1.79-19.07.387-19.07z" fill="#121212"/><path d="M768.027 335.143c-1.043.026-2.125.394-3.13 1.024a44.714 44.714 0 00-.558 7.98c.072 3.232.344 6.35.8 9.287.882.513 1.772.814 2.521.814 2.328 0 5.75-1.233 5.613-11.09-.081-5.851-2.527-8.084-5.246-8.015z" fill="#292929"/><path d="M119.242 309.968c2.11.091 2.45.476 2.519 2.383.068 1.906-.136 10.35-.204 11.643-.068 1.294-.545 1.498-2.383 1.634-1.839.136-29.687-.885-32.07-1.226-2.383-.34-2.452-.885-2.452-3.2 0-2.315 0-8.647.137-10.213.136-1.566.749-2.11 2.587-2.179 1.838-.068 29.277 1.045 31.866 1.158z" fill="#e9e9e9" stroke="#06436b" stroke-width=".665"/></svg>