<?xml version="1.0" encoding="UTF-8" standalone="no"?>
<svg
   xmlns:dc="http://purl.org/dc/elements/1.1/"
   xmlns:cc="http://creativecommons.org/ns#"
   xmlns:rdf="http://www.w3.org/1999/02/22-rdf-syntax-ns#"
   xmlns:svg="http://www.w3.org/2000/svg"
   xmlns="http://www.w3.org/2000/svg"
   xmlns:sodipodi="http://sodipodi.sourceforge.net/DTD/sodipodi-0.dtd"
   xmlns:inkscape="http://www.inkscape.org/namespaces/inkscape"
   sodipodi:docname="a.svg"
   inkscape:version="1.1-dev (ddb55ca, 2020-02-02)"
   id="svg949"
   version="1.1"
   viewBox="0 0 113.13 148.2778"
   height="148.2778mm"
   width="113.13mm">
  <defs
     id="defs943" />
  <sodipodi:namedview
     inkscape:snap-global="false"
     inkscape:window-maximized="1"
     inkscape:window-y="23"
     inkscape:window-x="0"
     inkscape:window-height="855"
     inkscape:window-width="1440"
     showgrid="false"
     inkscape:current-layer="layer1"
     inkscape:document-units="mm"
     inkscape:cy="280.20996"
     inkscape:cx="107.39559"
     inkscape:zoom="0.41953006"
     inkscape:pageshadow="2"
     inkscape:pageopacity="0.0"
     borderopacity="1.0"
     bordercolor="#666666"
     pagecolor="#ffffff"
     id="base" />
  <metadata
     id="metadata946">
    <rdf:RDF>
      <cc:Work
         rdf:about="">
        <dc:format>image/svg+xml</dc:format>
        <dc:type
           rdf:resource="http://purl.org/dc/dcmitype/StillImage" />
        <dc:title></dc:title>
      </cc:Work>
    </rdf:RDF>
  </metadata>
  <g
     transform="translate(15.69334,97.151098)"
     id="layer1"
     inkscape:groupmode="layer"
     inkscape:label="Layer 1">
    <path
       inkscape:connector-curvature="0"
       id="path1338"
       d="m 25.639191,26.998682 1.526431,9.958149 5.306169,2.325992 11.048457,1.599118 15.118943,-5.814978 -2.980177,-9.013217 z"
       style="fill:#161616;fill-opacity:1;stroke:none;stroke-width:0.7;stroke-linecap:butt;stroke-linejoin:miter;stroke-miterlimit:4;stroke-dasharray:none;stroke-opacity:1" />
    <path
       inkscape:connector-curvature="0"
       id="path1336"
       d="m 25.929939,28.888548 c 7.559471,-0.07269 29.438327,0.07269 30.455949,0.07269 1.017619,0 -0.07269,-7.777533 -0.07269,-7.777533 l -31.328193,0.145372 z"
       style="fill:#2b0e14;fill-opacity:1;stroke:none;stroke-width:0.7;stroke-linecap:butt;stroke-linejoin:miter;stroke-miterlimit:4;stroke-dasharray:none;stroke-opacity:1" />
    <path
       sodipodi:nodetypes="csssssc"
       inkscape:connector-curvature="0"
       id="path1334"
       d="m 33.925536,21.692513 c -10e-7,3.488988 0.07269,6.905288 0.145373,8.286343 0.05362,1.018805 0.436123,1.381059 2.035243,1.453745 1.599118,0.07269 7.050659,0.07269 8.722466,-0.07269 1.671807,-0.145376 2.322603,-0.227086 2.398678,-1.817182 0.08123,-1.697916 0.132901,-7.114528 0.06022,-7.768713 -0.07269,-0.654185 -13.361978,-0.0815 -13.361978,-0.0815 z"
       style="fill:#252525;fill-opacity:1;stroke:none;stroke-width:0.7;stroke-linecap:butt;stroke-linejoin:miter;stroke-miterlimit:4;stroke-dasharray:none;stroke-opacity:1" />
    <path
       id="path1136"
       style="fill:#871e2d;fill-opacity:1;stroke:none;stroke-width:0.7;stroke-linecap:butt;stroke-linejoin:miter;stroke-miterlimit:4;stroke-dasharray:none;stroke-opacity:1"
       d="m -7.4896872,18.550367 c -1.5475558,0.0024 -2.4789553,0.113191 -2.5135418,0.372586 -0.221348,1.660128 -0.221613,8.300439 0.3317628,13.944886 0.5533761,5.644443 1.8814394,11.399866 2.6561685,13.945401 0.7747264,2.545532 1.3282758,3.652401 5.6446168,3.763076 4.1981307,0.107646 35.2954919,0.525325 42.0961379,0.548288 v 0.0021 c 0.03343,-7.7e-5 0.111411,-0.0011 0.146243,-0.0011 0.03484,9.7e-5 0.112816,0.0011 0.146246,0.0011 v -0.0021 c 6.800577,-0.02297 37.898001,-0.440642 42.096137,-0.548288 4.316341,-0.110675 4.869891,-1.217544 5.644618,-3.763076 0.774729,-2.545535 2.102792,-8.300958 2.656168,-13.945401 0.553376,-5.644447 0.553111,-12.284758 0.331763,-13.944886 -0.03459,-0.259395 -0.965986,-0.370208 -2.513541,-0.372586 -8.356809,-0.0123 -34.673336,3.139342 -34.673336,3.139342 0,5.533768 0.442558,12.506624 -1.770952,13.945401 -2.106509,1.369232 -8.011681,3.03185 -11.917103,3.189986 -3.905422,-0.15816 -9.810609,-1.820764 -11.9171,-3.189986 -2.21351,-1.438777 -1.770952,-8.411633 -1.770952,-13.945401 0,0 -26.31652652,-3.151653 -34.6733352,-3.139342 z"
       inkscape:connector-curvature="0" />
    <path
       id="path1138"
       style="fill:#b1b1b1;fill-opacity:1;stroke:none;stroke-width:0.7;stroke-linecap:butt;stroke-linejoin:miter;stroke-miterlimit:4;stroke-dasharray:none;stroke-opacity:1"
       d="m -6.7202251,18.559151 c 1.6857133,0.586139 3.285392,1.614897 3.9108723,3.241146 1.5462435,4.020235 13.8412898,24.45033 17.3994538,29.024066 2.86856,0.03951 5.388202,0.07317 8.331274,0.110588 C 19.629789,44.724175 5.960902,21.010796 4.9379778,19.476408 4.9044684,19.426145 4.8807598,19.376719 4.8640805,19.328612 0.3008568,18.919027 -3.9439152,18.607527 -6.7202251,18.559151 Z m 95.1838521,0 c -2.77631,0.04838 -7.021081,0.359876 -11.584305,0.769461 -0.01667,0.04811 -0.04039,0.09753 -0.0739,0.147796 -1.022924,1.534388 -14.691812,25.247767 -17.983398,31.458543 2.943071,-0.03742 5.462717,-0.07108 8.331276,-0.110588 3.558162,-4.573736 15.853209,-25.003831 17.399452,-29.024066 0.625481,-1.626249 2.225159,-2.655007 3.910873,-3.241146 z M 12.76954,20.094975 c 0.807329,0.604282 1.514623,1.382636 2.018483,2.369362 2.253792,4.413674 12.410913,21.708179 16.267739,28.569833 4.180319,0.04772 7.601545,0.08165 9.467641,0.0894 C 39.429015,48.498631 36.693411,43.14843 33.68816,37.531636 31.684007,36.952431 29.919556,36.262332 28.9546,35.63511 27.252078,34.528472 27.121937,30.148165 27.152126,25.666727 26.200375,23.995878 25.356981,22.549983 24.661323,21.396185 22.049372,21.094121 17.709179,20.603253 12.76954,20.094975 Z m 56.20432,0 c -4.939638,0.508278 -9.279829,0.999146 -11.891779,1.30121 -0.695659,1.153798 -1.539053,2.599693 -2.490804,4.270542 0.03019,4.481438 -0.09995,8.861745 -1.802474,9.968383 -0.964956,0.627222 -2.72941,1.317321 -4.733562,1.896526 C 45.04999,43.14843 42.314389,48.498631 41.22,51.12357 c 1.866096,-0.0078 5.28732,-0.04168 9.467639,-0.0894 3.856826,-6.861654 14.013949,-24.156159 16.267742,-28.569833 0.503859,-0.986726 1.211151,-1.76508 2.018479,-2.369362 z m -79.099562,1.18649 c -0.05573,2.858838 0.05124,7.475823 0.4542358,11.586374 0.073581,0.750535 0.1615596,1.50283 0.2594158,2.249474 2.3097886,5.832057 4.6841981,11.750315 6.3510334,15.337565 0.4909423,0.06272 1.0440357,0.104865 1.6903361,0.121438 0.98743818,0.02532 3.5900656,0.0691 6.9060382,0.119891 C 3.0480517,45.852382 -6.227117,28.145513 -10.125702,21.281465 Z m 101.994807,0 c -3.898585,6.864048 -13.173755,24.570917 -15.66106,29.414742 3.315973,-0.0508 5.918599,-0.09457 6.906038,-0.119891 0.6463,-0.01656 1.199395,-0.05872 1.690338,-0.121438 1.666835,-3.58725 4.041243,-9.505508 6.351032,-15.337565 0.09786,-0.746644 0.185835,-1.498939 0.259416,-2.249474 0.402994,-4.110551 0.509965,-8.727536 0.454236,-11.586374 z"
       inkscape:connector-curvature="0" />
    <path
       id="path1071"
       style="fill:#d09a3f;fill-opacity:1;stroke:none;stroke-width:0.7;stroke-linecap:butt;stroke-linejoin:miter;stroke-miterlimit:4;stroke-dasharray:none;stroke-opacity:1"
       d="m 40.725457,-97.151098 v 0.0062 c -16.834545,0.278582 -34.1217374,4.527405 -43.804561,9.217525 -10.017191,4.852078 -11.89558,7.043235 -12.365136,18.312578 -0.469556,11.269339 -0.159745,40.695046 -0.0032,49.616608 0.156517,8.921562 -0.140523,24.886221 0.016,29.8948152 0.156517,5.0085968 4.213119,10.7998308 7.6565279,12.0519768 3.0566071,1.111495 40.0052601,0.993755 48.6466411,0.952398 8.641382,0.04136 45.590036,0.159097 48.646643,-0.952397 3.443409,-1.252146 7.499671,-7.04338 7.656188,-12.0519768 0.156517,-5.0085942 -0.140521,-20.9732532 0.016,-29.8948152 0.15652,-8.921562 0.466673,-38.347269 -0.0029,-49.616608 -0.469556,-11.269343 -2.347947,-13.4605 -12.365138,-18.312578 -9.682821,-4.69012 -26.970016,-8.938943 -43.804559,-9.217525 v -0.0062 c -0.04871,6.73e-4 -0.09753,0.0024 -0.146246,0.0031 -0.04872,-7.4e-4 -0.09753,-0.0024 -0.146243,-0.0031 z"
       inkscape:connector-curvature="0"
       sodipodi:nodetypes="ccssssscsssssccccc" />
    <path
       id="path1081"
       style="fill:#454545;fill-opacity:1;stroke:none;stroke-width:0.7;stroke-linecap:butt;stroke-linejoin:miter;stroke-miterlimit:4;stroke-dasharray:none;stroke-opacity:1"
       d="m 40.345119,-90.220255 c -2.018097,-0.01037 -4.611595,0.07272 -9.50898,0.902787 0,3e-6 -38.7364785,14.608958 -38.957829,18.482593 -0.2213504,3.87364 -1.1067131,9.186137 -2.656169,11.620997 -1.549455,2.434857 -1.438722,2.102625 1.8815392,2.2133 3.2186847,0.107292 42.3385278,0.110488 49.6217768,0.110588 0.04064,0 0.253852,0 0.292489,0 7.283249,-1e-4 46.403093,-0.0033 49.621775,-0.110588 3.320262,-0.110675 3.430995,0.221557 1.88154,-2.2133 -1.549456,-2.43486 -2.434818,-7.747357 -2.656168,-11.620997 -0.22135,-3.873635 -38.957829,-18.48259 -38.957829,-18.482593 -4.897385,-0.830064 -7.490883,-0.913159 -9.508979,-0.902787 -0.187394,9.52e-4 -0.354143,0.0027 -0.526585,0.0047 -0.172439,-0.002 -0.339188,-0.0037 -0.526581,-0.0047 z"
       inkscape:connector-curvature="0" />
    <path
       id="path1077"
       style="fill:#2f2f2f;fill-opacity:1;stroke:none;stroke-width:0.7;stroke-linecap:butt;stroke-linejoin:miter;stroke-miterlimit:4;stroke-dasharray:none;stroke-opacity:1"
       d="m 32.840668,-89.809427 c -1.510329,-0.01297 -3.388263,0.215359 -5.546432,0.381372 -5.755121,0.442701 -18.8149346,2.877225 -25.8981608,4.980057 -7.0832239,2.102831 -9.6286938,4.205963 -9.8500448,8.743653 -0.1132451,2.321423 -0.2212626,3.65202 -0.1105873,6.197554 0.1346935,3.097961 3.3203332,3.873957 12.2850379,1.549775 8.964705,-2.324184 25.566076,-5.201825 29.882414,-5.755203 4.316341,-0.553376 2.545659,-2.324218 3.099036,-3.209623 0.553376,-0.885401 0.331848,-4.980681 0.221175,-9.407694 -0.06917,-2.766885 -1.565222,-3.458275 -4.082438,-3.479891 z m 16.062068,0 c -2.517217,0.02162 -4.013266,0.713006 -4.082439,3.479891 -0.110675,4.427013 -0.331684,8.522293 0.221692,9.407694 0.553376,0.885405 -1.217822,2.656247 3.098519,3.209623 4.316339,0.553378 20.91771,3.431019 29.882415,5.755203 8.964704,2.324182 12.150343,1.548186 12.285037,-1.549775 0.110676,-2.545534 0.0026,-3.876131 -0.110587,-6.197554 -0.221351,-4.53769 -2.766822,-6.640822 -9.850046,-8.743653 -7.083227,-2.102832 -20.143039,-4.537356 -25.89816,-4.980057 -2.158169,-0.166013 -4.036102,-0.394342 -5.546431,-0.381372 z"
       inkscape:connector-curvature="0" />
    <path
       id="path1079"
       style="fill:#6c6c6c;fill-opacity:1;stroke:none;stroke-width:0.7;stroke-linecap:butt;stroke-linejoin:miter;stroke-miterlimit:4;stroke-dasharray:none;stroke-opacity:1"
       d="m 31.889303,-87.939257 c -1.073897,0.01902 -2.464314,0.143292 -4.262787,0.281636 -7.193899,0.553376 -21.2496015,3.873633 -27.44742072,5.865792 -6.19782218,1.992156 -6.74288708,3.073142 -6.86211338,4.980574 -0.144993,2.319657 -0.1659353,4.738202 0,6.751008 0.2527636,3.066045 7.8578926,0.775002 15.0517943,-0.995803 7.1938988,-1.770806 20.3644178,-3.763242 23.9060348,-4.205945 3.541609,-0.442701 3.209623,-1.77052 3.209623,-7.525639 0,-4.316338 -0.37344,-5.20869 -3.595131,-5.151623 z m 17.965314,0 c -3.221691,-0.05707 -3.595648,0.835285 -3.595648,5.151623 0,5.755119 -0.331989,7.082938 3.209623,7.525639 3.541615,0.442703 16.712136,2.435139 23.906035,4.205945 7.193902,1.770805 14.79903,4.061848 15.051794,0.995803 0.165936,-2.012806 0.144992,-4.431351 0,-6.751008 -0.119226,-1.907432 -0.663776,-2.988418 -6.861598,-4.980574 -6.197817,-1.992159 -20.254037,-5.312416 -27.447936,-5.865792 -1.798473,-0.138344 -3.188374,-0.262614 -4.26227,-0.281636 z"
       inkscape:connector-curvature="0" />
    <path
       id="path1092"
       style="fill:#b82d34;fill-opacity:1;stroke:none;stroke-width:0.7;stroke-linecap:butt;stroke-linejoin:miter;stroke-miterlimit:4;stroke-dasharray:none;stroke-opacity:1"
       d="m -15.534674,-26.186954 c 0.03052,2.471459 0.06105,4.69062 0.08733,6.188768 0.125602,7.159408 -0.03761,18.7686892 -0.02739,25.6976557 18.3842692,0.2397019 50.895566,0.5591016 56.346429,0.4201292 5.450867,0.1389724 37.962213,-0.1804273 56.346431,-0.4201292 0.01021,-6.9289665 -0.152993,-18.5382477 -0.02739,-25.6976557 0.02627,-1.498148 0.0568,-3.717309 0.08733,-6.188768 l -37.185327,3.997171 -19.221051,1.067636 -19.221047,-1.067636 z"
       inkscape:connector-curvature="0" />
    <path
       id="path1087"
       style="fill:#c7c7c7;fill-opacity:1;stroke:none;stroke-width:0.7;stroke-linecap:butt;stroke-linejoin:miter;stroke-miterlimit:4;stroke-dasharray:none;stroke-opacity:1"
       d="m -15.517104,-31.946293 c 0.02703,2.268508 0.05414,4.341378 0.08113,6.21099 3.104876,0.701019 6.9467448,1.365899 9.5275835,1.826763 6.19782218,1.106755 18.7041675,3.763155 20.8069985,4.316532 2.102835,0.553376 4.648587,0.663953 8.190199,0.774628 3.231978,0.100999 13.406537,0.02252 17.782891,0.0072 4.376354,0.01527 14.550917,0.09372 17.782895,-0.0072 3.541612,-0.110675 6.087364,-0.221252 8.190198,-0.774628 2.102831,-0.553377 14.609177,-3.209777 20.806997,-4.316532 2.580841,-0.460864 6.42271,-1.125744 9.527585,-1.826763 0.02699,-1.869612 0.0541,-3.942482 0.08113,-6.21099 -8.291923,2.161519 -23.185697,4.785529 -27.980722,5.82445 -6.640523,1.43878 -9.075364,1.328084 -12.395623,1.328084 H 41.017946 40.725457 24.859242 c -3.320262,0 -5.755103,0.110696 -12.395626,-1.328084 -4.7950223,-1.038921 -19.688796,-3.662931 -27.98072,-5.82445 z"
       inkscape:connector-curvature="0" />
    <path
       id="path1101"
       style="fill:#2d2d2d;fill-opacity:1;stroke:none;stroke-width:0.7;stroke-linecap:butt;stroke-linejoin:miter;stroke-miterlimit:4;stroke-dasharray:none;stroke-opacity:1"
       d="m -0.0441469,-43.878382 c -1.1284934,0.0051 -2.2037407,0.03071 -3.113505,0.0894 -2.4260386,0.156522 -3.6778718,2.112597 -3.8343913,4.929933 -0.1565196,2.817337 1.4087467,4.225931 3.5217488,4.460709 2.1129995,0.234778 7.1214717,0.313327 9.6257688,0.07855 2.5042998,-0.234778 4.3822206,-1.721863 4.5387406,-4.38268 0.156519,-2.660814 -0.54776,-4.851733 -5.1650588,-5.086511 -1.6630105,-0.04891 -3.6924813,-0.09781 -5.5733031,-0.0894 z m 81.8322149,0 c -1.880823,-0.0084 -3.910812,0.04049 -5.573821,0.0894 -4.6173,0.234778 -5.321578,2.425697 -5.165061,5.086511 0.156522,2.660817 2.034442,4.147902 4.538742,4.38268 2.504297,0.234778 7.513285,0.156229 9.626285,-0.07855 2.113002,-0.234778 3.677753,-1.643372 3.521233,-4.460709 -0.156519,-2.817336 -1.408353,-4.773411 -3.834391,-4.929933 -0.909765,-0.0587 -1.984494,-0.08436 -3.112987,-0.0894 z"
       inkscape:connector-curvature="0" />
    <path
       id="path1103"
       style="fill:#616161;fill-opacity:1;stroke:none;stroke-width:0.7;stroke-linecap:butt;stroke-linejoin:miter;stroke-miterlimit:4;stroke-dasharray:none;stroke-opacity:1"
       d="m 1.1955705,-42.576135 c -1.49670904,0 -2.9052425,0.03905 -3.8834838,0.117306 -1.9564826,0.156519 -2.8957206,1.486839 -2.9739785,3.756358 -0.078261,2.269519 1.4869292,3.0523 2.6608193,3.130558 1.1738874,0.07826 6.3783622,0.117536 8.8826619,0.03928 2.5042971,-0.07826 3.5217489,-1.760831 3.5217489,-3.639053 0,-1.878224 -0.587003,-3.05236 -3.7956339,-3.287138 -1.3304083,-0.07826 -2.9154247,-0.117306 -4.4121339,-0.117306 z m 79.3522625,0 c -1.496711,0 -3.081726,0.03905 -4.412136,0.117306 -3.208631,0.234778 -3.795117,1.408914 -3.795117,3.287138 0,1.878222 1.016937,3.560794 3.521234,3.639053 2.5043,0.07826 7.708773,0.03899 8.88266,-0.03928 1.17389,-0.07826 2.739081,-0.861039 2.660819,-3.130558 -0.07825,-2.269519 -1.017494,-3.599839 -2.973977,-3.756358 -0.978241,-0.07826 -2.386775,-0.117306 -3.883483,-0.117306 z"
       inkscape:connector-curvature="0" />
    <path
       id="path1109"
       style="fill:#c28b38;fill-opacity:1;stroke:none;stroke-width:0.7;stroke-linecap:butt;stroke-linejoin:miter;stroke-miterlimit:4;stroke-dasharray:none;stroke-opacity:1"
       d="m 1.9293759,-53.751164 c -1.08659953,0.0091 -2.17304059,0.06465 -3.1693156,0.179316 -1.285162,0.147924 -2.4652528,0.704541 -2.5435139,3.834908 -0.078259,3.130376 1.4869895,3.404278 2.81739916,3.639056 1.330407,0.234775 3.87369014,0.156662 6.26059964,0.03927 2.3869094,-0.11739 2.7779799,-2.113285 2.7388507,-3.717602 -0.039129,-1.604314 -0.3822607,-3.687257 -2.9347043,-3.873667 -0.9963322,-0.07276 -2.0827161,-0.110373 -3.1693157,-0.101285 z m 77.8846511,0 c -1.086601,-0.0091 -2.172983,0.02852 -3.169316,0.101285 -2.552444,0.18641 -2.895577,2.269353 -2.934706,3.873667 -0.03913,1.604317 0.351944,3.600212 2.738853,3.717602 2.386909,0.117388 4.930709,0.195501 6.261116,-0.03927 1.33041,-0.234778 2.895139,-0.50868 2.816881,-3.639056 -0.07826,-3.130367 -1.257834,-3.686984 -2.542995,-3.834908 -0.996275,-0.11467 -2.083234,-0.170227 -3.169833,-0.179316 z"
       inkscape:connector-curvature="0" />
    <path
       id="path1105"
       style="fill:#ca2929;fill-opacity:1;stroke:none;stroke-width:0.7;stroke-linecap:butt;stroke-linejoin:miter;stroke-miterlimit:4;stroke-dasharray:none;stroke-opacity:1"
       d="m 5.0206601,-52.671642 c -1.5260584,0.03913 -2.3870795,0.743584 -2.4262085,2.973977 -0.039132,2.23039 1.4087753,2.660446 2.2696289,2.699578 0.8608536,0.03913 2.4649657,-0.508399 2.4649657,-2.582272 0,-2.073871 -0.743201,-3.052154 -2.3083861,-3.091283 z m 71.7020819,0 c -1.565186,0.03913 -2.308387,1.017412 -2.308387,3.091283 0,2.073873 1.604113,2.621401 2.464967,2.582272 0.860854,-0.03913 2.308762,-0.469188 2.26963,-2.699578 -0.03913,-2.230393 -0.900152,-2.934846 -2.42621,-2.973977 z"
       inkscape:connector-curvature="0" />
    <path
       id="path1107"
       style="fill:#bcbcbc;fill-opacity:1;stroke:none;stroke-width:0.7;stroke-linecap:butt;stroke-linejoin:miter;stroke-miterlimit:4;stroke-dasharray:none;stroke-opacity:1"
       d="m -0.88802326,-52.632368 c -1.72170434,0.03913 -2.11319134,1.369579 -2.15232324,3.091283 -0.039129,1.721705 0.8610235,2.504012 2.42620853,2.58227 1.56518766,0.07826 2.26962887,-0.665265 2.26962887,-2.817397 0,-2.152131 -0.82180958,-2.738768 -2.54351416,-2.856156 z m 83.51945026,0 c -1.721705,0.117388 -2.543516,0.704025 -2.543516,2.856156 0,2.152132 0.704442,2.895658 2.26963,2.817397 1.565185,-0.07826 2.465337,-0.860565 2.426208,-2.58227 -0.03913,-1.721704 -0.43062,-3.052156 -2.152322,-3.091283 z"
       inkscape:connector-curvature="0" />
    <path
       id="path1140"
       style="fill:#5a121a;fill-opacity:1;stroke:none;stroke-width:0.7;stroke-linecap:butt;stroke-linejoin:miter;stroke-miterlimit:4;stroke-dasharray:none;stroke-opacity:1"
       d="m 9.1547747,19.731689 -19.2427527,0.370004 c -0.04131,0.894278 -0.05812,2.116579 -0.04548,3.541384 0.4726865,0.332552 1.0676804,0.436666 2.011764,0.481624 2.1280834,0.101335 29.703435,0.109561 35.287767,0.02532 0.0091,-0.835555 0.01757,-1.6636 0.01757,-2.460316 0,0 -8.924944,-1.067734 -18.028874,-1.95802 z m 63.4338523,0 c -9.103931,0.890286 -18.028872,1.95802 -18.028872,1.95802 0,0.796716 0.0085,1.624761 0.01757,2.460315 5.584333,0.08424 33.159687,0.07601 35.28777,-0.02532 0.944084,-0.04496 1.539076,-0.149072 2.011762,-0.481624 0.01265,-1.424805 -0.0042,-2.647106 -0.04547,-3.541384 z"
       inkscape:connector-curvature="0" />
    <path
       id="path1120"
       style="fill:#4f1316;fill-opacity:1;stroke:none;stroke-width:0.7;stroke-linecap:butt;stroke-linejoin:miter;stroke-miterlimit:4;stroke-dasharray:none;stroke-opacity:1"
       d="m -15.431838,9.8749254 c 1.98e-4,0.00643 3.17e-4,0.015319 5.17e-4,0.021696 0.156517,5.0085966 4.212971,10.7998306 7.6563799,12.0519766 2.2768245,0.82794 23.3402301,0.973228 37.5201901,0.976686 4.958889,-5.29e-4 9.046265,-0.01434 11.126451,-0.02429 2.080189,0.0099 6.167562,0.02371 11.126454,0.02429 14.17996,-0.0035 35.243365,-0.148746 37.520189,-0.976686 3.443409,-1.252146 7.499863,-7.04338 7.65638,-12.0519766 2.01e-4,-0.00638 2.65e-4,-0.015266 5.29e-4,-0.021696 L 40.871713,11.773001 Z"
       inkscape:connector-curvature="0" />
    <path
       id="path1115"
       style="fill:#94202a;fill-opacity:1;stroke:none;stroke-width:0.7;stroke-linecap:butt;stroke-linejoin:miter;stroke-miterlimit:4;stroke-dasharray:none;stroke-opacity:1"
       d="m -15.475246,3.7791742 c -0.0058,2.5759939 0.0019,4.772689 0.04392,6.117455 0.028,0.8959958 0.182815,1.8170288 0.434599,2.7326508 19.094566,0.339365 50.643179,0.695971 55.868422,0.640271 5.225249,0.0557 36.773861,-0.300906 55.868424,-0.640271 0.251762,-0.915609 0.406601,-1.836666 0.434599,-2.7326508 0.04169,-1.3340239 0.04945,-3.500845 0.04393,-6.0492428 C 77.350918,4.0522903 44.108092,4.1729932 40.8717,4.1801846 38.068361,4.1739669 4.1147758,3.9463353 -15.475246,3.7791742 Z"
       inkscape:connector-curvature="0" />
    <path
       d="M 8.6783239,13.38634 C 8.4008501,13.408009 8.1407329,13.745316 8.0923116,14.495833 7.9816363,16.48799 7.981295,27.555791 7.8706198,28.49653 7.7599446,29.437267 7.262221,29.492334 4.2186476,29.492334 c -3.0435735,0 -3.4866527,-0.110699 -3.4313151,-1.272791 C 0.8426701,27.057451 1.5623897,16.211598 1.6730649,14.772818 1.7837401,13.33404 0.84279975,13.444371 0.62144934,14.551126 c -0.22135042,1.106755 -0.99571703,7.968808 -1.10639224,10.846366 -0.11067521,2.877561 -5.2917e-4,16.26902 -0.0558086,17.265097 -0.0553376,0.996079 0.60912374,1.05157 1.43918779,1.106908 0.83006671,0.05534 5.97623901,0.05534 6.80630301,0 0.8300667,-0.05533 0.9963203,-0.331751 0.9963203,-0.995804 0,-0.664052 0.7193359,-26.673199 0.7193359,-28.111979 0,-0.809313 -0.3853233,-1.303219 -0.7420716,-1.275374 z M 2.9970161,30.692778 c 0.3208258,-0.0027 0.689094,0.0032 1.1110436,0.01704 3.3755991,0.110678 3.5965923,0.221544 3.7072675,1.715656 0.1106752,1.494118 -0.055295,7.52584 -0.055295,8.577255 0,1.051417 -0.2212551,1.659935 -3.3755038,1.54926 C 1.230282,42.441312 0.67678694,42.275231 0.62144934,41.334492 0.56611173,40.39375 0.76021006,33.699162 0.7873325,32.370181 0.81201813,31.159924 0.75123804,30.71173 2.9970161,30.692765 Z"
       style="fill:#dddddd;fill-opacity:1;stroke:none;stroke-width:0.7;stroke-linecap:butt;stroke-linejoin:miter;stroke-miterlimit:4;stroke-dasharray:none;stroke-opacity:1"
       id="path1125"
       inkscape:connector-curvature="0" />
    <path
       id="path1130"
       style="fill:#4f1920;fill-opacity:1;stroke:none;stroke-width:0.7;stroke-linecap:butt;stroke-linejoin:miter;stroke-miterlimit:4;stroke-dasharray:none;stroke-opacity:1"
       d="m 17.080907,15.013112 c -1.348856,0.0052 -3.164686,0.11905 -3.953248,0.202057 -1.051414,0.110676 -1.134025,0.388015 -1.161688,1.549776 -0.02769,1.163079 0.110543,2.379086 0.165884,3.153812 0.05534,0.774729 0.498194,1.051568 1.106908,1.106908 0.608716,0.05534 3.430865,-0.05525 4.648295,-0.110585 1.21743,-0.05534 1.383332,-0.442859 1.438672,-1.106911 0.05534,-0.664051 0.05534,-1.715251 0,-2.877343 -0.05534,-1.16209 -0.28058,-1.802839 -1.106908,-1.88154 -0.290523,-0.02767 -0.688298,-0.0379 -1.137915,-0.03617 z m 47.581589,0 c -0.449617,-0.0019 -0.847391,0.0085 -1.137914,0.03617 -0.826329,0.0787 -1.051571,0.71945 -1.106909,1.88154 -0.05534,1.162092 -0.05534,2.213292 0,2.877343 0.05534,0.664052 0.221242,1.051571 1.438672,1.106911 1.21743,0.05534 4.040095,0.165923 4.648811,0.110585 0.608714,-0.05534 1.051055,-0.332179 1.106393,-1.106908 0.05534,-0.774726 0.19409,-1.990733 0.166399,-3.153812 -0.02766,-1.161761 -0.110789,-1.4391 -1.162204,-1.549776 -0.788564,-0.08301 -2.604391,-0.196868 -3.953248,-0.202057 z"
       inkscape:connector-curvature="0" />
    <path
       inkscape:connector-curvature="0"
       id="path1132"
       d="m 15.781267,19.209536 c 1.956483,0 2.191261,-1.29128 2.191261,-2.230392 0,-0.93911 -0.469556,-1.917354 -2.191261,-1.878222 -1.721704,0.03913 -1.878224,1.0565 -1.917353,2.034741 -0.03913,0.978241 0.469556,2.113002 1.917353,2.073873 z"
       style="fill:#afafaf;fill-opacity:1;stroke:none;stroke-width:0.7;stroke-linecap:butt;stroke-linejoin:miter;stroke-miterlimit:4;stroke-dasharray:none;stroke-opacity:1" />
    <path
       id="path1134"
       style="fill:#380b0c;fill-opacity:1;stroke:none;stroke-width:0.7;stroke-linecap:butt;stroke-linejoin:miter;stroke-miterlimit:4;stroke-dasharray:none;stroke-opacity:1"
       d="m -7.3470604,15.436861 c -3.7076246,0 -3.2096696,0.553347 -3.1543296,1.992125 0.22135,0.885404 0.8855911,1.272791 1.7156578,1.272791 0.830064,0 3.4308676,4.8e-5 4.6482949,-0.05529 1.2174299,-0.05534 1.7152723,0.05497 1.5492595,-1.494484 -0.1660128,-1.549455 -1.0512552,-1.71514 -4.7588826,-1.71514 z m 96.4375224,0 c -3.707628,0 -4.592868,0.165685 -4.758881,1.71514 -0.166013,1.549453 0.33183,1.439143 1.549257,1.494484 1.21743,0.05534 3.818232,0.05529 4.648296,0.05529 0.830066,0 1.494308,-0.387387 1.715658,-1.272791 0.05534,-1.438778 0.553297,-1.992125 -3.15433,-1.992125 z"
       inkscape:connector-curvature="0" />
    <path
       inkscape:connector-curvature="0"
       id="path1215"
       style="fill:#dddddd;fill-opacity:1;stroke:none;stroke-width:0.7;stroke-linecap:butt;stroke-linejoin:miter;stroke-miterlimit:4;stroke-dasharray:none;stroke-opacity:1"
       d="m 73.065166,13.38634 c 0.277474,0.02167 0.537591,0.358976 0.586012,1.109493 0.110676,1.992157 0.111017,13.059958 0.221692,14.000697 0.110675,0.940737 0.608399,0.995804 3.651972,0.995804 3.043574,0 3.486653,-0.110699 3.431315,-1.272791 C 80.90082,27.057451 80.1811,16.211598 80.070425,14.772818 79.95975,13.33404 80.90069,13.444371 81.122041,14.551126 c 0.22135,1.106755 0.995717,7.968808 1.106392,10.846366 0.110675,2.877561 5.29e-4,16.26902 0.05581,17.265097 0.05534,0.996079 -0.609123,1.05157 -1.439187,1.106908 -0.830067,0.05534 -5.976239,0.05534 -6.806303,0 -0.830067,-0.05533 -0.996321,-0.331751 -0.996321,-0.995804 0,-0.664052 -0.719336,-26.673199 -0.719336,-28.111979 0,-0.809313 0.385324,-1.303219 0.742072,-1.275374 z m 5.681308,17.306438 c -0.320826,-0.0027 -0.689094,0.0032 -1.111044,0.01704 -3.375599,0.110678 -3.596592,0.221544 -3.707267,1.715656 -0.110675,1.494118 0.0553,7.52584 0.0553,8.577255 0,1.051417 0.221255,1.659935 3.375504,1.54926 3.154246,-0.110676 3.707741,-0.276757 3.763079,-1.217496 0.05534,-0.940742 -0.138761,-7.63533 -0.165884,-8.964311 -0.02469,-1.210257 0.03609,-1.658451 -2.209683,-1.677416 z" />
    <path
       style="fill:#afafaf;fill-opacity:1;stroke:none;stroke-width:0.7;stroke-linecap:butt;stroke-linejoin:miter;stroke-miterlimit:4;stroke-dasharray:none;stroke-opacity:1"
       d="m 65.962226,19.209536 c -1.956483,0 -2.191261,-1.29128 -2.191261,-2.230392 0,-0.93911 0.469556,-1.917354 2.191261,-1.878222 1.721704,0.03913 1.878224,1.0565 1.917353,2.034741 0.03913,0.978241 -0.469556,2.113002 -1.917353,2.073873 z"
       id="path1219"
       inkscape:connector-curvature="0" />
    <path
       inkscape:connector-curvature="0"
       id="path1289"
       d="m 32.9224,-80.762503 c -2.173999,1.114871 -2.731434,5.295635 -1.226357,6.63348 1.505074,1.337844 2.285484,1.951023 4.180763,2.006766 1.895279,0.05574 2.006767,0.111488 2.062509,0.724666 0.05575,0.613179 0.390205,0.613179 2.118254,0.557436 1.72805,-0.05574 1.895282,0.05574 1.895282,-0.501692 0,-0.557435 0.16723,-0.724666 1.839534,-0.78041 1.672307,-0.05574 2.174,-0.334461 3.010152,-1.003383 0.836152,-0.668922 1.059127,-1.003383 1.059127,-1.89528 0,-0.891896 -2.564202,-5.184147 -2.564202,-5.184147 z"
       style="fill:#161616;fill-opacity:1;stroke:none;stroke-width:0.7;stroke-linecap:butt;stroke-linejoin:miter;stroke-miterlimit:4;stroke-dasharray:none;stroke-opacity:1" />
    <path
       inkscape:connector-curvature="0"
       id="path1281"
       d="m 44.461308,-82.992243 c 2.006766,0 2.341229,2.06251 2.341229,2.842919 0,0.78041 -0.111488,2.341228 -1.951025,2.396972 -1.839536,0.05574 -2.564201,-0.780409 -2.564201,-2.285485 0,-1.505075 -0.111487,-2.787176 2.173997,-2.954406 z"
       style="fill:#333333;fill-opacity:1;stroke:none;stroke-width:0.7;stroke-linecap:butt;stroke-linejoin:miter;stroke-miterlimit:4;stroke-dasharray:none;stroke-opacity:1" />
    <path
       sodipodi:nodetypes="csssc"
       inkscape:connector-curvature="0"
       id="path1283"
       d="m 34.706192,-83.215218 c 2.118254,0 2.619946,1.337845 2.675689,2.173998 0.05575,0.836153 -1.170615,2.452715 -2.675689,2.396972 -1.505074,-0.05574 -2.508459,-1.114871 -2.508459,-2.285485 0,-1.170614 0.222975,-2.118254 2.508459,-2.285485 z"
       style="fill:#333333;fill-opacity:1;stroke:none;stroke-width:0.7;stroke-linecap:butt;stroke-linejoin:miter;stroke-miterlimit:4;stroke-dasharray:none;stroke-opacity:1" />
    <path
       inkscape:connector-curvature="0"
       id="path1275"
       d="m 39.165675,-82.490552 c 3.121636,0 5.016915,1.393588 5.07266,5.295635 0.05574,3.902047 -1.895282,4.626712 -4.7382,4.682456 -2.842919,0.05574 -5.016918,-1.170614 -5.016918,-4.403738 0,-3.233125 1.672307,-5.518609 4.682458,-5.574353 z"
       style="fill:#222222;fill-opacity:1;stroke:none;stroke-width:0.7;stroke-linecap:butt;stroke-linejoin:miter;stroke-miterlimit:4;stroke-dasharray:none;stroke-opacity:1" />
    <path
       sodipodi:nodetypes="csssc"
       inkscape:connector-curvature="0"
       id="path1277"
       d="m 49.701201,-81.877373 c 2.787176,0.05574 4.013533,2.173998 4.069275,4.403738 0.05574,2.229741 -1.114869,4.236508 -3.846303,4.236508 -2.731431,0 -4.180764,-1.226357 -4.180764,-3.95779 0,-2.731433 1.282103,-4.570969 3.957792,-4.682456 z"
       style="fill:#222222;fill-opacity:1;stroke:none;stroke-width:0.7;stroke-linecap:butt;stroke-linejoin:miter;stroke-miterlimit:4;stroke-dasharray:none;stroke-opacity:1" />
    <path
       sodipodi:nodetypes="csssc"
       inkscape:connector-curvature="0"
       id="path1279"
       d="m 28.741634,-81.096964 c 2.842922,-0.111487 4.515226,1.839537 4.570971,3.846304 0.05574,2.006766 -1.170615,4.069277 -3.734817,4.069277 -2.564201,0 -4.069278,-1.337845 -4.069278,-3.623329 0,-2.285485 1.059128,-4.125021 3.233124,-4.292252 z"
       style="fill:#222222;fill-opacity:1;stroke:none;stroke-width:0.7;stroke-linecap:butt;stroke-linejoin:miter;stroke-miterlimit:4;stroke-dasharray:none;stroke-opacity:1" />
    <path
       inkscape:connector-curvature="0"
       id="path1291"
       d="m 40.318306,-69.480629 c 5.912493,0.07883 9.696489,4.178162 9.617657,9.302324 -0.07884,5.124161 -3.547497,8.986988 -9.223492,8.986988 -5.675992,0 -9.223488,-3.862827 -9.302321,-8.198657 -0.07884,-4.335828 3.389829,-9.932988 8.908156,-10.090655 z"
       style="fill:#2d2d2d;fill-opacity:0.354839;stroke:none;stroke-width:0.7;stroke-linecap:butt;stroke-linejoin:miter;stroke-miterlimit:4;stroke-dasharray:none;stroke-opacity:1" />
    <path
       inkscape:connector-curvature="0"
       id="path1293"
       d="m 40.633639,-67.352131 c 5.202994,0.07883 7.094992,3.941662 7.094992,6.77966 0,2.837995 -2.207331,7.33149 -6.779659,7.33149 -4.572328,0 -7.410326,-2.128496 -7.489158,-5.83366 -0.07883,-3.705162 1.970831,-8.119824 7.173825,-8.27749 z"
       style="fill:#cccccc;fill-opacity:1;stroke:none;stroke-width:0.7;stroke-linecap:butt;stroke-linejoin:miter;stroke-miterlimit:4;stroke-dasharray:none;stroke-opacity:1" />
    <g
       id="g3642">
      <path
         style="fill:#9c9c9c;fill-opacity:1;stroke:none;stroke-width:0.7;stroke-linecap:butt;stroke-linejoin:miter;stroke-miterlimit:4;stroke-dasharray:none;stroke-opacity:1"
         d="m 26.972348,-37.371948 c 0.07826,-1.878221 1.799963,-2.347777 1.799963,-0.07826 0,2.269519 -0.782592,0.939112 -0.547814,9.782413 0.234778,8.843303 1.01737,10.565008 1.01737,11.895415 0,1.33041 -1.956482,1.956483 -1.956482,0.313039 0,-1.643446 -0.469556,-19.017014 -0.313037,-21.912609 z"
         id="path1097"
         inkscape:connector-curvature="0" />
      <path
         style="fill:#9c9c9c;fill-opacity:1;stroke:none;stroke-width:0.7;stroke-linecap:butt;stroke-linejoin:miter;stroke-miterlimit:4;stroke-dasharray:none;stroke-opacity:1"
         d="m 7.2510027,-30.563388 c 0.4983445,-2.146715 2.9738533,-2.112999 2.0347411,0.07826 -0.9391121,2.191261 -1.2521486,4.852078 -1.4086681,10.486747 -0.156517,5.63467 0.6260756,9.547635 0.7825951,10.7215254 0.1565169,1.1738901 -1.4086681,1.7999657 -1.9564826,-0.078258 -0.5478171,-1.8782244 -0.3912976,-9.2345994 -0.234778,-12.6780084 0.1565169,-3.443412 0.2618143,-6.286914 0.7825925,-8.530266 z"
         id="path1099"
         inkscape:connector-curvature="0"
         sodipodi:nodetypes="sssssss" />
      <path
         inkscape:connector-curvature="0"
         id="path1193"
         d="m 54.771145,-37.371948 c -0.07826,-1.878221 -1.799963,-2.347777 -1.799963,-0.07826 0,2.269519 0.782592,0.939112 0.547814,9.782413 -0.234778,8.843303 -1.01737,10.565008 -1.01737,11.895415 0,1.33041 1.956482,1.956483 1.956482,0.313039 0,-1.643446 0.469556,-19.017014 0.313037,-21.912609 z"
         style="fill:#9c9c9c;fill-opacity:1;stroke:none;stroke-width:0.7;stroke-linecap:butt;stroke-linejoin:miter;stroke-miterlimit:4;stroke-dasharray:none;stroke-opacity:1" />
      <path
         sodipodi:nodetypes="sssssss"
         inkscape:connector-curvature="0"
         id="path1195"
         d="m 74.49249,-30.563388 c -0.498344,-2.146715 -2.973853,-2.112999 -2.034741,0.07826 0.939112,2.191261 1.252149,4.852078 1.408668,10.486747 0.156517,5.63467 -0.626075,9.547635 -0.782595,10.7215254 -0.156517,1.1738901 1.408668,1.7999657 1.956483,-0.078258 0.547817,-1.8782244 0.391297,-9.2345994 0.234778,-12.6780084 -0.156517,-3.443412 -0.261815,-6.286914 -0.782593,-8.530266 z"
         style="fill:#9c9c9c;fill-opacity:1;stroke:none;stroke-width:0.7;stroke-linecap:butt;stroke-linejoin:miter;stroke-miterlimit:4;stroke-dasharray:none;stroke-opacity:1" />
    </g>
  </g>
</svg>
