<?xml version="1.0" encoding="UTF-8" standalone="no"?>
<svg
   xmlns:dc="http://purl.org/dc/elements/1.1/"
   xmlns:cc="http://creativecommons.org/ns#"
   xmlns:rdf="http://www.w3.org/1999/02/22-rdf-syntax-ns#"
   xmlns:svg="http://www.w3.org/2000/svg"
   xmlns="http://www.w3.org/2000/svg"
   xmlns:sodipodi="http://sodipodi.sourceforge.net/DTD/sodipodi-0.dtd"
   xmlns:inkscape="http://www.inkscape.org/namespaces/inkscape"
   width="593.07806mm"
   height="744.07037mm"
   viewBox="0 0 593.07806 744.07038"
   version="1.1"
   id="svg8"
   inkscape:version="1.1-dev (ddb55ca, 2020-02-02)"
   sodipodi:docname="c1.svg">
  <defs
     id="defs2" />
  <sodipodi:namedview
     id="base"
     pagecolor="#ffffff"
     bordercolor="#666666"
     borderopacity="1.0"
     inkscape:pageopacity="0.0"
     inkscape:pageshadow="2"
     inkscape:zoom="0.33441451"
     inkscape:cx="1120.7774"
     inkscape:cy="1406.1172"
     inkscape:document-units="mm"
     inkscape:current-layer="layer1"
     showgrid="false"
     inkscape:window-width="1920"
     inkscape:window-height="1035"
     inkscape:window-x="0"
     inkscape:window-y="23"
     inkscape:window-maximized="1"
     inkscape:snap-global="false" />
  <metadata
     id="metadata5">
    <rdf:RDF>
      <cc:Work
         rdf:about="">
        <dc:format>image/svg+xml</dc:format>
        <dc:type
           rdf:resource="http://purl.org/dc/dcmitype/StillImage" />
        <dc:title />
      </cc:Work>
    </rdf:RDF>
  </metadata>
  <g
     inkscape:label="Layer 1"
     inkscape:groupmode="layer"
     id="layer1"
     transform="translate(183.28497,176.38988)">
    <g
       id="g1224">
      <path
         id="path1025"
         style="fill:#303030;fill-opacity:1;stroke:none;stroke-width:0.264583px;stroke-linecap:butt;stroke-linejoin:miter;stroke-opacity:1"
         d="m -71.458702,-16.078211 1.786453,376.050951 182.858079,6.56032 v 0.005 l 0.0682,-0.003 0.0682,0.003 v -0.005 l 182.85806,-6.56032 1.78647,-376.050951 -184.71277,1.671733 z"
         inkscape:connector-curvature="0" />
      <path
         id="path1021"
         style="fill:#3a3a3a;fill-opacity:1;stroke:none;stroke-width:0.264583px;stroke-linecap:butt;stroke-linejoin:miter;stroke-opacity:1"
         d="m -62.079946,-7.1459389 c 0,0 -6.699226,44.2151239 -3.572909,45.1083569 3.126316,0.893233 33.496445,0.446749 46.448326,-0.446484 C -6.2526487,36.6227 -9.8255211,19.651151 -8.9322878,-2.2330603 Z m 350.667986,0 -53.14765,4.9128786 c 0.89324,21.8842113 -2.67964,38.8557603 10.27224,39.7489943 12.95188,0.893233 43.322,1.339717 46.44832,0.446484 3.12632,-0.893233 -3.57291,-45.1083569 -3.57291,-45.1083569 z"
         inkscape:connector-curvature="0" />
      <path
         id="path1019"
         style="fill:#1f1f1f;fill-opacity:1;stroke:none;stroke-width:0.26458300000000001px;stroke-linecap:butt;stroke-linejoin:miter;stroke-opacity:1"
         d="m 113.18583,-96.347211 v 0.0021 l -167.504494,2.55075 -9.474356,93.47852855 h 176.97885 0.13645 176.97883 l -9.47436,-93.47852855 -167.50447,-2.55075 v -0.0021 l -0.0682,0.0011 z"
         inkscape:connector-curvature="0" />
      <path
         id="path1011"
         style="fill:#282828;fill-opacity:1;stroke:none;stroke-width:0.264583px;stroke-linecap:butt;stroke-linejoin:miter;stroke-opacity:1"
         d="m -40.195494,-118.8001 -45.554841,46.448322 6.252329,434.110958 192.683836,3.95997 v 0.003 l 0.0682,-0.003 0.0682,0.003 v -0.003 l 192.68384,-3.95997 6.25231,-434.110958 -45.55484,-46.448322 -153.44955,4.87153 z m 45.1083571,28.136779 h 108.2729669 0.13645 108.27297 c 26.25516,0 63.04952,3.572145 63.86637,65.65284 0.89323,67.88573 0.44648,232.687181 0.44648,260.377391 0,27.69023 -0.89296,92.003 -0.89296,99.59546 0,7.59248 -0.89326,10.71859 -15.63161,11.1652 -13.56831,0.41117 -130.37614,0.80651 -156.12949,0.86921 -25.753324,-0.0627 -142.561152,-0.45804 -156.129475,-0.86921 -14.738349,-0.44661 -15.631604,-3.57272 -15.631604,-11.1652 0,-7.59246 -0.892969,-71.90523 -0.892969,-99.59546 0,-27.69021 -0.446749,-192.491661 0.446485,-260.377391 0.816848,-62.080695 37.611227,-65.65284 63.8663861,-65.65284 z"
         inkscape:connector-curvature="0" />
      <path
         id="path980"
         style="fill:#181818;fill-opacity:1;stroke:none;stroke-width:0.264583px;stroke-linecap:butt;stroke-linejoin:miter;stroke-opacity:1"
         d="m -166.7764,-32.072583 -7.48326,385.402833 94.613344,13.36352 -11.760006,-395.558796 z m 560.06091,0 -75.37008,3.207557 -11.76001,395.558796 94.61336,-13.36352 z"
         inkscape:connector-curvature="0" />
      <path
         id="path969"
         style="fill:#acacac;fill-opacity:1;stroke:none;stroke-width:0.264583px;stroke-linecap:butt;stroke-linejoin:miter;stroke-opacity:1"
         d="m -73.182627,-35.543689 c -9.025398,-0.08685 -29.448853,7.747847 -29.448853,7.747847 2.13816,33.1414193 13.806914,386.117372 13.806912,389.897132 0,3.77976 17.008855,14.74107 17.764807,-2.64583 0.755952,-17.38691 2.267932,-385.34658 2.078942,-392.717118 -0.04134,-1.612304 -1.674698,-2.25771 -4.201808,-2.282031 z m 372.873357,0 c -2.52712,0.02432 -4.16047,0.669727 -4.2018,2.282031 -0.18899,7.370538 1.32297,375.330208 2.07894,392.717118 0.75594,17.3869 17.76481,6.42559 17.76481,2.64583 0,-3.77976 11.66873,-356.7557127 13.80691,-389.897132 0,0 -20.42345,-7.834699 -29.44886,-7.747847 z"
         inkscape:connector-curvature="0" />
      <path
         id="path978"
         style="fill:#808080;fill-opacity:1;stroke:none;stroke-width:0.264583px;stroke-linecap:butt;stroke-linejoin:miter;stroke-opacity:1"
         d="m -164.63803,-28.865026 -6.20737,180.433416 -5.66942,196.54771 c 0,0 9.44911,12.47296 10.20506,5.66941 0.75595,-6.80357 6.80364,-345.0922551 6.04769,-378.354158 z m 555.78415,0 -4.37594,4.296378 c -0.75597,33.2619029 5.29175,371.550588 6.04769,378.354158 0.75594,6.80355 10.20506,-5.66941 10.20506,-5.66941 l -5.66942,-196.54771 z"
         inkscape:connector-curvature="0" />
      <path
         id="path976"
         style="fill:#909090;fill-opacity:1;stroke:none;stroke-width:0.264583px;stroke-linecap:butt;stroke-linejoin:miter;stroke-opacity:1"
         d="m -163.87011,-29.327015 c -2.28547,0.07791 -5.57899,3.134693 -5.57899,3.134693 -0.53454,32.0723417 -8.57755,352.763772 -8.95553,363.725092 -0.37798,10.96129 1.88966,19.27653 3.02359,16.25274 1.13393,-3.02381 2.26808,-2.26787 2.26808,-15.875 0,-13.60715 10.58341,-353.785484 11.33936,-362.856912 0.28348,-3.401787 -0.72523,-4.427354 -2.09651,-4.380613 z m 554.24833,0 c -1.37128,-0.04674 -2.37947,0.978826 -2.096,4.380613 0.75594,9.071428 11.33935,349.249762 11.33935,362.856912 0,13.60713 1.13364,12.85119 2.26756,15.875 1.13395,3.02379 3.40209,-5.29145 3.02411,-16.25274 -0.37798,-10.96132 -8.4215,-331.6527503 -8.95604,-363.725092 0,0 -3.29351,-3.056787 -5.57898,-3.134693 z"
         inkscape:connector-curvature="0" />
      <path
         id="path967"
         style="fill:#b4b4b4;fill-opacity:1;stroke:none;stroke-width:0.264583px;stroke-linecap:butt;stroke-linejoin:miter;stroke-opacity:1"
         d="m 113.18583,-176.38987 c -135.962218,0.0868 -209.273555,2.15272 -228.11165,3.19929 -19.2434,1.06907 -43.83217,32.60702 -48.64302,65.74844 -4.81085,33.141415 -7.48378,62.540829 -7.48378,74.835223 0,12.294394 -1.60386,12.828878 18.17408,12.294341 19.77794,-0.534538 56.126753,-0.534334 68.421147,-0.534334 12.294394,0 14.96736,-1.069237 15.501898,-9.087303 0.534537,-8.018092 1.770533,-32.206461 11.225154,-47.039505 11.39399,-17.875647 25.886917,-24.588682 80.180634,-24.588682 h 90.735537 0.13645 90.73554 c 54.29372,0 68.78664,6.713035 80.18063,24.588682 9.45462,14.833044 10.69062,39.021413 11.22516,47.039505 0.53454,8.018066 3.20749,9.087303 15.50188,9.087303 12.2944,0 48.6432,-2.04e-4 68.42115,0.534334 19.77795,0.534537 18.17409,5.3e-5 18.17409,-12.294341 0,-12.294394 -2.67295,-41.693808 -7.48379,-74.835223 -4.81084,-33.14142 -29.3996,-64.67937 -48.64301,-65.74844 -18.83809,-1.04657 -92.14942,-3.11252 -228.11165,-3.19929 -0.0468,-3e-5 -0.0896,3e-5 -0.13645,0 z"
         inkscape:connector-curvature="0" />
      <path
         id="path971"
         style="fill:#bfbfbf;fill-opacity:1;stroke:none;stroke-width:0.264583px;stroke-linecap:butt;stroke-linejoin:miter;stroke-opacity:1"
         d="m 17.1054,-124.54756 c -57.730204,0 -88.199221,-2.6e-4 -105.839015,27.795722 -17.639795,27.796013 -13.897945,55.59204 -13.630695,75.637243 l 0.7705,0.285253 c 7.156474,-0.01561 13.351552,-0.01757 17.135385,-0.01757 12.294394,0 14.967357,-1.069237 15.501895,-9.087303 0.534538,-8.018092 1.770534,-32.206461 11.225154,-47.039505 11.39399,-17.875647 25.887437,-24.58868 80.181153,-24.58868 h 90.737083 0.13436 90.7371 c 54.29372,0 68.78717,6.713033 80.18116,24.58868 9.45462,14.833044 10.69062,39.021413 11.22516,47.039505 0.53454,8.018066 3.20749,9.087303 15.50189,9.087303 3.78383,0 9.97892,0.0019 17.13539,0.01757 l 0.7705,-0.285253 c 0.26725,-20.045203 4.00909,-47.84123 -13.6307,-75.637243 -17.6398,-27.795992 -48.10882,-27.795722 -105.83902,-27.795722 h -96.08148 -0.13436 z"
         inkscape:connector-curvature="0" />
      <path
         id="path982"
         style="fill:#b1b1b1;fill-opacity:1;stroke:none;stroke-width:0.264583px;stroke-linecap:butt;stroke-linejoin:miter;stroke-opacity:1"
         d="m -177.11995,346.33479 c -3.14928,0.0246 -2.54741,1.55009 -2.79673,7.45072 -0.81519,19.29289 -4.23219,177.54637 -3.16311,196.25522 1.06907,18.70887 10.69101,16.30338 34.47799,16.30338 23.787,0 41.15924,1.33636 64.144407,1.33636 h 197.643223 0.13645 197.64321 c 22.98518,0 40.35743,-1.33636 64.14442,-1.33636 23.78697,0 33.40891,2.40549 34.47799,-16.30338 1.06907,-18.70885 -2.34794,-176.96233 -3.16312,-196.25522 -0.24932,-5.90063 0.35256,-7.42611 -2.79673,-7.45072 -0.8818,-0.007 -2.05774,0.10388 -3.6287,0.26924 -7.18156,0.75595 -65.38982,8.31586 -78.61898,9.0718 -12.7711,0.72988 -189.80182,0.0629 -208.05809,0.0151 v 0 c -0.008,3e-5 -0.0602,-3e-5 -0.0682,0 -0.008,-3e-5 -0.0602,3e-5 -0.0682,0 v 0 c -18.256276,0.0479 -195.286997,0.71488 -208.058091,-0.0151 -13.229169,-0.75594 -71.437419,-8.31585 -78.618969,-9.0718 -1.57097,-0.16536 -2.74692,-0.27614 -3.62872,-0.26924 z"
         inkscape:connector-curvature="0" />
      <path
         id="path994"
         style="fill:#c4c4c4;fill-opacity:1;stroke:none;stroke-width:0.264583px;stroke-linecap:butt;stroke-linejoin:miter;stroke-opacity:1"
         d="m -104.27685,354.84178 0.71158,137.28309 c 18.142849,3.40177 119.818069,5.66943 165.5532,5.66943 27.030462,0 42.53121,0.43871 51.1979,0.53899 v 0.003 c 0.0206,-2.3e-4 0.0475,0 0.0682,0 0.0206,2.4e-4 0.0476,0 0.0682,0 v -0.003 c 8.66666,-0.10028 24.16743,-0.53899 51.1979,-0.53899 45.73514,0 147.41036,-2.26766 165.55321,-5.66943 l 0.71157,-137.28309 c -3.98349,0.40852 -7.30433,0.71353 -9.40459,0.83355 -12.77104,0.72982 -189.80076,0.0629 -208.05809,0.0151 v 0 c -0.008,0 -0.0602,-3e-5 -0.0682,0 -0.008,-3e-5 -0.0602,0 -0.0682,0 v 0 c -18.257334,0.0479 -195.287048,0.71485 -208.058091,-0.0151 -2.100262,-0.12002 -5.421109,-0.42503 -9.404589,-0.83355 z"
         inkscape:connector-curvature="0" />
      <path
         id="path984"
         style="fill:#bbbbbb;fill-opacity:1;stroke:none;stroke-width:0.264583px;stroke-linecap:butt;stroke-linejoin:miter;stroke-opacity:1"
         d="m -177.11995,346.33479 c -3.14928,0.0246 -2.54741,1.55009 -2.79673,7.45072 -0.81519,19.29289 -4.2322,177.54637 -3.16311,196.25522 1.06907,18.70887 10.69101,16.30338 34.47799,16.30338 8.84272,0 16.79764,0.185 24.48533,0.41704 10.57597,-20.1563 21.21995,-65.27615 24.708568,-84.4636 4.335794,-23.84684 9.013135,-91.53323 8.426876,-126.5106 -1.783434,-0.033 -3.156082,-0.0696 -3.891235,-0.11162 -13.229169,-0.75594 -71.437419,-8.31535 -78.618969,-9.0713 -1.57097,-0.16536 -2.74692,-0.27611 -3.62872,-0.26924 z m 580.748,0 c -0.8818,-0.007 -2.05774,0.10388 -3.6287,0.26924 -7.18156,0.75595 -65.38982,8.31536 -78.61898,9.0713 -0.73515,0.042 -2.10781,0.0786 -3.89123,0.11162 -0.58626,34.97737 4.09107,102.66376 8.42687,126.5106 3.48861,19.18745 14.13259,64.3073 24.70857,84.4636 7.68768,-0.23204 15.64261,-0.41704 24.48533,-0.41704 23.78697,0 33.40891,2.40549 34.47799,-16.30338 1.06907,-18.70885 -2.34794,-176.96233 -3.16312,-196.25522 -0.24932,-5.90063 0.35256,-7.42611 -2.79673,-7.45072 z"
         inkscape:connector-curvature="0" />
      <path
         id="path989"
         style="fill:#bcc309;fill-opacity:1;stroke:none;stroke-width:0.264583px;stroke-linecap:butt;stroke-linejoin:miter;stroke-opacity:1"
         d="m -182.27468,456.05007 c -0.13636,7.47498 -0.26315,14.85794 -0.38033,22.10252 17.59043,4.85254 59.96598,11.35092 81.25653,14.15058 0.7969,-3.77002 1.478827,-7.19098 1.990578,-10.00562 0.631786,-3.47482 1.270678,-7.90212 1.899627,-13.00178 -40.400995,-5.64936 -70.138235,-10.30137 -84.766405,-13.2457 z m 591.05745,0 c -14.62815,2.94433 -44.36541,7.59634 -84.76639,13.2457 0.62895,5.09966 1.26784,9.52696 1.89963,13.00178 0.51176,2.81464 1.19367,6.2356 1.99057,10.00562 21.29054,-2.79966 63.6661,-9.29804 81.25653,-14.15058 -0.11718,-7.24458 -0.24397,-14.62754 -0.38034,-22.10252 z"
         inkscape:connector-curvature="0" />
      <path
         id="path999"
         style="fill:#0e0e0e;fill-opacity:1;stroke:none;stroke-width:0.264583px;stroke-linecap:butt;stroke-linejoin:miter;stroke-opacity:1"
         d="m -96.98221,494.09323 c -3.49996,-0.0407 -4.4342,2.14281 -0.437697,2.62724 4.409943,0.53453 33.141364,2.13794 64.278244,2.53886 31.1369076,0.4009 119.469746,0 124.815123,0 5.345403,0 6.033082,1.18102 7.167006,3.44887 1.133925,2.26785 2.456974,3.78013 9.449544,3.78013 h 4.89582 0.13645 4.89582 c 6.99257,0 8.31562,-1.51228 9.44954,-3.78013 1.13393,-2.26785 1.8216,-3.44887 7.16701,-3.44887 5.34537,0 93.67821,0.4009 124.81512,0 31.13688,-0.40092 59.8683,-2.00433 64.27824,-2.53886 3.99651,-0.48443 3.06227,-2.66793 -0.4377,-2.62724 -0.36208,0.004 -0.75147,0.0322 -1.16583,0.0884 -4.52771,0.61371 -19.465,1.72318 -29.48138,2.10117 -10.01636,0.37798 -56.17866,0.94514 -72.61574,0.94514 H 113.32228 113.18583 6.2807377 c -16.4370807,0 -62.5993657,-0.56716 -72.6157227,-0.94514 -10.016382,-0.37799 -24.953696,-1.48746 -29.481404,-2.10117 -0.414364,-0.0562 -0.803738,-0.0842 -1.165821,-0.0884 z"
         inkscape:connector-curvature="0" />
      <path
         id="path1027"
         style="fill:#2b2b2b;fill-opacity:1;stroke:none;stroke-width:0.26458300000000001px;stroke-linecap:butt;stroke-linejoin:miter;stroke-opacity:1"
         d="m -17.923986,-73.557389 c -9.834271,0 -13.025045,5.052941 -13.025045,28.422554 0,23.369614 2.472072,27.159582 13.26379,27.159582 h 130.871071 0.13645 130.87106 c 11.91062,0 13.2638,-3.789968 13.2638,-27.159582 0,-23.369613 -3.19077,-28.422554 -13.02504,-28.422554 h -131.10982 -0.13645 z"
         inkscape:connector-curvature="0"
         sodipodi:nodetypes="sssccsssccs" />
      <path
         inkscape:connector-curvature="0"
         id="path1001"
         d="m -61.232142,391.01635 c 9.827382,0 14.552083,6.61459 14.174108,15.68604 -0.377976,9.07142 -7.370538,13.41813 -14.174108,13.22916 -6.803572,-0.18899 -13.418155,-4.72471 -13.418155,-13.22916 0,-8.50448 3.401787,-15.68604 13.418155,-15.68604 z"
         style="fill:#a7a7a7;fill-opacity:1;stroke:none;stroke-width:0.264583px;stroke-linecap:butt;stroke-linejoin:miter;stroke-opacity:1" />
      <path
         sodipodi:nodetypes="sssss"
         inkscape:connector-curvature="0"
         id="path1003"
         d="m -61.232143,392.52828 c 8.504465,0 12.284228,6.42559 12.473215,12.4732 0.188989,6.04763 -4.724702,12.85121 -12.284226,13.0402 -7.559524,0.18896 -11.717261,-5.48066 -11.717261,-12.66222 0,-7.18153 6.047619,-12.85118 11.528272,-12.85118 z"
         style="fill:#d18832;fill-opacity:1;stroke:none;stroke-width:0.264583px;stroke-linecap:butt;stroke-linejoin:miter;stroke-opacity:1" />
      <path
         sodipodi:nodetypes="sssssss"
         inkscape:connector-curvature="0"
         id="path1005"
         d="m 7.7485117,386.85902 c 17.9631333,0.61313 25.1354153,8.50408 25.1354153,20.22134 0,11.71726 -9.449403,19.91495 -23.2455344,20.0189 -13.7961307,0.10395 -28.3482136,-0.16438 -36.2857146,-0.48256 -7.9375,-0.31814 -16.252976,-8.19298 -15.686011,-20.67049 0.566965,-12.47747 7.559524,-18.01082 17.575893,-18.65326 10.016369,-0.64242 23.2516371,-0.7498 32.5059517,-0.43393 z"
         style="fill:#a7a7a7;fill-opacity:1;stroke:none;stroke-width:0.264583px;stroke-linecap:butt;stroke-linejoin:miter;stroke-opacity:1" />
      <path
         inkscape:connector-curvature="0"
         id="path1007"
         d="m -23.434524,390.68478 c 13.418155,0.27685 16.6309526,7.6232 16.6309526,16.12764 0,8.50448 -5.6696426,16.29571 -15.1190476,16.17792 -9.449405,-0.1178 -16.630953,-4.22143 -16.81994,-14.04736 -0.188989,-9.82598 5.669643,-17.80762 15.308035,-18.2582 z"
         style="fill:#dedede;fill-opacity:1;stroke:none;stroke-width:0.264583px;stroke-linecap:butt;stroke-linejoin:miter;stroke-opacity:1" />
      <path
         inkscape:connector-curvature="0"
         id="path1009"
         d="m 15.686012,391.24041 c -13.4181549,0.10111 -16.44196438,10.14024 -16.44196438,16.75483 0,6.61458 4.34672628,14.14135 15.30803538,13.86979 10.96131,-0.27159 14.552083,-8.99211 14.741073,-13.34025 0.188986,-4.34815 -0.18899,-16.81853 -13.607144,-17.28437 z"
         style="fill:#c03a31;fill-opacity:1;stroke:none;stroke-width:0.264583px;stroke-linecap:butt;stroke-linejoin:miter;stroke-opacity:1" />
      <path
         inkscape:connector-curvature="0"
         id="path1023"
         d="m -43.441063,18.546606 c -0.315806,-8.210946 0.947418,-9.4741677 11.684807,-9.7899733 10.737389,-0.3158056 12.632223,1.5790273 12.948028,9.4741673 0.315806,7.89514 -1.579028,9.158362 -12.000612,9.789973 -10.421584,0.631611 -12.000612,-1.579028 -12.632223,-9.474167 z"
         style="fill:#d18832;fill-opacity:1;stroke:none;stroke-width:0.264583px;stroke-linecap:butt;stroke-linejoin:miter;stroke-opacity:1" />
    </g>
    <g
       id="g1161"
       transform="matrix(-1,0,0,1,226.50828,0)">
      <path
         style="fill:#a7a7a7;fill-opacity:1;stroke:none;stroke-width:0.264583px;stroke-linecap:butt;stroke-linejoin:miter;stroke-opacity:1"
         d="m -61.232142,391.01635 c 9.827382,0 14.552083,6.61459 14.174108,15.68604 -0.377976,9.07142 -7.370538,13.41813 -14.174108,13.22916 -6.803572,-0.18899 -13.418155,-4.72471 -13.418155,-13.22916 0,-8.50448 3.401787,-15.68604 13.418155,-15.68604 z"
         id="path1149"
         inkscape:connector-curvature="0" />
      <path
         style="fill:#d18832;fill-opacity:1;stroke:none;stroke-width:0.264583px;stroke-linecap:butt;stroke-linejoin:miter;stroke-opacity:1"
         d="m -61.232143,392.52828 c 8.504465,0 12.284228,6.42559 12.473215,12.4732 0.188989,6.04763 -4.724702,12.85121 -12.284226,13.0402 -7.559524,0.18896 -11.717261,-5.48066 -11.717261,-12.66222 0,-7.18153 6.047619,-12.85118 11.528272,-12.85118 z"
         id="path1151"
         inkscape:connector-curvature="0"
         sodipodi:nodetypes="sssss" />
      <path
         style="fill:#a7a7a7;fill-opacity:1;stroke:none;stroke-width:0.264583px;stroke-linecap:butt;stroke-linejoin:miter;stroke-opacity:1"
         d="m 7.7485117,386.85902 c 17.9631333,0.61313 25.1354153,8.50408 25.1354153,20.22134 0,11.71726 -9.449403,19.91495 -23.2455344,20.0189 -13.7961307,0.10395 -28.3482136,-0.16438 -36.2857146,-0.48256 -7.9375,-0.31814 -16.252976,-8.19298 -15.686011,-20.67049 0.566965,-12.47747 7.559524,-18.01082 17.575893,-18.65326 10.016369,-0.64242 23.2516371,-0.7498 32.5059517,-0.43393 z"
         id="path1153"
         inkscape:connector-curvature="0"
         sodipodi:nodetypes="sssssss" />
      <path
         style="fill:#dedede;fill-opacity:1;stroke:none;stroke-width:0.264583px;stroke-linecap:butt;stroke-linejoin:miter;stroke-opacity:1"
         d="m -23.434524,390.68478 c 13.418155,0.27685 16.6309526,7.6232 16.6309526,16.12764 0,8.50448 -5.6696426,16.29571 -15.1190476,16.17792 -9.449405,-0.1178 -16.630953,-4.22143 -16.81994,-14.04736 -0.188989,-9.82598 5.669643,-17.80762 15.308035,-18.2582 z"
         id="path1155"
         inkscape:connector-curvature="0" />
      <path
         style="fill:#c03a31;fill-opacity:1;stroke:none;stroke-width:0.264583px;stroke-linecap:butt;stroke-linejoin:miter;stroke-opacity:1"
         d="m 15.686012,391.24041 c -13.4181549,0.10111 -16.44196438,10.14024 -16.44196438,16.75483 0,6.61458 4.34672628,14.14135 15.30803538,13.86979 10.96131,-0.27159 14.552083,-8.99211 14.741073,-13.34025 0.188986,-4.34815 -0.18899,-16.81853 -13.607144,-17.28437 z"
         id="path1157"
         inkscape:connector-curvature="0" />
      <path
         style="fill:#d18832;fill-opacity:1;stroke:none;stroke-width:0.264583px;stroke-linecap:butt;stroke-linejoin:miter;stroke-opacity:1"
         d="m -43.441063,18.546606 c -0.315806,-8.210946 0.947418,-9.4741677 11.684807,-9.7899733 10.737389,-0.3158056 12.632223,1.5790273 12.948028,9.4741673 0.315806,7.89514 -1.579028,9.158362 -12.000612,9.789973 -10.421584,0.631611 -12.000612,-1.579028 -12.632223,-9.474167 z"
         id="path1159"
         inkscape:connector-curvature="0" />
    </g>
  </g>
</svg>
