<?xml version="1.0" encoding="UTF-8" standalone="no"?>
<svg
   xmlns:dc="http://purl.org/dc/elements/1.1/"
   xmlns:cc="http://creativecommons.org/ns#"
   xmlns:rdf="http://www.w3.org/1999/02/22-rdf-syntax-ns#"
   xmlns:svg="http://www.w3.org/2000/svg"
   xmlns="http://www.w3.org/2000/svg"
   xmlns:sodipodi="http://sodipodi.sourceforge.net/DTD/sodipodi-0.dtd"
   xmlns:inkscape="http://www.inkscape.org/namespaces/inkscape"
   inkscape:version="1.1-dev (ddb55ca, 2020-02-02)"
   sodipodi:docname="d.svg"
   viewBox="0 0 2893.9468 3282.3218"
   height="3282.3218"
   width="2893.9468"
   id="svg3546"
   version="1.1">
  <metadata
     id="metadata3552">
    <rdf:RDF>
      <cc:Work
         rdf:about="">
        <dc:format>image/svg+xml</dc:format>
        <dc:type
           rdf:resource="http://purl.org/dc/dcmitype/StillImage" />
        <dc:title />
      </cc:Work>
    </rdf:RDF>
  </metadata>
  <defs
     id="defs3550" />
  <sodipodi:namedview
     inkscape:current-layer="g3554"
     inkscape:window-maximized="0"
     inkscape:window-y="23"
     inkscape:window-x="0"
     inkscape:cy="281.70916"
     inkscape:cx="755.94842"
     inkscape:zoom="0.47552786"
     showgrid="false"
     id="namedview3548"
     inkscape:window-height="880"
     inkscape:window-width="1251"
     inkscape:pageshadow="2"
     inkscape:pageopacity="0"
     guidetolerance="10"
     gridtolerance="10"
     objecttolerance="10"
     borderopacity="1"
     bordercolor="#666666"
     pagecolor="#ffffff"
     inkscape:snap-global="false" />
  <g
     id="g3554"
     inkscape:label="Image"
     inkscape:groupmode="layer"
     transform="translate(-472.21919,-1026.6953)">
    <g
       id="g1375">
      <path
         id="path930"
         style="fill:#2a2a2a;fill-opacity:1;stroke:none;stroke-width:1px;stroke-linecap:butt;stroke-linejoin:miter;stroke-opacity:1"
         d="m 1819.2192,1068.1016 v 0.2363 l -725.957,43.5019 -147.19731,131.4766 -44.30273,285.8203 135.76564,-2.8574 783.6641,-57.6445 783.666,57.6445 135.7656,2.8574 -44.3027,-285.8203 -147.1973,-131.4766 -725.957,-43.5019 v -0.2363 l -1.9746,0.1191 z"
         inkscape:connector-curvature="0" />
      <path
         id="path932"
         style="fill:#3a3a3a;fill-opacity:1;stroke:none;stroke-width:1px;stroke-linecap:butt;stroke-linejoin:miter;stroke-opacity:1"
         d="m 1143.2797,1133.2754 c -85.746,0 -88.6035,30.0125 -88.6035,55.7363 v 202.9317 c 0,44.3021 2.8579,52.8769 37.1563,52.8769 h 561.6367 l 165.75,4.9492 v 0.1172 l 1.9727,-0.059 1.9746,0.059 v -0.1172 l 165.75,-4.9492 h 561.6367 c 34.2984,0 37.1562,-8.5748 37.1562,-52.8769 v -202.9317 c 0,-25.7238 -2.8575,-55.7363 -88.6035,-55.7363 h -675.9394 -3.9473 z"
         inkscape:connector-curvature="0" />
      <path
         id="path926"
         style="fill:#232323;fill-opacity:1;stroke:none;stroke-width:1px;stroke-linecap:butt;stroke-linejoin:miter;stroke-opacity:1"
         d="m 1389.0864,1036.0976 -504.47268,28.5821 -132.90625,431.5879 v 147.1972 l 187.21094,-41.4433 528.76759,-67.168 353.5059,-16.0156 353.5078,16.0156 528.7675,67.168 187.211,41.4433 v -147.1972 l -132.9063,-431.5879 -504.4726,-28.5821 h -430.1328 -3.9473 z m 432.1055,70.0704 c 70.5902,0.341 204.8675,3.1771 330.6425,8.5293 134.3354,5.7164 280.1038,12.8634 332.9805,22.8671 52.8767,10.0037 68.5961,22.8653 88.6035,51.4473 20.0074,28.582 78.601,122.9023 105.7539,255.8086 5.7164,52.8767 -4.2879,61.452 -30.0117,58.5938 -25.7238,-2.8582 -117.1853,-18.5786 -282.9609,-38.586 -157.8322,-19.0486 -388.1166,-31.6066 -543.0332,-32.7676 v -0.033 c -0.6483,0 -1.3237,0.013 -1.9746,0.018 -0.6504,0 -1.3251,-0.014 -1.9727,-0.018 v 0.033 c -154.9166,1.161 -385.201,13.719 -543.0332,32.7676 -165.7756,20.0074 -257.2372,35.7278 -282.96095,38.586 -25.7238,2.8582 -35.72812,-5.7171 -30.01172,-58.5938 27.1529,-132.9063 85.74647,-227.2266 105.75387,-255.8086 20.0074,-28.582 35.7269,-41.4436 88.6036,-51.4473 52.8767,-10.0037 198.645,-17.1507 332.9804,-22.8671 125.774,-5.3521 260.0499,-8.1882 330.6407,-8.5293 z"
         inkscape:connector-curvature="0" />
      <path
         id="path917"
         style="fill:#1d1d1d;fill-opacity:1;stroke:none;stroke-width:1px;stroke-linecap:butt;stroke-linejoin:miter;stroke-opacity:1"
         d="m 1819.2192,1491.5605 v 0.025 c -51.1002,0.2048 -156.7337,1.7753 -339.8086,14.0977 -210.1894,14.1474 -493.33196,54.893 -611.94727,74.9004 -118.6153,20.0074 -87.17481,38.5869 -94.32031,74.3144 -7.1455,35.7275 7.14648,145.7676 7.14648,145.7676 l 90.03321,1351.9277 5.71679,508.7598 -282.96289,50.7344 c 0,0 -80.02931,12.8622 -80.0293,29.2969 0,16.4346 -6.43056,43.5859 -8.57421,72.1679 -2.14365,28.582 27.06445,2.1953 27.06445,2.1953 l 311.24219,-24.2539 c 0,0 -9.09552,481.0109 19.19922,476.9688 28.29474,-4.0421 52.54854,-2.0208 115.20117,-3.0313 62.65257,-1.0105 -39.41211,-407.2422 -39.41211,-407.2422 l 881.45118,61.9922 v 0.2774 l 1.9727,-0.1387 1.9746,0.1387 v -0.2774 l 881.4511,-61.9922 c 0,0 -102.0647,406.2317 -39.4121,407.2422 62.6527,1.0105 86.9065,-1.0108 115.2012,3.0313 28.2947,4.0421 19.1992,-476.9688 19.1992,-476.9688 l 311.2422,24.2539 c 0,0 29.2081,26.3867 27.0645,-2.1953 -2.1437,-28.582 -8.5743,-55.7333 -8.5743,-72.1679 1e-4,-16.4347 -80.0293,-29.2969 -80.0293,-29.2969 l -282.9628,-50.7344 5.7168,-508.7598 90.0332,-1351.9277 c 0,0 14.2919,-110.0401 7.1464,-145.7676 -7.1455,-35.7275 24.295,-54.307 -94.3203,-74.3144 -118.6153,-20.0074 -401.7578,-60.753 -611.9472,-74.9004 -183.0749,-12.3224 -288.7084,-13.8929 -339.8086,-14.0977 v -0.025 c -0.5744,0 -1.385,0.01 -1.9746,0.012 -0.5891,0 -1.3989,-0.01 -1.9727,-0.012 z m -893.16212,1655.3184 893.16212,19.4766 v 0.086 l 1.9727,-0.043 1.9746,0.043 v -0.086 l 893.1621,-19.4766 0.414,513.248 -895.5507,9.7344 -895.54888,-9.7344 z"
         inkscape:connector-curvature="0" />
      <path
         id="path913"
         style="fill:#e2e2e2;fill-opacity:1;stroke:none;stroke-width:1px;stroke-linecap:butt;stroke-linejoin:miter;stroke-opacity:1"
         d="m 1161.0942,1026.6953 c -76.8,0 -513.34678,6.0632 -527.49415,18.1895 -14.14737,12.1263 288.16992,59.8085 288.16992,59.8085 16.43465,-17.8637 43.5873,-22.865 85.03123,-27.1523 41.4439,-4.2873 324.0632,-29.6259 414,-33.668 83.5602,-3.7554 336.5077,-0.5902 398.418,-0.1152 v 0.037 c 0.3769,0 1.5784,-0.015 1.9727,-0.018 0.3946,0 1.5973,0.015 1.9746,0.018 v -0.037 c 61.9104,-0.475 314.8578,-3.6402 398.4179,0.1152 89.9368,4.0421 372.5561,29.3807 414,33.668 41.444,4.2873 68.5966,9.2886 85.0313,27.1523 0,0 302.3173,-47.6822 288.1699,-59.8085 -14.1474,-12.1263 -450.6941,-18.1895 -527.4941,-18.1895 h -658.125 -3.9473 z"
         inkscape:connector-curvature="0" />
      <path
         sodipodi:nodetypes="csssssc"
         inkscape:connector-curvature="0"
         id="path911"
         d="m 779.62106,1640.5894 c 8.08421,-127.3263 4.54736,-169.2631 31.83157,-289.5157 27.28421,-120.2526 100.04211,-230.4 107.11579,-241.5158 7.07369,-11.1158 22.23158,-22.2316 -32.33684,-35.3684 -54.56842,-13.1369 -173.81053,-31.3263 -217.26316,-32.3369 -43.45263,-1.0105 -62.65263,0 -65.68421,8.0842 -3.03158,8.0843 176.33685,590.6526 176.33685,590.6526 z"
         style="fill:#d8d8d8;fill-opacity:1;stroke:none;stroke-width:1px;stroke-linecap:butt;stroke-linejoin:miter;stroke-opacity:1" />
      <path
         inkscape:connector-curvature="0"
         id="path899"
         d="m 525.90881,3439.8438 208.6486,-20.0074 111.4698,-262.9544 -77.1714,-1330.4922 -43.29791,-245.9266 -206.14737,200.0842 z"
         style="fill:#282828;fill-opacity:1;stroke:none;stroke-width:1px;stroke-linecap:butt;stroke-linejoin:miter;stroke-opacity:1" />
      <path
         id="path915"
         style="fill:#505050;fill-opacity:1;stroke:none;stroke-width:1px;stroke-linecap:butt;stroke-linejoin:miter;stroke-opacity:1"
         d="m 1759.4848,1549.5293 c -59.0068,-0.1264 -145.3161,1.0438 -263.2168,8.1894 -188.6412,11.4328 -524.48031,58.594 -585.93162,68.5977 -61.4513,10.0037 -62.88048,18.5782 -57.16407,61.4512 5.7164,42.873 40.13345,395.9385 52.25977,537.4121 12.12632,141.4737 43.49082,768.7844 44.91992,800.2246 1.4291,31.4402 12.86195,37.1562 42.87305,37.1562 30.01105,0 411.58135,1.4297 690.25585,1.4297 102.1157,0 179.6932,0 275.4238,0 278.6745,0 660.2448,-1.4297 690.2559,-1.4297 30.0111,0 41.444,-5.716 42.8731,-37.1562 1.4291,-31.4402 32.7936,-658.7509 44.9199,-800.2246 12.1263,-141.4736 46.5434,-494.5391 52.2597,-537.4121 5.7165,-42.873 4.2873,-51.4475 -57.164,-61.4512 -61.4513,-10.0037 -397.2905,-57.1649 -585.9317,-68.5977 -117.9007,-7.1456 -204.21,-8.3158 -263.2168,-8.1894 -25.8293,0.055 -45.9949,0.3498 -61.7089,0.5098 -15.7139,-0.16 -35.8787,-0.4545 -61.7071,-0.5098 z"
         inkscape:connector-curvature="0"
         sodipodi:nodetypes="sssssssccssssssscs" />
      <path
         id="path846"
         style="fill:#eaeaea;fill-opacity:1;stroke:none;stroke-width:1px;stroke-linecap:butt;stroke-linejoin:miter;stroke-opacity:1"
         d="m 1819.2192,3055.0078 v 0.014 c -251.158,0.6867 -469.7987,39.3443 -534.2188,79.9785 l 494,-14 c 0,0 18.3974,-4.0453 42.1915,-10.0996 23.795,6.0545 42.1933,10.0996 42.1933,10.0996 l 494,14 c -64.4201,-40.6342 -283.0608,-79.2918 -534.2187,-79.9785 v -0.014 c -0.6596,8e-4 -1.3155,0.01 -1.9746,0.01 -0.6585,0 -1.3138,-0.01 -1.9727,-0.01 z"
         inkscape:connector-curvature="0" />
      <path
         id="path844"
         style="fill:#dcdcdc;fill-opacity:1;stroke:none;stroke-width:1px;stroke-linecap:butt;stroke-linejoin:miter;stroke-opacity:1"
         d="m 1819.2192,3063.2187 v 0.031 c -212.3826,1.0662 -452.5647,33.4811 -532.2188,76.75 l 532.2188,40.6194 v 0.3008 l 1.9727,-0.1504 1.9746,0.1504 v -0.3008 L 2355.3852,3140 c -79.6539,-43.2689 -319.8362,-75.6838 -532.2187,-76.75 v -0.031 c -0.6556,0 -1.3186,0.013 -1.9746,0.016 -0.6555,0 -1.3177,-0.014 -1.9727,-0.016 z"
         inkscape:connector-curvature="0" />
      <path
         id="path842"
         style="fill:#eaeaea;fill-opacity:1;stroke:none;stroke-width:1px;stroke-linecap:butt;stroke-linejoin:miter;stroke-opacity:1"
         d="m 1137.5161,3126.5644 c -91.35,0 -176.26371,1.6446 -176.26371,1.6446 l 200.62501,74.0175 624.5078,-37.1425 c -298.8786,-30.301 -442.3856,-35.9018 -558.2812,-37.8496 -28.974,-0.487 -60.1379,-0.67 -90.5879,-0.67 z m 1367.3535,0 c -30.45,0 -61.614,0.183 -90.5879,0.67 -115.8956,1.9478 -259.4026,7.5486 -558.2813,37.8496 l 624.5059,37.1425 200.627,-74.0175 c 0,0 -84.9137,-1.6446 -176.2637,-1.6446 z"
         inkscape:connector-curvature="0" />
      <path
         id="path840"
         style="fill:#dcdcdc;fill-opacity:1;stroke:none;stroke-width:1px;stroke-linecap:butt;stroke-linejoin:miter;stroke-opacity:1"
         d="m 973.25044,3127.8965 c -12.22372,0 -21.52171,0.6883 -35.29492,1.3769 -27.54642,1.3773 -35.81055,-1.3765 -35.81055,26.1699 0,27.5464 6.88672,484.8162 6.88672,499.9668 0,15.1505 -4.13066,22.0368 31.67969,23.4141 35.54408,1.3671 438.83482,10.8704 878.50782,11.0117 v 0 c 0.6594,-1e-4 1.3134,0 1.9727,0 0.6598,10e-5 1.3146,0 1.9746,0 v 0 c 439.6729,-0.1413 842.9637,-9.6446 878.5078,-11.0117 35.8103,-1.3773 31.6797,-8.2636 31.6797,-23.4141 0,-15.1506 6.8867,-472.4204 6.8867,-499.9668 0,-27.5464 -8.2641,-24.7926 -35.8106,-26.1699 -13.7732,-0.6886 -23.0712,-1.3769 -35.2949,-1.3769 -12.2237,0 -27.3731,0.6879 -52.8535,2.7539 -50.0885,4.0613 -461.8986,20.0753 -795.0898,27.1621 -333.191,-7.0868 -744.9996,-23.1008 -795.0879,-27.1621 -25.4804,-2.066 -40.62984,-2.7539 -52.85356,-2.7539 z"
         inkscape:connector-curvature="0" />
      <path
         id="path859"
         style="fill:#d7e428;fill-opacity:1;stroke:none;stroke-width:1px;stroke-linecap:butt;stroke-linejoin:miter;stroke-opacity:1"
         d="m 1137.0278,3503.7148 -55.1543,102.5293 h 737.3457 3.9473 737.3457 l -55.1543,-102.5293 h -682.1914 -3.9473 z"
         inkscape:connector-curvature="0" />
      <path
         inkscape:connector-curvature="0"
         d="m 902.59961,3196.166 c 1.4952,116.466 6.43164,446.3721 6.43164,459.2442 0,15.1505 -4.13066,22.0367 31.67969,23.414 2.08085,0.08 5.69745,0.1939 10.23242,0.3262 1.15652,-6.5407 1.75035,-12.4749 2.05664,-16.1504 1,-12 4,-22 18,-22 14,0 29,5 105,-9 76,-14 77,-83 67,-114 -10,-31 -9,-32 11,-45 20,-13 34,-40 33,-118 -1,-78 -110,-99 -133,-102 -23,-3 -25,-1 -32,-27 -6.618,-24.581 -38.29088,-29.3825 -119.40039,-29.834 z"
         style="fill:#cecece;fill-opacity:1;stroke:none;stroke-width:1px;stroke-linecap:butt;stroke-linejoin:miter;stroke-opacity:1"
         id="path848" />
      <path
         inkscape:connector-curvature="0"
         id="path853"
         d="m 980.75711,3271.7831 c 26.87009,0 36.06249,-16.9706 35.35529,-32.5269 -0.7071,-15.5564 -11.3137,-34.6483 -33.94108,-35.3554 -22.62742,-0.7071 -31.1127,16.2635 -31.81981,36.0625 -0.7071,19.799 10.60661,31.8198 30.4056,31.8198 z"
         style="fill:#ce2f2f;fill-opacity:1;stroke:none;stroke-width:1px;stroke-linecap:butt;stroke-linejoin:miter;stroke-opacity:1" />
      <path
         sodipodi:nodetypes="sssss"
         inkscape:connector-curvature="0"
         id="path855"
         d="m 1049.3465,3272.4902 c 56.5648,-0.6428 89.8025,28.9914 91.2167,86.9741 1.4143,57.9828 -40.3051,94.0452 -90.5097,95.4594 -50.20455,1.4142 -90.5096,-43.8406 -91.2167,-90.5096 -0.70711,-46.6691 22.61706,-91.1524 90.5097,-91.9239 z"
         style="fill:#f6f6f6;fill-opacity:1;stroke:none;stroke-width:1px;stroke-linecap:butt;stroke-linejoin:miter;stroke-opacity:1" />
      <path
         inkscape:connector-curvature="0"
         id="path857"
         d="m 1028.8404,3474.7227 c 35.3553,0 80.6101,31.1127 79.903,84.1457 -0.7071,53.033 -34.6482,75.6605 -74.9533,75.6605 -40.30507,0 -82.02437,-36.0625 -81.31726,-74.9534 0.7071,-38.8908 17.67766,-83.4386 76.36756,-84.8528 z"
         style="fill:#ea9a2a;fill-opacity:1;stroke:none;stroke-width:1px;stroke-linecap:butt;stroke-linejoin:miter;stroke-opacity:1" />
      <path
         sodipodi:nodetypes="sssssssssss"
         inkscape:connector-curvature="0"
         id="path891"
         d="m 504.25263,3827.8737 c 0.45826,-34.3697 -1.01052,-35.3684 34.3579,-38.4 35.36842,-3.0316 143.49473,-15.1579 193.01052,-32.3369 49.51579,-17.1789 108.12632,-42.4421 125.30527,-43.4526 17.17894,-1.0105 32.33684,38.4 34.35789,84.8842 2.02105,46.4842 11.11579,424.4211 12.12632,442.6106 1.01052,18.1894 -9.09474,24.2526 -38.4,27.2842 -29.30527,3.0315 -157.64211,25.2631 -224.33684,34.3579 -66.69474,9.0947 -109.13685,12.1263 -122.27369,-19.2 -13.13684,-31.3264 -12.12631,-63.6632 -12.12631,-94.9895 0,-31.3263 -2.57343,-319.33 -2.02106,-360.7579 z"
         style="fill:#d0d0d0;fill-opacity:1;stroke:none;stroke-width:1px;stroke-linecap:butt;stroke-linejoin:miter;stroke-opacity:1" />
      <path
         id="path877"
         style="fill:#292929;fill-opacity:1;stroke:none;stroke-width:1px;stroke-linecap:butt;stroke-linejoin:miter;stroke-opacity:1"
         d="m 896.04536,3695.3652 c -57.164,0 -51.62185,4.2798 -52.875,37.1563 -0.79645,20.8949 -1.40115,40.7843 -0.39062,54.9316 1.01053,14.1474 -2.02143,26.274 39.41015,33.3477 41.43157,7.0737 259.70441,26.2736 398.14651,36.3789 133.2283,9.7246 403.4059,14.7473 538.8828,15.1133 v 0.016 c 0.6189,0 1.3478,-0.01 1.9727,-0.01 0.6254,0 1.3551,0.01 1.9746,0.01 v -0.016 c 135.4769,-0.366 405.6544,-5.3887 538.8828,-15.1133 138.4421,-10.1053 356.7149,-29.3052 398.1465,-36.3789 41.4315,-7.0737 38.3996,-19.2003 39.4101,-33.3477 1.0105,-14.1473 0.4058,-34.0367 -0.3906,-54.9316 -1.2532,-32.8765 4.289,-37.1563 -52.875,-37.1563 h -923.1738 -3.9473 z"
         inkscape:connector-curvature="0" />
      <path
         id="path879"
         style="fill:#cbcbcb;fill-opacity:1;stroke:none;stroke-width:1px;stroke-linecap:butt;stroke-linejoin:miter;stroke-opacity:1"
         d="m 921.97896,3837.0762 c -24.06779,-0.2603 -15.92969,13.9473 -15.92969,65.7968 0,61.4513 10.00371,308.6842 14.29101,338.6953 4.2873,30.0111 17.15049,27.1534 131.47852,20.0079 109.9499,-6.872 615.2323,-5.8254 767.4004,-5.7344 v 0 c 0.5136,-3e-4 1.4503,0 1.9727,0 0.5228,3e-4 1.4604,0 1.9746,0 v 0 c 152.1682,-0.091 657.4505,-1.1376 767.4004,5.7344 114.328,7.1455 127.1912,10.0032 131.4785,-20.0079 4.2873,-30.0111 14.291,-277.244 14.291,-338.6953 0,-51.8495 8.1381,-66.0571 -15.9297,-65.7968 -4.457,0.048 -10.0173,0.5931 -16.9395,1.4863 -44.3021,5.7164 -361.5632,35.7269 -534.4843,41.4433 -160.3711,5.3016 -294.75,6.8918 -347.791,7.0977 -53.0423,-0.2059 -187.4198,-1.7962 -347.7891,-7.0977 -172.9211,-5.7164 -490.18228,-35.7269 -534.48439,-41.4433 -6.9222,-0.8932 -12.48246,-1.4381 -16.93945,-1.4863 z"
         inkscape:connector-curvature="0" />
      <path
         inkscape:connector-curvature="0"
         id="path909"
         d="m 709.54816,1604.1648 6.43095,35.0129 c 0,0 73.59865,42.1585 64.3095,-19.2928 -9.28915,-61.4513 -33.50966,-243.5481 -62.81492,-338.5375 -29.30527,-94.9895 -47.94033,-129.4928 -65.08953,-161.6475 -17.1492,-32.1548 -27.37363,-52.0788 -31.41574,-62.1841 -4.0421,-10.1053 -5.55789,-15.6632 -29.81052,-14.1474 -24.25264,1.5158 -29.81053,9.6 -30.82106,18.1895 -1.01052,8.5895 19.2,120.2526 19.2,120.2526 z"
         style="fill:#cacaca;fill-opacity:1;stroke:none;stroke-width:1px;stroke-linecap:butt;stroke-linejoin:miter;stroke-opacity:1" />
      <path
         inkscape:connector-curvature="0"
         id="path901"
         d="m 712.92632,1648.1684 c -2.52632,-22.2316 -0.50527,-38.9052 -14.14737,-12.6316 -13.64211,26.2737 -50.02105,69.2211 -70.73684,84.379 -20.71579,15.1579 -55.07369,34.3579 -80.33685,33.3474 -25.26315,-1.0106 -28.29473,-29.3053 -28.29473,-29.3053 0,0 -7.07369,-6.0632 -8.08421,-72.7579 -1.01053,-66.6947 -4.04211,-271.8316 8.08421,-362.7789 12.12631,-90.9474 33.34737,-183.9158 37.38947,-205.1369 4.04211,-21.221 4.04211,-55.5789 19.2,12.1263 15.1579,67.7053 42.44211,64.6737 68.71579,164.7158 26.27368,100.0421 58.61053,256.6737 72.7579,377.9369 14.14736,121.2631 -4.54737,10.1052 -4.54737,10.1052 z"
         style="fill:#c2c2c2;fill-opacity:1;stroke:none;stroke-width:1px;stroke-linecap:butt;stroke-linejoin:miter;stroke-opacity:1" />
      <path
         sodipodi:nodetypes="sssssssssssssssssssssss"
         inkscape:connector-curvature="0"
         id="path893"
         d="m 513.04691,3739.9548 c -0.85698,25.7095 -1.4291,35.7275 31.4402,32.8693 32.8693,-2.8582 107.1825,-14.291 172.9211,-32.8693 65.7386,-18.5783 104.14969,-45.4706 137.49705,-48.5022 33.34737,-3.0315 41.43158,-1.0105 42.44211,-30.3158 1.01053,-29.3052 -5.58896,-437.0871 -8.44716,-508.5421 -2.8582,-71.4551 -8.5746,-381.5698 -22.8656,-595.9348 -14.291,-214.365 -31.4402,-514.476 -50.0185,-697.4008 -18.5783,-182.9248 -25.78453,-230.2907 -29.82664,-244.438 -4.0421,-14.1474 -6.06315,-16.1685 -42.4421,-6.0632 -36.37895,10.1053 -33.34737,16.1684 -30.31579,45.4737 3.03158,29.3052 48.50526,403.2 60.63158,682.1052 12.12631,278.9053 36.37895,628.5474 38.4,727.579 2.02105,99.0316 -1.45458,111.1448 -16.87302,136.186 -22.05514,35.8198 -91.70759,122.7291 -124.3317,159.0486 -29.83489,33.2143 -53.88723,56.3987 -92.47293,63.5442 -38.5857,7.1455 -37.1566,-1.4291 -38.5857,-32.8693 -1.4291,-31.4402 -2.8582,-1111.8399 -2.8582,-1138.9928 0,-27.1529 4.2873,-423.0136 1.4291,-465.8866 -2.8582,-42.873 -11.4328,-94.3206 -18.5783,-124.3317 -7.1455,-30.0111 -7.1455,-55.7349 -8.5746,54.3058 -1.4291,110.0407 0,781.7177 1.4291,851.7436 1.4291,70.0259 2.0019,1113.2343 0,1173.2912 z"
         style="fill:#d5d5d5;fill-opacity:1;stroke:none;stroke-width:1px;stroke-linecap:butt;stroke-linejoin:miter;stroke-opacity:1" />
      <path
         sodipodi:nodetypes="sssssssssss"
         inkscape:connector-curvature="0"
         id="path895"
         d="m 861.03276,3514.8715 c 20.73253,-0.2684 24.69356,0.2443 25.19882,11.8653 0.50526,11.6211 0.50526,65.179 0.50526,76.8 0,11.6211 -4.54736,13.6422 -15.15789,14.1474 -10.61053,0.5053 -56.58947,2.5263 -88.92632,7.0737 -32.33684,4.5474 -112.16842,15.1579 -123.28421,16.6737 -11.11579,1.5158 -17.17894,0 -17.17894,-10.6105 0,-23.579 0,-47.1579 0,-70.7369 0,-10.1052 3.03157,-15.6631 14.14736,-17.6842 11.11579,-2.021 127.32632,-18.1895 149.05264,-21.221 21.72631,-3.0316 40.04386,-6.1056 55.64328,-6.3075 z"
         style="fill:#d7e428;fill-opacity:1;stroke:none;stroke-width:1px;stroke-linecap:butt;stroke-linejoin:miter;stroke-opacity:1" />
      <path
         sodipodi:nodetypes="ssssssssss"
         inkscape:connector-curvature="0"
         id="path897"
         d="m 558.77811,3304.0793 c 0,45.7312 5.7164,68.5968 52.8767,34.2984 47.1603,-34.2984 136.84684,-166.6127 153.99604,-189.4783 17.1492,-22.8657 27.1529,-44.3022 25.7238,-84.317 -1.4291,-40.0148 -33.15713,-602.1245 -36.80984,-683.7018 -4.2873,-95.7497 -40.0148,-578.7855 -47.1603,-631.6622 -7.1455,-52.8767 -4.2873,-51.4476 -31.4402,-4.2873 -27.1529,47.1603 -67.1677,60.0222 -82.8878,68.5968 -15.7201,8.5746 -38.5857,374.4242 -35.7275,463.0284 2.8582,88.6042 1.4291,986.0791 1.4291,1027.523 z"
         style="fill:#505050;fill-opacity:1;stroke:none;stroke-width:1px;stroke-linecap:butt;stroke-linejoin:miter;stroke-opacity:1" />
      <path
         sodipodi:nodetypes="sssssssss"
         inkscape:connector-curvature="0"
         id="path903"
         d="m 587.11579,1464.2526 c 2.71035,-24.1853 5.05263,-25.2631 23.24211,-28.2947 18.18947,-3.0316 33.34736,-6.0632 32.33684,17.1789 -1.01053,23.2421 1.01052,188.9685 0,213.2211 -1.01053,24.2526 -6.06316,26.2737 -30.31579,29.3053 -24.25263,3.0315 -38.4,-1.0106 -39.41053,-6.0632 -1.01052,-5.0526 -24.90856,-174.754 -25.62311,-192.6177 -0.71455,-17.8638 -2.8582,-23.5802 17.86375,-25.7238 20.72195,-2.1437 20.9185,1.8124 21.90673,-7.0059 z"
         style="fill:#292929;fill-opacity:1;stroke:none;stroke-width:1px;stroke-linecap:butt;stroke-linejoin:miter;stroke-opacity:1" />
      <path
         sodipodi:nodetypes="ssssssssss"
         inkscape:connector-curvature="0"
         id="path905"
         d="m 516.61966,1526.2788 c -4.268,-37.248 -6.43095,-39.3002 20.72195,-40.7293 27.1529,-1.4291 38.5857,-2.8582 43.58755,40.7293 5.00185,43.5876 13.57645,153.6283 16.43465,180.0666 2.8582,26.4384 27.86745,65.0241 30.0111,102.8952 2.14365,37.8712 3.57275,52.8767 -14.291,53.5913 -17.86375,0.7145 -77.88595,-1.4291 -80.74415,-20.722 -2.8582,-19.2928 -4.2873,-53.5912 -4.2873,-69.3113 0,-15.7201 10.0037,-52.1622 5.00185,-95.7497 -5.00185,-43.5876 -12.84079,-119.4055 -16.43465,-150.7701 z"
         style="fill:#646464;fill-opacity:1;stroke:none;stroke-width:1px;stroke-linecap:butt;stroke-linejoin:miter;stroke-opacity:1" />
      <path
         inkscape:connector-curvature="0"
         id="path907"
         d="m 473.03211,1925.7123 c 1.4291,-50.7331 13.57645,-62.1659 27.1529,-77.1714 13.57645,-15.0056 23.58015,-19.2929 72.8841,-19.2929 49.30395,0 95.03515,6.431 108.6116,60.0222 13.57645,53.5913 10.52982,333.8877 7.49824,363.193 -3.03158,29.3052 1.01052,60.6315 -105.09474,61.6421 -106.10526,1.0105 -107.11579,-39.4106 -109.13684,-83.8737 -2.02105,-44.4632 -3.83052,-245.2491 -1.91526,-304.5193 z"
         style="fill:#282828;fill-opacity:1;stroke:none;stroke-width:1px;stroke-linecap:butt;stroke-linejoin:miter;stroke-opacity:1" />
      <path
         inkscape:connector-curvature="0"
         d="m 1343.5,1570.8516 c -51.5592,5.3268 -105.265,11.5375 -156.9512,17.8789 -4.497,94.0768 -3.2539,109.8863 -3.2539,121.9023 0,12.8619 -1.9904,28.4829 24.2832,30.5039 26.2737,2.0211 85.8946,3.032 109.1367,2.0215 23.2421,-1.0105 24.2543,-4.042 26.2754,-31.3262 1.6655,-22.4841 1.2652,-104.5996 0.5098,-140.9804 z"
         style="fill:#3f3f3f;fill-opacity:1;stroke:none;stroke-width:1px;stroke-linecap:butt;stroke-linejoin:miter;stroke-opacity:1"
         id="path919" />
      <path
         sodipodi:nodetypes="csssc"
         inkscape:connector-curvature="0"
         id="path924"
         d="m 1208.5895,1678.4842 c 1.0105,-35.3684 -0.063,-39.4105 51.4737,-39.4105 51.5368,0 55.6421,6.0631 55.6421,40.421 0,34.3579 -8.1474,36.379 -53.6211,36.379 -45.4737,0 -53.4947,-3.0316 -53.4947,-37.3895 z"
         style="fill:#d67215;fill-opacity:1;stroke:none;stroke-width:1px;stroke-linecap:butt;stroke-linejoin:miter;stroke-opacity:1" />
      <path
         style="fill:#d8d8d8;fill-opacity:1;stroke:none;stroke-width:1px;stroke-linecap:butt;stroke-linejoin:miter;stroke-opacity:1"
         d="m 2862.7641,1640.5894 c -8.0842,-127.3263 -4.5473,-169.2631 -31.8315,-289.5157 -27.2842,-120.2526 -100.0421,-230.4 -107.1158,-241.5158 -7.0737,-11.1158 -22.2316,-22.2316 32.3368,-35.3684 54.5684,-13.1369 173.8106,-31.3263 217.2632,-32.3369 43.4526,-1.0105 62.6526,0 65.6842,8.0842 3.0316,8.0843 -176.3369,590.6526 -176.3369,590.6526 z"
         id="path1119"
         inkscape:connector-curvature="0"
         sodipodi:nodetypes="csssssc" />
      <path
         style="fill:#282828;fill-opacity:1;stroke:none;stroke-width:1px;stroke-linecap:butt;stroke-linejoin:miter;stroke-opacity:1"
         d="m 3116.4764,3439.8438 -208.6486,-20.0074 -111.4698,-262.9544 77.1714,-1330.4922 43.2979,-245.9266 206.1474,200.0842 z"
         id="path1121"
         inkscape:connector-curvature="0" />
      <path
         id="path1133"
         style="fill:#cecece;fill-opacity:1;stroke:none;stroke-width:1px;stroke-linecap:butt;stroke-linejoin:miter;stroke-opacity:1"
         d="m 2739.7856,3196.166 c -1.4952,116.466 -6.4316,446.3721 -6.4316,459.2442 0,15.1505 4.1306,22.0367 -31.6797,23.414 -2.0809,0.08 -5.6975,0.1939 -10.2325,0.3262 -1.1565,-6.5407 -1.7503,-12.4749 -2.0566,-16.1504 -1,-12 -4,-22 -18,-22 -14,0 -29,5 -105,-9 -76,-14 -77,-83 -67,-114 10,-31 9,-32 -11,-45 -20,-13 -34,-40 -33,-118 1,-78 110,-99 133,-102 23,-3 25,-1 32,-27 6.618,-24.581 38.2909,-29.3825 119.4004,-29.834 z"
         inkscape:connector-curvature="0" />
      <path
         style="fill:#ce2f2f;fill-opacity:1;stroke:none;stroke-width:1px;stroke-linecap:butt;stroke-linejoin:miter;stroke-opacity:1"
         d="m 2661.6281,3271.7831 c -26.8701,0 -36.0625,-16.9706 -35.3553,-32.5269 0.7071,-15.5564 11.3137,-34.6483 33.9411,-35.3554 22.6274,-0.7071 31.1127,16.2635 31.8198,36.0625 0.7071,19.799 -10.6066,31.8198 -30.4056,31.8198 z"
         id="path1135"
         inkscape:connector-curvature="0" />
      <path
         style="fill:#f6f6f6;fill-opacity:1;stroke:none;stroke-width:1px;stroke-linecap:butt;stroke-linejoin:miter;stroke-opacity:1"
         d="m 2593.0387,3272.4902 c -56.5648,-0.6428 -89.8025,28.9914 -91.2167,86.9741 -1.4143,57.9828 40.3051,94.0452 90.5097,95.4594 50.2046,1.4142 90.5096,-43.8406 91.2167,-90.5096 0.7071,-46.6691 -22.6171,-91.1524 -90.5097,-91.9239 z"
         id="path1137"
         inkscape:connector-curvature="0"
         sodipodi:nodetypes="sssss" />
      <path
         style="fill:#ea9a2a;fill-opacity:1;stroke:none;stroke-width:1px;stroke-linecap:butt;stroke-linejoin:miter;stroke-opacity:1"
         d="m 2613.5448,3474.7227 c -35.3553,0 -80.6101,31.1127 -79.903,84.1457 0.7071,53.033 34.6482,75.6605 74.9533,75.6605 40.3051,0 82.0244,-36.0625 81.3173,-74.9534 -0.7071,-38.8908 -17.6777,-83.4386 -76.3676,-84.8528 z"
         id="path1139"
         inkscape:connector-curvature="0" />
      <path
         style="fill:#d0d0d0;fill-opacity:1;stroke:none;stroke-width:1px;stroke-linecap:butt;stroke-linejoin:miter;stroke-opacity:1"
         d="m 3138.1326,3827.8737 c -0.4583,-34.3697 1.0105,-35.3684 -34.3579,-38.4 -35.3684,-3.0316 -143.4948,-15.1579 -193.0105,-32.3369 -49.5158,-17.1789 -108.1264,-42.4421 -125.3053,-43.4526 -17.179,-1.0105 -32.3369,38.4 -34.3579,84.8842 -2.0211,46.4842 -11.1158,424.4211 -12.1263,442.6106 -1.0105,18.1894 9.0947,24.2526 38.4,27.2842 29.3052,3.0315 157.6421,25.2631 224.3368,34.3579 66.6948,9.0947 109.1369,12.1263 122.2737,-19.2 13.1368,-31.3264 12.1263,-63.6632 12.1263,-94.9895 0,-31.3263 2.5734,-319.33 2.0211,-360.7579 z"
         id="path1141"
         inkscape:connector-curvature="0"
         sodipodi:nodetypes="sssssssssss" />
      <path
         style="fill:#cacaca;fill-opacity:1;stroke:none;stroke-width:1px;stroke-linecap:butt;stroke-linejoin:miter;stroke-opacity:1"
         d="m 2932.837,1604.1648 -6.4309,35.0129 c 0,0 -73.5987,42.1585 -64.3095,-19.2928 9.2891,-61.4513 33.5096,-243.5481 62.8149,-338.5375 29.3053,-94.9895 47.9403,-129.4928 65.0895,-161.6475 17.1492,-32.1548 27.3737,-52.0788 31.4158,-62.1841 4.0421,-10.1053 5.5579,-15.6632 29.8105,-14.1474 24.2526,1.5158 29.8105,9.6 30.8211,18.1895 1.0105,8.5895 -19.2,120.2526 -19.2,120.2526 z"
         id="path1147"
         inkscape:connector-curvature="0" />
      <path
         style="fill:#c2c2c2;fill-opacity:1;stroke:none;stroke-width:1px;stroke-linecap:butt;stroke-linejoin:miter;stroke-opacity:1"
         d="m 2929.4589,1648.1684 c 2.5263,-22.2316 0.5053,-38.9052 14.1474,-12.6316 13.6421,26.2737 50.021,69.2211 70.7368,84.379 20.7158,15.1579 55.0737,34.3579 80.3368,33.3474 25.2632,-1.0106 28.2948,-29.3053 28.2948,-29.3053 0,0 7.0737,-6.0632 8.0842,-72.7579 1.0105,-66.6947 4.0421,-271.8316 -8.0842,-362.7789 -12.1263,-90.9474 -33.3474,-183.9158 -37.3895,-205.1369 -4.0421,-21.221 -4.0421,-55.5789 -19.2,12.1263 -15.1579,67.7053 -42.4421,64.6737 -68.7158,164.7158 -26.2737,100.0421 -58.6105,256.6737 -72.7579,377.9369 -14.1473,121.2631 4.5474,10.1052 4.5474,10.1052 z"
         id="path1149"
         inkscape:connector-curvature="0" />
      <path
         style="fill:#d5d5d5;fill-opacity:1;stroke:none;stroke-width:1px;stroke-linecap:butt;stroke-linejoin:miter;stroke-opacity:1"
         d="m 3129.3383,3739.9548 c 0.857,25.7095 1.4291,35.7275 -31.4402,32.8693 -32.8693,-2.8582 -107.1825,-14.291 -172.9211,-32.8693 -65.7386,-18.5783 -104.1497,-45.4706 -137.4971,-48.5022 -33.3473,-3.0315 -41.4315,-1.0105 -42.4421,-30.3158 -1.0105,-29.3052 5.589,-437.0871 8.4472,-508.5421 2.8582,-71.4551 8.5746,-381.5698 22.8656,-595.9348 14.291,-214.365 31.4402,-514.476 50.0185,-697.4008 18.5783,-182.9248 25.7845,-230.2907 29.8266,-244.438 4.0421,-14.1474 6.0632,-16.1685 42.4421,-6.0632 36.379,10.1053 33.3474,16.1684 30.3158,45.4737 -3.0316,29.3052 -48.5052,403.2 -60.6316,682.1052 -12.1263,278.9053 -36.3789,628.5474 -38.4,727.579 -2.021,99.0316 1.4546,111.1448 16.8731,136.186 22.0551,35.8198 91.7076,122.7291 124.3317,159.0486 29.8349,33.2143 53.8872,56.3987 92.4729,63.5442 38.5857,7.1455 37.1566,-1.4291 38.5857,-32.8693 1.4291,-31.4402 2.8582,-1111.8399 2.8582,-1138.9928 0,-27.1529 -4.2873,-423.0136 -1.4291,-465.8866 2.8582,-42.873 11.4328,-94.3206 18.5783,-124.3317 7.1455,-30.0111 7.1455,-55.7349 8.5746,54.3058 1.4291,110.0407 0,781.7177 -1.4291,851.7436 -1.4291,70.0259 -2.0019,1113.2343 0,1173.2912 z"
         id="path1151"
         inkscape:connector-curvature="0"
         sodipodi:nodetypes="sssssssssssssssssssssss" />
      <path
         style="fill:#d7e428;fill-opacity:1;stroke:none;stroke-width:1px;stroke-linecap:butt;stroke-linejoin:miter;stroke-opacity:1"
         d="m 2781.3524,3514.8715 c -20.7325,-0.2684 -24.6935,0.2443 -25.1988,11.8653 -0.5052,11.6211 -0.5052,65.179 -0.5052,76.8 0,11.6211 4.5473,13.6422 15.1579,14.1474 10.6105,0.5053 56.5894,2.5263 88.9263,7.0737 32.3368,4.5474 112.1684,15.1579 123.2842,16.6737 11.1158,1.5158 17.1789,0 17.1789,-10.6105 0,-23.579 0,-47.1579 0,-70.7369 0,-10.1052 -3.0315,-15.6631 -14.1473,-17.6842 -11.1158,-2.021 -127.3264,-18.1895 -149.0527,-21.221 -21.7263,-3.0316 -40.0438,-6.1056 -55.6433,-6.3075 z"
         id="path1153"
         inkscape:connector-curvature="0"
         sodipodi:nodetypes="sssssssssss" />
      <path
         style="fill:#505050;fill-opacity:1;stroke:none;stroke-width:1px;stroke-linecap:butt;stroke-linejoin:miter;stroke-opacity:1"
         d="m 3083.6071,3304.0793 c 0,45.7312 -5.7164,68.5968 -52.8767,34.2984 -47.1603,-34.2984 -136.8468,-166.6127 -153.996,-189.4783 -17.1492,-22.8657 -27.1529,-44.3022 -25.7238,-84.317 1.4291,-40.0148 33.1571,-602.1245 36.8098,-683.7018 4.2873,-95.7497 40.0148,-578.7855 47.1603,-631.6622 7.1455,-52.8767 4.2873,-51.4476 31.4402,-4.2873 27.1529,47.1603 67.1677,60.0222 82.8878,68.5968 15.7201,8.5746 38.5857,374.4242 35.7275,463.0284 -2.8582,88.6042 -1.4291,986.0791 -1.4291,1027.523 z"
         id="path1155"
         inkscape:connector-curvature="0"
         sodipodi:nodetypes="ssssssssss" />
      <path
         style="fill:#292929;fill-opacity:1;stroke:none;stroke-width:1px;stroke-linecap:butt;stroke-linejoin:miter;stroke-opacity:1"
         d="m 3055.2694,1464.2526 c -2.7103,-24.1853 -5.0526,-25.2631 -23.2421,-28.2947 -18.1895,-3.0316 -33.3474,-6.0632 -32.3368,17.1789 1.0105,23.2421 -1.0106,188.9685 0,213.2211 1.0105,24.2526 6.0631,26.2737 30.3158,29.3053 24.2526,3.0315 38.4,-1.0106 39.4105,-6.0632 1.0105,-5.0526 24.9085,-174.754 25.6231,-192.6177 0.7145,-17.8638 2.8582,-23.5802 -17.8638,-25.7238 -20.7219,-2.1437 -20.9185,1.8124 -21.9067,-7.0059 z"
         id="path1157"
         inkscape:connector-curvature="0"
         sodipodi:nodetypes="sssssssss" />
      <path
         id="path1163"
         style="fill:#3f3f3f;fill-opacity:1;stroke:none;stroke-width:1px;stroke-linecap:butt;stroke-linejoin:miter;stroke-opacity:1"
         d="m 2298.8852,1570.8516 c 51.5592,5.3268 105.265,11.5375 156.9512,17.8789 4.497,94.0768 3.2539,109.8863 3.2539,121.9023 0,12.8619 1.9904,28.4829 -24.2832,30.5039 -26.2737,2.0211 -85.8946,3.032 -109.1367,2.0215 -23.2421,-1.0105 -24.2543,-4.042 -26.2754,-31.3262 -1.6655,-22.4841 -1.2652,-104.5996 -0.5098,-140.9804 z"
         inkscape:connector-curvature="0" />
      <path
         style="fill:#d67215;fill-opacity:1;stroke:none;stroke-width:1px;stroke-linecap:butt;stroke-linejoin:miter;stroke-opacity:1"
         d="m 2433.7957,1678.4842 c -1.0105,-35.3684 0.063,-39.4105 -51.4737,-39.4105 -51.5368,0 -55.6421,6.0631 -55.6421,40.421 0,34.3579 8.1474,36.379 53.6211,36.379 45.4737,0 53.4947,-3.0316 53.4947,-37.3895 z"
         id="path1165"
         inkscape:connector-curvature="0"
         sodipodi:nodetypes="csssc" />
      <path
         inkscape:connector-curvature="0"
         id="path1280"
         d="m 3068.655,1490.3948 c -30.0546,1.4312 -28.6234,-2.8624 -27.1923,51.5221 1.4312,54.3846 -1.4311,78.7145 31.4858,84.4392 32.917,5.7246 114.4937,105.9066 118.7872,157.4288 4.2935,51.5222 -21.4675,88.7326 0,97.3196 21.4676,8.5871 121.6496,40.0728 118.7872,14.3117 -2.8623,-25.761 4.2936,-64.4027 -25.761,-127.3742 -30.0546,-62.9715 -101.6132,-188.9146 -127.3743,-224.6939 -25.7611,-35.7793 -51.5221,-52.9533 -88.7326,-52.9533 z"
         style="fill:#646464;fill-opacity:1;stroke:none;stroke-width:1px;stroke-linecap:butt;stroke-linejoin:miter;stroke-opacity:1" />
      <path
         style="fill:#282828;fill-opacity:1;stroke:none;stroke-width:1px;stroke-linecap:butt;stroke-linejoin:miter;stroke-opacity:1"
         d="m 3365.3531,1925.7123 c -1.4291,-50.7331 -13.5765,-62.1659 -27.1529,-77.1714 -13.5765,-15.0056 -23.5802,-19.2929 -72.8841,-19.2929 -49.304,0 -95.0352,6.431 -108.6116,60.0222 -13.5765,53.5913 -10.5298,333.8877 -7.4982,363.193 3.0315,29.3052 -1.0106,60.6315 105.0947,61.6421 106.1053,1.0105 107.1158,-39.4106 109.1368,-83.8737 2.0211,-44.4632 3.8306,-245.2491 1.9153,-304.5193 z"
         id="path1161"
         inkscape:connector-curvature="0" />
    </g>
  </g>
</svg>
