<?xml version="1.0" encoding="UTF-8" standalone="no"?>
<svg
   xmlns:dc="http://purl.org/dc/elements/1.1/"
   xmlns:cc="http://creativecommons.org/ns#"
   xmlns:rdf="http://www.w3.org/1999/02/22-rdf-syntax-ns#"
   xmlns:svg="http://www.w3.org/2000/svg"
   xmlns="http://www.w3.org/2000/svg"
   xmlns:sodipodi="http://sodipodi.sourceforge.net/DTD/sodipodi-0.dtd"
   xmlns:inkscape="http://www.inkscape.org/namespaces/inkscape"
   inkscape:version="1.0beta2 (2b71d25, 2019-12-03)"
   sodipodi:docname="designline.svg"
   version="1.1"
   id="svg949"
   width="2407.4387"
   height="2397.0522"
   viewBox="0 0 2407.4387 2397.0522">
  <sodipodi:namedview
     fit-margin-bottom="0"
     fit-margin-right="0"
     fit-margin-left="0"
     fit-margin-top="0"
     inkscape:current-layer="svg949"
     inkscape:window-maximized="0"
     inkscape:window-y="23"
     inkscape:window-x="0"
     inkscape:cy="1810.8817"
     inkscape:cx="1249.9254"
     inkscape:zoom="0.26991485"
     showgrid="false"
     id="namedview1090"
     inkscape:window-height="855"
     inkscape:window-width="1440"
     inkscape:pageshadow="2"
     inkscape:pageopacity="0"
     guidetolerance="10"
     gridtolerance="10"
     objecttolerance="10"
     borderopacity="1"
     inkscape:document-rotation="0"
     bordercolor="#666666"
     pagecolor="#ffffff" />
  <metadata
     id="metadata955">
    <rdf:RDF>
      <cc:Work
         rdf:about="">
        <dc:format>image/svg+xml</dc:format>
        <dc:type
           rdf:resource="http://purl.org/dc/dcmitype/StillImage" />
        <dc:title></dc:title>
      </cc:Work>
    </rdf:RDF>
  </metadata>
  <defs
     id="defs953" />
  <path
     inkscape:connector-curvature="0"
     style="fill:#121212;fill-opacity:1;stroke:none;stroke-width:1px;stroke-linecap:butt;stroke-linejoin:miter;stroke-opacity:1"
     d="m 83.222633,1256.9308 c -62.65263,0 -69.72632,2.021 -76.7999999,-84.8842 -7.07369003,-86.9053 -9.09474,-203.11578 -2.02105,-254.65268 7.0736799,-51.5368 16.1684199,-61.6421 63.6631499,-61.6421 47.494737,0 71.747367,6.0632 70.736847,34.3579 -1.01053,28.2948 -55.578947,366.82108 -55.578947,366.82108 z"
     id="path1765" />
  <path
     inkscape:connector-curvature="0"
     style="fill:#1b1b1b;fill-opacity:1;stroke:none;stroke-width:1px;stroke-linecap:butt;stroke-linejoin:miter;stroke-opacity:1"
     d="m 1235.3595,44.182822 v 0.018 l -620.30863,24.2734 -262.95507,77.169898 -134.33594,362.9922 -65.73828,302.9688 -48.58984,403.00578 31.4414,260.0977 1100.48636,161.8492 v 0.068 l 0.2324,-0.035 0.2324,0.035 v -0.068 l 1100.4864,-161.8496 31.4414,-260.0977 -48.5899,-403.00578 -65.7382,-302.9688 -134.336,-362.9922 -262.9551,-77.169898 -620.3086,-24.2734 v -0.018 l -0.2324,0.01 z"
     id="path1552" />
  <path
     inkscape:connector-curvature="0"
     style="fill:#3f3f3f;fill-opacity:1;stroke:none;stroke-width:1px;stroke-linecap:butt;stroke-linejoin:miter;stroke-opacity:1"
     d="m 1213.1486,148.64372 c -174.6317,0.055 -486.97903,12.8771 -633.75793,41.1719 -167.74724,32.3368 -220.29459,113.179 -282.94722,365.8106 -62.65263,252.6316 -88.92534,476.96688 -86.90429,642.69328 2.02105,165.7263 7.07386,184.9275 28.29492,193.0117 21.22105,8.0842 134.39958,33.3479 171.78906,43.4532 230.40003,62.6526 547.70503,107.1156 703.32616,109.1367 51.4613,0.6683 90.7951,1.3356 122.4102,2.0039 v 0.01 c 0.073,0 0.1596,0 0.2324,0 0.073,0 0.1597,0 0.2324,0 v -0.01 c 31.6152,-0.6683 70.949,-1.3356 122.4102,-2.0039 155.6211,-2.0211 472.9262,-46.4841 703.3262,-109.1367 37.3895,-10.1053 150.5679,-35.369 171.789,-43.4532 21.2211,-8.0842 26.274,-27.2854 28.295,-193.0117 2.0211,-165.7264 -24.2516,-390.06168 -86.9043,-642.69328 -62.6526,-252.6316 -115.2,-333.4738 -282.9473,-365.8106 -146.7789,-28.2948 -459.1261,-41.1169 -633.7578,-41.1719 -7.8059,0 -15.2173,0.032 -22.4434,0.08 -7.2261,-0.048 -14.6375,-0.083 -22.4433,-0.08 z"
     id="path1550" />
  <path
     inkscape:connector-curvature="0"
     style="fill:#222222;fill-opacity:1;stroke:none;stroke-width:1px;stroke-linecap:butt;stroke-linejoin:miter;stroke-opacity:1"
     d="m 910.65047,1633.2512 -531.55272,337.2539 c 0,0 -285.203347,-84.7385 -312.738277,-46.3965 2.13559,27.7627 4.27148,62.6452 4.27148,74.0351 0,11.3898 28.47461,-42 28.47461,-42 l 231.669927,36.5098 223.49418,101.6797 183.2246,207.3848 60.4043,87.5859 c 0,0 5.0332,7.0474 23.1543,7.5508 18.1211,0.5034 54.3629,8e-4 73.9941,-1.0059 19.6312,-1.0068 -9.5645,-45.8066 -9.5645,-45.8066 l -131.8808,-196.3125 -315.10548,-169.1309 525.51168,-312.0859 271.35163,10.1133 v 0.017 l 0.2324,-0.01 0.2324,0.01 v -0.017 l 271.3516,-10.1133 525.5117,312.0859 -315.1054,169.1309 -131.8809,196.3125 c 0,0 -29.1957,44.7998 -9.5645,45.8066 19.6312,1.0067 55.8731,1.5093 73.9942,1.0059 18.1211,-0.5034 23.1543,-7.5508 23.1543,-7.5508 l 60.4043,-87.5859 183.2246,-207.3848 223.4941,-101.6797 231.67,-36.5098 c 0,0 28.4746,53.3898 28.4746,42 0,-11.3899 2.1358,-46.2724 4.2714,-74.0351 -27.5349,-38.342 -312.7382,46.3965 -312.7382,46.3965 l -531.5528,-337.2539 -324.9414,5.7187 z"
     id="path1541" />
  <path
     inkscape:connector-curvature="0"
     style="fill:#d3d3d3;fill-opacity:1;stroke:none;stroke-width:1px;stroke-linecap:butt;stroke-linejoin:miter;stroke-opacity:1"
     d="M 442.52353,57.722122 C 351.91799,77.856722 285.47214,166.44822 243.18955,309.40372 200.90696,452.35912 128.42286,774.51312 100.23447,975.85882 72.046083,1177.2045 63.992283,1479.2216 63.992283,1656.4056 c 0,177.1843 -1.19121,213.6024 1.65625,253.4668 2.84745,39.8644 1.42367,45.5598 27.05078,34.17 25.627117,-11.3899 135.253607,-3e-4 214.982427,22.7793 79.72881,22.7797 51.25446,29.8976 115.32226,-8.543 64.0678,-38.4407 190.77887,-108.2033 242.03317,-139.5254 51.2542,-31.322 224.2378,-135.9657 244.17,-147.3555 19.9322,-11.3898 27.4066,-18.5078 55.5253,-18.5078 27.3661,0 243.94653,8.0787 270.62703,7.8555 v 0 c 0.053,7e-4 0.1776,0 0.2324,0 0.055,-6e-4 0.1794,0 0.2324,0 v 0 c 26.6806,0.2232 243.261,-7.8555 270.627,-7.8555 28.1187,0 35.5932,7.118 55.5254,18.5078 19.9322,11.3898 192.9157,116.0335 244.1699,147.3555 51.2543,31.3221 177.9654,101.0847 242.0332,139.5254 64.0678,38.4406 35.5935,31.3227 115.3223,8.543 79.7289,-22.7796 189.3552,-34.1692 214.9824,-22.7793 25.6271,11.3898 24.2034,5.6944 27.0508,-34.17 2.8475,-39.8644 1.6562,-76.2825 1.6562,-253.4668 0,-177.184 -8.0538,-479.2011 -36.2422,-680.54678 -28.1884,-201.3457 -100.6724,-523.4997 -142.955,-666.4551 C 2185.7117,166.44822 2119.2659,77.856722 2028.6603,57.722122 1755.924,27.361922 1494.9399,-0.44187797 1235.5919,0.00532203 972.41477,0.45912203 701.25397,5.991322 442.52353,57.722122 Z m 787.00767,13.0768 c 143.8379,1.0065 240.8216,3.4908 391.5295,12.4288 200.7457,12.8136 357.3571,34.170198 437.0859,93.966798 79.7288,59.7966 128.1355,185.0844 165.1524,330.3047 37.017,145.2203 86.8465,398.6449 98.2363,543.86518 11.3899,145.2203 0,314.6427 -5.6934,343.1172 -5.6949,28.4746 -7.1186,32.747 -55.5254,45.5606 -48.4068,12.8135 -351.6617,108.2031 -569.4922,135.2539 -208.5565,25.8992 -376.2683,26.3467 -455.2324,26.9629 -78.964,-0.6162 -246.67593,-1.0637 -455.23243,-26.9629 -217.8305,-27.0508 -521.08541,-122.4404 -569.49219,-135.2539 -48.40678,-12.8136 -49.83047,-17.086 -55.52539,-45.5606 -5.69491,-28.4745 -17.08319,-197.8969 -5.69336,-343.1172 11.38983,-145.22028 61.21938,-398.64488 98.23633,-543.86518 37.01694,-145.2203 85.42352,-270.5081 165.15234,-330.3047 79.72881,-59.7966 236.34027,-81.153198 437.08597,-93.966798 106.1167,-6.7734 237.87193,-13.4192 379.40803,-12.4288 z"
     id="path1523" />
  <path
     inkscape:connector-curvature="0"
     style="fill:#d2d2d2;fill-opacity:1;stroke:none;stroke-width:1px;stroke-linecap:butt;stroke-linejoin:miter;stroke-opacity:1"
     d="m 980.15827,1658.5461 c -1.0266,0 -1.9014,0.015 -2.6133,0.037 -22.7796,0.7119 -33.4562,-2.1355 -64.0664,16.373 -30.6101,18.5085 -206.4405,128.1362 -265.5253,161.5938 -59.0851,33.4577 -221.39084,127.4248 -237.76372,140.2383 -16.37288,12.8136 -19.93107,16.3715 2.13672,23.4902 22.0678,7.1186 100.37141,33.4577 175.1172,85.4238 74.7458,51.9661 132.4078,120.3051 183.6621,196.4746 51.2542,76.1695 50.9535,78.9381 64.041,94.0391 13.0874,15.1009 19.128,22.1491 65.4375,19.1289 45.2829,-2.9532 252.39343,-3.9815 335.00783,-4.9668 82.6145,0.9853 289.725,2.0136 335.0078,4.9668 46.3095,3.0202 52.3501,-4.028 65.4375,-19.1289 13.0875,-15.101 12.7869,-17.8696 64.0411,-94.0391 51.2543,-76.1695 108.9163,-144.5085 183.6621,-196.4746 74.7458,-51.9661 153.0493,-78.3052 175.1171,-85.4238 22.0678,-7.1187 18.5097,-10.6766 2.1368,-23.4902 -16.3729,-12.8135 -178.6787,-106.7806 -237.7637,-140.2383 -59.0848,-33.4576 -234.9153,-143.0853 -265.5254,-161.5938 -30.6102,-18.5085 -41.2868,-15.6611 -64.0664,-16.373 -0.7119,-0.022 -1.5867,-0.037 -2.6133,-0.037 -30.7384,-0.1008 -198.0387,7.9704 -255.4336,8.5234 -57.3949,-0.553 -224.6952,-8.6242 -255.43363,-8.5234 z"
     id="path1525" />
  <path
     inkscape:connector-curvature="0"
     style="fill:#d2d2d2;fill-opacity:1;stroke:none;stroke-width:1px;stroke-linecap:butt;stroke-linejoin:miter;stroke-opacity:1"
     d="m 126.45127,1943.4406 c -15.71735,0.118 -25.46077,1.581 -30.746097,2.9024 -14.09419,3.5234 -25.54535,5.9112 -25.67187,30.2031 -0.37766,72.5115 17.11327,256.7152 26.17383,306.0449 9.060547,49.3297 13.088507,74.4975 46.310537,79.5312 33.22203,5.0336 30.20148,4.0265 188.25782,14.0938 158.05635,10.0672 468.12838,19.1286 494.80668,20.6387 26.6783,1.5101 -1.0065,-14.0935 -25.168,-48.3223 -24.1614,-34.2287 -57.383,-95.1374 -122.8203,-170.1387 -65.4374,-75.0012 -161.58038,-129.867 -214.43362,-151.5117 -52.85323,-21.6446 -95.13586,-43.29 -201.3457,-65.9414 -66.38115,-14.1571 -109.1677,-17.6966 -135.36328,-17.5 z"
     id="path1527" />
  <path
     inkscape:connector-curvature="0"
     style="fill:#dedede;fill-opacity:1;stroke:none;stroke-width:1px;stroke-linecap:butt;stroke-linejoin:miter;stroke-opacity:1"
     d="m 166.37509,1422.466 c 0.10249,0.7995 0.19644,1.5807 0.30469,2.3926 8.05383,60.4037 39.91694,220.2007 249.20508,354.0312 54.55976,34.8886 108.92651,64.6372 163.04881,89.8496 18.1273,-10.3134 35.4213,-20.1933 50.5879,-28.9843 -190.9988,-84.2621 -324.4363,-190.0756 -394.38476,-282.0079 -34.79791,-45.7344 -48.96205,-90.9607 -55.12695,-127.2285 -6.13761,-2.5009 -10.44825,-5.0462 -13.63477,-8.0527 z m 2138.43361,0 c -3.1865,3.0065 -7.4971,5.5518 -13.6347,8.0527 -6.1649,36.2678 -20.3291,81.4941 -55.127,127.2285 -69.9485,91.9323 -203.386,197.7458 -394.3848,282.0079 15.1666,8.791 32.4606,18.6709 50.5879,28.9843 54.1223,-25.2124 108.4892,-54.961 163.0489,-89.8496 209.2882,-133.8305 241.1512,-293.6275 249.205,-354.0312 0.1082,-0.8119 0.2022,-1.5931 0.3047,-2.3926 z M 636.77157,1842.923 c -14.1679,8.0669 -31.1701,17.8039 -50.7422,29.0957 151.062,69.2918 300.2049,103.3346 446.33013,114.7344 95.3777,7.4408 159.9925,11.3263 203,13.2227 v 0.021 c 0.073,0 0.1595,-0.01 0.2324,-0.012 0.073,0 0.1596,0.01 0.2324,0.012 v -0.021 c 43.0075,-1.8964 107.6223,-5.7819 203,-13.2227 146.1252,-11.3998 295.2681,-45.4426 446.3301,-114.7344 -19.5721,-11.2918 -36.5743,-21.0288 -50.7422,-29.0957 -183.5675,79.4713 -392.3242,92.2827 -598.8203,100.2481 -206.496,-7.9654 -415.25273,-20.7768 -598.82033,-100.2481 z"
     id="path1529" />
  <path
     inkscape:connector-curvature="0"
     style="fill:#e9e9e9;fill-opacity:1;stroke:none;stroke-width:1px;stroke-linecap:butt;stroke-linejoin:miter;stroke-opacity:1"
     d="m 219.02891,2004.7339 c 49.32969,2.0135 76.51135,36.2422 74.4979,83.5585 -2.01346,47.3162 -33.22204,73.4911 -71.47771,72.4844 -38.25568,-1.0067 -73.49117,-25.1682 -74.4979,-81.545 -1.00673,-56.3768 31.20858,-73.4912 71.47771,-74.4979 z"
     id="path1537" />
  <path
     inkscape:connector-curvature="0"
     style="fill:#d67b1b;fill-opacity:1;stroke:none;stroke-width:1px;stroke-linecap:butt;stroke-linejoin:miter;stroke-opacity:1"
     d="m 369.03143,2065.1376 c 36.24222,1.0067 57.38351,28.1884 58.39024,65.4374 1.00673,37.2489 -26.17494,58.3902 -53.3566,59.3969 -27.18166,1.0068 -61.41043,-8.0538 -61.41043,-60.4037 0,-52.3498 30.20185,-64.4306 56.37679,-64.4306 z"
     id="path1539" />
  <path
     inkscape:connector-curvature="0"
     style="fill:#c6c6c6;fill-opacity:1;stroke:none;stroke-width:1px;stroke-linecap:butt;stroke-linejoin:miter;stroke-opacity:1"
     d="m 1045.5685,2098.5715 c -27.9324,-0.2001 -23.8887,2.6637 -23.8887,24.2343 0,21.2831 0.5762,86.858 1.7266,98.9375 1.1505,12.0796 4.0257,16.6827 18.4062,17.2579 13.1994,0.5279 146.9684,4.9258 193.7793,3.4218 46.811,1.504 180.58,-2.8939 193.7793,-3.4218 14.3805,-0.5752 17.2558,-5.1783 18.4063,-17.2579 1.1504,-12.0795 1.7265,-77.6544 1.7265,-98.9375 0,-21.5706 4.0438,-24.4344 -23.8886,-24.2343 -1.8621,0.013 -3.8665,0.04 -6.0235,0.076 -32.2637,0.5379 -155.6616,1.5726 -184,2.1758 -28.3384,-0.6032 -151.7363,-1.6379 -184,-2.1758 -2.157,-0.036 -4.1613,-0.063 -6.0234,-0.076 z"
     id="path1543" />
  <path
     inkscape:connector-curvature="0"
     style="fill:#999999;fill-opacity:1;stroke:none;stroke-width:1px;stroke-linecap:butt;stroke-linejoin:miter;stroke-opacity:1"
     d="m 1035.006,2098.7472 c -16.2195,0.918 -13.3262,5.743 -13.3262,24.0586 0,21.2831 0.5762,86.858 1.7266,98.9375 0.4789,5.0288 1.2721,8.7458 3.0547,11.4317 3.3233,0.9708 4.9292,-2.4735 4.4238,-12.582 -1.0001,-19.9999 3.6434,-94.7013 4.1211,-121.8458 z"
     id="path1545" />
  <path
     inkscape:connector-curvature="0"
     style="fill:#343434;fill-opacity:1;stroke:none;stroke-width:1px;stroke-linecap:butt;stroke-linejoin:miter;stroke-opacity:1"
     d="m 579.39067,189.81562 c -150.72641,29.0557 -208.44457,97.3015 -264.05659,294.1152 232.01569,-1.0852 636.79789,-0.5077 920.25782,-1.7871 283.4599,1.2794 688.2421,0.7019 920.2578,1.7871 -55.612,-196.8137 -113.3301,-265.0595 -264.0566,-294.1152 -216.5863,-28.3218 -440.354,-41.5001 -656.2012,-41.0919 -226.3138,0.428 -442.78703,2.3707 -656.20123,41.0919 z"
     id="path1556" />
  <path
     inkscape:connector-curvature="0"
     style="fill:#292929;fill-opacity:1;stroke:none;stroke-width:1px;stroke-linecap:butt;stroke-linejoin:miter;stroke-opacity:1"
     d="m 1235.3595,189.81372 c -144.362,-0.01 -580.02723,0.2022 -613.16023,1.4765 -38.7422,1.4901 -44.7032,1.4906 -46.1933,23.8418 -1.4901,22.3513 -4.4707,156.4586 -4.4707,190.7305 0,34.2719 2.9803,41.7226 40.2324,41.7226 0,0 415.72793,0 623.59183,0 208.0189,0 416.0377,0 624.0566,0 37.2521,0 40.2325,-7.4507 40.2325,-41.7226 0,-34.2719 -2.9806,-168.3792 -4.4707,-190.7305 -1.4901,-22.3512 -7.4512,-22.3517 -46.1934,-23.8418 -204.5347,-1.5467 -409.0838,-1.4663 -613.625,-1.4765 z"
     id="path1561" />
  <path
     inkscape:connector-curvature="0"
     style="fill:#2a2a2a;fill-opacity:1;stroke:none;stroke-width:1px;stroke-linecap:butt;stroke-linejoin:miter;stroke-opacity:1"
     d="m 542.14657,198.34882 c -62.69038,16.9401 -107.10447,43.9734 -142.27538,89.9961 -0.7789,37.3443 -0.25431,65.3027 0.5625,77.1465 1.08117,15.677 4.32551,31.8949 28.11133,32.4355 23.78581,0.5406 66.49205,1.0817 81.08789,0.5411 14.59586,-0.5406 29.73286,-1.6225 30.27346,-20.543 0.489,-17.1169 2.2986,-147.5852 2.2402,-179.5762 z"
     id="path1569" />
  <path
     inkscape:connector-curvature="0"
     style="fill:#d5d5d5;fill-opacity:1;stroke:none;stroke-width:1px;stroke-linecap:butt;stroke-linejoin:miter;stroke-opacity:1"
     d="m 471.36901,314.38012 c 46.93759,0.745 50.66276,5.2153 51.40776,39.4872 0.7451,34.2719 -6.7053,33.5268 -51.40776,33.5268 -44.70247,0 -49.91775,3.7252 -49.17271,-34.2719 0.74504,-37.9971 2.98016,-37.252 49.17271,-38.7421 z"
     id="path1565" />
  <path
     inkscape:connector-curvature="0"
     style="fill:#ba6722;fill-opacity:1;stroke:none;stroke-width:1px;stroke-linecap:butt;stroke-linejoin:miter;stroke-opacity:1"
     d="m 471.9509,299.40992 c 47.68267,1.4901 50.66277,-12.6657 50.66277,-23.8413 0,-11.1757 -9.68551,-16.3909 -51.40781,-17.881 -41.7223,-1.4901 -47.68263,9.6855 -47.68263,19.371 0,9.6856 5.96033,23.8414 48.42767,22.3513 z"
     id="path1567" />
  <path
     inkscape:connector-curvature="0"
     id="path1700"
     d="m 2344.7325,1943.4406 c 15.7174,0.118 25.4608,1.581 30.7461,2.9024 14.0942,3.5234 25.5454,5.9112 25.6719,30.2031 0.3776,72.5115 -17.1133,256.7152 -26.1739,306.0449 -9.0605,49.3297 -13.0885,74.4975 -46.3105,79.5312 -33.222,5.0336 -30.2015,4.0265 -188.2578,14.0938 -158.0564,10.0672 -468.1284,19.1286 -494.8067,20.6387 -26.6783,1.5101 1.0065,-14.0935 25.168,-48.3223 24.1614,-34.2287 57.383,-95.1374 122.8203,-170.1387 65.4374,-75.0012 161.5804,-129.867 214.4336,-151.5117 52.8533,-21.6446 95.1359,-43.29 201.3457,-65.9414 66.3812,-14.1571 109.1677,-17.6966 135.3633,-17.5 z"
     style="fill:#d2d2d2;fill-opacity:1;stroke:none;stroke-width:1px;stroke-linecap:butt;stroke-linejoin:miter;stroke-opacity:1" />
  <path
     inkscape:connector-curvature="0"
     id="path1704"
     d="m 2252.1549,2004.7339 c -49.3297,2.0135 -76.5114,36.2422 -74.4979,83.5585 2.0134,47.3162 33.222,73.4911 71.4777,72.4844 38.2557,-1.0067 73.4911,-25.1682 74.4979,-81.545 1.0067,-56.3768 -31.2086,-73.4912 -71.4777,-74.4979 z"
     style="fill:#e9e9e9;fill-opacity:1;stroke:none;stroke-width:1px;stroke-linecap:butt;stroke-linejoin:miter;stroke-opacity:1" />
  <path
     inkscape:connector-curvature="0"
     id="path1706"
     d="m 2102.1523,2065.1376 c -36.2422,1.0067 -57.3835,28.1884 -58.3902,65.4374 -1.0067,37.2489 26.1749,58.3902 53.3566,59.3969 27.1817,1.0068 61.4104,-8.0538 61.4104,-60.4037 0,-52.3498 -30.2018,-64.4306 -56.3768,-64.4306 z"
     style="fill:#d67b1b;fill-opacity:1;stroke:none;stroke-width:1px;stroke-linecap:butt;stroke-linejoin:miter;stroke-opacity:1" />
  <path
     inkscape:connector-curvature="0"
     id="path1710"
     d="m 1436.1778,2098.7472 c 16.2195,0.918 13.3262,5.743 13.3262,24.0586 0,21.2831 -0.5762,86.858 -1.7266,98.9375 -0.4789,5.0288 -1.2721,8.7458 -3.0547,11.4317 -3.3233,0.9708 -4.9292,-2.4735 -4.4238,-12.582 1.0001,-19.9999 -3.6434,-94.7013 -4.1211,-121.8458 z"
     style="fill:#999999;fill-opacity:1;stroke:none;stroke-width:1px;stroke-linecap:butt;stroke-linejoin:miter;stroke-opacity:1" />
  <path
     inkscape:connector-curvature="0"
     id="path1716"
     d="m 1929.0372,198.34882 c 62.6904,16.9401 107.1045,43.9734 142.2754,89.9961 0.7789,37.3443 0.2543,65.3027 -0.5625,77.1465 -1.0812,15.677 -4.3255,31.8949 -28.1113,32.4355 -23.7859,0.5406 -66.4921,1.0817 -81.0879,0.5411 -14.5959,-0.5406 -29.7329,-1.6225 -30.2735,-20.543 -0.489,-17.1169 -2.2986,-147.5852 -2.2402,-179.5762 z"
     style="fill:#2a2a2a;fill-opacity:1;stroke:none;stroke-width:1px;stroke-linecap:butt;stroke-linejoin:miter;stroke-opacity:1" />
  <path
     inkscape:connector-curvature="0"
     id="path1718"
     d="m 1999.8148,314.38012 c -46.9376,0.745 -50.6628,5.2153 -51.4078,39.4872 -0.7451,34.2719 6.7053,33.5268 51.4078,33.5268 44.7024,0 49.9177,3.7252 49.1727,-34.2719 -0.7451,-37.9971 -2.9802,-37.252 -49.1727,-38.7421 z"
     style="fill:#d5d5d5;fill-opacity:1;stroke:none;stroke-width:1px;stroke-linecap:butt;stroke-linejoin:miter;stroke-opacity:1" />
  <path
     inkscape:connector-curvature="0"
     id="path1720"
     d="m 1999.2329,299.40992 c -47.6827,1.4901 -50.6628,-12.6657 -50.6628,-23.8413 0,-11.1757 9.6855,-16.3909 51.4078,-17.881 41.7223,-1.4901 47.6826,9.6855 47.6826,19.371 0,9.6856 -5.9603,23.8414 -48.4276,22.3513 z"
     style="fill:#ba6722;fill-opacity:1;stroke:none;stroke-width:1px;stroke-linecap:butt;stroke-linejoin:miter;stroke-opacity:1" />
</svg>
