<?xml version="1.0" encoding="UTF-8" standalone="no"?>
<svg
   xmlns:dc="http://purl.org/dc/elements/1.1/"
   xmlns:cc="http://creativecommons.org/ns#"
   xmlns:rdf="http://www.w3.org/1999/02/22-rdf-syntax-ns#"
   xmlns:svg="http://www.w3.org/2000/svg"
   xmlns="http://www.w3.org/2000/svg"
   xmlns:sodipodi="http://sodipodi.sourceforge.net/DTD/sodipodi-0.dtd"
   xmlns:inkscape="http://www.inkscape.org/namespaces/inkscape"
   inkscape:version="1.1-dev (ddb55ca, 2020-02-02)"
   sodipodi:docname="e.svg"
   viewBox="0 0 1948.2918 2443.0754"
   height="2443.0754"
   width="1948.2917"
   id="svg220"
   version="1.1">
  <metadata
     id="metadata226">
    <rdf:RDF>
      <cc:Work
         rdf:about="">
        <dc:format>image/svg+xml</dc:format>
        <dc:type
           rdf:resource="http://purl.org/dc/dcmitype/StillImage" />
        <dc:title></dc:title>
      </cc:Work>
    </rdf:RDF>
  </metadata>
  <defs
     id="defs224" />
  <sodipodi:namedview
     inkscape:snap-global="false"
     inkscape:current-layer="g228"
     inkscape:window-maximized="1"
     inkscape:window-y="23"
     inkscape:window-x="0"
     inkscape:cy="1221.5377"
     inkscape:cx="974.14587"
     inkscape:zoom="0.2721979"
     showgrid="false"
     id="namedview222"
     inkscape:window-height="855"
     inkscape:window-width="1440"
     inkscape:pageshadow="2"
     inkscape:pageopacity="0"
     guidetolerance="10"
     gridtolerance="10"
     objecttolerance="10"
     borderopacity="1"
     bordercolor="#666666"
     pagecolor="#ffffff" />
  <g
     transform="translate(-1816.6092,-955.62996)"
     id="g228"
     inkscape:label="Image"
     inkscape:groupmode="layer">
    <path
       style="fill:#2a2a2a;fill-opacity:1;stroke:none;stroke-width:1px;stroke-linecap:butt;stroke-linejoin:miter;stroke-opacity:1"
       d="m 3717.9454,1307.7207 c 0.037,5.2366 0.4659,7.4588 0.5079,11.0918 0.042,3.633 -105.0972,-6.3681 -105.0972,-6.3681 l 7.1802,-27.4387 c 0,0 95.8335,12.3496 97.4091,22.715 z"
       id="path1323"
       inkscape:connector-curvature="0" />
    <path
       id="path1218"
       style="fill:#1f1f1f;fill-opacity:1;stroke:none;stroke-width:1px;stroke-linecap:butt;stroke-linejoin:miter;stroke-opacity:1"
       d="m 2790.5044,2621.3351 v 0 l -574.6719,2.1211 -353.2265,-1.4511 c 0,0 -39.5306,-0.907 -39.5586,2.371 -0.028,3.278 -0.5159,5.7886 -0.2774,9.8321 0.2385,4.0435 8.2832,5.9297 8.2832,5.9297 l 250.5957,27.5625 58.0254,188.58 258.2129,53.6739 392.6172,9.7812 v 0.012 l 0.2519,-0.01 0.25,0.01 v -0.012 l 392.6172,-9.7812 258.2129,-53.6739 58.0254,-188.58 250.5957,-27.5625 c 0,0 8.0447,-1.8862 8.2832,-5.9297 0.2385,-4.0435 -0.2493,-6.5541 -0.2773,-9.8321 -0.028,-3.278 -39.5586,-2.371 -39.5586,-2.371 l -353.2266,1.4511 -574.6719,-2.1211 v 0 h -0.25 z m -671.1387,34.7617 671.1387,7.0781 v 0.01 h 0.2519 0.25 v -0.01 l 671.1387,-7.0781 -36.2656,124.7539 -132.0078,78.334 -503.1153,8.5762 -503.1171,-8.5762 -132.0079,-78.334 z"
       inkscape:connector-curvature="0" />
    <path
       inkscape:connector-curvature="0"
       id="path1317"
       style="fill:#2e2e2e;fill-opacity:1;stroke:none;stroke-width:1px;stroke-linecap:butt;stroke-linejoin:miter;stroke-opacity:1"
       d="m 3728.549,1602.3223 c 10.9606,346.2116 25.5334,867.1295 29.914,1022.0566 -5.5418,5.3083 -17.4748,7.9539 -47.5351,10.3223 -59.8383,4.7145 -229.1241,4.5488 -259.8965,4.5488 -30.7724,0 121.3613,-1033.4063 121.3613,-1033.4062 z" />
    <path
       d="m 1852.9609,1602.3223 c -10.9606,346.2116 -25.5334,867.1295 -29.914,1022.0566 5.5418,5.3083 17.4748,7.9539 47.5351,10.3223 59.8383,4.7145 229.1241,4.5488 259.8965,4.5488 30.7724,0 -121.3613,-1033.4063 -121.3613,-1033.4062 z"
       style="fill:#2e2e2e;fill-opacity:1;stroke:none;stroke-width:1px;stroke-linecap:butt;stroke-linejoin:miter;stroke-opacity:1"
       id="path1160"
       inkscape:connector-curvature="0" />
    <path
       id="path1137"
       style="fill:#393939;fill-opacity:1;stroke:none;stroke-width:1px;stroke-linecap:butt;stroke-linejoin:miter;stroke-opacity:1"
       d="m 2790.5044,1628.2393 v 0.01 l -748.0215,10.961 40.6172,449.6933 78.334,499.0157 629.3222,-60.7246 629.3204,60.7246 78.3339,-499.0157 40.6172,-449.6933 -748.0215,-10.961 v -0.01 h -0.25 z"
       inkscape:connector-curvature="0" />
    <path
       d="m 2791.0059,956.13281 c -260.8653,1.48515 -652.9178,15.69007 -786.6954,40.89453 -136.5916,25.73466 -133.7409,150.81126 -140.746,310.69336 23.9415,-6.5265 59.1032,-10.6332 97.6835,-12.3105 65.1972,-2.8348 646.1678,-12.7388 829.7579,-17.0196 z"
       style="fill:none;stroke:#000000;stroke-width:1px;stroke-linecap:butt;stroke-linejoin:miter;stroke-opacity:1"
       id="path258"
       inkscape:connector-curvature="0" />
    <path
       inkscape:connector-curvature="0"
       id="path1156"
       d="m 1863.5645,1307.7207 c -0.037,5.2366 -0.4659,7.4588 -0.5079,11.0918 -0.042,3.633 105.0972,-6.3681 105.0972,-6.3681 l -7.1802,-27.4387 c 0,0 -95.8335,12.3496 -97.4091,22.715 z"
       style="fill:#2a2a2a;fill-opacity:1;stroke:none;stroke-width:1px;stroke-linecap:butt;stroke-linejoin:miter;stroke-opacity:1" />
    <g
       id="g1111">
      <path
         id="path1101"
         style="fill:#9ac193;fill-opacity:1;stroke:none;stroke-width:1px;stroke-linecap:butt;stroke-linejoin:miter;stroke-opacity:1"
         d="m 2042.709,990.99023 c -14.414,1.93686 -27.311,3.94817 -38.3985,6.03711 -87.6407,16.51206 -117.8736,73.92366 -130.1386,155.18356 l 122.959,-5.4238 z"
         inkscape:connector-curvature="0" />
      <path
         sodipodi:nodetypes="ccccc"
         inkscape:connector-curvature="0"
         id="path1096"
         style="fill:#70a072;fill-opacity:1;stroke:none;stroke-width:1px;stroke-linecap:butt;stroke-linejoin:miter;stroke-opacity:1"
         d="m 1968.9225,1131.9133 c -36.7783,0.8265 -70.8335,4.3041 -92.9616,9.3777 -8.4428,47.7483 -9.6818,104.4721 -12.3964,166.4297 19.7954,-5.3963 47.2713,-9.1345 77.998,-11.2168 z" />
      <path
         sodipodi:nodetypes="ccscc"
         inkscape:connector-curvature="0"
         id="path1091"
         style="fill:#406340;fill-opacity:1;stroke:none;stroke-width:1px;stroke-linecap:butt;stroke-linejoin:miter;stroke-opacity:1"
         d="m 1981.5561,1120.6099 c -58.5122,40.3533 -84.7835,132.0782 -89.2436,181.187 20.0895,-3.1581 43.7733,-5.2928 68.9355,-6.3867 8.284,-0.3602 25.0371,-0.8361 48.1016,-1.3985 z" />
    </g>
    <g
       id="g1154">
      <path
         id="path1139"
         style="fill:#70a072;fill-opacity:1;stroke:none;stroke-width:1px;stroke-linecap:butt;stroke-linejoin:miter;stroke-opacity:1"
         d="m 1894.3008,1313.7988 c -11.2988,1.6783 -22.19,3.4395 -31.2442,5.0137 -0.1005,2.1537 -0.1932,4.2877 -0.2988,6.4531 -2.3356,47.8802 -6.3558,166.9649 -10.9746,314.6211 20.3592,-7.4878 55.8726,-9.874 94.7773,-10.6367 z"
         inkscape:connector-curvature="0" />
      <path
         sodipodi:nodetypes="sscccss"
         inkscape:connector-curvature="0"
         id="path1144"
         style="fill:#406340;fill-opacity:1;stroke:none;stroke-width:1px;stroke-linecap:butt;stroke-linejoin:miter;stroke-opacity:1"
         d="m 1960.8438,1307.0781 c -0.8241,-0.01 -1.6818,-0.01 -2.5704,0 -16.3094,0.1982 -43.0609,3.5508 -67.1601,7.1934 -10.6094,104.6165 -0.9393,249.7019 29.1875,315.8164 25.6797,-1.1896 54.3161,-1.2031 81.959,-1.2031 0,0 -20.5143,-313.8807 -29.7461,-320.0352 -1.7671,-1.178 -5.9015,-1.7169 -11.6699,-1.7754 z" />
    </g>
    <g
       transform="matrix(-1,0,0,1,5581.5099,0)"
       id="g1337">
      <path
         inkscape:connector-curvature="0"
         d="m 1894.3008,1313.7988 c -11.2988,1.6783 -22.19,3.4395 -31.2442,5.0137 -0.1005,2.1537 -0.1932,4.2877 -0.2988,6.4531 -2.3356,47.8802 -6.3558,166.9649 -10.9746,314.6211 20.3592,-7.4878 55.8726,-9.874 94.7773,-10.6367 z"
         style="fill:#70a072;fill-opacity:1;stroke:none;stroke-width:1px;stroke-linecap:butt;stroke-linejoin:miter;stroke-opacity:1"
         id="path1333" />
      <path
         d="m 1960.8438,1307.0781 c -0.8241,-0.01 -1.6818,-0.01 -2.5704,0 -16.3094,0.1982 -43.0609,3.5508 -67.1601,7.1934 -10.6094,104.6165 -0.9393,249.7019 29.1875,315.8164 25.6797,-1.1896 54.3161,-1.2031 81.959,-1.2031 0,0 -20.5143,-313.8807 -29.7461,-320.0352 -1.7671,-1.178 -5.9015,-1.7169 -11.6699,-1.7754 z"
         style="fill:#406340;fill-opacity:1;stroke:none;stroke-width:1px;stroke-linecap:butt;stroke-linejoin:miter;stroke-opacity:1"
         id="path1335"
         inkscape:connector-curvature="0"
         sodipodi:nodetypes="sscccss" />
    </g>
    <path
       id="path1113"
       style="fill:#252525;fill-opacity:1;stroke:none;stroke-width:1px;stroke-linecap:butt;stroke-linejoin:miter;stroke-opacity:1"
       d="m 2790.5044,1234.5831 v 0.037 l -831.4981,60.8965 c 8.0438,143.504 50.2661,593.1981 61.8711,704.8965 11.6051,111.6982 70.2017,606.3615 71.6524,622.3184 1.4506,15.9569 7.5974,16.3537 22.1211,16.5019 17.7701,0.1813 296.8833,2.0668 385.0976,1.0409 84.1527,-0.9784 250.7691,-3.7927 291.0059,-4.0526 40.2343,0.2598 206.8542,3.0742 291.0078,4.0526 88.2143,1.0259 367.3256,-0.8596 385.0957,-1.0409 14.5237,-0.1482 20.6725,-0.545 22.1231,-16.5019 1.4507,-15.9569 60.0472,-510.6202 71.6523,-622.3184 11.605,-111.6983 53.8273,-561.3925 61.8711,-704.8965 l -831.4981,-60.8965 v -0.037 l -0.25,0.018 z m 0.2519,422.0625 c 88.8762,0.3127 622.81,5.0644 667.4551,5.0644 46.1587,0 50.2625,3.0769 48.211,40.0039 -2.0515,36.9269 -74.0157,746.2168 -81.9942,800.6153 -7.9784,54.3985 -44.9696,28.2879 -96.4668,-0.7246 -51.4973,-29.0126 -77.6071,-36.9902 -126.2031,-36.9902 h -410.752 -0.5019 -410.752 c -48.596,0 -74.7058,7.9776 -126.2031,36.9902 -51.4972,29.0125 -88.4884,55.1231 -96.4668,0.7246 -7.9785,-54.3985 -79.9426,-763.6884 -81.9941,-800.6153 -2.0515,-36.927 2.0522,-40.0039 48.2109,-40.0039 44.6454,0 578.5846,-4.7518 667.457,-5.0644 z"
       inkscape:connector-curvature="0" />
    <g
       transform="matrix(-1,0,0,1,5581.5099,0)"
       id="g1331">
      <path
         inkscape:connector-curvature="0"
         d="m 2042.709,990.99023 c -14.414,1.93686 -27.311,3.94817 -38.3985,6.03711 -87.6407,16.51206 -117.8736,73.92366 -130.1386,155.18356 l 122.959,-5.4238 z"
         style="fill:#9ac193;fill-opacity:1;stroke:none;stroke-width:1px;stroke-linecap:butt;stroke-linejoin:miter;stroke-opacity:1"
         id="path1325" />
      <path
         d="m 1968.9225,1131.9133 c -36.7783,0.8265 -70.8335,4.3041 -92.9616,9.3777 -8.4428,47.7483 -9.6818,104.4721 -12.3964,166.4297 19.7954,-5.3963 47.2713,-9.1345 77.998,-11.2168 z"
         style="fill:#70a072;fill-opacity:1;stroke:none;stroke-width:1px;stroke-linecap:butt;stroke-linejoin:miter;stroke-opacity:1"
         id="path1327"
         inkscape:connector-curvature="0"
         sodipodi:nodetypes="ccccc" />
      <path
         d="m 1981.5561,1120.6099 c -58.5122,40.3533 -84.7835,132.0782 -89.2436,181.187 20.0895,-3.1581 43.7733,-5.2928 68.9355,-6.3867 8.284,-0.3602 25.0371,-0.8361 48.1016,-1.3985 z"
         style="fill:#406340;fill-opacity:1;stroke:none;stroke-width:1px;stroke-linecap:butt;stroke-linejoin:miter;stroke-opacity:1"
         id="path1329"
         inkscape:connector-curvature="0"
         sodipodi:nodetypes="ccscc" />
    </g>
    <path
       inkscape:connector-curvature="0"
       transform="translate(1816.604,955.62996)"
       d="m 973.90039,0.50195312 v 0.003906 C 719.16745,1.9708733 339.78929,15.549627 197.60547,39.640625 c -43.4745,39.78792 -55.68135,81.768295 -57.31445,153.624995 -1.6887,74.3045 0.0659,118.9933 2.11132,146.6211 0.7491,-0.035 1.49039,-0.075 2.24219,-0.10742 65.17098,-2.83366 645.67223,-12.73008 829.50781,-17.01368 183.83746,4.28362 764.33506,14.18003 829.50586,17.01368 0.7518,0.0324 1.4931,0.0724 2.2422,0.10742 2.0454,-27.6278 3.8,-72.3166 2.1113,-146.6211 -1.6331,-71.8567 -13.8399,-113.837075 -57.3144,-153.624995 C 1608.5134,15.549627 1229.1353,1.9708733 974.40234,0.50585938 v -0.003906 c -0.0821,4.6749e-4 -0.16786,0.001483 -0.25,0.001953 -0.0828,-4.737e-4 -0.16919,-0.001482 -0.25195,-0.001953 z"
       style="fill:#2a2a2a;fill-opacity:1;stroke:none;stroke-width:1px;stroke-linecap:butt;stroke-linejoin:miter;stroke-opacity:1"
       id="path263" />
    <path
       id="path1119"
       style="fill:#2e2e2e;fill-opacity:1;stroke:none;stroke-width:1px;stroke-linecap:butt;stroke-linejoin:miter;stroke-opacity:1"
       d="m 2370.5044,1347.8311 c -48.2101,0 -53.3398,15.3873 -53.3398,103.6016 0,88.2143 14.3602,85.1367 62.5703,85.1367 h 410.7695 0.5019 410.7696 c 48.2101,0 62.5703,3.0776 62.5703,-85.1367 0,-88.2143 -5.1298,-103.6016 -53.3399,-103.6016 h -420 -0.5019 z"
       inkscape:connector-curvature="0" />
    <path
       inkscape:connector-curvature="0"
       id="path1125"
       d="m 2143.3008,2569.0597 c 3.6266,23.21 1.4506,23.9353 -7.2531,26.1113 -8.7038,2.1759 -10.1544,0.7253 -12.3304,-18.1328 -2.1759,-18.8582 -29.7378,-251.6838 -31.1884,-262.5635 -1.4507,-10.8797 -0.7253,-15.9569 7.2531,-18.1328 7.9784,-2.1759 10.8797,-4.3519 13.0556,10.8797 2.176,15.2316 29.0126,243.7053 30.4632,261.8381 z"
       style="fill:#b71e3b;fill-opacity:1;stroke:none;stroke-width:1px;stroke-linecap:butt;stroke-linejoin:miter;stroke-opacity:1" />
    <path
       inkscape:connector-curvature="0"
       id="path1127"
       d="m 2106.3098,2260.0762 c 2.176,21.0341 0.7253,21.7594 -7.9784,24.6607 -8.7038,2.9012 -9.4291,-1.4506 -11.605,-14.5063 -2.176,-13.0556 -29.0126,-255.3103 -29.7379,-263.2887 -0.7253,-7.9784 0,-12.3303 9.4291,-14.5063 9.4291,-2.1759 11.605,3.6266 12.3303,11.605 0.7253,7.9785 25.386,232.1003 27.5619,256.0356 z"
       style="fill:#b7771e;fill-opacity:1;stroke:none;stroke-width:1px;stroke-linecap:butt;stroke-linejoin:miter;stroke-opacity:1" />
    <path
       sodipodi:nodetypes="csssssc"
       inkscape:connector-curvature="0"
       id="path1129"
       d="m 2053.362,1955.4447 c 2.1759,18.8581 5.0771,21.034 13.0556,19.5834 7.9784,-1.4506 10.1544,-8.7037 9.4291,-18.1328 -0.7253,-9.4291 -24.8366,-242.2547 -26.2873,-257.4862 -1.4506,-15.2316 -7.0771,-15.9569 -13.605,-14.5063 -6.5278,1.4506 -8.5278,7.2531 -7.8025,19.5835 0.7253,12.3303 23.0341,235.7268 25.2101,250.9584 z"
       style="fill:#b7771e;fill-opacity:1;stroke:none;stroke-width:1px;stroke-linecap:butt;stroke-linejoin:miter;stroke-opacity:1" />
    <path
       id="path1131"
       style="fill:#323232;fill-opacity:1;stroke:none;stroke-width:1px;stroke-linecap:butt;stroke-linejoin:miter;stroke-opacity:1"
       d="m 2421.7915,2498.7218 c -33.8497,0 -37.9531,10.2565 -37.9531,53.3379 0,43.0814 1.2621,60.6094 34.9941,60.6094 h 371.6719 0.5019 371.6719 c 33.732,0 34.9942,-17.528 34.9942,-60.6094 0,-43.0814 -4.1035,-53.3379 -37.9532,-53.3379 h -368.7129 -0.5019 z"
       inkscape:connector-curvature="0" />
    <path
       id="path1165"
       style="fill:#292929;fill-opacity:1;stroke:none;stroke-width:1px;stroke-linecap:butt;stroke-linejoin:miter;stroke-opacity:1"
       d="m 2120.0903,2643.0402 c -21.7594,0 -18.8569,2.9021 -17.4062,23.2109 1.4506,20.3088 11.374,119.6223 74.707,160.2949 79.0592,50.772 150.8643,49.3198 260.3867,55.8477 93.4885,5.5723 309.4507,6.4795 352.7266,6.5195 v 0 c 0.056,-10e-5 0.193,0 0.25,0 0.058,0 0.1951,-10e-5 0.2519,0 v 0 c 43.276,-0.04 259.2381,-0.9472 352.7266,-6.5195 109.5224,-6.5279 181.3275,-5.0757 260.3867,-55.8477 63.333,-40.6726 73.2565,-139.9861 74.7071,-160.2949 1.4507,-20.3088 4.3531,-23.2109 -17.4063,-23.2109 h -670.4141 -0.5019 z"
       inkscape:connector-curvature="0" />
    <path
       id="path1167"
       style="fill:#a7a7a7;fill-opacity:1;stroke:none;stroke-width:1px;stroke-linecap:butt;stroke-linejoin:miter;stroke-opacity:1"
       d="m 2118.0903,2643.0402 c -16.8866,0.1491 -16.8569,2.9021 -15.4062,23.2109 1.4506,20.3088 11.374,119.6223 74.707,160.2949 79.0592,50.772 150.8643,49.3198 260.3867,55.8477 93.4885,5.5723 309.4507,6.4795 352.7266,6.5195 v 0 c 0.056,-10e-5 0.193,0 0.25,0 0.058,0 0.1951,-10e-5 0.2519,0 v 0 c 43.276,-0.04 259.2381,-0.9472 352.7266,-6.5195 109.5224,-6.5279 181.3275,-5.0757 260.3867,-55.8477 63.333,-40.6726 73.2565,-139.9861 74.7071,-160.2949 1.4507,-20.3088 1.4803,-23.0618 -15.4063,-23.2109 -7.2907,-0.064 -8.0417,2.3778 -9.0547,9.5449 -0.9358,6.6212 -1.6503,20.9188 -11.8047,62.2617 -10.1544,41.3428 -25.3849,66.003 -103.7187,105.1699 -72.4889,36.2444 -410.3869,38.94 -547.836,37.9922 v 0 c -0.077,5e-4 -0.1732,0 -0.25,0 -0.077,-5e-4 -0.1747,0 -0.2519,0 v 0 c -137.4491,0.9478 -475.3471,-1.7478 -547.8359,-37.9922 -78.3338,-39.1669 -93.5644,-63.8271 -103.7188,-105.1699 -10.1544,-41.3429 -10.8689,-55.6405 -11.8047,-62.2617 -1.013,-7.1671 -1.764,-9.6093 -9.0547,-9.5449 z"
       inkscape:connector-curvature="0" />
    <path
       sodipodi:nodetypes="ssssssssssss"
       inkscape:connector-curvature="0"
       id="path1176"
       d="m 1969.8974,1322.7019 c -1.0817,-15.3824 8.2574,-22.5664 10.3089,-2.0515 2.0515,20.515 12.9546,177.1216 18.0318,222.091 5.0772,44.9694 35.5404,364.1073 42.7935,422.8576 7.2532,58.7504 29.0126,245.8813 39.1669,329.2923 10.1544,83.411 43.3321,321.4897 44.4201,330.9188 1.088,9.4291 -0.5366,12.1908 -8.517,12.5063 -10.2864,0.4066 -11.6051,-2.5386 -14.5063,-17.7702 -2.9013,-15.2316 -40.9802,-338.7106 -46.0574,-382.9547 -5.0772,-44.2441 -39.1669,-357.5794 -44.9694,-409.802 -5.8025,-52.2225 -31.1885,-355.4035 -34.0898,-398.197 -2.9012,-42.7935 -5.4269,-90.4739 -6.5813,-106.8906 z"
       style="fill:#a7a7a7;fill-opacity:1;stroke:none;stroke-width:1px;stroke-linecap:butt;stroke-linejoin:miter;stroke-opacity:1" />
    <path
       inkscape:connector-curvature="0"
       id="path1178"
       d="m 2372.1371,2860.6357 c 26.1113,-0.7254 37.7163,-12.693 38.079,-40.2549 0.3627,-27.5619 -20.3088,-38.079 -36.6283,-38.4416 -16.3196,-0.3627 -35.1777,13.7809 -35.1777,45.332 0,31.5512 24.298,33.0018 33.727,33.3645 z"
       style="fill:#3d3d3d;fill-opacity:1;stroke:none;stroke-width:1px;stroke-linecap:butt;stroke-linejoin:miter;stroke-opacity:1" />
    <path
       inkscape:connector-curvature="0"
       id="path1184"
       d="m 2277.8464,2798.2587 c 31.1885,-0.3626 61.289,-23.5727 61.6516,-55.8491 0.3627,-32.2765 -15.5942,-58.7504 -60.5636,-58.3877 -44.9694,0.3626 -50.0466,44.2441 -50.0466,61.6516 0,17.4075 15.9569,52.5852 48.9586,52.5852 z"
       style="fill:#3d3d3d;fill-opacity:1;stroke:none;stroke-width:1px;stroke-linecap:butt;stroke-linejoin:miter;stroke-opacity:1" />
    <path
       inkscape:connector-curvature="0"
       id="path1186"
       d="m 2169.7747,2737.6951 c 26.8366,0 37.7163,-15.9569 38.8043,-33.3645 1.088,-17.4075 -7.6158,-38.8042 -34.4524,-39.5295 -26.8366,-0.7253 -33.7271,23.9353 -33.7271,39.8922 0,15.9569 8.3412,32.6391 29.3752,33.0018 z"
       style="fill:#3d3d3d;fill-opacity:1;stroke:none;stroke-width:1px;stroke-linecap:butt;stroke-linejoin:miter;stroke-opacity:1" />
    <path
       inkscape:connector-curvature="0"
       id="path1180"
       d="m 2373.7745,2841.4149 c 13.7809,-0.7254 19.2208,-9.4291 19.2208,-19.2208 0,-9.7918 -6.5278,-20.6715 -19.5835,-20.6715 -13.0556,0 -19.2208,11.605 -19.2208,23.21 0,11.6051 8.7038,17.0449 19.5835,16.6823 z"
       style="fill:#b31e3a;fill-opacity:1;stroke:none;stroke-width:1px;stroke-linecap:butt;stroke-linejoin:miter;stroke-opacity:1" />
    <path
       inkscape:connector-curvature="0"
       id="path1182"
       d="m 2285.4838,2775.6088 c 21.7594,-0.7253 31.9137,-12.6929 31.5511,-31.5511 -0.3627,-18.8581 -10.5171,-36.6283 -30.1005,-36.6283 -19.5835,0 -34.815,14.1436 -35.1777,39.1669 -0.3627,25.0233 25.7486,29.0125 33.7271,29.0125 z"
       style="fill:#b7b7b7;fill-opacity:1;stroke:none;stroke-width:1px;stroke-linecap:butt;stroke-linejoin:miter;stroke-opacity:1" />
    <path
       inkscape:connector-curvature="0"
       id="path1188"
       d="m 2174.676,2720.1008 c 17.7702,-0.7253 19.5834,-11.9677 19.5834,-20.6714 0,-8.7038 -8.7037,-19.5835 -19.9461,-19.2208 -11.2423,0.3626 -19.9461,5.8025 -19.5834,21.0341 0.3626,15.2315 9.429,18.8581 19.9461,18.8581 z"
       style="fill:#b7771e;fill-opacity:1;stroke:none;stroke-width:1px;stroke-linecap:butt;stroke-linejoin:miter;stroke-opacity:1" />
    <path
       transform="translate(1816.6045,955.62996)"
       inkscape:connector-curvature="0"
       d="m 6.1660156,1678.5801 c -0.2188,7.73 -0.8881156,31.4863 -1.0410156,36.8359 -2.7743045,97.1002 -7.4144023,294.4923 -3.7929688,446.4414 h -0.00195 c 0.015389,0.6458 0.033141,1.2757 0.048828,1.9199 0.091702,3.765 0.1869493,7.5148 0.2890626,11.2207 0.019427,0.7056 0.040737,1.3982 0.060547,2.1016 0.095082,3.3731 0.1889097,6.7566 0.2929688,10.0761 0.00255,0 0.00526,0 0.00781,0.01 1.9362731,61.8186 5.4401271,114.0992 11.2988284,145.7363 20.5149,110.7808 22.569616,116.9371 86.166016,106.6797 27.161848,-4.3809 61.528868,-11.0094 108.193358,-18.123 3.63119,-0.5538 7.33032,-1.1093 11.11328,-1.668 0.32042,-0.047 0.64918,-0.095 0.9707,-0.1426 3.86926,-0.5699 7.8052,-1.1416 11.8379,-1.7148 0.01,0 0.0197,0 0.0293,0 0.0682,-0.01 0.14077,-0.02 0.20899,-0.029 8.48974,-1.206 17.34345,-2.4183 26.59375,-3.627 2.10173,-0.2746 4.29882,-0.548 6.4414,-0.8223 3.0139,-0.3855 6.00939,-0.7699 9.10547,-1.1543 2.20587,-0.2739 4.48606,-0.5471 6.73438,-0.8203 2.99048,-0.363 5.98603,-0.7267 9.05273,-1.0879 50.33282,-5.9316 110.99916,-11.58 185.14258,-15.9414 188.7416,-11.1024 386.56252,-10.5272 498.98242,-10.3066 0.1534,-3e-4 0.34835,3e-4 0.50195,0 112.41995,-0.2206 310.24085,-0.7958 498.98245,10.3066 74.1434,4.3614 134.8078,10.0098 185.1406,15.9414 3.0938,0.3644 6.1165,0.7314 9.1328,1.0977 2.2084,0.2684 4.4498,0.5355 6.6172,0.8047 3.1446,0.3903 6.1882,0.7823 9.248,1.1738 11.5347,1.4769 22.5421,2.96 32.9297,4.4356 0.079,0.011 0.1614,0.022 0.2403,0.033 3.9734,0.5648 7.8512,1.1278 11.666,1.6894 0.4043,0.059 0.8181,0.1203 1.2207,0.1797 3.7088,0.5479 7.3356,1.0936 10.8984,1.6367 46.7331,7.1214 81.1422,13.7574 108.3301,18.1426 63.5964,10.2574 65.6492,4.1011 86.1641,-106.6797 5.8586,-31.6367 9.3625,-83.9166 11.2988,-145.7344 0,0 0.01,-0.01 0.01,-0.01 0.2474,-7.8917 0.4626,-15.975 0.6602,-24.1562 0.01,-0.3904 0.02,-0.7712 0.029,-1.1621 v 0 c 3.6215,-151.9491 -1.0168,-349.3412 -3.7911,-446.4414 -0.1529,-5.3496 -0.8222,-29.1059 -1.041,-36.8359 -9.6419,3.194 -17.6863,5.2366 -39.1211,7.2051 -35.5404,3.2639 -195.8232,3.8007 -217.9453,3.8007 -13.0556,0.3627 -13.7804,-0.3618 -15.5937,16.3203 -1.8133,16.6823 -7.8304,115.0988 -47.6836,150.1504 -30.1005,26.474 -69.8176,56.9269 -161.2071,69.9825 -103.6767,14.8109 -337.2712,20.3086 -430.1113,20.3086 h -56.07225 -0.50195 -56.07227 c -92.84009,0 -326.43462,-5.4977 -430.11132,-20.3086 -91.3895,-13.0556 -131.10653,-43.5085 -161.20703,-69.9825 -39.8532,-35.0516 -45.8703,-133.4681 -47.6836,-150.1504 -1.8133,-16.6822 -2.53815,-15.9576 -15.59375,-16.3203 -22.1221,0 -182.40491,-0.5368 -217.94531,-3.8007 -21.4348,-1.9685 -29.479193,-4.0111 -39.1210937,-7.2051 z"
       style="fill:#d9d9d9;fill-opacity:1;stroke:none;stroke-width:1px;stroke-linecap:butt;stroke-linejoin:miter;stroke-opacity:1"
       id="path1195" />
    <path
       sodipodi:nodetypes="sssssssss"
       inkscape:connector-curvature="0"
       id="path1200"
       d="m 2557.4547,3041.2387 c 22.4595,2.4221 21.7594,2.9012 20.3088,37.7163 -1.4507,34.815 -3.6266,38.4416 -18.8582,37.7162 -15.2316,-0.7253 -190.0321,-14.5062 -331.4682,-18.1328 -141.4361,-3.6266 -327.8416,-7.9784 -354.6782,-9.4291 -26.8366,-1.4506 -26.8366,-7.9784 -24.6606,-40.6175 2.1759,-32.6391 -0.7253,-34.0897 34.0897,-34.815 34.8151,-0.7254 253.1344,7.2531 322.7644,10.1543 69.6301,2.9013 300.978,11.8511 352.5023,17.4076 z"
       style="fill:#d1d041;fill-opacity:1;stroke:none;stroke-width:1px;stroke-linecap:butt;stroke-linejoin:miter;stroke-opacity:1" />
    <path
       id="path1210"
       style="fill:#c7c7c7;fill-opacity:1;stroke:none;stroke-width:1px;stroke-linecap:butt;stroke-linejoin:miter;stroke-opacity:1"
       d="m 2093.1411,2650.8409 v 0 c -2.738,0.03 -4.587,0.2038 -5.2402,0.5527 -3.5846,25.8327 -5.6971,88.1986 29.3457,148.8946 31.6499,54.8193 81.8531,80.3821 190.1523,102.5664 96.3616,19.7389 377.8678,27.8247 483.1055,27.4472 0.1527,-5e-4 0.35,6e-4 0.5019,0 105.2378,0.3775 386.7439,-7.7083 483.1055,-27.4472 108.2992,-22.1843 158.5025,-47.7471 190.1524,-102.5664 35.0428,-60.696 32.9303,-123.0619 29.3457,-148.8946 -0.6532,-0.3489 -2.5023,-0.5227 -5.2403,-0.5527 v 0 c -0.1768,0 -0.4272,0.01 -0.6113,0.01 -0.6933,2.3671 -1.1413,5.7504 -1.6777,10.6855 -1.8133,16.6822 -7.8304,115.0988 -47.6836,150.1504 -30.1005,26.474 -69.8176,56.9269 -161.2071,69.9825 -103.6767,14.8109 -337.2712,20.3086 -430.1113,20.3086 h -56.0723 -0.5019 -56.0723 c -92.8401,0 -326.4346,-5.4977 -430.1113,-20.3086 -91.3895,-13.0556 -131.1065,-43.5085 -161.207,-69.9825 -39.8532,-35.0516 -45.8703,-133.4682 -47.6836,-150.1504 -0.5364,-4.9351 -0.9845,-8.3184 -1.6778,-10.6855 -0.1841,7e-4 -0.4345,-0.01 -0.6113,-0.01 z"
       inkscape:connector-curvature="0" />
    <path
       style="fill:#b71e3b;fill-opacity:1;stroke:none;stroke-width:1px;stroke-linecap:butt;stroke-linejoin:miter;stroke-opacity:1"
       d="m 3438.2091,2569.0597 c -3.6266,23.21 -1.4506,23.9353 7.2531,26.1113 8.7038,2.1759 10.1544,0.7253 12.3304,-18.1328 2.1759,-18.8582 29.7378,-251.6838 31.1884,-262.5635 1.4507,-10.8797 0.7253,-15.9569 -7.2531,-18.1328 -7.9784,-2.1759 -10.8797,-4.3519 -13.0556,10.8797 -2.176,15.2316 -29.0126,243.7053 -30.4632,261.8381 z"
       id="path1345"
       inkscape:connector-curvature="0" />
    <path
       style="fill:#b7771e;fill-opacity:1;stroke:none;stroke-width:1px;stroke-linecap:butt;stroke-linejoin:miter;stroke-opacity:1"
       d="m 3475.2001,2260.0762 c -2.176,21.0341 -0.7253,21.7594 7.9784,24.6607 8.7038,2.9012 9.4291,-1.4506 11.605,-14.5063 2.176,-13.0556 29.0126,-255.3103 29.7379,-263.2887 0.7253,-7.9784 0,-12.3303 -9.4291,-14.5063 -9.4291,-2.1759 -11.605,3.6266 -12.3303,11.605 -0.7253,7.9785 -25.386,232.1003 -27.5619,256.0356 z"
       id="path1347"
       inkscape:connector-curvature="0" />
    <path
       style="fill:#b7771e;fill-opacity:1;stroke:none;stroke-width:1px;stroke-linecap:butt;stroke-linejoin:miter;stroke-opacity:1"
       d="m 3528.1479,1955.4447 c -2.1759,18.8581 -5.0771,21.034 -13.0556,19.5834 -7.9784,-1.4506 -10.1544,-8.7037 -9.4291,-18.1328 0.7253,-9.4291 24.8366,-242.2547 26.2873,-257.4862 1.4506,-15.2316 7.0771,-15.9569 13.605,-14.5063 6.5278,1.4506 8.5278,7.2531 7.8025,19.5835 -0.7253,12.3303 -23.0341,235.7268 -25.2101,250.9584 z"
       id="path1349"
       inkscape:connector-curvature="0"
       sodipodi:nodetypes="csssssc" />
    <path
       style="fill:#a7a7a7;fill-opacity:1;stroke:none;stroke-width:1px;stroke-linecap:butt;stroke-linejoin:miter;stroke-opacity:1"
       d="m 3611.6125,1322.7019 c 1.0817,-15.3824 -8.2574,-22.5664 -10.3089,-2.0515 -2.0515,20.515 -12.9546,177.1216 -18.0318,222.091 -5.0772,44.9694 -35.5404,364.1073 -42.7935,422.8576 -7.2532,58.7504 -29.0126,245.8813 -39.1669,329.2923 -10.1544,83.411 -43.3321,321.4897 -44.4201,330.9188 -1.088,9.4291 0.5366,12.1908 8.517,12.5063 10.2864,0.4066 11.6051,-2.5386 14.5063,-17.7702 2.9013,-15.2316 40.9802,-338.7106 46.0574,-382.9547 5.0772,-44.2441 39.1669,-357.5794 44.9694,-409.802 5.8025,-52.2225 31.1885,-355.4035 34.0898,-398.197 2.9012,-42.7935 5.4269,-90.4739 6.5813,-106.8906 z"
       id="path1357"
       inkscape:connector-curvature="0"
       sodipodi:nodetypes="ssssssssssss" />
    <path
       style="fill:#3d3d3d;fill-opacity:1;stroke:none;stroke-width:1px;stroke-linecap:butt;stroke-linejoin:miter;stroke-opacity:1"
       d="m 3209.3728,2860.6357 c -26.1113,-0.7254 -37.7163,-12.693 -38.079,-40.2549 -0.3627,-27.5619 20.3088,-38.079 36.6283,-38.4416 16.3196,-0.3627 35.1777,13.7809 35.1777,45.332 0,31.5512 -24.298,33.0018 -33.727,33.3645 z"
       id="path1359"
       inkscape:connector-curvature="0" />
    <path
       style="fill:#3d3d3d;fill-opacity:1;stroke:none;stroke-width:1px;stroke-linecap:butt;stroke-linejoin:miter;stroke-opacity:1"
       d="m 3303.6635,2798.2587 c -31.1885,-0.3626 -61.289,-23.5727 -61.6516,-55.8491 -0.3627,-32.2765 15.5942,-58.7504 60.5636,-58.3877 44.9694,0.3626 50.0466,44.2441 50.0466,61.6516 0,17.4075 -15.9569,52.5852 -48.9586,52.5852 z"
       id="path1361"
       inkscape:connector-curvature="0" />
    <path
       style="fill:#3d3d3d;fill-opacity:1;stroke:none;stroke-width:1px;stroke-linecap:butt;stroke-linejoin:miter;stroke-opacity:1"
       d="m 3411.7352,2737.6951 c -26.8366,0 -37.7163,-15.9569 -38.8043,-33.3645 -1.088,-17.4075 7.6158,-38.8042 34.4524,-39.5295 26.8366,-0.7253 33.7271,23.9353 33.7271,39.8922 0,15.9569 -8.3412,32.6391 -29.3752,33.0018 z"
       id="path1363"
       inkscape:connector-curvature="0" />
    <path
       style="fill:#b31e3a;fill-opacity:1;stroke:none;stroke-width:1px;stroke-linecap:butt;stroke-linejoin:miter;stroke-opacity:1"
       d="m 3207.7354,2841.4149 c -13.7809,-0.7254 -19.2208,-9.4291 -19.2208,-19.2208 0,-9.7918 6.5278,-20.6715 19.5835,-20.6715 13.0556,0 19.2208,11.605 19.2208,23.21 0,11.6051 -8.7038,17.0449 -19.5835,16.6823 z"
       id="path1365"
       inkscape:connector-curvature="0" />
    <path
       style="fill:#b7b7b7;fill-opacity:1;stroke:none;stroke-width:1px;stroke-linecap:butt;stroke-linejoin:miter;stroke-opacity:1"
       d="m 3296.0261,2775.6088 c -21.7594,-0.7253 -31.9137,-12.6929 -31.5511,-31.5511 0.3627,-18.8581 10.5171,-36.6283 30.1005,-36.6283 19.5835,0 34.815,14.1436 35.1777,39.1669 0.3627,25.0233 -25.7486,29.0125 -33.7271,29.0125 z"
       id="path1367"
       inkscape:connector-curvature="0" />
    <path
       style="fill:#b7771e;fill-opacity:1;stroke:none;stroke-width:1px;stroke-linecap:butt;stroke-linejoin:miter;stroke-opacity:1"
       d="m 3406.8339,2720.1008 c -17.7702,-0.7253 -19.5834,-11.9677 -19.5834,-20.6714 0,-8.7038 8.7037,-19.5835 19.9461,-19.2208 11.2423,0.3626 19.9461,5.8025 19.5834,21.0341 -0.3626,15.2315 -9.429,18.8581 -19.9461,18.8581 z"
       id="path1369"
       inkscape:connector-curvature="0" />
    <path
       style="fill:#d1d041;fill-opacity:1;stroke:none;stroke-width:1px;stroke-linecap:butt;stroke-linejoin:miter;stroke-opacity:1"
       d="m 3024.0552,3041.2387 c -22.4595,2.4221 -21.7594,2.9012 -20.3088,37.7163 1.4507,34.815 3.6266,38.4416 18.8582,37.7162 15.2316,-0.7253 190.0321,-14.5062 331.4682,-18.1328 141.4361,-3.6266 327.8416,-7.9784 354.6782,-9.4291 26.8366,-1.4506 26.8366,-7.9784 24.6606,-40.6175 -2.1759,-32.6391 0.7253,-34.0897 -34.0897,-34.815 -34.8151,-0.7254 -253.1344,7.2531 -322.7644,10.1543 -69.6301,2.9013 -300.978,11.8511 -352.5023,17.4076 z"
       id="path1375"
       inkscape:connector-curvature="0"
       sodipodi:nodetypes="sssssssss" />
  </g>
</svg>
