<?xml version="1.0" encoding="UTF-8" standalone="no"?>
<svg
   xmlns:dc="http://purl.org/dc/elements/1.1/"
   xmlns:cc="http://creativecommons.org/ns#"
   xmlns:rdf="http://www.w3.org/1999/02/22-rdf-syntax-ns#"
   xmlns:svg="http://www.w3.org/2000/svg"
   xmlns="http://www.w3.org/2000/svg"
   xmlns:sodipodi="http://sodipodi.sourceforge.net/DTD/sodipodi-0.dtd"
   xmlns:inkscape="http://www.inkscape.org/namespaces/inkscape"
   version="1.1"
   id="svg869"
   width="2317.0701"
   height="2724.9922"
   viewBox="0 0 2317.07 2724.9922"
   sodipodi:docname="gemilang.svg"
   inkscape:version="1.1-dev (ddb55ca, 2020-02-02)">
  <metadata
     id="metadata875">
    <rdf:RDF>
      <cc:Work
         rdf:about="">
        <dc:format>image/svg+xml</dc:format>
        <dc:type
           rdf:resource="http://purl.org/dc/dcmitype/StillImage" />
        <dc:title></dc:title>
      </cc:Work>
    </rdf:RDF>
  </metadata>
  <defs
     id="defs873" />
  <sodipodi:namedview
     pagecolor="#ffffff"
     bordercolor="#666666"
     borderopacity="1"
     objecttolerance="10"
     gridtolerance="10"
     guidetolerance="10"
     inkscape:pageopacity="0"
     inkscape:pageshadow="2"
     inkscape:window-width="1440"
     inkscape:window-height="855"
     id="namedview871"
     showgrid="false"
     inkscape:zoom="0.60586613"
     inkscape:cx="1111.5922"
     inkscape:cy="2318.944"
     inkscape:window-x="0"
     inkscape:window-y="23"
     inkscape:window-maximized="0"
     inkscape:current-layer="svg869"
     inkscape:snap-global="false" />
  <g
     id="g1593"
     transform="translate(-672.31124,-1193.4432)">
    <path
       transform="translate(672.31124,1193.4432)"
       d="M 1094.4629 0 C 913.40089 -0.049 695.19059 9.5672125 594.43359 19.445312 C 475.01789 31.152812 388.38273 77.982872 343.89453 110.76367 C 278.33294 162.27637 297.06375 190.37486 306.42969 218.47266 C 314.19303 241.76275 943.04876 226.47728 1158.5352 220.55273 C 1374.0216 226.47728 2002.8773 241.76275 2010.6406 218.47266 C 2020.0066 190.37486 2038.7374 162.27637 1973.1758 110.76367 C 1928.6876 77.982872 1842.0524 31.152812 1722.6367 19.445312 C 1621.8797 9.5672125 1403.6694 -0.049 1222.6074 0 C 1200.5898 0.0059523523 1179.1754 0.1658114 1158.5352 0.47460938 C 1137.8949 0.1658114 1116.4805 0.0059523523 1094.4629 0 z "
       style="fill:#d1d1d1;fill-opacity:1;stroke:none;stroke-width:1px;stroke-linecap:butt;stroke-linejoin:miter;stroke-opacity:1"
       id="path1454" />
    <path
       transform="translate(672.31124,1193.4432)"
       d="M 1158.0352 264.65234 L 1158.0352 264.68359 L 89.400391 297.10742 L 67.962891 641.52148 L 1158.5352 630.30664 L 2249.1074 641.52148 L 2227.6699 297.10742 L 1159.0352 264.68359 L 1159.0352 264.65234 L 1158.5352 264.66797 L 1158.0352 264.65234 z "
       style="fill:#202020;fill-opacity:1;stroke:none;stroke-width:1px;stroke-linecap:butt;stroke-linejoin:miter;stroke-opacity:1"
       id="path1446" />
    <path
       transform="translate(672.31124,1193.4432)"
       d="M 374.5957 258.68359 L 79.521484 297.08203 L 65.373047 634.59961 C 65.373047 634.59961 89.625754 650.76766 88.615234 637.63086 C 87.604704 624.49396 102.76335 391.06276 105.79492 364.78906 C 108.8265 338.51536 110.84675 332.45142 143.18359 329.41992 C 175.52043 326.38832 272.32405 322.83163 423.80859 317.11523 C 571.88549 311.52739 1000.4733 300.50294 1158.5352 298.67383 C 1316.5971 300.50294 1745.1848 311.52739 1893.2617 317.11523 C 2044.7463 322.83163 2141.5499 326.38832 2173.8867 329.41992 C 2206.2236 332.45142 2208.2438 338.51536 2211.2754 364.78906 C 2214.307 391.06276 2229.4656 624.49396 2228.4551 637.63086 C 2227.4446 650.76766 2251.6973 634.59961 2251.6973 634.59961 L 2237.5488 297.08203 L 1942.4746 258.68359 L 1158.5352 268.30078 L 374.5957 258.68359 z "
       style="fill:#151515;fill-opacity:1;stroke:none;stroke-width:1px;stroke-linecap:butt;stroke-linejoin:miter;stroke-opacity:1"
       id="path1448" />
    <path
       transform="translate(672.31124,1193.4432)"
       d="M 1158.0352 641.79688 L 1158.0352 641.80664 L 85.113281 652.95312 L 36.523438 1518.9883 L 39.380859 1787.6602 L 1158.5352 1784.9102 L 2277.6895 1787.6602 L 2280.5469 1518.9883 L 2231.957 652.95312 L 1159.0352 641.80664 L 1159.0352 641.79688 L 1158.5352 641.80273 L 1158.0352 641.79688 z "
       style="fill:#393939;fill-opacity:1;stroke:none;stroke-width:1px;stroke-linecap:butt;stroke-linejoin:miter;stroke-opacity:1"
       id="path1439" />
    <path
       transform="translate(672.31124,1193.4432)"
       d="M 1137.9062 612.97461 C 957.6517 612.80881 303.22536 617.67301 242.21484 619.44141 C 172.48852 621.46251 73.458116 624.49331 69.416016 625.50391 C 65.373906 626.51441 65.373047 657.8418 65.373047 657.8418 L 47.183594 1045.8828 L 20.910156 1532.957 L 12.826172 1809.8418 L 1158.0352 1821.832 L 1158.0352 1821.8418 L 1158.5352 1821.8359 L 1159.0352 1821.8418 L 1159.0352 1821.832 L 2304.2441 1809.8418 L 2296.1602 1532.957 L 2269.8867 1045.8828 L 2251.6973 657.8418 C 2251.6973 657.8418 2251.6964 626.51441 2247.6543 625.50391 C 2243.6122 624.49331 2144.5818 621.46251 2074.8555 619.44141 C 2013.8449 617.67301 1359.4186 612.80881 1179.1641 612.97461 C 1171.1702 612.98242 1164.5528 613.00328 1158.5352 613.03125 C 1152.5175 613.00328 1145.9001 612.98242 1137.9062 612.97461 z M 1158.5352 666.27148 C 1315.3368 668.63873 2138.8338 672.99805 2175.9062 672.99805 C 2214.3062 672.99805 2221.3813 677.0417 2223.4023 694.2207 C 2225.4234 711.3996 2238.559 1015.5669 2240.5801 1077.209 C 2242.6011 1138.8511 2254.7274 1357.1253 2258.7695 1431.9043 C 2262.8116 1506.6832 2265.8445 1688.5773 2264.834 1720.9141 C 2265.8445 1746.1773 2265.8442 1758.3047 2231.4863 1758.3047 C 2199.1418 1758.3047 1284.2514 1760.9912 1158.5352 1762.9922 C 1032.819 1760.9912 117.92852 1758.3047 85.583984 1758.3047 C 51.226084 1758.3047 51.225788 1746.1773 52.236328 1720.9141 C 51.225798 1688.5773 54.258671 1506.6832 58.300781 1431.9043 C 62.342881 1357.1253 74.469184 1138.8511 76.490234 1077.209 C 78.511284 1015.5669 91.646919 711.3996 93.667969 694.2207 C 95.689019 677.0417 102.76406 672.99805 141.16406 672.99805 C 178.2365 672.99805 1001.7335 668.63873 1158.5352 666.27148 z "
       style="fill:#1a1a1a;fill-opacity:1;stroke:none;stroke-width:1px;stroke-linecap:butt;stroke-linejoin:miter;stroke-opacity:1"
       id="path1437" />
    <path
       transform="translate(672.31124,1193.4432)"
       d="M 1158.0352 174.34766 L 1158.0352 174.36133 C 1083.8353 175.24432 991.49531 177.03171 896.8418 179.92188 C 709.6297 185.63828 401.87965 196.02982 281.62695 203.10352 C 161.37432 210.17722 142.17365 209.16792 113.87891 227.35742 C 85.584176 245.54692 78.511284 273.8408 76.490234 301.125 C 74.469184 328.4092 57.960144 652.95374 46.527344 858.74414 C 35.094544 1064.5345 7.940525 1554.0014 5.796875 1609.7363 C 3.653225 1665.4712 -0.63447187 1781.2277 0.080078125 1864.8301 L 49.205078 1847.2305 C 49.205088 1847.2305 27.98454 1820.4514 26.46875 1805.7988 C 24.95296 1791.1462 27.948441 1614.7373 30.806641 1474.6855 C 33.664841 1334.6337 60.321171 1006.4724 64.363281 931.69336 C 68.405381 856.91446 73.458654 627.52452 76.490234 587.10352 C 79.521814 546.68242 94.400684 349.27064 95.115234 332.83594 C 95.829784 316.40134 97.260766 312.82754 118.69727 311.39844 C 140.13377 309.96934 225.16422 304.25292 382.36523 297.10742 C 532.41954 290.28676 1029.0744 282.18733 1158.5352 281.46289 C 1287.9959 282.18733 1784.6508 290.28676 1934.7051 297.10742 C 2091.9061 304.25292 2176.9365 309.96934 2198.373 311.39844 C 2219.8095 312.82754 2221.2405 316.40134 2221.9551 332.83594 C 2222.6696 349.27064 2237.5485 546.68242 2240.5801 587.10352 C 2243.6117 627.52452 2248.6649 856.91446 2252.707 931.69336 C 2256.7491 1006.4724 2283.4055 1334.6337 2286.2637 1474.6855 C 2289.1219 1614.7373 2292.1174 1791.1462 2290.6016 1805.7988 C 2289.0858 1820.4514 2267.8652 1847.2305 2267.8652 1847.2305 L 2316.9902 1864.8301 C 2317.7048 1781.2277 2313.4171 1665.4712 2311.2734 1609.7363 C 2309.1298 1554.0014 2281.9758 1064.5345 2270.543 858.74414 C 2259.1102 652.95374 2242.6011 328.4092 2240.5801 301.125 C 2238.559 273.8408 2231.4861 245.54692 2203.1914 227.35742 C 2174.8967 209.16792 2155.696 210.17722 2035.4434 203.10352 C 1915.1907 196.02982 1607.4406 185.63828 1420.2285 179.92188 C 1325.575 177.03171 1233.235 175.24432 1159.0352 174.36133 L 1159.0352 174.34766 C 1158.8733 174.34957 1158.6972 174.35159 1158.5352 174.35352 C 1158.3731 174.35159 1158.197 174.34957 1158.0352 174.34766 z "
       style="fill:#b2b2b2;fill-opacity:1;stroke:none;stroke-width:1px;stroke-linecap:butt;stroke-linejoin:miter;stroke-opacity:1"
       id="path1435" />
    <path
       transform="translate(672.31124,1193.4432)"
       d="M 38.666016 1789.0879 C 28.662316 1789.0879 26.519531 1793.376 26.519531 1805.5234 C 26.519531 1817.6707 30.353039 1829.3357 33.824219 1847.5957 L 315.19727 2023.4609 L 1158.5352 1961.6523 L 2001.873 2023.4609 L 2283.2461 1847.5957 C 2286.7173 1829.3357 2290.5508 1817.6707 2290.5508 1805.5234 C 2290.5508 1793.376 2288.408 1789.0879 2278.4043 1789.0879 C 2269.3945 1789.0879 1354.8665 1792.5645 1158.5352 1795.3438 C 962.2038 1792.5645 47.675842 1789.0879 38.666016 1789.0879 z "
       style="fill:#202020;fill-opacity:1;stroke:none;stroke-width:1px;stroke-linecap:butt;stroke-linejoin:miter;stroke-opacity:1"
       id="path1433" />
    <path
       transform="translate(672.31124,1193.4432)"
       d="M 341.16016 1988.0312 C 335.25976 1988.4709 385.24023 2045.8555 385.24023 2045.8555 L 476.12109 2214.168 L 532.24023 2308.2988 L 383.54492 2294.4668 L 300.55078 2201.0996 L 13.535156 2142.3125 L 9.5 2189.5723 L 23.908203 2318.6719 L 196.23438 2433.9414 L 365.67773 2395.3262 L 478.64062 2554.9727 L 549.53125 2703.668 C 549.53125 2703.668 549.24328 2721.823 572.29688 2722.6875 C 595.35047 2723.552 624.16631 2724.9922 633.09961 2724.9922 C 642.03291 2724.9922 622.4375 2709.4316 622.4375 2709.4316 L 502.84766 2486.3867 L 387.57812 2318.6719 L 548.37891 2333.6582 L 627.82031 2476.8516 L 1158.0352 2491.0469 L 1158.0352 2491.0742 L 1158.5352 2491.0605 L 1159.0352 2491.0742 L 1159.0352 2491.0469 L 1689.25 2476.8516 L 1768.6914 2333.6582 L 1929.4922 2318.6719 L 1814.2227 2486.3867 L 1694.6328 2709.4316 C 1694.6328 2709.4316 1675.0374 2724.9922 1683.9707 2724.9922 C 1692.904 2724.9922 1721.7198 2723.552 1744.7734 2722.6875 C 1767.827 2721.823 1767.5391 2703.668 1767.5391 2703.668 L 1838.4297 2554.9727 L 1951.3926 2395.3262 L 2120.8359 2433.9414 L 2293.1621 2318.6719 L 2307.5703 2189.5723 L 2303.5352 2142.3125 L 2016.5195 2201.0996 L 1933.5254 2294.4668 L 1784.8301 2308.2988 L 1840.9492 2214.168 L 1931.8301 2045.8555 C 1931.8301 2045.8555 1981.8106 1988.4709 1975.9102 1988.0312 C 1975.62 1988.0096 1975.1942 1988.1252 1974.6211 1988.3926 C 1962.3951 1994.0981 1959.1345 1992.4694 1953.0215 1992.877 C 1946.9085 1993.2845 1925.457 1992.4648 1925.457 1992.4648 L 1768.6914 2277.1758 L 1577.4043 2404.4668 L 1158.5352 2445.5273 L 739.66602 2404.4668 L 548.37891 2277.1758 L 391.61328 1992.4648 C 391.61328 1992.4648 370.16183 1993.2845 364.04883 1992.877 C 357.93583 1992.4694 354.67522 1994.0981 342.44922 1988.3926 C 341.87612 1988.1252 341.45036 1988.0096 341.16016 1988.0312 z "
       style="fill:#171717;fill-opacity:1;stroke:none;stroke-width:1px;stroke-linecap:butt;stroke-linejoin:miter;stroke-opacity:1"
       id="path1923" />
    <path
       inkscape:connector-curvature="0"
       id="path1877"
       d="m 690.16216,3345.3694 c -11.85585,-6.0541 -17.4054,-9.3334 -17.65765,4.2883 -0.25226,13.6216 1.009,99.6396 2.01801,144.5405 1.00901,44.9009 4.54054,277.982 4.03604,320.8649 -0.5045,42.8828 -6.55856,79.2072 64.07207,83.7477 70.63063,4.5405 481.29727,17.1532 502.48647,17.6577 21.1892,0.5045 14.6307,-3.5316 1.5135,-17.1532 -13.1171,-13.6216 -25.2252,-37.8378 -53.4774,-91.8198 -28.2523,-53.982 -115.0271,-202.8108 -126.1262,-221.4775 -11.0991,-18.6667 -6.054,-19.1712 -34.3063,-22.1982 -28.2522,-3.027 -39.85583,4.5406 -54.99097,13.1171 -15.13513,8.5766 -23.71171,13.1172 -57.00901,5.0451 -33.29729,-8.0721 -109.98198,-25.7298 -143.27928,-38.8469 -33.29729,-13.1171 -64.57657,-30.7747 -75.67567,-64.5765 -11.0991,-33.8018 -15.13514,-96.3604 -13.62162,-109.4775 1.51351,-13.1171 -4.03604,-22.7027 12.61261,-26.2343 16.64865,-3.5315 -10.5946,2.5226 -10.5946,2.5226 z"
       style="fill:#ececec;fill-opacity:1;stroke:none;stroke-width:1px;stroke-linecap:butt;stroke-linejoin:miter;stroke-opacity:1" />
    <path
       transform="translate(672.31124,1193.4432)"
       d="M 1158.0352 1927.002 L 1158.0352 1927.0156 C 1069.401 1928.4585 799.64232 1930.749 655.30078 1941.3105 C 507.70828 1952.11 430.67362 1960.7507 392.51562 1970.8301 C 354.35753 1980.9096 350.75764 1988.8284 370.55664 2011.8672 C 390.35564 2034.9061 430.67356 2096.1037 471.35156 2160.9004 C 512.02946 2225.697 537.94765 2285.4527 551.62695 2313.5312 C 565.30625 2341.6098 581.50476 2371.1297 609.94336 2398.4883 C 638.38186 2425.8469 677.98083 2437.7262 739.17773 2444.9258 C 800.37463 2452.1255 851.85143 2457.5244 988.64453 2460.4043 C 1081.9389 2462.3683 1129.4394 2463.6067 1158.0352 2464.2305 L 1158.0352 2464.2539 C 1158.1528 2464.2514 1158.4169 2464.2448 1158.5352 2464.2422 C 1158.6534 2464.2448 1158.9175 2464.2514 1159.0352 2464.2539 L 1159.0352 2464.2305 C 1187.6309 2463.6067 1235.1314 2462.3683 1328.4258 2460.4043 C 1465.2189 2457.5244 1516.6957 2452.1255 1577.8926 2444.9258 C 1639.0895 2437.7262 1678.6885 2425.8469 1707.127 2398.4883 C 1735.5656 2371.1297 1751.7641 2341.6097 1765.4434 2313.5312 C 1779.1227 2285.4527 1805.0408 2225.697 1845.7188 2160.9004 C 1886.3967 2096.1037 1926.7147 2034.9061 1946.5137 2011.8672 C 1966.3127 1988.8284 1962.7128 1980.9096 1924.5547 1970.8301 C 1886.3967 1960.7507 1809.362 1952.11 1661.7695 1941.3105 C 1517.428 1930.749 1247.6694 1928.4585 1159.0352 1927.0156 L 1159.0352 1927.002 C 1158.901 1927.0042 1158.6701 1927.0076 1158.5352 1927.0098 C 1158.4002 1927.0076 1158.1693 1927.0042 1158.0352 1927.002 z "
       style="fill:#d6d6d6;fill-opacity:1;stroke:none;stroke-width:1px;stroke-linecap:butt;stroke-linejoin:miter;stroke-opacity:1"
       id="path1854" />
    <path
       transform="translate(672.31124,1193.4432)"
       d="M 1158.0352 1927.002 L 1158.0352 1927.0156 C 1069.4009 1928.4585 799.64232 1930.749 655.30078 1941.3105 C 507.70828 1952.11 430.67363 1960.7507 392.51562 1970.8301 C 370.62213 1976.6133 360.12525 1981.6897 358.87695 1989.3145 C 374.57225 1994.9735 397.60654 2006.3828 458.08594 2030.1426 L 1158.0352 2070.7676 L 1158.0352 2070.8262 L 1158.5352 2070.7969 L 1159.0352 2070.8262 L 1159.0352 2070.7676 L 1858.9844 2030.1426 C 1919.4638 2006.3828 1942.4981 1994.9735 1958.1934 1989.3145 C 1956.9451 1981.6897 1946.4482 1976.6133 1924.5547 1970.8301 C 1886.3967 1960.7507 1809.362 1952.11 1661.7695 1941.3105 C 1517.428 1930.749 1247.6695 1928.4585 1159.0352 1927.0156 L 1159.0352 1927.002 C 1158.901 1927.0042 1158.6701 1927.0076 1158.5352 1927.0098 C 1158.4002 1927.0076 1158.1693 1927.0042 1158.0352 1927.002 z "
       style="fill:#dcdcdc;fill-opacity:1;stroke:none;stroke-width:1px;stroke-linecap:butt;stroke-linejoin:miter;stroke-opacity:1"
       id="path1870" />
    <path
       transform="translate(672.31124,1193.4432)"
       d="M 922.16602 1958.6289 C 868.64062 1958.6969 815.44473 1959.2939 772.49023 1960.8848 C 635.03573 1965.9757 489.43573 1972.0832 436.49023 1983.2832 C 383.54473 1994.4832 412.71365 2009.317 447.68945 2062.7012 C 509.44515 2156.9599 571.90816 2281.6106 598.38086 2322.3379 C 624.85356 2363.0654 644.19793 2396.6659 728.70703 2406.8477 C 813.21613 2417.0295 929.28973 2424.157 1069.7988 2426.1934 C 1128.169 2427.0393 1148.398 2427.4641 1158.0352 2427.6777 L 1158.0352 2427.6973 C 1158.1261 2427.6952 1158.4421 2427.6896 1158.5352 2427.6875 C 1158.6282 2427.6896 1158.9442 2427.6952 1159.0352 2427.6973 L 1159.0352 2427.6777 C 1168.6723 2427.4641 1188.9013 2427.0393 1247.2715 2426.1934 C 1387.7806 2424.157 1503.8542 2417.0295 1588.3633 2406.8477 C 1672.8724 2396.6659 1692.2168 2363.0654 1718.6895 2322.3379 C 1745.1622 2281.6106 1807.6252 2156.9599 1869.3809 2062.7012 C 1904.3567 2009.317 1933.5256 1994.4832 1880.5801 1983.2832 C 1827.6346 1972.0832 1682.0346 1965.9757 1544.5801 1960.8848 C 1501.6256 1959.2939 1448.4297 1958.6969 1394.9043 1958.6289 C 1295.9855 1958.5025 1197.1332 1960.1555 1158.5352 1960.6953 C 1119.9371 1960.1555 1021.0848 1958.5025 922.16602 1958.6289 z "
       style="fill:#e3e3e3;fill-opacity:1;stroke:none;stroke-width:1px;stroke-linecap:butt;stroke-linejoin:miter;stroke-opacity:1"
       id="path1856" />
    <path
       transform="translate(672.31124,1193.4432)"
       d="M 586.04688 2301.9766 C 590.71827 2310.0274 594.88206 2316.9552 598.38086 2322.3379 C 624.85356 2363.0654 644.19793 2396.6659 728.70703 2406.8477 C 813.21613 2417.0295 929.28973 2424.157 1069.7988 2426.1934 C 1128.169 2427.0393 1148.3982 2427.4642 1158.0352 2427.6777 L 1158.0352 2427.6973 C 1158.1261 2427.6952 1158.4421 2427.6896 1158.5352 2427.6875 C 1158.6282 2427.6896 1158.9442 2427.6952 1159.0352 2427.6973 L 1159.0352 2427.6777 C 1168.6721 2427.4642 1188.9013 2427.0393 1247.2715 2426.1934 C 1387.7806 2424.157 1503.8542 2417.0295 1588.3633 2406.8477 C 1672.8724 2396.6659 1692.2168 2363.0654 1718.6895 2322.3379 C 1722.1883 2316.9552 1726.352 2310.0274 1731.0234 2301.9766 L 1697.6797 2308.6445 L 1158.5352 2319.4668 L 619.39062 2308.6445 L 586.04688 2301.9766 z "
       style="fill:#eeeeee;fill-opacity:1;stroke:none;stroke-width:1px;stroke-linecap:butt;stroke-linejoin:miter;stroke-opacity:1"
       id="path1865" />
    <path
       transform="translate(672.31124,1193.4432)"
       d="M 615.68945 2322.8477 C 640.63495 2342.7023 628.41714 2372.7376 750.08984 2386.9922 C 871.76254 2401.2467 1000.0522 2403.2833 1045.3613 2404.8105 C 1077.2846 2405.8867 1127.2145 2406.1915 1158.0352 2406.2852 L 1158.0352 2406.2891 C 1158.1818 2406.2886 1158.3876 2406.2876 1158.5352 2406.2871 C 1158.6827 2406.2876 1158.8885 2406.2886 1159.0352 2406.2891 L 1159.0352 2406.2852 C 1189.8558 2406.1915 1239.7858 2405.8867 1271.709 2404.8105 C 1317.0181 2403.2833 1445.3078 2401.2467 1566.9805 2386.9922 C 1688.6532 2372.7376 1676.4354 2342.7023 1701.3809 2322.8477 L 1158.5352 2326.8613 L 615.68945 2322.8477 z "
       style="fill:#dbdbdb;fill-opacity:1;stroke:none;stroke-width:1px;stroke-linecap:butt;stroke-linejoin:miter;stroke-opacity:1"
       id="path1863" />
    <path
       transform="translate(672.31124,1193.4432)"
       d="M 586.04492 2301.9766 C 586.68592 2303.0814 587.33272 2304.195 587.95312 2305.2539 C 601.12002 2318.1914 622.69376 2329.6301 643.91406 2329.9746 C 678.03918 2330.5286 1060.8395 2332.3355 1158.0352 2332.4902 L 1158.0352 2332.4922 C 1158.1594 2332.492 1158.41 2332.4904 1158.5352 2332.4902 C 1158.6603 2332.4904 1158.9109 2332.492 1159.0352 2332.4922 L 1159.0352 2332.4902 C 1256.2308 2332.3355 1639.0311 2330.5286 1673.1562 2329.9746 C 1694.3765 2329.6301 1715.9503 2318.1914 1729.1172 2305.2539 C 1729.7376 2304.195 1730.3844 2303.0814 1731.0254 2301.9766 C 1638.2049 2301.9769 1218.1747 2301.9926 1158.5352 2302.8711 C 1098.8957 2301.9926 678.86542 2301.9769 586.04492 2301.9766 z "
       style="fill:#959595;fill-opacity:1;stroke:none;stroke-width:1px;stroke-linecap:butt;stroke-linejoin:miter;stroke-opacity:1"
       id="path1858" />
    <path
       id="path1881"
       d="m 676.98242,3340.1348 c -2.9009,0.1261 -4.35239,2.7126 -4.47851,9.5234 -0.25226,13.6216 1.01052,99.6382 2.01953,144.5391 1.00901,44.9009 4.53965,277.9823 4.03515,320.8652 -0.5045,42.8828 -6.55836,79.2075 64.07227,83.748 70.63063,4.5405 481.29714,17.1538 502.48634,17.6583 21.1892,0.5045 14.6309,-3.5327 1.5137,-17.1543 -2.0429,-2.1215 -4.0663,-4.5383 -6.125,-7.2461 -0.6373,-0.048 -1.2746,-0.086 -1.9102,-0.1016 -29.2526,-0.7135 -343.89467,-13.5549 -417.38281,-22.8301 -73.48814,-9.2752 -93.46581,-33.5338 -97.0332,-75.6289 -3.56738,-42.0952 -4.99512,-76.3414 -8.5625,-150.543 -2.30779,-48.002 -4.69436,-97.4107 -7.19531,-149.6269 -2.66928,-4.5583 -4.91263,-9.4692 -6.65626,-14.7793 -11.0991,-33.8018 -15.13461,-96.3595 -13.62109,-109.4766 1.34873,-11.689 -2.89847,-20.57 7.93945,-24.8652 l -0.0234,-0.1699 c -2.3711,0.5297 -5.89844,1.3222 -5.89844,1.3222 -5.92793,-3.027 -10.27879,-5.3605 -13.17969,-5.2343 z"
       style="fill:#a6a6a6;fill-opacity:1;stroke:none;stroke-width:1px;stroke-linecap:butt;stroke-linejoin:miter;stroke-opacity:1"
       inkscape:connector-curvature="0" />
    <path
       inkscape:connector-curvature="0"
       id="path1875"
       d="m 672.80892,3063.6207 c 0,-58.5051 14.98302,-37.1008 51.37035,-24.9717 36.38733,12.1291 161.95931,62.786 218.324,92.752 56.36469,29.966 87.75773,62.0725 107.37833,86.3307 19.6206,24.2583 32.8199,46.0193 51.3703,73.8449 18.5504,27.8256 30.3228,47.803 56.3647,94.5357 26.0419,46.7328 56.3647,106.6649 59.9321,115.9401 3.5674,9.2752 1.0702,10.7021 -16.0532,9.2752 -17.1235,-1.427 -126.2855,-9.9887 -141.982,-12.1291 -15.6965,-2.1405 -17.1234,-4.2809 -26.0419,-17.837 -8.9185,-13.556 -32.8199,-52.0838 -72.06119,-68.137 -39.24124,-16.0533 -87.1041,-25.4768 -167.82482,-39.6029 -80.72072,-14.1261 -86.77478,-16.1441 -103.92793,-23.2072 -17.15315,-7.0631 -17.15315,-18.6667 -16.14415,-36.3243 1.00901,-17.6577 -0.40018,-223.4614 -0.70459,-250.4694 z"
       style="fill:#e7e7e7;fill-opacity:1;stroke:none;stroke-width:1px;stroke-linecap:butt;stroke-linejoin:miter;stroke-opacity:1" />
    <path
       transform="translate(672.31124,1193.4432)"
       d="M 384.07227 2307.0449 C 373.92597 2307.3208 375.60886 2313.7767 381.34766 2323.709 C 394.04216 2344.8744 464.97281 2458.0825 502.78711 2528.7168 C 540.60141 2599.351 595.0039 2695.0251 604.8418 2710.1602 C 614.6796 2725.2953 618.71671 2724.5388 630.32031 2724.791 C 641.32776 2725.0303 1078.7759 2725.2467 1158.5352 2723.459 C 1238.2944 2725.2467 1675.7426 2725.0303 1686.75 2724.791 C 1698.3536 2724.5388 1702.3907 2725.2953 1712.2285 2710.1602 C 1722.0664 2695.0251 1776.4689 2599.351 1814.2832 2528.7168 C 1852.0975 2458.0825 1923.0282 2344.8744 1935.7227 2323.709 C 1941.4615 2313.7767 1943.1443 2307.3208 1932.998 2307.0449 C 1931.5485 2307.0055 1929.8593 2307.0917 1927.9043 2307.3125 C 1912.2647 2309.0782 1850.7147 2315.1324 1824.4805 2317.1504 C 1798.2463 2319.1684 1776.3001 2319.6746 1770.2461 2320.6836 C 1764.192 2321.6926 1763.1825 2322.4491 1759.1465 2330.7734 C 1755.1104 2339.0977 1741.4891 2371.6378 1706.1738 2403.6738 C 1670.8585 2435.7098 1642.607 2439.494 1595.1836 2447.8184 C 1547.7602 2456.1427 1466.0295 2461.9439 1431.2188 2463.2051 C 1396.4079 2464.4664 1287.1821 2469.7638 1225.8848 2471.2773 C 1181.5416 2472.3722 1165.6395 2472.6669 1158.5352 2472.75 C 1151.4308 2472.6669 1135.5287 2472.3722 1091.1855 2471.2773 C 1029.8882 2469.7638 920.66236 2464.4664 885.85156 2463.2051 C 851.04076 2461.9439 769.31012 2456.1427 721.88672 2447.8184 C 674.46332 2439.494 646.21178 2435.7098 610.89648 2403.6738 C 575.58118 2371.6378 561.95993 2339.0977 557.92383 2330.7734 C 553.88783 2322.4491 552.87832 2321.6926 546.82422 2320.6836 C 540.77022 2319.6746 518.82404 2319.1684 492.58984 2317.1504 C 466.35564 2315.1324 404.80562 2309.0782 389.16602 2307.3125 C 387.21102 2307.0917 385.52177 2307.0055 384.07227 2307.0449 z "
       style="fill:#e3e3e3;fill-opacity:1;stroke:none;stroke-width:1px;stroke-linecap:butt;stroke-linejoin:miter;stroke-opacity:1"
       id="path1879" />
    <path
       id="path1886"
       d="m 685.64062,3024.6309 c -8.84733,-0.098 -12.83203,8.8235 -12.83203,38.9902 0.30441,27.008 1.71409,232.811 0.70508,250.4687 -1.009,17.6576 -1.00862,29.2612 16.14453,36.3243 5.85789,2.412 10.4733,4.2397 17.15821,6.1582 -1.5838,-137.0643 -3.0193,-277.237 -2.76758,-325.9532 -7.57978,-3.3109 -13.70706,-5.9362 -18.40821,-5.9882 z"
       style="fill:#a6a6a6;fill-opacity:1;stroke:none;stroke-width:1px;stroke-linecap:butt;stroke-linejoin:miter;stroke-opacity:1"
       inkscape:connector-curvature="0" />
    <path
       id="path1893"
       d="m 781.80469,3674.8164 c -5.27391,0.1329 -3.96773,7.6424 -0.16992,18.1191 l 321.52543,64.3047 c 0,0 35.8395,-1.444 33.8164,-5.4902 -2.0231,-4.0462 -0.2896,-6.3596 7.8027,-7.8047 3.3341,-0.5953 7.8693,-1.9488 11.4121,-3.418 -1.1356,-2.0078 -2.2457,-3.9763 -3.3984,-6.0097 -23.6195,-3.4804 -111.6985,-17.0613 -182.47855,-27.752 -78.4753,-11.853 -179.28643,-30.1604 -186.65625,-31.75 -0.69092,-0.149 -1.30794,-0.2129 -1.85351,-0.1992 z"
       style="fill:#959595;fill-opacity:1;stroke:none;stroke-width:1px;stroke-linecap:butt;stroke-linejoin:miter;stroke-opacity:1"
       inkscape:connector-curvature="0" />
    <path
       sodipodi:nodetypes="ccsccssssc"
       inkscape:connector-curvature="0"
       id="path1891"
       d="m 1119.4993,3741.0978 c 14.3053,2.0437 14.3053,3.2698 21.2537,18.8014 6.9483,15.5316 21.6624,43.7336 26.5671,53.1343 4.9047,9.4007 6.5397,12.2618 -9.4006,9.8094 -15.9403,-2.4523 -125.8875,-20.0275 -175.3433,-25.7497 -49.45579,-5.7221 -105.45119,-14.3054 -124.25257,-17.9839 -18.80137,-3.6785 -30.24569,-12.2618 -47.82088,-36.7853 -17.5752,-24.5235 -22.47991,-35.9678 -27.38461,-46.5947 -4.90471,-10.6269 -5.37452,-12.8564 15.12284,-7.3571 33.51551,8.992 258.31452,42.9162 321.25832,52.7256 z"
       style="fill:#222222;fill-opacity:1;stroke:none;stroke-width:1px;stroke-linecap:butt;stroke-linejoin:miter;stroke-opacity:1" />
    <g
       id="g1921">
      <path
         style="fill:#e3e3e3;fill-opacity:1;stroke:none;stroke-width:1px;stroke-linecap:butt;stroke-linejoin:miter;stroke-opacity:1"
         d="m 851.94993,3724.4683 c 9.16952,0.2037 13.65239,4.8904 13.65239,13.8561 0,8.9658 -8.15068,12.6336 -13.65239,12.6336 -5.50171,0 -12.63356,-4.4829 -12.63356,-12.8373 0,-8.3545 3.87158,-13.4487 12.63356,-13.6524 z"
         id="path1898"
         inkscape:connector-curvature="0" />
      <path
         inkscape:connector-curvature="0"
         id="path1908"
         d="m 914.91394,3736.083 c 9.16952,0.2037 13.65239,4.8904 13.65239,13.8561 0,8.9658 -8.15068,12.6336 -13.65239,12.6336 -5.50171,0 -12.63356,-4.4829 -12.63356,-12.8373 0,-8.3545 3.87158,-13.4487 12.63356,-13.6524 z"
         style="fill:#e3e3e3;fill-opacity:1;stroke:none;stroke-width:1px;stroke-linecap:butt;stroke-linejoin:miter;stroke-opacity:1" />
      <path
         style="fill:#e3e3e3;fill-opacity:1;stroke:none;stroke-width:1px;stroke-linecap:butt;stroke-linejoin:miter;stroke-opacity:1"
         d="m 975.42966,3745.5926 c 9.16952,0.2037 13.65239,4.8904 13.65239,13.8561 0,8.9658 -8.15068,12.6336 -13.65239,12.6336 -5.50171,0 -12.63356,-4.4829 -12.63356,-12.8373 0,-8.3545 3.87158,-13.4487 12.63356,-13.6524 z"
         id="path1910"
         inkscape:connector-curvature="0" />
      <path
         inkscape:connector-curvature="0"
         id="path1912"
         d="m 1037.6744,3756.2549 c 9.1695,0.2037 13.6524,4.8904 13.6524,13.8561 0,8.9658 -8.1507,12.6336 -13.6524,12.6336 -5.5017,0 -12.6336,-4.4829 -12.6336,-12.8373 0,-8.3545 3.8716,-13.4487 12.6336,-13.6524 z"
         style="fill:#e3e3e3;fill-opacity:1;stroke:none;stroke-width:1px;stroke-linecap:butt;stroke-linejoin:miter;stroke-opacity:1" />
      <path
         style="fill:#e3e3e3;fill-opacity:1;stroke:none;stroke-width:1px;stroke-linecap:butt;stroke-linejoin:miter;stroke-opacity:1"
         d="m 1100.7836,3765.7645 c 9.1695,0.2037 13.6524,4.8904 13.6524,13.8561 0,8.9658 -8.1507,12.6336 -13.6524,12.6336 -5.5017,0 -12.6336,-4.4829 -12.6336,-12.8373 0,-8.3545 3.8716,-13.4487 12.6336,-13.6524 z"
         id="path1914"
         inkscape:connector-curvature="0" />
    </g>
    <path
       sodipodi:nodetypes="scsccssss"
       inkscape:connector-curvature="0"
       id="path1925"
       d="m 999.68106,3461.8126 c 30.16654,42.6972 39.93834,69.2808 32.60264,77.4314 -7.3356,8.1507 -39.53076,4.4829 -58.27732,18.7466 -18.74657,14.2637 -27.71232,13.8562 -57.86984,8.5582 -30.15752,-5.2979 -120.63008,-28.5274 -156.08554,-44.8287 -35.45546,-16.3014 -47.68148,-37.9007 -56.64723,-70.5034 -8.96575,-32.6027 -14.67123,-67.6507 2.4452,-65.613 17.11643,2.0377 74.1712,11.411 134.89377,22.4144 60.72258,11.0034 135.93102,21.2303 158.93832,53.7945 z"
       style="fill:#3f3f3f;fill-opacity:1;stroke:none;stroke-width:1px;stroke-linecap:butt;stroke-linejoin:miter;stroke-opacity:1" />
    <path
       inkscape:connector-curvature="0"
       id="path1927"
       d="m 833.40713,3430.4325 c 26.48971,1.6301 39.93834,20.7842 39.93834,42.791 0,22.0069 -17.9315,39.1233 -39.93834,39.1233 -22.00684,0 -40.34587,-19.5616 -39.93834,-41.5685 0.40754,-22.0068 15.89383,-40.3458 39.93834,-40.3458 z"
       style="fill:#ececec;fill-opacity:1;stroke:none;stroke-width:1px;stroke-linecap:butt;stroke-linejoin:miter;stroke-opacity:1" />
    <path
       style="fill:#ececec;fill-opacity:1;stroke:none;stroke-width:1px;stroke-linecap:butt;stroke-linejoin:miter;stroke-opacity:1"
       d="m 950.77694,3462.6277 c 26.48971,1.6301 39.93834,20.7842 39.93834,42.791 0,22.0069 -17.9315,39.1233 -39.93834,39.1233 -22.00684,0 -40.34587,-19.5616 -39.93834,-41.5685 0.40754,-22.0068 15.89383,-40.3458 39.93834,-40.3458 z"
       id="path1929"
       inkscape:connector-curvature="0" />
    <path
       inkscape:connector-curvature="0"
       id="path1931"
       d="m 739.15628,3466.0086 c 14.4085,0.2882 25.35897,-10.0859 25.64714,-23.9181 0.28817,-13.8321 -10.37413,-28.2406 -25.64714,-28.2406 -15.27302,0 -26.22348,14.4085 -26.51165,29.6815 -0.28817,15.273 16.13753,22.4772 26.51165,22.4772 z"
       style="fill:#bd7c26;fill-opacity:1;stroke:none;stroke-width:1px;stroke-linecap:butt;stroke-linejoin:miter;stroke-opacity:1" />
    <path
       transform="translate(672.31124,1193.4432)"
       d="M 882.59375 2530.4707 C 859.03465 2530.4707 851.04281 2532.5731 920.87891 2534.2559 C 982.42443 2535.7389 1122.8506 2538.5165 1158.0352 2538.582 L 1158.0352 2538.5898 C 1158.1567 2538.5897 1158.4108 2538.5861 1158.5352 2538.5859 C 1158.6595 2538.5861 1158.9136 2538.5897 1159.0352 2538.5898 L 1159.0352 2538.582 C 1194.2197 2538.5165 1334.6459 2535.7389 1396.1914 2534.2559 C 1466.0275 2532.5731 1458.0357 2530.4707 1434.4766 2530.4707 C 1411.3749 2530.4707 1270.3165 2530.884 1158.5352 2532.4863 C 1046.7538 2530.884 905.69546 2530.4707 882.59375 2530.4707 z "
       style="fill:#595959;fill-opacity:1;stroke:none;stroke-width:1px;stroke-linecap:butt;stroke-linejoin:miter;stroke-opacity:1"
       id="path1933" />
    <path
       transform="translate(672.31124,1193.4432)"
       d="M 1158.0352 174.35547 L 1158.0352 174.36914 C 1083.8446 175.24911 991.59804 177.02863 896.8418 179.92188 C 709.6297 185.63828 401.87965 196.02982 281.62695 203.10352 C 161.37432 210.17722 142.17365 209.16792 113.87891 227.35742 C 101.5446 235.28662 93.245179 245.13548 87.636719 255.98438 C 89.395319 267.98498 93.706219 297.20251 97.230469 319.22461 C 99.703569 314.02661 105.28476 312.29264 118.69727 311.39844 C 140.13377 309.96934 225.1642 304.25292 382.36523 297.10742 C 532.41954 290.28676 1029.0744 282.18723 1158.5352 281.46289 C 1287.9959 282.18723 1784.6508 290.28676 1934.7051 297.10742 C 2091.9061 304.25292 2176.9365 309.96934 2198.373 311.39844 C 2211.7856 312.29264 2217.3667 314.02661 2219.8398 319.22461 C 2223.3641 297.20251 2227.675 267.98498 2229.4336 255.98438 C 2223.8251 245.13548 2215.5257 235.28662 2203.1914 227.35742 C 2174.8967 209.16792 2155.696 210.17722 2035.4434 203.10352 C 1915.1907 196.02982 1607.4406 185.63828 1420.2285 179.92188 C 1325.4723 177.02863 1233.2257 175.24911 1159.0352 174.36914 L 1159.0352 174.35547 C 1158.8733 174.35738 1158.6972 174.35941 1158.5352 174.36133 C 1158.3731 174.35941 1158.197 174.35738 1158.0352 174.35547 z "
       style="fill:#e2e2e2;fill-opacity:1;stroke:none;stroke-width:1px;stroke-linecap:butt;stroke-linejoin:miter;stroke-opacity:1"
       id="path1441" />
    <path
       transform="translate(672.31124,1193.4432)"
       d="M 1140.3359 332.74414 C 941.28948 333.14184 516.07477 345.78715 485.25977 347.12695 C 452.39047 348.55605 446.67519 349.98558 445.24609 381.42578 C 443.81699 412.86598 446.67383 544.34221 446.67383 564.34961 C 446.67383 584.35701 446.67386 598.64844 475.25586 598.64844 C 500.07637 598.64844 1008.7553 595.22255 1158.5352 594.49414 C 1308.315 595.22255 1816.9939 598.64844 1841.8145 598.64844 C 1870.3965 598.64844 1870.3965 584.35701 1870.3965 564.34961 C 1870.3965 544.34221 1873.2533 412.86598 1871.8242 381.42578 C 1870.3951 349.98558 1864.6798 348.55605 1831.8105 347.12695 C 1800.9955 345.78715 1375.7808 333.14184 1176.7344 332.74414 L 1176.7344 332.74609 C 1170.5948 332.7319 1164.7245 332.73417 1159.0352 332.74609 C 1158.7151 332.74535 1158.3566 332.74677 1158.0352 332.74609 C 1152.3458 332.73417 1146.4756 332.7319 1140.3359 332.74609 L 1140.3359 332.74414 z "
       style="fill:#292929;fill-opacity:1;stroke:none;stroke-width:1px;stroke-linecap:butt;stroke-linejoin:miter;stroke-opacity:1"
       id="path1450" />
    <path
       inkscape:connector-curvature="0"
       id="path1452"
       d="m 909.66685,1654.259 c 1.17074,-36.293 -2.34149,-40.976 46.82969,-44.4882 49.17116,-3.5122 52.68346,0 55.02486,31.61 2.3415,31.6101 1.1708,37.4638 -45.65892,40.976 -46.82969,3.5123 -56.19563,0 -56.19563,-28.0978 z"
       style="fill:#ce7e2b;fill-opacity:1;stroke:none;stroke-width:1px;stroke-linecap:butt;stroke-linejoin:miter;stroke-opacity:1" />
  </g>
  <g
     transform="matrix(-1,0,0,1,2989.3814,-1193.4432)"
     id="g3574">
    <path
       style="fill:#ececec;fill-opacity:1;stroke:none;stroke-width:1px;stroke-linecap:butt;stroke-linejoin:miter;stroke-opacity:1"
       d="m 690.16216,3345.3694 c -11.85585,-6.0541 -17.4054,-9.3334 -17.65765,4.2883 -0.25226,13.6216 1.009,99.6396 2.01801,144.5405 1.00901,44.9009 4.54054,277.982 4.03604,320.8649 -0.5045,42.8828 -6.55856,79.2072 64.07207,83.7477 70.63063,4.5405 481.29727,17.1532 502.48647,17.6577 21.1892,0.5045 14.6307,-3.5316 1.5135,-17.1532 -13.1171,-13.6216 -25.2252,-37.8378 -53.4774,-91.8198 -28.2523,-53.982 -115.0271,-202.8108 -126.1262,-221.4775 -11.0991,-18.6667 -6.054,-19.1712 -34.3063,-22.1982 -28.2522,-3.027 -39.85583,4.5406 -54.99097,13.1171 -15.13513,8.5766 -23.71171,13.1172 -57.00901,5.0451 -33.29729,-8.0721 -109.98198,-25.7298 -143.27928,-38.8469 -33.29729,-13.1171 -64.57657,-30.7747 -75.67567,-64.5765 -11.0991,-33.8018 -15.13514,-96.3604 -13.62162,-109.4775 1.51351,-13.1171 -4.03604,-22.7027 12.61261,-26.2343 16.64865,-3.5315 -10.5946,2.5226 -10.5946,2.5226 z"
       id="path3520"
       inkscape:connector-curvature="0" />
    <path
       inkscape:connector-curvature="0"
       style="fill:#a6a6a6;fill-opacity:1;stroke:none;stroke-width:1px;stroke-linecap:butt;stroke-linejoin:miter;stroke-opacity:1"
       d="m 676.98242,3340.1348 c -2.9009,0.1261 -4.35239,2.7126 -4.47851,9.5234 -0.25226,13.6216 1.01052,99.6382 2.01953,144.5391 1.00901,44.9009 4.53965,277.9823 4.03515,320.8652 -0.5045,42.8828 -6.55836,79.2075 64.07227,83.748 70.63063,4.5405 481.29714,17.1538 502.48634,17.6583 21.1892,0.5045 14.6309,-3.5327 1.5137,-17.1543 -2.0429,-2.1215 -4.0663,-4.5383 -6.125,-7.2461 -0.6373,-0.048 -1.2746,-0.086 -1.9102,-0.1016 -29.2526,-0.7135 -343.89467,-13.5549 -417.38281,-22.8301 -73.48814,-9.2752 -93.46581,-33.5338 -97.0332,-75.6289 -3.56738,-42.0952 -4.99512,-76.3414 -8.5625,-150.543 -2.30779,-48.002 -4.69436,-97.4107 -7.19531,-149.6269 -2.66928,-4.5583 -4.91263,-9.4692 -6.65626,-14.7793 -11.0991,-33.8018 -15.13461,-96.3595 -13.62109,-109.4766 1.34873,-11.689 -2.89847,-20.57 7.93945,-24.8652 l -0.0234,-0.1699 c -2.3711,0.5297 -5.89844,1.3222 -5.89844,1.3222 -5.92793,-3.027 -10.27879,-5.3605 -13.17969,-5.2343 z"
       id="path3534" />
    <path
       style="fill:#e7e7e7;fill-opacity:1;stroke:none;stroke-width:1px;stroke-linecap:butt;stroke-linejoin:miter;stroke-opacity:1"
       d="m 672.80892,3063.6207 c 0,-58.5051 14.98302,-37.1008 51.37035,-24.9717 36.38733,12.1291 161.95931,62.786 218.324,92.752 56.36469,29.966 87.75773,62.0725 107.37833,86.3307 19.6206,24.2583 32.8199,46.0193 51.3703,73.8449 18.5504,27.8256 30.3228,47.803 56.3647,94.5357 26.0419,46.7328 56.3647,106.6649 59.9321,115.9401 3.5674,9.2752 1.0702,10.7021 -16.0532,9.2752 -17.1235,-1.427 -126.2855,-9.9887 -141.982,-12.1291 -15.6965,-2.1405 -17.1234,-4.2809 -26.0419,-17.837 -8.9185,-13.556 -32.8199,-52.0838 -72.06119,-68.137 -39.24124,-16.0533 -87.1041,-25.4768 -167.82482,-39.6029 -80.72072,-14.1261 -86.77478,-16.1441 -103.92793,-23.2072 -17.15315,-7.0631 -17.15315,-18.6667 -16.14415,-36.3243 1.00901,-17.6577 -0.40018,-223.4614 -0.70459,-250.4694 z"
       id="path3536"
       inkscape:connector-curvature="0" />
    <path
       inkscape:connector-curvature="0"
       style="fill:#a6a6a6;fill-opacity:1;stroke:none;stroke-width:1px;stroke-linecap:butt;stroke-linejoin:miter;stroke-opacity:1"
       d="m 685.64062,3024.6309 c -8.84733,-0.098 -12.83203,8.8235 -12.83203,38.9902 0.30441,27.008 1.71409,232.811 0.70508,250.4687 -1.009,17.6576 -1.00862,29.2612 16.14453,36.3243 5.85789,2.412 10.4733,4.2397 17.15821,6.1582 -1.5838,-137.0643 -3.0193,-277.237 -2.76758,-325.9532 -7.57978,-3.3109 -13.70706,-5.9362 -18.40821,-5.9882 z"
       id="path3540" />
    <path
       inkscape:connector-curvature="0"
       style="fill:#959595;fill-opacity:1;stroke:none;stroke-width:1px;stroke-linecap:butt;stroke-linejoin:miter;stroke-opacity:1"
       d="m 781.80469,3674.8164 c -5.27391,0.1329 -3.96773,7.6424 -0.16992,18.1191 l 321.52543,64.3047 c 0,0 35.8395,-1.444 33.8164,-5.4902 -2.0231,-4.0462 -0.2896,-6.3596 7.8027,-7.8047 3.3341,-0.5953 7.8693,-1.9488 11.4121,-3.418 -1.1356,-2.0078 -2.2457,-3.9763 -3.3984,-6.0097 -23.6195,-3.4804 -111.6985,-17.0613 -182.47855,-27.752 -78.4753,-11.853 -179.28643,-30.1604 -186.65625,-31.75 -0.69092,-0.149 -1.30794,-0.2129 -1.85351,-0.1992 z"
       id="path3542" />
    <path
       style="fill:#222222;fill-opacity:1;stroke:none;stroke-width:1px;stroke-linecap:butt;stroke-linejoin:miter;stroke-opacity:1"
       d="m 1119.4993,3741.0978 c 14.3053,2.0437 14.3053,3.2698 21.2537,18.8014 6.9483,15.5316 21.6624,43.7336 26.5671,53.1343 4.9047,9.4007 6.5397,12.2618 -9.4006,9.8094 -15.9403,-2.4523 -125.8875,-20.0275 -175.3433,-25.7497 -49.45579,-5.7221 -105.45119,-14.3054 -124.25257,-17.9839 -18.80137,-3.6785 -30.24569,-12.2618 -47.82088,-36.7853 -17.5752,-24.5235 -22.47991,-35.9678 -27.38461,-46.5947 -4.90471,-10.6269 -5.37452,-12.8564 15.12284,-7.3571 33.51551,8.992 258.31452,42.9162 321.25832,52.7256 z"
       id="path3544"
       inkscape:connector-curvature="0"
       sodipodi:nodetypes="ccsccssssc" />
    <g
       id="g3556">
      <path
         inkscape:connector-curvature="0"
         id="path3546"
         d="m 851.94993,3724.4683 c 9.16952,0.2037 13.65239,4.8904 13.65239,13.8561 0,8.9658 -8.15068,12.6336 -13.65239,12.6336 -5.50171,0 -12.63356,-4.4829 -12.63356,-12.8373 0,-8.3545 3.87158,-13.4487 12.63356,-13.6524 z"
         style="fill:#e3e3e3;fill-opacity:1;stroke:none;stroke-width:1px;stroke-linecap:butt;stroke-linejoin:miter;stroke-opacity:1" />
      <path
         style="fill:#e3e3e3;fill-opacity:1;stroke:none;stroke-width:1px;stroke-linecap:butt;stroke-linejoin:miter;stroke-opacity:1"
         d="m 914.91394,3736.083 c 9.16952,0.2037 13.65239,4.8904 13.65239,13.8561 0,8.9658 -8.15068,12.6336 -13.65239,12.6336 -5.50171,0 -12.63356,-4.4829 -12.63356,-12.8373 0,-8.3545 3.87158,-13.4487 12.63356,-13.6524 z"
         id="path3548"
         inkscape:connector-curvature="0" />
      <path
         inkscape:connector-curvature="0"
         id="path3550"
         d="m 975.42966,3745.5926 c 9.16952,0.2037 13.65239,4.8904 13.65239,13.8561 0,8.9658 -8.15068,12.6336 -13.65239,12.6336 -5.50171,0 -12.63356,-4.4829 -12.63356,-12.8373 0,-8.3545 3.87158,-13.4487 12.63356,-13.6524 z"
         style="fill:#e3e3e3;fill-opacity:1;stroke:none;stroke-width:1px;stroke-linecap:butt;stroke-linejoin:miter;stroke-opacity:1" />
      <path
         style="fill:#e3e3e3;fill-opacity:1;stroke:none;stroke-width:1px;stroke-linecap:butt;stroke-linejoin:miter;stroke-opacity:1"
         d="m 1037.6744,3756.2549 c 9.1695,0.2037 13.6524,4.8904 13.6524,13.8561 0,8.9658 -8.1507,12.6336 -13.6524,12.6336 -5.5017,0 -12.6336,-4.4829 -12.6336,-12.8373 0,-8.3545 3.8716,-13.4487 12.6336,-13.6524 z"
         id="path3552"
         inkscape:connector-curvature="0" />
      <path
         inkscape:connector-curvature="0"
         id="path3554"
         d="m 1100.7836,3765.7645 c 9.1695,0.2037 13.6524,4.8904 13.6524,13.8561 0,8.9658 -8.1507,12.6336 -13.6524,12.6336 -5.5017,0 -12.6336,-4.4829 -12.6336,-12.8373 0,-8.3545 3.8716,-13.4487 12.6336,-13.6524 z"
         style="fill:#e3e3e3;fill-opacity:1;stroke:none;stroke-width:1px;stroke-linecap:butt;stroke-linejoin:miter;stroke-opacity:1" />
    </g>
    <path
       style="fill:#3f3f3f;fill-opacity:1;stroke:none;stroke-width:1px;stroke-linecap:butt;stroke-linejoin:miter;stroke-opacity:1"
       d="m 999.68106,3461.8126 c 30.16654,42.6972 39.93834,69.2808 32.60264,77.4314 -7.3356,8.1507 -39.53076,4.4829 -58.27732,18.7466 -18.74657,14.2637 -27.71232,13.8562 -57.86984,8.5582 -30.15752,-5.2979 -120.63008,-28.5274 -156.08554,-44.8287 -35.45546,-16.3014 -47.68148,-37.9007 -56.64723,-70.5034 -8.96575,-32.6027 -14.67123,-67.6507 2.4452,-65.613 17.11643,2.0377 74.1712,11.411 134.89377,22.4144 60.72258,11.0034 135.93102,21.2303 158.93832,53.7945 z"
       id="path3558"
       inkscape:connector-curvature="0"
       sodipodi:nodetypes="scsccssss" />
    <path
       style="fill:#ececec;fill-opacity:1;stroke:none;stroke-width:1px;stroke-linecap:butt;stroke-linejoin:miter;stroke-opacity:1"
       d="m 833.40713,3430.4325 c 26.48971,1.6301 39.93834,20.7842 39.93834,42.791 0,22.0069 -17.9315,39.1233 -39.93834,39.1233 -22.00684,0 -40.34587,-19.5616 -39.93834,-41.5685 0.40754,-22.0068 15.89383,-40.3458 39.93834,-40.3458 z"
       id="path3560"
       inkscape:connector-curvature="0" />
    <path
       inkscape:connector-curvature="0"
       id="path3562"
       d="m 950.77694,3462.6277 c 26.48971,1.6301 39.93834,20.7842 39.93834,42.791 0,22.0069 -17.9315,39.1233 -39.93834,39.1233 -22.00684,0 -40.34587,-19.5616 -39.93834,-41.5685 0.40754,-22.0068 15.89383,-40.3458 39.93834,-40.3458 z"
       style="fill:#ececec;fill-opacity:1;stroke:none;stroke-width:1px;stroke-linecap:butt;stroke-linejoin:miter;stroke-opacity:1" />
    <path
       style="fill:#bd7c26;fill-opacity:1;stroke:none;stroke-width:1px;stroke-linecap:butt;stroke-linejoin:miter;stroke-opacity:1"
       d="m 739.15628,3466.0086 c 14.4085,0.2882 25.35897,-10.0859 25.64714,-23.9181 0.28817,-13.8321 -10.37413,-28.2406 -25.64714,-28.2406 -15.27302,0 -26.22348,14.4085 -26.51165,29.6815 -0.28817,15.273 16.13753,22.4772 26.51165,22.4772 z"
       id="path3564"
       inkscape:connector-curvature="0" />
    <path
       style="fill:#ce7e2b;fill-opacity:1;stroke:none;stroke-width:1px;stroke-linecap:butt;stroke-linejoin:miter;stroke-opacity:1"
       d="m 909.66685,1654.259 c 1.17074,-36.293 -2.34149,-40.976 46.82969,-44.4882 49.17116,-3.5122 52.68346,0 55.02486,31.61 2.3415,31.6101 1.1708,37.4638 -45.65892,40.976 -46.82969,3.5123 -56.19563,0 -56.19563,-28.0978 z"
       id="path3572"
       inkscape:connector-curvature="0" />
  </g>
</svg>
