<?xml version="1.0" encoding="UTF-8" standalone="no"?>
<svg
   inkscape:version="1.1 (c4e8f9e, 2021-05-24)"
   sodipodi:docname="hcmt-aboriginal.svg"
   width="605.68793mm"
   height="344.78775mm"
   viewBox="0 0 605.68791 344.78775"
   version="1.1"
   id="svg8"
   xmlns:inkscape="http://www.inkscape.org/namespaces/inkscape"
   xmlns:sodipodi="http://sodipodi.sourceforge.net/DTD/sodipodi-0.dtd"
   xmlns="http://www.w3.org/2000/svg"
   xmlns:svg="http://www.w3.org/2000/svg"
   xmlns:rdf="http://www.w3.org/1999/02/22-rdf-syntax-ns#"
   xmlns:cc="http://creativecommons.org/ns#"
   xmlns:dc="http://purl.org/dc/elements/1.1/">
  <sodipodi:namedview
     inkscape:current-layer="svg8"
     inkscape:window-maximized="1"
     inkscape:window-y="25"
     inkscape:window-x="0"
     inkscape:cy="626.83156"
     inkscape:cx="1080.4918"
     inkscape:zoom="0.20499925"
     showgrid="false"
     id="namedview945"
     inkscape:window-height="847"
     inkscape:window-width="1440"
     inkscape:pageshadow="2"
     inkscape:pageopacity="0"
     guidetolerance="10"
     gridtolerance="10"
     objecttolerance="10"
     borderopacity="1"
     bordercolor="#666666"
     pagecolor="#ffffff"
     inkscape:pagecheckerboard="0"
     inkscape:document-units="mm"
     inkscape:lockguides="true"
     inkscape:snap-global="false" />
  <defs
     id="defs2" />
  <metadata
     id="metadata5">
    <rdf:RDF>
      <cc:Work
         rdf:about="">
        <dc:format>image/svg+xml</dc:format>
        <dc:type
           rdf:resource="http://purl.org/dc/dcmitype/StillImage" />
      </cc:Work>
    </rdf:RDF>
  </metadata>
  <g
     id="g1377"
     transform="matrix(1.9966697,2.1273976,-2.1273976,1.9966697,505.27466,-20.032883)">
    <path
       id="path6799"
       style="stroke-width:12.5"
       d="M 588.54492,0.00195313 C 398.73085,-0.16112663 298.00303,235.8791 93.599609,197.08789 c 7.275001,19.65 14.287501,39.4375 21.562501,59.125 7.3125,19.6625 14.25,39.4625 21.5625,59.125 0.002,10e-4 0.004,0.003 0.006,0.004 -0.006,-10e-4 -0.0117,-0.003 -0.0176,-0.004 7.2875,19.6625 14.25,39.4625 21.5625,59.125 C 338.57539,478.12539 572.025,159.3 697.875,181.6875 c -7.2875,-19.6625 -14.25,-39.45 -21.5625,-59.125 -0.96088,-0.1824 -1.91477,-0.34337 -2.87109,-0.51367 0.96413,0.1509 1.92156,0.31669 2.87109,0.50195 -7.2875,-19.6625 -14.23711,-39.46328 -21.53711,-59.11328 -7.3,-19.675 -14.25078,-39.475 -21.55078,-59.125 -15.4582,-2.9355469 -30.324,-4.29821311 -44.67969,-4.31054687 z"
       transform="scale(0.08)" />
    <path
       id="path6805"
       style="fill:#b62519;fill-opacity:1;stroke-width:12.5"
       d="m 653.19336,177.37695 c -189.8254,-0.15869 -290.56104,235.91201 -494.91797,197.08594 7.3,19.6625 14.23711,39.475 21.53711,59.125 0.007,0.006 0.0144,0.0115 0.0215,0.0176 -0.0111,-0.002 -0.0221,-0.004 -0.0332,-0.006 7.2625,19.675 14.2625,39.45 21.5625,59.125 7.2875,19.6625 14.2625,39.46328 21.5625,59.11328 219.8375,41.75 319.78672,-234.51367 539.57422,-192.76367 -7.25,-19.6625 -14.23789,-39.44922 -21.52539,-59.13672 -7.275,-19.675 -14.24961,-39.45078 -21.53711,-59.11328 -0.13079,-0.0248 -0.25992,-0.0457 -0.39062,-0.0703 0.13398,0.02 0.2687,0.0377 0.40234,0.0586 -7.3,-19.675 -14.28672,-39.4625 -21.57422,-59.125 -15.45908,-2.93555 -30.3251,-4.29854 -44.68164,-4.31055 z"
       transform="scale(0.08)" />
    <g
       fill="#3e4347"
       id="g6817">
      <circle
         cx="5.1680002"
         cy="13.336"
         r="2.168"
         id="circle6811" />
      <path
         d="M 7.04,14.49 4.48,15.419 22.186,64 h 2.896 z"
         id="path6813" />
      <path
         d="m 3.688,15.602 4.076,-1.48 0.37,1.017 -4.077,1.48 z"
         id="path6815" />
    </g>
    <path
       style="fill:#f8f552;fill-opacity:1;stroke:none;stroke-width:0.08px;stroke-linecap:butt;stroke-linejoin:miter;stroke-opacity:1"
       d="m 26.485548,28.710056 c -1.861767,-3.074047 0.486611,-8.202873 2.085476,-10.28835 1.598866,-2.085476 6.647543,-6.964786 10.913993,-3.614825 2.101495,1.650067 2.215595,6.282949 -2.085477,11.817699 -2.723929,3.505235 -7.927607,7.01643 -10.913992,2.085476 z"
       id="path8171"
       sodipodi:nodetypes="sssss" />
  </g>
  <rect
     style="fill:#ffffff;fill-opacity:0;stroke:none;stroke-width:4;stroke-linecap:round;stroke-linejoin:round"
     id="rect1401"
     width="247.80579"
     height="80.020615"
     x="0"
     y="46.463581" />
  <g
     id="layer1"
     transform="matrix(1.6385062,0,0,1.6385062,1636.4371,-68.451429)">
    <path
       inkscape:connector-curvature="0"
       id="path1565"
       d="m -830.4322,193.06044 v 0.001 l -49.42538,0.23202 -15.71533,7.68016 -10.75232,19.6143 -1.18131,31.48904 c 2.1268,-0.0591 3.48549,-0.0588 4.96247,-0.11782 1.47698,-0.0591 2.24483,-5.61258 2.24483,-5.61258 l 2.24534,-23.51381 11.46132,-19.61431 23.8678,-4.60799 32.39233,-0.2098 32.39233,0.2098 23.86779,4.60799 11.46133,19.61431 2.24533,23.51381 c 0,0 0.76785,5.55347 2.24484,5.61258 1.47698,0.0591 2.83567,0.0587 4.96247,0.11782 l -1.18131,-31.48904 -10.75233,-19.6143 -15.71532,-7.68016 -49.42541,-0.23202 v -0.001 l -0.0997,5.3e-4 z"
       style="fill:#191919;fill-opacity:1;stroke:none;stroke-width:0.264583px;stroke-linecap:butt;stroke-linejoin:miter;stroke-opacity:1" />
    <path
       inkscape:connector-curvature="0"
       id="path1567"
       d="m -835.54506,42.333725 c -16.04918,0.03434 -42.88052,1.144977 -47.34026,2.308387 -5.48891,1.43189 -12.56874,11.216885 -12.56874,11.216885 l -0.79531,11.455115 65.91692,-0.935861 65.91691,0.935861 -0.79531,-11.455115 c 0,0 -7.07982,-9.784995 -12.56874,-11.216885 -4.45974,-1.16341 -31.29108,-2.274047 -47.34025,-2.308387 -1.93644,-0.0042 -3.65075,0.01265 -5.21261,0.04186 -1.56186,-0.0292 -3.27618,-0.046 -5.21261,-0.04186 z"
       style="fill:#292929;fill-opacity:1;stroke:none;stroke-width:0.264583px;stroke-linecap:butt;stroke-linejoin:miter;stroke-opacity:1" />
    <path
       inkscape:connector-curvature="0"
       id="path1569"
       d="m -895.93155,167.86456 -24.65999,11.93261 -2.8639,9.38651 6.04562,38.50204 c 0,0 0.1591,10.1822 1.27278,14.95515 1.11369,4.77298 5.25039,10.02339 9.22788,9.38702 3.97748,-0.6364 4.61404,-10.81876 5.56863,-23.06939 0.95459,-12.25062 7.31853,-27.52401 17.81908,-30.3878 9.90523,-2.70142 42.11724,-2.99516 53.08925,-2.7528 v 0.004 c 0.0297,-7.9e-4 0.0697,-7.9e-4 0.0997,-0.002 0.03,8e-4 0.0701,8e-4 0.0997,0.002 v -0.004 c 10.97203,-0.24236 43.18405,0.0514 53.08928,2.7528 10.50054,2.86379 16.86446,18.13718 17.81905,30.3878 0.95459,12.25063 1.59118,22.43299 5.56866,23.06939 3.97748,0.63637 8.11419,-4.61404 9.22787,-9.38702 1.11369,-4.77295 1.27278,-14.95515 1.27278,-14.95515 l 6.04563,-38.50204 -2.86391,-9.38651 -24.65998,-11.93261 -8.43257,3.50005 -57.06681,-1.55546 v -0.006 l -0.0997,0.003 -0.0997,-0.003 v 0.006 l -57.06679,1.55546 z"
       style="fill:#282828;fill-opacity:1;stroke:none;stroke-width:0.264583px;stroke-linecap:butt;stroke-linejoin:miter;stroke-opacity:1" />
    <path
       inkscape:connector-curvature="0"
       id="path1571"
       d="m -861.84422,62.898877 c -15.94969,0 -31.54175,0.119505 -32.81455,0.4377 -2.54556,0.6364 -1.74974,46.774923 -1.74974,46.774923 l 7.11014,59.48732 c 3.82501,4.3875 5.51236,5.17513 6.63732,5.73764 1.00523,0.5026 42.99129,-0.56289 52.3286,-0.80564 9.3373,0.24275 51.32337,1.30824 52.32857,0.80564 1.12499,-0.56251 2.81234,-1.35014 6.63734,-5.73764 l 7.11015,-59.48732 c 0,0 0.79579,-46.138523 -1.74977,-46.774923 -1.2728,-0.318195 -16.86483,-0.4377 -32.81452,-0.4377 -12.64333,3e-6 -25.37376,0.07569 -31.51177,0.186037 -6.13802,-0.110347 -18.86844,-0.186034 -31.51177,-0.186037 z"
       style="fill:#212121;fill-opacity:1;stroke:none;stroke-width:0.264583px;stroke-linecap:butt;stroke-linejoin:miter;stroke-opacity:1" />
    <path
       inkscape:connector-curvature="0"
       id="path1573"
       d="m -861.84422,62.898877 c -11.23855,0 -22.19058,0.06142 -28.1895,0.207741 -0.22892,2.116304 -0.40317,5.181192 -0.64699,9.93531 -0.6364,12.409728 -0.23672,29.903752 0.47697,39.138182 1.87841,24.30513 5.24311,34.25213 6.30351,38.10051 0.85474,3.10198 1.43187,3.65921 5.09114,3.65921 3.55171,0 32.35505,0.0811 48.47664,-0.0641 16.12159,0.14517 44.92492,0.0641 48.47661,0.0641 3.65927,0 4.23643,-0.55723 5.09117,-3.65921 1.06039,-3.84838 4.4251,-13.79538 6.30351,-38.10051 0.71366,-9.23443 1.11337,-26.728454 0.47696,-39.138182 -0.24381,-4.754118 -0.41806,-7.819006 -0.64698,-9.93531 -5.99893,-0.146323 -16.95096,-0.207741 -28.1895,-0.207741 -12.64309,0 -25.37257,-0.166423 -31.51177,-0.166423 -6.13921,0 -18.86868,0.166423 -31.51177,0.166423 z"
       style="fill:#1b1b1b;fill-opacity:1;stroke:none;stroke-width:0.264583px;stroke-linecap:butt;stroke-linejoin:miter;stroke-opacity:1" />
    <path
       inkscape:connector-curvature="0"
       id="path1575"
       d="m -892.11112,61.711394 c 1.4625,-6.4125 5.0625,-11.8125 8.325,-14.9625 3.2625,-3.15 2.25,-3.375 0.7875,-4.3875 -1.4625,-1.0125 -3.7125,-0.45 -4.44375,-0.225 -0.73125,0.225 -3.54375,10.4625 -3.54375,10.4625 z"
       style="fill:#a3a3a3;fill-opacity:1;stroke:none;stroke-width:0.264583px;stroke-linecap:butt;stroke-linejoin:miter;stroke-opacity:1" />
    <path
       inkscape:connector-curvature="0"
       id="path1577"
       d="m -906.62362,178.93638 c -10.575,6.18752 -16.425,10.6875 -12.825,29.58751 3.6,18.9 4.95,26.55001 5.5125,30.48751 0.5625,3.93748 0.3375,4.61248 -0.675,5.39999 -1.0125,0.7875 -1.125,-0.45001 -2.025,-3.6 -0.9,-3.15 -6.975,-37.57499 -7.5375,-40.61251 -0.5625,-3.0375 1.9125,-11.36248 1.9125,-11.36248 l 5.2875,-7.425 z"
       style="fill:#a3a3a3;fill-opacity:1;stroke:none;stroke-width:0.264583px;stroke-linecap:butt;stroke-linejoin:miter;stroke-opacity:1" />
    <path
       inkscape:connector-curvature="0"
       id="path1579"
       d="m -830.4322,171.04835 v 0.002 c -3.12079,0.009 -53.18109,0.39625 -54.20288,0.55345 -1.03413,0.15909 -2.22761,0.63669 -1.82986,1.98902 0.37092,1.26114 4.68323,18.42325 6.68279,24.21765 12.59438,-1.99314 39.48782,-2.2094 49.34995,-1.99316 v 0.004 c 0.03,-7.9e-4 0.0694,-0.001 0.0997,-0.002 0.0303,7.9e-4 0.0697,0.001 0.0997,0.002 v -0.004 c 9.86216,-0.21624 36.7556,2e-5 49.34998,1.99316 1.99956,-5.7944 6.31187,-22.95651 6.68279,-24.21765 0.39775,-1.35233 -0.79574,-1.82993 -1.82986,-1.98902 -1.02179,-0.1572 -51.0821,-0.54419 -54.20291,-0.55345 v -0.002 c -0.007,1e-5 -0.0921,5.3e-4 -0.0997,5.3e-4 -0.008,-2e-5 -0.0928,-5.3e-4 -0.0997,-5.3e-4 z"
       style="fill:#ffb412;fill-opacity:1;stroke:none;stroke-width:0.264583px;stroke-linecap:butt;stroke-linejoin:miter;stroke-opacity:1" />
    <path
       inkscape:connector-curvature="0"
       id="path1581"
       d="m -892.51071,174.70583 c 8.16023,-2.27066 10.10279,-3.42064 8.1936,-12.17109 -1.90919,-8.75045 -6.52306,-27.76278 -8.11405,-45.74097 -1.59099,-17.978186 -1.59099,-40.092956 0.3182,-51.707186 1.90919,-11.61423 2.86378,-16.069 4.77297,-20.04648 1.90919,-3.97747 0.4773,-3.18197 -2.38648,-2.22738 -2.86379,0.95459 -19.88738,9.38684 -24.66035,17.65999 -4.77298,8.27315 -8.43225,31.50161 -9.54595,48.684296 -1.11369,17.1827 -3.65927,51.54809 -3.02288,66.6625 0.6364,15.1144 1.75009,20.04647 2.86379,24.97854 1.11369,4.93207 0.47729,1.4319 1.75008,-4.93207 1.2728,-6.36397 4.13658,-10.97783 10.65964,-14.15981 6.52306,-3.18199 14.5173,-5.7053 19.17143,-7.00034 z"
       style="fill:#b2b2b2;fill-opacity:1;stroke:none;stroke-width:0.264583px;stroke-linecap:butt;stroke-linejoin:miter;stroke-opacity:1" />
    <path
       inkscape:connector-curvature="0"
       id="path1583"
       d="m -897.69956,46.736932 c -6.07996,3.431704 -13.73136,8.611883 -16.68735,13.735597 -0.99335,1.721808 -1.93757,4.098666 -2.82153,6.926707 -0.67015,18.753188 -1.35193,51.284664 -1.47382,61.645334 -0.1591,13.52342 0.47704,17.02363 1.90893,20.52381 1.43189,3.50017 7.00034,2.86333 11.45512,2.70423 4.45477,-0.1591 6.20466,-49.32049 5.88646,-58.230039 -0.29732,-8.324879 -0.4547,-30.538536 1.73219,-47.305639 z"
       style="fill:#49b3f1;fill-opacity:1;stroke:none;stroke-width:0.264583px;stroke-linecap:butt;stroke-linejoin:miter;stroke-opacity:1" />
    <path
       inkscape:connector-curvature="0"
       id="path1585"
       d="m -907.54557,86.405854 c 0.64337,-7.82768 2.70469,-8.27315 4.61388,-8.27315 1.90918,0 3.02288,0.3182 3.34108,9.86414 0.31819,9.54594 1.43189,31.342506 3.18198,42.956736 1.75008,11.61423 3.81837,21.47837 4.77297,26.09224 0.95459,4.61387 0.1591,7.79586 -5.56847,7.00036 -5.72756,-0.79549 -9.38684,-3.97748 -10.18234,-10.97784 -0.79549,-7.00035 -1.42568,-51.25235 -0.1591,-66.662486 z"
       style="fill:#1c1c1c;fill-opacity:1;stroke:none;stroke-width:0.264583px;stroke-linecap:butt;stroke-linejoin:miter;stroke-opacity:1" />
    <path
       inkscape:connector-curvature="0"
       id="path1587"
       d="m -884.07128,134.34309 c -0.0913,-0.0145 -0.30504,0.0762 -0.2744,0.31213 0.1779,1.37001 1.16395,5.30071 1.39422,6.24613 0.7234,2.9701 1.45597,5.52957 1.94924,6.93291 0.98562,2.80404 1.74421,3.55954 3.33518,3.71864 1.50058,0.15006 34.08669,0.29512 47.23484,0.26923 0.0568,1.2e-4 0.1419,-1.1e-4 0.19947,0 13.14818,0.0259 45.73429,-0.11917 47.23484,-0.26923 1.591,-0.1591 2.34958,-0.9146 3.33521,-3.71864 0.49326,-1.40334 1.22584,-3.96281 1.94924,-6.93291 0.23026,-0.94542 1.21631,-4.87612 1.39422,-6.24613 0.0306,-0.23589 -0.18312,-0.32668 -0.2744,-0.31213 -0.49287,0.0786 -2.55466,3.22815 -3.93102,3.18069 -2.89354,-0.0998 -40.65413,0.68933 -49.80781,0.84853 -9.15369,-0.1592 -46.91428,-0.94831 -49.80781,-0.84853 -1.37637,0.0475 -3.43816,-3.10209 -3.93102,-3.18069 z"
       style="fill:#252525;fill-opacity:1;stroke:none;stroke-width:0.264583px;stroke-linecap:butt;stroke-linejoin:miter;stroke-opacity:1" />
    <path
       inkscape:connector-curvature="0"
       id="path1589"
       d="m -850.47076,88.310762 c -13.44621,0.0049 -28.13423,0.05745 -31.91484,0.315227 -7.00034,0.477298 -6.17752,-0.0447 -6.10661,4.250386 0.0417,2.522694 0.15735,13.183855 1.02889,22.955705 0.90318,10.1269 3.47017,20.09502 3.78838,21.68601 0.63638,3.18199 1.11337,4.13619 4.29535,4.13619 3.04017,0 36.78606,0.11027 48.94739,0.0925 0.0494,-8e-5 0.15081,7e-5 0.19947,0 12.16136,0.0178 45.90724,-0.0925 48.94741,-0.0925 3.18199,0 3.65898,-0.9542 4.29535,-4.13619 0.31822,-1.59099 2.88521,-11.55911 3.78839,-21.68601 0.87154,-9.77185 0.98724,-20.433011 1.02888,-22.955705 0.0709,-4.295084 0.89374,-3.773088 -6.10661,-4.250386 -6.02469,-0.410779 -39.69549,-0.300326 -51.95342,-0.306959 -0.0487,3.2e-5 -0.15002,-2.6e-5 -0.19947,0 -4.56581,0.0024 -12.05725,-0.01119 -20.03856,-0.0083 z"
       style="fill:#343434;fill-opacity:1;stroke:none;stroke-width:0.264583px;stroke-linecap:butt;stroke-linejoin:miter;stroke-opacity:1" />
    <path
       inkscape:connector-curvature="0"
       id="path1591"
       d="m -869.14714,64.253316 c -4.90781,0.0035 -8.3669,0.01736 -8.90128,0.04548 -2.13748,0.112498 -2.58757,0.225044 -2.70007,1.912543 -0.1125,1.687502 -0.56245,13.050152 -0.33745,15.525152 0.225,2.475 0.44987,2.700091 2.92489,2.700091 2.42493,0 28.78013,-0.107132 47.72885,-0.0057 v 0.0011 c 0.0319,-1.74e-4 0.0678,-2.64e-4 0.0997,-5.29e-4 0.032,1.75e-4 0.0678,2.65e-4 0.0997,5.29e-4 v -0.0011 c 18.94874,-0.101441 45.30394,0.0057 47.72887,0.0057 2.47502,3e-6 2.69989,-0.225091 2.92489,-2.700091 0.22501,-2.475 -0.22495,-13.83765 -0.33745,-15.525152 -0.1125,-1.687499 -0.56261,-1.800045 -2.7001,-1.912543 -0.53437,-0.02812 -3.99343,-0.04196 -8.90124,-0.04548 -11.40719,-0.0082 -30.3,-0.133289 -38.81469,-0.133289 -8.51469,0 -27.4075,0.125119 -38.81469,0.133289 z"
       style="fill:#282828;fill-opacity:1;stroke:none;stroke-width:0.264583px;stroke-linecap:butt;stroke-linejoin:miter;stroke-opacity:1" />
    <path
       inkscape:connector-curvature="0"
       id="path1593"
       d="m -872.76088,67.111541 c -3.03749,0.112498 -3.37497,1.237591 -3.37497,2.700092 v 14.620298 c 4.7511,-0.01056 27.8856,-0.09683 45.70365,-0.0011 v 0.0011 c 0.0322,-1.78e-4 0.0675,-2.65e-4 0.0997,-5.29e-4 0.0323,1.74e-4 0.0675,2.64e-4 0.0997,5.29e-4 v -0.0011 c 17.81807,-0.09579 40.95258,-0.0095 45.70367,0.0011 V 69.811633 c 0,-1.462501 -0.33747,-2.587594 -3.37497,-2.700092 -15.10064,-0.09571 -27.66811,-0.20461 -42.42842,-0.187571 -13.77,0.0159 -27.7553,-0.235296 -42.42843,0.187571 z"
       style="fill:#3b3b3b;fill-opacity:1;stroke:none;stroke-width:0.264583px;stroke-linecap:butt;stroke-linejoin:miter;stroke-opacity:1" />
    <path
       inkscape:connector-curvature="0"
       id="path1595"
       d="m -831.53392,196.23441 c -1.12792,0 -16.362,0.0131 -23.74689,0.3085 -7.38486,0.29535 -19.73241,1.06303 -23.80887,1.77199 -4.07646,0.70895 -8.33028,1.89072 -11.04792,4.84466 -2.71764,2.95397 -6.67599,9.51151 -7.79849,12.99714 -1.12249,3.48569 -2.53992,11.10709 -3.07162,16.83773 -0.53171,5.73069 -0.89083,11.19401 -1.53636,14.00175 -0.31813,1.38379 -0.98147,2.88118 -1.57043,3.63542 -1.00571,1.28792 -1.38327,1.38647 0.21185,1.38647 1.59515,0 50.63289,0.23635 52.70066,0.17727 2.06777,-0.0591 2.95426,-0.70895 3.89951,-2.00866 0.94527,-1.29977 2.30743,-1.78517 7.80107,-1.89084 1.9617,-0.0378 8.39169,-0.0175 9.16896,-0.0259 0.77726,0.008 7.20725,-0.0119 9.16895,0.0259 5.49365,0.10567 6.8558,0.59107 7.80108,1.89084 0.94525,1.29971 1.83171,1.94956 3.89948,2.00866 2.06777,0.0591 51.10551,-0.17727 52.70066,-0.17727 1.59512,0 1.21759,-0.0985 0.21188,-1.38647 -0.58896,-0.75424 -1.2523,-2.25163 -1.57043,-3.63542 -0.64554,-2.80774 -1.00465,-8.27106 -1.53636,-14.00175 -0.53171,-5.73064 -1.94913,-13.35204 -3.07163,-16.83773 -1.12249,-3.48563 -5.08087,-10.04317 -7.79849,-12.99714 -2.71764,-2.95394 -6.97145,-4.13571 -11.04791,-4.84466 -4.07646,-0.70896 -16.42401,-1.47664 -23.80888,-1.77199 -7.38489,-0.29538 -22.61896,-0.3085 -23.74688,-0.3085 -0.55523,0 -0.913,0.009 -1.20147,0.0191 -0.28848,-0.0101 -0.64625,-0.0191 -1.20147,-0.0191 z"
       style="fill:#282828;fill-opacity:1;stroke:none;stroke-width:0.264583px;stroke-linecap:butt;stroke-linejoin:miter;stroke-opacity:1" />
    <path
       inkscape:connector-curvature="0"
       id="path1597"
       d="m -831.53392,196.23389 c -1.12792,0 -16.36202,0.0131 -23.74689,0.30851 -7.38489,0.29535 -19.73241,1.06355 -23.80887,1.7725 -0.14798,0.0257 -0.29708,0.0572 -0.44546,0.0842 0.8731,3.29117 1.27694,3.85083 1.88103,5.81412 0.66839,2.17231 2.3394,4.01009 6.5169,4.01009 3.69277,0 32.33709,0.12845 40.80476,-0.18759 8.46767,0.31604 37.11199,0.18759 40.80473,0.18759 4.1775,0 5.84853,-1.83778 6.51692,-4.01009 0.6041,-1.96329 1.00793,-2.52295 1.88103,-5.81412 -0.14838,-0.027 -0.29747,-0.0585 -0.44545,-0.0842 -4.07646,-0.70895 -16.42398,-1.47715 -23.80888,-1.7725 -7.38486,-0.29541 -22.61896,-0.30851 -23.74688,-0.30851 -0.55525,0 -0.91305,0.009 -1.20147,0.0196 -0.28842,-0.0102 -0.64622,-0.0196 -1.20147,-0.0196 z"
       style="fill:#ffb412;fill-opacity:1;stroke:none;stroke-width:0.264583px;stroke-linecap:butt;stroke-linejoin:miter;stroke-opacity:1" />
    <path
       inkscape:connector-curvature="0"
       id="path1599"
       d="m -859.86037,171.28554 c -0.30996,0.003 -0.60423,0.006 -0.91311,0.009 0,0.0284 -0.003,0.0532 -0.003,0.0832 0.41775,2.50653 1.71198,5.38933 3.50832,6.43372 1.79633,1.04436 3.21701,1.33696 5.38932,1.37873 2.11138,0.0406 19.80279,0.003 21.54598,5.2e-4 1.74318,0.002 19.43459,0.0401 21.54597,-5.2e-4 2.17231,-0.0418 3.59299,-0.33437 5.38932,-1.37873 1.79634,-1.04439 3.09057,-3.92719 3.50832,-6.43372 0,-0.03 -0.003,-0.0548 -0.003,-0.0832 -0.30888,-0.003 -0.60315,-0.006 -0.9131,-0.009 v 5.3e-4 c -0.10097,0.79187 -0.3523,2.34478 -1.58957,4.14445 -1.37858,2.00522 -4.30355,2.67347 -5.84925,2.7988 -1.51381,0.12278 -18.60693,0.007 -21.98886,0.002 v -0.001 c -0.0135,1e-5 -0.0857,5.2e-4 -0.0997,5.2e-4 -0.014,-1e-5 -0.0862,-5.2e-4 -0.0997,-5.2e-4 v 0.001 c -3.3819,0.005 -20.47502,0.12069 -21.98883,-0.002 -1.54569,-0.12533 -4.47066,-0.79358 -5.84925,-2.7988 -1.23727,-1.79967 -1.4886,-3.35258 -1.58956,-4.14445 z"
       style="fill:#4e3d21;fill-opacity:1;stroke:none;stroke-width:0.264583px;stroke-linecap:butt;stroke-linejoin:miter;stroke-opacity:1" />
    <path
       inkscape:connector-curvature="0"
       id="path1601"
       d="m -851.82467,177.4307 c 0.53171,0 0.56123,-0.33969 0.56123,-0.57602 0,-0.2363 -0.14769,-0.51694 -0.48739,-0.53171 -0.33969,-0.0148 -0.5317,0.25109 -0.5317,0.47263 0,0.22156 0,0.6351 0.45786,0.6351 z"
       style="fill:#4e3d21;fill-opacity:1;stroke:none;stroke-width:0.264583px;stroke-linecap:butt;stroke-linejoin:miter;stroke-opacity:1" />
    <path
       inkscape:connector-curvature="0"
       id="path1607"
       d="m -900.88984,140.89032 c 3.07143,0.0653 3.89923,-1.1225 3.89923,-3.13119 0,-2.00869 -1.02882,-4.42674 -3.6283,-4.30858 -2.59948,0.11816 -3.64751,1.35781 -3.81566,3.59963 -0.17725,2.36315 1.06116,3.7873 3.54473,3.84014 z"
       style="fill:#d2d2d2;fill-opacity:1;stroke:none;stroke-width:0.264583px;stroke-linecap:butt;stroke-linejoin:miter;stroke-opacity:1" />
    <path
       inkscape:connector-curvature="0"
       style="fill:#d2d2d2;fill-opacity:1;stroke:none;stroke-width:0.264583px;stroke-linecap:butt;stroke-linejoin:miter;stroke-opacity:1"
       d="m -900.23997,152.76521 c 3.07143,0.0653 3.89923,-1.1225 3.89923,-3.13119 0,-2.00869 -0.44397,-4.67739 -3.54475,-4.72633 -2.60184,-0.0411 -3.73106,1.77556 -3.89921,4.01738 -0.17725,2.36315 1.06116,3.7873 3.54473,3.84014 z"
       id="path1609" />
    <path
       inkscape:connector-curvature="0"
       id="path1611"
       d="m -905.66736,83.660424 c 0.54906,0.0125 0.68949,0.37311 0.68949,0.73379 0,0.36067 -0.20429,0.94522 -0.77884,0.93279 -0.5746,-0.0125 -0.86827,-0.32338 -0.88103,-0.85815 -0.0129,-0.53482 0.31921,-0.8333 0.97038,-0.80843 z"
       style="fill:#c6c6c6;fill-opacity:1;stroke:none;stroke-width:0.332567px;stroke-linecap:butt;stroke-linejoin:miter;stroke-opacity:1" />
    <path
       inkscape:connector-curvature="0"
       style="fill:#c6c6c6;fill-opacity:1;stroke:none;stroke-width:0.332567px;stroke-linecap:butt;stroke-linejoin:miter;stroke-opacity:1"
       d="m -905.87956,86.000544 c 0.54906,0.0125 0.68949,0.37311 0.68949,0.73379 0,0.36067 -0.20429,0.94522 -0.77884,0.93279 -0.57459,-0.0125 -0.86826,-0.32338 -0.88103,-0.85815 -0.0129,-0.53482 0.31921,-0.8333 0.97038,-0.80843 z"
       id="path1613" />
    <path
       inkscape:connector-curvature="0"
       id="path1615"
       d="m -906.08954,88.118944 c 0.53014,0.0121 0.66574,0.36025 0.66574,0.70851 0,0.34824 -0.19725,0.91266 -0.75201,0.90065 -0.5548,-0.0121 -0.83836,-0.31224 -0.85068,-0.82858 -0.0125,-0.5164 0.30821,-0.8046 0.93695,-0.78058 z"
       style="fill:#c6c6c6;fill-opacity:1;stroke:none;stroke-width:0.32111px;stroke-linecap:butt;stroke-linejoin:miter;stroke-opacity:1" />
    <path
       inkscape:connector-curvature="0"
       style="fill:#c6c6c6;fill-opacity:1;stroke:none;stroke-width:0.323974px;stroke-linecap:butt;stroke-linejoin:miter;stroke-opacity:1"
       d="m -906.13935,90.141504 c 0.53487,0.0122 0.67168,0.36347 0.67168,0.71484 0,0.35135 -0.19901,0.92079 -0.75872,0.90869 -0.55975,-0.0122 -0.84583,-0.31503 -0.85826,-0.83598 -0.0126,-0.52101 0.31095,-0.81177 0.9453,-0.78755 z"
       id="path1617" />
    <path
       inkscape:connector-curvature="0"
       id="path1619"
       d="m -906.29733,92.164824 c 0.52069,0.0119 0.65387,0.35383 0.65387,0.69587 0,0.34203 -0.19374,0.89638 -0.7386,0.88459 -0.5449,-0.0119 -0.8234,-0.30667 -0.8355,-0.81381 -0.0123,-0.50718 0.30271,-0.79024 0.92023,-0.76665 z"
       style="fill:#c6c6c6;fill-opacity:1;stroke:none;stroke-width:0.315382px;stroke-linecap:butt;stroke-linejoin:miter;stroke-opacity:1" />
    <path
       inkscape:connector-curvature="0"
       style="fill:#c6c6c6;fill-opacity:1;stroke:none;stroke-width:0.309654px;stroke-linecap:butt;stroke-linejoin:miter;stroke-opacity:1"
       d="m -906.39963,94.131574 c 0.51123,0.0116 0.64199,0.3474 0.64199,0.68323 0,0.33582 -0.19021,0.8801 -0.72518,0.86853 -0.53501,-0.0116 -0.80844,-0.3011 -0.82033,-0.79903 -0.012,-0.49797 0.29722,-0.77589 0.90352,-0.75273 z"
       id="path1621" />
    <path
       inkscape:connector-curvature="0"
       id="path1623"
       d="m -906.50694,96.276494 c 0.51123,0.0116 0.64199,0.3474 0.64199,0.68323 0,0.33582 -0.19022,0.8801 -0.72518,0.86853 -0.53501,-0.0116 -0.80844,-0.3011 -0.82033,-0.79903 -0.012,-0.49797 0.29721,-0.77589 0.90352,-0.75273 z"
       style="fill:#c6c6c6;fill-opacity:1;stroke:none;stroke-width:0.309654px;stroke-linecap:butt;stroke-linejoin:miter;stroke-opacity:1" />
    <path
       inkscape:connector-curvature="0"
       style="fill:#c6c6c6;fill-opacity:1;stroke:none;stroke-width:0.309654px;stroke-linecap:butt;stroke-linejoin:miter;stroke-opacity:1"
       d="m -906.54694,98.537854 c 0.51123,0.0116 0.64199,0.3474 0.64199,0.68323 0,0.33582 -0.19022,0.880096 -0.72518,0.868526 -0.53501,-0.0116 -0.80844,-0.301096 -0.82033,-0.799026 -0.012,-0.49797 0.29722,-0.77589 0.90352,-0.75273 z"
       id="path1625" />
    <path
       inkscape:connector-curvature="0"
       id="path1627"
       d="m -906.58677,100.57046 c 0.51132,0.0116 0.64468,0.3474 0.64728,0.68323 0.003,0.33582 -0.18339,0.8801 -0.71845,0.86853 -0.53509,-0.0116 -0.81077,-0.3011 -0.82652,-0.79903 -0.0159,-0.49797 0.2912,-0.77589 0.89769,-0.75273 z"
       style="fill:#c6c6c6;fill-opacity:1;stroke:none;stroke-width:0.309654px;stroke-linecap:butt;stroke-linejoin:miter;stroke-opacity:1" />
    <path
       inkscape:connector-curvature="0"
       style="fill:#c6c6c6;fill-opacity:1;stroke:none;stroke-width:0.309654px;stroke-linecap:butt;stroke-linejoin:miter;stroke-opacity:1"
       d="m -906.6846,102.70606 c 0.51132,0.0116 0.64468,0.3474 0.64728,0.68323 0.003,0.33582 -0.18339,0.8801 -0.71845,0.86853 -0.53509,-0.0116 -0.81077,-0.3011 -0.82652,-0.79903 -0.0159,-0.49797 0.2912,-0.77589 0.89769,-0.75273 z"
       id="path1629" />
    <path
       inkscape:connector-curvature="0"
       id="path1631"
       d="m -906.67265,104.77975 c 0.51123,0.0116 0.64199,0.3474 0.64199,0.68323 0,0.33582 -0.19022,0.8801 -0.72518,0.86853 -0.53501,-0.0116 -0.80844,-0.3011 -0.82033,-0.79903 -0.012,-0.49797 0.29722,-0.77589 0.90352,-0.75273 z"
       style="fill:#c6c6c6;fill-opacity:1;stroke:none;stroke-width:0.309654px;stroke-linecap:butt;stroke-linejoin:miter;stroke-opacity:1" />
    <path
       inkscape:connector-curvature="0"
       style="fill:#c6c6c6;fill-opacity:1;stroke:none;stroke-width:0.309654px;stroke-linecap:butt;stroke-linejoin:miter;stroke-opacity:1"
       d="m -906.74101,106.84083 c 0.51123,0.0116 0.64198,0.3474 0.64198,0.68323 0,0.33582 -0.19021,0.8801 -0.72518,0.86853 -0.535,-0.0116 -0.80844,-0.3011 -0.82032,-0.79903 -0.012,-0.49797 0.29721,-0.77589 0.90352,-0.75273 z"
       id="path1633" />
    <path
       inkscape:connector-curvature="0"
       id="path1635"
       d="m -906.75207,109.02277 c 0.51123,0.0116 0.64199,0.3474 0.64199,0.68323 0,0.33582 -0.19022,0.8801 -0.72519,0.86853 -0.535,-0.0116 -0.80844,-0.3011 -0.82032,-0.79903 -0.012,-0.49797 0.29721,-0.77589 0.90352,-0.75273 z"
       style="fill:#c6c6c6;fill-opacity:1;stroke:none;stroke-width:0.309654px;stroke-linecap:butt;stroke-linejoin:miter;stroke-opacity:1" />
    <path
       inkscape:connector-curvature="0"
       style="fill:#c6c6c6;fill-opacity:1;stroke:none;stroke-width:0.309654px;stroke-linecap:butt;stroke-linejoin:miter;stroke-opacity:1"
       d="m -906.7473,111.12376 c 0.51123,0.0116 0.64199,0.3474 0.64199,0.68323 0,0.33582 -0.19022,0.8801 -0.72519,0.86853 -0.535,-0.0116 -0.80844,-0.3011 -0.82032,-0.79903 -0.012,-0.49797 0.29721,-0.77589 0.90352,-0.75273 z"
       id="path1637" />
    <path
       inkscape:connector-curvature="0"
       id="path1639"
       d="m -906.72984,113.27702 c 0.51123,0.0116 0.64199,0.3474 0.64199,0.68323 0,0.33582 -0.19022,0.8801 -0.72519,0.86853 -0.535,-0.0116 -0.80844,-0.3011 -0.82032,-0.79903 -0.012,-0.49797 0.29721,-0.77589 0.90352,-0.75273 z"
       style="fill:#c6c6c6;fill-opacity:1;stroke:none;stroke-width:0.309654px;stroke-linecap:butt;stroke-linejoin:miter;stroke-opacity:1" />
    <path
       inkscape:connector-curvature="0"
       style="fill:#c6c6c6;fill-opacity:1;stroke:none;stroke-width:0.309654px;stroke-linecap:butt;stroke-linejoin:miter;stroke-opacity:1"
       d="m -906.81563,115.41282 c 0.51123,0.0116 0.64199,0.3474 0.64199,0.68323 0,0.33582 -0.19022,0.8801 -0.72519,0.86853 -0.535,-0.0116 -0.80844,-0.3011 -0.82032,-0.79903 -0.012,-0.49797 0.29721,-0.77589 0.90352,-0.75273 z"
       id="path1641" />
    <path
       inkscape:connector-curvature="0"
       id="path1643"
       d="m -906.81563,117.54862 c 0.51123,0.0116 0.64199,0.3474 0.64199,0.68323 0,0.33582 -0.19022,0.8801 -0.72519,0.86853 -0.535,-0.0116 -0.80844,-0.3011 -0.82032,-0.79903 -0.012,-0.49797 0.29721,-0.77589 0.90352,-0.75273 z"
       style="fill:#c6c6c6;fill-opacity:1;stroke:none;stroke-width:0.309654px;stroke-linecap:butt;stroke-linejoin:miter;stroke-opacity:1" />
    <path
       inkscape:connector-curvature="0"
       style="fill:#c6c6c6;fill-opacity:1;stroke:none;stroke-width:0.309654px;stroke-linecap:butt;stroke-linejoin:miter;stroke-opacity:1"
       d="m -906.80919,119.47289 c 0.51123,0.0116 0.64199,0.3474 0.64199,0.68323 0,0.33582 -0.19022,0.8801 -0.72519,0.86853 -0.535,-0.0116 -0.80844,-0.3011 -0.82032,-0.79903 -0.012,-0.49797 0.29721,-0.77589 0.90352,-0.75273 z"
       id="path1645" />
    <path
       inkscape:connector-curvature="0"
       id="path1647"
       d="m -906.85536,121.66596 c 0.51123,0.0116 0.64199,0.3474 0.64199,0.68323 0,0.33582 -0.19022,0.8801 -0.72519,0.86853 -0.535,-0.0116 -0.80844,-0.3011 -0.82032,-0.79903 -0.012,-0.49797 0.29721,-0.77589 0.90352,-0.75273 z"
       style="fill:#c6c6c6;fill-opacity:1;stroke:none;stroke-width:0.309654px;stroke-linecap:butt;stroke-linejoin:miter;stroke-opacity:1" />
    <path
       inkscape:connector-curvature="0"
       style="fill:#c6c6c6;fill-opacity:1;stroke:none;stroke-width:0.309654px;stroke-linecap:butt;stroke-linejoin:miter;stroke-opacity:1"
       d="m -906.78696,123.74457 c 0.51123,0.0116 0.64199,0.3474 0.64199,0.68323 0,0.33582 -0.19022,0.8801 -0.72518,0.86853 -0.53501,-0.0116 -0.80844,-0.3011 -0.82033,-0.79903 -0.012,-0.49797 0.29721,-0.77589 0.90352,-0.75273 z"
       id="path1649" />
    <path
       inkscape:connector-curvature="0"
       id="path1651"
       d="m -906.74094,125.84053 c 0.51123,0.0116 0.64199,0.3474 0.64199,0.68323 0,0.33582 -0.19022,0.8801 -0.72518,0.86853 -0.53501,-0.0116 -0.80844,-0.3011 -0.82033,-0.79903 -0.012,-0.49797 0.29721,-0.77589 0.90352,-0.75273 z"
       style="fill:#c6c6c6;fill-opacity:1;stroke:none;stroke-width:0.309654px;stroke-linecap:butt;stroke-linejoin:miter;stroke-opacity:1" />
    <path
       inkscape:connector-curvature="0"
       style="fill:#c6c6c6;fill-opacity:1;stroke:none;stroke-width:0.309654px;stroke-linecap:butt;stroke-linejoin:miter;stroke-opacity:1"
       d="m -906.75832,128.02727 c 0.51123,0.0116 0.64198,0.3474 0.64198,0.68323 0,0.33582 -0.19021,0.8801 -0.72518,0.86853 -0.535,-0.0116 -0.80844,-0.3011 -0.82032,-0.79903 -0.012,-0.49797 0.29721,-0.77589 0.90352,-0.75273 z"
       id="path1653" />
    <path
       inkscape:connector-curvature="0"
       id="path1655"
       d="m -906.72969,130.1233 c 0.51123,0.0116 0.64199,0.3474 0.64199,0.68323 0,0.33582 -0.19022,0.8801 -0.72519,0.86853 -0.535,-0.0116 -0.80844,-0.3011 -0.82032,-0.79903 -0.012,-0.49797 0.29721,-0.77589 0.90352,-0.75273 z"
       style="fill:#c6c6c6;fill-opacity:1;stroke:none;stroke-width:0.309654px;stroke-linecap:butt;stroke-linejoin:miter;stroke-opacity:1" />
    <path
       inkscape:connector-curvature="0"
       style="fill:#c6c6c6;fill-opacity:1;stroke:none;stroke-width:0.309654px;stroke-linecap:butt;stroke-linejoin:miter;stroke-opacity:1"
       d="m -906.70098,132.10483 c 0.51123,0.0116 0.64199,0.3474 0.64199,0.68323 0,0.33582 -0.19022,0.8801 -0.72518,0.86853 -0.53501,-0.0116 -0.80844,-0.3011 -0.82033,-0.79903 -0.012,-0.49797 0.29721,-0.77589 0.90352,-0.75273 z"
       id="path1657" />
    <path
       inkscape:connector-curvature="0"
       id="path1659"
       d="m -906.61504,134.27564 c 0.51123,0.0116 0.64199,0.3474 0.64199,0.68323 0,0.33582 -0.19021,0.8801 -0.72518,0.86853 -0.53501,-0.0116 -0.80844,-0.3011 -0.82032,-0.79903 -0.012,-0.49797 0.29721,-0.77589 0.90351,-0.75273 z"
       style="fill:#c6c6c6;fill-opacity:1;stroke:none;stroke-width:0.309654px;stroke-linecap:butt;stroke-linejoin:miter;stroke-opacity:1" />
    <path
       inkscape:connector-curvature="0"
       style="fill:#c6c6c6;fill-opacity:1;stroke:none;stroke-width:0.309654px;stroke-linecap:butt;stroke-linejoin:miter;stroke-opacity:1"
       d="m -906.48929,136.61658 c 0.51123,0.0116 0.64199,0.3474 0.64199,0.68323 0,0.33582 -0.19021,0.8801 -0.72518,0.86853 -0.53501,-0.0116 -0.80844,-0.3011 -0.82033,-0.79903 -0.012,-0.49797 0.29722,-0.77589 0.90352,-0.75273 z"
       id="path1661" />
    <path
       inkscape:connector-curvature="0"
       id="path1663"
       d="m -906.43846,139.16436 c 0.51123,0.0116 0.64199,0.3474 0.64199,0.68323 0,0.33582 -0.19022,0.8801 -0.72518,0.86853 -0.53501,-0.0116 -0.80844,-0.3011 -0.82033,-0.79903 -0.012,-0.49797 0.29721,-0.77589 0.90352,-0.75273 z"
       style="fill:#c6c6c6;fill-opacity:1;stroke:none;stroke-width:0.309654px;stroke-linecap:butt;stroke-linejoin:miter;stroke-opacity:1" />
    <path
       inkscape:connector-curvature="0"
       style="fill:#c6c6c6;fill-opacity:1;stroke:none;stroke-width:0.309654px;stroke-linecap:butt;stroke-linejoin:miter;stroke-opacity:1"
       d="m -906.36544,141.85997 c 0.51124,0.0116 0.64199,0.3474 0.64199,0.68323 0,0.33582 -0.19021,0.8801 -0.72518,0.86853 -0.535,-0.0116 -0.80844,-0.3011 -0.82032,-0.79903 -0.012,-0.49797 0.29721,-0.77589 0.90351,-0.75273 z"
       id="path1665" />
    <path
       inkscape:connector-curvature="0"
       id="path1667"
       d="m -906.2509,144.40845 c 0.51123,0.0116 0.64199,0.3474 0.64199,0.68323 0,0.33582 -0.19022,0.8801 -0.72518,0.86853 -0.53501,-0.0116 -0.80844,-0.3011 -0.82033,-0.79903 -0.012,-0.49797 0.29722,-0.77589 0.90352,-0.75273 z"
       style="fill:#c6c6c6;fill-opacity:1;stroke:none;stroke-width:0.309654px;stroke-linecap:butt;stroke-linejoin:miter;stroke-opacity:1" />
    <path
       inkscape:connector-curvature="0"
       style="fill:#c6c6c6;fill-opacity:1;stroke:none;stroke-width:0.309654px;stroke-linecap:butt;stroke-linejoin:miter;stroke-opacity:1"
       d="m -906.16499,146.84239 c 0.51123,0.0116 0.64198,0.3474 0.64198,0.68323 0,0.33582 -0.19021,0.8801 -0.72518,0.86853 -0.535,-0.0116 -0.80844,-0.3011 -0.82032,-0.79903 -0.012,-0.49797 0.29721,-0.77589 0.90352,-0.75273 z"
       id="path1669" />
    <path
       inkscape:connector-curvature="0"
       id="path1671"
       d="m -906.02182,149.47678 c 0.51123,0.0116 0.64199,0.3474 0.64199,0.68323 0,0.33582 -0.19022,0.8801 -0.72519,0.86853 -0.535,-0.0116 -0.80844,-0.3011 -0.82032,-0.79903 -0.012,-0.49797 0.29721,-0.77589 0.90352,-0.75273 z"
       style="fill:#c6c6c6;fill-opacity:1;stroke:none;stroke-width:0.309654px;stroke-linecap:butt;stroke-linejoin:miter;stroke-opacity:1" />
    <path
       inkscape:connector-curvature="0"
       style="fill:#c6c6c6;fill-opacity:1;stroke:none;stroke-width:0.29679px;stroke-linecap:butt;stroke-linejoin:miter;stroke-opacity:1"
       d="m -905.736,151.81101 c 0.48999,0.0111 0.61532,0.33297 0.61532,0.65485 0,0.32187 -0.18232,0.84353 -0.69506,0.83244 -0.51278,-0.0111 -0.77486,-0.28859 -0.78625,-0.76583 -0.0115,-0.47729 0.28487,-0.74366 0.86599,-0.72146 z"
       id="path1673" />
    <path
       inkscape:connector-curvature="0"
       id="path1675"
       d="m -905.3736,154.23653 c 0.49784,0.0113 0.62517,0.3383 0.62517,0.66533 0,0.32703 -0.18524,0.85705 -0.70619,0.84578 -0.52099,-0.0113 -0.78726,-0.29321 -0.79883,-0.7781 -0.0117,-0.48492 0.28942,-0.75556 0.87985,-0.73301 z"
       style="fill:#c6c6c6;fill-opacity:1;stroke:none;stroke-width:0.301542px;stroke-linecap:butt;stroke-linejoin:miter;stroke-opacity:1" />
    <path
       inkscape:connector-curvature="0"
       style="fill:#c6c6c6;fill-opacity:1;stroke:none;stroke-width:0.29343px;stroke-linecap:butt;stroke-linejoin:miter;stroke-opacity:1"
       d="m -904.64787,156.65029 c 0.48445,0.011 0.60835,0.3292 0.60835,0.64743 0,0.31823 -0.18025,0.83399 -0.68719,0.82303 -0.50697,-0.011 -0.76608,-0.28532 -0.77734,-0.75717 -0.0114,-0.47188 0.28164,-0.73524 0.85618,-0.71329 z"
       id="path1677" />
    <path
       inkscape:connector-curvature="0"
       id="path1679"
       d="m -903.52612,158.65831 c 0.45766,0.0104 0.57472,0.311 0.57472,0.61164 0,0.30063 -0.17028,0.78788 -0.6492,0.77752 -0.47894,-0.0104 -0.72372,-0.26955 -0.73436,-0.7153 -0.0108,-0.44579 0.26607,-0.69459 0.80884,-0.67386 z"
       style="fill:#c6c6c6;fill-opacity:1;stroke:none;stroke-width:0.277206px;stroke-linecap:butt;stroke-linejoin:miter;stroke-opacity:1" />
    <path
       inkscape:connector-curvature="0"
       style="fill:#c6c6c6;fill-opacity:1;stroke:none;stroke-width:0.277206px;stroke-linecap:butt;stroke-linejoin:miter;stroke-opacity:1"
       d="m -901.63624,159.91823 c 0.45767,0.0104 0.57472,0.311 0.57472,0.61164 0,0.30063 -0.17028,0.78788 -0.64919,0.77752 -0.47895,-0.0104 -0.72373,-0.26955 -0.73437,-0.7153 -0.0108,-0.44579 0.26607,-0.69459 0.80884,-0.67386 z"
       id="path1681" />
    <path
       inkscape:connector-curvature="0"
       id="path1683"
       d="m -899.23093,161.02009 c 0.45766,0.0104 0.57472,0.311 0.57472,0.61164 0,0.30063 -0.17029,0.78788 -0.6492,0.77752 -0.47894,-0.0104 -0.72372,-0.26955 -0.73436,-0.7153 -0.0108,-0.44579 0.26607,-0.69459 0.80884,-0.67386 z"
       style="fill:#c6c6c6;fill-opacity:1;stroke:none;stroke-width:0.277206px;stroke-linecap:butt;stroke-linejoin:miter;stroke-opacity:1" />
    <path
       inkscape:connector-curvature="0"
       style="fill:#c6c6c6;fill-opacity:1;stroke:none;stroke-width:0.277206px;stroke-linecap:butt;stroke-linejoin:miter;stroke-opacity:1"
       d="m -896.82562,161.72107 c 0.45766,0.0104 0.57471,0.311 0.57471,0.61164 0,0.30063 -0.17028,0.78788 -0.64919,0.77752 -0.47894,-0.0104 -0.72373,-0.26955 -0.73437,-0.7153 -0.0108,-0.44579 0.26607,-0.69459 0.80885,-0.67386 z"
       id="path1685" />
    <path
       inkscape:connector-curvature="0"
       id="path1687"
       d="m -894.24851,161.83561 c 0.45766,0.0104 0.57472,0.311 0.57472,0.61164 0,0.30063 -0.17029,0.78788 -0.6492,0.77752 -0.47894,-0.0104 -0.72372,-0.26955 -0.73436,-0.7153 -0.0108,-0.44579 0.26607,-0.69459 0.80884,-0.67386 z"
       style="fill:#c6c6c6;fill-opacity:1;stroke:none;stroke-width:0.277206px;stroke-linecap:butt;stroke-linejoin:miter;stroke-opacity:1" />
    <path
       inkscape:connector-curvature="0"
       id="path2189"
       d="m -830.38413,177.4307 c 0.53171,0 0.56124,-0.33969 0.56124,-0.57602 0,-0.2363 -0.14769,-0.51694 -0.48739,-0.53171 -0.3397,-0.0148 -0.53171,0.25109 -0.53171,0.47263 0,0.22156 0,0.6351 0.45786,0.6351 z"
       style="fill:#4e3d21;fill-opacity:1;stroke:none;stroke-width:0.264583px;stroke-linecap:butt;stroke-linejoin:miter;stroke-opacity:1" />
    <path
       inkscape:connector-curvature="0"
       style="fill:#a3a3a3;fill-opacity:1;stroke:none;stroke-width:0.264583px;stroke-linecap:butt;stroke-linejoin:miter;stroke-opacity:1"
       d="m -768.55378,61.711394 c -1.4625,-6.4125 -5.0625,-11.8125 -8.325,-14.9625 -3.2625,-3.15 -2.25,-3.375 -0.7875,-4.3875 1.4625,-1.0125 3.7125,-0.45 4.44375,-0.225 0.73125,0.225 3.54375,10.4625 3.54375,10.4625 z"
       id="path1806" />
    <path
       inkscape:connector-curvature="0"
       style="fill:#a3a3a3;fill-opacity:1;stroke:none;stroke-width:0.264583px;stroke-linecap:butt;stroke-linejoin:miter;stroke-opacity:1"
       d="m -754.04128,178.93638 c 10.575,6.18752 16.425,10.6875 12.825,29.58751 -3.6,18.9 -4.95,26.55001 -5.5125,30.48751 -0.5625,3.93748 -0.3375,4.61248 0.675,5.39999 1.0125,0.7875 1.125,-0.45001 2.025,-3.6 0.9,-3.15 6.975,-37.57499 7.5375,-40.61251 0.5625,-3.0375 -1.9125,-11.36248 -1.9125,-11.36248 l -5.2875,-7.425 z"
       id="path1808" />
    <path
       inkscape:connector-curvature="0"
       style="fill:#b2b2b2;fill-opacity:1;stroke:none;stroke-width:0.264583px;stroke-linecap:butt;stroke-linejoin:miter;stroke-opacity:1"
       d="m -768.15419,174.70583 c -8.16023,-2.27066 -10.10279,-3.42064 -8.1936,-12.17109 1.90919,-8.75045 6.52306,-27.76278 8.11405,-45.74097 1.59099,-17.978186 1.59099,-40.092956 -0.3182,-51.707186 -1.90919,-11.61423 -2.86378,-16.069 -4.77297,-20.04648 -1.90919,-3.97747 -0.4773,-3.18197 2.38648,-2.22738 2.86379,0.95459 19.88738,9.38684 24.66035,17.65999 4.77298,8.27315 8.43225,31.50161 9.54595,48.684296 1.11369,17.1827 3.65927,51.54809 3.02288,66.6625 -0.6364,15.1144 -1.75009,20.04647 -2.86379,24.97854 -1.11369,4.93207 -0.47729,1.4319 -1.75008,-4.93207 -1.2728,-6.36397 -4.13658,-10.97783 -10.65964,-14.15981 -6.52306,-3.18199 -14.5173,-5.7053 -19.17143,-7.00034 z"
       id="path1812" />
    <path
       inkscape:connector-curvature="0"
       style="fill:#49b3f1;fill-opacity:1;stroke:none;stroke-width:0.264583px;stroke-linecap:butt;stroke-linejoin:miter;stroke-opacity:1"
       d="m -762.96534,46.736932 c 6.07996,3.431704 13.73136,8.611883 16.68735,13.735597 0.99335,1.721808 1.93757,4.098666 2.82153,6.926707 0.67015,18.753188 1.35193,51.284664 1.47382,61.645334 0.1591,13.52342 -0.47704,17.02363 -1.90893,20.52381 -1.43189,3.50017 -7.00034,2.86333 -11.45512,2.70423 -4.45477,-0.1591 -6.20466,-49.32049 -5.88646,-58.230039 0.29732,-8.324879 0.4547,-30.538536 -1.73219,-47.305639 z"
       id="path1814" />
    <path
       inkscape:connector-curvature="0"
       style="fill:#1c1c1c;fill-opacity:1;stroke:none;stroke-width:0.264583px;stroke-linecap:butt;stroke-linejoin:miter;stroke-opacity:1"
       d="m -753.11933,86.405854 c -0.64337,-7.82768 -2.70469,-8.27315 -4.61388,-8.27315 -1.90918,0 -3.02288,0.3182 -3.34108,9.86414 -0.31819,9.54594 -1.43189,31.342506 -3.18198,42.956736 -1.75008,11.61423 -3.81837,21.47837 -4.77297,26.09224 -0.95459,4.61387 -0.1591,7.79586 5.56847,7.00036 5.72756,-0.79549 9.38684,-3.97748 10.18234,-10.97784 0.79549,-7.00035 1.42568,-51.25235 0.1591,-66.662486 z"
       id="path1816" />
    <path
       inkscape:connector-curvature="0"
       style="fill:#4e3d21;fill-opacity:1;stroke:none;stroke-width:0.264583px;stroke-linecap:butt;stroke-linejoin:miter;stroke-opacity:1"
       d="m -808.84023,177.4307 c -0.53171,0 -0.56123,-0.33969 -0.56123,-0.57602 0,-0.2363 0.14769,-0.51694 0.48739,-0.53171 0.33969,-0.0148 0.5317,0.25109 0.5317,0.47263 0,0.22156 0,0.6351 -0.45786,0.6351 z"
       id="path1832" />
    <path
       inkscape:connector-curvature="0"
       style="fill:#d2d2d2;fill-opacity:1;stroke:none;stroke-width:0.264583px;stroke-linecap:butt;stroke-linejoin:miter;stroke-opacity:1"
       d="m -759.77506,140.89032 c -3.07143,0.0653 -3.89923,-1.1225 -3.89923,-3.13119 0,-2.00869 1.02882,-4.42674 3.6283,-4.30858 2.59948,0.11816 3.64751,1.35781 3.81566,3.59963 0.17725,2.36315 -1.06116,3.7873 -3.54473,3.84014 z"
       id="path1836" />
    <path
       inkscape:connector-curvature="0"
       id="path1838"
       d="m -760.42493,152.76521 c -3.07143,0.0653 -3.89923,-1.1225 -3.89923,-3.13119 0,-2.00869 0.44397,-4.67739 3.54475,-4.72633 2.60184,-0.0411 3.73106,1.77556 3.89921,4.01738 0.17725,2.36315 -1.06116,3.7873 -3.54473,3.84014 z"
       style="fill:#d2d2d2;fill-opacity:1;stroke:none;stroke-width:0.264583px;stroke-linecap:butt;stroke-linejoin:miter;stroke-opacity:1" />
    <path
       inkscape:connector-curvature="0"
       style="fill:#c6c6c6;fill-opacity:1;stroke:none;stroke-width:0.332567px;stroke-linecap:butt;stroke-linejoin:miter;stroke-opacity:1"
       d="m -754.99754,83.660424 c -0.54906,0.0125 -0.68949,0.37311 -0.68949,0.73379 0,0.36067 0.20429,0.94522 0.77884,0.93279 0.5746,-0.0125 0.86827,-0.32338 0.88103,-0.85815 0.0129,-0.53482 -0.31921,-0.8333 -0.97038,-0.80843 z"
       id="path1840" />
    <path
       inkscape:connector-curvature="0"
       id="path1842"
       d="m -754.78534,86.000544 c -0.54906,0.0125 -0.68949,0.37311 -0.68949,0.73379 0,0.36067 0.20429,0.94522 0.77884,0.93279 0.57459,-0.0125 0.86826,-0.32338 0.88103,-0.85815 0.0129,-0.53482 -0.31921,-0.8333 -0.97038,-0.80843 z"
       style="fill:#c6c6c6;fill-opacity:1;stroke:none;stroke-width:0.332567px;stroke-linecap:butt;stroke-linejoin:miter;stroke-opacity:1" />
    <path
       inkscape:connector-curvature="0"
       style="fill:#c6c6c6;fill-opacity:1;stroke:none;stroke-width:0.32111px;stroke-linecap:butt;stroke-linejoin:miter;stroke-opacity:1"
       d="m -754.57536,88.118944 c -0.53014,0.0121 -0.66574,0.36025 -0.66574,0.70851 0,0.34824 0.19725,0.91266 0.75201,0.90065 0.5548,-0.0121 0.83836,-0.31224 0.85068,-0.82858 0.0125,-0.5164 -0.30821,-0.8046 -0.93695,-0.78058 z"
       id="path1844" />
    <path
       inkscape:connector-curvature="0"
       id="path1846"
       d="m -754.52555,90.141504 c -0.53487,0.0122 -0.67168,0.36347 -0.67168,0.71484 0,0.35135 0.19901,0.92079 0.75872,0.90869 0.55975,-0.0122 0.84583,-0.31503 0.85826,-0.83598 0.0126,-0.52101 -0.31095,-0.81177 -0.9453,-0.78755 z"
       style="fill:#c6c6c6;fill-opacity:1;stroke:none;stroke-width:0.323974px;stroke-linecap:butt;stroke-linejoin:miter;stroke-opacity:1" />
    <path
       inkscape:connector-curvature="0"
       style="fill:#c6c6c6;fill-opacity:1;stroke:none;stroke-width:0.315382px;stroke-linecap:butt;stroke-linejoin:miter;stroke-opacity:1"
       d="m -754.36757,92.164824 c -0.52069,0.0119 -0.65387,0.35383 -0.65387,0.69587 0,0.34203 0.19374,0.89638 0.7386,0.88459 0.5449,-0.0119 0.8234,-0.30667 0.8355,-0.81381 0.0123,-0.50718 -0.30271,-0.79024 -0.92023,-0.76665 z"
       id="path1848" />
    <path
       inkscape:connector-curvature="0"
       id="path1850"
       d="m -754.26527,94.131574 c -0.51123,0.0116 -0.64199,0.3474 -0.64199,0.68323 0,0.33582 0.19021,0.8801 0.72518,0.86853 0.53501,-0.0116 0.80844,-0.3011 0.82033,-0.79903 0.012,-0.49797 -0.29722,-0.77589 -0.90352,-0.75273 z"
       style="fill:#c6c6c6;fill-opacity:1;stroke:none;stroke-width:0.309654px;stroke-linecap:butt;stroke-linejoin:miter;stroke-opacity:1" />
    <path
       inkscape:connector-curvature="0"
       style="fill:#c6c6c6;fill-opacity:1;stroke:none;stroke-width:0.309654px;stroke-linecap:butt;stroke-linejoin:miter;stroke-opacity:1"
       d="m -754.15796,96.276494 c -0.51123,0.0116 -0.64199,0.3474 -0.64199,0.68323 0,0.33582 0.19022,0.8801 0.72518,0.86853 0.53501,-0.0116 0.80844,-0.3011 0.82033,-0.79903 0.012,-0.49797 -0.29721,-0.77589 -0.90352,-0.75273 z"
       id="path1852" />
    <path
       inkscape:connector-curvature="0"
       id="path1854"
       d="m -754.11796,98.537854 c -0.51123,0.0116 -0.64199,0.3474 -0.64199,0.68323 0,0.33582 0.19022,0.880096 0.72518,0.868526 0.53501,-0.0116 0.80844,-0.301096 0.82033,-0.799026 0.012,-0.49797 -0.29722,-0.77589 -0.90352,-0.75273 z"
       style="fill:#c6c6c6;fill-opacity:1;stroke:none;stroke-width:0.309654px;stroke-linecap:butt;stroke-linejoin:miter;stroke-opacity:1" />
    <path
       inkscape:connector-curvature="0"
       style="fill:#c6c6c6;fill-opacity:1;stroke:none;stroke-width:0.309654px;stroke-linecap:butt;stroke-linejoin:miter;stroke-opacity:1"
       d="m -754.07813,100.57046 c -0.51132,0.0116 -0.64468,0.3474 -0.64728,0.68323 -0.003,0.33582 0.18339,0.8801 0.71845,0.86853 0.53509,-0.0116 0.81077,-0.3011 0.82652,-0.79903 0.0159,-0.49797 -0.2912,-0.77589 -0.89769,-0.75273 z"
       id="path1856" />
    <path
       inkscape:connector-curvature="0"
       id="path1858"
       d="m -753.9803,102.70606 c -0.51132,0.0116 -0.64468,0.3474 -0.64728,0.68323 -0.003,0.33582 0.18339,0.8801 0.71845,0.86853 0.53509,-0.0116 0.81077,-0.3011 0.82652,-0.79903 0.0159,-0.49797 -0.2912,-0.77589 -0.89769,-0.75273 z"
       style="fill:#c6c6c6;fill-opacity:1;stroke:none;stroke-width:0.309654px;stroke-linecap:butt;stroke-linejoin:miter;stroke-opacity:1" />
    <path
       inkscape:connector-curvature="0"
       style="fill:#c6c6c6;fill-opacity:1;stroke:none;stroke-width:0.309654px;stroke-linecap:butt;stroke-linejoin:miter;stroke-opacity:1"
       d="m -753.99225,104.77975 c -0.51123,0.0116 -0.64199,0.3474 -0.64199,0.68323 0,0.33582 0.19022,0.8801 0.72518,0.86853 0.53501,-0.0116 0.80844,-0.3011 0.82033,-0.79903 0.012,-0.49797 -0.29722,-0.77589 -0.90352,-0.75273 z"
       id="path1860" />
    <path
       inkscape:connector-curvature="0"
       id="path1862"
       d="m -753.92389,106.84083 c -0.51123,0.0116 -0.64198,0.3474 -0.64198,0.68323 0,0.33582 0.19021,0.8801 0.72518,0.86853 0.535,-0.0116 0.80844,-0.3011 0.82032,-0.79903 0.012,-0.49797 -0.29721,-0.77589 -0.90352,-0.75273 z"
       style="fill:#c6c6c6;fill-opacity:1;stroke:none;stroke-width:0.309654px;stroke-linecap:butt;stroke-linejoin:miter;stroke-opacity:1" />
    <path
       inkscape:connector-curvature="0"
       style="fill:#c6c6c6;fill-opacity:1;stroke:none;stroke-width:0.309654px;stroke-linecap:butt;stroke-linejoin:miter;stroke-opacity:1"
       d="m -753.91283,109.02277 c -0.51123,0.0116 -0.64199,0.3474 -0.64199,0.68323 0,0.33582 0.19022,0.8801 0.72519,0.86853 0.535,-0.0116 0.80844,-0.3011 0.82032,-0.79903 0.012,-0.49797 -0.29721,-0.77589 -0.90352,-0.75273 z"
       id="path1864" />
    <path
       inkscape:connector-curvature="0"
       id="path1866"
       d="m -753.9176,111.12376 c -0.51123,0.0116 -0.64199,0.3474 -0.64199,0.68323 0,0.33582 0.19022,0.8801 0.72519,0.86853 0.535,-0.0116 0.80844,-0.3011 0.82032,-0.79903 0.012,-0.49797 -0.29721,-0.77589 -0.90352,-0.75273 z"
       style="fill:#c6c6c6;fill-opacity:1;stroke:none;stroke-width:0.309654px;stroke-linecap:butt;stroke-linejoin:miter;stroke-opacity:1" />
    <path
       inkscape:connector-curvature="0"
       style="fill:#c6c6c6;fill-opacity:1;stroke:none;stroke-width:0.309654px;stroke-linecap:butt;stroke-linejoin:miter;stroke-opacity:1"
       d="m -753.93506,113.27702 c -0.51123,0.0116 -0.64199,0.3474 -0.64199,0.68323 0,0.33582 0.19022,0.8801 0.72519,0.86853 0.535,-0.0116 0.80844,-0.3011 0.82032,-0.79903 0.012,-0.49797 -0.29721,-0.77589 -0.90352,-0.75273 z"
       id="path1868" />
    <path
       inkscape:connector-curvature="0"
       id="path1870"
       d="m -753.84927,115.41282 c -0.51123,0.0116 -0.64199,0.3474 -0.64199,0.68323 0,0.33582 0.19022,0.8801 0.72519,0.86853 0.535,-0.0116 0.80844,-0.3011 0.82032,-0.79903 0.012,-0.49797 -0.29721,-0.77589 -0.90352,-0.75273 z"
       style="fill:#c6c6c6;fill-opacity:1;stroke:none;stroke-width:0.309654px;stroke-linecap:butt;stroke-linejoin:miter;stroke-opacity:1" />
    <path
       inkscape:connector-curvature="0"
       style="fill:#c6c6c6;fill-opacity:1;stroke:none;stroke-width:0.309654px;stroke-linecap:butt;stroke-linejoin:miter;stroke-opacity:1"
       d="m -753.84927,117.54862 c -0.51123,0.0116 -0.64199,0.3474 -0.64199,0.68323 0,0.33582 0.19022,0.8801 0.72519,0.86853 0.535,-0.0116 0.80844,-0.3011 0.82032,-0.79903 0.012,-0.49797 -0.29721,-0.77589 -0.90352,-0.75273 z"
       id="path1872" />
    <path
       inkscape:connector-curvature="0"
       id="path1874"
       d="m -753.85571,119.47289 c -0.51123,0.0116 -0.64199,0.3474 -0.64199,0.68323 0,0.33582 0.19022,0.8801 0.72519,0.86853 0.535,-0.0116 0.80844,-0.3011 0.82032,-0.79903 0.012,-0.49797 -0.29721,-0.77589 -0.90352,-0.75273 z"
       style="fill:#c6c6c6;fill-opacity:1;stroke:none;stroke-width:0.309654px;stroke-linecap:butt;stroke-linejoin:miter;stroke-opacity:1" />
    <path
       inkscape:connector-curvature="0"
       style="fill:#c6c6c6;fill-opacity:1;stroke:none;stroke-width:0.309654px;stroke-linecap:butt;stroke-linejoin:miter;stroke-opacity:1"
       d="m -753.80954,121.66596 c -0.51123,0.0116 -0.64199,0.3474 -0.64199,0.68323 0,0.33582 0.19022,0.8801 0.72519,0.86853 0.535,-0.0116 0.80844,-0.3011 0.82032,-0.79903 0.012,-0.49797 -0.29721,-0.77589 -0.90352,-0.75273 z"
       id="path1876" />
    <path
       inkscape:connector-curvature="0"
       id="path1878"
       d="m -753.87794,123.74457 c -0.51123,0.0116 -0.64199,0.3474 -0.64199,0.68323 0,0.33582 0.19022,0.8801 0.72518,0.86853 0.53501,-0.0116 0.80844,-0.3011 0.82033,-0.79903 0.012,-0.49797 -0.29721,-0.77589 -0.90352,-0.75273 z"
       style="fill:#c6c6c6;fill-opacity:1;stroke:none;stroke-width:0.309654px;stroke-linecap:butt;stroke-linejoin:miter;stroke-opacity:1" />
    <path
       inkscape:connector-curvature="0"
       style="fill:#c6c6c6;fill-opacity:1;stroke:none;stroke-width:0.309654px;stroke-linecap:butt;stroke-linejoin:miter;stroke-opacity:1"
       d="m -753.92396,125.84053 c -0.51123,0.0116 -0.64199,0.3474 -0.64199,0.68323 0,0.33582 0.19022,0.8801 0.72518,0.86853 0.53501,-0.0116 0.80844,-0.3011 0.82033,-0.79903 0.012,-0.49797 -0.29721,-0.77589 -0.90352,-0.75273 z"
       id="path1880" />
    <path
       inkscape:connector-curvature="0"
       id="path1882"
       d="m -753.90658,128.02727 c -0.51123,0.0116 -0.64198,0.3474 -0.64198,0.68323 0,0.33582 0.19021,0.8801 0.72518,0.86853 0.535,-0.0116 0.80844,-0.3011 0.82032,-0.79903 0.012,-0.49797 -0.29721,-0.77589 -0.90352,-0.75273 z"
       style="fill:#c6c6c6;fill-opacity:1;stroke:none;stroke-width:0.309654px;stroke-linecap:butt;stroke-linejoin:miter;stroke-opacity:1" />
    <path
       inkscape:connector-curvature="0"
       style="fill:#c6c6c6;fill-opacity:1;stroke:none;stroke-width:0.309654px;stroke-linecap:butt;stroke-linejoin:miter;stroke-opacity:1"
       d="m -753.93521,130.1233 c -0.51123,0.0116 -0.64199,0.3474 -0.64199,0.68323 0,0.33582 0.19022,0.8801 0.72519,0.86853 0.535,-0.0116 0.80844,-0.3011 0.82032,-0.79903 0.012,-0.49797 -0.29721,-0.77589 -0.90352,-0.75273 z"
       id="path1884" />
    <path
       inkscape:connector-curvature="0"
       id="path1886"
       d="m -753.96392,132.10483 c -0.51123,0.0116 -0.64199,0.3474 -0.64199,0.68323 0,0.33582 0.19022,0.8801 0.72518,0.86853 0.53501,-0.0116 0.80844,-0.3011 0.82033,-0.79903 0.012,-0.49797 -0.29721,-0.77589 -0.90352,-0.75273 z"
       style="fill:#c6c6c6;fill-opacity:1;stroke:none;stroke-width:0.309654px;stroke-linecap:butt;stroke-linejoin:miter;stroke-opacity:1" />
    <path
       inkscape:connector-curvature="0"
       style="fill:#c6c6c6;fill-opacity:1;stroke:none;stroke-width:0.309654px;stroke-linecap:butt;stroke-linejoin:miter;stroke-opacity:1"
       d="m -754.04986,134.27564 c -0.51123,0.0116 -0.64199,0.3474 -0.64199,0.68323 0,0.33582 0.19021,0.8801 0.72518,0.86853 0.53501,-0.0116 0.80844,-0.3011 0.82032,-0.79903 0.012,-0.49797 -0.29721,-0.77589 -0.90351,-0.75273 z"
       id="path1888" />
    <path
       inkscape:connector-curvature="0"
       id="path1890"
       d="m -754.17561,136.61658 c -0.51123,0.0116 -0.64199,0.3474 -0.64199,0.68323 0,0.33582 0.19021,0.8801 0.72518,0.86853 0.53501,-0.0116 0.80844,-0.3011 0.82033,-0.79903 0.012,-0.49797 -0.29722,-0.77589 -0.90352,-0.75273 z"
       style="fill:#c6c6c6;fill-opacity:1;stroke:none;stroke-width:0.309654px;stroke-linecap:butt;stroke-linejoin:miter;stroke-opacity:1" />
    <path
       inkscape:connector-curvature="0"
       style="fill:#c6c6c6;fill-opacity:1;stroke:none;stroke-width:0.309654px;stroke-linecap:butt;stroke-linejoin:miter;stroke-opacity:1"
       d="m -754.22644,139.16436 c -0.51123,0.0116 -0.64199,0.3474 -0.64199,0.68323 0,0.33582 0.19022,0.8801 0.72518,0.86853 0.53501,-0.0116 0.80844,-0.3011 0.82033,-0.79903 0.012,-0.49797 -0.29721,-0.77589 -0.90352,-0.75273 z"
       id="path1892" />
    <path
       inkscape:connector-curvature="0"
       id="path1894"
       d="m -754.29946,141.85997 c -0.51124,0.0116 -0.64199,0.3474 -0.64199,0.68323 0,0.33582 0.19021,0.8801 0.72518,0.86853 0.535,-0.0116 0.80844,-0.3011 0.82032,-0.79903 0.012,-0.49797 -0.29721,-0.77589 -0.90351,-0.75273 z"
       style="fill:#c6c6c6;fill-opacity:1;stroke:none;stroke-width:0.309654px;stroke-linecap:butt;stroke-linejoin:miter;stroke-opacity:1" />
    <path
       inkscape:connector-curvature="0"
       style="fill:#c6c6c6;fill-opacity:1;stroke:none;stroke-width:0.309654px;stroke-linecap:butt;stroke-linejoin:miter;stroke-opacity:1"
       d="m -754.414,144.40845 c -0.51123,0.0116 -0.64199,0.3474 -0.64199,0.68323 0,0.33582 0.19022,0.8801 0.72518,0.86853 0.53501,-0.0116 0.80844,-0.3011 0.82033,-0.79903 0.012,-0.49797 -0.29722,-0.77589 -0.90352,-0.75273 z"
       id="path1896" />
    <path
       inkscape:connector-curvature="0"
       id="path1898"
       d="m -754.49991,146.84239 c -0.51123,0.0116 -0.64198,0.3474 -0.64198,0.68323 0,0.33582 0.19021,0.8801 0.72518,0.86853 0.535,-0.0116 0.80844,-0.3011 0.82032,-0.79903 0.012,-0.49797 -0.29721,-0.77589 -0.90352,-0.75273 z"
       style="fill:#c6c6c6;fill-opacity:1;stroke:none;stroke-width:0.309654px;stroke-linecap:butt;stroke-linejoin:miter;stroke-opacity:1" />
    <path
       inkscape:connector-curvature="0"
       style="fill:#c6c6c6;fill-opacity:1;stroke:none;stroke-width:0.309654px;stroke-linecap:butt;stroke-linejoin:miter;stroke-opacity:1"
       d="m -754.64308,149.47678 c -0.51123,0.0116 -0.64199,0.3474 -0.64199,0.68323 0,0.33582 0.19022,0.8801 0.72519,0.86853 0.535,-0.0116 0.80844,-0.3011 0.82032,-0.79903 0.012,-0.49797 -0.29721,-0.77589 -0.90352,-0.75273 z"
       id="path1900" />
    <path
       inkscape:connector-curvature="0"
       id="path1902"
       d="m -754.9289,151.81101 c -0.48999,0.0111 -0.61532,0.33297 -0.61532,0.65485 0,0.32187 0.18232,0.84353 0.69506,0.83244 0.51278,-0.0111 0.77486,-0.28859 0.78625,-0.76583 0.0115,-0.47729 -0.28487,-0.74366 -0.86599,-0.72146 z"
       style="fill:#c6c6c6;fill-opacity:1;stroke:none;stroke-width:0.29679px;stroke-linecap:butt;stroke-linejoin:miter;stroke-opacity:1" />
    <path
       inkscape:connector-curvature="0"
       style="fill:#c6c6c6;fill-opacity:1;stroke:none;stroke-width:0.301542px;stroke-linecap:butt;stroke-linejoin:miter;stroke-opacity:1"
       d="m -755.2913,154.23653 c -0.49784,0.0113 -0.62517,0.3383 -0.62517,0.66533 0,0.32703 0.18524,0.85705 0.70619,0.84578 0.52099,-0.0113 0.78726,-0.29321 0.79883,-0.7781 0.0117,-0.48492 -0.28942,-0.75556 -0.87985,-0.73301 z"
       id="path1904" />
    <path
       inkscape:connector-curvature="0"
       id="path1906"
       d="m -756.01703,156.65029 c -0.48445,0.011 -0.60835,0.3292 -0.60835,0.64743 0,0.31823 0.18025,0.83399 0.68719,0.82303 0.50697,-0.011 0.76608,-0.28532 0.77734,-0.75717 0.0114,-0.47188 -0.28164,-0.73524 -0.85618,-0.71329 z"
       style="fill:#c6c6c6;fill-opacity:1;stroke:none;stroke-width:0.29343px;stroke-linecap:butt;stroke-linejoin:miter;stroke-opacity:1" />
    <path
       inkscape:connector-curvature="0"
       style="fill:#c6c6c6;fill-opacity:1;stroke:none;stroke-width:0.277206px;stroke-linecap:butt;stroke-linejoin:miter;stroke-opacity:1"
       d="m -757.13878,158.65831 c -0.45766,0.0104 -0.57472,0.311 -0.57472,0.61164 0,0.30063 0.17028,0.78788 0.6492,0.77752 0.47894,-0.0104 0.72372,-0.26955 0.73436,-0.7153 0.0108,-0.44579 -0.26607,-0.69459 -0.80884,-0.67386 z"
       id="path1908" />
    <path
       inkscape:connector-curvature="0"
       id="path1910"
       d="m -759.02866,159.91823 c -0.45767,0.0104 -0.57472,0.311 -0.57472,0.61164 0,0.30063 0.17028,0.78788 0.64919,0.77752 0.47895,-0.0104 0.72373,-0.26955 0.73437,-0.7153 0.0108,-0.44579 -0.26607,-0.69459 -0.80884,-0.67386 z"
       style="fill:#c6c6c6;fill-opacity:1;stroke:none;stroke-width:0.277206px;stroke-linecap:butt;stroke-linejoin:miter;stroke-opacity:1" />
    <path
       inkscape:connector-curvature="0"
       style="fill:#c6c6c6;fill-opacity:1;stroke:none;stroke-width:0.277206px;stroke-linecap:butt;stroke-linejoin:miter;stroke-opacity:1"
       d="m -761.43397,161.02009 c -0.45766,0.0104 -0.57472,0.311 -0.57472,0.61164 0,0.30063 0.17029,0.78788 0.6492,0.77752 0.47894,-0.0104 0.72372,-0.26955 0.73436,-0.7153 0.0108,-0.44579 -0.26607,-0.69459 -0.80884,-0.67386 z"
       id="path1912" />
    <path
       inkscape:connector-curvature="0"
       id="path1914"
       d="m -763.83928,161.72107 c -0.45766,0.0104 -0.57471,0.311 -0.57471,0.61164 0,0.30063 0.17028,0.78788 0.64919,0.77752 0.47894,-0.0104 0.72373,-0.26955 0.73437,-0.7153 0.0108,-0.44579 -0.26607,-0.69459 -0.80885,-0.67386 z"
       style="fill:#c6c6c6;fill-opacity:1;stroke:none;stroke-width:0.277206px;stroke-linecap:butt;stroke-linejoin:miter;stroke-opacity:1" />
    <path
       inkscape:connector-curvature="0"
       style="fill:#c6c6c6;fill-opacity:1;stroke:none;stroke-width:0.277206px;stroke-linecap:butt;stroke-linejoin:miter;stroke-opacity:1"
       d="m -766.41639,161.83561 c -0.45766,0.0104 -0.57472,0.311 -0.57472,0.61164 0,0.30063 0.17029,0.78788 0.6492,0.77752 0.47894,-0.0104 0.72372,-0.26955 0.73436,-0.7153 0.0108,-0.44579 -0.26607,-0.69459 -0.80884,-0.67386 z"
       id="path1916" />
  </g>
</svg>
