<?xml version="1.0" encoding="UTF-8" standalone="no"?>
<svg
   xmlns:dc="http://purl.org/dc/elements/1.1/"
   xmlns:cc="http://creativecommons.org/ns#"
   xmlns:rdf="http://www.w3.org/1999/02/22-rdf-syntax-ns#"
   xmlns:svg="http://www.w3.org/2000/svg"
   xmlns="http://www.w3.org/2000/svg"
   xmlns:sodipodi="http://sodipodi.sourceforge.net/DTD/sodipodi-0.dtd"
   xmlns:inkscape="http://www.inkscape.org/namespaces/inkscape"
   sodipodi:docname="hitachi.svg"
   inkscape:version="1.1-dev (ddb55ca, 2020-02-02)"
   id="svg8"
   version="1.1"
   viewBox="0 0 869.20091 824.22968"
   height="824.22968mm"
   width="869.20093mm">
  <defs
     id="defs2" />
  <sodipodi:namedview
     inkscape:window-maximized="1"
     inkscape:window-y="23"
     inkscape:window-x="0"
     inkscape:window-height="1035"
     inkscape:window-width="1920"
     inkscape:snap-global="false"
     showgrid="false"
     inkscape:current-layer="layer1"
     inkscape:document-units="mm"
     inkscape:cy="1682.7356"
     inkscape:cx="779.24514"
     inkscape:zoom="0.16159684"
     inkscape:pageshadow="2"
     inkscape:pageopacity="0.0"
     borderopacity="1.0"
     bordercolor="#666666"
     pagecolor="#ffffff"
     id="base" />
  <metadata
     id="metadata5">
    <rdf:RDF>
      <cc:Work
         rdf:about="">
        <dc:format>image/svg+xml</dc:format>
        <dc:type
           rdf:resource="http://purl.org/dc/dcmitype/StillImage" />
        <dc:title />
      </cc:Work>
    </rdf:RDF>
  </metadata>
  <g
     transform="translate(-72.297524,806.149)"
     id="layer1"
     inkscape:groupmode="layer"
     inkscape:label="Layer 1">
    <g
       transform="matrix(19.063892,0,0,19.063892,-1305.9757,-326.60715)"
       id="g926">
      <path
         id="path3071"
         style="fill:#d5d5d5;fill-opacity:1;stroke:none;stroke-width:0.264583px;stroke-linecap:butt;stroke-linejoin:miter;stroke-opacity:1"
         d="m 95.044756,-25.154457 v 0.0026 c -1.947914,0.03201 -4.600411,0.17366 -7.396964,0.617016 -4.454443,0.706192 -9.995375,2.227211 -11.244792,2.716114 -1.249416,0.488902 -1.629626,1.303418 -1.846916,2.987414 -0.217289,1.683996 -1.882578,18.18652814 -2.113049,19.79982499 -0.23047,1.61329371 -0.153647,3.26477251 0,4.34030381 0.153647,1.0755286 0.972364,8.6437652 1.135331,9.6758942 0.162966,1.032129 0.407579,1.358056 1.439706,1.358056 1.032126,0 2.437344,-0.06746 3.416845,-0.0098 0.9795,0.05762 1.632649,0.499465 2.285649,0.902788 0.653,0.403328 0.864561,0.730019 1.440739,0.768429 0.576178,0.03841 2.861679,0.07648 3.361035,0.07648 0.499351,0 0.595055,-0.09579 0.652673,-0.633552 0.05762,-0.537769 0.672079,-0.844818 1.651579,-0.864029 0.902887,-0.0177 4.058276,0.0422 7.26829,0.0098 3.209836,0.03237 6.364938,-0.02751 7.267778,-0.0098 0.9795,0.01921 1.59398,0.32626 1.65158,0.864029 0.0576,0.537763 0.15332,0.633552 0.65267,0.633552 0.49936,0 2.78486,-0.03807 3.36104,-0.07648 0.57618,-0.03841 0.78773,-0.365101 1.44073,-0.768429 0.653,-0.403323 1.30615,-0.845167 2.28565,-0.902788 0.9795,-0.05764 2.38473,0.0098 3.41685,0.0098 1.03213,0 1.27673,-0.325927 1.4397,-1.358056 0.16297,-1.032129 0.98168,-8.6003656 1.13534,-9.6758942 0.15364,-1.0755313 0.23047,-2.7270101 0,-4.34030381 -0.23047,-1.61329685 -1.89576,-18.11582899 -2.11305,-19.79982499 -0.21729,-1.683996 -0.59751,-2.498512 -1.84692,-2.987414 -1.24942,-0.488903 -6.79034,-2.009922 -11.24479,-2.716114 -2.796555,-0.443356 -5.449055,-0.585003 -7.396969,-0.617016 v -0.0026 c -0.01535,2.28e-4 -0.03468,0.0013 -0.05013,0.0016 -0.01528,-2.38e-4 -0.03442,-0.0013 -0.04961,-0.0016 z"
         inkscape:connector-curvature="0" />
      <path
         id="path3112"
         style="fill:#c9c9c9;fill-opacity:1;stroke:none;stroke-width:0.999999px;stroke-linecap:butt;stroke-linejoin:miter;stroke-opacity:1"
         d="m 39.357422,109.92578 c -18.479078,-0.0157 -32.0714309,-7.9e-4 -39.28125013,0.0234 0.09256063,1.94044 0.26165657,3.71049 0.47265625,5.1875 0.58071308,4.06499 3.67507738,32.66935 4.29101568,36.57031 0.6159344,3.90096 1.5404538,5.13281 5.4414062,5.13281 3.900949,0 9.212011,-0.25503 12.914062,-0.0371 3.702048,0.21778 6.170645,1.88774 8.638672,3.41211 2.468036,1.52439 3.267628,2.75913 5.445313,2.9043 2.177681,0.14517 10.815795,0.28906 12.703125,0.28906 1.887311,0 2.249028,-0.36204 2.466797,-2.39453 0.217776,-2.03251 2.54014,-3.19301 6.242187,-3.26562 3.412485,-0.0669 15.338368,0.15959 27.470703,0.0371 12.132351,0.12248 24.058221,-0.10396 27.470701,-0.0371 3.70205,0.0726 6.02449,1.23311 6.24219,3.26562 0.21774,2.03249 0.57949,2.39453 2.4668,2.39453 1.88734,0 10.52543,-0.14389 12.70312,-0.28906 2.17765,-0.14517 2.97725,-1.37991 5.44531,-2.9043 2.468,-1.52437 4.93663,-3.19433 8.63868,-3.41211 3.70204,-0.21792 9.01309,0.0371 12.91406,0.0371 3.90096,0 4.82549,-1.23185 5.44141,-5.13281 0.61594,-3.90096 3.71029,-32.50532 4.29101,-36.57031 0.21109,-1.47701 0.38006,-3.24706 0.47266,-5.1875 -7.20983,-0.0242 -20.8022,-0.0391 -39.28125,-0.0234 -13.85969,0.0118 -30.05484,0.0483 -46.617191,0.0996 -0.13328,-4.1e-4 -0.241769,4.1e-4 -0.375,0 -16.562352,-0.0513 -32.757495,-0.0878 -46.617187,-0.0996 z"
         transform="matrix(0.26458333,0,0,0.26458333,72.297578,-25.154457)"
         inkscape:connector-curvature="0" />
      <path
         style="fill:#c5c5c5;fill-opacity:1;stroke:none;stroke-width:0.264583px;stroke-linecap:butt;stroke-linejoin:miter;stroke-opacity:1"
         d="m 74.671032,-10.747141 c 0.153647,-2.227884 1.421236,-2.535176 2.919296,-2.535176 h 9.257241 c 1.306,0 2.650414,0.499353 2.612002,2.727235 -0.03841,2.2278839 0.106654,6.184299 -0.0086,7.6823592 -0.115236,1.4980576 -1.075531,2.30470602 -2.612004,2.4583522 -1.536469,0.15364883 -8.826125,-0.0768218 -10.401008,-0.15364618 -1.574883,-0.0768244 -2.15106,-1.34441142 -2.189472,-2.53517662 -0.03841,-1.1907652 0.345706,-6.4531821 0.42253,-7.6439476 z"
         id="path3073"
         inkscape:connector-curvature="0"
         sodipodi:nodetypes="csssssssc" />
      <path
         style="fill:#797979;fill-opacity:1;stroke:none;stroke-width:0.264583px;stroke-linecap:butt;stroke-linejoin:miter;stroke-opacity:1"
         d="m 75.439268,-9.9789045 c 0.115235,-1.4596485 0.422529,-2.3047065 2.15106,-2.3815305 1.72853,-0.07682 7.490298,-0.115237 8.796298,-0.07682 1.306001,0.03841 2.227884,0.345707 2.189472,1.882177 -0.03841,1.5364721 0.06824,5.7233578 -0.0086,6.914123 -0.07682,1.1907652 -0.268883,2.2662938 -2.227884,2.2662938 -1.958999,0 -8.365183,-0.115234 -9.402302,-0.115234 -1.037118,0 -1.72853,-0.4609412 -1.72853,-1.7285308 0,-1.2675897 0.115235,-5.4160631 0.230471,-6.7604745 z"
         id="path3075"
         inkscape:connector-curvature="0"
         sodipodi:nodetypes="sccsssssss" />
      <path
         id="path3077"
         style="fill:#e2e2e2;fill-opacity:1;stroke:none;stroke-width:0.999999px;stroke-linecap:butt;stroke-linejoin:miter;stroke-opacity:1"
         d="m 46.890625,48.007812 c -8.513351,-0.0068 -21.986949,0.129899 -26.886719,0.347657 -6.53303,0.290358 -7.693372,3.483218 -8.128906,9 -0.421049,4.912209 -0.833781,19.538804 -0.861328,24.847656 h 50.402344 c 0.02534,-0.297442 0.05666,-0.5901 0.07617,-0.892578 0.290418,-4.50053 -0.111969,-20.323721 0.0332,-26.130859 0.145179,-5.807131 -3.339324,-6.970063 -8.275391,-7.115235 -1.234016,-0.0363 -3.521591,-0.05437 -6.359375,-0.05664 z"
         transform="matrix(0.26458333,0,0,0.26458333,72.297578,-25.154457)"
         inkscape:connector-curvature="0" />
      <path
         style="fill:#d1d1d1;fill-opacity:1;stroke:none;stroke-width:0.264583px;stroke-linecap:butt;stroke-linejoin:miter;stroke-opacity:1"
         d="m 87.946913,0.19522146 c 0.828863,0.001144 0.882743,0.0814837 0.882743,0.57038345 0,0.48890239 -0.04229,3.81355859 -0.04229,4.27449979 0,0.4609412 -0.172855,0.7682362 -0.806649,0.8066484 -0.633796,0.03841 -12.560654,-0.096031 -13.098419,-0.1152366 -0.537765,-0.019209 -0.960295,0.038412 -0.960295,-0.4801473 0,-0.5185595 -0.08943,-3.4767169 -0.03181,-3.9376581 0.05762,-0.4609412 0.03977,-0.55077449 0.262842,-1.11379197 4.701482,-0.007506 9.140617,-0.0111206 13.793878,-0.004698 z"
         id="path3110"
         inkscape:connector-curvature="0"
         sodipodi:nodetypes="ssssssscs" />
      <path
         style="fill:#acacac;fill-opacity:1;stroke:none;stroke-width:0.264583px;stroke-linecap:butt;stroke-linejoin:miter;stroke-opacity:1"
         d="m 75.60856,-0.23996449 c -0.746816,0.0428519 -0.697305,0.44870335 -0.303545,0.44077821 0.393757,-0.007925 0.691924,-0.0410939 2.090718,-0.0556555 1.398793,-0.0145775 9.293547,0.12536831 9.714461,0.11689661 0.420915,-0.008472 0.925755,0.10361782 1.047681,0.08758 0.121929,-0.0160299 0.21342,-0.19446357 0.0195,-0.38072606 -0.193917,-0.18626513 -1.048872,-0.1317354 -3.045816,-0.15603293 -2.025461,-0.0246445 -7.81688,-0.15073668 -9.523004,-0.0528403 z"
         id="path3082"
         inkscape:connector-curvature="0"
         sodipodi:nodetypes="ssssssss" />
      <path
         style="fill:#acacac;fill-opacity:1;stroke:none;stroke-width:0.264583px;stroke-linecap:butt;stroke-linejoin:miter;stroke-opacity:1"
         d="m 73.560386,6.0229012 c 0.0066,0.7425202 0.388208,0.942452 0.599477,0.942452 0.211265,0 0.0675,-0.4997533 0.01881,-1.0262679 -0.04602,-0.4975964 0.05064,-4.5673068 0.108242,-5.43157085 0.05762,-0.86426674 -0.02926,-7.76805275 -0.0021,-8.09398775 0.02716,-0.3259349 0.08148,-0.5703861 0.271612,-0.8691588 0.190129,-0.2987755 -0.244451,-0.7605157 -0.516063,-0.3802592 -0.271613,0.3802592 -0.271613,2.1185769 -0.298774,3.2865112 -0.02716,1.1679317 -0.119875,7.278652 -0.162967,8.2570134 -0.05171,1.1739936 -0.0272,2.3107512 -0.01824,3.3152679 z"
         id="path3084"
         inkscape:connector-curvature="0"
         sodipodi:nodetypes="ssssssssss" />
      <path
         style="fill:#c5c5c5;fill-opacity:1;stroke:none;stroke-width:0.264583px;stroke-linecap:butt;stroke-linejoin:miter;stroke-opacity:1"
         d="m 80.375182,1.6022491 c 0.979473,0.02055 2.227884,-0.096028 2.170265,1.747737 -0.05761,1.8437648 -0.422529,2.0742354 -2.055029,2.0358232 -1.632501,-0.03841 -2.285502,-0.5185569 -2.189472,-1.9589988 0.09603,-1.4404419 0.307265,-1.861633 2.074236,-1.8245614 z"
         id="path3104"
         inkscape:connector-curvature="0"
         sodipodi:nodetypes="sssss" />
      <path
         style="fill:#b1b1b1;fill-opacity:1;stroke:none;stroke-width:0.264583px;stroke-linecap:butt;stroke-linejoin:miter;stroke-opacity:1"
         d="m 80.442403,1.9767642 c 0.586095,1.3e-6 0.921883,0.2496767 1.113942,0.5089551 0.192058,0.2592811 0.249676,0.7490302 0.480147,0.7490302 0.230471,0 0.240072,0.1344427 0.240072,0.307295 0,0.1728523 -0.124835,0.2496767 -0.23047,0.2496767 -0.105632,0 -0.230471,0.1248383 -0.307293,0.3265011 -0.07682,0.2016601 -0.297693,0.9026763 -1.296398,0.8546624 -0.998707,-0.048017 -1.056324,-0.355309 -1.190766,-0.5569718 -0.134441,-0.2016627 -0.240073,-0.5089567 -0.403323,-0.5089567 -0.163251,0 -0.25928,-0.2208684 -0.249677,-0.3553085 0.0096,-0.13444 0.08642,-0.2880878 0.230471,-0.2976921 0.144044,-0.0096 0.201661,-0.2208663 0.336103,-0.4801473 0.134441,-0.2592785 0.585513,-0.7970457 1.277192,-0.7970441 z"
         id="path3108"
         inkscape:connector-curvature="0"
         sodipodi:nodetypes="sssssssssssss" />
      <path
         style="fill:#ebebeb;fill-opacity:1;stroke:none;stroke-width:0.264583px;stroke-linecap:butt;stroke-linejoin:miter;stroke-opacity:1"
         d="m 80.461609,2.2360428 c 0.710617,0.057618 1.248383,0.6722084 1.209971,1.3636202 -0.03841,0.6914118 -0.672206,1.1907652 -1.286795,1.1715591 -0.614588,-0.019209 -1.209971,-0.4993534 -1.171559,-1.1907652 0.03841,-0.6914118 0.422529,-1.325208 1.248383,-1.3444141 z"
         id="path3106"
         inkscape:connector-curvature="0" />
      <path
         id="path868"
         style="fill:#a0a0a0;fill-opacity:1;stroke:none;stroke-width:0.999999px;stroke-linecap:butt;stroke-linejoin:miter;stroke-opacity:1"
         d="m 79.882812,0.4921875 c -2.771727,0 -3.389539,0.41085757 -3.492187,2.3613281 -0.102652,1.9504781 2.18e-4,8.2134184 -0.205078,12.0117184 -0.205304,3.79829 0.308674,2.155147 -3.181641,4.824219 l 12.96875,0.876953 v 0.02539 l 0.1875,-0.01367 0.189453,0.01367 v -0.02539 l 12.96875,-0.876953 C 95.828045,17.020381 96.342023,18.663524 96.136719,14.865234 95.931422,11.066934 96.034293,4.8039937 95.931641,2.8535156 95.828992,0.90304507 95.211181,0.4921875 92.439453,0.4921875 c -2.152926,0 -4.724425,-0.0662003 -6.279297,-0.0388337 -1.555052,-0.0273748 -4.125087,0.0388337 -6.277344,0.0388337 z"
         transform="matrix(0.26458333,0,0,0.26458333,72.297824,-25.154457)"
         inkscape:connector-curvature="0"
         sodipodi:nodetypes="ssscccccccssscs" />
      <path
         id="path851"
         style="fill:#afafaf;fill-opacity:1;stroke:none;stroke-width:0.999999px;stroke-linecap:butt;stroke-linejoin:miter;stroke-opacity:1"
         d="m 58.619141,18.957031 c -4.064999,0 -4.20965,0.579523 -4.5,4.208985 -0.0726,1.742146 -0.2174,7.91215 -0.07227,9.654296 0.114671,1.376323 1.160512,2.324219 2.394531,2.324219 1.154099,0 23.656231,0.178727 29.53125,0.203125 v 0.002 c 0.03454,-1.29e-4 0.151575,-0.0018 0.1875,-0.002 0.03631,1.44e-4 0.154552,0.0018 0.189453,0.002 v -0.002 c 5.875019,-0.0244 28.377125,-0.203125 29.531255,-0.203125 1.23402,0 2.28001,-0.947896 2.39453,-2.324219 0.14513,-1.742146 3e-4,-7.91215 -0.0723,-9.654296 -0.29034,-3.629462 -0.43496,-4.208985 -4.5,-4.208985 H 86.349609 85.972656 Z"
         transform="matrix(0.26458333,0,0,0.26458333,72.297824,-25.154457)"
         inkscape:connector-curvature="0" />
      <path
         id="path852"
         style="fill:#e2e2e2;fill-opacity:1;stroke:none;stroke-width:0.999999px;stroke-linecap:butt;stroke-linejoin:miter;stroke-opacity:1"
         d="m 67.03125,21.574219 c -2.522472,-0.003 -4.472755,0.01393 -5.216797,0.06836 -2.97614,0.217777 -2.68588,-0.218305 -3.048828,4.5 -0.145172,5.661971 0.43429,5.300133 2.03125,5.445313 1.52639,0.138737 20.375457,0.398117 25.363281,0.294921 4.985883,0.103267 23.838724,-0.156172 25.365234,-0.294921 1.59696,-0.14518 2.17638,0.216658 2.03125,-5.445313 -0.36295,-4.718305 -0.0727,-4.282223 -3.04883,-4.5 -0.74407,-0.05443 -2.69434,-0.07136 -5.21679,-0.06836 -6.804078,0.0092 -16.499566,0.156411 -19.128911,0.189453 C 83.534174,21.730654 73.836144,21.58337 67.03125,21.574219 Z"
         transform="matrix(0.26458333,0,0,0.26458333,72.297824,-25.154457)"
         inkscape:connector-curvature="0" />
      <path
         id="path854"
         style="fill:#1c1c1c;fill-opacity:1;stroke:none;stroke-width:0.999999px;stroke-linecap:butt;stroke-linejoin:miter;stroke-opacity:1"
         d="m 83.257812,22.945312 c -4.186046,-0.0053 -11.110006,0.04334 -15.896484,0.01953 -2.280892,-0.01134 -3.969014,0.002 -4.458984,0.05664 -1.959912,0.217777 -2.24202,0.415503 -2.46875,3.703125 -0.209764,3.04153 0.363668,3.556641 2.033203,3.556641 1.582102,0 19.353265,0.235063 23.53125,0.195312 0.0691,9.56e-4 0.297818,-7.52e-4 0.376953,0 4.176933,0.03973 21.8984,-0.195312 23.48047,-0.195312 1.66961,0 2.24297,-0.515111 2.0332,-3.556641 -0.22673,-3.287622 -0.50884,-3.485348 -2.46875,-3.703125 -0.48998,-0.05461 -2.17811,-0.06798 -4.45898,-0.05664 -6.284283,0.03126 -16.177455,-0.06246 -18.798831,0.0059 -0.624644,-0.0163 -1.593569,-0.02374 -2.904297,-0.02539 z"
         transform="matrix(0.26458333,0,0,0.26458333,72.297824,-25.154457)"
         inkscape:connector-curvature="0" />
      <path
         inkscape:connector-curvature="0"
         id="path1122"
         d="m 115.51853,-10.747141 c -0.15365,-2.227884 -1.42124,-2.535176 -2.9193,-2.535176 h -9.25724 c -1.306,0 -2.65041,0.499353 -2.612,2.727235 0.0384,2.2278839 -0.0425,6.184299 0.0728,7.6823592 0.11523,1.4980576 1.07553,2.30470602 2.612,2.4583522 1.53647,0.15364883 8.76193,-0.0768218 10.33682,-0.15364618 1.57488,-0.0768244 2.15106,-1.34441142 2.18947,-2.53517662 0.0384,-1.1907652 -0.34571,-6.4531821 -0.42253,-7.6439476 z"
         style="fill:#c5c5c5;fill-opacity:1;stroke:none;stroke-width:0.264583px;stroke-linecap:butt;stroke-linejoin:miter;stroke-opacity:1"
         sodipodi:nodetypes="cssccssccc" />
      <path
         inkscape:connector-curvature="0"
         id="path1124"
         d="m 114.75029,-9.9789045 c -0.11523,-1.4596485 -0.42253,-2.3047065 -2.15106,-2.3815305 -1.72853,-0.07682 -7.4903,-0.115237 -8.7963,-0.07682 -1.306,0.03841 -2.22788,0.345707 -2.18947,1.882177 0.0384,1.5364721 -0.004,5.7233578 0.0728,6.914123 0.0768,1.1907652 0.26888,2.2662938 2.22789,2.2662938 1.95899,0 8.30098,-0.115234 9.3381,-0.115234 1.03712,0 1.72853,-0.4609412 1.72853,-1.7285308 0,-1.2675897 -0.11523,-5.4160631 -0.23047,-6.7604745 z"
         style="fill:#797979;fill-opacity:1;stroke:none;stroke-width:0.264583px;stroke-linecap:butt;stroke-linejoin:miter;stroke-opacity:1"
         sodipodi:nodetypes="sscccsssss" />
      <path
         id="path1126"
         style="fill:#e2e2e2;fill-opacity:1;stroke:none;stroke-width:0.999999px;stroke-linecap:butt;stroke-linejoin:miter;stroke-opacity:1"
         d="m 125.43359,48.007812 c -2.83778,0.0023 -5.1234,0.02034 -6.35742,0.05664 -4.93606,0.145172 -8.42056,1.308104 -8.27539,7.115235 0.0131,0.525909 0.0412,1.780704 0.0566,2.455078 h 49.61328 c -0.006,-0.0797 -0.0131,-0.204165 -0.0195,-0.279297 -0.43551,-5.516782 -1.59783,-8.709642 -8.13086,-9 -4.89977,-0.217758 -18.37336,-0.354465 -26.88672,-0.347657 z"
         transform="matrix(0.26458333,0,0,0.26458333,72.297578,-25.154457)"
         inkscape:connector-curvature="0" />
      <path
         sodipodi:nodetypes="ssssssscs"
         inkscape:connector-curvature="0"
         id="path1128"
         d="m 102.24265,0.19522146 c -0.82887,0.001144 -0.88275,0.0814837 -0.88275,0.57038345 0,0.48890239 0.0423,3.81355859 0.0423,4.27449979 0,0.4609412 0.17286,0.7682362 0.80665,0.8066484 0.6338,0.03841 12.56066,-0.096031 13.09842,-0.1152366 0.53777,-0.019209 0.9603,0.038412 0.9603,-0.4801473 0,-0.5185595 0.0894,-3.4767169 0.0318,-3.9376581 -0.0576,-0.4609412 -0.0398,-0.55077449 -0.26285,-1.11379197 -4.70148,-0.007506 -9.14061,-0.0111206 -13.79387,-0.004698 z"
         style="fill:#d1d1d1;fill-opacity:1;stroke:none;stroke-width:0.264583px;stroke-linecap:butt;stroke-linejoin:miter;stroke-opacity:1" />
      <path
         sodipodi:nodetypes="ssssssssss"
         inkscape:connector-curvature="0"
         id="path1132"
         d="m 116.62917,6.0229012 c -0.007,0.7425202 -0.3882,0.942452 -0.59947,0.942452 -0.21127,0 -0.0675,-0.4997533 -0.0188,-1.0262679 0.046,-0.4975964 -0.0506,-4.5673068 -0.10824,-5.43157085 -0.0576,-0.86426674 0.0293,-7.76805275 0.002,-8.09398775 -0.0272,-0.3259349 -0.0815,-0.5703861 -0.27162,-0.8691588 -0.19013,-0.2987755 0.24445,-0.7605157 0.51607,-0.3802592 0.27161,0.3802592 0.27161,2.1185769 0.29877,3.2865112 0.0272,1.1679317 0.11987,7.278652 0.16297,8.2570134 0.0517,1.1739936 0.0272,2.3107512 0.0182,3.3152679 z"
         style="fill:#acacac;fill-opacity:1;stroke:none;stroke-width:0.264583px;stroke-linecap:butt;stroke-linejoin:miter;stroke-opacity:1" />
      <path
         sodipodi:nodetypes="sssss"
         inkscape:connector-curvature="0"
         id="path1134"
         d="m 109.81438,1.6022491 c -0.97947,0.02055 -2.22789,-0.096028 -2.17027,1.747737 0.0576,1.8437648 0.42253,2.0742354 2.05503,2.0358232 1.6325,-0.03841 2.2855,-0.5185569 2.18947,-1.9589988 -0.096,-1.4404419 -0.30726,-1.861633 -2.07423,-1.8245614 z"
         style="fill:#c5c5c5;fill-opacity:1;stroke:none;stroke-width:0.264583px;stroke-linecap:butt;stroke-linejoin:miter;stroke-opacity:1" />
      <path
         sodipodi:nodetypes="sssssssssssss"
         inkscape:connector-curvature="0"
         id="path1136"
         d="m 109.74716,1.9767642 c -0.5861,1.3e-6 -0.92189,0.2496767 -1.11394,0.5089551 -0.19206,0.2592811 -0.24968,0.7490302 -0.48015,0.7490302 -0.23047,0 -0.24007,0.1344427 -0.24007,0.307295 0,0.1728523 0.12483,0.2496767 0.23047,0.2496767 0.10563,0 0.23047,0.1248383 0.30729,0.3265011 0.0768,0.2016601 0.29769,0.9026763 1.2964,0.8546624 0.9987,-0.048017 1.05632,-0.355309 1.19076,-0.5569718 0.13444,-0.2016627 0.24008,-0.5089567 0.40333,-0.5089567 0.16325,0 0.25928,-0.2208684 0.24967,-0.3553085 -0.01,-0.13444 -0.0864,-0.2880878 -0.23047,-0.2976921 -0.14404,-0.0096 -0.20166,-0.2208663 -0.3361,-0.4801473 -0.13444,-0.2592785 -0.58551,-0.7970457 -1.27719,-0.7970441 z"
         style="fill:#b1b1b1;fill-opacity:1;stroke:none;stroke-width:0.264583px;stroke-linecap:butt;stroke-linejoin:miter;stroke-opacity:1" />
      <path
         inkscape:connector-curvature="0"
         id="path1138"
         d="m 109.72795,2.2360428 c -0.71062,0.057618 -1.24838,0.6722084 -1.20997,1.3636202 0.0384,0.6914118 0.67221,1.1907652 1.2868,1.1715591 0.61458,-0.019209 1.20997,-0.4993534 1.17155,-1.1907652 -0.0384,-0.6914118 -0.42252,-1.325208 -1.24838,-1.3444141 z"
         style="fill:#ebebeb;fill-opacity:1;stroke:none;stroke-width:0.264583px;stroke-linecap:butt;stroke-linejoin:miter;stroke-opacity:1" />
      <path
         style="fill:#d88721;fill-opacity:1;stroke:none;stroke-width:0.264583px;stroke-linecap:butt;stroke-linejoin:miter;stroke-opacity:1"
         d="m 92.578439,0.69416356 c 0.04738,-1.2794001 -0.07108,-1.32678539 1.682174,-1.32678539 1.753252,0 1.776945,0.0473853 1.800637,1.37417068 0.02369,1.32678515 -0.165848,1.39786275 -1.776944,1.39786275 -1.611097,0 -1.72956,-0.1421553 -1.705867,-1.44524804 z"
         id="path1209"
         inkscape:connector-curvature="0" />
      <path
         id="path1211"
         style="fill:#acacac;fill-opacity:1;stroke:none;stroke-width:0.999999px;stroke-linecap:butt;stroke-linejoin:miter;stroke-opacity:1"
         d="m 110.7793,94.029297 c -1.71399,0.01189 -3.06601,0.05055 -3.68164,0.128906 -2.50731,0.492507 -2.8199,1.65761 -0.3125,1.478516 2.5073,-0.179093 15.49207,-0.13568 18.40234,0.177734 2.91024,0.313414 2.81917,-1.297468 0.71484,-1.476562 -1.57827,-0.13432 -9.98109,-0.344273 -15.12304,-0.308594 z m 33.51758,0.257812 c -4.64154,-0.01679 -9.32732,0.02884 -10.5586,0.185547 -2.50734,0.492507 -2.81991,1.655657 -0.3125,1.476563 2.5073,-0.179093 17.53504,-0.313414 20.44531,0 2.91024,0.313414 2.82113,-1.297469 0.7168,-1.476563 -1.05218,-0.08955 -5.64948,-0.168757 -10.29101,-0.185547 z"
         transform="matrix(0.26458333,0,0,0.26458333,72.297578,-25.154457)"
         inkscape:connector-curvature="0" />
      <path
         id="path1708"
         style="fill:#2b2979;fill-opacity:1;stroke:none;stroke-width:0.999999px;stroke-linecap:butt;stroke-linejoin:miter;stroke-opacity:1"
         d="m 0.71679688,116.5332 c 0.78117542,6.10214 3.53835872,31.47079 4.12304692,35.17383 0.6159343,3.90096 1.5404538,5.13281 5.4414062,5.13281 3.900949,0 9.212012,-0.25497 12.914062,-0.0371 3.702048,0.21778 6.170641,1.88774 8.638672,3.41211 2.468032,1.52439 3.267632,2.75913 5.445313,2.9043 2.177681,0.14517 10.815795,0.28906 12.703125,0.28906 1.887311,0 2.249028,-0.36204 2.466797,-2.39453 0.217776,-2.03251 2.54014,-3.19301 6.242187,-3.26562 3.412485,-0.0669 15.338369,0.15952 27.470703,0.0371 12.131665,0.12236 24.056451,-0.10397 27.468751,-0.0371 3.70205,0.0726 6.02449,1.23311 6.24219,3.26562 0.21777,2.03249 0.57949,2.39453 2.46679,2.39453 1.88735,0 10.52544,-0.14389 12.70313,-0.28906 2.17769,-0.14517 2.97728,-1.37991 5.44531,-2.9043 2.46803,-1.52437 4.93663,-3.19433 8.63867,-3.41211 3.70205,-0.21785 9.01314,0.0371 12.91407,0.0371 3.90096,0 4.82545,-1.23185 5.4414,-5.13281 0.57351,-3.63216 3.22132,-27.95786 4.0625,-34.67383 -10.06259,-0.0138 -164.7573153,-0.48159 -170.82812312,-0.5 z"
         transform="matrix(0.26458333,0,0,0.26458333,72.297578,-25.154457)"
         inkscape:connector-curvature="0" />
      <path
         id="path1713"
         style="fill:#d3ad2f;fill-opacity:1;stroke:none;stroke-width:0.999999px;stroke-linecap:butt;stroke-linejoin:miter;stroke-opacity:1"
         d="m 0.71679688,116.5332 c 0.25133701,1.96332 0.72577562,6.09862 1.24804692,10.6875 16.2757532,-0.0144 44.3462192,-0.15862 48.7871092,0.006 4.660944,0.17263 9.322101,3.10802 10.703125,4.31641 1.381017,1.20839 44.021302,1.38026 45.402342,0.17187 1.381,-1.20839 2.76078,-4.66136 8.80274,-4.83398 5.72566,-0.16359 48.22149,-0.31731 54.78906,-0.33398 0.38936,-3.40559 0.87935,-7.78629 1.0957,-9.51368 -10.06259,-0.0138 -164.7573154,-0.48159 -170.82812312,-0.5 z"
         transform="matrix(0.26458333,0,0,0.26458333,72.297578,-25.154457)"
         inkscape:connector-curvature="0" />
      <path
         id="path1718"
         style="fill:#264683;fill-opacity:1;stroke:none;stroke-width:0.999999px;stroke-linecap:butt;stroke-linejoin:miter;stroke-opacity:1"
         d="m 60.333984,116.70703 c -0.565096,1.2906 -0.704613,3.7378 -0.765625,10.11914 -0.06477,6.77464 1.709044,5.98146 3.417969,6.10352 1.708925,0.12207 40.586502,0.062 42.478512,-0.1211 1.89204,-0.1831 2.32032,-0.97805 2.32032,-1.77148 0,-0.78857 0.35917,-5.62381 -0.35547,-14.19141 -19.08821,-0.0559 -28.355584,-0.0826 -47.095706,-0.13867 z"
         transform="matrix(0.26458333,0,0,0.26458333,72.297578,-25.154457)"
         inkscape:connector-curvature="0" />
      <g
         id="g1748"
         style="fill:#d3ad2f;fill-opacity:1;stroke:none">
        <path
           inkscape:connector-curvature="0"
           id="path1727"
           d="m 73.781995,9.8092776 c 0.02284,-0.5252562 -0.02284,-0.6851174 0.57093,-0.7079536 0.593767,-0.022834 1.347394,-0.022834 1.804138,-0.022834 0.456743,0 0.639441,0.045672 1.096185,0.4795811 0.456743,0.433906 4.361902,4.1792049 4.955669,4.7958089 0.593767,0.616603 0.41107,0.890651 -0.548092,0.890651 -0.959162,0 -2.19237,0 -2.534928,0 -0.342558,0 -0.593767,-0.159861 -1.050511,-0.570931 -0.456743,-0.411073 -3.494089,-3.608277 -3.882321,-3.950835 -0.388233,-0.342559 -0.41107,-0.456745 -0.41107,-0.9134874 z"
           style="fill:#d3ad2f;fill-opacity:1;stroke:none;stroke-width:0.264583px;stroke-linecap:butt;stroke-linejoin:miter;stroke-opacity:1" />
        <path
           inkscape:connector-curvature="0"
           id="path1729"
           d="M 80.455719,9.6394045 C 80.029547,9.1980133 80.044768,9.0762494 80.653584,9.061028 c 0.608816,-0.015214 2.58747,-0.03044 3.104964,-0.015214 0.517494,0.015214 0.593596,0.2283037 1.065429,0.7001378 0.471833,0.4718322 4.748768,4.5052432 5.068397,4.9009722 0.319629,0.395732 0.243526,0.624039 -0.380511,0.639258 -0.624036,0.01521 -2.389604,-0.03044 -2.907098,-0.03044 -0.517494,0 -0.776241,-0.258746 -1.171972,-0.593595 -0.395731,-0.334849 -4.627005,-4.642226 -4.977074,-5.0227366 z"
           style="fill:#d3ad2f;fill-opacity:1;stroke:none;stroke-width:0.264583px;stroke-linecap:butt;stroke-linejoin:miter;stroke-opacity:1" />
        <path
           sodipodi:nodetypes="ccssscsssscc"
           inkscape:connector-curvature="0"
           id="path1731"
           d="m 90.378505,11.976017 c -0.688798,-0.710322 -0.516598,-0.83947 0.150674,-0.860997 0.667272,-0.02154 2.001817,0 2.475365,0 0.473548,0 0.710322,0.04305 0.947096,0.408974 0.236774,0.365925 0.495073,0.387448 0.753372,0.04305 0.258299,-0.3444 0.365923,-0.408975 0.774897,-0.430498 0.408973,-0.02154 1.980292,-0.02154 2.604514,-0.02154 0.624223,0 0.688797,0.172198 0.0861,0.817946 -0.602698,0.645747 -2.819763,3.121112 -3.185687,3.487036 -0.365923,0.365924 -0.947096,0.215249 -1.356069,-0.193723 -0.408974,-0.408974 -2.66909,-2.71214 -3.250262,-3.250263 z"
           style="fill:#d3ad2f;fill-opacity:1;stroke:none;stroke-width:0.264583px;stroke-linecap:butt;stroke-linejoin:miter;stroke-opacity:1" />
        <path
           style="fill:#d3ad2f;fill-opacity:1;stroke:none;stroke-width:0.264583px;stroke-linecap:butt;stroke-linejoin:miter;stroke-opacity:1"
           d="m 115.47634,9.8092776 c -0.0228,-0.5252562 0.0228,-0.6851174 -0.57093,-0.7079536 -0.59377,-0.022834 -1.3474,-0.022834 -1.80414,-0.022834 -0.45675,0 -0.63944,0.045672 -1.09619,0.4795811 -0.45674,0.433906 -4.3619,4.1792049 -4.95567,4.7958089 -0.59376,0.616603 -0.41107,0.890651 0.54809,0.890651 0.95917,0 2.19237,0 2.53493,0 0.34256,0 0.59377,-0.159861 1.05051,-0.570931 0.45675,-0.411073 3.49409,-3.608277 3.88232,-3.950835 0.38824,-0.342559 0.41107,-0.456745 0.41108,-0.9134874 z"
           id="path1733"
           inkscape:connector-curvature="0" />
        <path
           style="fill:#d3ad2f;fill-opacity:1;stroke:none;stroke-width:0.264583px;stroke-linecap:butt;stroke-linejoin:miter;stroke-opacity:1"
           d="m 108.80261,9.6394045 c 0.42617,-0.4413912 0.41095,-0.5631551 -0.19786,-0.5783765 -0.60882,-0.015214 -2.58747,-0.03044 -3.10497,-0.015214 -0.51749,0.015214 -0.59359,0.2283037 -1.06543,0.7001378 -0.47183,0.4718322 -4.748765,4.5052432 -5.068394,4.9009722 -0.319629,0.395732 -0.243526,0.624039 0.380511,0.639258 0.624033,0.01521 2.389603,-0.03044 2.907103,-0.03044 0.51749,0 0.77624,-0.258746 1.17197,-0.593595 0.39573,-0.334849 4.627,-4.642226 4.97707,-5.0227366 z"
           id="path1735"
           inkscape:connector-curvature="0" />
      </g>
      <g
         id="g1762">
        <path
           inkscape:connector-curvature="0"
           id="path1750"
           d="m 78.158686,-19.998853 c 0.03618,-0.596965 0.253257,-1.031121 0.976851,-1.08539 0.723593,-0.05427 2.731565,-0.10854 3.780776,-0.03618 1.049211,0.07236 1.284378,0.307527 1.302468,0.976851 0.01809,0.669324 0.180899,2.152691 -1.302468,2.568757 -1.483367,0.416066 -2.966733,0.180898 -3.708417,-0.03618 -0.741683,-0.217079 -1.10348,-0.940672 -1.04921,-2.387859 z"
           style="fill:#828282;fill-opacity:1;stroke:none;stroke-width:0.264583px;stroke-linecap:butt;stroke-linejoin:miter;stroke-opacity:1" />
        <path
           sodipodi:nodetypes="cccssscc"
           inkscape:connector-curvature="0"
           id="path1752"
           d="m 78.502393,-19.421325 c 0.09045,-0.814964 0.524605,-1.253541 1.284378,-1.261277 0.759773,-0.0077 1.881344,-0.0186 2.405949,-0.0059 0.524605,0.01275 1.374827,0.238707 1.374827,1.251738 0,1.013031 -0.759773,1.364474 -1.320558,1.388274 -0.560785,0.0238 -1.881343,0.01916 -2.460218,-0.01113 -0.578875,-0.03029 -1.284378,-0.22209 -1.284378,-1.36175 z"
           style="fill:#9d9d9d;fill-opacity:1;stroke:none;stroke-width:0.264583px;stroke-linecap:butt;stroke-linejoin:miter;stroke-opacity:1" />
        <path
           inkscape:connector-curvature="0"
           id="path1754"
           d="m 78.79183,-19.419978 c 0.05427,-0.615055 0.416066,-0.886402 0.940672,-0.904492 0.524605,-0.01809 0.994941,0.235168 0.976851,0.922582 -0.01809,0.687413 -0.524605,0.958761 -0.958762,0.958761 -0.434156,0 -0.958761,-0.289437 -0.958761,-0.976851 z"
           style="fill:#dddddd;fill-opacity:1;stroke:none;stroke-width:0.264583px;stroke-linecap:butt;stroke-linejoin:miter;stroke-opacity:1" />
        <path
           inkscape:connector-curvature="0"
           id="path1756"
           d="m 81.31353,-19.351107 c 0.01669,-0.56763 0.467459,-0.985004 0.918224,-1.001699 0.450765,-0.01669 0.951615,0.350594 0.985005,0.968309 0.03339,0.617714 -0.43407,0.934919 -0.884835,0.951614 -0.450764,0.0167 -1.001699,-0.383984 -1.018394,-0.918224 z"
           style="fill:#d23131;fill-opacity:1;stroke:none;stroke-width:0.244182px;stroke-linecap:butt;stroke-linejoin:miter;stroke-opacity:1" />
      </g>
      <g
         id="g1772"
         transform="matrix(-1,0,0,1,189.61195,0)">
        <path
           style="fill:#828282;fill-opacity:1;stroke:none;stroke-width:0.264583px;stroke-linecap:butt;stroke-linejoin:miter;stroke-opacity:1"
           d="m 78.158686,-19.998853 c 0.03618,-0.596965 0.253257,-1.031121 0.976851,-1.08539 0.723593,-0.05427 2.731565,-0.10854 3.780776,-0.03618 1.049211,0.07236 1.284378,0.307527 1.302468,0.976851 0.01809,0.669324 0.180899,2.152691 -1.302468,2.568757 -1.483367,0.416066 -2.966733,0.180898 -3.708417,-0.03618 -0.741683,-0.217079 -1.10348,-0.940672 -1.04921,-2.387859 z"
           id="path1764"
           inkscape:connector-curvature="0" />
        <path
           style="fill:#9d9d9d;fill-opacity:1;stroke:none;stroke-width:0.264583px;stroke-linecap:butt;stroke-linejoin:miter;stroke-opacity:1"
           d="m 78.502393,-19.421325 c 0.09045,-0.814964 0.524605,-1.253541 1.284378,-1.261277 0.759773,-0.0077 1.881344,-0.0186 2.405949,-0.0059 0.524605,0.01275 1.374827,0.238707 1.374827,1.251738 0,1.013031 -0.759773,1.364474 -1.320558,1.388274 -0.560785,0.0238 -1.881343,0.01916 -2.460218,-0.01113 -0.578875,-0.03029 -1.284378,-0.22209 -1.284378,-1.36175 z"
           id="path1766"
           inkscape:connector-curvature="0"
           sodipodi:nodetypes="cccssscc" />
        <path
           style="fill:#dddddd;fill-opacity:1;stroke:none;stroke-width:0.264583px;stroke-linecap:butt;stroke-linejoin:miter;stroke-opacity:1"
           d="m 78.79183,-19.419978 c 0.05427,-0.615055 0.416066,-0.886402 0.940672,-0.904492 0.524605,-0.01809 0.994941,0.235168 0.976851,0.922582 -0.01809,0.687413 -0.524605,0.958761 -0.958762,0.958761 -0.434156,0 -0.958761,-0.289437 -0.958761,-0.976851 z"
           id="path1768"
           inkscape:connector-curvature="0" />
        <path
           style="fill:#d23131;fill-opacity:1;stroke:none;stroke-width:0.244182px;stroke-linecap:butt;stroke-linejoin:miter;stroke-opacity:1"
           d="m 81.31353,-19.351107 c 0.01669,-0.56763 0.467459,-0.985004 0.918224,-1.001699 0.450765,-0.01669 0.951615,0.350594 0.985005,0.968309 0.03339,0.617714 -0.43407,0.934919 -0.884835,0.951614 -0.450764,0.0167 -1.001699,-0.383984 -1.018394,-0.918224 z"
           id="path1770"
           inkscape:connector-curvature="0" />
      </g>
    </g>
  </g>
</svg>
