<?xml version="1.0" encoding="UTF-8" standalone="no"?>
<svg
   inkscape:version="1.1 (c4e8f9e, 2021-05-24)"
   sodipodi:docname="siemens-707.svg"
   id="svg8"
   version="1.1"
   viewBox="0 0 726.45796 666.85126"
   height="666.85126mm"
   width="726.45795mm"
   xmlns:inkscape="http://www.inkscape.org/namespaces/inkscape"
   xmlns:sodipodi="http://sodipodi.sourceforge.net/DTD/sodipodi-0.dtd"
   xmlns="http://www.w3.org/2000/svg"
   xmlns:svg="http://www.w3.org/2000/svg"
   xmlns:rdf="http://www.w3.org/1999/02/22-rdf-syntax-ns#"
   xmlns:cc="http://creativecommons.org/ns#"
   xmlns:dc="http://purl.org/dc/elements/1.1/">
  <sodipodi:namedview
     inkscape:current-layer="svg8"
     inkscape:window-maximized="1"
     inkscape:window-y="25"
     inkscape:window-x="0"
     inkscape:cy="1526.8551"
     inkscape:cx="893.45483"
     inkscape:zoom="0.19419001"
     showgrid="false"
     id="namedview1633"
     inkscape:window-height="847"
     inkscape:window-width="1440"
     inkscape:pageshadow="2"
     inkscape:pageopacity="0"
     guidetolerance="10"
     gridtolerance="10"
     objecttolerance="10"
     borderopacity="1"
     bordercolor="#666666"
     pagecolor="#ffffff"
     inkscape:pagecheckerboard="0"
     inkscape:document-units="mm" />
  <defs
     id="defs2" />
  <metadata
     id="metadata5">
    <rdf:RDF>
      <cc:Work
         rdf:about="">
        <dc:format>image/svg+xml</dc:format>
        <dc:type
           rdf:resource="http://purl.org/dc/dcmitype/StillImage" />
      </cc:Work>
    </rdf:RDF>
  </metadata>
  <path
     sodipodi:nodetypes="cscccc"
     inkscape:connector-curvature="0"
     id="path5566"
     d="m 525.6549,666.60512 c -29.13012,0 -306.85361,0.0623 -315.42129,0.0623 -8.56768,0 -3.04629,-26.08384 -3.04629,-26.08384 l 40.7364,-91.40896 245.0232,0.53853 z"
     style="fill:#0c0c0c;fill-opacity:1;stroke:none;stroke-width:0.264583px;stroke-linecap:butt;stroke-linejoin:miter;stroke-opacity:1" />
  <g
     transform="matrix(1.339776,0,0,1.339776,281.58698,77.56003)"
     id="layer1">
    <path
       sodipodi:nodetypes="cssssssssssssssssccccc"
       inkscape:connector-curvature="0"
       id="path955"
       d="m -135.87057,342.82051 c 0.1591,13.84163 -0.79549,28.63782 2.38649,50.5935 3.18198,21.95565 6.36396,36.36246 7.31855,40.81722 0.9546,4.45479 3.50018,5.26903 7.31856,5.42815 3.81838,0.15909 62.048618,0.31819 67.935282,0 5.886664,-0.31821 5.886664,-1.69764 6.045764,-5.83421 0.159099,-4.13658 -0.318199,-19.56919 6.523058,-39.61567 6.84126,-20.04647 16.864498,-34.04719 27.365033,-35.31999 10.50053592,-1.27278 53.616371,-1.90918 75.253839,-2.22737 21.637466,-0.31822 63.639614,0.63637 73.662844,1.59099 10.02324,0.95459 16.06901,4.29567 21.95567,19.09188 5.88666,14.79619 13.20522,40.72379 13.52342,50.90612 0.3182,10.18233 0.95459,11.40825 6.04576,11.40825 5.09117,0 58.35074,0.1591 64.0783,0 5.72757,-0.15909 6.36396,-0.11777 7.95495,-6.95904 1.59099,-6.84126 7.29926,-49.51528 7.61746,-66.69796 0.31819,-17.1827 0.5352,-22.70456 0.3761,-26.04564 -0.1591,-3.34107 -22.11477,-1.11371 -22.11477,-1.11371 L 161.48551,320.86486 118.575,323.77499 -51.525,319.05 Z"
       style="fill:#cfcfcf;fill-opacity:1;stroke:none;stroke-width:0.264583px;stroke-linecap:butt;stroke-linejoin:miter;stroke-opacity:1" />
    <path
       inkscape:connector-curvature="0"
       id="path945"
       d="m 155.55086,321.58879 c 7.48355,8.01809 10.82442,13.09621 18.57523,18.97615 7.75082,5.87992 13.36348,5.34538 21.78247,5.47902 8.41899,0.13364 50.38031,-1.06908 54.52299,-1.06908 4.14267,0 -2.2718,-52.25121 -2.2718,-52.25121 0,0 -89.40165,12.56168 -92.60889,28.86512 z"
       style="fill:#565656;fill-opacity:1;stroke:none;stroke-width:0.264583px;stroke-linecap:butt;stroke-linejoin:miter;stroke-opacity:1" />
    <path
       inkscape:connector-curvature="0"
       id="path935"
       d="m -122.07536,347.24668 c 7.48355,-0.0668 45.629677,0.30763 56.401997,0.11864 10.772322,-0.189 15.40253,-3.1183 19.938245,-6.61459 4.535713,-3.49628 12.473213,-12.37871 13.890625,-14.07961 1.41741,-1.70088 1.511903,-2.17334 1.700893,-3.77976 0.188986,-1.60639 -33.16741,-14.74108 -33.16741,-14.74108 l -51.78274,-18.33184 -10.77232,2.07889 -0.37798,30.99403 z"
       style="fill:#565656;fill-opacity:1;stroke:none;stroke-width:0.264583px;stroke-linecap:butt;stroke-linejoin:miter;stroke-opacity:1" />
    <path
       inkscape:connector-curvature="0"
       id="path902"
       d="m 58.208333,-25.41369 c 64.633927,0.377976 135.693447,13.607142 171.979167,34.3958326 36.28572,20.7886894 24.56845,17.3869044 26.83631,80.1309514 2.26785,62.744046 2.12842,242.468806 2.40959,253.433036 0.0473,1.84264 0.0624,2.21682 -1.73694,2.30321 -2.2731,0.10914 -7.53219,0.12554 -9.40307,0.12554 -1.87089,0 -1.92213,-0.21147 -1.99642,-2.32297 -0.14574,-4.14228 -0.94355,-37.36656 -0.67628,-43.24648 0.26727,-5.87994 -3.4745,-5.61266 -8.28535,-3.47451 -4.81086,2.13816 -57.46295,20.57975 -82.85356,29.66691 -25.3906,9.08717 -42.49585,17.6398 -92.475251,18.97613 -49.9794,1.33636 -67.6191889,-10.69078 -94.88068,-20.31248 C -60.135642,314.6398 -110.38231,298.33633 -115.19317,297 c -4.81085,-1.33636 -5.34539,0 -5.34539,4.54358 0,4.54359 0.73499,37.75183 0.73499,42.82995 0,2.53906 0.13619,2.91549 -1.5535,2.92325 -2.96079,0.0136 -9.27134,-0.0688 -12.54495,0.0167 -1.43018,0.0374 -1.60363,-0.20044 -1.8709,-5.27856 -0.26727,-5.07812 -2.13815,-269.808595 -1.87088,-292.526503 0.26726,-22.71791 19.77794,-39.8231593 42.495848,-47.5739755 22.717911,-7.7508163 59.755526,-25.8311555 153.356285,-27.3481315 z"
       style="fill:#f8cb0f;fill-opacity:1;stroke:none;stroke-width:0.264583px;stroke-linecap:butt;stroke-linejoin:miter;stroke-opacity:1" />
    <path
       inkscape:connector-curvature="0"
       id="path904"
       d="m -112.78774,81.580759 c -0.53454,-19.243405 -1.06908,-21.916099 28.330571,-27.261492 29.399648,-5.34539 89.2680205,-14.967092 145.39462,-15.50163 56.126599,-0.534541 118.667669,8.552624 144.325539,13.363474 25.65788,4.810853 31.00327,6.949009 30.46873,31.537804 -0.53454,24.588795 0.53454,113.322275 0.53454,127.487565 0,14.16528 1.33635,24.05426 -25.92515,24.58879 -27.26149,0.53454 -77.50816,0.53454 -107.70961,0.80181 -30.201459,0.26727 -175.32881,1.06908 -191.364983,1.33635 -16.036167,0.26727 -23.786987,-2.93996 -24.321527,-18.44159 -0.53454,-15.50164 -0.26727,-121.607639 0.26727,-137.911081 z"
       style="fill:#272727;fill-opacity:1;stroke:none;stroke-width:0.264583px;stroke-linecap:butt;stroke-linejoin:miter;stroke-opacity:1" />
    <path
       inkscape:connector-curvature="0"
       id="path906"
       d="m -28.33057,71.691787 c -0.267268,-15.768901 1.069078,-14.432554 12.828937,-15.234364 11.7598596,-0.801806 144.592813,-1.336347 154.481783,-1.069078 9.88898,0.267272 10.69078,1.603619 10.95805,15.234364 0.26727,13.630746 0,14.432555 -8.01808,14.967093 -8.01809,0.53454 -151.541823,0.53454 -160.094448,0.801809 -8.552623,0.267269 -9.354432,-0.267269 -10.156242,-14.699824 z"
       style="fill:#4f4f4f;fill-opacity:1;stroke:none;stroke-width:0.264583px;stroke-linecap:butt;stroke-linejoin:miter;stroke-opacity:1" />
    <path
       inkscape:connector-curvature="0"
       id="path908"
       d="m -105.83873,104.56594 c 0.53454,-10.958051 2.93996,-11.22532 12.027128,-11.492592 9.087162,-0.267268 97.5533754,-1.870884 155.550863,-2.405424 57.997489,-0.534541 145.394619,1.069078 154.481789,0.801809 9.08716,-0.267269 11.49259,1.336347 11.75985,8.819897 0.26727,7.48354 0.53454,94.88068 0.80181,103.4333 0.26727,8.55263 -0.53454,11.75986 -14.96709,16.83798 -14.43255,5.07812 -24.05426,8.28536 -36.34866,8.28536 -12.29439,0 -107.442344,-0.80181 -133.10022,-0.26727 -25.657873,0.53454 -91.406177,1.60362 -98.889723,1.87088 -7.483546,0.26727 -11.49259,0 -27.796029,-4.81085 -16.303443,-4.81085 -22.717908,-7.48354 -22.985178,-15.23436 -0.26727,-7.75081 -1.06908,-93.54433 -0.53454,-105.83873 z"
       style="fill:#4f4f4f;fill-opacity:1;stroke:none;stroke-width:0.264583px;stroke-linecap:butt;stroke-linejoin:miter;stroke-opacity:1" />
    <path
       inkscape:connector-curvature="0"
       id="path910"
       d="m -59.868373,84.253455 c 13.630745,0 12.561667,-9.621702 12.027127,-13.898014 -0.534538,-4.276313 -2.138156,-10.156243 -11.759859,-10.958052 -9.621702,-0.80181 -14.432555,8.018086 -14.165283,13.363477 0.267269,5.34539 1.336347,11.759858 13.898015,11.492589 z"
       style="fill:#dedede;fill-opacity:1;stroke:none;stroke-width:0.264583px;stroke-linecap:butt;stroke-linejoin:miter;stroke-opacity:1" />
    <path
       inkscape:connector-curvature="0"
       id="path912"
       d="m 180.94147,82.649837 c 12.02713,0.267271 13.63074,-6.681737 13.63074,-12.294396 0,-5.612662 -4.00904,-12.02713 -12.82893,-12.294399 -8.8199,-0.267269 -13.09621,7.483546 -13.09621,13.096205 0,5.612662 3.4745,11.49259 12.2944,11.49259 z"
       style="fill:#dedede;fill-opacity:1;stroke:none;stroke-width:0.264583px;stroke-linecap:butt;stroke-linejoin:miter;stroke-opacity:1" />
    <path
       inkscape:connector-curvature="0"
       id="path933"
       d="m -113.85682,236.46345 c 0.13364,-5.61266 0.80181,-3.87541 5.47903,-0.80181 4.67721,3.0736 10.690778,4.00904 22.450639,3.60814 11.759858,-0.4009 151.809088,-0.53454 186.687761,-1.06908 34.87867,-0.53454 108.37779,-0.53454 117.46496,-0.80181 9.08716,-0.26727 12.02713,-1.73725 15.50163,-5.21175 3.4745,-3.47451 3.20723,-2.27179 3.34087,3.8754 0.13363,6.1472 0.4009,41.69405 0.4009,45.03492 0,3.34086 -0.53454,4.40994 -4.40994,5.61266 -3.87541,1.20271 -90.56201,31.83453 -109.08284,38.26012 -18.52083,6.42559 -37.797619,8.69344 -60.854167,9.07143 -23.056548,0.37798 -40.821428,-2.26785 -69.5476181,-11.71726 -28.7261899,-9.44941 -84.6666649,-29.10417 -94.8720249,-31.75 -10.20535,-2.64583 -11.71726,-4.53573 -11.71726,-11.3393 0,-6.80358 -0.92792,-33.38261 -0.84194,-42.77166 z"
       style="fill:#228bc9;fill-opacity:1;stroke:none;stroke-width:0.264583px;stroke-linecap:butt;stroke-linejoin:miter;stroke-opacity:1" />
    <path
       inkscape:connector-curvature="0"
       id="path937"
       d="m -117.92857,341.69569 c 0.18899,3.21278 0.0945,3.77976 4.44122,3.77976 4.34673,0 38.364583,0.28347 46.680059,-0.18899 8.315476,-0.47247 15.308035,-1.60639 20.032739,-6.04764 4.724702,-4.44121 6.047618,-5.19715 7.559522,-7.27604 1.511905,-2.07886 1.889881,-6.61458 -4.630209,-8.97691 -6.520087,-2.36236 -67.374251,-22.96205 -70.492561,-23.71802 -3.1183,-0.75594 -3.96875,-1.22841 -3.96875,2.64583 0,3.87427 0.0945,34.77382 0.37798,39.78201 z"
       style="fill:#3e3e3e;fill-opacity:1;stroke:none;stroke-width:0.264583px;stroke-linecap:butt;stroke-linejoin:miter;stroke-opacity:1" />
    <path
       inkscape:connector-curvature="0"
       id="path939"
       d="m -116.03869,339.52232 c -0.0945,3.0238 0.37798,3.1183 4.06324,3.3073 3.68527,0.18899 36.663694,0.85045 44.69569,0.47246 8.031993,-0.37798 14.174105,-1.7009 17.670386,-4.63021 3.49628,-2.9293 6.425594,-5.66965 7.74851,-7.55951 1.322917,-1.88989 1.322917,-5.57517 -5.858629,-7.65403 -7.181548,-2.07888 -61.988097,-20.88317 -65.106397,-21.54463 -3.1183,-0.66146 -3.2128,-0.47249 -3.30729,2.64584 -0.0945,3.1183 0,31.4665 0.0945,34.96278 z"
       style="fill:#737373;fill-opacity:1;stroke:none;stroke-width:0.264583px;stroke-linecap:butt;stroke-linejoin:miter;stroke-opacity:1" />
    <path
       inkscape:connector-curvature="0"
       id="path941"
       d="m -113.48735,323.26934 c 0.47247,-8.31548 5.95313,-11.62277 12.37872,-11.71726 6.425596,-0.0945 13.040179,4.5357 12.945684,13.70164 -0.09449,9.16593 -6.047619,11.71725 -12.756694,11.71725 -6.70908,0 -12.47322,-2.36235 -12.56771,-13.70163 z"
       style="fill:#dbdbdb;fill-opacity:1;stroke:none;stroke-width:0.264583px;stroke-linecap:butt;stroke-linejoin:miter;stroke-opacity:1" />
    <path
       inkscape:connector-curvature="0"
       style="fill:#838383;fill-opacity:1;stroke:none;stroke-width:0.264583px;stroke-linecap:butt;stroke-linejoin:miter;stroke-opacity:1"
       d="m -86.273064,328.93898 c 0.47247,-8.31548 5.95313,-11.62277 12.37872,-11.71726 6.425596,-0.0945 13.040179,4.5357 12.945684,13.70164 -0.09449,9.16593 -6.047619,11.71725 -12.756694,11.71725 -6.70908,0 -12.47322,-2.36235 -12.56771,-13.70163 z"
       id="path943" />
    <path
       inkscape:connector-curvature="0"
       id="path947"
       d="m 167.9789,332.21276 c -3.34087,-4.14269 -3.87541,-8.41899 2.07134,-10.69078 5.94674,-2.27179 68.28736,-23.98744 70.7596,-24.98971 2.47225,-1.00227 3.00678,-0.93543 3.14042,2.60588 0.13363,3.54132 0.26727,38.0859 0.33409,40.82542 0.0668,2.73952 0,3.27406 -2.6727,3.4077 -2.67269,0.13362 -47.03944,0.60135 -52.71891,0.4009 -5.67948,-0.20045 -13.29666,-2.00454 -20.91384,-11.55941 z"
       style="fill:#3e3e3e;fill-opacity:1;stroke:none;stroke-width:0.264583px;stroke-linecap:butt;stroke-linejoin:miter;stroke-opacity:1" />
    <path
       inkscape:connector-curvature="0"
       id="path949"
       d="m 170.38432,332.21276 c -3.67495,-4.67722 -3.87541,-6.88218 1.67044,-9.08717 5.54584,-2.20498 61.53881,-22.04974 65.28058,-23.11881 3.74177,-1.06908 4.34313,-0.86863 4.54358,3.40767 0.20045,4.27633 0.26727,31.80509 0.26727,34.54461 0,2.7395 -0.53454,3.00678 -2.93997,3.14042 -2.40542,0.13361 -43.63174,0.66815 -49.57849,0.33406 -5.94675,-0.33406 -12.82894,-2.07131 -19.24341,-9.22078 z"
       style="fill:#737373;fill-opacity:1;stroke:none;stroke-width:0.264583px;stroke-linecap:butt;stroke-linejoin:miter;stroke-opacity:1" />
    <path
       inkscape:connector-curvature="0"
       id="path951"
       d="m 198.64807,340.03038 c 9.55552,-0.0764 12.96258,-3.94221 13.02939,-12.89574 0.0668,-8.95353 -7.61715,-12.1593 -13.63074,-12.02714 -6.08039,0.13363 -11.82667,6.61493 -11.75986,13.69756 0.0668,7.08266 5.21198,11.28251 12.36121,11.22532 z"
       style="fill:#838383;fill-opacity:1;stroke:none;stroke-width:0.264583px;stroke-linecap:butt;stroke-linejoin:miter;stroke-opacity:1" />
    <path
       inkscape:connector-curvature="0"
       style="fill:#dbdbdb;fill-opacity:1;stroke:none;stroke-width:0.264583px;stroke-linecap:butt;stroke-linejoin:miter;stroke-opacity:1"
       d="m 226.0432,334.41772 c 9.55552,-0.0764 12.96258,-3.94221 13.02939,-12.89574 0.0668,-8.95353 -7.61715,-12.1593 -13.63074,-12.02714 -6.08039,0.13363 -11.82667,6.61493 -11.75986,13.69756 0.0668,7.08266 5.21198,11.28251 12.36121,11.22532 z"
       id="path953" />
  </g>
  <g
     transform="matrix(0.79130939,0,0,0.79130939,-36.599071,-89.412152)"
     id="g5564">
    <path
       style="fill:#161616;fill-opacity:1;stroke:none;stroke-width:0.264583px;stroke-linecap:butt;stroke-linejoin:miter;stroke-opacity:1"
       d="m 560.91417,847.08711 c 11.4317,0 12.57485,0 12.38433,-8.00217 -0.19053,-8.00216 -0.95263,-24.00652 -1.33369,-26.86444 -0.38105,-2.85792 0,-6.0969 -11.24116,-6.0969 H 448.31219 c -9.71693,0 -9.71693,3.62003 -10.09798,12.38433 -0.38105,8.76429 -1.14316,16.57662 -0.95263,21.53036 0.19052,4.95371 -1.14319,8.00216 10.2885,8.00216 11.43167,0 113.36409,-0.95334 113.36409,-0.95334 z"
       id="path5550"
       inkscape:connector-curvature="0"
       sodipodi:nodetypes="csssssssc" />
    <path
       style="fill:#363636;fill-opacity:1;stroke:none;stroke-width:0.264583px;stroke-linecap:butt;stroke-linejoin:miter;stroke-opacity:1"
       d="m 447.2823,850.10579 c -0.13873,-9.43348 0,-10.50843 9.96953,-11.04733 9.96955,-0.53888 92.42038,-1.61669 98.88712,-1.34724 6.46673,0.26946 7.54451,1.34724 7.81396,10.23901 0.26945,8.89175 0.80833,49.57826 0.80833,55.23666 0,5.65838 -1.34723,8.08342 -9.43065,8.6223 -8.08339,0.5389 -90.2648,1.34723 -97.80931,1.07781 -7.54452,-0.26946 -9.43065,0.26942 -9.43065,-6.46674 0,-6.73618 -0.67758,-47.42366 -0.80833,-56.31447 z"
       id="path4512"
       inkscape:connector-curvature="0"
       sodipodi:nodetypes="sssssssss" />
    <path
       style="fill:#292929;fill-opacity:1;stroke:none;stroke-width:0.264583px;stroke-linecap:butt;stroke-linejoin:miter;stroke-opacity:1"
       d="m 479.81256,849.56398 c 13.52748,0 24.70536,12.82864 24.70536,25.40349 0,12.57485 -4.19161,26.22957 -22.67281,26.22957 -18.48122,0 -25.91181,-11.34684 -25.91181,-25.4459 0,-14.09906 11.1139,-26.18716 23.87926,-26.18716 z"
       id="path4514"
       inkscape:connector-curvature="0"
       sodipodi:nodetypes="sssss" />
    <path
       style="fill:#121212;fill-opacity:1;stroke:none;stroke-width:0.264583px;stroke-linecap:butt;stroke-linejoin:miter;stroke-opacity:1"
       d="m 506.61374,875.28523 c 0,-13.71798 8.00216,-26.67389 22.86333,-26.67389 14.8612,0 27.62655,10.09799 27.62655,25.91179 0,15.81382 -11.24114,24.95915 -24.38757,24.95915 -13.14644,0 -26.10231,-4.76319 -26.10231,-24.19705 z"
       id="path4882"
       inkscape:connector-curvature="0" />
    <path
       style="fill:#1d1d1d;fill-opacity:1;stroke:none;stroke-width:0.264583px;stroke-linecap:butt;stroke-linejoin:miter;stroke-opacity:1"
       d="m 446.47394,817.50269 c 0,-15.35848 -0.26945,-18.32242 7.54452,-18.32242 7.81397,0 94.30652,0 100.23435,0 5.92783,0 8.15528,-0.31072 8.15528,14.12534 0,14.43606 -0.88022,15.78332 -6.26914,15.78332 -5.38896,0 -95.11485,0 -102.12049,0 -7.00561,0 -7.54452,-1.07781 -7.54452,-11.58624 z"
       id="path5548"
       inkscape:connector-curvature="0" />
  </g>
  <style
     type="text/css"
     id="style1270">
	.st0{fill:#F67DB4;}
	.st1{fill:#1B1C20;}
</style>
  <path
     class="st0"
     d="m 387.53112,409.48087 c -9.56199,0 -18.18863,3.99719 -24.30281,10.40974 -6.11418,-6.41255 -14.74082,-10.40974 -24.30281,-10.40974 -18.54146,0 -33.57117,15.02971 -33.57117,33.57117 0,30.85505 57.87398,69.46295 57.87398,69.46295 0,0 57.87398,-38.61026 57.87398,-69.46295 0,-18.54146 -15.03208,-33.57117 -33.57117,-33.57117 z"
     id="path1272"
     style="stroke-width:0.2368"
     sodipodi:nodetypes="scsscss" />
  <path
     class="st1"
     d="m 254.50596,428.67169 c -45.14176,-4.52312 -89.65506,-4.97038 -132.30361,-1.32573 -40.524604,3.46344 -80.739562,10.73897 -119.5232701,21.62703 -1.95191504,0.54819 -3.08957704,2.5735 -2.54138204,4.52541 0.454143,1.61934 1.92668304,2.67901 3.53225204,2.67901 0.32799,0 0.662868,-0.0436 0.993164,-0.13762 C 84.207667,433.71089 165.69038,427.1464 253.77428,435.97475 c 2.01614,0.20184 3.81438,-1.2684 4.01852,-3.28454 0.20185,-2.01614 -1.27069,-3.81667 -3.28684,-4.01852 z m -2.53221,30.16637 c 2.0276,0.0367 3.6997,-1.57575 3.73639,-3.60106 0.0367,-2.0253 -1.57575,-3.69968 -3.60106,-3.73638 -45.35967,-0.83719 -89.76058,2.33954 -131.97333,9.44304 -40.109448,6.74798 -79.597312,17.27364 -117.3672091,31.27879 -1.90146004,0.70416 -2.86939304,2.81663 -2.16523204,4.71808 0.54818504,1.47942 1.94961904,2.39459 3.44050504,2.39459 0.424329,0 0.855545,-0.0734 1.275282,-0.22936 C 82.78559,470.37523 163.46552,457.20497 251.97375,458.83806 Z m 0.53442,13.72763 c -45.2335,3.48867 -89.12981,10.87888 -130.47326,21.97107 -39.283725,10.53942 -77.590347,24.77625 -113.8556031,42.31595 -1.825764,0.88305 -2.589552,3.07809 -1.706489,4.90156 0.633055,1.30969 1.942742,2.07349 3.307473,2.07349 0.5367191,0 1.0803201,-0.11698 1.5963961,-0.36699 74.374622,-35.97394 153.435213,-56.77066 241.695733,-63.57598 2.02072,-0.15596 3.53226,-1.91979 3.37628,-3.94053 -0.15596,-2.02301 -1.92209,-3.53455 -3.94053,-3.37857 z m 471.26941,-23.59041 c -38.78371,-10.88806 -78.99867,-18.16359 -119.52327,-21.62703 -42.64854,-3.64465 -87.16185,-3.19968 -132.30361,1.32574 -2.01614,0.20185 -3.48868,2.00008 -3.28454,4.01851 0.20184,2.01615 2.00237,3.48868 4.01851,3.28454 88.08391,-8.82834 169.56891,-2.26385 249.11117,20.06504 0.33258,0.094 0.66517,0.13762 0.99317,0.13762 1.60327,0 3.07581,-1.05967 3.53225,-2.679 0.5459,-1.95192 -0.59176,-3.97723 -2.54368,-4.52542 z m -0.0917,43.24487 c -37.7699,-14.00744 -77.25777,-24.53081 -117.36722,-31.27879 -42.21045,-7.1012 -86.61365,-10.27793 -131.97332,-9.44304 -2.0276,0.0367 -3.64006,1.71108 -3.60106,3.73639 0.0367,2.02531 1.71108,3.63776 3.73638,3.60106 88.50823,-1.63309 169.19046,11.53946 246.65236,40.2654 0.41974,0.15597 0.85096,0.22937 1.27529,0.22937 1.49088,0 2.89232,-0.91517 3.4405,-2.3946 0.70875,-1.89915 -0.26148,-4.00933 -2.16293,-4.71579 z m -5.40848,44.63256 c -36.26296,-17.5397 -74.56958,-31.77881 -113.8556,-42.31595 -41.34344,-11.08989 -85.23976,-18.4824 -130.47326,-21.97107 -2.01844,-0.15598 -3.78457,1.35556 -3.94053,3.37628 -0.15598,2.02073 1.35556,3.78456 3.37628,3.94054 88.26281,6.80531 167.32111,27.60203 241.69573,63.57597 0.51608,0.24771 1.05968,0.36698 1.5964,0.36698 1.36473,0 2.67212,-0.7638 3.30747,-2.07348 0.88077,-1.82347 0.11698,-4.01622 -1.70649,-4.89927 z"
     id="path1488"
     style="stroke-width:0.229367"
     sodipodi:nodetypes="ccccscccccsccccsccccccsccccccccccsccccccccscccccsccscc" />
  <g
     id="g5083"
     transform="translate(151.71755,411.38561)">
    <g
       id="g4946"
       transform="matrix(0.72068815,0,0,0.72068815,-11.556314,-68.434621)">
      <path
         style="fill:#cda4be;fill-opacity:1;stroke:none;stroke-width:0.264583px;stroke-linecap:butt;stroke-linejoin:miter;stroke-opacity:1"
         d="m -30.283988,-277.57173 c 47.625745,-68.29999 151.117478,-99.21218 193.787848,-99.65269 l -7.7768,-12.44465 -53.53977,-49.05502 -104.9122843,-24.52494 -40.1665197,78.10274 -0.538083,79.436 z"
         id="path1626"
         sodipodi:nodetypes="cccccccc" />
      <path
         class="st1"
         d="m -9.7391992,-475.866 c 0,0 -67.4572868,109.07973 -30.1375678,181.65431 2.974211,5.78267 6.180487,11.3309 9.592778,16.63996 -25.124506,-71.98731 35.2737653,-169.65326 35.2737653,-169.65326 0,0 114.5734337,7.68654 158.5140837,70.00056 -2.33248,-5.86081 -4.98227,-11.70031 -7.95412,-17.4806 C 118.22766,-467.27962 -9.7391992,-475.866 -9.7391992,-475.866 Z"
         id="path1274"
         style="fill:#f4eeed;fill-opacity:1;stroke-width:0.2368"
         sodipodi:nodetypes="ccccccc" />
      <path
         class="st0"
         d="m 22.766243,-427.28897 c -6.347183,-0.41405 -10.572679,6.4339 -7.337194,11.91 1.718106,2.90824 5.089711,4.39713 8.398534,3.72126 10.434717,-2.13313 37.751721,-2.24072 92.118267,29.36407 -24.891222,-35.80368 -70.043628,-43.48693 -93.179607,-44.99533 z"
         id="path1387"
         style="stroke-width:0.184075"
         sodipodi:nodetypes="ccccc" />
    </g>
    <g
       id="g5073"
       transform="matrix(-0.72068815,0,0,0.72068815,434.57919,-68.434616)">
      <path
         style="fill:#cda4be;fill-opacity:1;stroke:none;stroke-width:0.264583px;stroke-linecap:butt;stroke-linejoin:miter;stroke-opacity:1"
         d="m -30.283988,-277.57173 c 47.625745,-68.29999 151.117478,-99.21218 193.787848,-99.65269 l -7.7768,-12.44465 -53.53977,-49.05502 -104.9122843,-24.52494 -40.1665197,78.10274 -0.538083,79.436 z"
         id="path5067"
         sodipodi:nodetypes="cccccccc" />
      <path
         class="st1"
         d="m -9.7391992,-475.866 c 0,0 -67.4572868,109.07973 -30.1375678,181.65431 2.974211,5.78267 6.180487,11.3309 9.592778,16.63996 -25.124506,-71.98731 35.2737653,-169.65326 35.2737653,-169.65326 0,0 114.5734337,7.68654 158.5140837,70.00056 -2.33248,-5.86081 -4.98227,-11.70031 -7.95412,-17.4806 C 118.22766,-467.27962 -9.7391992,-475.866 -9.7391992,-475.866 Z"
         id="path5069"
         style="fill:#f4eeed;fill-opacity:1;stroke-width:0.2368"
         sodipodi:nodetypes="ccccccc" />
      <path
         class="st0"
         d="m 22.766243,-427.28897 c -6.347183,-0.41405 -10.572679,6.4339 -7.337194,11.91 1.718106,2.90824 5.089711,4.39713 8.398534,3.72126 10.434717,-2.13313 37.751721,-2.24072 92.118267,29.36407 -24.891222,-35.80368 -70.043628,-43.48693 -93.179607,-44.99533 z"
         id="path5071"
         style="stroke-width:0.184075"
         sodipodi:nodetypes="ccccc" />
    </g>
  </g>
</svg>
