<?xml version="1.0" encoding="UTF-8" standalone="no"?>
<svg
   xmlns:dc="http://purl.org/dc/elements/1.1/"
   xmlns:cc="http://creativecommons.org/ns#"
   xmlns:rdf="http://www.w3.org/1999/02/22-rdf-syntax-ns#"
   xmlns:svg="http://www.w3.org/2000/svg"
   xmlns="http://www.w3.org/2000/svg"
   xmlns:sodipodi="http://sodipodi.sourceforge.net/DTD/sodipodi-0.dtd"
   xmlns:inkscape="http://www.inkscape.org/namespaces/inkscape"
   inkscape:version="1.1-dev (ddb55ca, 2020-02-02)"
   sodipodi:docname="xpt.svg"
   viewBox="0 0 225.28334 291.57818"
   height="291.57819"
   width="225.28334"
   id="svg891"
   version="1.1">
  <metadata
     id="metadata897">
    <rdf:RDF>
      <cc:Work
         rdf:about="">
        <dc:format>image/svg+xml</dc:format>
        <dc:type
           rdf:resource="http://purl.org/dc/dcmitype/StillImage" />
        <dc:title></dc:title>
      </cc:Work>
    </rdf:RDF>
  </metadata>
  <defs
     id="defs895" />
  <sodipodi:namedview
     inkscape:snap-global="false"
     inkscape:current-layer="g899"
     inkscape:window-maximized="1"
     inkscape:window-y="203"
     inkscape:window-x="1920"
     inkscape:cy="145.78909"
     inkscape:cx="112.64167"
     inkscape:zoom="2.2806919"
     showgrid="false"
     id="namedview893"
     inkscape:window-height="855"
     inkscape:window-width="1440"
     inkscape:pageshadow="2"
     inkscape:pageopacity="0"
     guidetolerance="10"
     gridtolerance="10"
     objecttolerance="10"
     borderopacity="1"
     bordercolor="#666666"
     pagecolor="#ffffff" />
  <g
     transform="translate(-42.396351,-110.07227)"
     id="g899"
     inkscape:label="Image"
     inkscape:groupmode="layer">
    <path
       inkscape:connector-curvature="0"
       id="path1815"
       d="m 42.706391,277.49412 0.310041,14.88195 H 266.55561 l 0.62008,-11.4715 -12.40162,-32.86429 -200.286141,2.48032 z"
       style="fill:#425586;stroke:none;stroke-width:1px;stroke-linecap:butt;stroke-linejoin:miter;stroke-opacity:1;fill-opacity:1" />
    <path
       id="path991"
       style="fill:#101010;fill-opacity:1;stroke:none;stroke-width:1px;stroke-linecap:butt;stroke-linejoin:miter;stroke-opacity:1"
       d="m 43.543878,301.19141 c 2.761278,24.6391 1.514508,26.23017 6.621094,34.94141 5.106587,8.71123 6.910157,15.92085 6.910157,30.03906 0,14.1182 -0.90225,17.42383 8.109374,17.42383 8.057816,0 71.254747,-0.21883 89.710937,-0.26953 0.0578,1.5e-4 0.22649,-1.6e-4 0.28516,0 18.45619,0.0507 81.65312,0.26953 89.71093,0.26953 9.01163,0 8.10938,-3.30563 8.10938,-17.42383 0,-14.11821 1.80357,-21.32783 6.91015,-30.03906 5.10659,-8.71124 3.85982,-10.30231 6.6211,-34.94141 l -111.49414,5.56641 z"
       inkscape:connector-curvature="0" />
    <path
       id="path923"
       style="fill:#42517b;fill-opacity:1;stroke:none;stroke-width:1px;stroke-linecap:butt;stroke-linejoin:miter;stroke-opacity:1"
       d="m 82.305597,123.85157 c -5.155021,2.10641 -9.35904,4.3269 -12.210937,6.5664 -1.425987,1.11978 -2.679177,2.1559 -3.835938,3.15625 l -12.1875,128.96485 100.966798,-12.6211 100.9668,12.6211 -12.1875,-128.96485 c -1.15677,-1.00035 -2.40996,-2.03647 -3.83594,-3.15625 -2.8519,-2.2395 -7.05592,-4.45999 -12.21094,-6.5664 l -14.11914,95.73242 -58.61328,6.35742 -58.613282,-6.35742 z"
       inkscape:connector-curvature="0" />
    <path
       id="path929"
       style="fill:#f4bc48;fill-opacity:1;stroke:none;stroke-width:1px;stroke-linecap:butt;stroke-linejoin:miter;stroke-opacity:1"
       d="m 154.89544,110.07227 v 0.008 c -26.21445,0.43727 -58.200445,7.14446 -75.785155,15.1543 0.682886,27.65688 4.799349,84.16499 5.90039,94.34961 1.20155,11.11433 -2.36e-4,16.21993 14.71875,17.12109 13.873465,0.8494 42.899535,0.37876 55.308595,0.32031 12.40906,0.0585 41.43512,0.52909 55.30859,-0.32031 14.71899,-0.90116 13.5172,-6.00676 14.71875,-17.12109 1.10104,-10.18462 5.21751,-66.69273 5.90039,-94.34961 -17.58468,-8.00983 -49.57072,-14.71702 -75.78515,-15.1543 v -0.008 c -0.0469,7e-4 -0.0956,0.003 -0.14258,0.004 -0.047,-7.5e-4 -0.0957,-0.003 -0.14258,-0.004 z"
       inkscape:connector-curvature="0" />
    <path
       id="path934"
       style="fill:#383838;fill-opacity:1;stroke:none;stroke-width:1px;stroke-linecap:butt;stroke-linejoin:miter;stroke-opacity:1"
       d="m 106.84075,177.57227 c -8.071426,0 -17.204076,2.12383 -18.478512,13.59375 -1.274436,11.46993 -1.274906,24.63905 -1.0625,30.79883 0.212406,6.15977 3.185872,9.98192 12.744142,10.61914 9.09651,0.60642 43.10673,0.44682 54.85156,0.42969 0.0675,9e-5 0.21613,-1e-4 0.28516,0 11.74483,0.0171 45.75505,0.17673 54.85156,-0.42969 9.55827,-0.63722 12.53173,-4.45937 12.74414,-10.61914 0.21241,-6.15978 0.21194,-19.3289 -1.0625,-30.79883 -1.27444,-11.46992 -10.40709,-13.59375 -18.47852,-13.59375 h -48.05468 -0.28516 z"
       inkscape:connector-curvature="0" />
    <path
       id="path939"
       style="fill:#5f5f5f;fill-opacity:1;stroke:none;stroke-width:1px;stroke-linecap:butt;stroke-linejoin:miter;stroke-opacity:1"
       d="m 107.90325,182.24414 c -6.58459,0 -14.443341,1.27377 -15.292965,10.83204 -0.849624,9.55827 -1.274906,23.15225 -1.0625,28.25 0.212406,5.09774 3.61067,6.58494 13.593755,7.00976 9.57368,0.40739 40.08119,0.2321 49.7539,0.2168 0.0542,8e-5 0.2296,-9e-5 0.28516,0 9.67273,0.0153 40.18022,0.19059 49.7539,-0.2168 9.98308,-0.42482 13.38135,-1.91202 13.59375,-7.00976 0.21241,-5.09775 -0.21287,-18.69173 -1.0625,-28.25 -0.84962,-9.55827 -8.70838,-10.83204 -15.29297,-10.83204 h -46.99218 -0.28516 z"
       inkscape:connector-curvature="0" />
    <path
       id="path944"
       style="fill:#425586;fill-opacity:1;stroke:none;stroke-width:1px;stroke-linecap:butt;stroke-linejoin:miter;stroke-opacity:1"
       d="m 154.89635,238.75196 c -22.88361,0.0404 -55.778688,0.20508 -65.896483,0.20508 -10.395285,0 -20.753072,1.39666 -30.195313,14.20898 -1.022296,17.40993 -1.587153,32.05015 -1.451172,40.69531 12.833586,0.63784 31.12615,0.95899 42.904298,0.95899 h 54.63867 0.28516 54.63867 c 11.77871,0 30.07062,-0.32108 42.90429,-0.95899 0.13598,-8.64482 -0.42894,-23.28433 -1.45117,-40.69336 -9.44261,-12.81405 -19.79952,-14.21093 -30.19531,-14.21093 -10.11779,0 -43.01287,-0.16468 -65.89648,-0.20508 -0.099,-1.8e-4 -0.18651,1.7e-4 -0.28516,0 z m 97.82812,55.10937 c 1.97967,-0.0984 3.85062,-0.20286 5.5254,-0.3164 -1.67531,0.11358 -3.54503,0.218 -5.5254,0.3164 z m -195.371088,0 c -1.980365,-0.0984 -3.850088,-0.20282 -5.52539,-0.3164 1.675302,0.11358 3.545025,0.21798 5.52539,0.3164 z"
       inkscape:connector-curvature="0" />
    <path
       id="path951"
       style="fill:#3f4c74;fill-opacity:1;stroke:none;stroke-width:1px;stroke-linecap:butt;stroke-linejoin:miter;stroke-opacity:1"
       d="M 69.948175,130.53516 C 56.488536,141.13265 55.857097,145.354 54.37591,163.33985 c -1.486842,18.05451 -9.556626,67.54605 -10.40625,86.875 -0.64398,14.65054 -1.772609,26.36987 -1.542969,37.38281 1.913342,-6.30704 6.930603,-20.58016 15.136719,-32.71094 0.409978,-0.60606 0.824643,-1.15927 1.238281,-1.72265 2.27994,-38.76557 6.849012,-91.31947 11.146484,-122.62891 z m 170.179685,0 c 4.29747,31.30944 8.86655,83.86334 11.14649,122.62891 0.41363,0.56338 0.8283,1.11659 1.23828,1.72265 8.20611,12.13078 13.22337,26.4039 15.13672,32.71094 0.22964,-11.01294 -0.89899,-22.73227 -1.54297,-37.38281 -0.84963,-19.32895 -8.91941,-68.82049 -10.40625,-86.875 -1.48119,-17.98585 -2.11263,-22.2072 -15.57227,-32.80469 z"
       inkscape:connector-curvature="0" />
    <path
       id="path959"
       style="fill:#3f4f7b;fill-opacity:1;stroke:none;stroke-width:1px;stroke-linecap:butt;stroke-linejoin:miter;stroke-opacity:1"
       d="m 58.803644,253.16016 c -0.414485,0.56443 -0.829422,1.11927 -1.240234,1.72656 -8.206116,12.13078 -13.223377,26.4039 -15.136719,32.71094 0.0381,1.82719 0.11481,3.63724 0.236328,5.43555 1.472279,0.13371 4.184546,0.17413 9.164063,0.51172 1.675302,0.11358 3.545025,0.21797 5.52539,0.3164 -0.135997,-8.64617 0.428649,-23.28856 1.451172,-40.70117 z m 192.468746,0 c 1.02253,17.41261 1.58717,32.055 1.45117,40.70117 1.98037,-0.0984 3.85009,-0.20282 5.5254,-0.3164 4.97951,-0.33759 7.69178,-0.37801 9.16406,-0.51172 0.12152,-1.79831 0.19823,-3.60836 0.23633,-5.43555 -1.91335,-6.30704 -6.93061,-20.58016 -15.13672,-32.71094 -0.41081,-0.60729 -0.82575,-1.16213 -1.24024,-1.72656 z"
       inkscape:connector-curvature="0" />
    <path
       id="path964"
       style="fill:#162233;fill-opacity:1;stroke:none;stroke-width:1px;stroke-linecap:butt;stroke-linejoin:miter;stroke-opacity:1"
       d="m 42.457941,288.69532 c 0.09223,3.13683 0.293759,6.22561 0.662109,9.31054 1.699248,14.2312 0.424005,15.50488 18.478516,15.92969 17.427002,0.41004 80.640494,0.80995 93.296874,0.83789 v 0.002 c 0.0252,-5e-5 0.1169,6e-5 0.14258,0 0.0257,6e-5 0.11733,-5e-5 0.14258,0 v -0.002 c 12.65637,-0.0279 75.86987,-0.42785 93.29687,-0.83789 18.05451,-0.42481 16.77927,-1.69849 18.47852,-15.92969 0.36835,-3.08493 0.56988,-6.17371 0.66211,-9.31054 l -112.58008,0.54883 z"
       inkscape:connector-curvature="0" />
    <path
       sodipodi:nodetypes="cssssc"
       inkscape:connector-curvature="0"
       id="path975"
       d="m 51.402256,194.77632 c 1.911654,-8.70865 3.18609,-11.68233 8.921052,-11.68233 5.734963,0 11.469925,-1.48685 10.832707,13.59398 -0.637218,15.08083 -1.699248,28.46241 -10.620301,33.13534 -8.921052,4.67293 -13.136754,2.5693 -12.744361,-3.6109 0.424812,-6.6908 2.336467,-24.6391 3.610903,-31.43609 z"
       style="fill:#3e3e3e;fill-opacity:1;stroke:none;stroke-width:1px;stroke-linecap:butt;stroke-linejoin:miter;stroke-opacity:1" />
    <path
       sodipodi:nodetypes="sssssss"
       inkscape:connector-curvature="0"
       id="path977"
       d="m 52.451683,197.41923 c 0.810705,-4.97233 2.413549,-11.0497 5.378037,-11.77079 3.754478,-0.91326 9.945628,-0.81215 11.060491,3.34858 1.356809,5.06367 0.913252,22.72982 -2.333865,30.13731 -3.247116,7.40748 -8.523681,10.45165 -12.379632,10.65459 -3.855951,0.20295 -4.566258,-2.23239 -4.566258,-4.46478 0,-2.2324 2.129846,-23.54177 2.841227,-27.90491 z"
       style="fill:#4f4f4f;fill-opacity:1;stroke:none;stroke-width:0.955457px;stroke-linecap:butt;stroke-linejoin:miter;stroke-opacity:1" />
    <path
       id="path979"
       style="fill:#1b2a3f;fill-opacity:1;stroke:none;stroke-width:1px;stroke-linecap:butt;stroke-linejoin:miter;stroke-opacity:1"
       d="m 130.3681,295.6836 c -4.35562,0 -3.60352,1.05262 -3.60352,8.41211 0,7.35949 -0.15074,7.05859 2.55274,7.05859 h 25.57812 0.28516 25.57812 c 2.70348,0 2.55274,0.3009 2.55274,-7.05859 0,-7.35949 0.7521,-8.41211 -3.60352,-8.41211 h -24.52734 -0.28516 z"
       inkscape:connector-curvature="0" />
    <path
       inkscape:connector-curvature="0"
       id="path985"
       d="m 98.977671,297.48631 c 4.205429,0 6.458329,2.4031 6.458329,6.15794 0,3.75484 -1.95252,6.60852 -6.458329,6.75872 -4.505812,0.15019 -5.707362,-2.70349 -5.707362,-5.70736 0,-3.00388 1.051356,-7.05911 5.707362,-7.2093 z"
       style="fill:#c5c5c5;fill-opacity:1;stroke:none;stroke-width:1px;stroke-linecap:butt;stroke-linejoin:miter;stroke-opacity:1" />
    <path
       inkscape:connector-curvature="0"
       id="path987"
       d="m 115.94956,297.78669 c 4.20543,0.1502 6.15795,3.30426 6.30814,6.15795 0.15019,2.85368 -2.10271,6.15794 -6.30814,6.30813 -4.20542,0.1502 -5.70736,-4.20542 -5.70736,-6.15794 0,-1.95252 0.60078,-6.00775 5.70736,-6.30814 z"
       style="fill:#c5c5c5;fill-opacity:1;stroke:none;stroke-width:1px;stroke-linecap:butt;stroke-linejoin:miter;stroke-opacity:1" />
    <path
       inkscape:connector-curvature="0"
       id="path989"
       d="m 82.155972,297.18592 c 5.106587,0.1502 6.608525,3.45446 6.458331,6.45833 -0.150194,3.00388 -1.802325,6.30814 -6.157943,6.45833 -4.355618,0.1502 -6.007749,-2.85368 -6.007749,-6.30813 0,-3.45446 1.952518,-6.75872 5.707361,-6.60853 z"
       style="fill:#c06c14;fill-opacity:1;stroke:none;stroke-width:1px;stroke-linecap:butt;stroke-linejoin:miter;stroke-opacity:1" />
    <path
       id="path993"
       style="fill:#1f1e1c;fill-opacity:1;stroke:none;stroke-width:1px;stroke-linecap:butt;stroke-linejoin:miter;stroke-opacity:1"
       d="m 70.608332,369.6543 c -5.43917,-0.0842 -5.532175,1.84458 -4.97461,10.76563 0.637219,12.31955 1.699146,12.95653 5.947266,13.59375 6.333111,0.94997 8.285156,1.48726 8.285156,3.61132 0,2.12406 -0.425869,2.76074 4.671875,3.18555 4.898491,0.40821 50.197181,0.80667 70.357421,0.83789 v 0.002 c 0.038,-5e-5 0.1044,6e-5 0.14258,0 0.0382,6e-5 0.10458,-5e-5 0.14258,0 v -0.002 c 20.16024,-0.0312 65.45893,-0.42968 70.35742,-0.83789 5.09774,-0.42481 4.67187,-1.06149 4.67187,-3.18555 0,-2.12406 1.95205,-2.66135 8.28516,-3.61132 4.24812,-0.63722 5.31005,-1.2742 5.94727,-13.59375 0.55756,-8.92105 0.46456,-10.84983 -4.97461,-10.76563 -0.77703,0.012 -1.66295,0.0648 -2.67188,0.14453 -8.07143,0.63722 -33.98649,2.97461 -52.89062,2.97461 0,0 -19.14974,0 -28.72461,0 -9.66992,0 -19.33985,0 -29.00977,0 -18.90413,0 -44.819194,-2.33739 -52.890623,-2.97461 -1.008929,-0.0797 -1.894851,-0.1325 -2.671875,-0.14453 z"
       inkscape:connector-curvature="0"
       sodipodi:nodetypes="scssscccccssscscsscss" />
    <g
       transform="matrix(-1,0,0,1,310.07513,0)"
       id="g1053">
      <path
         sodipodi:nodetypes="cssssc"
         inkscape:connector-curvature="0"
         id="path1039"
         d="m 51.402256,194.77632 c 1.911654,-8.70865 3.18609,-11.68233 8.921052,-11.68233 5.734963,0 11.469925,-1.48685 10.832707,13.59398 -0.637218,15.08083 -1.699248,28.46241 -10.620301,33.13534 -8.921052,4.67293 -13.136754,2.5693 -12.744361,-3.6109 0.424812,-6.6908 2.336467,-24.6391 3.610903,-31.43609 z"
         style="fill:#3e3e3e;fill-opacity:1;stroke:none;stroke-width:1px;stroke-linecap:butt;stroke-linejoin:miter;stroke-opacity:1" />
      <path
         sodipodi:nodetypes="sssssss"
         inkscape:connector-curvature="0"
         id="path1041"
         d="m 52.50715,197.2 c 0.810705,-4.97233 2.413549,-11.0497 5.378037,-11.77079 3.754478,-0.91326 9.945628,-0.81215 11.060492,3.34858 1.356808,5.06367 0.913251,22.72982 -2.333865,30.13731 -3.247117,7.40748 -8.523682,10.45165 -12.379633,10.65459 -3.855951,0.20295 -4.566258,-2.23239 -4.566258,-4.46478 0,-2.2324 2.129846,-23.54177 2.841227,-27.90491 z"
         style="fill:#4f4f4f;fill-opacity:1;stroke:none;stroke-width:0.955457px;stroke-linecap:butt;stroke-linejoin:miter;stroke-opacity:1" />
      <path
         inkscape:connector-curvature="0"
         id="path1045"
         d="m 98.977671,297.48631 c 4.205429,0 6.458329,2.4031 6.458329,6.15794 0,3.75484 -1.95252,6.60852 -6.458329,6.75872 -4.505812,0.15019 -5.707362,-2.70349 -5.707362,-5.70736 0,-3.00388 1.051356,-7.05911 5.707362,-7.2093 z"
         style="fill:#c5c5c5;fill-opacity:1;stroke:none;stroke-width:1px;stroke-linecap:butt;stroke-linejoin:miter;stroke-opacity:1" />
      <path
         inkscape:connector-curvature="0"
         id="path1047"
         d="m 115.94956,297.78669 c 4.20543,0.1502 6.15795,3.30426 6.30814,6.15795 0.15019,2.85368 -2.10271,6.15794 -6.30814,6.30813 -4.20542,0.1502 -5.70736,-4.20542 -5.70736,-6.15794 0,-1.95252 0.60078,-6.00775 5.70736,-6.30814 z"
         style="fill:#c5c5c5;fill-opacity:1;stroke:none;stroke-width:1px;stroke-linecap:butt;stroke-linejoin:miter;stroke-opacity:1" />
      <path
         inkscape:connector-curvature="0"
         id="path1049"
         d="m 82.155972,297.18592 c 5.106587,0.1502 6.608525,3.45446 6.458331,6.45833 -0.150194,3.00388 -1.802325,6.30814 -6.157943,6.45833 -4.355618,0.1502 -6.007749,-2.85368 -6.007749,-6.30813 0,-3.45446 1.952518,-6.75872 5.707361,-6.60853 z"
         style="fill:#c06c14;fill-opacity:1;stroke:none;stroke-width:1px;stroke-linecap:butt;stroke-linejoin:miter;stroke-opacity:1" />
    </g>
    <g
       transform="translate(0.09952246)"
       id="g1099">
      <path
         style="fill:#d1a345;fill-opacity:1;stroke:none;stroke-width:1px;stroke-linecap:butt;stroke-linejoin:miter;stroke-opacity:1"
         d="m 120.34599,145.66818 c -8.56104,0 -7.50969,-1.05135 -7.2093,-8.41084 0.30039,-7.3595 0.90116,-9.46221 1.20155,-12.61628 0.30039,-3.15407 1.95252,-4.20542 6.75872,-4.8062 4.8062,-0.60077 24.18119,-1.95252 33.34301,-1.95252 9.16181,0 26.2839,0.30039 32.74223,1.20155 6.45833,0.90117 7.81007,2.10272 8.56104,7.50969 0.75097,5.40697 1.20155,12.61627 1.20155,15.16957 0,2.55329 -1.20155,3.45445 -5.10658,3.45445 -3.90504,0 -64.58331,0.45058 -71.49222,0.45058 z"
         id="path1066"
         inkscape:connector-curvature="0"
         sodipodi:nodetypes="ssssssssss" />
      <g
         id="g1074">
        <path
           sodipodi:nodetypes="ssssssss"
           inkscape:connector-curvature="0"
           id="path1068"
           d="m 125.45258,124.14959 c -4.6536,0.47486 -5.70737,1.20155 -6.00775,8.41084 -0.30039,7.2093 0,8.11046 3.45445,8.41084 3.45446,0.30039 9.91279,0.15021 12.46608,1e-5 2.5533,-0.15019 4.65601,-0.45058 4.8062,-4.05523 0.15019,-3.60465 0.15019,-7.0591 0.15019,-9.4622 0,-2.4031 -2.40309,-3.30426 -4.95639,-3.45446 -2.55329,-0.15019 -7.20671,-0.12593 -9.91278,0.1502 z"
           style="fill:#7e6136;fill-opacity:1;stroke:none;stroke-width:1px;stroke-linecap:butt;stroke-linejoin:miter;stroke-opacity:1" />
        <path
           sodipodi:nodetypes="csssc"
           inkscape:connector-curvature="0"
           id="path1070"
           d="m 129.7331,136.58146 c 4.43071,0.0751 4.95639,-3.15406 4.95639,-4.5809 0,-1.42685 -1.80232,-5.1066 -4.88129,-5.1066 -3.07898,0 -4.80621,1.57704 -4.8813,4.80621 -0.0751,3.22916 2.328,4.95639 4.8062,4.88129 z"
           style="fill:#505050;fill-opacity:1;stroke:none;stroke-width:1px;stroke-linecap:butt;stroke-linejoin:miter;stroke-opacity:1" />
      </g>
      <path
         sodipodi:nodetypes="ssssssscs"
         inkscape:connector-curvature="0"
         id="path1076"
         d="m 148.18603,124.14566 c -2.64018,0.24066 -3.32541,1.36632 -3.48002,2.81457 -0.16387,1.53498 -0.24045,6.69903 -0.30121,10.3046 -0.0321,1.90341 0.19377,3.2935 3.65568,3.54104 3.46191,0.24756 9.92397,0.29914 12.47353,0.11002 2.54957,-0.1891 4.64483,-0.52146 4.70559,-4.12704 0.0608,-3.60558 -0.0249,-7.05872 -0.0846,-9.46091 -0.0596,-2.40219 -2.48507,-3.26633 -5.0421,-3.37751 -3.31697,0.0282 -8.6901,-0.0998 -11.92687,0.19523 z"
         style="fill:#7e6136;fill-opacity:1;stroke:none;stroke-width:1px;stroke-linecap:butt;stroke-linejoin:miter;stroke-opacity:1" />
      <path
         sodipodi:nodetypes="csssc"
         inkscape:connector-curvature="0"
         id="path1078"
         d="m 154.25733,126.89631 c 4.42434,-0.0751 5.22384,3.15406 5.34483,4.5809 0.12099,1.42685 -1.36933,5.1066 -4.4483,5.1066 -3.07899,-1e-5 -4.93992,-1.57704 -5.28884,-4.80621 -0.34892,-3.22916 1.90774,-4.95639 4.39231,-4.88129 z"
         style="fill:#505050;fill-opacity:1;stroke:none;stroke-width:1px;stroke-linecap:butt;stroke-linejoin:miter;stroke-opacity:1" />
      <g
         id="g1088"
         transform="matrix(-1,0,0,1,309.91168,0)">
        <path
           style="fill:#7e6136;fill-opacity:1;stroke:none;stroke-width:1px;stroke-linecap:butt;stroke-linejoin:miter;stroke-opacity:1"
           d="m 125.45258,124.14959 c -4.6536,0.47486 -5.70737,1.20155 -6.00775,8.41084 -0.30039,7.2093 0,8.11046 3.45445,8.41084 3.45446,0.30039 9.91279,0.15021 12.46608,1e-5 2.5533,-0.15019 4.65601,-0.45058 4.8062,-4.05523 0.15019,-3.60465 0.15019,-7.0591 0.15019,-9.4622 0,-2.4031 -2.40309,-3.30426 -4.95639,-3.45446 -2.55329,-0.15019 -7.20671,-0.12593 -9.91278,0.1502 z"
           id="path1084"
           inkscape:connector-curvature="0"
           sodipodi:nodetypes="ssssssss" />
        <path
           style="fill:#505050;fill-opacity:1;stroke:none;stroke-width:1px;stroke-linecap:butt;stroke-linejoin:miter;stroke-opacity:1"
           d="m 129.7331,136.58146 c 4.43071,0.0751 4.95639,-3.15406 4.95639,-4.5809 0,-1.42685 -1.80232,-5.1066 -4.88129,-5.1066 -3.07898,0 -4.80621,1.57704 -4.8813,4.80621 -0.0751,3.22916 2.328,4.95639 4.8062,4.88129 z"
           id="path1086"
           inkscape:connector-curvature="0"
           sodipodi:nodetypes="csssc" />
      </g>
    </g>
  </g>
</svg>
