<?xml version="1.0" encoding="UTF-8" standalone="no"?>
<!-- Created with Inkscape (http://www.inkscape.org/) -->

<svg
   width="144.38062mm"
   height="182.65102mm"
   viewBox="0 0 144.38062 182.65102"
   version="1.1"
   id="svg1607"
   inkscape:version="1.1 (c4e8f9e, 2021-05-24)"
   sodipodi:docname="xtrapolis-2.svg"
   xmlns:inkscape="http://www.inkscape.org/namespaces/inkscape"
   xmlns:sodipodi="http://sodipodi.sourceforge.net/DTD/sodipodi-0.dtd"
   xmlns="http://www.w3.org/2000/svg"
   xmlns:svg="http://www.w3.org/2000/svg">
  <sodipodi:namedview
     id="namedview1609"
     pagecolor="#ffffff"
     bordercolor="#999999"
     borderopacity="1"
     inkscape:pageshadow="0"
     inkscape:pageopacity="0"
     inkscape:pagecheckerboard="0"
     inkscape:document-units="mm"
     showgrid="false"
     inkscape:zoom="0.40756353"
     inkscape:cx="273.57698"
     inkscape:cy="337.37071"
     inkscape:window-width="1440"
     inkscape:window-height="847"
     inkscape:window-x="0"
     inkscape:window-y="25"
     inkscape:window-maximized="1"
     inkscape:current-layer="layer1"
     inkscape:snap-global="true" />
  <defs
     id="defs1604" />
  <g
     inkscape:label="Layer 1"
     inkscape:groupmode="layer"
     id="layer1"
     transform="translate(6.0884031,62.750225)">
    <path
       id="path1839"
       style="fill:#21809e;fill-opacity:1;stroke:none;stroke-width:0.999999px;stroke-linecap:butt;stroke-linejoin:miter;stroke-opacity:1"
       d="m 249.83398,-237.16602 c -111.2549,3.87478 -191.566617,-0.3208 -222.843746,25.54297 -31.8968659,26.37626 -30.0575132,51.52589 -35.5781246,128.814456 -5.5206124,77.2885624 -13.4941404,194.447164 -13.4941404,274.802734 0,80.35557 -2.453726,166.84652 0.613281,192.60938 3.067006,25.76284 12.2671966,46.6182 44.164062,51.52539 31.896869,4.90722 33.123351,12.26687 51.525391,15.94726 18.402036,3.68043 19.016409,-1.22567 34.964847,-25.76172 15.94844,-24.53605 28.8302,-25.14988 68.08789,-27.60351 28.76303,-1.7977 55.77547,-2.59884 72.56054,-2.66211 16.78508,0.0633 43.79752,0.86441 72.56055,2.66211 39.25769,2.45363 52.13946,3.06746 68.08789,27.60351 15.94844,24.53605 16.56282,29.44215 34.96485,25.76172 18.40202,-3.68039 19.62852,-11.04004 51.52539,-15.94726 31.89687,-4.90719 41.09705,-25.76255 44.16406,-51.52539 3.06701,-25.76286 0.61328,-112.25381 0.61328,-192.60938 0,-80.35557 -7.97354,-197.5141716 -13.49414,-274.802734 -5.52061,-77.288566 -3.68126,-102.438196 -35.57813,-128.814456 -31.2771,-25.86377 -111.58884,-21.66819 -222.84375,-25.54297 z"
       transform="scale(0.26458333)" />
    <path
       id="path5233"
       style="fill:#266e88;fill-opacity:1;stroke:none;stroke-width:0.264583px;stroke-linecap:butt;stroke-linejoin:miter;stroke-opacity:1"
       d="m 2.7993123,80.165648 c -2.88478789,-0.01855 -4.1942268,2.085091 -4.7500976,4.642093 -0.5738022,2.639494 -1.3770994,12.164738 -1.6066201,19.509409 -0.06637,2.12382 -0.1405795,3.53721 -0.153996,4.66793 1.6754883,3.2579 4.57961048,5.61712 9.7162026,6.40736 8.4393798,1.29837 8.7638868,3.24561 13.6327598,4.21938 3.036329,0.60727 4.242725,0.32899 5.743835,-1.53944 1.802496,-7.60434 1.76642,-23.128176 1.640727,-27.024708 -0.162295,-5.031168 -0.181464,-7.574923 -3.813721,-8.439279 -3.761581,-0.895131 -17.0412501,-2.272181 -20.1248693,-2.434477 -0.096363,-0.0051 -0.1911628,-0.0077 -0.2842204,-0.0083 z" />
    <path
       id="path1957"
       style="fill:#f9ab08;fill-opacity:1;stroke:none;stroke-width:0.999999px;stroke-linecap:butt;stroke-linejoin:miter;stroke-opacity:1"
       d="m 249.83398,-237.16602 c -111.32234,0 -191.566617,-0.3208 -222.843746,25.54297 -5.090278,4.20927 -9.242303,8.40781 -12.78125,12.77149 -0.752775,4.59626 -1.379814,10.70111 -1.941406,19.125 -3.067006,46.0051 -14.1076618,207.943911 -12.88085925,264.990232 1.2268026,57.046318 0.61298673031,66.245708 22.08203125,98.142578 21.469045,31.89687 43.551683,57.04754 58.886719,73.60937 15.335028,16.56184 38.031501,22.69472 76.675781,25.76172 28.03327,2.22488 67.81117,3.1448 92.80273,3.02149 24.99157,0.12331 64.76947,-0.79661 92.80274,-3.02149 38.64427,-3.067 61.34076,-9.19988 76.67578,-25.76172 15.33506,-16.56183 37.41768,-41.7125 58.88672,-73.60937 21.46904,-31.89687 20.85523,-41.09626 22.08203,-98.142578 1.22683,-57.046321 -9.81385,-218.985132 -12.88086,-264.990232 -0.56156,-8.42389 -1.18864,-14.52874 -1.94141,-19.125 -3.53896,-4.36368 -7.69094,-8.56222 -12.78125,-12.77149 -31.2771,-25.86377 -111.5214,-25.54297 -222.84375,-25.54297 z"
       transform="scale(0.26458333)"
       sodipodi:nodetypes="sscssssscsssssccs" />
    <path
       id="path2333"
       style="fill:#161616;fill-opacity:1;stroke:none;stroke-width:0.999999px;stroke-linecap:butt;stroke-linejoin:miter;stroke-opacity:1"
       d="m 249.83398,-220.9082 c -29.85237,0 -128.57629,2.22254 -170.091792,4.99023 -46.0051,3.06701 -56.433473,12.26911 -57.046876,34.35156 -0.613399,22.08244 -1.839843,107.958977 -1.839843,177.8867225 0,69.9277455 3.068152,110.4120875 14.109375,140.4687475 11.041225,30.05666 28.214788,65.02012 48.457031,92.00977 20.242245,26.98966 39.259275,35.57777 111.640625,37.41797 24.97841,0.63504 41.6135,0.74776 54.77148,0.46093 13.15799,0.28683 29.79308,0.17411 54.77149,-0.46093 72.38135,-1.8402 91.39838,-10.42831 111.64062,-37.41797 20.24225,-26.98965 37.41579,-61.95311 48.45703,-92.00977 11.04121,-30.05666 14.10938,-70.541002 14.10938,-140.4687475 0,-69.9277455 -1.22646,-155.8042825 -1.83984,-177.8867225 -0.61342,-22.08245 -11.04179,-31.28455 -57.04688,-34.35156 -41.5155,-2.76769 -140.23942,-4.99023 -170.0918,-4.99023 z"
       transform="scale(0.26458333)"
       sodipodi:nodetypes="ssssssscsssssss" />
    <path
       id="path2821"
       style="fill:#1f1f1f;fill-opacity:1;stroke:none;stroke-width:0.999999px;stroke-linecap:butt;stroke-linejoin:miter;stroke-opacity:1"
       d="m 236.16992,-211.125 c -54.79486,0.11426 -179.240786,4.82642 -186.289061,5.53125 -8.674805,0.86748 -10.843456,3.47022 -11.710937,16.48242 -0.86748,13.01221 -6.072852,228.147269 -4.337891,266.316408 1.734961,38.169142 31.494771,89.026832 38.242188,101.601562 6.747413,12.57473 12.268682,11.34684 36.498051,5.51953 22.3125,-5.3663 99.44939,-10.94918 141.26171,-12.04492 41.81233,1.09574 118.9492,6.67862 141.26172,12.04492 24.22934,5.82731 29.75065,7.0552 36.49805,-5.51953 6.74744,-12.57473 36.50723,-63.43242 38.24219,-101.601562 1.73495,-38.169139 -3.47038,-253.304198 -4.33789,-266.316408 -0.86748,-13.0122 -3.03613,-15.61494 -11.71094,-16.48242 -7.04829,-0.70483 -131.4942,-5.41699 -186.28906,-5.53125 -5.29348,-0.011 -9.83929,0.0267 -13.66407,0.10938 -3.82478,-0.0826 -8.37058,-0.12042 -13.66406,-0.10938 z"
       transform="scale(0.26458333)" />
    <path
       style="fill:#44728d;fill-opacity:1;stroke:none;stroke-width:0.264583px;stroke-linecap:butt;stroke-linejoin:miter;stroke-opacity:1"
       d="m 2.4344364,53.314157 c 3.814508,0.04829 4.7877249,3.164767 4.6254292,6.248388 -0.1622959,3.083618 -2.3532885,6.00494 -4.4631334,6.086091 -2.10984492,0.08115 -4.874406,-1.46805 -5.1934643,-6.572981 -0.2434437,-3.895098 2.43464436,-5.794367 5.0311685,-5.761498 z"
       id="path2951"
       sodipodi:nodetypes="sssss" />
    <path
       id="path3199"
       style="fill:#1a1a1a;fill-opacity:1;stroke:none;stroke-width:0.264583px;stroke-linecap:butt;stroke-linejoin:miter;stroke-opacity:1"
       d="m 3.8710814,54.165685 c -0.046569,-2.2e-4 -0.094075,1.37e-4 -0.1415934,0.0011 -3.04115129,0.05738 -5.1066068,1.320186 -5.2787474,4.820377 -0.1721407,3.500194 2.52474898,4.991923 4.5330566,5.049303 0.9282467,0.02652 2.0279984,-0.27814 2.9651936,-0.890899 0.621647,-1.036072 1.0432717,-2.295068 1.1110434,-3.582728 C 7.1605848,57.652332 6.8250585,55.729285 5.6482339,54.531061 5.1516568,54.295452 4.5636346,54.168981 3.8710814,54.165708 Z" />
    <path
       id="path3317"
       style="fill:#ebebeb;fill-opacity:1;stroke:none;stroke-width:0.264583px;stroke-linecap:butt;stroke-linejoin:miter;stroke-opacity:1"
       d="m 3.098519,56.118021 c -2.98377139,0.229521 -3.55738635,2.352403 -3.61476656,3.614767 -0.0573802,1.262366 1.43412449,3.155899 4.18837476,3.098519 1.3660434,-0.02846 2.3366912,-0.522512 2.9682942,-1.167371 0.2327235,-0.668779 0.3816747,-1.380344 0.4196128,-2.101164 0.036381,-0.691243 0.014825,-1.383679 -0.082166,-2.043287 C 6.2690821,56.569921 4.945476,56.118021 3.098519,56.118021 Z" />
    <path
       style="fill:#306579;fill-opacity:1;stroke:none;stroke-width:0.264583px;stroke-linecap:butt;stroke-linejoin:miter;stroke-opacity:1"
       d="m 5.1068393,83.086553 c 4.4182765,0.17214 5.9101617,3.27067 5.5658807,7.229906 -0.344281,3.959235 -2.7542503,4.934699 -6.0823027,4.819938 -3.3280526,-0.11476 -6.369204,-2.811629 -5.9101623,-6.885625 0.45904178,-4.073996 2.63949,-5.27898 6.4265843,-5.164219 z"
       id="path4379" />
    <path
       style="fill:#565757;fill-opacity:1;stroke:none;stroke-width:0.264583px;stroke-linecap:butt;stroke-linejoin:miter;stroke-opacity:1"
       d="m 5.5085008,84.176776 c 4.8199382,0.401662 4.5904172,4.073996 4.5330372,5.565881 -0.05738,1.491885 -0.975464,3.901855 -4.6477978,4.016616 -3.6723337,0.11476 -5.16421934,-2.639491 -5.16421934,-4.762558 0,-2.123067 1.89354714,-4.705178 5.27897994,-4.819939 z"
       id="path4381" />
    <path
       id="path7195"
       style="fill:#333333;fill-opacity:0.193548;stroke:none;stroke-width:0.264583px;stroke-linecap:butt;stroke-linejoin:miter;stroke-opacity:1"
       d="m 2.7993123,80.165648 c -1.7965041,-0.01156 -2.98111902,0.800912 -3.75429276,2.032434 0.77423918,2.988606 1.95305837,4.883893 3.53725176,5.191932 2.0656879,0.401661 6.8282206,0.688544 10.7874547,0.05736 2.789423,-0.444691 8.281635,-2.28459 11.827185,-3.955315 C 24.696386,83.10105 24.050513,82.808786 23.208402,82.608391 19.446821,81.71326 6.1671519,80.33621 3.0835327,80.173914 c -0.096363,-0.0051 -0.1911628,-0.0077 -0.2842204,-0.0083 z" />
    <path
       style="fill:none;stroke:#3d3d3d;stroke-width:0.75;stroke-linecap:butt;stroke-linejoin:miter;stroke-miterlimit:4;stroke-dasharray:none;stroke-opacity:0.774193"
       d="M 4.2196898,80.255252 C 6.1672387,71.491281 7.7090486,65.242894 11.84759,56.965812"
       id="path9909" />
    <path
       style="fill:none;stroke:#191919;stroke-width:1.1;stroke-linecap:butt;stroke-linejoin:miter;stroke-miterlimit:4;stroke-dasharray:none;stroke-opacity:0.862903"
       d="M 6.7708655,70.348143 C 0.17214065,70.233383 -5.9675423,69.889102 -5.9675423,69.889102"
       id="path10076" />
    <path
       id="path11138"
       style="fill:#333333;fill-opacity:1;stroke:none;stroke-width:0.264583px;stroke-linecap:butt;stroke-linejoin:miter;stroke-opacity:1"
       d="m 54.429752,-46.680355 c -6.370108,0 -12.760523,0.06071 -13.77487,0.101285 -2.028698,0.08115 -2.434476,0.568227 -2.434476,4.30103 0,3.7328 0.405813,3.651424 2.272213,3.813722 1.77106,0.154004 15.410412,0.0888 25.609287,0.01241 v -8.104415 c -2.55711,-0.09253 -7.103842,-0.124023 -11.672154,-0.124023 z" />
    <path
       style="fill:#e30815;fill-opacity:1;stroke:none;stroke-width:0.264583px;stroke-linecap:butt;stroke-linejoin:miter;stroke-opacity:1"
       d="m 31.607098,-39.843609 c 2.921326,0 3.854524,-1.460661 3.976248,-3.773376 0.121722,-2.312715 -1.541428,-4.016823 -3.692228,-4.01682 -2.759029,4e-6 -3.48936,2.109845 -3.448786,3.895097 0.04057,1.785255 0.324591,3.773377 3.164766,3.895099 z"
       id="path11346"
       sodipodi:nodetypes="csssc" />
    <path
       style="fill:#e5e5e5;fill-opacity:1;stroke:none;stroke-width:0.264583px;stroke-linecap:butt;stroke-linejoin:miter;stroke-opacity:1"
       d="m 22.396815,-47.998969 c 4.097967,-0.04057 4.544282,2.47501 4.584856,4.381984 0.04057,1.906976 -2.35329,4.219688 -4.584856,4.300836 -2.231567,0.08115 -4.787725,-1.420087 -4.909447,-4.097967 -0.121722,-2.67788 1.54181,-4.625427 4.909447,-4.584853 z"
       id="path11843" />
    <path
       id="path2702"
       style="fill:#555555;fill-opacity:1;stroke:none;stroke-width:0.264583px;stroke-linecap:butt;stroke-linejoin:miter;stroke-opacity:1"
       d="m 45.545539,-35.96318 c -12.379775,0.01434 -24.946234,0.100751 -26.610261,0.158131 -3.328052,0.114761 -3.557405,1.836 -3.557405,3.557405 0,1.721406 -0.344242,46.707678 -0.114722,48.429085 0.229521,1.721406 0.114942,2.868598 2.524911,2.753837 2.271096,-0.108147 35.818917,-0.135279 48.313845,-0.135278 12.494927,1e-6 46.042753,0.02713 48.313853,0.135278 2.40996,0.114761 2.29539,-1.032431 2.52491,-2.753837 0.22952,-1.721407 -0.11472,-46.707679 -0.11472,-48.429085 -1e-5,-1.721405 -0.22936,-3.442644 -3.55741,-3.557405 -1.66403,-0.05738 -14.230488,-0.14379 -26.610265,-0.158131 -8.058571,-0.0093 -15.714459,0.01792 -20.556368,0.09715 -4.84191,-0.07923 -12.497798,-0.10649 -20.556368,-0.09715 z"
       sodipodi:nodetypes="ssssssssssccs" />
    <path
       id="path12447"
       style="fill:#266e88;fill-opacity:1;stroke:none;stroke-width:0.264583px;stroke-linecap:butt;stroke-linejoin:miter;stroke-opacity:1"
       d="m 129.4045,80.165648 c 2.88479,-0.01855 4.19422,2.085091 4.7501,4.642093 0.5738,2.639494 1.37709,12.164738 1.60662,19.509409 0.0664,2.12382 0.14057,3.53721 0.15399,4.66793 -1.67549,3.2579 -4.57961,5.61712 -9.7162,6.40736 -8.43938,1.29837 -8.76389,3.24561 -13.63276,4.21938 -3.03633,0.60727 -4.24273,0.32899 -5.74384,-1.53944 -1.80249,-7.60434 -1.76642,-23.128176 -1.64072,-27.024708 0.16229,-5.031168 0.18146,-7.574923 3.81372,-8.439279 3.76158,-0.895131 17.04125,-2.272181 20.12487,-2.434477 0.0964,-0.0051 0.19116,-0.0077 0.28422,-0.0083 z" />
    <path
       style="fill:#44728d;fill-opacity:1;stroke:none;stroke-width:0.264583px;stroke-linecap:butt;stroke-linejoin:miter;stroke-opacity:1"
       d="m 129.76937,53.314157 c -3.8145,0.04829 -4.78772,3.164767 -4.62543,6.248388 0.1623,3.083618 2.35329,6.00494 4.46314,6.086091 2.10984,0.08115 4.8744,-1.46805 5.19346,-6.572981 0.24345,-3.895098 -2.43464,-5.794367 -5.03117,-5.761498 z"
       id="path12455"
       sodipodi:nodetypes="sssss" />
    <path
       id="path12457"
       style="fill:#1a1a1a;fill-opacity:1;stroke:none;stroke-width:0.264583px;stroke-linecap:butt;stroke-linejoin:miter;stroke-opacity:1"
       d="m 128.33273,54.165685 c 0.0466,-2.2e-4 0.0941,1.37e-4 0.14159,0.0011 3.04115,0.05738 5.10661,1.320186 5.27875,4.820377 0.17214,3.500194 -2.52475,4.991923 -4.53306,5.049303 -0.92824,0.02652 -2.028,-0.27814 -2.96519,-0.890899 -0.62165,-1.036072 -1.04327,-2.295068 -1.11104,-3.582728 -0.10055,-1.910464 0.23497,-3.833511 1.4118,-5.031735 0.49657,-0.235609 1.0846,-0.36208 1.77715,-0.365353 z" />
    <path
       id="path12459"
       style="fill:#ebebeb;fill-opacity:1;stroke:none;stroke-width:0.264583px;stroke-linecap:butt;stroke-linejoin:miter;stroke-opacity:1"
       d="m 129.10529,56.118021 c 2.98377,0.229521 3.55739,2.352403 3.61477,3.614767 0.0574,1.262366 -1.43413,3.155899 -4.18838,3.098519 -1.36604,-0.02846 -2.33669,-0.522512 -2.96829,-1.167371 -0.23272,-0.668779 -0.38168,-1.380344 -0.41961,-2.101164 -0.0364,-0.691243 -0.0148,-1.383679 0.0822,-2.043287 0.70879,-0.949564 2.03239,-1.401464 3.87935,-1.401464 z" />
    <path
       style="fill:#306579;fill-opacity:1;stroke:none;stroke-width:0.264583px;stroke-linecap:butt;stroke-linejoin:miter;stroke-opacity:1"
       d="m 127.09697,83.086553 c -4.41828,0.17214 -5.91016,3.27067 -5.56588,7.229906 0.34428,3.959235 2.75425,4.934699 6.0823,4.819938 3.32806,-0.11476 6.36921,-2.811629 5.91017,-6.885625 -0.45905,-4.073996 -2.6395,-5.27898 -6.42659,-5.164219 z"
       id="path12461" />
    <path
       style="fill:#565757;fill-opacity:1;stroke:none;stroke-width:0.264583px;stroke-linecap:butt;stroke-linejoin:miter;stroke-opacity:1"
       d="m 126.69531,84.176776 c -4.81994,0.401662 -4.59042,4.073996 -4.53304,5.565881 0.0574,1.491885 0.97547,3.901855 4.6478,4.016616 3.67233,0.11476 5.16422,-2.639491 5.16422,-4.762558 0,-2.123067 -1.89355,-4.705178 -5.27898,-4.819939 z"
       id="path12463" />
    <path
       id="path12465"
       style="fill:#333333;fill-opacity:0.193548;stroke:none;stroke-width:0.264583px;stroke-linecap:butt;stroke-linejoin:miter;stroke-opacity:1"
       d="m 129.4045,80.165648 c 1.7965,-0.01156 2.98112,0.800912 3.75429,2.032434 -0.77424,2.988606 -1.95306,4.883893 -3.53725,5.191932 -2.06569,0.401661 -6.82822,0.688544 -10.78746,0.05736 -2.78942,-0.444691 -8.28163,-2.28459 -11.82718,-3.955315 0.50052,-0.391009 1.1464,-0.683273 1.98851,-0.883668 3.76158,-0.895131 17.04125,-2.272181 20.12487,-2.434477 0.0964,-0.0051 0.19116,-0.0077 0.28422,-0.0083 z" />
    <path
       style="fill:none;stroke:#3d3d3d;stroke-width:0.75;stroke-linecap:butt;stroke-linejoin:miter;stroke-miterlimit:4;stroke-dasharray:none;stroke-opacity:0.774193"
       d="m 127.98412,80.255252 c -1.94755,-8.763971 -3.48936,-15.012358 -7.6279,-23.28944"
       id="path12469" />
    <path
       style="fill:none;stroke:#191919;stroke-width:1.1;stroke-linecap:butt;stroke-linejoin:miter;stroke-miterlimit:4;stroke-dasharray:none;stroke-opacity:0.862903"
       d="m 125.43294,70.348143 c 6.59873,-0.11476 12.73841,-0.459041 12.73841,-0.459041"
       id="path12471" />
    <path
       id="path12473"
       style="fill:#333333;fill-opacity:1;stroke:none;stroke-width:0.264583px;stroke-linecap:butt;stroke-linejoin:miter;stroke-opacity:1"
       d="m 77.774058,-46.680355 c 6.370108,0 12.760523,0.06071 13.77487,0.101285 2.028698,0.08115 2.434476,0.568227 2.434476,4.30103 0,3.7328 -0.405813,3.651424 -2.272213,3.813722 -1.77106,0.154004 -15.410412,0.0888 -25.609287,0.01241 v -8.104415 c 2.55711,-0.09253 7.103842,-0.124023 11.672154,-0.124023 z" />
    <path
       style="fill:#e30815;fill-opacity:1;stroke:none;stroke-width:0.264583px;stroke-linecap:butt;stroke-linejoin:miter;stroke-opacity:1"
       d="m 100.59671,-39.843609 c -2.921324,0 -3.854522,-1.460661 -3.976246,-3.773376 -0.121722,-2.312715 1.541428,-4.016823 3.692226,-4.01682 2.75903,4e-6 3.48936,2.109845 3.44879,3.895097 -0.0406,1.785255 -0.32459,3.773377 -3.16477,3.895099 z"
       id="path12475"
       sodipodi:nodetypes="csssc" />
    <path
       style="fill:#e5e5e5;fill-opacity:1;stroke:none;stroke-width:0.264583px;stroke-linecap:butt;stroke-linejoin:miter;stroke-opacity:1"
       d="m 109.807,-47.998969 c -4.09797,-0.04057 -4.54429,2.47501 -4.58486,4.381984 -0.0406,1.906976 2.35329,4.219688 4.58486,4.300836 2.23156,0.08115 4.78772,-1.420087 4.90944,-4.097967 0.12172,-2.67788 -1.54181,-4.625427 -4.90944,-4.584853 z"
       id="path12477" />
  </g>
</svg>
