<?xml version="1.0" encoding="UTF-8" standalone="no"?>
<svg
   version="1.1"
   id="svg1286"
   width="3179.5386"
   height="1665.955"
   viewBox="0 0 3179.5385 1665.955"
   sodipodi:docname="xtrapolis-aboriginal.svg"
   inkscape:version="1.1 (c4e8f9e, 2021-05-24)"
   xmlns:inkscape="http://www.inkscape.org/namespaces/inkscape"
   xmlns:sodipodi="http://sodipodi.sourceforge.net/DTD/sodipodi-0.dtd"
   xmlns="http://www.w3.org/2000/svg"
   xmlns:svg="http://www.w3.org/2000/svg"
   xmlns:rdf="http://www.w3.org/1999/02/22-rdf-syntax-ns#"
   xmlns:cc="http://creativecommons.org/ns#"
   xmlns:dc="http://purl.org/dc/elements/1.1/">
  <sodipodi:namedview
     id="namedview847"
     pagecolor="#ffffff"
     bordercolor="#999999"
     borderopacity="1"
     inkscape:pageshadow="0"
     inkscape:pageopacity="0"
     inkscape:pagecheckerboard="0"
     showgrid="false"
     inkscape:snap-global="false"
     inkscape:zoom="0.19418292"
     inkscape:cx="1403.316"
     inkscape:cy="1078.8796"
     inkscape:window-width="1440"
     inkscape:window-height="847"
     inkscape:window-x="0"
     inkscape:window-y="25"
     inkscape:window-maximized="1"
     inkscape:current-layer="svg1286" />
  <metadata
     id="metadata1292">
    <rdf:RDF>
      <cc:Work
         rdf:about="">
        <dc:format>image/svg+xml</dc:format>
        <dc:type
           rdf:resource="http://purl.org/dc/dcmitype/StillImage" />
        <dc:title />
      </cc:Work>
    </rdf:RDF>
  </metadata>
  <defs
     id="defs1290" />
  <g
     id="g1377"
     transform="matrix(9.4304647,10.047905,-10.047905,9.4304647,2705.2768,-81.815469)">
    <path
       id="path6799"
       style="stroke-width:12.5"
       d="M 588.54492,0.00195313 C 398.73085,-0.16112663 298.00303,235.8791 93.599609,197.08789 c 7.275001,19.65 14.287501,39.4375 21.562501,59.125 7.3125,19.6625 14.25,39.4625 21.5625,59.125 0.002,10e-4 0.004,0.003 0.006,0.004 -0.006,-10e-4 -0.0117,-0.003 -0.0176,-0.004 7.2875,19.6625 14.25,39.4625 21.5625,59.125 C 338.57539,478.12539 572.025,159.3 697.875,181.6875 c -7.2875,-19.6625 -14.25,-39.45 -21.5625,-59.125 -0.96088,-0.1824 -1.91477,-0.34337 -2.87109,-0.51367 0.96413,0.1509 1.92156,0.31669 2.87109,0.50195 -7.2875,-19.6625 -14.23711,-39.46328 -21.53711,-59.11328 -7.3,-19.675 -14.25078,-39.475 -21.55078,-59.125 -15.4582,-2.9355469 -30.324,-4.29821311 -44.67969,-4.31054687 z"
       transform="scale(0.08)" />
    <path
       id="path6805"
       style="fill:#b62519;fill-opacity:1;stroke-width:12.5"
       d="m 653.19336,177.37695 c -189.8254,-0.15869 -290.56104,235.91201 -494.91797,197.08594 7.3,19.6625 14.23711,39.475 21.53711,59.125 0.007,0.006 0.0144,0.0115 0.0215,0.0176 -0.0111,-0.002 -0.0221,-0.004 -0.0332,-0.006 7.2625,19.675 14.2625,39.45 21.5625,59.125 7.2875,19.6625 14.2625,39.46328 21.5625,59.11328 219.8375,41.75 319.78672,-234.51367 539.57422,-192.76367 -7.25,-19.6625 -14.23789,-39.44922 -21.52539,-59.13672 -7.275,-19.675 -14.24961,-39.45078 -21.53711,-59.11328 -0.13079,-0.0248 -0.25992,-0.0457 -0.39062,-0.0703 0.13398,0.02 0.2687,0.0377 0.40234,0.0586 -7.3,-19.675 -14.28672,-39.4625 -21.57422,-59.125 -15.45908,-2.93555 -30.3251,-4.29854 -44.68164,-4.31055 z"
       transform="scale(0.08)" />
    <g
       fill="#3e4347"
       id="g6817">
      <circle
         cx="5.1680002"
         cy="13.336"
         r="2.168"
         id="circle6811" />
      <path
         d="M 7.04,14.49 4.48,15.419 22.186,64 h 2.896 z"
         id="path6813" />
      <path
         d="m 3.688,15.602 4.076,-1.48 0.37,1.017 -4.077,1.48 z"
         id="path6815" />
    </g>
    <path
       style="fill:#f8f552;fill-opacity:1;stroke:none;stroke-width:0.08px;stroke-linecap:butt;stroke-linejoin:miter;stroke-opacity:1"
       d="m 26.485548,28.710056 c -1.861767,-3.074047 0.486611,-8.202873 2.085476,-10.28835 1.598866,-2.085476 6.647543,-6.964786 10.913993,-3.614825 2.101495,1.650067 2.215595,6.282949 -2.085477,11.817699 -2.723929,3.505235 -7.927607,7.01643 -10.913992,2.085476 z"
       id="path8171"
       sodipodi:nodetypes="sssss" />
  </g>
  <path
     style="fill:#1f1f1f;fill-opacity:1;stroke:none;stroke-width:1px;stroke-linecap:butt;stroke-linejoin:miter;stroke-opacity:1"
     d="m 836.1039,1665.8138 c 46.465,0.8957 1243.6985,-2.8133 1272.8631,-1.5323 27.5749,1.2111 -6.9002,-140.6334 -6.9002,-140.6334 l -1305.87,4.3149 c 0,0 -7.921,136.9289 39.9071,137.8508 z"
     id="path1902" />
  <path
     style="fill:#e4ba09;fill-opacity:1;stroke:none;stroke-width:1px;stroke-linecap:butt;stroke-linejoin:miter;stroke-opacity:1"
     d="m 2082.3865,15.306602 c 156.1673,11.4246 210.0695,45.4925 241.4089,87.280198 29.584,39.447 30.876,57.992 32.5232,151.6634 1.8828,107.0718 6.6616,438.36865 12.1437,815.2835 5.1575,354.5929 9.0439,450.0484 -23.0601,528.5971 -28.2244,69.0565 -26.0953,68.9025 -66.0993,67.338 -39.5367,-1.5461 -149.0827,1.0096 -175.871,-1.479 -26.7883,-2.4886 -27.9531,-1.3308 -27.9531,-28.1191 0,-26.7883 18.6354,-89.5719 -114.1414,-91.5257 -132.7768,-1.9537 -956.7129,0.5215 -1004.4802,0.2376 -47.7673,-0.2839 -98.8288,9.2956 -98.8288,63.6514 0,54.3559 0.8235,57.6551 -15.6479,57.5572 -16.4715,-0.098 -130.29159,-1.2667 -160.9737,-0.8194 -28.17265,0.4107 -38.56845,2.5906 -49.86116,-16.0466 -32.16856,-53.0901 -56.08303,-116.7686 -60.94445,-234.2919 -3.65391,-88.3319 9.96931,-648.01054 10.88698,-765.02945 1.02438,-130.62771 6.02324,-333.76346 10.59589,-447.70497 C 595.94252,105.75365 657.07642,43.073502 775.671,24.012502 894.2656,4.9516018 1226.9893,-1.3068982 1483.9443,0.22010177 c 256.9549,1.52700003 456.7876,-0.5797 598.4422,15.08650023 z"
     id="path1858" />
  <path
     style="fill:#764d02;fill-opacity:1;stroke:none;stroke-width:1px;stroke-linecap:butt;stroke-linejoin:miter;stroke-opacity:1"
     d="m 2229.2784,336.5496 c 0,-84.0045 -1.6472,-131.7816 -74.1217,-145.3895 -72.4744,-13.6078 -437.3175,-17.4231 -617.6801,-20.1421 -180.3627,-2.719 -575.678,8.1089 -689.3311,16.4928 -113.65317,8.3839 -114.47675,54.4991 -119.41819,133.5328 -4.94144,79.0338 30.47222,-66.5284 30.47222,-66.5284 L 943.68,227.6101 l 1220.5361,3.1355 32.9429,40.5509 z"
     id="path1862" />
  <path
     style="fill:#2a2a2a;fill-opacity:1;stroke:none;stroke-width:1px;stroke-linecap:butt;stroke-linejoin:miter;stroke-opacity:1"
     d="m 2095.0359,209.7451 c 108.7231,3.5399 130.1246,18.892 135.066,139.163 4.9415,120.2711 8.2357,533.72466 0,637.44592 -8.2358,103.72138 -19.5168,155.31828 -80.0817,158.45248 -60.5648,3.1342 -91.9789,1.3823 -110.065,1.6754 -359.3752,5.8226 -592.4248,11.4246 -862.3803,4.0971 -35.4153,-0.9613 -282.4857,-4.1496 -357.4309,-4.595 -74.94522,-0.4453 -100.476,-36.8343 -102.12315,-133.2022 -1.64714,-96.36787 3.2943,-359.05851 4.94145,-448.81822 1.64714,-89.75968 2.47072,-213.29088 7.41216,-265.14668 4.94144,-51.8557 31.29584,-87.9364 164.71474,-87.967 133.4189,-0.031 1092.0684,-4.6172 1199.9467,-1.1048 z"
     id="path1860" />
  <path
     style="fill:#dca70a;fill-opacity:1;stroke:none;stroke-width:1px;stroke-linecap:butt;stroke-linejoin:miter;stroke-opacity:1"
     d="m 2369.8881,1459.877 c -292.2264,6.2998 -603.1106,15.554 -902.414,14.4355 -188.7756,-1.1218 -646.0802,-5.4992 -892.79887,-4.3789 9.14414,83.4736 30.15549,134.9015 56.8711,178.9922 11.29271,18.6372 21.68867,16.4576 49.86132,16.0469 30.68211,-0.4473 144.50115,0.7203 160.97265,0.8183 0.9585,0.01 1.8465,0 2.6914,-0.031 0.1334,0 0.2697,-0.01 0.4004,-0.012 0.2844,-0.012 0.5604,-0.028 0.832,-0.045 0.2394,-0.015 0.4715,-0.035 0.7012,-0.055 0.2149,-0.019 0.4321,-0.035 0.6387,-0.059 0.2932,-0.033 0.5707,-0.077 0.8476,-0.121 0.2539,-0.04 0.5017,-0.086 0.7422,-0.1368 0.2755,-0.058 0.5482,-0.1174 0.8067,-0.1894 0.15,-0.042 0.291,-0.092 0.4355,-0.1387 0.2198,-0.072 0.4354,-0.148 0.6426,-0.2324 0.1442,-0.059 0.2855,-0.1222 0.4238,-0.1875 0.2014,-0.095 0.3949,-0.1985 0.584,-0.3086 0.1168,-0.068 0.2355,-0.1332 0.3477,-0.207 0.265,-0.1747 0.5193,-0.3659 0.7597,-0.5762 0.024,-0.021 0.051,-0.037 0.074,-0.059 2.1264,-1.9112 3.2993,-5.3329 3.9453,-11.3555 0.07,-0.653 0.1296,-1.3545 0.1875,-2.0703 0.1084,-1.3343 0.2029,-2.7514 0.2754,-4.3183 0.078,-1.686 0.1387,-3.5149 0.1836,-5.4922 2e-4,-0.01 -2e-4,-0.018 0,-0.025 0.045,-1.9789 0.075,-4.111 0.096,-6.4043 1e-4,-0.01 -10e-5,-0.02 0,-0.029 2e-4,-0.023 -2e-4,-0.051 0,-0.074 0.027,-3.0596 0.033,-6.5113 0.035,-10.1758 0,-4.6385 0,-9.4974 0,-15.209 0,0 0,-0.01 0,-0.012 0,-0.012 0,-0.021 0,-0.033 0,-0.8368 0.013,-1.6629 0.037,-2.4785 1.5353,-52.1698 51.7591,-61.4534 98.791,-61.1739 47.7673,0.2839 871.7037,-2.19 1004.4805,-0.2363 103.8174,1.5277 115.0663,40.2421 115.0352,69.8633 0,1.1595 -0.018,2.3067 -0.049,3.4355 -6e-4,0.023 0,0.047 0,0.07 -0.1576,5.7541 -0.6381,11.0739 -0.7949,15.5918 -0.01,0.2667 -0.01,0.5106 -0.014,0.7715 -0.016,0.6269 -0.035,1.2569 -0.035,1.8496 0,0 0,0.01 0,0.014 0,1.6242 0.01,3.1367 0.02,4.5625 2e-4,0.022 -2e-4,0.048 0,0.07 0.029,2.8253 0.1035,5.2542 0.2539,7.3789 0.023,0.3291 0.047,0.6469 0.074,0.961 0.069,0.7911 0.1495,1.5473 0.2481,2.2461 0,0.027 0.01,0.055 0.01,0.082 1.589,11.0636 7.2736,10.8832 27.3477,12.748 26.7883,2.4886 136.3344,-0.068 175.8711,1.4786 8.7277,0.3413 15.4485,0.6161 20.918,0.1191 0.2265,-0.022 0.4436,-0.051 0.666,-0.076 0.4358,-0.046 0.8689,-0.094 1.289,-0.1504 10.0765,-1.4276 15.8044,-6.1279 22.6348,-19.1386 0.067,-0.1279 0.1342,-0.2553 0.2012,-0.3848 0.3604,-0.6929 0.7261,-1.4203 1.0937,-2.1602 0.2411,-0.4876 0.4837,-0.9796 0.7285,-1.4882 0.1951,-0.4032 0.3923,-0.8159 0.5899,-1.2325 4.6954,-9.9449 10.1737,-23.7302 17.9785,-42.8261 0.063,-0.1552 0.1244,-0.3116 0.1875,-0.4668 0.8437,-2.1367 1.6718,-4.285 2.4844,-6.4512 0.3914,-1.0442 0.7682,-2.1054 1.1523,-3.1582 0.2831,-0.7756 0.5641,-1.5557 0.8457,-2.334 0.01,-0.018 0.014,-0.036 0.021,-0.055 0.01,-0.026 0.016,-0.054 0.025,-0.08 1.3831,-3.9771 2.6854,-8.0259 3.9102,-12.1757 0.01,-0.021 0.014,-0.043 0.021,-0.062 0.01,-0.02 0.013,-0.041 0.018,-0.061 8.6578,-29.3841 13.4537,-63.816 15.8203,-113.3301 z"
     id="path1864" />
  <path
     style="fill:#3c75b0;fill-opacity:1;stroke:none;stroke-width:1px;stroke-linecap:butt;stroke-linejoin:miter;stroke-opacity:1"
     d="m 691.80464,1103.5289 c 4.65885,-43.649 6.40591,-16.8503 19.21771,10.5966 12.8118,27.4467 34.35891,54.363 125.78855,58.9829 91.4297,4.6198 440.26,11.3516 525.8661,11.8604 85.6061,0.5087 505.4837,-1.0725 602.7369,-6.3181 97.2532,-5.2456 204.4064,-8.103 227.1182,-23.6915 22.7118,-15.5887 41.9295,-51.5804 46.5884,-67.2763 4.6588,-15.6959 8.1529,-13.928 9.9,20.4413 1.747,34.3693 10.4824,118.8626 11.6471,136.3401 1.1647,17.4775 0.5823,15.7271 -11.6471,12.1603 -12.2295,-3.5669 -128.7004,0.3998 -204.9888,12.1759 -76.2884,11.776 -138.018,56.2505 -156.071,100.4022 -18.053,44.1516 -8.1529,68.087 8.153,80.9957 16.3059,12.9086 0,13.9765 -37.8531,14.9163 -37.853,0.9397 -289.4301,-3.4671 -431.5246,-3.1468 -142.0945,0.3202 -370.9598,1.8719 -384.354,0.6276 -13.3941,-1.2443 -13.3941,-7.0679 -3.4941,-15.7443 9.9,-8.6765 22.1295,-17.3391 19.8001,-51.1296 -2.3295,-33.7903 -51.2472,-98.14 -132.7769,-120.1716 -81.5296,-22.0317 -204.40637,-23.3442 -221.29465,-20.5328 -16.88829,2.8113 -25.04125,12.663 -23.87654,-7.1302 1.16471,-19.7931 9.31767,-122.239 11.06473,-144.3581 z"
     id="path1869" />
  <path
     style="fill:#515151;fill-opacity:1;stroke:none;stroke-width:1px;stroke-linecap:butt;stroke-linejoin:miter;stroke-opacity:1"
     d="m 1107.0234,286.6237 c 0.5823,-19.7967 -2.3294,-19.2316 26.2059,-20.8091 28.5354,-1.5774 669.1253,0.4823 690.6724,0.6104 21.5471,0.128 27.3707,2.492 26.7883,27.5298 -0.5823,25.0378 0,123.4592 -0.5823,142.6734 -0.5824,19.2143 -1.7471,23.2838 -24.4589,21.9842 -22.7118,-1.2997 -671.4547,-1.6609 -694.1665,-1.2136 -22.7119,0.4474 -24.4589,-3.6394 -24.4589,-26.3512 0,-22.7118 -0.5824,-119.3862 0,-144.4239 z"
     id="path1871" />
  <path
     style="fill:#6e6e6e;fill-opacity:1;stroke:none;stroke-width:1px;stroke-linecap:butt;stroke-linejoin:miter;stroke-opacity:1"
     d="m 969.5877,264.2598 c 19.8001,0.7 20.9648,2.454 21.5471,19.9281 0.5824,17.474 0,44.8413 -0.5823,58.8143 -0.5824,13.973 -6.4059,18.0149 -17.4706,18.5316 -11.0648,0.5165 -162.4769,0.1991 -175.2887,-0.4594 -12.8118,-0.6584 -17.4707,-3.5979 -18.053,-20.4897 -0.5824,-16.8918 0,-50.0825 0.5823,-61.1437 0.5824,-11.0613 1.7471,-14.5486 18.6354,-15.0305 16.8883,-0.482 149.6651,-1.44 170.6298,-0.1507 z"
     id="path1873" />
  <path
     style="fill:#e9e9e9;fill-opacity:1;stroke:none;stroke-width:1px;stroke-linecap:butt;stroke-linejoin:miter;stroke-opacity:1"
     d="m 835.355,357.8035 c 20.3824,-0.1701 41.9296,-16.3479 42.8031,-44.0046 0.8735,-27.6566 -22.1295,-41.1874 -42.2207,-41.598 -20.0912,-0.4106 -39.8913,18.107 -40.7648,42.8519 -0.8736,24.7449 16.0147,44.063 40.1824,42.7507 z"
     id="path1875" />
  <path
     style="fill:#e25138;fill-opacity:1;stroke:none;stroke-width:1px;stroke-linecap:butt;stroke-linejoin:miter;stroke-opacity:1"
     d="m 896.5022,315.655 c 0,-23.003 18.053,-41.8222 37.8531,-41.9958 19.8,-0.1735 41.6383,12.477 41.6383,43.9241 0,31.4471 -20.3824,39.7702 -36.106,39.9679 -15.7235,0.1977 -42.5118,-11.0262 -43.3854,-41.8962 z"
     id="path1877" />
  <path
     style="fill:#6e6e6e;fill-opacity:1;stroke:none;stroke-width:1px;stroke-linecap:butt;stroke-linejoin:miter;stroke-opacity:1"
     d="m 1966.8697,276.3011 c 0.8736,-7.5654 1.1648,-8.7284 9.6089,-9.2606 8.4441,-0.5321 174.7063,-0.4177 185.7711,0.2305 11.0647,0.648 12.2294,2.6933 12.5206,14.3421 0.2912,11.6488 0.2912,50.9577 -0.2912,62.3102 -0.5823,11.3524 -2.9118,16.5798 -11.0647,16.5313 -8.153,-0.048 -178.4917,0.6864 -187.227,0.6345 -8.7353,-0.052 -10.1912,-5.593 -10.1912,-12.2901 0,-6.6971 0.5824,-64.0555 0.8735,-72.4979 z"
     id="path1883" />
  <path
     style="fill:#e25138;fill-opacity:1;stroke:none;stroke-width:1px;stroke-linecap:butt;stroke-linejoin:miter;stroke-opacity:1"
     d="m 2016.3698,354.9219 c 33.7766,-0.6728 42.2207,-25.3727 41.3472,-43.722 -0.8735,-18.3494 -13.103,-38.8045 -39.8913,-39.8372 -26.7883,-1.0328 -42.803,19.2545 -43.0942,41.3822 -0.2912,22.1278 13.9765,42.0126 41.6383,42.177 z"
     id="path1879" />
  <path
     style="fill:#e9e9e9;fill-opacity:1;stroke:none;stroke-width:1px;stroke-linecap:butt;stroke-linejoin:miter;stroke-opacity:1"
     d="m 2121.4438,272.8129 c -31.1679,-0.3395 -43.3444,20.4551 -42.1797,43.465 1.1647,23.01 14.2677,39.1026 43.3855,38.6933 29.1177,-0.4093 38.7265,-18.6964 39.0177,-41.9889 0.2912,-23.2924 -12.5375,-39.8678 -40.2235,-40.1694 z"
     id="path1881" />
  <path
     style="fill:#626262;fill-opacity:1;stroke:none;stroke-width:1px;stroke-linecap:butt;stroke-linejoin:miter;stroke-opacity:1"
     d="m 779.5131,539.22405 c 3.948,-30.57335 4.935,-27.60655 41.4538,-28.37655 36.5188,-0.7699 1289.0154,0.7514 1318.6253,0.9273 29.6098,0.176 33.5578,5.1345 34.5448,40.67213 0.987,35.53767 0.987,485.60737 0,521.13337 -0.987,35.5259 -3.948,42.4173 -28.6229,42.2707 -24.6748,-0.1467 -574.431,-1.4397 -740.2462,-0.4511 -165.8151,0.9886 -548.7692,-1.2872 -587.262,-2.503 -38.4928,-1.2157 -45.4017,-4.2178 -45.4017,-33.8277 0,-29.6098 5.9219,-502.34522 6.9089,-539.84515 z"
     id="path1885" />
  <path
     style="fill:#aa7601;fill-opacity:1;stroke:none;stroke-width:1px;stroke-linecap:butt;stroke-linejoin:miter;stroke-opacity:1"
     d="m 2193.0276,1262.8372 c 45.0117,-2.5458 75.4883,7.0128 64.7043,57.118 -10.7841,50.1052 -31.4144,105.3095 -77.8328,121.913 -46.4183,16.6036 -210.0545,21.2576 -238.1868,20.1526 -28.1323,-1.1049 -55.3269,-19.0837 -55.7958,-45.8122 -0.4688,-26.7284 26.2568,-85.6474 79.2394,-112.0583 52.9825,-26.4108 189.893,-39.1945 227.8717,-41.3131 z"
     id="path1890" />
  <path
     style="fill:#a2a2a2;fill-opacity:1;stroke:none;stroke-width:1px;stroke-linecap:butt;stroke-linejoin:miter;stroke-opacity:1"
     d="m 1991.4127,1305.2442 c 52.0448,-0.6285 76.895,27.1825 78.3016,65.1696 1.4066,37.987 -26.7257,76.7361 -70.7997,77.412 -44.0739,0.6757 -71.2685,-41.2155 -72.6751,-68.8872 -1.4066,-27.6718 16.8794,-70.2305 65.1732,-73.6944 z"
     id="path1892" />
  <path
     style="fill:#d6d6d6;fill-opacity:1;stroke:none;stroke-width:1px;stroke-linecap:butt;stroke-linejoin:miter;stroke-opacity:1"
     d="m 2084.7182,1366.2831 c 0.4689,-41.7268 28.1323,-74.8523 70.7996,-76.9431 42.6673,-2.0908 71.7374,34.185 71.7374,69.8193 0,35.6343 -29.4245,72.9692 -68.8097,73.6728 -39.3853,0.7038 -73.7273,-22.0061 -73.7273,-66.549 z"
     id="path1894" />
  <path
     style="fill:#aa7601;fill-opacity:1;stroke:none;stroke-width:1px;stroke-linecap:butt;stroke-linejoin:miter;stroke-opacity:1"
     d="m 680.9867,1321.2823 c -2.5299,-42.6343 9.75841,-61.542 48.79206,-59.7853 39.03364,1.7567 92.39994,0.854 160.40384,16.2008 68.0039,15.3466 106.4277,32.3472 134.1781,77.3398 27.7505,44.9927 25.006,68.1525 14.6377,81.8137 -10.3684,13.6611 -17.3822,22.768 -66.4792,22.1713 -49.097,-0.5968 -95.7544,1.2606 -151.2554,-6.9979 -55.5009,-8.2585 -83.55634,-11.7798 -104.59791,-41.4849 -21.04158,-29.7052 -34.2294,-64.8255 -35.67919,-89.2575 z"
     id="path1900" />
  <path
     style="fill:#d6d6d6;fill-opacity:1;stroke:none;stroke-width:1px;stroke-linecap:butt;stroke-linejoin:miter;stroke-opacity:1"
     d="m 784.6698,1433.2052 c 41.1678,-0.1279 76.5425,-29.1253 75.9326,-70.6021 -0.6099,-41.4769 -38.6427,-71.6234 -72.8831,-72.0965 -38.72867,-0.5351 -70.44351,24.8923 -69.22371,72.4718 1.21981,47.5795 39.93361,70.3084 66.17421,70.2268 z"
     id="path1896" />
  <path
     style="fill:#a2a2a2;fill-opacity:1;stroke:none;stroke-width:1px;stroke-linecap:butt;stroke-linejoin:miter;stroke-opacity:1"
     d="m 874.3252,1375.7975 c 0.3034,-45.7965 29.5802,-70.5727 68.6138,-70.9506 39.0336,-0.378 70.7485,29.3907 72.8831,68.437 2.1347,39.0464 -23.1762,73.6603 -65.5643,72.7985 -42.3881,-0.8618 -76.1832,-32.4624 -75.9326,-70.2849 z"
     id="path1898" />
  <rect
     style="fill:#000000;fill-opacity:0;stroke:none;stroke-width:15.1181;stroke-linecap:round;stroke-linejoin:round"
     id="rect1187"
     width="1297.7455"
     height="370.78442"
     x="0"
     y="185.39221" />
</svg>
