<?xml version="1.0" encoding="UTF-8" standalone="no"?>
<svg
   xmlns:dc="http://purl.org/dc/elements/1.1/"
   xmlns:cc="http://creativecommons.org/ns#"
   xmlns:rdf="http://www.w3.org/1999/02/22-rdf-syntax-ns#"
   xmlns:svg="http://www.w3.org/2000/svg"
   xmlns="http://www.w3.org/2000/svg"
   xmlns:sodipodi="http://sodipodi.sourceforge.net/DTD/sodipodi-0.dtd"
   xmlns:inkscape="http://www.inkscape.org/namespaces/inkscape"
   inkscape:version="1.1-dev (ddb55ca, 2020-02-02)"
   sodipodi:docname="z3.svg"
   viewBox="0 0 2265.1882 3028"
   height="3028"
   width="2265.1882"
   id="svg947"
   version="1.1">
  <metadata
     id="metadata953">
    <rdf:RDF>
      <cc:Work
         rdf:about="">
        <dc:format>image/svg+xml</dc:format>
        <dc:type
           rdf:resource="http://purl.org/dc/dcmitype/StillImage" />
        <dc:title></dc:title>
      </cc:Work>
    </rdf:RDF>
  </metadata>
  <defs
     id="defs951" />
  <sodipodi:namedview
     inkscape:snap-global="false"
     inkscape:current-layer="g955"
     inkscape:window-maximized="0"
     inkscape:window-y="23"
     inkscape:window-x="0"
     inkscape:cy="1515.4824"
     inkscape:cx="1132.5941"
     inkscape:zoom="0.21940208"
     showgrid="false"
     id="namedview949"
     inkscape:window-height="855"
     inkscape:window-width="1439"
     inkscape:pageshadow="2"
     inkscape:pageopacity="0"
     guidetolerance="10"
     gridtolerance="10"
     objecttolerance="10"
     borderopacity="1"
     inkscape:document-rotation="0"
     bordercolor="#666666"
     pagecolor="#ffffff" />
  <g
     transform="translate(-876.10605,-1127.1309)"
     id="g955"
     inkscape:label="Image"
     inkscape:groupmode="layer">
    <path
       sodipodi:nodetypes="csscc"
       inkscape:connector-curvature="0"
       id="path4134"
       d="m 2650.9805,1280.4736 c -80.7441,2.8582 -139.3372,7.8601 -147.1973,36.4421 -7.86,28.582 -42.1547,260.0962 -42.8693,280.1036 -0.7145,20.0074 107.1788,9.2891 107.1788,9.2891 z"
       style="fill:#171717;fill-opacity:1;stroke:none;stroke-width:1px;stroke-linecap:butt;stroke-linejoin:miter;stroke-opacity:1" />
    <path
       inkscape:connector-curvature="0"
       id="path4128"
       d="m 3126.1563,1623.4576 c 5.0019,-50.0185 3.5728,-252.9507 2.1437,-288.6782 -1.4291,-35.7275 1.4291,-49.3039 -55.0204,-50.733 -56.4495,-1.4291 -400.148,-3.5728 -432.3028,-2.8582 -32.1547,0.7145 -47.1603,8.5746 -55.0203,62.1658 -7.8601,53.5913 -40.7294,250.8071 -40.0148,266.5272 0.7145,15.7201 262.9544,19.2928 262.9544,19.2928 z"
       style="fill:#1d1d1d;fill-opacity:1;stroke:none;stroke-width:1px;stroke-linecap:butt;stroke-linejoin:miter;stroke-opacity:1" />
    <path
       sodipodi:nodetypes="cscc"
       inkscape:connector-curvature="0"
       id="path4126"
       d="m 3140.7158,1641.0947 c 7.1128,37.8055 -53.2037,119.3484 -79.3263,142.4843 -25.9779,23.0077 -105.0948,-128.3369 -105.0948,-128.3369 z"
       style="fill:#131313;fill-opacity:1;stroke:none;stroke-width:1px;stroke-linecap:butt;stroke-linejoin:miter;stroke-opacity:1" />
    <path
       inkscape:connector-curvature="0"
       id="path4124"
       d="m 2962.8632,1674.4421 c 78.821,0 138.4421,0 156.6315,-2.021 18.1895,-2.0211 22.2316,-8.0843 21.2211,-28.2948 -1.0105,-20.2105 -2.0211,-32.3368 -30.3158,-32.3368 -28.2947,0 -397.1368,2.021 -426.4421,2.021 -29.3053,0 278.9053,60.6316 278.9053,60.6316 z"
       style="fill:#1a1a1a;fill-opacity:1;stroke:none;stroke-width:1px;stroke-linecap:butt;stroke-linejoin:miter;stroke-opacity:1" />
    <g
       id="g4006">
      <path
         inkscape:connector-curvature="0"
         d="m 2003.5703,1412.0977 -194.3848,1.2832 c -12.8619,47.1603 -25.0091,73.5982 -37.871,84.3164 -10.6148,8.8457 168.6389,2.1815 232.2558,-0.4395 63.6169,2.621 242.8707,9.2852 232.2559,0.4395 -12.8619,-10.7182 -25.0092,-37.1561 -37.8711,-84.3164 z"
         style="fill:#161616;fill-opacity:1;stroke:none;stroke-width:1px;stroke-linecap:butt;stroke-linejoin:miter;stroke-opacity:1"
         id="path3944" />
      <path
         inkscape:connector-curvature="0"
         d="m 2003.5703,1487.582 c -46.9542,0.6128 -165.5928,-0.5079 -238.7871,3.9551 -82.8632,5.0527 -61.6426,55.5783 -61.6426,102.0625 l 300.4297,-7.8027 300.4297,7.8027 c 0,-46.4842 21.2206,-97.0098 -61.6426,-102.0625 -73.1943,-4.463 -191.8329,-3.3423 -238.7871,-3.9551 z"
         style="fill:#1e1e1e;fill-opacity:1;stroke:none;stroke-width:1px;stroke-linecap:butt;stroke-linejoin:miter;stroke-opacity:1"
         id="path3930" />
      <path
         style="fill:#181818;fill-opacity:1;stroke:none;stroke-width:1px;stroke-linecap:butt;stroke-linejoin:miter;stroke-opacity:1"
         d="m 2739.932,2070.0093 334.442,41.5456 24.9176,1278.5707 v 705.0522 l -352.526,14.6886 z"
         id="path3868"
         inkscape:connector-curvature="0" />
      <path
         style="fill:#1d1d1d;fill-opacity:1;stroke:none;stroke-width:1px;stroke-linecap:butt;stroke-linejoin:miter;stroke-opacity:1"
         d="m 3090.9923,2088.7048 c 12.4636,51.932 12.4636,114.2504 13.5023,154.7573 1.0386,40.507 12.4637,321.9784 14.5409,385.3354 2.0773,63.3571 9.3478,596.1793 10.3864,702.1206 1.0387,105.9412 0,670.9613 0,697.966 0,27.0046 2.0773,46.7388 1.0387,56.0865 -1.0387,9.3478 -89.323,-4.1545 -89.323,-4.1545 l -4.1546,-576.4452 -9.3478,-1413.5888 z"
         id="path3833"
         inkscape:connector-curvature="0" />
      <path
         style="fill:#436433;fill-opacity:1;stroke:none;stroke-width:1px;stroke-linecap:butt;stroke-linejoin:miter;stroke-opacity:1"
         d="m 3093.4162,2021.8839 c -1.4688,30.1116 2.9377,63.8953 2.9377,80.0528 0,16.1574 0,19.0951 -24.9706,17.6263 -24.9706,-1.4689 -302.5848,-32.3149 -326.0866,-33.7838 -23.5017,-1.4688 0,-94.0069 0,-94.0069 z"
         id="path3722"
         inkscape:connector-curvature="0" />
      <path
         style="fill:#5a8644;fill-opacity:1;stroke:none;stroke-width:1px;stroke-linecap:butt;stroke-linejoin:miter;stroke-opacity:1"
         d="m 2480.9022,1590.7739 c 306.9914,30.846 537.6022,52.8789 571.386,129.2595 33.7837,76.3807 49.9412,227.6731 52.8789,261.4568 2.9377,33.7838 -11.7509,39.6592 -26.4395,39.6592 -14.6886,0 -351.0572,-29.3771 -351.0572,-29.3771 z"
         id="path3718"
         inkscape:connector-curvature="0" />
      <path
         sodipodi:nodetypes="ccccccccc"
         inkscape:connector-curvature="0"
         d="m 2477.9648,3920.3828 201.2325,129.2598 -2.9375,104.4883 c -243.5565,1.1172 -533.2738,0.5291 -672.6895,1 -139.4157,-0.4709 -429.1329,0.1172 -672.6894,-1 l -2.9375,-104.4883 201.2324,-129.2598 474.3945,-21.082 z"
         style="fill:#131313;fill-opacity:1;stroke:none;stroke-width:1px;stroke-linecap:butt;stroke-linejoin:miter;stroke-opacity:1"
         id="path3716" />
      <path
         inkscape:connector-curvature="0"
         d="m 1705.5137,3789.9961 -186.9551,11.4258 -87.2461,275.2402 c 88.2844,-1.0386 87.2462,-11.4251 140.2168,-67.5117 52.9706,-56.0865 122.5607,-122.5604 127.7539,-141.2559 5.1932,-18.6955 6.2305,-77.8984 6.2305,-77.8984 z m 596.1133,0 c 0,0 1.0372,59.2029 6.2304,77.8984 5.1932,18.6955 74.7833,85.1694 127.7539,141.2559 52.9706,56.0866 51.9305,66.4731 140.2149,67.5117 l -87.2442,-275.2402 z"
         style="fill:#2b2b2b;fill-opacity:1;stroke:none;stroke-width:1px;stroke-linecap:butt;stroke-linejoin:miter;stroke-opacity:1"
         id="path3710" />
      <path
         inkscape:connector-curvature="0"
         d="m 1587.9297,3795.5312 c -19.0952,2e-4 -16.1563,63.1604 -16.1563,86.6622 0,23.5017 1.4692,49.9414 22.0332,49.9414 h 409.7637 409.7637 c 20.564,0 22.0332,-26.4397 22.0332,-49.9414 0,-23.5018 2.9389,-86.662 -16.1563,-86.6622 -17.7908,0 -365.0411,4.7779 -415.6406,5.4747 -50.5995,-0.6968 -397.8498,-5.4747 -415.6406,-5.4747 z"
         style="fill:#232323;fill-opacity:1;stroke:none;stroke-width:1px;stroke-linecap:butt;stroke-linejoin:miter;stroke-opacity:1"
         id="path3714" />
      <path
         style="fill:#252525;fill-opacity:1;stroke:none;stroke-width:1px;stroke-linecap:butt;stroke-linejoin:miter;stroke-opacity:1"
         d="m 2712.9274,4154.5595 c -58.1639,0 -61.2798,0 -66.473,-30.1206 -5.1932,-30.1205 -7.2705,-58.1638 -7.2705,-70.6275 0,-12.4636 59.2025,37.3911 59.2025,37.3911 z"
         id="path3712"
         inkscape:connector-curvature="0" />
      <g
         id="g3864"
         style="fill:#ab9c41;fill-opacity:1">
        <path
           inkscape:connector-curvature="0"
           id="path3846"
           d="m 2784.0742,4071.9876 c 11.425,-0.5193 12.4637,0 12.4637,-15.0602 0,-15.0603 -2.5966,-169.8177 -3.116,-178.6461 -0.5193,-8.8284 -6.7511,-138.1391 -6.7511,-138.1391 0,0 2.6917,-308.8885 4.895,-358.8297 2.2033,-49.9412 7.3443,-285.693 6.6098,-318.0079 -0.7344,-32.3149 0,-471.5036 0.7345,-516.3038 0.7344,-44.8002 1.7823,-402.7288 1.7823,-414.6731 0,-11.9444 -3.1159,-16.6183 -27.0046,-19.2149 -23.8887,-2.5966 -19.7342,7.2705 -20.7728,20.7728 -1.0386,13.5023 21.7589,1215.112 21.7589,1215.112 z"
           style="fill:#ab9c41;fill-opacity:1;stroke:none;stroke-width:1px;stroke-linecap:butt;stroke-linejoin:miter;stroke-opacity:1" />
        <path
           inkscape:connector-curvature="0"
           id="path3835"
           d="m 2903.199,4041.5644 c -0.7344,17.6263 -0.7344,18.3608 12.4853,18.3608 13.2197,0 40.7608,-1.4689 49.9412,-1.8361 9.1804,-0.3672 9.1804,-2.5705 9.5476,-15.7902 0.3672,-13.2198 1.4689,-93.6398 1.1016,-103.1873 -0.3672,-9.5476 -2.5705,-9.5476 -19.0951,-9.5476 -16.5247,0 -22.0329,-1.8361 -22.0329,-17.6263 0,-15.7903 0.3672,-77.1151 0.7344,-84.4594 0.3672,-7.3443 2.5705,-8.8132 19.0952,-9.9148 16.5246,-1.1016 19.8296,-1.8361 19.8296,-8.4459 0,-6.6099 1.936,-236.1964 2.4553,-284.4932 0.5193,-48.2967 4.6739,-1143.0232 3.6352,-1183.5301 -1.0386,-40.507 1.0387,-176.8006 0.5194,-187.7064 -0.5194,-10.9057 -2.5194,-11.9443 -30.0433,-15.5796 -27.524,-3.6352 -42.5842,-7.867 -43.6229,5.6353 -1.0386,13.5023 1.4807,414.7264 0.4421,456.272 -1.0387,41.5456 -5.1932,865.187 -4.1546,923.3509 1.0386,58.1638 -1.6762,493.7873 -0.8381,518.4979 z"
           style="fill:#ab9c41;fill-opacity:1;stroke:none;stroke-width:1px;stroke-linecap:butt;stroke-linejoin:miter;stroke-opacity:1"
           sodipodi:nodetypes="cssssssssssssssssc" />
        <path
           inkscape:connector-curvature="0"
           id="path3837"
           d="m 2980.3771,4042.3864 c 0.5193,11.425 2.5966,13.5023 11.9444,13.5023 9.3477,0 40.5069,-1.5579 48.2967,-2.0773 7.7898,-0.5193 13.5024,-0.5193 14.541,-13.5023 1.0386,-12.983 1.558,-140.2164 1.558,-182.2813 0,-42.0649 2.0772,-282.51 2.0772,-343.7898 0,-61.2797 -0.5193,-332.3647 -0.5193,-353.1375 0,-20.7728 5.1932,-894.269 5.7125,-914.5224 0.5194,-20.2535 2.0773,-71.6662 2.0773,-83.0912 0,-11.4251 2.0773,-17.1376 -33.2365,-20.2535 -35.3137,-3.1159 -42.5842,-4.1546 -43.1035,13.5023 -0.5193,17.6569 -3.1159,601.3725 -3.6353,632.0124 -0.5193,30.6398 -3.1159,462.1947 -3.6352,489.1993 -0.5193,27.0047 -2.0773,517.762 -2.0773,527.1098 0,9.3477 4.6739,12.4637 22.3308,12.4637 17.6569,0 21.8114,-0.5194 22.3307,14.0216 0.5194,14.541 1.0387,69.0696 0,81.0139 -1.0386,11.9444 -2.5966,16.6183 -22.3307,17.6569 -19.7342,1.0386 -20.7728,2.5966 -20.7728,12.983 0,10.3864 -1.558,85.1685 -1.558,99.1901 z"
           style="fill:#ab9c41;fill-opacity:1;stroke:none;stroke-width:1px;stroke-linecap:butt;stroke-linejoin:miter;stroke-opacity:1" />
        <path
           inkscape:connector-curvature="0"
           id="path3839"
           d="m 2799.1345,4056.9274 c 0.5193,15.0602 1.0386,15.0602 14.0216,15.0602 12.983,0 50.374,-1.5579 63.357,-2.0772 12.983,-0.5194 14.541,-2.5966 15.0603,-18.6956 0.5193,-16.0989 2.5966,-225.3848 3.1159,-256.0247 0.5194,-30.6399 4.1546,-1158.0835 4.1546,-1228.711 0,-70.6275 2.1518,-398.4438 2.1518,-413.8668 0,-15.423 5.141,-20.564 -38.9247,-27.1739 -44.0658,-6.6099 -54.3478,-8.0787 -55.0822,10.282 -0.7344,18.3607 -2.9377,197.5615 -2.2033,221.7977 0.7344,24.2361 0,309.9291 -0.7344,348.1194 -0.7345,38.1904 -2.9378,656.5798 -2.2033,705.7866 0.7344,49.2068 0.7344,384.1065 0,397.3262 -0.7345,13.2198 2.2033,16.8919 21.2984,17.6264 19.0952,0.7344 24.9706,0.7344 25.7051,16.8918 0.7344,16.1575 1.4688,59.4888 0.7344,74.9118 -0.7344,15.423 -4.4066,21.2985 -24.9706,22.7673 -20.564,1.4689 -21.8454,2.768 -22.884,14.7124 -1.0387,11.9443 -2.5966,84.6491 -2.5966,101.2674 z"
           style="fill:#ab9c41;fill-opacity:1;stroke:none;stroke-width:1px;stroke-linecap:butt;stroke-linejoin:miter;stroke-opacity:1" />
      </g>
      <path
         style="fill:#6c6c6c;fill-opacity:1;stroke:none;stroke-width:1px;stroke-linecap:butt;stroke-linejoin:miter;stroke-opacity:1"
         d="m 3097.8228,4062.1285 c 28.7243,-0.4177 32.8974,-4.6818 33.1571,22.3228 0.2597,27.0047 0.5193,29.8609 -23.1097,31.4189 -23.6291,1.5579 -327.4313,36.612 -344.0495,36.612 -16.6182,0 -7.7898,-70.6275 15.0603,-72.7048 22.8501,-2.0772 295.1375,-17.3027 318.9418,-17.6489 z"
         id="path3866"
         inkscape:connector-curvature="0"
         sodipodi:nodetypes="ssssss" />
      <path
         style="fill:#323232;fill-opacity:1;stroke:none;stroke-width:1px;stroke-linecap:butt;stroke-linejoin:miter;stroke-opacity:1"
         d="m 2470.9243,3797.2674 c 12.4636,79.9753 44.6615,234.7326 50.8933,255.5054 6.2319,20.7728 14.541,23.8887 38.4297,23.8887 23.8887,0 81.0414,-0.3723 97.6321,1.0387 12.2117,1.0386 21.9422,5.5532 27.0047,39.4683 5.4452,36.4784 6.8618,38.4296 47.7774,37.391 51.9257,-1.3181 52.9706,-3.1159 55.0479,-29.0819 2.0773,-25.966 10.3864,-302.2442 10.3864,-327.1716 0,-24.9273 -327.1715,-1.0386 -327.1715,-1.0386 z"
         id="path3708"
         inkscape:connector-curvature="0"
         sodipodi:nodetypes="csssssssc" />
      <path
         inkscape:connector-curvature="0"
         d="m 2003.5703,1576.5762 c -70.5136,1.0989 -261.8463,3.947 -429.9629,14.6211 l -33.2363,40.5058 463.1992,-16.4316 463.1992,16.4316 -33.2363,-40.5058 c -168.1166,-10.6741 -359.4493,-13.5222 -429.9629,-14.6211 z"
         style="fill:#b6b6b6;fill-opacity:1;stroke:none;stroke-width:1px;stroke-linecap:butt;stroke-linejoin:miter;stroke-opacity:1"
         id="path3702" />
      <path
         inkscape:connector-curvature="0"
         d="m 2003.5703,1936.084 -684.4414,4.2773 -64.6289,202.7032 749.0703,-14.4043 749.0703,14.4043 -64.6289,-202.7032 z"
         style="fill:#131313;fill-opacity:1;stroke:none;stroke-width:1px;stroke-linecap:butt;stroke-linejoin:miter;stroke-opacity:1"
         id="path3700" />
      <path
         sodipodi:nodetypes="cscscscsc"
         inkscape:connector-curvature="0"
         d="m 2003.5703,1605.3555 c -126.1511,2.1354 -441.95,7.5674 -477.332,20.6718 -39.6592,14.6886 -73.4434,334.8985 -73.4434,334.8985 64.6298,-10.282 170.388,-10.2813 286.4278,-10.2813 85.005,0 198.9651,-1.5694 264.3476,-1.2578 65.3825,-0.3116 179.3427,1.2578 264.3477,1.2578 116.0398,0 221.7979,-7e-4 286.4277,10.2813 0,0 -33.7842,-320.2099 -73.4434,-334.8985 -35.382,-13.1044 -351.1809,-18.5364 -477.332,-20.6718 z"
         style="fill:#171717;fill-opacity:1;stroke:none;stroke-width:1px;stroke-linecap:butt;stroke-linejoin:miter;stroke-opacity:1"
         id="path3698" />
      <path
         inkscape:connector-curvature="0"
         d="m 1402.2324,2133.3672 -33.2363,27.0039 105.9414,646.0332 20.7715,112.1738 h 507.8613 507.8613 l 20.7715,-112.1738 105.9414,-646.0332 -33.2363,-27.0039 -601.3379,15.3691 z"
         style="fill:#646464;fill-opacity:1;stroke:none;stroke-width:1px;stroke-linecap:butt;stroke-linejoin:miter;stroke-opacity:1"
         id="path3696" />
      <path
         id="path3848"
         style="fill:#313131;fill-opacity:1;stroke:none;stroke-width:1px;stroke-linecap:butt;stroke-linejoin:miter;stroke-opacity:1"
         d="m 2772.1426,2189.334 c -8.0788,0 -14.3604,-3e-4 -27.5801,2.9375 -13.2197,2.9377 -7.3437,298.9121 -7.3437,298.9121 0,0 50.6756,349.588 51.4101,322.4141 0.7344,-27.1738 0.7344,-346.65 0.7344,-431.8438 0,-22.7673 0.7344,-116.0403 0,-152.0273 -0.7344,-35.987 -9.142,-40.3926 -17.2207,-40.3926 z m 61.5937,9.0781 c -17.4844,-0.1335 -19.1076,4.6544 -19.541,11.8145 -0.7344,12.1333 -2.0781,79.4552 -2.0781,108.5371 0,29.0819 -1.457,573.419 -1.457,611.6093 0,38.1903 -1.7698,603.0024 -1.6582,622.8145 0.079,14.0215 0.5186,15.5784 22.33,16.0977 21.8114,0.5194 47.2591,7.7897 50.375,-91.4004 3.116,-99.1901 3.8653,-527.682 3.1309,-601.8594 -0.7344,-74.1773 0.7344,-531.7271 -0.7344,-577.9961 -1.4689,-46.2691 -4.4736,-95.593 -35.6328,-98.709 -5.8423,-0.5842 -10.6995,-0.8774 -14.7344,-0.9082 z m 117.3047,3.9629 c -13.9671,0.2008 -30.6756,7.4303 -33.8887,78.7617 -3.6722,81.5217 -1.0027,1137.6275 -1.4687,1171.416 -1.0028,72.7053 8.8129,109.4297 29.3769,109.4297 20.564,0 21.2988,-2.204 22.0333,-16.8926 0.7343,-14.6886 4.4062,-1296.2682 4.4062,-1313.8945 0,-17.6263 0,-27.9082 -14.6875,-28.6426 -1.8361,-0.092 -3.7762,-0.2064 -5.7715,-0.1777 z m 55.7988,6.6641 c -9.9205,-0.065 -9.1756,5.0811 -10.3691,17.0156 -1.4688,14.6886 -8.0781,1294.799 -8.0781,1319.0351 0.7344,19.0952 -0.7337,22.0332 16.1582,22.0332 16.8918,0 34.5172,-5.8761 39.6582,-44.0664 5.1411,-38.1904 3.6719,-302.5842 3.6719,-351.791 0,-49.2067 2.2031,-809.3417 2.2031,-863.6894 0,-54.3478 -15.4224,-94.7401 -34.5176,-97.6778 -3.5803,-0.5508 -6.4372,-0.8443 -8.7266,-0.8593 z"
         inkscape:connector-curvature="0"
         sodipodi:nodetypes="sscssssssssssssssssssssssssscssssss" />
      <path
         inkscape:connector-curvature="0"
         d="m 1903.6387,2098.1035 c -212.6586,0.3625 -639.0118,13.3659 -640.584,22.7988 -2.0772,12.4637 -27.0059,415.4571 -27.0059,415.4571 l -12.4629,330.2871 93.4766,83.0898 686.5078,29.1719 686.5078,-29.1719 93.4766,-83.0898 -12.4629,-330.2871 c 0,0 -24.9287,-402.9934 -27.0059,-415.4571 -1.6229,-9.7372 -455.8754,-23.2779 -660.4765,-22.7929 -35.3986,0.084 -63.2234,0.5915 -80.0391,1.6074 -16.8157,-1.0159 -44.6405,-1.5234 -80.0391,-1.6074 -6.3937,-0.015 -13.0326,-0.018 -19.8925,-0.01 z m 50.375,56.3086 c 21.4137,0 38.4754,0.05 49.5566,0.1445 88.6501,-0.7604 559.9562,1.7286 581.6211,1.7286 23.5018,0 33.7836,4.4062 29.377,30.8457 -4.4066,26.4394 -99.8825,640.4215 -105.7579,671.2675 -5.8754,30.8461 -13.2201,39.66 -47.0039,41.1289 -33.1622,1.4418 -279.6725,1.2365 -458.2363,-0.3085 -178.5638,1.545 -425.0741,1.7503 -458.2363,0.3085 -33.7838,-1.4689 -41.1285,-10.2828 -47.0039,-41.1289 -5.8754,-30.846 -101.3512,-644.8281 -105.7578,-671.2675 -4.4066,-26.4395 5.8751,-30.8457 29.3769,-30.8457 18.9568,0 382.1687,-1.9061 532.0645,-1.8731 z"
         style="fill:#171717;fill-opacity:1;stroke:none;stroke-width:1px;stroke-linecap:butt;stroke-linejoin:miter;stroke-opacity:1"
         id="path3692" />
      <g
         id="g3826">
        <path
           inkscape:connector-curvature="0"
           id="path3762"
           d="m 2892.6121,1920.4451 -121.5209,58.6832 125.1561,14.0216 5.1932,-70.6275 z"
           style="fill:#576f46;fill-opacity:1;stroke:none;stroke-width:1px;stroke-linecap:butt;stroke-linejoin:miter;stroke-opacity:1" />
        <path
           inkscape:connector-curvature="0"
           id="path3760"
           d="m 2896.7666,1945.3725 -18.6955,46.2195 37.9104,0.5193 z"
           style="fill:#4c613d;fill-opacity:1;stroke:none;stroke-width:1px;stroke-linecap:butt;stroke-linejoin:miter;stroke-opacity:1" />
        <path
           inkscape:connector-curvature="0"
           d="m 3099.1621,1927.1465 -11.2851,4.2051 -34.9473,83.7695 20.4765,1.7129 20.6368,0.8242 c 7.7837,-4.6134 12.9828,-14.8023 11.125,-36.168 -0.8515,-9.792 -2.8245,-29.4926 -6.0059,-54.3437 z"
           style="fill:#688757;fill-opacity:1;stroke:none;stroke-width:1px;stroke-linecap:butt;stroke-linejoin:miter;stroke-opacity:1"
           id="path3724" />
        <path
           inkscape:connector-curvature="0"
           d="m 2982.4805,1834.1875 18.1504,171.4258 30.1211,1.5586 8.914,-166.4004 z"
           style="fill:#789667;fill-opacity:1;stroke:none;stroke-width:1px;stroke-linecap:butt;stroke-linejoin:miter;stroke-opacity:1"
           id="path3739" />
        <path
           inkscape:connector-curvature="0"
           id="path3758"
           d="m 2901.9598,1943.2952 -5.7125,56.6059 57.1252,0.5193 -37.391,-59.7218 z"
           style="fill:#58684a;fill-opacity:1;stroke:none;stroke-width:1px;stroke-linecap:butt;stroke-linejoin:miter;stroke-opacity:1" />
        <path
           inkscape:connector-curvature="0"
           d="m 2909.2598,1825.7598 -8.3379,67.1621 4.6738,44.6601 33.7559,60.2422 67.5117,5.7129 -13.3887,-168.084 z"
           style="fill:#749558;fill-opacity:1;stroke:none;stroke-width:1px;stroke-linecap:butt;stroke-linejoin:miter;stroke-opacity:1"
           id="path3750" />
        <path
           inkscape:connector-curvature="0"
           d="m 2852.6035,1819.2383 35.8535,86.1465 15.0606,-7.2696 16.1719,-71.1543 z"
           style="fill:#789667;fill-opacity:1;stroke:none;stroke-width:1px;stroke-linecap:butt;stroke-linejoin:miter;stroke-opacity:1"
           id="path3735" />
        <path
           inkscape:connector-curvature="0"
           d="m 2804.9395,1813.752 -0.6114,20.4863 91.4004,87.2461 4.6738,-15.5801 -23.3398,-83.8516 z"
           style="fill:#576f46;fill-opacity:1;stroke:none;stroke-width:1px;stroke-linecap:butt;stroke-linejoin:miter;stroke-opacity:1"
           id="path3733" />
        <path
           inkscape:connector-curvature="0"
           d="m 2719.4746,1803.9141 14.7442,178.8496 42.5839,3.1152 117.8868,-57.125 1.039,-17.6562 -80.2734,-96.1368 z"
           style="fill:#4c613d;fill-opacity:1;stroke:none;stroke-width:1px;stroke-linecap:butt;stroke-linejoin:miter;stroke-opacity:1"
           id="path3731" />
        <path
           inkscape:connector-curvature="0"
           d="m 3032.8867,1839.9902 -12.5215,170.2969 51.4121,-3.1152 28.4981,-71.0196 c -3.0997,-25.305 -7.5496,-57.0865 -13.5859,-89.9687 z"
           style="fill:#6f945c;fill-opacity:1;stroke:none;stroke-width:1px;stroke-linecap:butt;stroke-linejoin:miter;stroke-opacity:1"
           id="path3737" />
        <path
           inkscape:connector-curvature="0"
           id="path3729"
           d="m 2890.5348,1916.2906 c 2.0773,-25.966 2.5966,-34.7945 9.8671,-35.8331 7.2704,-1.0386 12.4636,19.7342 12.983,40.507 0.5193,20.7727 -3.116,36.8717 -10.9058,36.8717 -7.7898,0 -10.9057,-16.099 -11.9443,-41.5456 z"
           style="fill:#dbdbdb;fill-opacity:1;stroke:none;stroke-width:1px;stroke-linecap:butt;stroke-linejoin:miter;stroke-opacity:1" />
      </g>
      <path
         style="fill:#1d1d1d;fill-opacity:1;stroke:none;stroke-width:1px;stroke-linecap:butt;stroke-linejoin:miter;stroke-opacity:1"
         d="m 2742.359,1972.6771 c 73.4429,7.3443 345.9162,30.1116 356.9326,31.5805 11.0165,1.4688 15.4231,8.0787 22.0329,16.8918 6.6099,8.8132 5.141,13.9542 -11.7508,12.4853 -16.8919,-1.4688 -361.3393,-29.3771 -371.6213,-30.846 -10.282,-1.4689 4.4066,-30.1116 4.4066,-30.1116 z"
         id="path3720"
         inkscape:connector-curvature="0" />
      <path
         inkscape:connector-curvature="0"
         id="path3828"
         style="fill:#161616;fill-opacity:1;stroke:none;stroke-width:1px;stroke-linecap:butt;stroke-linejoin:miter;stroke-opacity:1"
         d="m 2740.1562,2052.7305 c -7.2879,-0.4049 -0.5077,17.2634 7.0391,33.207 31.1551,2.374 299.625,32.1801 324.1875,33.625 24.9706,1.4688 24.9707,-1.4676 24.9707,-17.625 0,-4.0514 -0.2779,-9.2184 -0.6699,-15.1504 -104.3687,-11.1703 -342.4808,-33.3319 -355.5274,-34.0566 z" />
      <path
         inkscape:connector-curvature="0"
         id="path841"
         style="fill:#d8d8d8;fill-opacity:1;stroke:none;stroke-width:1px;stroke-linecap:butt;stroke-linejoin:miter;stroke-opacity:1"
         d="m 2442.1309,1590.877 c -78.3561,0.1701 -69.8134,5.2385 -19.2266,23.1093 57.8135,20.4237 62.9022,25.6173 71.082,87.3965 8.1799,61.7793 21.0407,168.4091 25.1231,200.0332 4.0824,31.6239 6.1941,40.4598 19.2851,53.0801 13.0909,12.6202 24.0781,15.67 87.5782,54.5137 63.5003,38.8438 83.8137,63.2903 104.1054,89.9394 20.2917,26.649 14.3532,104.4414 17.961,182.332 3.6078,77.8907 21.262,433.144 21.9941,513.6504 0.7322,80.5063 -30.5534,92.6487 -78.4668,105.6602 -47.9134,13.0115 -172.338,42.3772 -212.6152,45.0801 0,0 -61.0375,873.1359 -32.3887,872.6953 28.6488,-0.4405 312.1907,-4.142 329.0742,-3.2344 16.8835,0.9078 21.2816,1.6878 21.3945,-9.3281 0.1131,-11.0158 -3.7713,-634.62 -3.8203,-701.457 -0.049,-66.8371 -3.8632,-339.3639 -7.6894,-395.9571 -3.8263,-56.5933 -24.4524,-551.8345 -23.168,-605.4375 1.2843,-53.603 -30.6779,-302.9159 -49.1015,-368.4726 -18.4237,-65.5566 -113.1187,-142.178 -232.0899,-143.3985 -14.8714,-0.1525 -27.8375,-0.2294 -39.0312,-0.205 z" />
      <path
         inkscape:connector-curvature="0"
         d="m 1520.6289,2945.8457 c -24.2455,0.1513 -27.6958,5.6404 -25.1113,29.7637 3.4462,32.1641 31.8152,772.4625 32.1562,805.6972 0.3409,33.2348 0.3879,37.9091 33.6172,37.0489 15.214,-0.3939 222.8509,0.1315 442.2793,0.6269 219.4284,-0.4954 427.0653,-1.0208 442.2793,-0.6269 33.2293,0.8602 33.2763,-3.8141 33.6172,-37.0489 0.341,-33.2347 28.71,-773.5331 32.1562,-805.6972 2.5845,-24.1233 -0.8658,-29.6124 -25.1113,-29.7637 -8.0818,-0.05 -18.4727,0.4936 -31.7226,1.1367 -43.4148,2.1071 -279.4907,2.9938 -451.2188,4.793 -171.7281,-1.7992 -407.8039,-2.6859 -451.2187,-4.793 -13.2499,-0.6431 -23.6409,-1.1867 -31.7227,-1.1367 z"
         style="fill:#e5e5e5;fill-opacity:1;stroke:none;stroke-width:1px;stroke-linecap:butt;stroke-linejoin:miter;stroke-opacity:1"
         id="path839" />
      <path
         style="fill:#646464;fill-opacity:1;stroke:none;stroke-width:1px;stroke-linecap:butt;stroke-linejoin:miter;stroke-opacity:1"
         d="m 2649.8209,2200.3502 c 10.282,-35.2526 36.7215,-35.2526 51.4101,-8.8132 14.6885,26.4395 23.5017,164.5122 26.4394,236.4863 2.9377,71.974 11.7509,271.7388 11.7509,317.2734 0,45.5346 -8.8132,102.8201 -55.8166,117.5087 -47.0035,14.6886 -92.5381,23.5017 -117.5087,29.3772 -24.9706,5.8754 -39.6592,8.8131 -33.7838,-24.9706 5.8755,-33.7838 108.6956,-624.2649 117.5087,-666.8618 z"
         id="path3694"
         inkscape:connector-curvature="0" />
      <path
         inkscape:connector-curvature="0"
         d="m 2003.5703,1631.9961 c -119.127,2.5367 -347.3681,7.8103 -392.1387,14.5937 -48.4723,7.3443 -66.0988,14.6901 -76.3808,113.1036 -10.282,98.4135 -14.6873,148.353 8.8144,154.2285 23.5018,5.8754 126.3213,13.2207 220.3282,13.2207 67.6271,0 176.2947,-0.7511 239.3769,-1.1778 63.0822,0.4267 171.7499,1.1778 239.377,1.1778 94.0069,0 196.8263,-7.3453 220.3281,-13.2207 23.5017,-5.8755 19.0964,-55.815 8.8144,-154.2285 -10.282,-98.4135 -27.9085,-105.7593 -76.3808,-113.1036 -44.7706,-6.7834 -273.0117,-12.057 -392.1387,-14.5937 z"
         style="fill:#1f1f1f;fill-opacity:1;stroke:none;stroke-width:1px;stroke-linecap:butt;stroke-linejoin:miter;stroke-opacity:1"
         id="path3704" />
      <path
         inkscape:connector-curvature="0"
         d="m 2003.5703,1673.3672 c -114.1795,0.7052 -301.7595,4.9839 -348.9492,14.4219 -51.932,10.3864 -70.6265,32.1977 -78.9356,110.0957 -8.3092,77.898 4.1535,91.4012 55.0469,93.4785 44.2527,1.8062 293.8753,-0.2168 372.8379,-0.8008 78.9626,0.584 328.5852,2.607 372.8379,0.8008 50.8934,-2.0773 63.3561,-15.5805 55.0469,-93.4785 -8.3091,-77.898 -27.0036,-99.7093 -78.9356,-110.0957 -47.1897,-9.438 -234.7697,-13.7167 -348.9492,-14.4219 z"
         style="fill:#313131;fill-opacity:1;stroke:none;stroke-width:1px;stroke-linecap:butt;stroke-linejoin:miter;stroke-opacity:1"
         id="path3706" />
      <path
         style="fill:#1d1d1d;fill-opacity:1;stroke:none;stroke-width:1px;stroke-linecap:butt;stroke-linejoin:miter;stroke-opacity:1"
         d="m 2363.6211,3365.0526 c 58.6105,1.0106 59.621,10.1053 60.6315,79.8316 1.0106,69.7263 1.0106,144.5053 0,181.8948 -1.0105,37.3894 -1.0105,55.5789 -48.5052,55.5789 -47.4948,0 -99.0316,0 -133.3895,1.0105 -34.3579,1.0106 -50.5263,-8.0842 -52.5474,-57.6 -2.021,-49.5158 -1.0105,-161.6842 1.0106,-203.1158 2.021,-41.4315 3.0315,-55.5789 42.4421,-57.6 39.4105,-2.021 91.9579,-1.0105 130.3579,0 z"
         id="path3870"
         inkscape:connector-curvature="0" />
      <path
         style="fill:#2a2a2a;fill-opacity:1;stroke:none;stroke-width:1px;stroke-linecap:butt;stroke-linejoin:miter;stroke-opacity:1"
         d="m 2220.8214,3432.6983 c 1.4291,-27.1529 5.7164,-27.8675 29.2966,-29.2966 23.5801,-1.4291 107.1825,-1.4291 123.6171,0 16.4347,1.4291 23.5802,10.7183 24.2947,30.7257 0.7146,20.0074 -0.7145,180.0666 -0.7145,197.2158 0,17.1492 -5.0019,24.2947 -22.1511,25.0092 -17.1492,0.7146 -121.6171,1.4291 -138.7663,0.7146 -17.1492,-0.7146 -16.4347,-7.1455 -16.4347,-27.1529 0,-20.0074 -0.5709,-168.6338 0.8582,-197.2158 z"
         id="path3878"
         inkscape:connector-curvature="0"
         sodipodi:nodetypes="csssssssc" />
      <path
         style="fill:#dddddd;fill-opacity:1;stroke:none;stroke-width:1px;stroke-linecap:butt;stroke-linejoin:miter;stroke-opacity:1"
         d="m 2237.2561,3474.8567 c 1.4291,-42.1584 2.8582,-45.7312 17.8637,-46.4457 15.0056,-0.7146 85.0315,-0.7146 102.1807,0 17.1492,0.7145 23.5801,5.7164 24.2947,45.0166 0.7145,39.3003 -2.1437,45.0167 -12.8619,45.7312 -10.7183,0.7146 -88.6042,1.4291 -103.6098,0.7146 -15.0055,-0.7146 -27.1529,5.0018 -27.8674,-45.0167 z"
         id="path3872"
         inkscape:connector-curvature="0" />
      <path
         style="fill:#9f3638;fill-opacity:1;stroke:none;stroke-width:1px;stroke-linecap:butt;stroke-linejoin:miter;stroke-opacity:1"
         d="m 2249.9368,3592.9263 c 0,-51.0316 3.5369,-53.5578 32.3369,-54.5684 28.8,-1.0105 32.3368,4.5474 33.8526,52.0421 1.5158,47.4947 4.5474,51.0316 -28.2947,50.5263 -32.8421,-0.5052 -36.8842,-3.0316 -37.8948,-48 z"
         id="path3874"
         inkscape:connector-curvature="0"
         sodipodi:nodetypes="csssc" />
      <path
         style="fill:#c17d2f;fill-opacity:1;stroke:none;stroke-width:1px;stroke-linecap:butt;stroke-linejoin:miter;stroke-opacity:1"
         d="m 2317.1368,3591.9158 c -1.7765,-52.0443 3.0316,-53.5579 21.7264,-53.5579 18.6947,0 22.2315,5.5579 22.7368,52.0421 0.5053,46.4842 0.5053,53.5579 -21.7263,52.5474 -22.2316,-1.0106 -21.065,-2.0496 -22.7369,-51.0316 z"
         id="path3876"
         inkscape:connector-curvature="0"
         sodipodi:nodetypes="sssss" />
      <path
         inkscape:connector-curvature="0"
         d="m 2003.5703,1127.1309 c -37.8224,0.966 -106.296,1.6711 -151.8828,5.6699 -57.6,5.0526 -61.6415,14.1476 -70.7363,46.4844 -9.0947,32.3369 -26.2734,133.3893 -21.2207,181.8945 5.0526,48.5053 27.2833,72.757 86.9043,73.7676 25.5679,0 106.1512,3.9818 156.9355,2.3164 50.7843,1.6654 131.3677,-2.3164 156.9356,-2.3164 59.621,-1.0106 81.8517,-25.2623 86.9043,-73.7676 5.0527,-48.5052 -12.126,-149.5576 -21.2207,-181.8945 -9.0948,-32.3368 -13.1364,-41.4318 -70.7364,-46.4844 -45.5868,-3.9988 -114.0604,-4.7039 -151.8828,-5.6699 z"
         style="fill:#393939;fill-opacity:1;stroke:none;stroke-width:1px;stroke-linecap:butt;stroke-linejoin:miter;stroke-opacity:1"
         id="path3942" />
    </g>
    <g
       transform="matrix(-1,0,0,1,4007.1401,0)"
       id="g4104">
      <path
         inkscape:connector-curvature="0"
         id="path4012"
         d="m 2739.932,2070.0093 334.442,41.5456 24.9176,1278.5707 v 705.0522 l -352.526,14.6886 z"
         style="fill:#181818;fill-opacity:1;stroke:none;stroke-width:1px;stroke-linecap:butt;stroke-linejoin:miter;stroke-opacity:1" />
      <path
         inkscape:connector-curvature="0"
         id="path4014"
         d="m 3090.9923,2088.7048 c 12.4636,51.932 12.4636,114.2504 13.5023,154.7573 1.0386,40.507 12.4637,321.9784 14.5409,385.3354 2.0773,63.3571 9.3478,596.1793 10.3864,702.1206 1.0387,105.9412 0,670.9613 0,697.966 0,27.0046 2.0773,46.7388 1.0387,56.0865 -1.0387,9.3478 -89.323,-4.1545 -89.323,-4.1545 l -4.1546,-576.4452 -9.3478,-1413.5888 z"
         style="fill:#1d1d1d;fill-opacity:1;stroke:none;stroke-width:1px;stroke-linecap:butt;stroke-linejoin:miter;stroke-opacity:1" />
      <path
         inkscape:connector-curvature="0"
         id="path4016"
         d="m 3093.4162,2021.8839 c -1.4688,30.1116 2.9377,63.8953 2.9377,80.0528 0,16.1574 0,19.0951 -24.9706,17.6263 -24.9706,-1.4689 -302.5848,-32.3149 -326.0866,-33.7838 -23.5017,-1.4688 0,-94.0069 0,-94.0069 z"
         style="fill:#436433;fill-opacity:1;stroke:none;stroke-width:1px;stroke-linecap:butt;stroke-linejoin:miter;stroke-opacity:1" />
      <path
         inkscape:connector-curvature="0"
         id="path4018"
         d="m 2480.9022,1590.7739 c 306.9914,30.846 537.6022,52.8789 571.386,129.2595 33.7837,76.3807 49.9412,227.6731 52.8789,261.4568 2.9377,33.7838 -11.7509,39.6592 -26.4395,39.6592 -14.6886,0 -351.0572,-29.3771 -351.0572,-29.3771 z"
         style="fill:#5a8644;fill-opacity:1;stroke:none;stroke-width:1px;stroke-linecap:butt;stroke-linejoin:miter;stroke-opacity:1" />
      <path
         inkscape:connector-curvature="0"
         id="path4026"
         d="m 2712.9274,4154.5595 c -58.1639,0 -61.2798,0 -66.473,-30.1206 -5.1932,-30.1205 -7.2705,-58.1638 -7.2705,-70.6275 0,-12.4636 59.2025,37.3911 59.2025,37.3911 z"
         style="fill:#252525;fill-opacity:1;stroke:none;stroke-width:1px;stroke-linecap:butt;stroke-linejoin:miter;stroke-opacity:1" />
      <g
         style="fill:#ab9c41;fill-opacity:1"
         id="g4036">
        <path
           style="fill:#ab9c41;fill-opacity:1;stroke:none;stroke-width:1px;stroke-linecap:butt;stroke-linejoin:miter;stroke-opacity:1"
           d="m 2784.0742,4071.9876 c 11.425,-0.5193 12.4637,0 12.4637,-15.0602 0,-15.0603 -2.5966,-169.8177 -3.116,-178.6461 -0.5193,-8.8284 -6.7511,-138.1391 -6.7511,-138.1391 0,0 2.6917,-308.8885 4.895,-358.8297 2.2033,-49.9412 7.3443,-285.693 6.6098,-318.0079 -0.7344,-32.3149 0,-471.5036 0.7345,-516.3038 0.7344,-44.8002 1.7823,-402.7288 1.7823,-414.6731 0,-11.9444 -3.1159,-16.6183 -27.0046,-19.2149 -23.8887,-2.5966 -19.7342,7.2705 -20.7728,20.7728 -1.0386,13.5023 21.7589,1215.112 21.7589,1215.112 z"
           id="path4028"
           inkscape:connector-curvature="0" />
        <path
           sodipodi:nodetypes="cssssssssssssssssc"
           style="fill:#ab9c41;fill-opacity:1;stroke:none;stroke-width:1px;stroke-linecap:butt;stroke-linejoin:miter;stroke-opacity:1"
           d="m 2903.199,4041.5644 c -0.7344,17.6263 -0.7344,18.3608 12.4853,18.3608 13.2197,0 40.7608,-1.4689 49.9412,-1.8361 9.1804,-0.3672 9.1804,-2.5705 9.5476,-15.7902 0.3672,-13.2198 1.4689,-93.6398 1.1016,-103.1873 -0.3672,-9.5476 -2.5705,-9.5476 -19.0951,-9.5476 -16.5247,0 -22.0329,-1.8361 -22.0329,-17.6263 0,-15.7903 0.3672,-77.1151 0.7344,-84.4594 0.3672,-7.3443 2.5705,-8.8132 19.0952,-9.9148 16.5246,-1.1016 19.8296,-1.8361 19.8296,-8.4459 0,-6.6099 1.936,-236.1964 2.4553,-284.4932 0.5193,-48.2967 4.6739,-1143.0232 3.6352,-1183.5301 -1.0386,-40.507 1.0387,-176.8006 0.5194,-187.7064 -0.5194,-10.9057 -2.5194,-11.9443 -30.0433,-15.5796 -27.524,-3.6352 -42.5842,-7.867 -43.6229,5.6353 -1.0386,13.5023 1.4807,414.7264 0.4421,456.272 -1.0387,41.5456 -5.1932,865.187 -4.1546,923.3509 1.0386,58.1638 -1.6762,493.7873 -0.8381,518.4979 z"
           id="path4030"
           inkscape:connector-curvature="0" />
        <path
           style="fill:#ab9c41;fill-opacity:1;stroke:none;stroke-width:1px;stroke-linecap:butt;stroke-linejoin:miter;stroke-opacity:1"
           d="m 2980.3771,4042.3864 c 0.5193,11.425 2.5966,13.5023 11.9444,13.5023 9.3477,0 40.5069,-1.5579 48.2967,-2.0773 7.7898,-0.5193 13.5024,-0.5193 14.541,-13.5023 1.0386,-12.983 1.558,-140.2164 1.558,-182.2813 0,-42.0649 2.0772,-282.51 2.0772,-343.7898 0,-61.2797 -0.5193,-332.3647 -0.5193,-353.1375 0,-20.7728 5.1932,-894.269 5.7125,-914.5224 0.5194,-20.2535 2.0773,-71.6662 2.0773,-83.0912 0,-11.4251 2.0773,-17.1376 -33.2365,-20.2535 -35.3137,-3.1159 -42.5842,-4.1546 -43.1035,13.5023 -0.5193,17.6569 -3.1159,601.3725 -3.6353,632.0124 -0.5193,30.6398 -3.1159,462.1947 -3.6352,489.1993 -0.5193,27.0047 -2.0773,517.762 -2.0773,527.1098 0,9.3477 4.6739,12.4637 22.3308,12.4637 17.6569,0 21.8114,-0.5194 22.3307,14.0216 0.5194,14.541 1.0387,69.0696 0,81.0139 -1.0386,11.9444 -2.5966,16.6183 -22.3307,17.6569 -19.7342,1.0386 -20.7728,2.5966 -20.7728,12.983 0,10.3864 -1.558,85.1685 -1.558,99.1901 z"
           id="path4032"
           inkscape:connector-curvature="0" />
        <path
           style="fill:#ab9c41;fill-opacity:1;stroke:none;stroke-width:1px;stroke-linecap:butt;stroke-linejoin:miter;stroke-opacity:1"
           d="m 2799.1345,4056.9274 c 0.5193,15.0602 1.0386,15.0602 14.0216,15.0602 12.983,0 50.374,-1.5579 63.357,-2.0772 12.983,-0.5194 14.541,-2.5966 15.0603,-18.6956 0.5193,-16.0989 2.5966,-225.3848 3.1159,-256.0247 0.5194,-30.6399 4.1546,-1158.0835 4.1546,-1228.711 0,-70.6275 2.1518,-398.4438 2.1518,-413.8668 0,-15.423 5.141,-20.564 -38.9247,-27.1739 -44.0658,-6.6099 -54.3478,-8.0787 -55.0822,10.282 -0.7344,18.3607 -2.9377,197.5615 -2.2033,221.7977 0.7344,24.2361 0,309.9291 -0.7344,348.1194 -0.7345,38.1904 -2.9378,656.5798 -2.2033,705.7866 0.7344,49.2068 0.7344,384.1065 0,397.3262 -0.7345,13.2198 2.2033,16.8919 21.2984,17.6264 19.0952,0.7344 24.9706,0.7344 25.7051,16.8918 0.7344,16.1575 1.4688,59.4888 0.7344,74.9118 -0.7344,15.423 -4.4066,21.2985 -24.9706,22.7673 -20.564,1.4689 -21.8454,2.768 -22.884,14.7124 -1.0387,11.9443 -2.5966,84.6491 -2.5966,101.2674 z"
           id="path4034"
           inkscape:connector-curvature="0" />
      </g>
      <path
         sodipodi:nodetypes="ssssss"
         inkscape:connector-curvature="0"
         id="path4038"
         d="m 3097.8228,4062.1285 c 28.7243,-0.4177 32.8974,-4.6818 33.1571,22.3228 0.2597,27.0047 0.5193,29.8609 -23.1097,31.4189 -23.6291,1.5579 -327.4313,36.612 -344.0495,36.612 -16.6182,0 -7.7898,-70.6275 15.0603,-72.7048 22.8501,-2.0772 295.1375,-17.3027 318.9418,-17.6489 z"
         style="fill:#6c6c6c;fill-opacity:1;stroke:none;stroke-width:1px;stroke-linecap:butt;stroke-linejoin:miter;stroke-opacity:1" />
      <path
         sodipodi:nodetypes="csssssssc"
         inkscape:connector-curvature="0"
         id="path4040"
         d="m 2470.9243,3797.2674 c 12.4636,79.9753 44.6615,234.7326 50.8933,255.5054 6.2319,20.7728 14.541,23.8887 38.4297,23.8887 23.8887,0 81.0414,-0.3723 97.6321,1.0387 12.2117,1.0386 21.9422,5.5532 27.0047,39.4683 5.4452,36.4784 6.8618,38.4296 47.7774,37.391 51.9257,-1.3181 52.9706,-3.1159 55.0479,-29.0819 2.0773,-25.966 10.3864,-302.2442 10.3864,-327.1716 0,-24.9273 -327.1715,-1.0386 -327.1715,-1.0386 z"
         style="fill:#323232;fill-opacity:1;stroke:none;stroke-width:1px;stroke-linecap:butt;stroke-linejoin:miter;stroke-opacity:1" />
      <path
         sodipodi:nodetypes="sscssssssssssssssssssssssssscssssss"
         inkscape:connector-curvature="0"
         d="m 2772.1426,2189.334 c -8.0788,0 -14.3604,-3e-4 -27.5801,2.9375 -13.2197,2.9377 -7.3437,298.9121 -7.3437,298.9121 0,0 50.6756,349.588 51.4101,322.4141 0.7344,-27.1738 0.7344,-346.65 0.7344,-431.8438 0,-22.7673 0.7344,-116.0403 0,-152.0273 -0.7344,-35.987 -9.142,-40.3926 -17.2207,-40.3926 z m 61.5937,9.0781 c -17.4844,-0.1335 -19.1076,4.6544 -19.541,11.8145 -0.7344,12.1333 -2.0781,79.4552 -2.0781,108.5371 0,29.0819 -1.457,573.419 -1.457,611.6093 0,38.1903 -1.7698,603.0024 -1.6582,622.8145 0.079,14.0215 0.5186,15.5784 22.33,16.0977 21.8114,0.5194 47.2591,7.7897 50.375,-91.4004 3.116,-99.1901 3.8653,-527.682 3.1309,-601.8594 -0.7344,-74.1773 0.7344,-531.7271 -0.7344,-577.9961 -1.4689,-46.2691 -4.4736,-95.593 -35.6328,-98.709 -5.8423,-0.5842 -10.6995,-0.8774 -14.7344,-0.9082 z m 117.3047,3.9629 c -13.9671,0.2008 -30.6756,7.4303 -33.8887,78.7617 -3.6722,81.5217 -1.0027,1137.6275 -1.4687,1171.416 -1.0028,72.7053 8.8129,109.4297 29.3769,109.4297 20.564,0 21.2988,-2.204 22.0333,-16.8926 0.7343,-14.6886 4.4062,-1296.2682 4.4062,-1313.8945 0,-17.6263 0,-27.9082 -14.6875,-28.6426 -1.8361,-0.092 -3.7762,-0.2064 -5.7715,-0.1777 z m 55.7988,6.6641 c -9.9205,-0.065 -9.1756,5.0811 -10.3691,17.0156 -1.4688,14.6886 -8.0781,1294.799 -8.0781,1319.0351 0.7344,19.0952 -0.7337,22.0332 16.1582,22.0332 16.8918,0 34.5172,-5.8761 39.6582,-44.0664 5.1411,-38.1904 3.6719,-302.5842 3.6719,-351.791 0,-49.2067 2.2031,-809.3417 2.2031,-863.6894 0,-54.3478 -15.4224,-94.7401 -34.5176,-97.6778 -3.5803,-0.5508 -6.4372,-0.8443 -8.7266,-0.8593 z"
         style="fill:#313131;fill-opacity:1;stroke:none;stroke-width:1px;stroke-linecap:butt;stroke-linejoin:miter;stroke-opacity:1"
         id="path4050" />
      <g
         id="g4076">
        <path
           style="fill:#576f46;fill-opacity:1;stroke:none;stroke-width:1px;stroke-linecap:butt;stroke-linejoin:miter;stroke-opacity:1"
           d="m 2892.6121,1920.4451 -121.5209,58.6832 125.1561,14.0216 5.1932,-70.6275 z"
           id="path4054"
           inkscape:connector-curvature="0" />
        <path
           style="fill:#4c613d;fill-opacity:1;stroke:none;stroke-width:1px;stroke-linecap:butt;stroke-linejoin:miter;stroke-opacity:1"
           d="m 2896.7666,1945.3725 -18.6955,46.2195 37.9104,0.5193 z"
           id="path4056"
           inkscape:connector-curvature="0" />
        <path
           id="path4058"
           style="fill:#688757;fill-opacity:1;stroke:none;stroke-width:1px;stroke-linecap:butt;stroke-linejoin:miter;stroke-opacity:1"
           d="m 3099.1621,1927.1465 -11.2851,4.2051 -34.9473,83.7695 20.4765,1.7129 20.6368,0.8242 c 7.7837,-4.6134 12.9828,-14.8023 11.125,-36.168 -0.8515,-9.792 -2.8245,-29.4926 -6.0059,-54.3437 z"
           inkscape:connector-curvature="0" />
        <path
           id="path4060"
           style="fill:#789667;fill-opacity:1;stroke:none;stroke-width:1px;stroke-linecap:butt;stroke-linejoin:miter;stroke-opacity:1"
           d="m 2982.4805,1834.1875 18.1504,171.4258 30.1211,1.5586 8.914,-166.4004 z"
           inkscape:connector-curvature="0" />
        <path
           style="fill:#58684a;fill-opacity:1;stroke:none;stroke-width:1px;stroke-linecap:butt;stroke-linejoin:miter;stroke-opacity:1"
           d="m 2901.9598,1943.2952 -5.7125,56.6059 57.1252,0.5193 -37.391,-59.7218 z"
           id="path4062"
           inkscape:connector-curvature="0" />
        <path
           id="path4064"
           style="fill:#749558;fill-opacity:1;stroke:none;stroke-width:1px;stroke-linecap:butt;stroke-linejoin:miter;stroke-opacity:1"
           d="m 2909.2598,1825.7598 -8.3379,67.1621 4.6738,44.6601 33.7559,60.2422 67.5117,5.7129 -13.3887,-168.084 z"
           inkscape:connector-curvature="0" />
        <path
           id="path4066"
           style="fill:#789667;fill-opacity:1;stroke:none;stroke-width:1px;stroke-linecap:butt;stroke-linejoin:miter;stroke-opacity:1"
           d="m 2852.6035,1819.2383 35.8535,86.1465 15.0606,-7.2696 16.1719,-71.1543 z"
           inkscape:connector-curvature="0" />
        <path
           id="path4068"
           style="fill:#576f46;fill-opacity:1;stroke:none;stroke-width:1px;stroke-linecap:butt;stroke-linejoin:miter;stroke-opacity:1"
           d="m 2804.9395,1813.752 -0.6114,20.4863 91.4004,87.2461 4.6738,-15.5801 -23.3398,-83.8516 z"
           inkscape:connector-curvature="0" />
        <path
           id="path4070"
           style="fill:#4c613d;fill-opacity:1;stroke:none;stroke-width:1px;stroke-linecap:butt;stroke-linejoin:miter;stroke-opacity:1"
           d="m 2719.4746,1803.9141 14.7442,178.8496 42.5839,3.1152 117.8868,-57.125 1.039,-17.6562 -80.2734,-96.1368 z"
           inkscape:connector-curvature="0" />
        <path
           id="path4072"
           style="fill:#6f945c;fill-opacity:1;stroke:none;stroke-width:1px;stroke-linecap:butt;stroke-linejoin:miter;stroke-opacity:1"
           d="m 3032.8867,1839.9902 -12.5215,170.2969 51.4121,-3.1152 28.4981,-71.0196 c -3.0997,-25.305 -7.5496,-57.0865 -13.5859,-89.9687 z"
           inkscape:connector-curvature="0" />
        <path
           style="fill:#dbdbdb;fill-opacity:1;stroke:none;stroke-width:1px;stroke-linecap:butt;stroke-linejoin:miter;stroke-opacity:1"
           d="m 2890.5348,1916.2906 c 2.0773,-25.966 2.5966,-34.7945 9.8671,-35.8331 7.2704,-1.0386 12.4636,19.7342 12.983,40.507 0.5193,20.7727 -3.116,36.8717 -10.9058,36.8717 -7.7898,0 -10.9057,-16.099 -11.9443,-41.5456 z"
           id="path4074"
           inkscape:connector-curvature="0" />
      </g>
      <path
         inkscape:connector-curvature="0"
         id="path4078"
         d="m 2742.359,1972.6771 c 73.4429,7.3443 345.9162,30.1116 356.9326,31.5805 11.0165,1.4688 15.4231,8.0787 22.0329,16.8918 6.6099,8.8132 5.141,13.9542 -11.7508,12.4853 -16.8919,-1.4688 -361.3393,-29.3771 -371.6213,-30.846 -10.282,-1.4689 4.4066,-30.1116 4.4066,-30.1116 z"
         style="fill:#1d1d1d;fill-opacity:1;stroke:none;stroke-width:1px;stroke-linecap:butt;stroke-linejoin:miter;stroke-opacity:1" />
      <path
         inkscape:connector-curvature="0"
         d="m 2740.1562,2052.7305 c -7.2879,-0.4049 -0.5077,17.2634 7.0391,33.207 31.1551,2.374 299.625,32.1801 324.1875,33.625 24.9706,1.4688 24.9707,-1.4676 24.9707,-17.625 0,-4.0514 -0.2779,-9.2184 -0.6699,-15.1504 -104.3687,-11.1703 -342.4808,-33.3319 -355.5274,-34.0566 z"
         style="fill:#161616;fill-opacity:1;stroke:none;stroke-width:1px;stroke-linecap:butt;stroke-linejoin:miter;stroke-opacity:1"
         id="path4080" />
      <path
         inkscape:connector-curvature="0"
         d="m 2442.1309,1590.877 c -78.3561,0.1701 -69.8134,5.2385 -19.2266,23.1093 57.8135,20.4237 62.9022,25.6173 71.082,87.3965 8.1799,61.7793 21.0407,168.4091 25.1231,200.0332 4.0824,31.6239 6.1941,40.4598 19.2851,53.0801 13.0909,12.6202 24.0781,15.67 87.5782,54.5137 63.5003,38.8438 83.8137,63.2903 104.1054,89.9394 20.2917,26.649 14.3532,104.4414 17.961,182.332 3.6078,77.8907 21.262,433.144 21.9941,513.6504 0.7322,80.5063 -30.5534,92.6487 -78.4668,105.6602 -47.9134,13.0115 -172.338,42.3772 -212.6152,45.0801 0,0 -61.0375,873.1359 -32.3887,872.6953 28.6488,-0.4405 312.1907,-4.142 329.0742,-3.2344 16.8835,0.9078 21.2816,1.6878 21.3945,-9.3281 0.1131,-11.0158 -3.7713,-634.62 -3.8203,-701.457 -0.049,-66.8371 -3.8632,-339.3639 -7.6894,-395.9571 -3.8263,-56.5933 -24.4524,-551.8345 -23.168,-605.4375 1.2843,-53.603 -30.6779,-302.9159 -49.1015,-368.4726 -18.4237,-65.5566 -113.1187,-142.178 -232.0899,-143.3985 -14.8714,-0.1525 -27.8375,-0.2294 -39.0312,-0.205 z"
         style="fill:#d8d8d8;fill-opacity:1;stroke:none;stroke-width:1px;stroke-linecap:butt;stroke-linejoin:miter;stroke-opacity:1"
         id="path4082" />
      <path
         inkscape:connector-curvature="0"
         id="path4086"
         d="m 2649.8209,2200.3502 c 10.282,-35.2526 36.7215,-35.2526 51.4101,-8.8132 14.6885,26.4395 23.5017,164.5122 26.4394,236.4863 2.9377,71.974 11.7509,271.7388 11.7509,317.2734 0,45.5346 -8.8132,102.8201 -55.8166,117.5087 -47.0035,14.6886 -92.5381,23.5017 -117.5087,29.3772 -24.9706,5.8754 -39.6592,8.8131 -33.7838,-24.9706 5.8755,-33.7838 108.6956,-624.2649 117.5087,-666.8618 z"
         style="fill:#646464;fill-opacity:1;stroke:none;stroke-width:1px;stroke-linecap:butt;stroke-linejoin:miter;stroke-opacity:1" />
      <path
         inkscape:connector-curvature="0"
         id="path4092"
         d="m 2363.6211,3365.0526 c 58.6105,1.0106 59.621,10.1053 60.6315,79.8316 1.0106,69.7263 1.0106,144.5053 0,181.8948 -1.0105,37.3894 -1.0105,55.5789 -48.5052,55.5789 -47.4948,0 -99.0316,0 -133.3895,1.0105 -34.3579,1.0106 -50.5263,-8.0842 -52.5474,-57.6 -2.021,-49.5158 -1.0105,-161.6842 1.0106,-203.1158 2.021,-41.4315 3.0315,-55.5789 42.4421,-57.6 39.4105,-2.021 91.9579,-1.0105 130.3579,0 z"
         style="fill:#1d1d1d;fill-opacity:1;stroke:none;stroke-width:1px;stroke-linecap:butt;stroke-linejoin:miter;stroke-opacity:1" />
      <path
         sodipodi:nodetypes="csssssssc"
         inkscape:connector-curvature="0"
         id="path4094"
         d="m 2220.8214,3432.6983 c 1.4291,-27.1529 5.7164,-27.8675 29.2966,-29.2966 23.5801,-1.4291 107.1825,-1.4291 123.6171,0 16.4347,1.4291 23.5802,10.7183 24.2947,30.7257 0.7146,20.0074 -0.7145,180.0666 -0.7145,197.2158 0,17.1492 -5.0019,24.2947 -22.1511,25.0092 -17.1492,0.7146 -121.6171,1.4291 -138.7663,0.7146 -17.1492,-0.7146 -16.4347,-7.1455 -16.4347,-27.1529 0,-20.0074 -0.5709,-168.6338 0.8582,-197.2158 z"
         style="fill:#2a2a2a;fill-opacity:1;stroke:none;stroke-width:1px;stroke-linecap:butt;stroke-linejoin:miter;stroke-opacity:1" />
      <path
         inkscape:connector-curvature="0"
         id="path4096"
         d="m 2237.2561,3474.8567 c 1.4291,-42.1584 2.8582,-45.7312 17.8637,-46.4457 15.0056,-0.7146 85.0315,-0.7146 102.1807,0 17.1492,0.7145 23.5801,5.7164 24.2947,45.0166 0.7145,39.3003 -2.1437,45.0167 -12.8619,45.7312 -10.7183,0.7146 -88.6042,1.4291 -103.6098,0.7146 -15.0055,-0.7146 -27.1529,5.0018 -27.8674,-45.0167 z"
         style="fill:#dddddd;fill-opacity:1;stroke:none;stroke-width:1px;stroke-linecap:butt;stroke-linejoin:miter;stroke-opacity:1" />
      <path
         sodipodi:nodetypes="csssc"
         inkscape:connector-curvature="0"
         id="path4098"
         d="m 2249.9368,3592.9263 c 0,-51.0316 3.5369,-53.5578 32.3369,-54.5684 28.8,-1.0105 32.3368,4.5474 33.8526,52.0421 1.5158,47.4947 4.5474,51.0316 -28.2947,50.5263 -32.8421,-0.5052 -36.8842,-3.0316 -37.8948,-48 z"
         style="fill:#9f3638;fill-opacity:1;stroke:none;stroke-width:1px;stroke-linecap:butt;stroke-linejoin:miter;stroke-opacity:1" />
      <path
         sodipodi:nodetypes="sssss"
         inkscape:connector-curvature="0"
         id="path4100"
         d="m 2317.1368,3591.9158 c -1.7765,-52.0443 3.0316,-53.5579 21.7264,-53.5579 18.6947,0 22.2315,5.5579 22.7368,52.0421 0.5053,46.4842 0.5053,53.5579 -21.7263,52.5474 -22.2316,-1.0106 -21.065,-2.0496 -22.7369,-51.0316 z"
         style="fill:#c17d2f;fill-opacity:1;stroke:none;stroke-width:1px;stroke-linecap:butt;stroke-linejoin:miter;stroke-opacity:1" />
    </g>
    <path
       sodipodi:nodetypes="sssssssss"
       inkscape:connector-curvature="0"
       id="path4130"
       d="m 3106.8635,1483.4058 c -0.4135,42.1807 -0.7146,79.3151 -58.5931,81.4587 -57.8786,2.1437 -378.7116,0 -410.8663,-1.4291 -32.1548,-1.4291 -56.4495,-9.2891 -53.5913,-72.1695 2.8582,-62.8804 11.4328,-118.6153 17.1492,-139.3373 5.7164,-20.7219 9.2892,-30.7256 64.3095,-31.4402 55.0204,-0.7145 332.9803,0 368.7079,2.1437 35.7275,2.1436 56.4494,0.7145 61.4513,32.1547 5.0018,31.4402 11.7341,97.8866 11.4328,128.619 z"
       style="fill:#262626;fill-opacity:1;stroke:none;stroke-width:1px;stroke-linecap:butt;stroke-linejoin:miter;stroke-opacity:1" />
    <path
       sodipodi:nodetypes="sssssssss"
       inkscape:connector-curvature="0"
       id="path4132"
       d="m 2620.2549,1378.367 c 8.1154,-34.306 16.4346,-39.3003 57.8785,-40.0148 41.4439,-0.7146 325.1203,2.8582 352.9877,3.5727 27.8675,0.7146 46.4458,6.431 50.0186,41.4439 3.5727,35.013 7.86,80.0296 5.7164,103.6098 -2.1437,23.5801 3.5727,48.5894 -48.5894,50.0185 -52.1622,1.4291 -360.1333,0 -393.7171,-2.8582 -33.5839,-2.8582 -39.3003,-12.8619 -39.3003,-31.4402 0,-18.5783 7.3518,-91.977 15.0056,-124.3317 z"
       style="fill:#171717;fill-opacity:1;stroke:none;stroke-width:1px;stroke-linecap:butt;stroke-linejoin:miter;stroke-opacity:1" />
    <path
       inkscape:connector-curvature="0"
       id="path4674"
       d="m 2008.7298,3170.1509 c 0,-98.5164 61.2398,-119.8172 236.9718,-122.4797 175.7319,-2.6627 186.3822,45.2642 189.0449,98.5162 2.6626,53.2521 13.313,127.805 -191.7076,127.805 -205.0205,0 -228.9839,-13.313 -234.3091,-103.8415 z"
       style="fill:#d6d6d6;fill-opacity:1;stroke:none;stroke-width:1.16836px;stroke-linecap:butt;stroke-linejoin:miter;stroke-opacity:1" />
  </g>
</svg>
