<?xml version="1.0" encoding="UTF-8" standalone="no"?>
<svg
   xmlns:dc="http://purl.org/dc/elements/1.1/"
   xmlns:cc="http://creativecommons.org/ns#"
   xmlns:rdf="http://www.w3.org/1999/02/22-rdf-syntax-ns#"
   xmlns:svg="http://www.w3.org/2000/svg"
   xmlns="http://www.w3.org/2000/svg"
   width="1233.0176mm"
   height="488.23764mm"
   viewBox="0 0 1233.0176 488.23764"
   version="1.1"
   id="svg8">
  <defs
     id="defs2" />
  <metadata
     id="metadata5">
    <rdf:RDF>
      <cc:Work
         rdf:about="">
        <dc:format>image/svg+xml</dc:format>
        <dc:type
           rdf:resource="http://purl.org/dc/dcmitype/StillImage" />
        <dc:title></dc:title>
      </cc:Work>
    </rdf:RDF>
  </metadata>
  <path
     id="path1297"
     d="m 388.67861,429.00295 c 3.98645,39.2 11.29493,57.80341 62.45426,56.47459 51.15935,-1.32881 59.13225,-32.55594 60.46107,-51.15935 1.32879,-18.60339 -122.91533,-5.31524 -122.91533,-5.31524 z"
     style="fill:#111111;fill-opacity:1;stroke:none;stroke-width:0.264583px;stroke-linecap:butt;stroke-linejoin:miter;stroke-opacity:1" />
  <path
     id="path1293"
     d="m 150.94433,439.60776 c 17.14795,0 26.30918,0.4698 31.24215,-0.46982 4.93297,-0.93961 56.84664,-98.4245 56.84664,-98.4245 l -74.46439,-8.92635 c 0,0 -29.59783,104.53201 -13.6244,107.82067 z"
     style="fill:#191919;fill-opacity:1;stroke:none;stroke-width:0.264583px;stroke-linecap:butt;stroke-linejoin:miter;stroke-opacity:1" />
  <path
     id="path1295"
     d="m 203.32779,359.03589 c 12.60495,0.0382 24.73039,-0.294 26.80666,0.0382 2.07627,0.33221 10.42554,38.60343 10.42554,38.60343 l -13.85931,1.05706 z"
     style="fill:#2a2a2a;fill-opacity:1;stroke:none;stroke-width:0.264583px;stroke-linecap:butt;stroke-linejoin:miter;stroke-opacity:1" />
  <path
     id="path1291"
     d="m 203.09288,486.11863 c 31.59452,-0.4698 61.89704,-0.11745 69.7663,-1.40941 7.86927,-1.29199 22.55073,-10.80556 21.37622,-43.45715 -1.17451,-32.65157 -65.30314,-12.21497 -65.30314,-12.21497 z"
     style="fill:#151515;fill-opacity:1;stroke:none;stroke-width:0.264583px;stroke-linecap:butt;stroke-linejoin:miter;stroke-opacity:1" />
  <path
     id="path1267"
     d="m 203.32779,359.03589 c -20.44171,-0.10874 -31.00725,29.83273 -30.77235,59.19566 0.23491,29.36293 8.92633,67.88708 31.71196,67.88708 22.78563,0 32.88648,-37.34964 32.88648,-64.59845 0,-27.24877 -10.09072,-62.35803 -33.82609,-62.48429 z"
     style="fill:#212121;fill-opacity:1;stroke:none;stroke-width:0.264583px;stroke-linecap:butt;stroke-linejoin:miter;stroke-opacity:1" />
  <path
     id="path1265"
     d="m 911.2465,429.22049 c 3.48512,33.54424 13.0692,53.58365 51.40548,53.58365 38.33632,0 47.04902,-42.69266 46.17782,-59.24695 -0.8713,-16.55432 -97.5833,5.6633 -97.5833,5.6633 z"
     style="fill:#111111;fill-opacity:1;stroke:none;stroke-width:0.264583px;stroke-linecap:butt;stroke-linejoin:miter;stroke-opacity:1" />
  <path
     id="path1263"
     d="m 616.44411,445.72763 c 20.02284,0.30803 30.80438,0.92413 35.42503,0.30803 4.62066,-0.61609 61.60873,-103.8107 61.60873,-103.8107 0,0 12.69649,-15.39847 -49.90308,-16.01827 -62.22481,-0.61609 -53.29156,68.07766 -47.13068,119.52094 z"
     style="fill:#191919;fill-opacity:1;stroke:none;stroke-width:0.264583px;stroke-linecap:butt;stroke-linejoin:miter;stroke-opacity:1" />
  <path
     id="path1261"
     d="m 682.31795,350.36973 c 25.15817,0.21783 27.11855,0 30.38586,1.52474 3.26728,1.52474 -0.54457,18.07903 -0.54457,18.07903 z"
     style="fill:#2a2a2a;fill-opacity:1;stroke:none;stroke-width:0.264583px;stroke-linecap:butt;stroke-linejoin:miter;stroke-opacity:1" />
  <path
     id="path1138"
     d="m 680.82525,488.23765 c 23.87338,-0.15401 35.88707,-0.46207 42.35598,-1.38621 6.46893,-0.92411 18.02056,-22.0251 20.79294,-40.81578 2.77241,-18.79066 -27.87793,-25.87565 -27.87793,-25.87565 0,0 -14.32404,66.38338 -35.27099,68.07764 z"
     style="fill:#151515;fill-opacity:1;stroke:none;stroke-width:0.264583px;stroke-linecap:butt;stroke-linejoin:miter;stroke-opacity:1" />
  <path
     id="path1132"
     d="m 467.96709,72.070667 c 0,-2.772384 0.15401,-5.082697 0.77009,-7.393037 0.61608,-2.31032 2.61837,-4.46662 22.17915,-7.08499 19.56078,-2.6184 44.20425,-3.08044 50.0571,-2.92642 5.85282,0.15401 13.70793,4.77467 13.70793,4.77467 l -0.15401,5.39078 z"
     style="fill:#d1d1d1;fill-opacity:1;stroke:none;stroke-width:0.264583px;stroke-linecap:butt;stroke-linejoin:miter;stroke-opacity:1" />
  <path
     id="path1130"
     d="m 552.98713,57.28459 c -0.92414,10.47347 -2.1563,12.013693 2.46435,11.397611 C 560.07212,68.06612 904.46492,39.41804 904.46492,39.41804 l -12.62978,-10.16542 -110.27963,8.6252 z"
     style="fill:#3e3e3e;fill-opacity:1;stroke:none;stroke-width:0.264583px;stroke-linecap:butt;stroke-linejoin:miter;stroke-opacity:1" />
  <path
     id="path1128"
     d="m 832.73915,36.77141 c -13.00212,0.90924 -285.68284,24.54947 -292.41122,25.09502 -6.72836,0.54554 -6.00096,-2.00033 -5.63727,-5.09175 0.3637,-3.09142 4.18248,-17.27554 6.9102,-22.54911 2.72773,-5.2736 12.00195,-10.00165 37.27879,-12.36568 25.27686,-2.36399 211.67082,-19.094 224.58201,-19.82139 12.91119,-0.72739 28.1864,-1.81848 34.00554,-2.00033 5.81912,-0.18185 -4.72805,36.73324 -4.72805,36.73324 z"
     style="fill:#e9e9e9;fill-opacity:1;stroke:none;stroke-width:0.264583px;stroke-linecap:butt;stroke-linejoin:miter;stroke-opacity:1" />
  <path
     id="path932"
     d="m 12.76337,132.677 -0.54098,179.60538 735.73289,-24.3441 2.70491,-206.113405 z"
     style="fill:#191919;fill-opacity:1;stroke:none;stroke-width:0.264583px;stroke-linecap:butt;stroke-linejoin:miter;stroke-opacity:1" />
  <path
     id="path878"
     d="m 1224.153,121.18117 c 5.4055,8.20833 7.5737,15.41793 8.3852,25.29083 0.8115,9.87288 0.4057,17.58186 0.1353,22.72115 -0.2705,5.13932 -2.164,6.49175 -7.3033,7.16798 -5.1393,0.67624 -7.4384,-0.54096 -8.3852,-5.27454 -0.9467,-4.73359 -4.5983,-41.24974 -4.7335,-46.79477 -0.1353,-5.54505 0.9467,-5.54505 4.3278,-5.81554 3.3811,-0.27048 5.6729,-0.18148 7.5737,2.70489 z"
     style="fill:#242424;fill-opacity:1;stroke:none;stroke-width:0.264583px;stroke-linecap:butt;stroke-linejoin:miter;stroke-opacity:1" />
  <path
     id="path880"
     d="m 1188.723,90.859549 c -4.4654,-0.01111 -11.1957,0.314193 -12.8524,0.432541 -1.8935,0.135229 -1.8937,15.14745 0.2703,15.68844 2.1639,0.54097 3.1107,1.35261 8.6557,1.08212 5.5451,-0.27048 10.9551,-0.1357 11.0903,-1.35289 0.1353,-1.21722 -0.1356,-1.48754 2.975,-1.75803 3.1107,-0.27051 12.7132,-2.5695 18.123,-3.65146 5.4097,-1.08196 10.4139,1.62261 10.9549,6.35619 0.5409,4.73358 -0.5409,29.21328 -0.8114,33.5411 0,4.32784 0.4058,4.19269 1.4878,4.32792 1.082,0.13526 1.082,-0.2708 1.4878,-4.05765 0.4057,-3.78687 2.1635,-41.925635 2.0283,-44.360066 -0.1353,-2.434405 0.5413,-3.922421 -2.5694,-4.05765 -3.1106,-0.135255 -27.7255,-0.540914 -31.1066,-0.405659 -3.3811,0.135228 -3.7868,-1.622795 -7.9794,-1.758024 -0.5241,-0.01693 -1.116,-0.0254 -1.7539,-0.02688 z m 11.1534,4.354777 c 3.6516,0 3.6588,0.133483 3.5842,3.786849 -0.068,3.313505 -0.6086,3.313275 -3.8545,3.110415 -3.2459,-0.20288 -3.0034,0.068 -3.0433,-3.786848 -0.028,-2.708117 -0.3381,-3.110416 3.3136,-3.110416 z m 12.5155,0.185526 c 4.555,0.0127 12.3528,0.101732 13.7221,0.152453 1.8258,0.06763 2.0285,0.202909 2.1637,2.907824 0.1353,2.704891 -0.068,3.110331 -1.4201,2.096001 -1.3524,-1.014332 -2.0285,-2.50174 -4.5981,-2.569367 -2.5697,-0.06763 -8.0472,1.284472 -11.0226,2.028327 -2.9754,0.74384 -3.7868,0.67648 -3.7868,-1.622668 0.068,-2.772516 0.067,-2.907877 1.8257,-2.975531 0.4395,-0.01693 1.5977,-0.02117 3.1161,-0.01693 z"
     style="fill:#1c1c1c;fill-opacity:1;stroke:none;stroke-width:0.264583px;stroke-linecap:butt;stroke-linejoin:miter;stroke-opacity:1" />
  <path
     id="path861"
     d="m 744.08241,286.71604 c 0,-15.87503 2.48645,-197.76837 2.48645,-201.976197 0,-4.207854 114.18541,-6.88557 114.18541,-6.88557 l -0.5738,38.444357 -1.72138,187.0575 z"
     style="fill:#161616;fill-opacity:1;stroke:none;stroke-width:0.264583px;stroke-linecap:butt;stroke-linejoin:miter;stroke-opacity:1" />
  <path
     id="path1134"
     d="m 200.12312,92.709595 c 0,-3.542506 0.15403,-6.160875 0.92413,-8.163136 0.77011,-2.002287 11.55164,-5.544794 30.65034,-7.393067 19.0987,-1.848247 56.52603,-0.770096 68.84775,0.924137 12.32175,1.694233 14.6321,3.080438 14.78611,4.928711 0.15401,1.848247 -115.20833,9.703355 -115.20833,9.703355 z"
     style="fill:#d1d1d1;fill-opacity:1;stroke:none;stroke-width:0.264583px;stroke-linecap:butt;stroke-linejoin:miter;stroke-opacity:1" />
  <path
     id="path1136"
     d="m 680.82525,488.23765 c 30.18827,-0.61608 37.88936,-42.81808 37.58131,-76.08678 -0.30803,-33.26871 -4.92869,-61.91676 -36.96523,-61.91676 -32.03654,0 -38.8135,40.9698 -38.50547,64.99719 0.30805,24.0274 4.62065,72.08221 37.88939,73.00635 z"
     style="fill:#212121;fill-opacity:1;stroke:none;stroke-width:0.264583px;stroke-linecap:butt;stroke-linejoin:miter;stroke-opacity:1" />
  <path
     id="path859"
     d="m 857.14897,297.4627 c -13.36739,-1.88716 -99.86232,-11.95203 -105.68106,-12.58108 -5.81876,-0.62905 -7.23413,-0.78632 -18.87163,-0.15727 -11.63749,0.62906 -706.8994,20.75879 -710.98827,21.07332 -4.08885,0.31452 -4.56063,0.15726 -4.7179,-3.30254 -0.15726,-3.4598 1.2581,-155.69086 1.41537,-158.99339 0.15726,-3.30254 0.62907,-3.30254 5.18969,-3.77433 4.56065,-0.47179 826.26242,-58.502019 830.03674,-58.816545 3.77433,-0.314529 3.93159,-0.471792 6.44781,-0.629055 2.51621,-0.157263 59.28832,-45.60641 25.94847,-43.24746 -33.33986,2.35895 -849.69468,66.67972 -864.16292,68.56688 -14.46823,1.88717 -20.75878,6.29054 -21.5451,26.42027 -0.78631,20.12973 0.78632,266.08984 0.78632,276.1547 0,10.06486 -0.62905,11.16571 6.60508,13.3674 7.23411,2.20169 27.04931,10.06486 33.18259,12.26654 6.13328,2.20171 30.35186,5.97602 41.83211,5.81875 11.48021,-0.15724 61.96181,-0.15724 67.15148,0 5.1897,0.15727 5.34697,-0.31451 5.6615,-4.08885 0.31454,-3.77431 -0.78631,-38.21502 3.77434,-58.65927 4.56062,-20.44426 9.75032,-34.44071 19.8152,-36.79966 10.06486,-2.35895 25.00487,-1.7299 31.76722,-0.78632 6.76233,0.94358 13.68193,11.6375 16.98445,24.06131 3.30253,12.42382 7.86318,33.65439 8.33496,48.59442 0.47181,14.94004 0.47181,23.27501 0.47181,26.89205 0,3.61707 0,3.77434 3.30253,3.77434 3.30252,0 372.55721,3.30253 376.01701,3.30253 3.4598,0 3.30253,0.31453 3.4598,-3.61707 0.15726,-3.93158 -0.62906,-40.41671 0.47179,-53.94137 1.10084,-13.52466 5.34696,-31.76723 11.48023,-43.0902 6.13328,-11.32297 7.54865,-13.99645 17.14172,-14.94003 9.59308,-0.94358 26.7348,-1.57263 35.06976,-0.78632 8.33497,0.78632 11.32298,1.7299 16.19814,11.16571 4.87517,9.43581 13.68193,30.66638 15.56909,47.33631 1.88716,16.66993 2.83074,44.97736 3.14527,51.58242 0.31453,6.60508 1.25811,6.60508 5.50422,6.60508 4.24612,0 120.46384,0.15727 127.69796,0 7.23412,-0.15727 8.49223,-0.62904 10.69392,-1.02222 2.20169,-0.39317 -1.96579,-1.41536 -1.96579,-1.41536 0,0 0.87335,-146.28383 -3.22391,-146.33369 z"
     style="fill:#e1e1e1;fill-opacity:1;stroke:none;stroke-width:0.264583px;stroke-linecap:butt;stroke-linejoin:miter;stroke-opacity:1" />
  <path
     id="path2290"
     d="m 856.78108,309.24022 c -0.10208,-2.34767 0.15311,-3.47048 -0.81659,-4.08292 -0.96969,-0.61243 -0.76554,-2.60285 -0.71451,-4.23602 0.051,-1.63317 -0.28051,-31.4139 -0.28051,-41.2299 0,-9.816 1.44353,-76.50705 1.73223,-87.33352 0.28871,-10.82647 0.72177,-60.48387 1.29918,-65.96928 0.57741,-5.48542 12.12564,-2.30965 12.5587,-0.57742 0.43306,1.73224 10.97082,30.45847 10.97082,30.45847 l 8.22812,62.93787 5.05235,76.65141 -1.44353,31.61328 z"
     style="fill:#171717;fill-opacity:1;stroke:none;stroke-width:0.264583px;stroke-linecap:butt;stroke-linejoin:miter;stroke-opacity:1" />
  <path
     id="path2288"
     d="m 891.84313,307.09669 c -0.20415,-15.10679 -3.26634,-72.47178 -4.28706,-86.55784 -1.02073,-14.08607 -6.32853,-71.04276 -12.04461,-90.84491 -5.71608,-19.80215 -6.73681,-24.49751 -7.75754,-27.55969 -1.02073,-3.062192 9.18656,1.02073 10.00314,5.51193 0.81659,4.49121 10.2073,40.82918 10.2073,40.82918 l 7.1451,54.09865 5.92023,108.40145 z"
     style="fill:#292929;fill-opacity:1;stroke:none;stroke-width:0.264583px;stroke-linecap:butt;stroke-linejoin:miter;stroke-opacity:1" />
  <path
     id="path2028"
     d="m 856.91536,376.29737 c -0.24364,3.16737 -0.12182,5.72563 -0.24364,7.24841 -0.12183,1.52277 12.73039,1.70551 12.73039,1.70551 l 33.68378,-1.52278 -2.1928,-6.76112 z"
     style="fill:#dddddd;fill-opacity:1;stroke:none;stroke-width:0.264583px;stroke-linecap:butt;stroke-linejoin:miter;stroke-opacity:1" />
  <path
     id="path2280"
     d="m 897.40923,305.73996 c 0,-10.1047 -3.89753,-68.71199 -4.6193,-82.42552 -0.72176,-13.71353 -5.48541,-59.90646 -9.09423,-78.38363 -3.60882,-18.47718 -5.91847,-28.58188 -6.78459,-32.47941 -0.86612,-3.89753 -2.16529,-5.26888 -0.0722,-5.41324 2.09311,-0.14435 55.28717,0 55.28717,0 l 54.92628,-0.21653 54.27674,0.43306 113.6057,0.28871 c 0,0 20.2094,-1.51571 22.086,0.21653 1.8766,1.73223 5.0524,15.37359 6.0628,20.49811 1.0105,5.12453 7.0733,43.88329 8.6612,58.896 1.5879,15.0127 4.7637,63.73181 5.2689,74.41393 0.5052,10.68211 2.8149,39.62487 2.8149,40.63534 0,1.01047 -3.1758,1.08265 -3.1758,1.08265 l -100.9027,1.44353 c 0,0 -199.35137,2.30965 -198.3409,1.01047 z"
     style="fill:#171717;fill-opacity:1;stroke:none;stroke-width:0.264583px;stroke-linecap:butt;stroke-linejoin:miter;stroke-opacity:1" />
  <path
     id="path2018"
     d="m 898.14706,370.31235 c 0,6.59159 0.31388,11.61374 0.31388,15.38036 0,3.76662 9.41655,17.26367 9.41655,17.26367 l 25.42466,8.47489 h 121.78735 l 137.4816,-2.51107 10.0443,-24.79691 c 0,0 0.6912,-10.90505 0.4692,-15.01113 -0.222,-4.10608 -2.053,-56.15338 -2.164,-59.37166 -0.111,-3.21827 -0.1665,-5.54875 -0.1665,-6.60301 0,-1.05427 -0.3329,-1.44268 -1.5536,-1.44268 -1.2207,0 -102.2074,1.76007 -118.2155,1.91701 -16.0081,0.15694 -131.98858,0.94166 -148.6245,1.0986 -16.63589,0.15694 -50.06463,0.47082 -56.49927,1.0986 -6.43464,0.62776 10.67209,19.61781 10.67209,19.61781 z"
     style="fill:#cfcfcf;fill-opacity:1;stroke:none;stroke-width:0.264583px;stroke-linecap:butt;stroke-linejoin:miter;stroke-opacity:1" />
  <path
     id="path2012"
     d="m 948.68251,377.92406 c -8.78877,0 -9.73042,4.47286 -9.88737,9.25961 -0.15692,4.78674 2.04026,11.06444 9.10267,11.22138 7.06242,0.15694 6.51312,-9.10266 5.10064,-11.84915 -1.4125,-2.7465 1.334,-8.16101 -4.31594,-8.63184 z"
     style="fill:#7e7e7e;fill-opacity:1;stroke:none;stroke-width:0.264583px;stroke-linecap:butt;stroke-linejoin:miter;stroke-opacity:1" />
  <path
     id="path1168"
     d="m 909.42279,437.98583 c -12.76889,1.017 -44.1826,6.44093 -47.68557,7.23193 -3.50297,0.791 -3.95496,0.56499 -4.06796,-2.71198 -0.113,-3.27697 -0.90399,-58.42046 -0.90399,-60.11544 0,-1.69499 -0.113,-1.80798 2.59897,-1.80798 2.71198,0 40.37764,1.10518 43.29408,1.46474 2.91643,0.35957 3.15614,0.51937 3.4358,1.43825 0.27965,0.91887 0.2397,4.19487 0.2397,4.19487 z"
     style="fill:#dfdfdf;fill-opacity:1;stroke:none;stroke-width:0.264583px;stroke-linecap:butt;stroke-linejoin:miter;stroke-opacity:1" />
  <path
     id="path1166"
     d="m 980.06154,406.28601 c -5.8733,-0.0579 -39.61119,-0.75499 -50.41315,-1.65515 -10.80199,-0.90017 -18.49432,-7.52866 -22.17681,-16.85764 -3.68249,-9.32899 3.02783,10.39281 3.02783,10.39281 l 10.22916,8.26516 26.02294,3.19149 35.84294,0.32733 z"
     style="fill:#e4e4e4;fill-opacity:1;stroke:none;stroke-width:0.264583px;stroke-linecap:butt;stroke-linejoin:miter;stroke-opacity:1" />
  <path
     id="path1164"
     d="m 982.59445,408.80435 c -8.01965,0.0818 -39.11626,-0.65467 -50.65474,-2.12766 -11.53848,-1.473 -16.44849,-3.928 -20.54014,-11.12932 -4.09165,-7.20132 -4.33715,-9.98365 -5.15549,-11.78398 -0.81833,-1.80033 -1.22749,-1.39116 -1.22749,2.12767 0,3.51882 0.2455,42.71692 0.16366,47.62691 -0.0818,4.91 0.16367,4.66449 1.964,4.66449 1.80034,0 71.93137,-3.51882 73.64987,-3.51882 1.7185,0 0.9411,-4.33716 0.9411,-4.33716 z"
     style="fill:#dcdcdc;fill-opacity:1;stroke:none;stroke-width:0.264583px;stroke-linecap:butt;stroke-linejoin:miter;stroke-opacity:1" />
  <path
     id="path1162"
     d="m 1131.2365,431.06411 c -1.8662,-0.33073 -1.9135,-0.8977 -3.4018,-0.8977 -1.4883,0 -62.671,2.46593 -79.6426,2.86684 -16.9716,0.4009 -65.54748,1.64526 -67.15388,1.64526 -1.60639,0 -2.07885,0.28347 -1.79538,-1.93712 0.28348,-2.22062 1.60639,-8.64622 1.93712,-11.38655 0.33073,-2.74032 0.51972,-9.35491 0.23625,-11.57552 -0.28348,-2.22061 -3.49629,-3.30729 -1.88989,-3.44903 1.60641,-0.14174 69.25678,-1.49398 80.34848,-2.02852 11.0917,-0.53454 67.518,-2.36021 71.6285,-2.83268 4.1105,-0.47247 3.702,7.31804 3.702,7.31804 z"
     style="fill:#d8d8d8;fill-opacity:1;stroke:none;stroke-width:0.264583px;stroke-linecap:butt;stroke-linejoin:miter;stroke-opacity:1" />
  <path
     id="path1160"
     d="m 1130.1498,403.8262 c -0.6142,-1.55916 -0.7087,-2.07887 0.6615,-2.26786 1.3702,-0.18899 30.1908,-2.88207 38.9788,-3.73251 8.7879,-0.85045 18.2373,-4.29948 21.4974,-9.26042 3.26,-4.96094 5.8114,-10.96131 6.5201,-12.42597 0.7087,-1.46466 1.1339,-1.70089 2.5513,-1.65365 1.4174,0.0472 3.7798,0.42523 4.4412,0.70871 0.6615,0.28348 -1.2284,2.12612 -1.2284,2.12612 l -7.5123,14.45759 -10.9613,8.59896 z"
     style="fill:#dcdcdc;fill-opacity:1;stroke:none;stroke-width:0.264583px;stroke-linecap:butt;stroke-linejoin:miter;stroke-opacity:1" />
  <path
     id="path1158"
     d="m 1204.9419,420.69338 c -0.189,12.47322 -2.8349,11.71727 -5.6697,11.90625 -2.8348,0.18898 1.134,-2.64583 -7.7485,-2.83482 -8.8824,-0.18899 -55.2663,1.39755 -58.7408,1.39755 -3.4745,0 -2.8678,-0.82964 -2.7517,-2.42905 0.1181,-1.62725 1.8162,-19.62069 0.8808,-22.69429 -0.9354,-3.0736 -1.8709,-2.93996 2.0045,-3.20723 3.8754,-0.26727 37.685,-1.60362 49.044,-3.34087 11.3589,-1.73725 19.5107,-18.70887 20.7134,-21.78247 1.2027,-3.0736 2.8063,-3.60814 2.9399,0.13364 0.1337,3.74177 -0.4085,37.19317 -0.6719,42.85129 z"
     style="fill:#d6d6d6;fill-opacity:1;stroke:none;stroke-width:0.264583px;stroke-linecap:butt;stroke-linejoin:miter;stroke-opacity:1" />
  <path
     id="path1172"
     d="m 903.94234,377.98338 c 3.67246,-0.565 6.38443,-4.18096 10.33939,-7.96643 3.95497,-3.78546 9.77443,-5.98894 15.98936,-6.15844 6.21495,-0.1695 9.60493,0.0565 12.03438,0.1695 2.42949,0.11299 2.71198,-0.791 0.90401,-4.12447 -1.80798,-3.33347 -17.40183,-30.84871 -23.72979,-38.30665 -6.32794,-7.45793 -13.78587,-12.82538 -22.37379,-14.52037 -8.58792,-1.69498 1.63848,3.33347 1.63848,3.33347 l 3.44647,14.01188 z"
     style="fill:#d7d7d7;fill-opacity:1;stroke:none;stroke-width:0.264583px;stroke-linecap:butt;stroke-linejoin:miter;stroke-opacity:1" />
  <path
     id="path1170"
     d="m 856.99126,375.7234 c -0.22599,3.27697 0.565,2.82497 3.05098,2.82497 2.48597,0 38.08065,-0.22599 42.26161,-0.45199 4.18096,-0.226 3.84197,-0.79099 3.95497,-3.61596 0.113,-2.82498 0.29625,-62.38117 -0.95766,-63.96663 -1.3035,-1.64818 -6.50713,-3.74601 -14.86905,-4.311 -8.36193,-0.565 -27.5649,-0.31275 -30.95487,-0.0868 -3.38997,0.226 -2.71197,1.35599 -2.59898,3.95497 0.113,2.59897 0,61.92343 0.113,65.6524 z"
     style="fill:#dcdcdc;fill-opacity:1;stroke:none;stroke-width:0.264583px;stroke-linecap:butt;stroke-linejoin:miter;stroke-opacity:1" />
  <path
     id="path1179"
     d="m 925.31063,326.75469 c -0.75907,-4.27478 0.95882,-7.47087 7.11131,-10.18755 6.15249,-2.71668 23.25158,-7.59072 40.03106,-8.54955 16.7795,-0.95883 88.372,-0.63922 115.379,-1.11864 27.007,-0.47941 44.2659,-1.27843 61.2052,2.07747 16.9393,3.3559 23.3315,7.99023 25.4089,10.14759 2.0775,2.15737 1.2785,5.03385 0.5593,6.7118 -0.7191,1.67795 -5.8328,-1.11863 -5.8328,-1.11863 z"
     style="fill:#e2e2e2;fill-opacity:1;stroke:none;stroke-width:0.264583px;stroke-linecap:butt;stroke-linejoin:miter;stroke-opacity:1" />
  <path
     id="path1174"
     d="m 1162.8613,322.62762 c -30.7655,0.005 -230.03815,2.17823 -235.24581,2.35935 -3.03183,0.10544 -2.6656,1.39829 -1.46862,3.38997 2.89052,4.80965 11.63873,18.8378 18.19267,30.81569 6.55394,11.97789 25.53763,38.00062 29.04061,41.27759 3.50298,3.27696 4.63315,3.84214 10.6221,3.84214 5.98895,0 136.72875,-2.93815 139.89275,-3.16415 3.164,-0.226 3.7286,0.11283 5.1976,-1.46916 1.469,-1.58199 6.2152,-7.90997 15.7071,-21.69583 9.4919,-13.78588 26.0708,-44.69829 28.3626,-48.58929 3.4113,-5.79194 2.7886,-6.62012 -2.0019,-6.70724 -1.9015,-0.0346 -1.6936,-0.0601 -8.2991,-0.0591 z"
     style="fill:#dadada;fill-opacity:1;stroke:none;stroke-width:0.264583px;stroke-linecap:butt;stroke-linejoin:miter;stroke-opacity:1" />
  <path
     id="rect1914"
     d="m 1090.5452,326.35199 c -1.3653,-0.0127 -2.7608,0.22177 -3.9527,0.71816 -0.5246,0.21849 -1.0379,0.48103 -1.1406,0.58326 -0.1548,0.15393 -0.251,1.97895 -0.5607,10.62434 l -0.3739,10.43875 0.676,0.37885 c 0.6817,0.38223 2.1848,0.84595 3.1504,0.97199 1.1394,0.14871 3.4253,-0.0563 4.4119,-0.39575 3.2875,-1.13093 5.2481,-4.58613 5.8333,-10.27993 0.2643,-2.57184 -0.1083,-6.19967 -0.8398,-8.17523 -0.4451,-1.20204 -1.7658,-3.05197 -2.5838,-3.61915 -1.1592,-0.80369 -2.8648,-1.22892 -4.6201,-1.24529 z m 0.1825,3.5777 c 0.393,-0.0101 0.8337,0.0527 1.205,0.19165 0.8353,0.31248 1.6197,1.4491 1.9243,2.78843 0.6611,2.90723 0.3352,9.17845 -0.5839,11.23822 -0.7173,1.60743 -2.0076,2.39087 -3.5466,2.15351 -0.2515,-0.0388 -0.5268,-0.19055 -0.6119,-0.33739 -0.1186,-0.2048 -0.091,-2.04513 0.1188,-7.90066 l 0.2734,-7.63341 0.3011,-0.25416 c 0.1814,-0.15314 0.5268,-0.23609 0.9198,-0.24619 z m 52.5592,1.45799 c -1.5595,-0.008 -3.5128,0.20987 -4.5782,0.57083 -0.6945,0.23531 -1.3998,0.53615 -1.5673,0.66872 l -0.3047,0.24109 -0.2969,8.29066 c -0.2232,6.23054 -0.2597,8.33922 -0.1465,8.48646 0.2095,0.27255 3.6592,0.27255 3.8882,0 0.123,-0.1464 0.2291,-1.99829 0.4199,-7.32727 0.2213,-6.17804 0.283,-7.15894 0.4622,-7.33717 0.5921,-0.58906 2.4917,-0.4631 3.0489,0.20218 0.6417,0.76616 0.6511,0.94603 0.404,7.84421 -0.1711,4.77715 -0.1915,6.47231 -0.08,6.61805 0.2317,0.30139 3.6913,0.27058 3.9061,-0.0348 0.12,-0.17062 0.2166,-2.03229 0.3705,-7.14327 0.2073,-6.88505 0.2069,-6.91612 -0.074,-7.77469 -0.5326,-1.62511 -1.7572,-2.66899 -3.6903,-3.14591 -0.4256,-0.105 -1.053,-0.15542 -1.7619,-0.15913 z m 12.2977,0.0185 c -0.7506,4.9e-4 -1.4658,0.11324 -2.019,0.35078 -2.271,0.97533 -3.6547,4.0273 -3.0634,6.75709 0.2898,1.33813 1.0354,2.26712 2.6478,3.29994 0.6966,0.44622 1.4234,1.02772 1.6154,1.29185 0.6816,0.93806 0.5083,2.3447 -0.3697,3.00113 -0.4049,0.30275 -0.5982,0.33818 -1.4214,0.26054 -0.5979,-0.0564 -1.1566,-0.2219 -1.4997,-0.44454 -0.4552,-0.2954 -0.5766,-0.31841 -0.7255,-0.13681 -0.271,0.33048 -1.0787,2.70823 -1.008,2.96733 0.1706,0.62528 2.0421,1.2176 3.9065,1.23636 1.2188,0.0123 1.6225,-0.0506 2.4062,-0.37534 1.57,-0.65046 2.583,-1.7633 3.157,-3.46768 0.5609,-1.66516 0.3942,-3.68307 -0.4055,-4.90813 -0.4852,-0.74328 -1.4744,-1.62035 -2.3596,-2.09227 -1.8009,-0.96007 -2.3967,-2.46217 -1.4659,-3.69569 0.3269,-0.43318 0.5069,-0.52933 1.1047,-0.58932 0.473,-0.0475 0.9106,0.021 1.2955,0.20282 0.9958,0.47047 1.0548,0.44278 1.5627,-0.7341 0.5889,-1.36467 0.607,-1.71566 0.1054,-2.04572 -0.8627,-0.56756 -2.2124,-0.87904 -3.4635,-0.87824 z m -37.9394,0.003 c -0.9412,-6.5e-4 -1.8596,0.17353 -2.5137,0.53511 -1.0347,0.57191 -1.9917,1.7659 -2.4113,3.00815 -0.2496,0.73901 -0.3136,1.19546 -0.3125,2.23482 0,2.28984 0.5839,3.2688 2.7558,4.6409 1.6376,1.03449 1.9898,1.51073 1.9495,2.63504 -0.023,0.65512 -0.1021,0.89829 -0.4316,1.33426 -0.3964,0.52447 -0.4209,0.53304 -1.4962,0.51725 -0.8192,-0.012 -1.2518,-0.10554 -1.726,-0.37311 -0.348,-0.19638 -0.6798,-0.29948 -0.7373,-0.22897 -0.1471,0.18055 -1.0015,2.62112 -1.0111,2.88824 -0.013,0.3674 0.3373,0.6245 1.3831,1.01441 1.4895,0.55529 3.5858,0.54123 5.0054,-0.0335 2.3786,-0.96306 3.8057,-3.70026 3.3438,-6.413 -0.3196,-1.87702 -1.0826,-2.90018 -3.0015,-4.02543 -1.2188,-0.71471 -1.7061,-1.24496 -1.8679,-2.0336 -0.1091,-0.53166 -0.088,-0.71909 0.141,-1.25231 0.1481,-0.34481 0.4203,-0.71812 0.6049,-0.82976 0.4553,-0.2753 1.5358,-0.24805 2.1653,0.0549 1.008,0.48493 0.9364,0.51838 1.4054,-0.65247 0.6233,-1.55605 0.6223,-1.72487 -0.015,-2.17965 -0.772,-0.55082 -2.0199,-0.84049 -3.2301,-0.84125 z m 11.4919,0.0635 c -1.7242,0 -1.7983,0.0145 -2.6835,0.52491 -2.6637,1.53597 -4.0898,4.81616 -4.0662,9.35258 0.015,2.87068 0.5205,4.8284 1.7001,6.58298 0.606,0.90142 2.0538,1.8736 3.0899,2.07505 0.9818,0.1909 2.6188,0.0301 3.516,-0.34568 1.5631,-0.65466 2.7053,-1.95826 3.5844,-4.09048 1.2862,-3.11975 1.2628,-7.7916 -0.054,-10.81409 -0.4352,-0.9989 -1.4889,-2.18098 -2.4779,-2.7795 -0.8065,-0.48806 -0.8976,-0.50577 -2.6089,-0.50577 z m -18.6941,0.2261 c -0.8934,-0.009 -1.8024,0.0628 -1.9093,0.22291 -0.075,0.11225 -0.2812,0.79188 -0.4584,1.51029 -0.1771,0.71841 -0.4587,1.85725 -0.626,2.53076 -0.1673,0.67351 -0.6247,2.53514 -1.0163,4.13672 -0.3916,1.60158 -0.7672,3.07105 -0.8345,3.2655 -0.1555,0.44863 -0.1802,0.3606 -0.5169,-1.85088 -0.2501,-1.64327 -0.4392,-2.85775 -1.1419,-7.33812 -0.1753,-1.11749 -0.3791,-2.12776 -0.4532,-2.24502 -0.1616,-0.25574 -4.107,-0.31059 -4.2411,-0.059 -0.045,0.0848 0.1992,1.40734 0.5435,2.93895 0.3442,1.53161 0.9102,4.05202 1.2576,5.60109 0.3473,1.54907 0.9637,4.28274 1.3696,6.07465 l 0.7378,3.25785 -1.195,3.40357 c -0.6574,1.87189 -1.1662,3.5099 -1.1306,3.6402 0.053,0.19242 0.4293,0.23642 2.0062,0.23439 1.0679,-0.001 2.0185,-0.0613 2.1123,-0.1333 0.094,-0.072 0.3418,-0.7137 0.5513,-1.4261 0.2095,-0.7124 0.6735,-2.28725 1.031,-3.49957 0.3574,-1.21232 1.0987,-3.74715 1.6473,-5.63298 0.5487,-1.88582 1.12,-3.83287 1.2694,-4.32678 1.4417,-4.76488 2.8655,-9.85079 2.8124,-10.04555 -0.044,-0.16154 -0.9219,-0.25082 -1.8152,-0.25958 z m 18.5547,2.95776 c 1.2263,0 1.8187,1.09677 2.0062,3.71355 0.1247,1.73968 -0.085,4.69637 -0.4179,5.88108 -0.4647,1.6561 -1.4463,2.51109 -2.4626,2.14458 -0.5751,-0.20739 -1.1416,-1.12915 -1.3699,-2.22909 -0.151,-0.72749 -0.173,-1.54302 -0.099,-3.63222 0.1154,-3.23717 0.3487,-4.29018 1.1668,-5.26562 0.4577,-0.54573 0.5857,-0.61228 1.1759,-0.61228 z"
     style="vector-effect:none;fill:#18316e;fill-opacity:1;stroke:none;stroke-width:0.368073;stroke-linecap:round;stroke-linejoin:round;stroke-miterlimit:4;stroke-dasharray:none;stroke-dashoffset:0;stroke-opacity:1;paint-order:fill markers stroke" />
  <path
     id="path1997"
     d="m 978.63755,381.26393 c -3.27414,-0.0248 -3.55121,-2.71889 -0.11099,-2.82986 3.44025,-0.11098 148.70654,-1.55366 151.98034,-1.49817 3.2738,0.0555 3.8286,2.6634 0.111,2.82986 -3.7177,0.16647 -147.92988,1.52886 -151.98035,1.49817 z"
     style="fill:#b6b6b6;fill-opacity:1;stroke:none;stroke-width:0.264583px;stroke-linecap:butt;stroke-linejoin:miter;stroke-opacity:1" />
  <path
     id="path1999"
     d="m 982.68814,386.53524 c -3.43862,0.10548 -3.38474,2.6634 -0.27744,2.71889 3.10729,0.0555 139.6066,-1.77559 142.8804,-1.88657 3.2737,-0.11097 4.1616,-2.94085 0,-2.88536 -4.1616,0.0555 -136.99449,1.88101 -142.60296,2.05304 z"
     style="fill:#b6b6b6;fill-opacity:1;stroke:none;stroke-width:0.264583px;stroke-linecap:butt;stroke-linejoin:miter;stroke-opacity:1" />
  <path
     id="path2001"
     d="m 988.90274,394.3035 c -3.21819,0.11392 -3.60668,2.88535 -10e-6,2.88535 3.60669,0 128.73107,-2.16401 132.28227,-2.2195 3.5512,-0.0555 3.3293,-2.88536 -0.6103,-2.82987 -3.9397,0.0555 -128.62004,2.05599 -131.67196,2.16402 z"
     style="fill:#b6b6b6;fill-opacity:1;stroke:none;stroke-width:0.264583px;stroke-linecap:butt;stroke-linejoin:miter;stroke-opacity:1" />
  <path
     id="path2010"
     d="m 935.65631,387.18367 c -1.17708,9.02419 -3.68816,12.08457 -9.88737,12.08457 -6.19924,0 -14.67414,-2.27567 -14.98801,-17.34215 -0.31388,-15.06647 10.20124,-16.32201 14.6741,-16.40048 4.47287,-0.0785 9.65198,2.04025 11.69223,9.02419 2.04026,6.98394 -1.49095,12.63387 -1.49095,12.63387 z"
     style="fill:#7e7e7e;fill-opacity:1;stroke:none;stroke-width:0.264583px;stroke-linecap:butt;stroke-linejoin:miter;stroke-opacity:1" />
  <path
     id="path2008"
     d="m 927.02446,397.22798 c 9.8089,0.15695 12.94776,-7.84712 12.94776,-13.73246 0,-5.88534 -2.11873,-15.14494 -12.39845,-15.69424 -10.27973,-0.5493 -13.18316,8.63183 -12.94776,15.14494 0.23543,6.51311 3.60968,14.04635 12.39845,14.28176 z"
     style="fill:#e0e0e0;fill-opacity:1;stroke:none;stroke-width:0.264583px;stroke-linecap:butt;stroke-linejoin:miter;stroke-opacity:1" />
  <path
     id="path2014"
     d="m 949.93807,379.33655 c -6.82184,-0.27657 -8.16102,4.6298 -8.16102,8.39642 0,3.76661 1.72638,9.41654 7.76867,9.65196 6.04226,0.23541 7.69017,-4.70828 7.53321,-9.0242 -0.15692,-4.31591 -2.34201,-8.82962 -7.14086,-9.02418 z"
     style="fill:#e2881e;fill-opacity:1;stroke:none;stroke-width:0.264583px;stroke-linecap:butt;stroke-linejoin:miter;stroke-opacity:1" />
  <path
     id="path2016"
     d="m 1160.3979,354.85352 c -2.6739,4.53769 -2.9819,6.98395 0.9416,6.827 3.9236,-0.15694 14.5957,-0.86318 20.3241,-0.78471 5.7284,0.0785 12.8692,6.43464 15.1449,9.10266 2.2757,2.66802 3.6882,3.37426 5.4145,3.37426 1.7264,0 2.1972,-1.09859 2.2757,-3.29579 0.078,-2.19719 -1.1771,-58.46106 -1.6479,-61.28602 -0.4708,-2.82496 -1.4125,-3.5312 -6.5916,-3.21732 -5.1791,0.31389 -10.5151,2.98191 -13.8894,9.18113 -3.3743,6.19923 -10.6721,20.481 -12.9477,24.32608 -2.2757,3.84509 -7.006,12.34772 -9.0242,15.77271 z"
     style="fill:#dcdcdc;fill-opacity:1;stroke:none;stroke-width:0.264583px;stroke-linecap:butt;stroke-linejoin:miter;stroke-opacity:1" />
  <path
     id="path2020"
     d="m 1178.2893,361.04709 c -9.131,0.77527 -14.9886,7.92498 -14.4717,18.08964 0.5168,10.16465 7.1497,15.41926 14.041,15.33312 6.8913,-0.0861 9.7339,-5.77146 10.5953,-9.64781 0.8614,-3.87635 1.206,-8.61411 0.7753,-13.52416 -0.4307,-4.91004 -2.3258,-10.07851 -10.9399,-10.25079 z"
     style="fill:#7e7e7e;fill-opacity:1;stroke:none;stroke-width:0.264583px;stroke-linecap:butt;stroke-linejoin:miter;stroke-opacity:1" />
  <path
     id="path2022"
     d="m 1179.8398,363.11447 c -8.721,0.0417 -12.3181,9.38939 -12.1459,15.76383 0.1723,6.37445 3.7041,13.35187 11.8875,13.52416 8.1834,0.17228 11.8013,-7.40814 11.9736,-14.47171 0.1723,-7.06357 -2.3977,-14.86086 -11.7152,-14.81628 z"
     style="fill:#e0e0e0;fill-opacity:1;stroke:none;stroke-width:0.264583px;stroke-linecap:butt;stroke-linejoin:miter;stroke-opacity:1" />
  <path
     id="path2024"
     d="m 1155.4619,374.39896 c -6.7238,0.0487 -8.9587,4.47934 -8.9587,10.42308 0,5.94374 2.5842,9.99237 7.925,9.82009 5.3408,-0.17228 7.6665,-6.54672 7.5804,-10.93992 -0.086,-4.3932 -1.3755,-9.34072 -6.5467,-9.30325 z"
     style="fill:#7e7e7e;fill-opacity:1;stroke:none;stroke-width:0.264583px;stroke-linecap:butt;stroke-linejoin:miter;stroke-opacity:1" />
  <path
     id="path2026"
     d="m 1155.8926,393.17773 c 6.719,0.0861 7.6666,-4.73776 7.4943,-9.04482 -0.1723,-4.30705 -2.1536,-7.92498 -6.2883,-8.18341 -4.1348,-0.25842 -7.925,3.44565 -7.7527,8.70026 0.1722,5.25461 2.3258,8.70025 6.5467,8.52797 z"
     style="fill:#e2881e;fill-opacity:1;stroke:none;stroke-width:0.264583px;stroke-linecap:butt;stroke-linejoin:miter;stroke-opacity:1" />
  <path
     id="path2049"
     d="m 1077.1596,409.28613 c 3.9625,-0.17229 4.3071,0.68913 4.3071,3.27336 0,2.58423 -0.6031,11.88748 -0.9476,14.21329 -0.3446,2.32581 -1.6367,2.23967 -3.9625,2.32581 -2.3258,0.0861 -37.1268,1.20597 -39.6249,1.20597 -2.4981,0 -4.0487,-0.68912 -3.8764,-3.87635 0.1723,-3.18722 0.6891,-11.54291 0.9476,-13.26573 0.2584,-1.72282 0.6891,-2.67038 3.4456,-2.84266 2.7565,-0.17228 35.2317,-0.94755 39.7111,-1.03369 z"
     style="fill:#f2f2f2;fill-opacity:1;stroke:#06436b;stroke-width:0.965;stroke-linecap:butt;stroke-linejoin:miter;stroke-miterlimit:4;stroke-dasharray:none;stroke-opacity:1" />
  <path
     id="path857"
     d="m 876.41375,108.66787 c -5.66148,0 -14.23234,0.39316 -17.06309,0.62906 -2.83074,0.23589 -3.30253,-0.0786 -3.14527,-2.98801 0.15727,-2.90938 1.41537,-32.003124 2.04443,-41.12441 0.62905,-9.12128 2.20169,-20.28699 3.61706,-22.64594 1.41537,-2.35895 9.59307,-4.56064 36.32787,-6.60507 26.7348,-2.04442 -17.29899,9.59308 -17.29899,9.59308 z"
     style="fill:#e4e4e4;fill-opacity:1;stroke:none;stroke-width:0.264583px;stroke-linecap:butt;stroke-linejoin:miter;stroke-opacity:1" />
  <path
     id="path1126"
     d="m 918.20761,36.58957 c -40.91575,-0.90924 -66.37446,-0.54555 -79.28565,0 -12.91119,0.54554 -11.4564,1.09108 -13.63858,-5.45542 -2.18215,-6.54653 -6.72835,-23.6402 -5.45542,-26.91347 1.27294,-3.27327 2.00033,-2.90957 11.8201,-3.81881 9.81978,-0.90924 79.83117,-0.3637 105.65355,2.54587 25.82238,2.90957 36.18773,9.81977 43.27978,20.73064 7.09207,10.91088 4.1825,10.72904 1.81848,10.72904 -2.36403,0 -64.19226,2.18215 -64.19226,2.18215 z"
     style="fill:#e1e1e1;fill-opacity:1;stroke:none;stroke-width:0.264583px;stroke-linecap:butt;stroke-linejoin:miter;stroke-opacity:1" />
  <path
     id="path2282"
     d="m 873.67415,104.37985 c 0.10207,3.98085 -0.51037,4.28706 2.55182,4.38914 3.06219,0.10207 82.06663,0 93.09053,-0.10208 11.02386,-0.10207 144.5353,0.20415 157.4985,0.30622 12.9633,0.10208 45.0142,0.30622 48.4846,0.20415 3.4705,-0.10207 3.6747,-0.30622 3.7768,-3.16426 0.102,-2.85804 -1.327,-16.637891 -2.8581,-24.599579 -1.5311,-7.961688 -6.1244,-30.213591 -8.2679,-35.215161 -2.1435,-5.00157 -6.4306,-6.63474 -18.3731,-8.26791 -11.9425,-1.63316 -72.9822,-7.45132 -118.3026,-8.06376 -45.32033,-0.61244 -122.18124,4.69535 -138.9212,6.94096 -16.73997,2.2456 -18.16899,6.73681 -18.37313,12.0446 -0.20415,5.3078 -0.10208,50.219888 -0.30622,55.52768 z"
     style="fill:#eaeaea;fill-opacity:1;stroke:none;stroke-width:0.264583px;stroke-linecap:butt;stroke-linejoin:miter;stroke-opacity:1" />
  <path
     id="path1124"
     d="m 922.1725,55.99339 v 41.018886 l 204.1943,-0.51435 -1.1573,-40.504536 z"
     style="fill:#2f2f2f;fill-opacity:1;stroke:none;stroke-width:0.264583px;stroke-linecap:butt;stroke-linejoin:miter;stroke-opacity:1" />
  <path
     id="path1119"
     d="m 1126.3324,89.780049 c -9.7289,-0.181848 -198.75931,-0.86868 -202.87405,-0.997267 -4.11475,-0.128588 -7.32938,-27.131592 -1.41444,-27.131592 5.91495,0 199.17939,1.28585 202.39409,1.28585 3.2146,0 1.8944,26.843009 1.8944,26.843009 z"
     style="fill:#272727;fill-opacity:1;stroke:none;stroke-width:0.264583px;stroke-linecap:butt;stroke-linejoin:miter;stroke-opacity:1" />
  <path
     id="path1121"
     d="m 898.12682,47.249814 -3.72898,8.229467 -0.90019,42.690415 65.7076,0.514191 201.75105,1.028885 -1.0289,-23.017215 -6.3004,-28.674721 z m 31.2012,9.521401 c 22.73007,0.04561 186.70698,1.014968 190.45758,1.185439 4.0007,0.181848 4.0009,0.818198 4.0918,3.091286 0.091,2.273088 0.6366,27.205596 0.5457,29.933318 -0.091,2.727721 0.091,4.091754 -2.728,4.091754 -2.8187,0 -192.84923,0.573935 -194.57677,0.482997 -1.72754,-0.09091 -3.09184,0.273077 -3.27369,-2.454645 -0.18187,-2.727722 -0.54515,-28.779893 -0.27234,-32.871463 0.0909,-2.90957 0.45451,-3.364177 3.18223,-3.455088 0.17047,-0.0058 1.05815,-0.0066 2.57349,-0.0037 z"
     style="fill:#2c2c2c;fill-opacity:1;stroke:none;stroke-width:0.264583px;stroke-linecap:butt;stroke-linejoin:miter;stroke-opacity:1" />
  <path
     id="path1100"
     d="m 900.24934,87.241584 c 1.50063,0 1.72071,-0.200078 1.72071,-1.820757 0,-1.620678 0.48022,-22.849547 0.44019,-23.809937 -0.04,-0.96041 0.06,-1.86078 -1.36057,-1.88079 -1.42057,-0.0201 -4.96204,-0.0201 -5.82241,0.04 -0.86035,0.06 -1.18049,-0.0201 -1.2005,1.12046 -0.0201,1.14046 -0.54022,22.949564 -0.58025,24.370164 -0.04,1.420601 0,1.940798 0.7203,1.98083 0.7203,0.04001 5.10214,0.02011 6.08253,0 z"
     style="fill:#e0e0e0;fill-opacity:1;stroke:none;stroke-width:0.264583px;stroke-linecap:butt;stroke-linejoin:miter;stroke-opacity:1" />
  <path
     id="path1098"
     d="m 910.85377,59.65007 c 3.04232,0.008 3.04129,0.0801 3.1213,2.8812 0.08,2.80117 0.08,19.52816 -0.08,22.169256 -0.16004,2.641099 -0.0822,2.577828 -2.56106,2.681114 -2.88121,0.12005 -5.64236,6e-6 -7.163,6e-6 -1.52064,0 -2.28094,-0.600248 -2.20093,-2.441033 0.08,-1.84076 0.1601,-21.288863 0.24012,-23.129643 0.08,-1.84076 0.51881,-2.11148 1.96082,-2.1609 2.51229,-0.0861 4.29407,-0.006 6.68275,0 z"
     style="fill:#e2881e;fill-opacity:1;stroke:none;stroke-width:0.264583px;stroke-linecap:butt;stroke-linejoin:miter;stroke-opacity:1" />
  <path
     id="path2284"
     d="m 908.5913,44.734208 c -2.08499,0.0026 -3.44135,0.0063 -3.96462,0.01561 -8.37247,0.144356 -10.68218,3.320388 -11.83701,10.39368 -1.15482,7.073291 -2.7423,32.768036 -2.45358,39.985684 0.43304,6.351508 1.73207,6.062668 6.4957,6.062668 4.76367,0 254.49421,1.01044 260.26841,0.86611 5.7741,-0.14436 6.0626,0.72176 6.0626,-7.21765 0,-7.939431 -3.1756,-36.520966 -5.6296,-43.161187 -2.454,-6.640248 -5.3409,-5.918835 -14.1464,-6.063218 -8.2552,-0.135308 -203.52085,-0.904849 -234.7955,-0.881592 z m 1.14721,4.473628 c 21.03721,0.02514 93.68369,0.778272 105.23859,0.918289 13.2055,0.16002 122.6114,8e-5 129.3342,0.08009 6.7228,0.08001 7.9232,2.560743 9.4438,6.562407 1.5207,4.001691 4.882,33.854469 4.962,37.295905 0.08,3.441435 -0.24,3.281468 -3.6814,3.281468 -3.4415,0 -135.6565,-1.200838 -146.0609,-1.040765 -10.40431,0.160073 -107.56487,1.280477 -110.60615,1.200441 -3.04128,-0.08004 -3.54089,-0.636905 -3.60182,-4.161499 -0.22424,-12.971171 1.21726,-25.795208 2.16109,-38.736137 0.27664,-3.793014 2.72137,-5.122386 7.28329,-5.362469 0.57023,-0.03 2.52198,-0.04133 5.5273,-0.03773 z"
     style="fill:#272727;fill-opacity:1;stroke:none;stroke-width:0.264583px;stroke-linecap:butt;stroke-linejoin:miter;stroke-opacity:1" />
  <path
     id="path2286"
     d="m 884.56182,123.71092 c -1.68288,-6.61679 -1.29918,-6.49587 3.89753,-6.64023 5.1967,-0.14435 270.51735,-0.14435 277.15765,0.14436 6.6402,0.2887 7.9394,0.5774 9.3829,5.62976 1.4435,5.05235 8.0838,37.67611 10.2491,58.60728 2.1653,20.93118 7.6506,98.7374 7.9394,105.37764 0.2887,6.64023 -0.2888,7.6507 -4.7637,8.08376 -4.4749,0.43306 -130.9281,1.44353 -156.9116,1.58788 -25.9835,0.14436 -116.78152,1.29918 -122.69999,1.29918 -5.91847,0 -6.64024,-1.01047 -7.0733,-6.49588 -0.43305,-5.48541 -2.454,-54.56541 -4.04188,-73.76435 -1.58788,-19.19893 -8.46724,-75.47221 -13.13611,-93.8294 z"
     style="fill:#3e3e3e;fill-opacity:1;stroke:none;stroke-width:0.264583px;stroke-linecap:butt;stroke-linejoin:miter;stroke-opacity:1" />
  <path
     id="path855"
     d="m 857.77617,292.55178 c -0.0162,5.15124 -0.2002,5.9572 4.59296,5.77968 4.79316,-0.17753 17.95265,-0.809 21.32561,-0.809 3.37297,0 3.37297,-0.88762 3.37297,-4.61563 0,-3.72802 -2.13029,-46.51142 -3.01792,-61.601 -0.88762,-15.08959 -9.94137,-84.67919 -13.66938,-99.2362 -3.72802,-14.55701 -4.08307,-15.79968 -6.74593,-15.79968 -2.66287,0 -3.37297,0.53258 -3.55049,4.61564 -0.17753,4.08306 -2.29067,166.2236 -2.30782,171.66619 z"
     style="fill:#3e3e3e;fill-opacity:1;stroke:none;stroke-width:0.264583px;stroke-linecap:butt;stroke-linejoin:miter;stroke-opacity:1" />
  <path
     id="path870"
     d="m 754.44704,152.28754 c 0,-4.19261 -0.27048,-4.73358 2.70492,-5.00409 2.97539,-0.27048 32.86453,-1.62293 36.92189,-1.48767 4.05735,0.13523 5.13931,0.40574 5.13931,3.9221 0,3.51637 -0.27051,102.38047 -0.54099,105.89684 -0.27048,3.51639 -1.21721,3.38113 -3.78685,3.51639 -2.56966,0.13523 -33.13504,0.54096 -36.6514,0.54096 -3.51637,0 -4.05736,-0.40573 -4.05736,-3.78684 0,-3.38114 0.40574,-96.83544 0.27048,-103.59769 z"
     style="fill:#3e3e3e;fill-opacity:1;stroke:none;stroke-width:0.264583px;stroke-linecap:butt;stroke-linejoin:miter;stroke-opacity:1" />
  <path
     id="path872"
     d="m 800.97135,254.93849 c 0.13523,4.19262 -0.13526,4.32785 3.51636,4.19262 3.65162,-0.13526 40.16777,-1.89344 43.00792,-2.29918 2.84014,-0.40574 2.70489,-0.81148 2.84014,-4.05736 0.13526,-3.24588 1.75818,-103.59768 1.75818,-106.30257 0,-2.70491 0.13526,-3.65162 -3.51636,-3.65162 -3.65162,0 -41.24973,2.02867 -44.08988,2.43441 -2.84014,0.40573 -2.84014,1.62295 -2.9754,4.73358 -0.13522,3.11062 -0.54096,100.3518 -0.54096,104.95012 z"
     style="fill:#3e3e3e;fill-opacity:1;stroke:none;stroke-width:0.264583px;stroke-linecap:butt;stroke-linejoin:miter;stroke-opacity:1" />
  <path
     id="path868"
     d="m 833.56539,201.92245 c 13.59213,0 12.78065,1.75818 13.5245,7.97946 0.74385,6.22128 -0.67622,41.7907 -0.94671,45.98332 -0.27051,4.19258 -1.08196,5.81551 -12.84827,5.54503 -11.76634,-0.27049 -14.06549,-0.81148 -15.01222,-5.54503 -0.9467,-4.73358 -0.67622,-40.16777 0.94673,-46.79479 1.62293,-6.627 3.38111,-7.30324 14.33597,-7.16799 z"
     style="fill:#292929;fill-opacity:1;stroke:none;stroke-width:0.264583px;stroke-linecap:butt;stroke-linejoin:miter;stroke-opacity:1" />
  <path
     id="path863"
     d="m 854.23284,174.6193 c -0.15073,-0.004 -0.3045,0.003 -0.45989,0.0151 -1.24325,0.0957 -2.00816,0.28721 -2.10376,2.29548 -0.0956,2.00829 -0.38142,1.57136 -3.44268,1.62575 -1.95225,0.0347 -4.03569,0.007 -6.59908,0.0956 -1.72341,0.0593 -1.72135,1.53008 -1.72135,3.25146 0,1.72138 -0.0957,10.99786 0,15.58822 0.0957,4.59036 0.38293,37.20118 0.38293,39.3051 0,2.10391 8e-5,2.96465 1.33893,2.96465 1.33889,0 1.53013,-0.2872 1.53013,-3.82561 0,-3.5384 -0.28741,-32.41955 -0.19171,-37.67933 0.0957,-5.25982 0.95657,-11.9538 3.9212,-11.9538 2.96461,0 4.97285,3.7297 5.06844,6.31177 0.0956,2.58209 0.86098,4.20753 2.29547,4.11189 1.43449,-0.0957 1.72133,-0.76497 1.81692,-3.44268 0.0956,-2.67772 0.47808,-10.3283 0.28681,-14.44048 -0.16735,-3.59818 -1.06722,-4.19423 -2.12236,-4.22299 z m -4.57334,7.01662 c 1.62292,0 2.02882,0.20257 2.02882,2.096 0,1.89344 -0.20286,1.82573 -1.42007,1.35237 -1.21719,-0.47337 -2.02883,-0.94663 -3.4489,-0.879 -1.42007,0.0676 -1.82594,0.60859 -2.50216,1.42007 -0.67622,0.81145 -1.28479,0.406 -1.35237,-1.62264 0,-1.96106 0,-2.09658 1.69085,-2.16421 1.69055,-0.0676 3.38087,-0.20259 5.00383,-0.20259 z"
     style="fill:#222222;fill-opacity:1;stroke:none;stroke-width:0.264583px;stroke-linecap:butt;stroke-linejoin:miter;stroke-opacity:1" />
  <path
     id="path888"
     d="m 697.37679,147.03133 c -8.73676,0.0167 -16.50286,1.02989 -16.50286,4.58007 0,8.11472 -0.81153,108.46644 -0.54105,115.76968 0.27049,6.76225 0,7.84421 5.40949,7.5737 5.4098,-0.27049 24.34431,-1.08209 28.67215,-1.08209 4.32785,0 5.40999,-1.08175 5.40999,-5.95056 0,-4.86881 1.08159,-81.14729 1.08159,-85.20462 0,-4.05736 0.54108,-34.08164 0.54108,-34.08164 0,0 -12.8374,-1.62594 -24.07039,-1.60454 z m -45.05098,3.13211 c -12.91201,-0.063 -27.68004,1.21129 -27.98434,3.3414 -0.54097,3.78687 -0.54105,30.29476 -0.54105,37.86849 0,7.5737 -2.4e-4,71.40927 0.27025,78.71251 0.27048,7.57372 -0.27011,7.57391 6.49213,7.30342 6.76225,-0.27051 27.5898,-1.08185 33.54057,-1.35236 5.9508,-0.27049 5.95056,0.27027 5.95056,-5.41002 0,-5.68031 1.62338,-113.33527 1.35287,-117.66311 -0.11833,-1.89342 -9.03833,-2.75133 -19.08099,-2.80033 z m -44.48463,7.39852 -91.96647,4.86894 0.81182,31.10611 c 0,10.00813 0.54055,78.98342 0.54055,83.85225 0,4.86881 1.08193,4.86894 5.68026,4.86894 4.59832,0 74.92579,-2.97582 79.79463,-3.2463 4.86881,-0.27048 4.32818,-1.62272 4.59867,-5.95053 0.27048,-4.32785 1.08182,-82.49936 0.81131,-88.17965 -0.27048,-5.68031 -0.27077,-27.31976 -0.27077,-27.31976 z m -99.54016,4.59867 -88.44992,5.13921 c 0,0 1.08159,29.75362 1.08159,32.4585 0,2.70492 -0.81132,73.57333 -0.81132,79.79461 0,6.22128 2.16376,6.76259 8.38502,6.4921 6.22128,-0.27048 65.99981,-2.43453 71.40961,-2.97553 5.40978,-0.54096 6.22131,-0.54099 6.22131,-6.2213 0,-5.68026 1.35207,-70.0572 1.08159,-79.52436 4.05735,-0.81148 1.08212,-35.16323 1.08212,-35.16323 z m -96.83544,5.13921 -93.58963,5.95056 -2.70476,33.00005 c -0.27048,13.79501 -1.35236,73.57314 -1.35236,78.17146 0,4.59833 0.81166,5.13922 5.40999,5.13922 4.59832,0 78.44173,-3.24581 84.12199,-3.24581 5.68031,0 6.49213,-1.35225 6.49213,-6.49157 0,-5.13932 1.08159,-77.3602 1.08157,-81.68804 0,-4.32785 0.54107,-30.83587 0.54107,-30.83587 z"
     style="fill:#3e3e3e;fill-opacity:1;stroke:none;stroke-width:0.264583px;stroke-linecap:butt;stroke-linejoin:miter;stroke-opacity:1" />
  <path
     id="path896"
     d="m 720.91904,140.94332 c -0.60444,-0.007 -1.29463,0.005 -2.08359,0.0284 -6.31174,0.19127 -405.67366,23.5255 -409.69025,24.09931 -4.01656,0.5738 -3.82556,2.10394 -4.0168,6.31176 -0.19127,4.20786 -5e-5,27.54257 0.19119,32.13293 0.19127,4.59034 -0.19113,5.54641 4.39923,5.54641 4.59036,0 401.08353,-19.31749 408.92541,-19.89127 6.69431,-0.38253 6.69409,-0.5738 6.88536,-6.31176 0.19127,-5.73797 8e-5,-31.55874 -0.19119,-36.53163 -0.16735,-4.35129 -0.18835,-5.33448 -4.41936,-5.38417 z m -4.84674,11.33057 c 2.71909,-0.01 3.07578,0.90128 3.07578,4.07107 0,3.38113 -0.54084,17.31152 -0.81132,20.55741 -0.27048,3.24588 -0.81185,4.0569 -4.5987,4.32739 -3.78684,0.27048 -80.87619,4.19301 -83.71633,4.19301 -2.84014,0 -2.97566,-0.2707 -3.11092,-4.46328 -0.13525,-4.59836 -0.13525,-17.85239 0,-20.42203 0.13526,-2.56963 0.54137,-3.38132 3.65199,-3.51657 3.11063,-0.13523 81.68794,-4.59833 84.93382,-4.73356 0.20288,-0.008 0.39441,-0.0127 0.57568,-0.0135 z m -113.31144,7.16494 c 3.4254,-0.0382 3.19551,0.65884 3.3223,4.20905 0.13525,3.78685 0.40603,17.9877 0.27077,20.01636 -0.13523,2.02867 -8e-5,3.51658 -3.38119,3.51658 -3.38114,0 -78.30693,4.05741 -81.68804,4.32789 -3.38114,0.27049 -3.78701,-0.67635 -3.92223,-3.92223 -0.13526,-3.24588 -0.27036,-16.22941 0.13538,-19.47532 0.40574,-3.24583 0.27033,-4.19264 3.65146,-4.32789 3.38114,-0.13523 76.81939,-4.19267 80.87673,-4.3279 0.26204,-0.008 0.50646,-0.014 0.73482,-0.0164 z m -100.02903,5.68286 c 3.69332,-0.01 3.82783,0.9018 4.08141,4.07159 0.27048,3.38114 0.27048,16.63486 0,19.20452 -0.27049,2.56966 -0.81116,3.65175 -4.46278,3.92223 -3.6516,0.27049 -73.84405,4.05763 -76.68422,4.05763 -2.84011,0 -4.32752,-0.94721 -4.46275,-3.78735 -0.13525,-2.84015 -0.13549,-16.63499 0.27025,-19.33991 0.40573,-2.70489 1.35233,-3.5165 4.59816,-3.92223 3.24588,-0.40574 72.08602,-4.05728 75.8729,-4.19251 0.27895,-0.008 0.54081,-0.0132 0.78703,-0.014 z m -97.21422,5.27462 c 3.83398,-0.009 4.19855,0.91845 4.32533,4.34184 0.13526,3.65162 -0.40579,15.01201 -0.54107,17.85216 -0.13523,2.84014 -0.67635,3.65175 -4.86894,3.92223 -4.19262,0.27048 -72.89713,3.78714 -77.90119,4.05762 -5.00407,0.27049 -5.95053,0 -5.95053,-3.2463 0,-3.24588 -0.27065,-12.4424 -0.13539,-17.44647 0,-4.32784 0.81121,-4.46309 4.05709,-4.73358 3.24589,-0.27048 75.60196,-4.5983 80.20029,-4.73355 0.28739,-0.008 0.55883,-0.0135 0.81441,-0.014 z"
     style="fill:#2a2a2a;fill-opacity:1;stroke:none;stroke-width:0.264583px;stroke-linecap:butt;stroke-linejoin:miter;stroke-opacity:1" />
  <path
     id="path927"
     d="m 245.26227,145.56215 -90.85077,5.54697 c 0,0 -0.1912,27.35048 -0.1912,29.83693 0,2.48644 -0.57419,68.09083 -0.38293,73.06376 0.19127,4.97289 0.76545,6.69417 5.16455,6.69417 4.3991,0 74.01935,-1.91289 78.41847,-2.48669 4.3991,-0.5738 5.7381,-1.72119 5.92934,-6.88536 0.19127,-5.16416 0.95649,-64.45644 1.14774,-72.68083 z m -102.51828,6.88539 -95.823603,4.7816 c 0,0 -5.8e-5,25.43873 0.191202,28.69025 0.19127,3.25152 -1.530205,72.10695 -1.338935,76.12351 0.191259,4.01659 1.530043,4.78163 4.972823,4.78163 3.442768,0 82.244183,-3.82548 86.643283,-4.20801 4.39912,-0.38254 5.16403,-1.72146 5.16403,-6.12056 0,-4.39912 -0.1912,-63.30844 -0.1912,-72.29792 z"
     style="fill:#3e3e3e;fill-opacity:1;stroke:none;stroke-width:0.264583px;stroke-linecap:butt;stroke-linejoin:miter;stroke-opacity:1" />
  <path
     id="path919"
     d="m 243.84635,131.54855 c -0.64627,0.006 -1.38118,0.0272 -2.21795,0.0512 -6.69427,0.19127 -186.866488,12.43211 -192.030657,13.00591 -5.164161,0.57378 -4.972767,0.57409 -5.164026,5.35575 -0.19127,4.78163 -0.95608,32.13251 -0.76481,36.53163 0.191259,4.39909 0.382394,5.92942 5.164024,5.73815 4.78164,-0.19127 183.805909,-10.90258 191.456519,-11.28511 8.22442,-0.19127 8.79798,-0.19095 8.60671,-8.7979 -0.19126,-8.60695 8e-5,-28.49859 -0.19118,-34.61909 -0.16735,-5.35541 -0.33476,-6.02496 -4.85863,-5.98051 z m -4.65709,16.66928 c 3.8258,-0.0364 4.18426,1.06209 4.54287,5.18623 0.38256,4.39912 0.5737,11.28482 0.38243,15.30138 -0.19129,4.01659 0.57393,4.97274 -5.16403,5.35525 -5.73797,0.38253 -72.68089,3.82553 -77.27126,4.0168 -4.59037,0.19126 -5.92928,2e-5 -6.12055,-4.78161 -0.19126,-4.78163 5.2e-4,-9.75489 0.19172,-14.72779 0.19125,-4.78163 -0.1916,-5.16379 5.73763,-5.92884 5.92922,-0.76506 72.29848,-4.20796 76.88884,-4.39922 0.28692,-0.0119 0.55729,-0.0198 0.81235,-0.0222 z m -102.2661,6.69414 c 4.07723,-0.0385 3.92018,1.0264 4.09949,4.61264 0.19126,3.82529 0.1912,12.4323 0.1912,15.68381 0,3.25152 -0.76498,4.59029 -4.97282,4.97282 -4.20783,0.38254 -78.99237,4.39915 -82.817682,4.59042 -3.825308,0.19126 -4.207885,-0.38286 -4.590417,-3.82561 -0.38253,-3.44279 -0.191326,-13.57951 0.191203,-16.83102 0.38253,-3.25152 1.147639,-4.01675 4.590418,-4.20802 3.442769,-0.19126 76.506048,-4.78155 82.435278,-4.97281 0.31081,-0.0119 0.60151,-0.0196 0.87333,-0.0222 z"
     style="fill:#2a2a2a;fill-opacity:1;stroke:none;stroke-width:0.264583px;stroke-linecap:butt;stroke-linejoin:miter;stroke-opacity:1" />
  <path
     id="path1109"
     d="m 1142.9106,84.947837 c 0.067,1.523881 -0.4402,1.88076 -1.6007,1.960798 -1.1605,0.08004 -6.0825,0.160085 -7.4031,0.04003 -1.3206,-0.120055 -1.8008,-0.360149 -1.9608,-2.000832 -0.1601,-1.640679 -0.5931,-20.245793 -0.513,-21.766433 0.08,-1.52064 0.9538,-1.85718 2.1543,-1.9372 1.2005,-0.08 4.6813,-0.17644 6.0019,-0.0564 1.3205,0.12003 2.0577,0.26965 2.1609,1.68071 0.55,7.523833 0.8301,14.542068 1.1605,22.079367 z"
     style="fill:#e2881e;fill-opacity:1;stroke:none;stroke-width:0.264583px;stroke-linecap:butt;stroke-linejoin:miter;stroke-opacity:1" />
  <path
     id="path1111"
     d="m 1142.2198,85.099151 c 0.165,1.999798 0.8908,1.76228 2.4915,1.682243 1.6007,-0.08004 6.6828,-0.240096 7.6032,-0.360151 0.9203,-0.120055 1.0004,-0.36015 0.9604,-1.760749 -0.04,-1.400572 -0.7105,-21.113054 -0.9105,-22.193514 -0.2001,-1.08045 -0.4002,-1.48062 -1.5607,-1.52064 -1.1605,-0.04 -6.2124,0.0243 -7.613,0.14429 -1.4006,0.12002 -1.5464,0.48785 -1.5364,1.37631 0.067,5.947383 0.1099,17.110438 0.5655,22.632211 z"
     style="fill:#e0e0e0;fill-opacity:1;stroke:none;stroke-width:0.264583px;stroke-linecap:butt;stroke-linejoin:miter;stroke-opacity:1" />
  <path
     id="path1140"
     d="m 679.13099,464.05621 c 20.02284,-0.30802 26.33773,-24.48946 26.64579,-41.73989 0.30803,-17.25047 -8.47122,-47.43874 -26.64579,-48.05482 -18.17457,-0.61608 -22.48718,30.03426 -22.64119,44.51231 -0.15404,14.47805 6.16085,45.43645 22.64119,45.2824 z"
     style="fill:#1f1f1f;fill-opacity:1;stroke:none;stroke-width:0.264583px;stroke-linecap:butt;stroke-linejoin:miter;stroke-opacity:1" />
  <path
     id="path1142"
     d="m 689.69046,378.44925 c -4.664,1.57548 -10.52285,4.47455 -15.64196,8.44185 -6.16085,4.77469 -1.69436,62.6873 0.76999,64.68959 2.26296,1.83864 3.63601,2.2733 11.59412,11.15332 14.31341,-5.30264 19.09712,-25.46297 19.3642,-40.41769 0.24079,-13.48582 -5.07249,-34.8777 -16.08635,-43.86707 z"
     style="fill:#858585;fill-opacity:1;stroke:none;stroke-width:0.264583px;stroke-linecap:butt;stroke-linejoin:miter;stroke-opacity:1" />
  <path
     id="path1147"
     d="m 674.58735,451.50346 c 4.92871,0 17.32746,-6.54595 17.32746,-30.26529 0,-23.71937 -10.62752,-34.03884 -18.17458,-33.88482 -7.54707,0.15401 -15.24817,12.47576 -15.24817,31.57447 0,19.09871 6.31492,32.80664 16.09529,32.57564 z"
     style="fill:#787878;fill-opacity:1;stroke:none;stroke-width:0.264583px;stroke-linecap:butt;stroke-linejoin:miter;stroke-opacity:1" />
  <path
     id="path1149"
     d="m 690.68161,379.30602 c -2.87808,2.28269 -5.87081,6.76151 -3.69538,7.97007 2.51981,1.39988 4.16317,0.76343 9.87433,-0.11575 -1.78858,-3.03959 -3.8477,-5.72845 -6.17895,-7.85432 z m 9.15654,13.78315 c -2.15479,1.81795 -4.42666,5.03685 -3.61063,8.12612 0.9226,3.49274 3.76536,3.99344 7.46103,3.63181 -0.95466,-3.99945 -2.2393,-8.01228 -3.8504,-11.75793 z m 5.57589,21.76817 c -2.79591,0.91644 -6.23062,2.43774 -6.41409,6.53502 -0.20187,4.50877 2.59533,5.9004 6.43888,6.89931 0.19378,-2.04896 0.30369,-4.05551 0.33798,-5.97535 0.0409,-2.2904 -0.0825,-4.81195 -0.36277,-7.45898 z m -2.9223,23.44457 c -2.75074,0.0614 -6.12979,0.9566 -7.34272,3.49798 -1.43878,3.01461 1.09315,4.57216 5.08394,6.93859 1.53535,-3.24244 2.70307,-6.78423 3.56413,-10.40143 -0.40937,-0.0321 -0.84857,-0.0453 -1.30535,-0.0351 z m -14.98359,14.6508 c -1.01635,-0.0177 -1.82653,0.17508 -2.21639,0.62992 -1.34967,1.57464 -1.1503,3.44861 4.26278,7.66879 2.27994,-1.3236 4.27207,-3.06522 6.00636,-5.11236 -1.80787,-1.8257 -5.55318,-3.14298 -8.05275,-3.18635 z"
     style="fill:#1d1d1d;fill-opacity:1;stroke:none;stroke-width:0.264583px;stroke-linecap:butt;stroke-linejoin:miter;stroke-opacity:1" />
  <path
     id="path1154"
     d="m 674.89541,398.2889 c -8.3942,0.38507 -10.85856,10.55049 -10.78154,20.09986 0.077,9.54934 3.69652,22.10213 10.93555,21.94809 7.23903,-0.15402 10.85853,-10.24245 10.85853,-20.79294 0,-10.5505 -3.23446,-20.79295 -11.01254,-21.25501 z"
     style="fill:#686868;fill-opacity:1;stroke:none;stroke-width:0.264583px;stroke-linecap:butt;stroke-linejoin:miter;stroke-opacity:1" />
  <path
     id="path1156"
     d="m 665.43692,397.86982 c 0.0544,-2.72275 0,-3.59402 1.41582,-3.70292 1.41583,-0.10893 2.34156,1.3069 2.34156,3.32173 0,2.01483 -0.54454,3.7574 -1.74255,3.7574 -1.19801,0 -2.12373,-0.92575 -2.01483,-3.37621 z"
     style="fill:#8d8d8d;fill-opacity:1;stroke:none;stroke-width:0.264583px;stroke-linecap:butt;stroke-linejoin:miter;stroke-opacity:1" />
  <path
     id="path1159"
     d="m 661.18943,397.37973 c 0.10891,-2.17821 1.19801,-2.39601 3.26729,-2.39601 2.06931,0 2.72275,1.03462 2.7772,2.72274 0.0545,1.6881 -0.65344,2.23264 -2.55937,2.23264 -1.90592,0 -3.48512,-0.27226 -3.48512,-2.55937 z"
     style="fill:#676767;fill-opacity:1;stroke:none;stroke-width:0.264583px;stroke-linecap:butt;stroke-linejoin:miter;stroke-opacity:1" />
  <path
     style="fill:#8d8d8d;fill-opacity:1;stroke:none;stroke-width:0.264583px;stroke-linecap:butt;stroke-linejoin:miter;stroke-opacity:1"
     d="m 673.44606,394.48134 c 0.0544,-2.72275 0,-3.59402 1.41582,-3.70292 1.41583,-0.10893 2.34156,1.3069 2.34156,3.32173 0,2.01483 -0.54454,3.7574 -1.74255,3.7574 -1.19801,0 -2.12373,-0.92575 -2.01483,-3.37621 z"
     id="path1165" />
  <path
     style="fill:#676767;fill-opacity:1;stroke:none;stroke-width:0.264583px;stroke-linecap:butt;stroke-linejoin:miter;stroke-opacity:1"
     d="m 669.19857,393.99125 c 0.10891,-2.17821 1.19801,-2.39601 3.26729,-2.39601 2.06931,0 2.72275,1.03462 2.7772,2.72274 0.0545,1.6881 -0.65344,2.23264 -2.55937,2.23264 -1.90592,0 -3.48512,-0.27226 -3.48512,-2.55937 z"
     id="path1167" />
  <path
     id="path1171"
     d="m 681.37818,400.25716 c 0.0544,-2.72275 0,-3.59402 1.41581,-3.70292 1.41584,-0.10893 2.34157,1.3069 2.34157,3.32173 0,2.01483 -0.54454,3.7574 -1.74255,3.7574 -1.19801,0 -2.12373,-0.92575 -2.01483,-3.37621 z"
     style="fill:#8d8d8d;fill-opacity:1;stroke:none;stroke-width:0.264583px;stroke-linecap:butt;stroke-linejoin:miter;stroke-opacity:1" />
  <path
     id="path1173"
     d="m 677.13069,399.76707 c 0.10891,-2.17821 1.19801,-2.39601 3.26729,-2.39601 2.06931,0 2.72275,1.03462 2.7772,2.72274 0.0545,1.6881 -0.65344,2.23264 -2.55937,2.23264 -1.90592,0 -3.48512,-0.27226 -3.48512,-2.55937 z"
     style="fill:#676767;fill-opacity:1;stroke:none;stroke-width:0.264583px;stroke-linecap:butt;stroke-linejoin:miter;stroke-opacity:1" />
  <path
     style="fill:#8d8d8d;fill-opacity:1;stroke:none;stroke-width:0.264583px;stroke-linecap:butt;stroke-linejoin:miter;stroke-opacity:1"
     d="m 686.22987,413.73407 c 0.0544,-2.72275 0,-3.59402 1.41582,-3.70292 1.41583,-0.10893 2.34156,1.3069 2.34156,3.32173 0,2.01483 -0.54454,3.7574 -1.74255,3.7574 -1.19801,0 -2.12373,-0.92575 -2.01483,-3.37621 z"
     id="path1177" />
  <path
     style="fill:#676767;fill-opacity:1;stroke:none;stroke-width:0.264583px;stroke-linecap:butt;stroke-linejoin:miter;stroke-opacity:1"
     d="m 681.98238,413.24398 c 0.10891,-2.17821 1.19801,-2.39601 3.26729,-2.39601 2.06931,0 2.72275,1.03462 2.7772,2.72274 0.0545,1.6881 -0.65344,2.23264 -2.55937,2.23264 -1.90592,0 -3.48512,-0.27226 -3.48512,-2.55937 z"
     id="path1180" />
  <path
     id="path1184"
     d="m 660.12317,410.26858 c 0.0545,-2.72275 0,-3.59402 1.41582,-3.70292 1.41583,-0.10893 2.34156,1.3069 2.34156,3.32173 0,2.01483 -0.54454,3.7574 -1.74255,3.7574 -1.19801,0 -2.12373,-0.92575 -2.01483,-3.37621 z"
     style="fill:#8d8d8d;fill-opacity:1;stroke:none;stroke-width:0.264583px;stroke-linecap:butt;stroke-linejoin:miter;stroke-opacity:1" />
  <path
     id="path1186"
     d="m 655.87568,409.77849 c 0.10891,-2.17821 1.19801,-2.39601 3.26729,-2.39601 2.06931,0 2.72275,1.03462 2.7772,2.72274 0.0545,1.6881 -0.65344,2.23264 -2.55937,2.23264 -1.90592,0 -3.48512,-0.27226 -3.48512,-2.55937 z"
     style="fill:#676767;fill-opacity:1;stroke:none;stroke-width:0.264583px;stroke-linecap:butt;stroke-linejoin:miter;stroke-opacity:1" />
  <path
     style="fill:#8d8d8d;fill-opacity:1;stroke:none;stroke-width:0.264583px;stroke-linecap:butt;stroke-linejoin:miter;stroke-opacity:1"
     d="m 659.89213,426.05582 c 0.0545,-2.72275 0,-3.59402 1.41582,-3.70292 1.41583,-0.10893 2.34156,1.3069 2.34156,3.32173 0,2.01483 -0.54454,3.7574 -1.74255,3.7574 -1.19801,0 -2.12373,-0.92575 -2.01483,-3.37621 z"
     id="path1190" />
  <path
     style="fill:#676767;fill-opacity:1;stroke:none;stroke-width:0.264583px;stroke-linecap:butt;stroke-linejoin:miter;stroke-opacity:1"
     d="m 655.64464,425.56573 c 0.10891,-2.17821 1.19801,-2.39601 3.26729,-2.39601 2.06931,0 2.72275,1.03462 2.7772,2.72274 0.0545,1.6881 -0.65344,2.23264 -2.55937,2.23264 -1.90592,0 -3.48512,-0.27226 -3.48512,-2.55937 z"
     id="path1192" />
  <path
     id="path1196"
     d="m 672.75296,444.76947 c 0.0544,-2.72275 0,-3.59402 1.41582,-3.70292 1.41583,-0.10893 2.34156,1.3069 2.34156,3.32173 0,2.01483 -0.54454,3.7574 -1.74255,3.7574 -1.19801,0 -2.12373,-0.92575 -2.01483,-3.37621 z"
     style="fill:#8d8d8d;fill-opacity:1;stroke:none;stroke-width:0.264583px;stroke-linecap:butt;stroke-linejoin:miter;stroke-opacity:1" />
  <path
     id="path1198"
     d="m 668.50547,444.27938 c 0.10891,-2.17821 1.19801,-2.39601 3.26729,-2.39601 2.06931,0 2.72275,1.03462 2.7772,2.72274 0.0545,1.6881 -0.65344,2.23264 -2.55937,2.23264 -1.90592,0 -3.48512,-0.27226 -3.48512,-2.55937 z"
     style="fill:#676767;fill-opacity:1;stroke:none;stroke-width:0.264583px;stroke-linecap:butt;stroke-linejoin:miter;stroke-opacity:1" />
  <path
     style="fill:#8d8d8d;fill-opacity:1;stroke:none;stroke-width:0.264583px;stroke-linecap:butt;stroke-linejoin:miter;stroke-opacity:1"
     d="m 664.35877,439.3787 c 0.0544,-2.72275 0,-3.59402 1.41581,-3.70292 1.41584,-0.10893 2.34157,1.3069 2.34157,3.32173 0,2.01483 -0.54454,3.7574 -1.74255,3.7574 -1.19801,0 -2.12373,-0.92575 -2.01483,-3.37621 z"
     id="path1202" />
  <path
     style="fill:#676767;fill-opacity:1;stroke:none;stroke-width:0.264583px;stroke-linecap:butt;stroke-linejoin:miter;stroke-opacity:1"
     d="m 660.11128,438.88861 c 0.10891,-2.17821 1.19801,-2.39601 3.26729,-2.39601 2.06931,0 2.72275,1.03462 2.7772,2.72274 0.0545,1.6881 -0.65344,2.23264 -2.55937,2.23264 -1.90592,0 -3.48512,-0.27226 -3.48512,-2.55937 z"
     id="path1204" />
  <path
     id="path1208"
     d="m 680.8391,441.30398 c 0.0544,-2.72275 0,-3.59402 1.41582,-3.70292 1.41583,-0.10893 2.34156,1.3069 2.34156,3.32173 0,2.01483 -0.54454,3.7574 -1.74255,3.7574 -1.19801,0 -2.12373,-0.92575 -2.01483,-3.37621 z"
     style="fill:#8d8d8d;fill-opacity:1;stroke:none;stroke-width:0.264583px;stroke-linecap:butt;stroke-linejoin:miter;stroke-opacity:1" />
  <path
     id="path1210"
     d="m 676.59161,440.81389 c 0.10891,-2.17821 1.19801,-2.39601 3.26729,-2.39601 2.06931,0 2.72275,1.03462 2.7772,2.72274 0.0545,1.6881 -0.65344,2.23264 -2.55937,2.23264 -1.90592,0 -3.48512,-0.27226 -3.48512,-2.55937 z"
     style="fill:#676767;fill-opacity:1;stroke:none;stroke-width:0.264583px;stroke-linecap:butt;stroke-linejoin:miter;stroke-opacity:1" />
  <path
     style="fill:#8d8d8d;fill-opacity:1;stroke:none;stroke-width:0.264583px;stroke-linecap:butt;stroke-linejoin:miter;stroke-opacity:1"
     d="m 685.92182,429.4443 c 0.0544,-2.72275 0,-3.59402 1.41582,-3.70292 1.41583,-0.10893 2.34156,1.3069 2.34156,3.32173 0,2.01483 -0.54454,3.7574 -1.74255,3.7574 -1.19801,0 -2.12373,-0.92575 -2.01483,-3.37621 z"
     id="path1214" />
  <path
     style="fill:#676767;fill-opacity:1;stroke:none;stroke-width:0.264583px;stroke-linecap:butt;stroke-linejoin:miter;stroke-opacity:1"
     d="m 681.67433,428.95421 c 0.10891,-2.17821 1.19801,-2.39601 3.26729,-2.39601 2.06931,0 2.72275,1.03462 2.7772,2.72274 0.0545,1.6881 -0.65344,2.23264 -2.55937,2.23264 -1.90592,0 -3.48512,-0.27226 -3.48512,-2.55937 z"
     id="path1216" />
  <path
     id="path1254"
     d="m 675.23881,407.81969 c 3.7574,0.0545 6.69795,7.02469 6.58905,11.92564 -0.10893,4.90093 -1.57919,10.94545 -5.49995,10.94545 -3.92075,0 -5.66332,-4.30194 -5.71777,-10.67319 -0.0544,-6.37122 0.1089,-12.1979 4.62867,-12.1979 z"
     style="fill:#5c5c5c;fill-opacity:1;stroke:none;stroke-width:0.264583px;stroke-linecap:butt;stroke-linejoin:miter;stroke-opacity:1" />
  <path
     id="path1256"
     d="m 672.8429,410.86896 c 0,0 -0.43564,17.8072 0.43564,17.8072 0.72625,-3e-5 3.71914,0.0355 6.43112,-0.078 1.43446,-2.19586 2.0493,-5.75207 2.11823,-8.8527 0.063,-2.83628 -0.89639,-6.36357 -2.44327,-8.84441 -1.46402,0.0378 -3.86048,0.0544 -6.54172,-0.032 z"
     style="fill:#646464;fill-opacity:1;stroke:none;stroke-width:0.264583px;stroke-linecap:butt;stroke-linejoin:miter;stroke-opacity:1" />
  <path
     id="path1252"
     d="m 672.66209,410.91869 c 4.08129,-0.0475 5.62178,3.54252 5.62178,9.1643 0,5.62179 -1.61721,8.54822 -5.0057,8.54822 -3.3885,0 -5.62179,-3.92756 -5.62179,-9.31834 0,-5.39075 2.46334,-8.36461 5.00571,-8.39418 z"
     style="fill:#6d6d6d;fill-opacity:1;stroke:none;stroke-width:0.264583px;stroke-linecap:butt;stroke-linejoin:miter;stroke-opacity:1" />
  <path
     id="path1269"
     d="m 203.09288,382.52624 c -16.20833,0.46979 -20.43659,25.36957 -19.73188,41.34299 0.70471,15.97343 6.8122,39.46377 19.26208,39.69867 12.44988,0.2349 22.08092,-22.78563 21.61111,-40.87318 -0.46981,-18.08757 -8.22162,-39.69869 -21.14131,-40.16848 z"
     style="fill:#939393;fill-opacity:1;stroke:none;stroke-width:0.264583px;stroke-linecap:butt;stroke-linejoin:miter;stroke-opacity:1" />
  <path
     id="path1271"
     d="m 213.71382,388.51476 c -11.75315,9.50386 -15.11189,20.83131 -15.55409,36.52904 -0.43405,15.40896 5.14773,28.0099 15.07712,32.80267 6.86478,-7.93581 11.32041,-22.71069 10.99726,-35.15188 -0.32154,-12.37906 -4.05473,-26.40671 -10.52029,-34.17983 z"
     style="fill:#737373;fill-opacity:1;stroke:none;stroke-width:0.264583px;stroke-linecap:butt;stroke-linejoin:miter;stroke-opacity:1" />
  <path
     id="path1276"
     d="m 223.07966,412.53864 c -5.05645,-0.10105 -8.64185,3.21228 -8.64185,9.48777 0,6.18363 2.57626,10.69904 9.16688,10.37458 0.4879,-3.28578 0.71088,-6.57027 0.62942,-9.7064 -0.0861,-3.31539 -0.41936,-6.74865 -0.98185,-10.14873 -0.0574,-0.003 -0.11561,-0.006 -0.1726,-0.007 z"
     style="fill:#bababa;fill-opacity:1;stroke:none;stroke-width:0.264583px;stroke-linecap:butt;stroke-linejoin:miter;stroke-opacity:1" />
  <path
     id="path1281"
     d="m 211.21888,405.28429 c -0.30369,0.004 -0.62402,0.0127 -0.96169,0.0274 -5.40278,0.23489 -4.46278,3.99343 -4.46278,5.75521 0,1.76179 1.76139,3.64094 4.46278,3.75841 6.10748,0.11745 6.57752,-3.17114 6.46007,-5.87251 -0.11011,-2.53253 -0.94296,-3.72311 -5.49838,-3.6685 z m -0.009,19.61018 c -0.42255,-0.009 -0.89412,0.003 -1.42266,0.032 -4.22825,0.2349 -4.93265,3.99336 -4.8152,6.22493 0.11745,2.23158 1.87914,4.2278 5.87251,4.11036 6.34239,-0.58725 5.63752,-3.99315 4.6979,-6.81199 -0.82216,-2.46647 -1.3747,-3.49433 -4.33255,-3.55534 z m 5.25756,19.11768 c -2.15818,-0.0293 -4.27243,0.52832 -5.03587,2.05518 -1.46196,2.92391 -0.7532,4.1253 6.1128,5.35627 1.09963,-2.06549 2.08615,-4.31035 2.94349,-6.66834 -1.09436,-0.43609 -2.56656,-0.72332 -4.02042,-0.74311 z"
     style="fill:#1c1c1c;fill-opacity:1;stroke:none;stroke-width:0.264583px;stroke-linecap:butt;stroke-linejoin:miter;stroke-opacity:1" />
  <path
     id="path1299"
     d="m 982.54579,63.037455 c 2.32234,0.02878 2.36746,-0.06545 2.36986,2.019937 0.002,2.085374 -0.18268,2.272639 -1.93627,2.250907 -1.75356,-0.02173 -3.79039,4.61e-4 -4.78339,0.08292 -0.99305,0.08248 -1.12504,0.507384 -1.26145,2.733207 -0.13637,2.225868 -0.46249,2.458773 2.0968,2.49049 2.55927,0.03172 3.45637,-0.09934 3.55131,1.892366 0.095,1.991746 0.14798,2.229392 -2.0299,2.297182 -2.1779,0.06778 -1.65767,0.02684 -2.6981,0.108733 -1.04038,0.08193 -0.9749,0.841013 -1.02893,2.546531 -0.0541,1.705518 -0.22554,2.461708 1.38699,2.529082 1.61254,0.06737 3.88744,0.09556 5.02606,0.157107 1.13856,0.06149 1.14648,0.393323 1.18608,2.052612 0.0396,1.65929 -0.28194,2.081853 -1.41603,2.210009 -1.13407,0.128116 -7.19599,0.242545 -8.6178,0.224925 -1.42185,-0.01762 -1.7638,-0.448406 -1.79435,-1.728425 -0.0306,-1.280021 0.82479,-19.042231 0.93759,-20.273085 0.11271,-1.230811 0.1996,-1.561503 1.6192,-1.638688 1.41954,-0.07723 5.87574,0.02538 7.39233,0.04418 z"
     style="fill:#99bd63;fill-opacity:1;stroke:none;stroke-width:0.440829px;stroke-linecap:butt;stroke-linejoin:miter;stroke-opacity:1" />
  <path
     id="path1301"
     d="m 988.59465,70.316329 c 1.89575,0.02349 2.08309,-0.06895 2.17687,1.875378 0.0937,1.944296 1.25853,5.086772 2.82364,5.153558 1.56516,0.06678 3.09509,-3.32663 3.05323,-5.080727 -0.0419,-1.754096 0.13639,-2.225824 1.60564,-2.207616 1.46919,0.01821 1.90707,0.497571 1.98837,1.920387 0.081,1.422819 -3.80696,5.260988 -3.82946,6.30336 -0.0224,1.042374 0.7641,2.236984 2.22325,3.819087 1.45911,1.582104 1.47381,2.198391 1.49871,3.241394 0.025,1.042959 -0.39256,1.416943 -1.91029,1.350746 -1.51776,-0.06619 -1.56741,-0.161646 -1.59796,-1.441656 -0.0306,-1.280021 -1.55645,-5.659182 -3.02796,-5.772196 -1.47145,-0.113005 -3.30502,2.470934 -3.34548,4.745337 -0.0405,2.274445 -0.32372,2.318324 -2.07616,2.343996 -1.75245,0.02567 -1.85516,-0.30737 -1.8045,-2.155098 0.0507,-1.847772 0.60357,-2.504415 1.66759,-3.581312 1.06406,-1.076854 2.42489,-1.628748 2.40339,-2.529497 -0.0215,-0.900751 -1.62398,-2.532021 -2.69039,-3.540497 -1.06645,-1.008479 -1.16916,-1.341521 -1.10492,-2.620366 0.0643,-1.278846 0.33616,-1.796801 1.94643,-1.824278 z"
     style="fill:#99bd63;fill-opacity:1;stroke:none;stroke-width:0.440829px;stroke-linecap:butt;stroke-linejoin:miter;stroke-opacity:1" />
  <path
     id="path1303"
     d="m 1008.2228,69.667323 c -1.702,-0.03211 -3.842,0.0037 -4.6232,0.02964 -1.0415,0.03448 -0.9816,0.55602 -1.0966,1.692069 -0.1151,1.136004 -0.6313,13.262835 -0.5623,14.164173 0.069,0.901337 0.4045,1.09501 1.8737,1.113217 1.4693,0.01821 1.8903,-0.213255 1.9105,-1.350479 0.02,-1.137179 0.1121,-3.269261 0.1752,-4.595553 0.063,-1.326204 1.2468,-1.358616 4.1356,-1.417594 2.8888,-0.05898 4.0149,-2.509615 3.9549,-5.022251 -0.06,-2.512637 -1.1005,-4.420969 -4.2781,-4.555172 -0.4035,-0.0288 -0.9223,-0.04714 -1.4897,-0.05813 z m -0.2076,2.406474 c 2.0379,0.02526 2.0988,0.594418 2.143,2.443365 0.044,1.848903 -0.2244,2.509597 -1.9769,2.535269 -1.7524,0.02567 -2.2885,-0.597605 -2.0991,-2.585782 0.092,-2.084202 -0.1049,-2.418107 1.933,-2.392852 z"
     style="fill:#99bd63;fill-opacity:1;stroke:none;stroke-width:0.44083px;stroke-linecap:butt;stroke-linejoin:miter;stroke-opacity:1" />
  <path
     id="path1308"
     d="m 1020.2077,69.737472 c -0.9565,-0.01185 -1.9126,-0.0056 -2.8663,0.03422 -1.1853,0.0498 -1.2218,0.411846 -1.3368,1.547895 -0.115,1.136048 -0.6437,12.740738 -0.5713,13.78433 0.072,1.043547 0.5552,1.429262 2.214,1.44982 1.6588,0.02056 1.9398,-0.118261 2.0165,-0.875626 0.077,-0.757365 0.067,-1.136813 0.1677,-2.889149 0.1003,-1.752334 1.6103,-0.02752 3.1338,2.266264 1.5236,2.293828 1.9342,1.635732 3.2612,1.652178 1.327,0.01644 0.6882,-0.939653 -0.9911,-3.804126 -1.6793,-2.864474 -1.4049,-3.28718 -0.2754,-3.60495 1.1296,-0.317727 2.7017,-1.957263 2.6788,-4.895987 -0.023,-2.938723 -1.3882,-4.534874 -4.5643,-4.606944 -0.9537,-0.02152 -1.9102,-0.04748 -2.8668,-0.05801 z m 1.4061,2.362816 c 2.0876,0.12065 2.2805,0.264989 2.1419,2.396006 -0.1387,2.130973 -0.46,2.553186 -2.2622,2.483462 -1.8021,-0.06972 -2.0922,-0.310088 -1.9987,-2.346886 0.093,-2.036799 0.3169,-2.602304 2.119,-2.532582 z"
     style="fill:#99bd63;fill-opacity:1;stroke:none;stroke-width:0.44083px;stroke-linecap:butt;stroke-linejoin:miter;stroke-opacity:1" />
  <path
     id="path1313"
     d="m 1039.1777,69.52139 c 2.1801,0.02702 2.3234,0.07618 2.3506,1.213994 0.027,1.137811 -0.6296,1.414007 -1.9567,1.397561 -1.327,-0.01645 -3.5522,0.05075 -4.7845,0.03547 -1.2322,-0.01527 -1.1284,0.365175 -1.1768,2.307753 -0.048,1.942579 -0.3654,2.554754 3.0018,2.691262 3.3673,0.136516 3.0953,0.654508 3.1146,1.460451 0.019,0.8059 -0.8813,0.794741 -3.4394,0.810471 -2.5582,0.01568 -2.7477,0.01333 -2.7871,2.335142 -0.039,2.321848 0.1074,2.513224 1.7199,2.580597 1.6125,0.06737 3.2702,0.04053 4.5036,0.103197 1.2333,0.06267 1.7558,0.11658 1.8281,1.160131 0.072,1.043545 -0.5901,1.08277 -1.7276,1.068674 -1.1374,-0.0141 -7.7703,-0.0015 -9.05,-0.01737 -1.2796,-0.01586 -1.5245,-0.350663 -1.5506,-1.441069 -0.026,-1.090363 0.2667,-12.650899 0.3332,-13.834937 0.066,-1.184038 0.1951,-1.75116 1.1893,-1.786227 0.9941,-0.03511 6.5347,-0.156006 8.4316,-0.08511 z"
     style="fill:#99bd63;fill-opacity:1;stroke:none;stroke-width:0.440829px;stroke-linecap:butt;stroke-linejoin:miter;stroke-opacity:1" />
  <path
     id="path1315"
     d="m 1050.8366,69.665878 c 2.9864,0.06628 4.3255,2.5655 4.444,3.56223 0.1186,0.996776 0.2676,1.282934 -1.7219,1.305692 -1.9894,0.02276 -2.0448,-0.309676 -2.1091,-1.0214 -0.064,-0.711723 -0.3194,-1.473135 -1.8372,-1.539356 -1.5177,-0.06623 -1.9645,1.065694 -2.0163,2.86602 -0.052,1.800368 0.2417,2.183163 2.4692,2.210768 2.2275,0.02761 4.8602,1.150271 5.0816,4.470616 0.2213,3.320339 -0.8731,5.107765 -3.8059,5.308388 -2.9328,0.200622 -4.165,0.185301 -5.7358,-0.118518 -1.5708,-0.30383 -2.4354,-2.779021 -2.4614,-3.869427 -0.026,-1.090363 0.3566,-0.943454 2.0154,-0.922897 1.6588,0.02056 2.047,0.404526 2.0662,1.21047 0.019,0.805943 0.1727,1.281782 1.88,1.350329 1.7073,0.06854 2.2129,-0.588679 2.2184,-2.342233 0.01,-1.753509 -0.631,-2.614488 -2.6238,-2.733967 -1.9928,-0.119483 -5.192,-1.154384 -5.3784,-4.995662 -0.1865,-3.841236 1.127,-4.39365 2.8749,-4.608956 1.7479,-0.215306 2.7908,-0.173139 4.6401,-0.132097 z"
     style="fill:#99bd63;fill-opacity:1;stroke:none;stroke-width:0.440829px;stroke-linecap:butt;stroke-linejoin:miter;stroke-opacity:1" />
  <path
     style="fill:#99bd63;fill-opacity:1;stroke:none;stroke-width:0.440829px;stroke-linecap:butt;stroke-linejoin:miter;stroke-opacity:1"
     d="m 1064.8299,69.554931 c 2.9864,0.06628 4.3255,2.5655 4.444,3.562229 0.1186,0.996777 0.2676,1.282935 -1.7219,1.305693 -1.9894,0.02276 -2.0448,-0.309676 -2.1091,-1.0214 -0.064,-0.711723 -0.3194,-1.473135 -1.8372,-1.539356 -1.5177,-0.06623 -1.9645,1.065694 -2.0163,2.86602 -0.052,1.800368 0.2417,2.183163 2.4692,2.210768 2.2275,0.0276 4.8602,1.150271 5.0816,4.470616 0.2213,3.320339 -0.8731,5.107765 -3.8059,5.308388 -2.9328,0.200622 -4.165,0.185301 -5.7358,-0.118518 -1.5708,-0.30383 -2.4353,-2.779021 -2.4614,-3.869427 -0.026,-1.090363 0.3566,-0.943454 2.0154,-0.922897 1.6588,0.02056 2.047,0.404526 2.0662,1.21047 0.019,0.805943 0.1727,1.281782 1.88,1.350329 1.7074,0.06854 2.2129,-0.588679 2.2184,-2.342233 0.01,-1.753509 -0.631,-2.614488 -2.6238,-2.733967 -1.9928,-0.119483 -5.192,-1.154384 -5.3784,-4.995663 -0.1865,-3.841235 1.127,-4.393649 2.8749,-4.608955 1.748,-0.215306 2.7908,-0.173139 4.6401,-0.132097 z"
     id="path1317" />
  <path
     id="path1328"
     d="m 1115.8396,63.926702 c -0.071,-0.0039 -0.143,-0.0043 -0.2149,-0.0015 -0.8947,0.03309 -1.8406,0.56413 -3.019,1.789866 -2.6934,2.801669 -2.8516,3.001967 -2.9045,4.368226 -0.053,1.366259 -0.053,3.18873 0,3.999399 0.053,0.810671 0.106,1.229866 1.0565,1.228239 3.3632,-0.0058 6.7249,-0.03744 10.0868,-0.09196 1.479,-0.02403 1.8486,0.02275 1.8486,-1.951639 0,-1.974427 0.053,-1.9082 0.053,-3.275086 0,-1.366915 -1.1092,-2.039309 -3.5386,-4.145065 -1.2812,-1.110498 -2.298,-1.865595 -3.368,-1.920524 z m -3.1586,6.338413 c 1.3447,-0.0026 1.3068,0.552897 1.3068,1.340444 0,0.787551 -0.1492,1.215751 -1.1576,1.167473 -1.0083,-0.04828 -1.195,-0.229631 -1.195,-1.052988 0,-0.823357 -0.1143,-1.452703 1.0458,-1.454929 z m 6.6847,0.08284 c 1.3447,-0.0026 1.3068,0.552897 1.3068,1.340444 0,0.787551 -0.1492,1.21575 -1.1577,1.167472 -1.0083,-0.04828 -1.1949,-0.22963 -1.1949,-1.052988 0,-0.823356 -0.1143,-1.452703 1.0458,-1.454928 z m -4.3739,7.436691 c -2.1333,-0.02644 -4.1221,-0.04224 -4.5142,-0.02926 -0.7842,0.02608 -1.083,-0.01351 -1.0457,2.743401 0.037,2.756913 1.867,2.672437 1.9416,4.642234 0.075,1.969828 0.3366,2.402378 1.1956,2.377245 0.8589,-0.02516 1.0457,-0.201615 1.083,-1.275079 0.037,-1.073464 0.4107,-1.283971 2.3526,-1.295683 1.9419,-0.01174 2.0167,0.418951 2.0914,1.493805 0.074,1.074912 0.6348,1.15332 1.2322,1.160724 0.5976,0.0074 0.8213,-0.06144 0.8586,-2.101497 0.037,-2.039996 2.5771,-3.33308 2.5397,-5.302445 -0.037,-1.969332 -0.2613,-2.329921 -2.3525,-2.320059 -0.971,-0.02993 -3.249,-0.06695 -5.3823,-0.09339 z m -2.5353,2.214645 c 1.3448,-0.0026 1.3075,0.553524 1.3075,1.341073 0,0.787517 -0.1492,1.215128 -1.1576,1.166852 -1.0083,-0.04828 -1.1949,-0.229629 -1.1949,-1.052987 0,-0.823359 -0.115,-1.452712 1.045,-1.454938 z m 6.6847,0.08284 c 1.3448,-0.0026 1.3075,0.553524 1.3075,1.341073 0,0.787517 -0.1492,1.215128 -1.1576,1.166852 -1.0084,-0.04828 -1.1956,-0.229637 -1.1956,-1.052995 0,-0.823359 -0.1143,-1.452704 1.0457,-1.45493 z"
     style="fill:#99bd63;fill-opacity:1;stroke:none;stroke-width:0.316934px;stroke-linecap:butt;stroke-linejoin:miter;stroke-opacity:1" />
</svg>
