<?xml version="1.0" encoding="UTF-8" standalone="no"?>
<svg
   xmlns:dc="http://purl.org/dc/elements/1.1/"
   xmlns:cc="http://creativecommons.org/ns#"
   xmlns:rdf="http://www.w3.org/1999/02/22-rdf-syntax-ns#"
   xmlns:svg="http://www.w3.org/2000/svg"
   xmlns="http://www.w3.org/2000/svg"
   xmlns:sodipodi="http://sodipodi.sourceforge.net/DTD/sodipodi-0.dtd"
   xmlns:inkscape="http://www.inkscape.org/namespaces/inkscape"
   inkscape:version="1.1-dev (ddb55ca, 2020-02-02)"
   sodipodi:docname="rainbow.svg"
   id="svg820"
   version="1.1"
   width="904.31696mm"
   height="516.42542mm">
  <metadata
     id="metadata826">
    <rdf:RDF>
      <cc:Work
         rdf:about="">
        <dc:format>image/svg+xml</dc:format>
        <dc:type
           rdf:resource="http://purl.org/dc/dcmitype/StillImage" />
        <dc:title></dc:title>
      </cc:Work>
    </rdf:RDF>
  </metadata>
  <defs
     id="defs824" />
  <sodipodi:namedview
     units="mm"
     inkscape:current-layer="svg820"
     inkscape:window-maximized="1"
     inkscape:window-y="23"
     inkscape:window-x="0"
     inkscape:cy="1310.1709"
     inkscape:cx="1682.7163"
     inkscape:zoom="0.12521467"
     showgrid="false"
     id="namedview822"
     inkscape:window-height="855"
     inkscape:window-width="1440"
     inkscape:pageshadow="2"
     inkscape:pageopacity="0"
     guidetolerance="10"
     gridtolerance="10"
     objecttolerance="10"
     borderopacity="1"
     bordercolor="#666666"
     pagecolor="#ffffff" />
  <path
     d="m 1058.351,1784.805 c 13.366,109.158 6.683,151.484 155.94,151.484 149.257,0 182.673,-64.603 184.9,-138.118 2.229,-73.515 26.733,-100.247 42.327,-20.05 15.594,80.198 33.416,155.94 118.07,151.485 84.653,-4.455 131.435,-55.693 133.663,-140.346 2.227,-84.653 -632.672,-73.515 -634.9,-4.455 z m 1528.214,-16.708 c 11.139,106.93 20.05,153.712 103.59,153.712 83.539,0 101.36,-84.653 99.133,-155.94 -2.228,-71.287 -202.723,2.228 -202.723,2.228 z"
     fill="#111111"
     id="path562"
     inkscape:connector-curvature="0" />
  <path
     d="m 2265.774,1798.171 c 341.955,2.228 766.335,-4.456 843.191,-5.57 76.856,-1.113 120.854,-5.012 119.183,-30.074 -1.67,-25.061 -70.173,-63.49 -70.173,-63.49 l -165.956,7.596 -568.077,4.657 z"
     fill="#1b1b1b"
     id="path564"
     inkscape:connector-curvature="0" />
  <path
     d="m 309.05001,1815.252 c 45.357,-2.24 89.593,-3.36 96.872,-3.36 7.28,0 137.043,-250.74 137.043,-250.74 l -114.032,-92.652 -142.54,166.297 z"
     fill="#0a0a0a"
     id="path566"
     inkscape:connector-curvature="0" />
  <path
     d="m 441.26101,1947.842 c 102.095,-1.88 163.478,-1.253 198.553,-3.758 35.076,-2.506 70.152,-38.834 75.163,-69.525 5.01,-30.692 -10.403,-154.841 -10.403,-154.841 l -126.668,-3.544 c 0,0 6.045,-149.891 -27.46,-153.242 -35.432,-3.543 -89.022,-2.657 -98.323,-2.214 -9.3,0.443 -10.862,387.124 -10.862,387.124 z"
     fill="#181818"
     id="path568"
     inkscape:connector-curvature="0" />
  <path
     d="m 592.96401,1810.069 c 70.864,-0.886 112.496,-0.886 120.468,-2.658 7.972,-1.771 124.011,-219.677 124.011,-219.677 l -28.345,-139.955 -165.643,23.917 z"
     fill="#0a0a0a"
     id="path570"
     inkscape:connector-curvature="0" />
  <path
     d="m 777.70001,1951.782 c 77.553,-0.853 105.677,-2.557 117.609,-9.375 11.93,-6.818 53.69,-57.1 51.986,-149.141 -1.704,-92.042 -23.01,-201.894 -74.997,-213.826 -51.986,-11.931 -86.056,-6.633 -95.698,-6.633 -9.642,0 1.1,378.975 1.1,378.975 z"
     fill="#181818"
     id="path572"
     inkscape:connector-curvature="0" />
  <path
     d="m 1671.977,1798.339 c 86.432,-2.033 145.408,-1.016 152.526,-3.05 7.118,-2.034 116.937,-261.328 116.937,-261.328 l -132.19,-142.358 -190.149,84.398 z"
     fill="#0a0a0a"
     id="path574"
     inkscape:connector-curvature="0" />
  <path
     d="m 1850.605,1549.592 42.314,34.416 c 0,0 2.75,-1.169 6.325,-3.058 l 33.402,146.968 c -9.29,22.959 -15.521,43.58 -15.521,43.58 l -65.391,166.823 c 59.24,0 95.348,0.563 115.094,-1.13 19.747,-1.692 25.39,-12.975 33.289,-28.773 7.898,-15.797 28.208,-76.165 27.08,-104.94 -0.564,-14.386 -22.33,-132.392 -49.707,-136.79 a 10.163,10.163 0 0 0 -1.287,-0.123 c -12.364,-38.38 -16.388,-58.314 -35.387,-108.595 -18.194,-11.269 -34.071,-9.563 -90.21,-8.378 z"
     fill="#181818"
     id="path576"
     inkscape:connector-curvature="0" />
  <path
     d="m 1850.777,1549.909 c 73.479,0.251 84.139,108.626 87.278,180.207 3.14,71.58 -16.953,211.6 -87.906,208.461 -70.952,-3.139 -89.789,-150.067 -87.277,-227.926 2.511,-77.86 36.42,-160.918 87.905,-160.742 z"
     fill="#212121"
     id="path578"
     inkscape:connector-curvature="0" />
  <path
     d="m 1845.409,1870.161 c 47.302,0 52.821,-80.285 52.033,-135.978 -0.789,-55.693 -21.287,-114.28 -51.245,-115.726 -29.958,-1.447 -48.88,49.907 -48.09,132.361 0.787,82.455 18.92,117.173 47.302,119.343 z"
     fill="#626262"
     id="path580"
     inkscape:connector-curvature="0" />
  <path
     d="m 1825.581,1833.845 c 28.988,-1.023 35.678,-56.77 33.448,-100.242 -2.23,-43.473 -14.494,-78.25 -37.35,-77.74 -22.856,0.512 -32.333,34.267 -31.219,94.618 1.115,60.35 17.84,82.341 35.121,83.364 z"
     fill="#383838"
     id="path582"
     inkscape:connector-curvature="0" />
  <path
     d="m 1825.024,1801.113 c 16.166,0 17.839,-43.472 18.396,-65.464 0.557,-21.992 -6.132,-56.77 -21.184,-56.77 -15.051,0 -22.856,31.198 -22.299,59.327 0.558,28.13 8.92,62.396 25.087,62.907 z"
     fill="#110f10"
     id="path584"
     inkscape:connector-curvature="0" />
  <path
     d="m 1829.456,1623.875 c -5.59,4.227 -10.547,10.85 -14.777,19.624 6.932,-5.447 13.224,-12.912 14.777,-19.624 z m 32.02,0.64 c -16.226,13.59 -22.91,23.523 -16.856,21.788 4.766,-1.367 16.953,-8.928 23.307,-15.663 -2.063,-2.356 -4.217,-4.405 -6.451,-6.125 z m 23.715,37.836 c -17.126,0.2 -26.265,8.178 -21.65,14.692 4.206,5.936 17.43,4.561 25.745,-1.717 a 178.523,178.523 0 0 0 -4.095,-12.975 z m 2.723,59.338 c -10.624,0.085 -15.208,4.899 -14.912,10.323 0.385,7.071 8.31,17.933 24.501,10.645 0,-2.872 -0.022,-5.71 -0.06,-8.475 a 241.394,241.394 0 0 0 -0.456,-11.613 c -3.41,-0.628 -6.428,-0.9 -9.073,-0.88 z m -11.067,64.149 c -4.658,-0.065 -6.111,2.466 -7.787,7.654 -2.409,7.46 11.287,15.547 23.16,17.338 1.25,-6.498 2.239,-13.242 2.993,-20.105 -9.027,-3.137 -14.762,-4.836 -18.366,-4.887 z m -20.522,46.579 c -1.525,0.023 -2.786,0.552 -3.821,1.58 -3.759,3.736 9.903,16.37 21.608,22.13 2.158,-2.616 4.126,-5.542 5.918,-8.736 -11.343,-10.042 -18.864,-15.052 -23.705,-14.974 z m -41.623,14.096 c -0.163,0 -0.32,0.01 -0.478,0.023 5.41,10.357 12.045,17.123 19.72,20.68 -7.613,-14.015 -14.6,-20.622 -19.242,-20.703 z"
     fill="#151515"
     id="path586"
     inkscape:connector-curvature="0" />
  <path
     d="m 776.84801,1951.782 c 69.883,3.409 98.86,-134.654 97.155,-194.31 -1.705,-59.657 -34.942,-186.64 -100.564,-184.935 -65.622,1.704 -92.042,96.302 -90.337,196.866 1.704,100.564 45.168,183.23 93.746,182.379 z"
     fill="#212121"
     id="path588"
     inkscape:connector-curvature="0" />
  <path
     d="m 3345.882,909.256 c 1.684,-17.262 6.315,-20.21 22.735,-19.367 16.42,0.842 18.947,3.789 22.737,17.683 3.789,13.894 11.367,111.575 12.21,127.153 0.842,15.579 -5.053,20.631 -16,22.736 -10.947,2.105 -28.63,0.842 -33.683,-29.893 -5.052,-30.736 -8.842,-100.628 -8,-118.312 z"
     fill="#161616"
     id="path590"
     inkscape:connector-curvature="0" />
  <path
     d="m 3350.457,849.856 c -28.933,0.024 -88.523,2.044 -134.893,7.254 0,0 -6.626,63.935 -1.994,63.935 4.631,0 62.735,-0.842 74.945,-5.053 12.21,-4.21 29.473,-21.892 39.578,-33.681 10.105,-11.79 20.63,-13.896 32.418,-14.317 11.79,-0.42 18.799,6.98 22.371,25.438 3.573,18.459 16.076,100.031 18.457,113.727 2.382,13.694 6.552,15.481 11.91,13.695 5.36,-1.786 5.36,-7.74 3.573,-17.863 -1.786,-10.123 -16.078,-108.37 -19.65,-129.21 -3.573,-20.84 -14.29,-23.22 -36.32,-23.816 a 387.614,387.614 0 0 0 -10.395,-0.11 z m -40.47,16.875 c 14.316,0 12.21,6.738 0,17.263 -12.21,10.526 -19.367,17.683 -39.155,18.946 -19.789,1.263 -27.79,4.211 -28.631,-15.156 -0.421,-15.158 1.262,-17.685 7.578,-18.106 6.315,-0.42 45.894,-2.947 60.209,-2.947 z"
     fill="#1f1f1f"
     id="path592"
     inkscape:connector-curvature="0" />
  <path
     d="m 3215.676,518.534 c 0,-52.208 -10.947,-198.73 -18.526,-231.57 -7.579,-32.841 -53.893,-213.045 -53.893,-213.045 l -74.944,-20.21 -258.24,-15.92 -515.648,28.582 -9.527,479.921 z"
     fill="#383838"
     id="path594"
     inkscape:connector-curvature="0" />
  <path
     d="m 3216.681,543.769 c -1.464,-40.247 1.463,-49.76 -16.83,-51.223 -18.294,-1.463 -314.65,-0.731 -390.019,-0.731 -75.37,0 -446.413,3.355 -475.388,4.39 -28.976,1.035 -28.976,-12.418 -30.01,-34.15 -1.035,-21.731 2.07,-305.277 2.07,-333.218 0,-27.94 1.034,-41.393 34.149,-47.602 33.115,-6.21 155.226,-11.383 262.849,-13.453 107.623,-2.07 349.776,1.035 425.319,6.209 75.543,5.174 111.762,19.662 120.041,20.697 8.279,1.035 -9.314,-36.22 -9.314,-36.22 L 2936.72,24.318 2275.458,53.294 2265.11,556.226 Z"
     fill="#222222"
     id="path596"
     inkscape:connector-curvature="0" />
  <path
     d="m 3225.461,834.269 c -3.658,-46.1 -8.049,-267.817 -8.78,-285.379 -0.732,-17.561 0.731,-21.22 -16.83,-21.22 -17.562,0 -450.437,0.615 -573.583,0.615 -123.145,0 -346.67,3.105 -355.984,7.244 -9.314,4.14 -9.314,310.452 -9.314,310.452 z"
     fill="#262626"
     id="path598"
     inkscape:connector-curvature="0" />
  <path
     d="m 3232.779,1315.024 c 0,-40.246 -5.854,-319.04 -5.854,-349.773 0,-30.733 -2.927,-128.054 -2.927,-130.981 0,-2.927 -25.61,-7.318 -25.61,-7.318 l -394.127,-0.633 -526.733,8.279 -5.174,260.779 27.454,265.015 324.894,40.977 601.491,-35.123 z"
     fill="#383838"
     id="path600"
     inkscape:connector-curvature="0" />
  <path
     d="m 3236.879,1326.339 c -1.086,-23.343 -3.8,-34.742 -9.771,-10.315 -5.971,24.428 -3.8,36.913 -71.112,38 -67.312,1.085 -264.097,6.774 -350.078,7.541 -85.981,0.768 -317.056,3.839 -366.955,-0.767 -49.9,-4.606 -125.901,-27.637 -138.184,-145.093 -12.283,-117.457 -6.81,-341.55 -5.724,-352.407 1.085,-10.857 4.343,-20.628 21.713,-20.628 17.371,0 622.093,-3.8 679.09,-4.343 56.999,-0.543 186.194,-1.086 204.65,0.543 18.457,1.628 26.057,2.171 28.228,-2.172 2.172,-4.342 7.472,-12.515 -4.811,-15.97 -12.283,-3.454 -49.516,-6.525 -163.902,-6.14 -114.386,0.383 -478.27,2.686 -550.433,2.686 -72.163,0 -173.822,0.968 -190.108,0.425 -16.285,-0.543 -53.25,1.11 -57.088,2.646 -3.838,1.535 4.606,78.304 4.606,78.304 l 12.855,390.234 39.085,105.31 118.338,42.342 161.766,7.6 600.379,-13.029 40.17,-49.941 z"
     fill="#191919"
     id="path602"
     inkscape:connector-curvature="0" />
  <path
     d="m 3238.507,1370.309 c -1.085,-24.971 -2.171,-26.6 -17.913,-7.058 -15.743,19.542 -67.312,20.628 -185.108,23.342 -117.796,2.715 -355.559,5.972 -414.728,6.514 -59.17,0.543 -185.108,0.543 -216.05,-4.885 -30.942,-5.429 -97.71,-47.227 -104.225,-73.283 -6.514,-26.057 58.627,100.968 58.627,100.968 l 144.339,28.569 686.314,-6.142 z"
     fill="#141414"
     id="path604"
     inkscape:connector-curvature="0" />
  <path
     d="m 2454.603,1425.702 c 18.635,1.592 27.872,1.592 35.199,1.752 7.326,0.16 25.222,17.132 25.222,17.132 l 52.82,92.604 206.412,5.734 304.77,-12.746 56.76,-107.215 c 0,0 -7.316,-3.95 4.788,-4.588 12.104,-0.637 20.439,-2.169 24.944,-2.62 4.505,-0.45 -19.146,46.4 -19.146,46.4 l -35.362,69.374 99.556,-7.658 -103.16,197.76 c 0,0 -1.393,3.815 -9.994,3.496 -8.6,-0.318 -16.405,-0.796 -22.298,-0.796 -5.893,0 14.016,-16.086 14.016,-16.086 l 90.803,-164.103 -123.432,9.46 -530.705,4.611 -81.047,-7.313 74.78,83.789 47.3,95.051 c 0,0 18.696,5.631 -2.477,6.983 -21.173,1.351 -32.66,1.351 -39.192,2.027 -6.532,0.675 -10.136,-43.246 -10.136,-43.246 l -94.6,-145.055 -72.372,-12.622 1.912,-22.935 178.38,15.29 z"
     fill="#4e4e4e"
     id="path606"
     inkscape:connector-curvature="0" />
  <path
     d="m 2503.988,1467.336 c 22.298,27.028 43.921,63.517 47.75,70.274 3.83,6.758 0.902,8.785 -4.73,8.785 -5.63,0 -50.836,-2.197 -79.185,-4.427 -28.35,-2.23 -111.807,-8.282 -129.327,-12.742 -17.52,-4.459 -73.9,-26.757 -73.9,-26.757 l -7.645,-56.062 z m 737.526,-28.107 c 8.911,15.038 6.684,72.123 2.785,76.579 -3.898,4.455 -47.896,16.707 -54.579,18.1 -6.683,1.392 -60.427,7.24 -74.907,8.632 -14.48,1.393 -20.606,-8.075 -14.202,-18.657 6.405,-10.582 30.075,-48.453 32.58,-52.073 2.507,-3.62 6.962,-11.695 8.076,-13.366 1.114,-1.67 100.247,-19.214 100.247,-19.214 z"
     fill="#191919"
     id="path608"
     inkscape:connector-curvature="0" />
  <path
     d="m 3095.042,1722.985 c -1.67,3.899 12.252,4.456 52.908,10.582 40.656,6.126 61.263,13.923 71.844,25.619 10.582,11.695 20.093,0.285 21.669,-10.742 1.575,-11.026 -32.456,-26.846 -32.456,-26.846 z"
     fill="#797979"
     id="path610"
     inkscape:connector-curvature="0" />
  <path
     d="m 2320.977,1451.822 c 14.334,32.81 45.55,82.183 56.7,87.598 11.148,5.415 -111.17,-27.076 -111.17,-27.076 l -7.327,-69.441 z"
     fill="#141414"
     id="path612"
     inkscape:connector-curvature="0" />
  <path
     d="m 3110.579,66.673 c 30.732,5.122 31.464,0.731 30.732,-5.122 -0.732,-5.854 -4.39,-40.246 -12.44,-39.515 -8.049,0.732 -24.879,-7.317 -51.221,-8.78 -26.343,-1.464 -263.427,-13.172 -387.823,-13.172 -124.396,0 -404.653,16.099 -419.288,17.562 -14.635,1.464 -25.611,49.027 4.756,47.93 30.367,-1.099 212.823,-11.764 289.4,-13.834 76.579,-2.07 280.993,1.76 345.386,3.223 64.393,1.463 163.178,8.049 200.497,11.708 z"
     fill="#2a2a2a"
     id="path614"
     inkscape:connector-curvature="0" />
  <path
     d="m 2260.256,1445.782 -425.46,23.572 c 78.922,25.591 95.132,170.91 98.665,203.412 3.938,36.23 6.3,96.575 6.3,109.965 0,13.39 3.94,18.904 22.842,19.691 18.903,0.788 295.356,-5.213 307.17,-4.426 8.546,0.57 -4.243,-225.938 -9.517,-352.214 z m -484.65,26.972 -980.43999,56.3 c 33.033,49.9 42.682,134.571 45.87,174.429 4.726,59.071 4.725,80.337 4.725,90.576 0,10.239 2.365,14.178 22.055,14.178 19.69,0 763.19999,-9.454 796.27999,-9.454 33.08,0 36.23,-0.786 36.23,-29.14 0,-28.354 -3.15,-74.823 -3.15,-94.514 0,-17.644 2.533,-167.459 78.43,-202.375 z m -1110.46699,63.766 -162.822,9.35 c 23.257,38.633 35.568,90.585 37.848,114.294 3.938,40.956 7.09,113.416 7.09,128.381 0,14.965 -1.575,21.265 38.593,22.053 40.169,0.788 45.68,-1.574 44.893,-16.54 -0.788,-14.964 -3.15,-81.124 -1.574,-104.753 1.058,-15.883 6.033,-99.025 35.972,-152.785 z m -295.295,16.957 -358.399996,20.58 c 2.281,89.818 4.319,170.028 4.957,185.346 1.575,37.805 3.15,45.683 45.682,48.834 42.529996,3.15 80.335996,12.601 176.424996,9.45 96.09,-3.15 99.24,-0.788 99.24,-18.903 0,-18.116 -0.787,-101.603 3.151,-137.045 2.255,-20.292 9.936,-69.235 28.945,-108.262 z"
     fill="#a646bc"
     id="path616"
     inkscape:connector-curvature="0" />
  <path
     d="M 2260.836,1244.662 7.3340135,1414.383 c 1.689,64.331 3.3530005,129.862 4.9120005,191.088 73.11,0.15 192.799996,-0.866 339.782996,-2.639 12.467,-46.828 36.748,-101.023 81.809,-104.13 46.154,-3.184 76.563,52.584 92.716,101.855 37.485,-0.52 76.204,-1.077 115.598,-1.656 12.655,-52.133 37.6,-107.096 87.043,-108.862 51.161,-1.827 79.008,50.391 94.297,106.104 295.71199,-4.646 616.00099,-10.314 884.36099,-15.371 12.431,-54.342 39.28,-112.1 97.227,-115.15 60.758,-3.198 92.896,54.81 109.945,111.171 166.086,-3.269 294.058,-5.985 354.453,-7.539 -3.607,-105.094 -17.833,-205.697 -17.833,-205.697 z"
     fill="#7747bc"
     id="path618"
     inkscape:connector-curvature="0" />
  <path
     d="M 2260.107,971.75 0.35301353,1087.594 c 0.073,16.191 0.164,31.53 0.266,46.16 0.028,4.021 0.061,7.686 0.092,11.563 a 9974.98,9974.98 0 0 0 0.48799997,47.988 c 0.02,1.455 0.038,3.044 0.058,4.453 0.029,1.951 0.059,3.74 0.088,5.602 0.054,3.37 0.112,6.64 0.17,9.699 a 1757.446,1757.446 0 0 0 0.295,13.363 c 0.031,1.212 0.062,2.501 0.094,3.631 0.102,3.557 0.208,6.826 0.32,9.523 1.247,29.931 3.484,111.923 5.826,202.141 7.8180005,0.665 16.2090005,1.101 25.2370005,1.293 189.092996,4.023 1864.211986,-43.522 2227.913986,-60.617 -0.01,-0.146 -0.09,-1.95 -0.09,-1.95 z"
     fill="#468bbc"
     id="path620"
     inkscape:connector-curvature="0" />
  <path
     d="M 2259.547,692.25 0.02501353,829.192 c -0.079,106.663 -0.014,245.994 0.84,335.332 13.59500047,1.257 32.25700047,0.582 48.33000047,0.974 168.239996,4.104 1912.346986,-59.816 2211.269986,-80.384 z"
     fill="#5cbc46"
     id="path622"
     inkscape:connector-curvature="0" />
  <path
     d="M 2258.836,386.846 7.1890135,560.049 c -4.088,59.72 -7.00399997,109.291 -7.00399997,126.49 0,21.388 -0.181,108.762 -0.178,208.043 18.15400047,2.98 40.24900047,4.16 67.01000047,3.59 C 253.13401,894.212 1875.488,812.99 2259.787,794.936 Z"
     fill="#bca144"
     id="path624"
     inkscape:connector-curvature="0" />
  <path
     d="M 2258.324,168 24.636014,332.366 C 17.566014,414.682 8.3530135,537.456 3.5090135,616.448 356.04401,604.342 1831.472,520.292 2259.082,492.362 Z"
     fill="#bc7746"
     id="path626"
     inkscape:connector-curvature="0" />
  <path
     d="M 2257.976,18.782 C 2056.925,37.717 141.64601,193.099 100.43301,199.784 c -41.212996,6.683 -61.261996,5.569 -67.944996,52.351 -2.477,17.338 -7.558,74.52 -12.969,142.156 C 752.03901,348.566 1738.319,285.404 2258.517,251.051 Z"
     fill="#bc4646"
     id="path628"
     inkscape:connector-curvature="0" />
  <path
     d="M 2259.535,521.269 C 1974.417,537.022 82.561014,656.739 57.357014,659.89 c -25.203,3.15 -23.756,-3.425 -20.415,-23.474 3.342,-20.05 36.758,-311.88 40.1,-326.36 3.341,-14.48 6.683,-21.164 28.959996,-23.392 22.277,-2.227 2111.31999,-172.09 2125.79999,-172.09 14.48,0 19.492,22.276 19.492,22.276 z"
     fill="#1c1c1c"
     id="path630"
     inkscape:connector-curvature="0" />
  <path
     inkscape:connector-curvature="0"
     id="path632"
     d="m 1904.884,483.817 c -1.114,25.62 1.114,31.189 25.619,30.075 24.504,-1.114 212.747,-14.48 238.365,-17.822 25.62,-3.342 30.075,-1.114 33.416,-27.847 3.342,-26.732 12.253,-272.895 13.366,-300.741 1.114,-27.847 -3.341,-32.302 -31.188,-31.189 -27.846,1.114 -196.039,14.48 -226.113,18.936 -30.074,4.455 -32.302,11.139 -35.643,36.757 -3.342,25.62 -17.822,258.416 -17.822,291.831 z m -25.619,2.228 c -3.341,26.733 -7.797,30.074 -31.188,33.416 -23.391,3.342 -239.48,16.708 -252.846,17.822 -13.366,1.114 -20.05,-2.228 -18.936,-26.733 1.114,-24.505 20.05,-277.35 23.391,-296.286 3.342,-18.936 4.456,-28.96 27.847,-31.188 23.391,-2.228 217.202,-16.708 241.707,-17.822 24.505,-1.114 30.075,5.57 28.96,32.302 -1.113,26.732 -16.707,259.529 -18.935,288.49 z m -328.588,24.505 c -3.342,23.391 -6.683,27.846 -24.505,30.074 -17.822,2.228 -231.683,15.594 -249.505,16.708 -17.821,1.114 -23.39,-11.138 -22.277,-28.96 1.114,-17.822 16.708,-269.554 20.05,-287.376 3.341,-17.822 5.569,-27.846 23.39,-30.074 17.823,-2.228 218.317,-18.936 240.594,-20.05 22.277,-1.113 33.416,3.342 32.302,32.302 -1.114,28.96 -16.708,258.416 -20.05,287.376 z M 1217.633,215.377 c 32.302,-1.113 32.302,5.57 30.074,33.416 -2.228,27.847 -12.252,261.757 -15.594,282.92 -3.341,21.164 -7.797,28.96 -30.074,31.188 -22.277,2.228 -197.153,13.367 -226.11399,14.48 -28.96,1.114 -33.415,-4.455 -31.188,-28.96 2.228,-24.505 18.936,-267.326 21.164,-285.148 2.227,-17.821 4.455,-28.96 25.618,-31.188 21.16399,-2.227 202.72299,-14.48 226.11399,-16.708 z M 922.46001,551.763 c -2.227,17.822 -3.341,23.39 -27.846,27.846 -24.505,4.456 -209.406,15.594 -226.114,15.594 -16.707,0 -30.074,-5.569 -28.96,-23.39 1.114,-17.822 18.936,-265.1 22.277,-284.035 3.342,-18.935 11.139,-30.074 30.074,-32.302 18.936,-2.227 194.926,-17.821 219.43,-17.821 24.506,0 27.847,7.797 26.733,37.87 -1.114,30.075 -12.252,245.05 -15.594,276.238 z m -305.197,12.252 c -2.228,25.619 -6.683,28.96 -25.619,32.302 -18.935,3.342 -210.52,17.822 -227.227,18.936 -16.708,1.114 -20.05,-12.253 -18.936,-31.188 1.114,-18.936 16.708,-245.505 20.05,-266.668 3.341,-21.163 6.683,-32.302 26.732,-35.643 20.05,-3.342 193.812,-16.936 213.861,-18.05 20.05,-1.114 32.302,-1.114 31.188,24.505 -1.113,25.619 -16.707,250.187 -20.05,275.806 z M 89.294014,328.991 c 3.341,-21.163 10.025,-23.391 27.845996,-25.619 17.822,-2.227 175.99,-15.594 198.267,-16.708 22.277,-1.113 28.96,1.114 27.847,33.416 -1.114,32.302 -14.48,242.821 -16.708,260.643 -2.228,17.822 -6.683,34.53 -26.733,37.871 -20.05,3.342 -198.267,15.594 -220.543996,16.708 -22.277,1.114 -25.619,-3.341 -23.39,-21.163 2.227,-17.822 26.732,-258.415 33.415,-285.148 z"
     style="fill:#242424" />
  <path
     d="m 2231.802,114.573 c -14.48,0 -2103.52299,169.864 -2125.79999,172.091 -22.277996,2.228 -25.619996,8.91 -28.960996,23.391 -1.061,4.596 -5.281,38.361 -10.479,81.287 C 791.87401,346.003 1743.203,277.068 2253.75,243.364 l -2.455,-106.514 c 0,0 -5.013,-22.277 -19.493,-22.277 z"
     fill="#bc4646"
     fill-opacity="0.484"
     id="path636"
     inkscape:connector-curvature="0" />
  <path
     d="M 2258.916,478.371 C 1844.463,505.439 447.10001,599.151 39.748014,615.108 c 0.112,-0.9 0.275,-2.267 0.392,-3.213 -1.559,12.616 -2.72,21.66 -3.197,24.521 -3.342,20.05 -4.79,26.625 20.414,23.475 25.194,-3.15 1915.544986,-122.773 2201.790986,-138.6 l -0.047,-20.22 z M 46.775014,557.004 c -2.255,18.88 -4.22,35.188 -5.875,48.694 1.647,-13.42 3.598,-29.588 5.88,-48.694 z"
     fill="#bca146"
     fill-opacity="0.4"
     id="path638"
     inkscape:connector-curvature="0" />
  <path
     d="M 2253.749,243.364 C 1743.203,277.068 791.87401,346.003 66.562014,391.342 c 2.33,-19.24 4.406,-36.113 6.147,-49.871 -8.326,65.573 -25.87,216.651 -32.961,273.637 C 447.10001,599.151 1844.463,505.439 2258.916,478.371 Z M 74.329014,328.709 c -0.136,1.042 -0.341,2.712 -0.486,3.826 0.169,-1.305 0.338,-2.618 0.496,-3.826 z"
     fill="#bc7746"
     fill-opacity="0.48"
     id="path640"
     inkscape:connector-curvature="0" />
  <path
     d="m 2258.928,1369.823 c -151.003,1.078 -2041.00299,52.667 -2057.78199,52.667 -16.78,0 -16.78,-8.39 -17.542,-21.355 -0.763,-12.966 -6.102,-321.852 -6.102,-334.817 0,-12.966 0.763,-18.305 19.83,-19.83 19.067,-1.525 2035.70999,-91.924 2051.88899,-93.003 16.178,-1.078 9.707,416.338 9.707,416.338 z"
     fill="#1c1c1c"
     id="path642"
     inkscape:connector-curvature="0" />
  <path
     d="m 2249.22,953.485 c -4.18,0.278 -145.915,6.7 -348.246,15.832 0.339,112.434 1.624,315.963 -0.19,408.578 45.747,-1.143 88.593,-2.2 127.5,-3.14 4.404,-0.107 7.772,-0.182 12.079,-0.286 53.936,-1.297 101.985,-2.42 138.238,-3.2 12.66,-0.27 24.315,-0.513 34.47,-0.712 4.542,-0.089 7.875,-0.143 11.892,-0.217 5.2,-0.095 10.987,-0.208 15.275,-0.277 7.767,-0.125 14.09,-0.208 18.69,-0.24 0,0 0.227,-14.675 0.49,-38.514 0.175,-15.893 0.367,-35.859 0.517,-58.266 0.15,-22.406 0.259,-47.255 0.27,-72.91 0.01,-19.241 -0.038,-38.937 -0.164,-58.398 -0.042,-6.487 -0.092,-12.948 -0.153,-19.358 -0.12,-12.819 -0.28,-25.432 -0.486,-37.634 a 3409.188,3409.188 0 0 0 -0.762,-35.174 c -0.152,-5.59 -0.316,-11.023 -0.496,-16.28 -0.628,-18.398 -1.43,-34.601 -2.441,-47.517 -0.011,-0.142 -0.024,-0.27 -0.035,-0.41 -0.28,-3.529 -0.573,-6.82 -0.885,-9.828 -0.811,-7.82 -1.735,-13.804 -2.787,-17.551 -0.21,-0.75 -0.426,-1.41 -0.647,-1.977 -0.33,-0.851 -0.672,-1.494 -1.027,-1.918 -0.236,-0.282 -0.48,-0.468 -0.727,-0.552 a 0.966,0.966 0 0 0 -0.374,-0.051 z"
     fill="#191919"
     id="path644"
     inkscape:connector-curvature="0" />
  <path
     inkscape:connector-curvature="0"
     id="path646"
     d="m 2120.171,1014.426 c 0,-23.73 -1.618,-29.661 17.258,-30.74 18.875,-1.079 60.558,-2.157 75.12,-2.697 14.56,-0.539 17.257,4.854 17.796,21.033 0.54,16.179 7.55,264.256 7.55,278.277 0,14.022 -4.853,15.64 -19.954,18.336 -15.1,2.697 -54.469,2.697 -58.783,2.697 -4.314,0 -30.2,-54.469 -32.897,-101.388 -2.697,-46.919 -5.55,-163.946 -6.09,-185.518 z m -125.198,2.317 c 0.763,-22.118 0,-28.219 17.542,-28.982 17.541,-0.762 63.816,-2.457 75.68,-2.997 11.865,-0.539 21.033,-1.078 21.572,18.337 0.54,19.414 8.404,264.795 7.865,274.502 -0.54,9.707 2.893,21.74 -14.746,23.228 -17.603,1.484 -56.98,1.58 -76.395,2.119 -19.415,0.54 -29.122,-3.775 -29.662,-19.415 -0.539,-15.64 -1.556,-248.835 -1.856,-266.792 z"
     style="fill:#212121" />
  <path
     inkscape:connector-curvature="0"
     id="path650"
     d="m 1667.308,1310.376 c 0,19.83 0.762,26.694 15.253,25.93 14.491,-0.762 172.366,-2.287 187.62,-3.812 15.254,-1.526 19.067,-8.39 19.067,-23.644 0,-15.253 -3.813,-268.464 -4.576,-289.819 -0.763,-21.355 -3.813,-28.982 -27.456,-28.982 -23.644,0 -161.689,8.39 -176.943,10.678 -15.253,2.288 -17.541,12.966 -17.541,32.795 0,19.83 3.05,253.973 4.576,276.854 z m -303.074,11.989 c 0.539,17.796 4.314,19.954 16.179,19.954 11.864,0 234.594,-4.315 246.458,-5.393 11.865,-1.079 14.022,-6.472 12.944,-33.976 -1.08,-27.504 -3.236,-255.627 -3.236,-272.345 0,-16.718 -1.079,-26.965 -21.033,-26.426 -19.954,0.54 -222.73,10.247 -234.594,11.865 -11.865,1.618 -17.797,4.314 -17.797,23.19 0,18.875 1.079,263.716 1.079,283.13 z m -45.841,-299.31 c 25.886,-1.079 25.347,5.932 25.886,31.279 0.54,25.347 1.618,246.459 1.618,259.402 0,12.943 -3.775,28.583 -19.954,30.2 -16.179,1.618 -215.18,7.011 -227.044,6.472 -11.864,-0.54 -16.718,-7.55 -17.257,-22.111 -0.54,-14.561 -2.157,-266.795 -2.157,-278.66 0,-11.864 0,-16.718 14.021,-17.796 14.022,-1.08 211.405,-8.247 224.887,-8.786 z m -455.00999,40.447 c 0,-15.1 0.54,-19.954 12.404,-21.572 11.865,-1.618 153.15999,-7.55 167.18199,-7.01 14.022,0.538 18.876,7.01 19.415,23.728 0.54,16.718 0.54,255.088 0,268.031 -0.54,12.943 -3.775,18.875 -16.179,21.033 -12.403,2.157 -159.78899,5.55 -168.41799,5.55 -8.628,0 -14.021,-3.775 -15.1,-22.65 -1.079,-18.876 1.236,-252.55 0.697,-267.11 z m -269.456,278.907 c -0.763,17.541 0.762,22.117 11.44,22.117 10.677,0 194.958,-7.915 208.686,-9.44 13.729,-1.525 22.118,-3.813 23.644,-26.694 1.525,-22.88 -0.475,-244.533 -0.475,-259.024 0,-14.49 -1.525,-22.118 -21.355,-21.355 -19.83,0.763 -189.145,9.915 -203.636,11.44 -14.491,1.526 -18.304,6.102 -19.067,19.83 -0.763,13.728 0,245.584 0.763,263.125 z m -296.294,0.762 c 0.763,25.931 2.288,29.745 17.542,30.507 15.253,0.763 236.041,-9.152 248.244,-9.915 12.203,-0.762 14.491,-11.44 14.491,-25.93 0,-14.492 -0.762,-234.144 -0.762,-250.923 0,-16.779 -7.627,-23.643 -24.406,-23.643 -16.78,0 -224.991,9.152 -239.482,11.44 -14.491,2.288 -17.542,11.44 -18.305,30.507 -0.762,19.067 1.915,215.84 2.678,237.957 z"
     style="fill:#242424" />
  <path
     d="m 2254.375,972.043 c 0.093,0.793 0.189,1.555 0.279,2.393 -0.087,-0.805 -0.172,-1.63 -0.262,-2.393 z m 0.513,4.627 z m 1.01,11.883 c 0.044,0.601 0.091,1.163 0.135,1.777 -0.043,-0.613 -0.091,-1.176 -0.135,-1.777 z m 1.393,23.578 c 0.02,0.439 0.038,0.91 0.059,1.352 -0.02,-0.442 -0.038,-0.914 -0.06,-1.352 z m 0.508,11.881 c 0.048,1.26 0.094,2.567 0.142,3.852 -0.047,-1.285 -0.093,-2.591 -0.142,-3.852 z m 0.458,12.924 c 0.046,1.404 0.09,2.83 0.133,4.258 -0.044,-1.43 -0.087,-2.853 -0.133,-4.258 z m 0.407,13.752 c 0.04,1.498 0.08,2.993 0.119,4.511 -0.038,-1.518 -0.08,-3.014 -0.12,-4.511 z m 0.36,14.814 c 0.028,1.32 0.06,2.622 0.087,3.955 -0.028,-1.333 -0.059,-2.634 -0.088,-3.955 z m -2081.35999,13.002 c 0.026,1.836 0.122,7.378 0.156,9.653 -0.064,-4.161 -0.102,-6.892 -0.14,-9.653 z m 2081.67599,2.947 c 0.017,0.998 0.037,1.97 0.054,2.973 -0.016,-1.003 -0.036,-1.975 -0.054,-2.973 z m 0.065,3.733 c -264.25,18.075 -1631.58799,69.22 -2080.33699,78.906 -0.26,-15.179 -0.45,-26.863 -0.666,-39.846 1.482,90.392 4.615,266.935 5.2,276.891 0.763,12.966 0.765,21.356 17.544,21.356 16.779,0 1906.77799,-51.59 2057.78099,-52.668 0,0 2.521,-162.667 0.478,-284.64 z"
     fill="#468bbc"
     fill-opacity="0.48"
     id="path654"
     inkscape:connector-curvature="0" />
  <path
     d="m 2249.22,953.485 c -16.179,1.078 -2032.82099,91.478 -2051.88799,93.004 -19.067,1.525 -19.83,6.862 -19.83,19.828 0,4.457 0.707,47.413 1.566,97.773 448.75,-9.685 1816.09399,-60.831 2080.33999,-78.906 -1.228,-73.42 -4.108,-132.105 -10.188,-131.7 z"
     fill="#5cbc46"
     fill-opacity="0.48"
     id="path656"
     inkscape:connector-curvature="0" />
  <path
     d="m 2118.771,1190.554 c 2.382,-30.367 8.931,-41.68 42.276,-40.49 33.344,1.191 40.49,4.168 39.299,39.299 -1.191,35.13 -3.573,85.147 -5.955,101.224 -2.381,16.077 -11.908,25.604 -38.108,25.008 -26.199,-0.595 -41.68,-6.55 -42.87,-30.367 -1.192,-23.817 3.572,-80.384 5.358,-94.674 z"
     fill="#151515"
     id="path658"
     inkscape:connector-curvature="0" />
  <path
     d="m 2161.642,1215.562 c 0.596,-13.1 3.573,-13.695 9.527,-13.695 5.955,0 10.123,1.786 10.123,16.672 0,14.886 -2.382,62.521 -2.382,72.048 0,9.527 -1.786,16.672 25.604,15.481 27.39,-1.19 47.04,-2.977 50.016,-1.786 2.978,1.19 8.932,10.122 -1.19,11.909 -10.123,1.786 -50.613,2.977 -60.735,4.168 -10.122,1.19 -11.313,8.336 -10.122,20.84 1.19,12.504 8.931,20.245 24.412,20.245 15.482,0 45.254,-1.786 50.017,-1.786 4.764,0 10.718,12.504 0,14.29 -10.718,1.786 -40.49,2.382 -56.566,2.382 -16.077,0 -31.558,-6.55 -34.536,-36.322 -2.977,-29.772 -4.763,-105.392 -4.168,-124.446 z"
     fill="#222222"
     id="path660"
     inkscape:connector-curvature="0" />
  <path
     d="m 2499.358,1460.741 c 8.6,10.512 7.963,13.06 -5.415,12.423 -13.379,-0.637 -136.334,-6.69 -172.966,-11.786 -36.632,-5.097 -59.573,-11.836 -57.32,-0.8 2.252,11.037 -11.263,24.777 -11.263,3.154 0,-21.623 -2.702,-154.29 -4.054,-193.031 -1.351,-38.741 -7.953,-366.764 -7.953,-464.236 0,-97.473 1.911,-286.047 0,-368.867 -1.912,-82.82 -2.549,-291.143 -2.549,-305.796 0,-14.652 -1.592,-17.2 -5.733,-17.2 -4.141,0 -6.053,-0.32 -5.734,-11.787 0.319,-11.467 3.822,-55.744 6.37,-67.211 2.55,-11.467 1.912,-13.697 24.528,-16.564 22.616,-2.867 28.031,-2.867 28.669,15.608 0.637,18.475 -0.319,121.045 -0.638,149.076 -0.318,28.031 -5.415,337.968 -5.415,386.386 0,48.418 -5.733,279.039 -5.096,366.955 0.637,87.917 3.822,217.243 14.652,291.78 10.83,74.538 24.528,105.118 56.382,143.98 31.853,38.861 71.366,51.342 96.516,52.24 26.758,0.955 25.513,1.505 29.89,6.232 4.944,5.34 22.274,23.525 27.129,29.444 z"
     fill="#c9c4c3"
     id="path662"
     inkscape:connector-curvature="0" />
  <path
     inkscape:connector-curvature="0"
     id="path664"
     d="m 3100.909,1712.634 c -10.674,14.826 -9.766,12.022 3.6,12.58 13.367,0.556 103.868,4.733 121.968,20.605 17.492,15.34 15.594,1.114 16.708,-22.277 1.114,-23.39 8.911,-124.195 7.24,-169.863 -1.67,-45.668 -1.67,-45.111 -10.024,-38.428 -8.354,6.683 -17.822,8.354 -27.847,10.581 -10.025,2.228 -14.333,5.925 -17.265,13.924 -3.64,9.929 -20.05,51.237 -31.745,74.071 -11.695,22.834 -53.248,85.77 -62.634,98.807 z"
     style="fill:#b6b5b3" />
  <path
     inkscape:connector-curvature="0"
     id="path666"
     d="m 3184.151,1531.68 c 11.695,-1.95 13.366,-0.278 9.746,8.076 -3.62,8.354 -17.265,42.605 -29.239,65.996 -11.974,23.39 -24.783,43.997 -47.06,78.527 -22.277,34.53 -27.847,40.377 -37.036,40.099 -9.19,-0.279 -84.653,-1.393 -153.156,0.835 -68.502,2.228 -304.083,8.354 -341.398,10.582 -37.314,2.228 -38.428,2.784 -41.77,-6.683 -3.34,-9.468 -16.15,-46.225 -56.25,-105.817 -40.098,-59.591 -47.301,-67.49 -50.452,-72.61 -3.15,-5.12 -2.362,-8.664 8.664,-7.482 11.027,1.181 139.809,8.805 208.868,9.919 69.059,1.114 219.981,-1.313 273.452,-2.785 60.705,-1.67 138.676,-5.569 173.762,-8.91 35.087,-3.342 65.718,-6.684 81.869,-9.747 z"
     style="fill:#b6b5b3" />
  <path
     inkscape:connector-curvature="0"
     id="path668"
     d="m 2405.638,1538.871 c 22.84,3.15 24.022,5.907 33.867,20.084 9.845,14.177 51.195,73.642 63.403,93.726 12.209,20.085 34.656,63.404 36.625,74.036 1.969,10.633 -2.138,10.915 -10.408,11.703 -8.27,0.787 -79.007,1.273 -136.928,19.652 -57.92,18.379 -92.45,33.973 -111.386,38.428 -18.935,4.456 -24.505,3.342 -25.619,-16.15 -1.114,-19.493 -3.14,-305.67 -2.746,-317.09 0.394,-11.421 0,-14.178 4.726,-11.421 4.726,2.757 5.513,2.363 8.664,19.297 3.15,16.933 10.239,31.898 45.682,44.5 35.442,12.602 67.735,18.115 94.12,23.235 z"
     style="fill:#b6b5b3" />
  <path
     inkscape:connector-curvature="0"
     id="path672"
     d="m 2254.496,1450.854 c -1.902,0.148 -1.754,3.84 -2.05,12.406 -0.155,4.527 0.075,52.536 0.472,109.691 61.647,53.951 168.826,85.724 266.015,108.409 -5.71,-10.843 -11.554,-21.322 -16.025,-28.678 -12.208,-20.084 -53.557,-79.55 -63.402,-93.727 -9.846,-14.177 -11.027,-16.933 -33.868,-20.084 -26.385,-5.12 -58.678,-10.634 -94.12,-23.236 -35.444,-12.602 -42.532,-27.566 -45.682,-44.5 -3.15,-16.934 -3.939,-16.54 -8.664,-19.297 -1.182,-0.689 -2.043,-1.033 -2.676,-0.984 z m 991.193,61.103 c -1.25,0.018 -2.94,1.414 -5.289,3.293 -8.354,6.683 -17.821,8.355 -27.846,10.582 -10.024,2.228 -14.333,5.925 -17.265,13.924 -3.64,9.93 -20.049,51.236 -31.744,74.07 -6.718,13.116 -23.228,39.34 -37.893,61.862 a 739.16,739.16 0 0 0 21.184,-5.611 c 49.571,-13.943 81.408,-26.206 101.765,-37.24 1.504,-29.554 2.544,-59.477 1.824,-79.159 -1.2,-32.824 -1.54,-41.768 -4.736,-41.72 z"
     style="fill:#c6c4c2" />
  <path
     inkscape:connector-curvature="0"
     id="path674"
     d="m 3191.117,1530.946 c -1.745,-0.013 -4.043,0.247 -6.967,0.734 -16.15,3.063 -46.78,6.404 -81.867,9.746 -35.087,3.342 -113.059,7.241 -173.764,8.912 -53.47,1.472 -204.392,3.897 -273.451,2.783 -69.06,-1.113 -197.84,-8.736 -208.867,-9.918 -11.027,-1.18 -11.815,2.363 -8.664,7.483 3.15,5.12 10.354,13.018 50.453,72.61 15.69,23.316 27.155,43.082 35.556,59.14 120.17,27.74 251.367,28.848 332.573,24.398 75.159,-4.118 168.404,-6.352 266.531,-30.414 19.164,-29.834 30.988,-49.14 42.008,-70.668 11.974,-23.39 25.618,-57.642 29.238,-65.996 2.715,-6.265 2.455,-8.771 -2.78,-8.81 z"
     style="fill:#c6c4c2" />
  <path
     inkscape:connector-curvature="0"
     id="path678"
     d="m 2254.496,1450.854 c -1.902,0.148 -1.754,3.84 -2.05,12.406 -0.091,2.669 -0.043,21.218 0.087,46.986 36.658,31.42 100.48,56.475 201.912,70.272 a 10386.878,10386.878 0 0 0 -14.94,-21.563 c -9.845,-14.177 -11.026,-16.933 -33.867,-20.084 -26.385,-5.12 -58.678,-10.634 -94.12,-23.236 -35.444,-12.602 -42.532,-27.566 -45.682,-44.5 -3.15,-16.934 -3.939,-16.54 -8.664,-19.297 -1.182,-0.689 -2.042,-1.033 -2.676,-0.984 z m 991.193,61.103 c -1.25,0.018 -2.94,1.414 -5.289,3.293 -8.354,6.683 -17.821,8.355 -27.846,10.582 -10.024,2.228 -14.333,5.925 -17.265,13.924 -1.654,4.51 -5.995,15.595 -11.28,28.381 2.522,-0.543 5,-1.09 7.381,-1.648 31.014,-7.259 48.733,-14.127 58.723,-21.067 -0.968,-25.688 -1.532,-33.507 -4.424,-33.465 z m -54.572,18.989 c -1.745,-0.013 -4.043,0.247 -6.967,0.734 -16.15,3.063 -46.78,6.404 -81.867,9.746 -35.087,3.342 -113.059,7.241 -173.764,8.912 -53.47,1.472 -204.392,3.897 -273.451,2.783 -69.06,-1.113 -197.84,-8.736 -208.867,-9.918 -11.027,-1.18 -11.815,2.363 -8.664,7.483 2.154,3.5 6.481,8.724 21.646,30.46 19.861,2.604 41.126,4.786 63.893,6.505 177.103,13.366 366.46,6.683 447.771,3.341 76.512,-3.144 157.945,-11.22 210.91,-22.37 5.651,-13.164 10.259,-24.526 12.14,-28.866 2.714,-6.265 2.454,-8.771 -2.78,-8.81 z"
     style="fill:#d6d0cf" />
  <path
     inkscape:connector-curvature="0"
     id="path682"
     d="m 2366.875,1531.149 c 14.858,19.24 40.176,27.674 75.96,32.61 l -3.33,-4.804 c -9.845,-14.177 -11.026,-16.933 -33.867,-20.084 -11.816,-2.292 -24.825,-4.67 -38.763,-7.722 z m 857.552,-8.125 c -3.842,1.09 -7.81,1.906 -11.873,2.808 -10.024,2.228 -14.333,5.925 -17.265,13.924 -0.618,1.686 -1.706,4.515 -2.975,7.766 24.023,-7.627 29.153,-14.707 32.113,-24.498 z m -33.31,7.922 c -1.745,-0.013 -4.043,0.247 -6.967,0.734 -16.15,3.063 -46.78,6.404 -81.867,9.746 -35.087,3.342 -113.059,7.241 -173.764,8.912 -53.47,1.472 -204.392,3.897 -273.451,2.783 -69.06,-1.113 -197.84,-8.736 -208.867,-9.918 -11.027,-1.18 -11.815,2.363 -8.664,7.483 1.438,2.336 3.9,5.512 9.767,13.656 14.067,1.79 29.66,3.112 46.81,4.373 75.743,5.57 282.92,6.684 343.07,6.684 60.147,0 235.024,-2.227 308.538,-16.707 19.437,-3.829 33.853,-7.267 44.682,-10.584 1.411,-3.399 2.775,-6.698 3.492,-8.352 2.715,-6.265 2.455,-8.771 -2.78,-8.81 z"
     style="fill:#ccc7c6" />
  <path
     d="m 3073.537,1540.446 c 12.239,-0.805 14.177,-1.97 19.69,-9.845 5.514,-7.876 25.598,-38.2 35.05,-54.346 9.451,-16.146 19.296,-37.412 21.265,-45.682 1.97,-8.27 6.301,-12.995 -9.451,-12.208 -15.752,0.788 -204.33,6.663 -317.387,8.89 -113.057,2.229 -314.676,0.562 -330.428,0.168 -15.753,-0.394 -18.593,1.407 -12.686,7.708 5.907,6.301 20.562,16.708 48.128,59.24 27.567,42.53 30.324,52.77 43.713,53.951 13.39,1.182 152.678,3.007 222.87,1.458 75.742,-1.67 161.407,-1.584 279.236,-9.334 z"
     fill="#ccc7c6"
     id="path686"
     inkscape:connector-curvature="0" />
  <path
     d="m 3142.381,1454.824 c -3.337,6.407 -4.273,9.468 4.177,9.19 10.023,-0.331 62.508,-5.489 82.28,-8.83 19.77,-3.342 19.297,-8.123 19.449,-22.405 0.153,-14.35 -0.925,-56.482 -4.266,-91.847 -3.342,-35.365 -10.582,-67.667 -11.696,-27.847 -1.114,39.82 -1.67,74.907 -20.05,88.552 -18.378,13.645 -37.87,13.645 -47.06,14.202 -9.19,0.557 -8.354,2.784 -10.582,8.91 -2.227,6.127 -8.627,23.116 -12.252,30.075 z"
     fill="#cfcac9"
     id="path688"
     inkscape:connector-curvature="0" />
  <path
     d="m 3144.029,1514.061 c 13.98,-0.788 15.162,-8.27 15.162,-17.918 0,-9.649 -4.135,-17.131 -14.965,-16.934 -10.83,0.197 -16.54,6.695 -17.13,17.721 -0.592,11.027 5.119,17.918 16.933,17.13 z"
     fill="#a8a8a8"
     id="path690"
     inkscape:connector-curvature="0" />
  <path
     d="m 3185.379,1507.169 c 11.814,-0.394 15.162,-8.86 14.768,-16.934 -0.394,-8.073 -5.907,-15.752 -15.95,-15.358 -10.042,0.394 -13.783,9.451 -13.586,16.934 0.197,7.482 1.969,16.343 14.768,15.358 z"
     fill="#dedede"
     id="path692"
     inkscape:connector-curvature="0" />
  <path
     inkscape:connector-curvature="0"
     id="path694"
     d="m 3218.058,1464.665 c -2.465,0.053 -3.257,1.728 -3.17,3.358 0.088,1.63 1.233,2.411 3.346,2.7 2.112,0.29 2.465,-1.768 2.465,-3.484 0,-1.716 -1.409,-2.51 -2.641,-2.574 z m -0.793,8.266 c 2.465,0.399 3.434,1.803 3.346,3.875 -0.088,2.073 -1.937,3.151 -3.61,2.794 -1.672,-0.357 -2.993,-2.321 -2.729,-3.933 0.265,-1.612 0.969,-2.57 2.993,-2.736 z m -0.88,8.805 c 1.937,0.1 2.817,1.5 2.729,3.3 -0.088,1.802 -1.584,2.99 -3.61,2.433 -2.024,-0.556 -2.2,-2.19 -2.112,-3.36 0.088,-1.169 0,-2.618 2.993,-2.373 z m -2.025,7.842 c 2.641,0.226 2.495,1.96 2.407,3.491 -0.087,1.53 -1.148,2.692 -3.173,1.775 -2.025,-0.917 -2.403,-1.615 -1.962,-3.037 0.44,-1.423 0.616,-2.429 2.728,-2.23 z m -2.371,7.704 c 2.006,0.22 2.385,1.56 2.347,2.994 -0.038,1.435 -0.946,3.058 -3.028,2.717 -2.082,-0.34 -2.271,-1.825 -2.082,-3.174 0.189,-1.35 0.72,-2.914 2.763,-2.537 z m -4.143,6.814 c 1.893,0.01 2.95,1.416 3.037,3.362 0.088,1.946 -1.276,2.192 -2.817,2.067 -1.54,-0.124 -2.288,-1.608 -2.245,-2.734 0.044,-1.127 -0.043,-2.937 2.025,-2.695 z m -4.191,5.556 c 1.803,0.288 2.515,1.006 2.563,2.615 0.047,1.61 -0.997,2.724 -2.421,2.553 -1.424,-0.17 -2.516,-1.444 -2.42,-2.851 0.094,-1.407 0.901,-2.388 2.278,-2.317 z m -6.35,2.84 c 2.088,0.156 2.705,1.405 2.8,2.628 0.095,1.222 -0.712,2.446 -2.326,2.363 -1.614,-0.083 -2.515,-1.055 -2.658,-2.28 -0.142,-1.224 0.38,-2.658 2.184,-2.711 z m -6.284,2.43 c 2.273,0.172 2.706,1.25 2.814,2.532 0.108,1.283 -0.974,2.282 -2.706,2.304 -1.732,0.021 -2.219,-1.392 -2.327,-2.508 -0.108,-1.116 1.028,-2.223 2.219,-2.328 z m -6.342,1.118 c 2.01,0.045 3.387,0.94 3.444,2.769 0.058,1.828 -1.55,2.746 -3.214,2.66 -1.665,-0.085 -2.469,-1.658 -2.411,-2.832 0.057,-1.175 0,-2.532 2.181,-2.597 z m -5.726,1.059 c 2.416,0.177 3.033,1.686 3.136,3.167 0.102,1.482 -0.977,3.114 -3.084,3.11 -2.108,0 -2.93,-1.31 -2.93,-3.05 0,-1.74 0.874,-3.225 2.878,-3.227 z m -8.058,1.125 c 2.33,0.077 3.161,0.376 3.37,2.691 0.207,2.315 -0.916,3.793 -3.038,3.726 -2.121,-0.066 -2.911,-1.9 -2.995,-3.44 -0.083,-1.54 0.916,-2.982 2.663,-2.977 z m -7.544,1.095 c 2.141,0.023 2.912,1.293 3.04,3.013 0.129,1.72 -0.47,3.402 -2.655,3.51 -2.184,0.106 -3.17,-1.175 -3.17,-3.064 0,-1.889 0.557,-3.53 2.785,-3.459 z m -6.814,1.166 c 2.463,0.179 2.802,1.313 2.953,3.447 0.15,2.135 -1.558,2.877 -3.066,2.903 -1.508,0.025 -2.815,-0.872 -2.865,-3.364 -0.05,-2.493 0.967,-2.986 2.978,-2.986 z m -8.188,1.355 c 2.346,0 3.276,0.916 3.479,2.877 0.202,1.961 -0.607,3.289 -2.832,3.299 -2.225,0.01 -2.954,-1.605 -2.913,-2.972 0.04,-1.368 -0.04,-3.157 2.265,-3.204 z m -7.406,1.289 c 2.685,0.184 3.565,1.54 3.697,3.172 0.132,1.632 -1.232,3.458 -3.125,3.405 -1.892,-0.052 -2.949,-1.642 -2.905,-3.355 0.044,-1.714 0.705,-3.26 2.333,-3.221 z m -6.866,0.46 c -1.893,-0.098 -2.993,1.516 -2.95,3.505 0.045,1.988 1.41,3.097 3.082,3.454 1.672,0.358 2.993,-1.064 3.037,-3.184 0.044,-2.12 -1.189,-3.673 -3.17,-3.776 z m -7.967,0.401 c -2.42,-0.08 -3.213,1.73 -3.125,3.541 0.088,1.811 1.497,3.78 3.433,3.744 1.937,-0.035 2.95,-2.376 2.817,-4.098 -0.132,-1.723 -1.584,-3.198 -3.125,-3.187 z m -7.438,1.242 c -2.817,0.035 -3.522,2.347 -3.39,3.979 0.132,1.632 1.409,2.872 3.698,2.945 2.288,0.073 2.729,-1.71 2.597,-3.568 -0.132,-1.858 -0.66,-3.195 -2.905,-3.356 z m -8.209,0.774 c -2.332,0.015 -3.213,1.55 -3.213,3.582 0,2.031 1.497,3.102 3.345,3.333 1.849,0.23 2.95,-1.067 2.905,-3.327 -0.043,-2.26 -1.408,-3.414 -3.037,-3.588 z m -7.549,0.49 c -2.553,0.05 -2.993,1.923 -2.993,3.368 0,1.444 1.188,2.363 3.037,2.504 1.849,0.14 2.421,-1.59 2.421,-2.9 0,-1.31 -0.88,-2.89 -2.465,-2.972 z"
     style="fill:#dedede" />
  <path
     inkscape:connector-curvature="0"
     id="path698"
     d="m 3224.214,1464.303 c 3.3,0.17 4.295,1.882 4.357,4.376 0.063,2.493 -1.369,3.696 -3.859,3.76 -2.49,0.063 -3.175,-1.888 -3.299,-4.513 -0.125,-2.624 0.81,-3.47 2.801,-3.623 z m 0.872,13.136 c 3.36,0.3 3.734,2.299 3.859,4.349 0.124,2.05 -1.307,3.38 -3.237,3.472 -1.93,0.092 -3.735,-1.15 -3.735,-3.896 0,-2.746 0.623,-3.927 3.113,-3.926 z m -3.175,14.33 c 2.614,0.198 3.61,1.718 3.797,3.707 0.187,1.99 -1.183,3.58 -3.922,3.438 -2.738,-0.141 -3.548,-2.673 -3.485,-4.267 0.062,-1.593 0.249,-2.988 3.61,-2.878 z m -5.602,12.928 c 2.116,0.365 3.112,1.31 3.174,3.357 0.063,2.046 -1.245,3 -2.988,2.974 -1.742,-0.026 -3.36,-1.833 -3.299,-3.49 0.063,-1.657 0.623,-2.97 3.113,-2.84 z"
     style="fill:#e98d3e" />
  <path
     inkscape:connector-curvature="0"
     id="path702"
     d="m 2364.363,1483.005 c 2.388,0.021 2.9,-1.238 2.9,-2.954 0,-1.716 -0.938,-3.891 -3.07,-3.91 -2.132,-0.02 -2.644,1.601 -2.815,3.406 -0.17,1.804 0.938,3.62 2.985,3.458 z m 3.838,1.569 c 2.217,0.201 3.07,1.292 3.156,3.64 0.084,2.35 -0.512,3.337 -2.73,3.498 -2.217,0.16 -3.155,-1.473 -3.155,-3.46 0,-1.986 0.597,-3.516 2.729,-3.678 z m 4.605,8.801 c 1.962,0.199 2.9,0.839 2.9,2.826 0,1.986 -0.938,3.152 -2.9,3.315 -1.961,0.163 -2.643,-1.288 -2.814,-3.006 -0.17,-1.717 0.682,-3.335 2.814,-3.135 z m 4.094,7.171 c 2.559,0.203 2.985,1.29 2.985,3.458 0,2.167 -0.682,2.974 -2.73,3.136 -2.046,0.162 -3.155,-1.293 -3.24,-3.28 -0.085,-1.987 1.109,-3.06 2.985,-3.314 z m 5.799,7.366 c 2.132,0.02 3.582,0.484 3.667,3.194 0.085,2.71 -1.45,3.96 -3.41,3.942 -1.962,-0.017 -3.412,-1.656 -3.327,-3.642 0.085,-1.985 0.426,-3.247 3.07,-3.494 z m 7.846,7.476 c 2.815,0.115 3.326,1.474 3.412,3.642 0.085,2.168 -1.28,3.781 -3.326,3.853 -2.047,0.072 -3.156,-1.202 -3.241,-3.64 -0.085,-2.44 1.023,-3.784 3.155,-3.855 z m 9.126,4.777 c 2.9,0.117 3.752,1.118 3.923,3.828 0.17,2.711 -1.365,3.42 -3.838,3.488 -2.473,0.067 -2.729,-1.47 -2.814,-3.277 -0.085,-1.806 0.256,-3.79 2.729,-4.039 z m 10.575,2.985 c 2.814,0.206 3.752,2.201 3.752,4.007 0,1.806 -1.279,3.15 -3.326,3.221 -2.046,0.072 -3.07,-2.014 -3.155,-3.64 -0.085,-1.626 0.682,-3.335 2.729,-3.588 z m 10.149,1.085 c 2.985,0.298 3.496,1.296 3.582,3.644 0.085,2.349 -1.28,3.872 -3.582,3.941 -2.303,0.07 -2.815,-2.373 -2.985,-4.27 -0.17,-1.898 0.938,-3.243 2.985,-3.315 z m 9.552,1.531 c 2.388,0.111 3.411,1.746 3.496,4.095 0.085,2.349 -1.28,3.6 -3.155,3.313 -1.877,-0.288 -3.07,-1.834 -3.07,-4.092 0,-2.257 0.852,-3.423 2.729,-3.316 z m 9.21,0.534 c 2.473,0.203 3.412,1.747 3.412,4.546 0,2.8 -1.194,3.511 -3.326,3.402 -2.133,-0.11 -2.388,-2.37 -2.474,-4.086 -0.085,-1.717 0.427,-3.789 2.388,-3.862 z m 9.552,1.17 c 2.644,0.295 3.497,2.018 3.411,4.365 -0.085,2.347 -1.194,3.692 -3.41,3.672 -2.218,-0.02 -2.986,-1.743 -2.815,-4.36 0.17,-2.617 1.023,-3.693 2.814,-3.677 z m 9.808,1.262 c 2.643,0.205 3.752,1.66 3.667,4.548 -0.085,2.89 -1.45,3.69 -3.582,3.67 -2.132,-0.019 -3.411,-1.836 -3.24,-4.634 0.17,-2.798 1.534,-3.508 3.155,-3.584 z m 9.21,0.354 c 2.73,0.115 3.412,1.927 3.412,4.275 0,2.348 -1.62,3.959 -3.582,3.85 -1.962,-0.107 -2.73,-2.1 -2.644,-4.358 0.085,-2.256 0.938,-3.784 2.814,-3.767 z m 9.211,0.444 c 2.559,0.294 3.752,2.02 3.667,4.82 -0.085,2.798 -1.023,3.421 -3.411,3.49 -2.388,0.069 -3.156,-2.195 -3.156,-4.453 0,-2.257 0.512,-3.788 2.9,-3.857 z m 9.211,0.715 c 2.046,0.109 3.496,0.754 3.496,3.915 0,3.16 -1.194,3.782 -3.155,3.854 -1.962,0.073 -3.07,-1.562 -3.07,-3.73 0,-2.167 0.34,-4.06 2.729,-4.039 z m 9.21,0.534 c 2.644,0.115 3.497,1.116 3.582,3.826 0.085,2.71 -1.108,3.782 -3.24,3.673 -2.133,-0.11 -3.156,-1.654 -3.241,-3.822 -0.085,-2.168 0.767,-3.605 2.9,-3.676 z m 9.126,0.444 c 2.558,0.113 3.496,1.386 3.582,3.554 0.085,2.168 -0.938,3.875 -3.241,3.944 -2.303,0.07 -3.241,-1.835 -3.156,-3.73 0.085,-1.896 0.683,-3.516 2.815,-3.768 z m 9.807,0.269 c -2.729,0.066 -3.496,1.323 -3.582,3.58 -0.085,2.257 1.536,4.258 3.412,4.455 1.876,0.198 2.814,-1.148 2.985,-3.765 0.17,-2.617 -0.938,-3.892 -2.815,-4.27 z m 9.382,0.807 c -3.156,-0.209 -3.838,2.313 -4.094,3.756 -0.256,1.442 0.597,3.798 3.155,4.092 2.559,0.294 3.838,-1.591 3.838,-3.668 0,-2.077 -1.194,-3.894 -2.9,-4.18 z m 9.04,-0.01 c -3.156,-0.118 -3.838,1.772 -3.923,4.75 -0.085,2.98 2.302,3.272 3.923,3.377 1.62,0.105 3.326,-1.595 3.411,-4.032 0.085,-2.438 -1.365,-3.715 -3.411,-4.095 z"
     style="fill:#dedede" />
  <path
     inkscape:connector-curvature="0"
     id="path706"
     d="m 2349.099,1484.351 c 3.64,0.17 5.33,-2.292 5.33,-5.594 0,-3.303 -1.95,-4.834 -4.81,-5.41 -2.859,-0.577 -4.808,1.057 -4.938,5.597 -0.13,4.54 1.82,4.833 4.419,5.407 z m 5.849,5.557 c -3.899,-0.035 -3.639,3.545 -3.639,4.646 0,1.1 0.39,3.306 3.899,3.613 3.509,0.307 3.769,-0.517 3.899,-3.13 0.13,-2.614 -1.95,-4.972 -4.159,-5.13 z m 9.228,12.743 c -3.12,-0.303 -3.51,2.308 -3.64,3.958 -0.13,1.65 1.17,3.864 3.9,4.163 2.729,0.3 3.379,-2.033 3.638,-3.545 0.26,-1.511 -1.04,-3.724 -3.898,-4.576 z m 10.657,14.132 c -3.25,-0.442 -3.9,1.341 -3.9,2.718 0,1.376 0.52,3.032 3.25,3.194 2.73,0.162 3.12,-2.036 3.12,-3.137 0,-1.101 -0.91,-2.348 -2.47,-2.775 z"
     style="fill:#e98d3e" />
  <path
     d="m 2421.953,1482.72 c 13.06,0 15.608,6.37 15.927,17.201 0.319,10.83 -2.867,15.608 -12.742,16.564 -9.874,0.956 -18.475,-5.097 -19.112,-16.245 -0.637,-11.15 4.778,-17.201 15.927,-17.52 z"
     fill="#dedede"
     id="path710"
     inkscape:connector-curvature="0" />
  <path
     d="m 2476.058,1483.328 c 15.541,0.225 18.244,11.262 18.47,20.722 0.225,9.46 -2.703,18.244 -15.993,18.244 -13.289,0 -18.92,-7.883 -18.92,-17.794 0,-9.91 2.253,-20.272 16.443,-21.172 z"
     fill="#a8a8a8"
     id="path712"
     inkscape:connector-curvature="0" />
  <path
     d="m 2840.504,1453.31 c 7.03,-0.052 9.376,0.376 11.447,-2.92 2.07,-3.298 3.88,-6.85 18.707,-10.992 14.827,-4.142 35.158,0.542 53.446,15.996 18.29,15.455 30.823,24.23 36.831,29.029 6.008,4.8 7.573,5.53 14.84,-0.94 7.266,-6.468 8.824,-7.607 10.093,-16.206 1.269,-8.6 1.236,-17.14 0.428,-24.044 -0.808,-6.903 1.247,-14.204 3.643,-0.699 2.396,13.505 7.486,50.379 7.761,54.103 0.275,3.725 -0.5,5.362 -4.656,7.952 -4.157,2.591 -36.124,18.988 -38.72,20.975 -2.597,1.986 -5.202,1.837 -10.413,1.005 -5.212,-0.831 -21.114,-5.182 -25.806,-6.305 -4.691,-1.121 -10.162,-1.674 -26.826,-0.92 -16.663,0.756 -22.138,-0.865 -26.576,-3.6 -4.437,-2.735 -17.22,-8.562 -21.132,-9.987 -3.912,-1.424 -7.032,-0.215 -11.711,1.866 -4.68,2.08 -17.932,9.354 -20.79,11.086 -2.858,1.73 -8.062,2.767 -17.174,3.447 -9.112,0.68 -27.078,1.227 -47.629,6.963 -20.55,5.736 -22.63,6.365 -27.066,4.43 -4.434,-1.934 -28.437,-13.66 -34.434,-15.523 -5.997,-1.864 -5.227,-4.835 -4.208,-10.754 1.018,-5.919 5.624,-26.948 5.819,-44.041 0.194,-17.093 2.523,-20.935 5.722,-1.594 3.2,19.341 5.826,24.828 12.357,30.138 6.53,5.31 10.7,6.188 15.11,1.717 4.41,-4.47 29.591,-24.831 45.425,-38.094 15.834,-13.264 32.486,-16.955 43.43,-15.049 10.945,1.907 17.646,7.403 20.048,9.56 2.402,2.156 4.539,4.29 12.034,3.401 z"
     fill="#181818"
     id="path714"
     inkscape:connector-curvature="0" />
  <path
     d="m 2928.229,1644.934 c -0.192,13.05 -1.4,40.98 -2.36,48.465 -0.96,7.485 -5.565,10.94 -10.747,12.667 -5.182,1.727 -0.768,-61.415 -0.768,-61.415 z"
     fill="#848484"
     id="path716"
     inkscape:connector-curvature="0" />
  <path
     d="m 2748.533,1655.302 c 0.576,-10.747 0.192,-15.065 12.475,-15.641 12.283,-0.576 131.44,-3.09 145.825,-2.82 14.385,0.272 34.742,10.857 9.5,12.215 -25.242,1.357 -167.8,6.246 -167.8,6.246 z"
     fill="#a8a8a8"
     id="path718"
     inkscape:connector-curvature="0" />
  <path
     d="m 2748.596,1658.827 c -0.271,-9.5 0.271,-11.129 9.771,-11.943 9.5,-0.814 140.867,-1.628 149.01,-1.357 8.142,0.272 11.399,-1.086 11.67,13.3 0.272,14.385 0.272,33.927 0.272,39.627 0,5.7 -2.986,8.142 -10.314,8.685 -7.329,0.543 -140.595,3.529 -149.824,2.986 -9.228,-0.543 -10.314,-5.157 -10.585,-12.214 -0.271,-7.057 0,-32.842 0,-39.084 z"
     fill="#b9b9b9"
     id="path720"
     inkscape:connector-curvature="0" />
  <path
     d="m 2893.051,1648.489 c 10.555,0 12.09,2.687 12.475,12.475 0.384,9.788 0.192,25.334 -0.192,31.092 -0.384,5.757 -1.92,7.868 -11.516,8.252 -9.596,0.384 -111.89,3.263 -120.719,2.495 -8.828,-0.768 -9.02,-3.838 -9.404,-10.747 -0.384,-6.91 0.192,-25.526 0.96,-31.86 0.767,-6.333 1.919,-9.788 8.636,-10.171 6.718,-0.384 111.507,-1.728 119.76,-1.536 z"
     fill="#2e4a44"
     id="path722"
     inkscape:connector-curvature="0" />
  <path
     d="m 2978.129,1400.909 v -6.364 h 4.706 l 2.703,3.58 2.703,3.58 0.063,-3.58 0.063,-3.58 h 3.625 v 12.746 l -1.97,-0.065 -1.969,-0.065 -3.144,-4.288 -3.144,-4.287 v 8.688 h -3.637 z m -153.064,10.014 c -2.695,-0.36 -4.876,-1.715 -5.87,-3.648 -0.776,-1.507 -0.862,-4.211 -0.185,-5.785 0.674,-1.567 2.147,-2.925 3.937,-3.63 1.91,-0.75 6.573,-0.791 8.765,-0.076 l 1.424,0.465 0.07,1.593 c 0.04,0.877 -0.027,1.594 -0.144,1.594 -0.118,0 -0.888,-0.347 -1.711,-0.772 -2.887,-1.489 -6.493,-1.106 -7.875,0.836 -0.55,0.771 -0.857,2.944 -0.576,4.063 0.43,1.716 2.478,2.981 4.835,2.99 l 1.484,0.01 v -2.612 h -3.086 v -2.624 l 3.62,0.066 3.62,0.067 v 6.635 l -1.661,0.385 c -2.177,0.504 -4.874,0.686 -6.648,0.449 z m -57.96,-5.853 v -6.923 h 4.204 v 11.374 h 7.665 v 2.473 h -11.868 z m -50.236,8.004 c -3.718,-0.544 -5.94,-2.699 -6.296,-6.105 -0.326,-3.115 1.347,-5.944 4.178,-7.064 1.108,-0.438 1.82,-0.534 3.98,-0.534 3.112,0 4.775,0.523 6.266,1.97 1.239,1.203 1.79,2.451 1.927,4.362 0.214,2.988 -1.243,5.565 -3.757,6.646 -1.002,0.432 -3.932,1.028 -4.676,0.952 a 88.54,88.54 0 0 1 -1.622,-0.227 z m 4.068,-3.002 c 1.22,-0.91 1.598,-1.672 1.696,-3.408 0.175,-3.09 -1.16,-4.803 -3.747,-4.805 -2.489,0 -3.802,1.234 -4.035,3.796 -0.2,2.218 0.632,4.019 2.185,4.723 1.011,0.458 3.096,0.294 3.9,-0.306 z m -59.73,2.16 c -0.091,-0.241 -1.431,-3.367 -2.978,-6.947 l -2.811,-6.509 2.15,-0.073 c 1.548,-0.052 2.206,0.017 2.35,0.25 0.109,0.176 1.02,2.376 2.023,4.887 1.004,2.512 1.881,4.566 1.95,4.566 0.07,0 1.012,-2.196 2.095,-4.878 l 1.97,-4.877 h 4.428 l -0.856,2 c -0.47,1.099 -1.834,4.253 -3.029,7.009 l -2.173,5.01 h -2.477 c -2.129,0 -2.5,-0.062 -2.642,-0.438 z m 264.828,-9.476 v -6.794 h 11.647 v 2.67 h -7.521 v 2.426 h 7.036 v 2.669 h -7.059 l 0.072,1.638 0.072,1.637 3.7,0.067 3.7,0.067 v 2.414 h -11.646 z m -52.051,1.215 v -6.504 l 4.803,0.09 c 4.348,0.08 4.89,0.134 5.728,0.579 1.62,0.858 2.084,1.541 2.076,3.052 -0.01,1.59 -0.609,2.58 -1.991,3.285 l -0.917,0.468 0.696,0.88 c 0.384,0.484 0.86,1.014 1.058,1.18 0.198,0.164 0.994,1.013 1.768,1.886 l 1.408,1.588 h -4.879 l -2.02,-2.314 c -1.9,-2.18 -2.07,-2.315 -2.907,-2.315 h -0.888 v 4.629 h -3.935 z m 7.794,-1.034 c 0.954,-0.605 0.984,-2.16 0.052,-2.659 -0.265,-0.141 -1.253,-0.315 -2.196,-0.387 l -1.715,-0.13 v 3.817 l 1.678,-0.16 c 0.923,-0.089 1.905,-0.305 2.181,-0.48 z"
     fill="#c0c0c0"
     id="path724"
     inkscape:connector-curvature="0" />
  <path
     inkscape:connector-curvature="0"
     id="path726"
     d="m 3130.752,1400.137 c 15.006,11.383 31.563,0 11.901,-17.592 -19.662,-17.592 -135.564,-93.653 -148.5,-101.414 -12.935,-7.762 -9.299,-7.485 12.936,-8.28 28.976,-1.034 62.09,-9.83 13.453,-10.865 -48.637,-1.035 -286.65,1.035 -327.009,2.587 -40.359,1.552 -28.458,7.244 14.488,7.761 42.946,0.518 220.42,1.553 233.873,1.553 13.453,0 26.389,4.139 37.772,12.418 11.383,8.278 138.668,106.07 151.086,113.832 z"
     style="fill:#262626" />
  <path
     inkscape:connector-curvature="0"
     id="path728"
     d="m 2515.541,1387.202 c -24.319,10.865 -18.627,32.597 2.587,26.388 21.214,-6.21 152.121,-66.747 171.266,-75.026 19.144,-8.279 37.755,-9.95 65.195,-10.348 77.33,-1.122 106.248,-0.479 117.138,-0.459 46.628,0.087 16.821,-9.461 -8.532,-9.979 -50.708,-1.034 -252.45,-6.12 -279.355,-6.12 -26.906,0 -48.12,6.21 0.517,8.796 48.638,2.587 77.096,3.622 86.927,4.14 9.83,0.517 30.528,1.552 -0.518,11.383 -31.045,9.831 -135.563,46.05 -155.225,51.224 z"
     style="fill:#262626" />
  <path
     d="m 3097.121,0 c -21.732,0 -36.737,0.517 -49.672,4.139 -5.727,1.542 -9.85,4.396 -11.432,7.047 20.355,0.973 36.228,1.77 41.633,2.07 2.286,0.127 4.483,0.311 6.625,0.528 3.265,-0.094 6.154,-0.054 8.447,0.187 6.623,0.697 13.83,1.64 20.52,10.24 0.354,0.455 0.706,0.93 1.057,1.43 0.01,0.009 0.012,0.016 0.018,0.025 0,0.005 0.01,0.01 0.01,0.014 a 41.64,41.64 0 0 1 1.055,1.58 50.295,50.295 0 0 1 2.05,3.553 c 0.074,0.138 0.145,0.285 0.218,0.426 a 61.627,61.627 0 0 1 1.054,2.146 70.488,70.488 0 0 1 1.563,3.582 c 0.13,0.317 0.258,0.633 0.387,0.96 0.201,0.512 0.402,1.043 0.601,1.58 0.105,0.281 0.21,0.554 0.315,0.843 0.303,0.839 0.606,1.7 0.904,2.596 8.796,26.388 41.52,126.171 54.691,194.955 13.172,68.783 40.248,223.181 46.102,267.086 5.854,43.904 16.098,141.957 16.098,173.421 0,25.701 -6.35,45.54 -17.846,58.329 a 8356.3,8356.3 0 0 0 1.057,33.757 c 19.071,-6.766 34.897,-26.611 38.01,-49.644 3.658,-27.075 -20.49,-234.157 -34.393,-321.234 C 3212.29,312.538 3208.63,299.366 3196.191,233.51 3183.751,167.653 3147.165,53.502 3140.579,33.744 3133.994,13.987 3118.852,0 3097.12,0 Z"
     fill="#afafaf"
     id="path732"
     inkscape:connector-curvature="0" />
  <path
     d="m 765.11101,1634.519 c 50.034,0 58.746,80.285 59.907,135.978 1.16,55.693 -18.423,114.28 -50.06,115.726 -31.636,1.446 -53.489,-49.907 -55.607,-132.362 -2.119,-82.455 15.817,-117.172 45.76,-119.342 z"
     fill="#626262"
     id="path734"
     inkscape:connector-curvature="0" />
  <path
     d="m 745.43901,1670.834 c 30.699,1.023 39.77,56.77 38.969,100.243 -0.802,43.472 -12.529,78.25 -36.723,77.739 -24.194,-0.512 -35.427,-34.267 -36.41,-94.617 -0.98,-60.35 15.921,-82.342 34.164,-83.365 z"
     fill="#383838"
     id="path736"
     inkscape:connector-curvature="0" />
  <path
     d="m 746.02101,1703.566 c 17.1,0 20.426,43.473 21.803,65.465 1.378,21.992 -4.453,56.77 -20.374,56.77 -15.92,0 -25.293,-31.198 -25.71,-59.327 -0.418,-28.13 7.2,-62.396 24.281,-62.908 z"
     fill="#110f10"
     id="path738"
     inkscape:connector-curvature="0" />
  <path
     d="m 757.05601,1880.804 c -6.063,-4.227 -11.544,-10.85 -16.332,-19.624 7.527,5.447 14.45,12.912 16.332,19.624 z m 33.847,-0.64 c -17.65,-13.589 -25.075,-23.523 -18.61,-21.787 5.09,1.366 18.252,8.927 25.214,15.663 -2.098,2.356 -4.303,4.404 -6.604,6.125 z m 23.73,-37.836 c -18.123,-0.2 -28.076,-8.177 -23.427,-14.692 4.236,-5.935 18.274,-4.561 27.293,1.718 a 166.29,166.29 0 0 1 -3.867,12.974 z m 0.755,-59.338 c -11.241,-0.085 -16.262,-4.898 -16.144,-10.323 0.155,-7.07 8.149,-17.932 25.536,-10.644 0.103,2.872 0.18,5.71 0.239,8.474 a 228.31,228.31 0 0 1 -0.065,11.614 c -3.585,0.628 -6.768,0.9 -9.566,0.88 z m -14.004,-64.148 c -4.925,0.065 -6.552,-2.467 -8.51,-7.654 -2.816,-7.46 11.382,-15.547 23.876,-17.34 1.555,6.5 2.842,13.244 3.886,20.107 -9.436,3.137 -15.442,4.836 -19.252,4.887 z m -23.375,-46.58 c -1.613,-0.022 -2.967,-0.551 -4.098,-1.58 -4.11,-3.736 9.889,-16.37 22.063,-22.13 2.377,2.617 4.563,5.543 6.573,8.737 -11.639,10.041 -19.415,15.052 -24.538,14.974 z m -44.531,-14.095 c -0.173,0 -0.34,-0.01 -0.506,-0.023 5.351,-10.358 12.127,-17.123 20.118,-20.68 -7.551,14.014 -14.706,20.622 -19.612,20.702 z"
     fill="#151515"
     id="path740"
     inkscape:connector-curvature="0" />
  <path
     d="m 441.06701,1947.52 c 59.656,0 93.746,-112.495 92.894,-209.65 -0.853,-97.154 -44.317,-177.265 -82.667,-177.265 -38.35,0 -97.155,47.726 -97.155,181.527 0,133.8 41.76,206.24 86.928,205.388 z"
     fill="#212121"
     id="path742"
     inkscape:connector-curvature="0" />
  <path
     d="m 1797.318,1674.511 c 13.796,-13.019 16.95,-11.934 19.315,-7.594 2.365,4.34 2.365,7.595 -10.643,17.72 -13.008,10.126 -15.373,9.403 -18.527,5.064 -3.153,-4.34 0.394,-7.233 9.855,-15.19 z"
     fill="#ac4a2b"
     id="path744"
     inkscape:connector-curvature="0" />
  <path
     d="m 1827.423,1691.497 c -6.95,-17.462 -6.855,-20.38 -1.514,-22.385 5.341,-2.004 8.25,3.15 13.187,16.456 4.938,13.306 7.077,22.538 1.773,24.903 -5.304,2.364 -8.398,-4.588 -13.446,-18.974 z"
     fill="#ac7c2b"
     id="path746"
     inkscape:connector-curvature="0" />
  <path
     d="m 1837.582,1732.287 c -0.117,-15.753 -0.068,-16.22 4.245,-16.165 4.311,0.055 8.066,-0.699 8.109,14.326 0.025,8.748 0.083,12.232 -0.19,21.276 -0.273,9.043 -1.462,10.444 -6.975,10.914 -4.873,0.416 -5.105,-2.11 -5.317,-13.115 -0.211,-11.005 0.189,-9.07 0.128,-17.236 z"
     fill="#aca82b"
     id="path748"
     inkscape:connector-curvature="0" />
  <path
     d="m 1805.238,1783.114 c 5.807,13.407 5.037,13.614 0.35,17.753 -4.687,4.138 -9.995,2.11 -14.33,-8.814 -4.335,-10.925 -4.95,-12.338 -6.167,-19.835 -0.988,-6.076 3.282,-9.518 7.393,-10.815 4.11,-1.297 4.511,3.393 12.754,21.711 z"
     fill="#8e36ac"
     id="path750"
     inkscape:connector-curvature="0" />
  <path
     d="m 1780.783,1714.196 c 0.452,-15.075 0.713,-15.081 6.064,-15.081 5.35,0 8.204,2.346 8.917,12.4 0.714,10.054 0.714,19.438 0.714,29.492 0,10.054 -1.784,14.746 -6.778,14.746 -4.993,0 -6.777,-2.346 -7.847,-14.411 -1.07,-12.065 -1.332,-18.407 -1.07,-27.146 z"
     fill="#ac4361"
     id="path752"
     inkscape:connector-curvature="0" />
  <path
     d="m 1815.282,1811.179 c 18.306,4.974 19.026,8.23 16.559,12.513 -2.468,4.282 -5.244,5.98 -20.67,0.17 -15.427,-5.811 -16.045,-8.206 -13.989,-13.161 2.056,-4.955 6.376,-3.44 18.1,0.478 z"
     fill="#2b99ac"
     id="path754"
     inkscape:connector-curvature="0" />
  <path
     d="m 1834.469,1790.482 c 4.41,-18.27 6.173,-20.596 11.691,-19.148 5.519,1.449 4.917,7.336 1.262,21.05 -3.654,13.715 -7.239,22.487 -12.935,21.354 -5.696,-1.133 -4.206,-8.596 -0.019,-23.256 z"
     fill="#30ac2b"
     id="path756"
     inkscape:connector-curvature="0" />
  <path
     inkscape:connector-curvature="0"
     id="path758"
     fill="#30ac2b"
     d="m 723.35901,1691.521 c 14.198,-13.42 17.444,-12.427 19.878,-8.156 2.433,4.27 2.433,7.526 -10.953,18.03 -13.387,10.505 -15.82,9.85 -19.066,5.602 -3.245,-4.248 0.405,-7.244 10.141,-15.476 z" />
  <path
     inkscape:connector-curvature="0"
     id="path760"
     fill="#2b99ac"
     d="m 754.34001,1707.631 c -7.153,-17.26 -7.054,-20.181 -1.558,-22.34 5.497,-2.16 8.49,2.908 13.571,16.071 5.081,13.163 7.283,22.333 1.825,24.852 -5.459,2.518 -8.643,-4.344 -13.838,-18.583 z" />
  <path
     inkscape:connector-curvature="0"
     id="path762"
     fill="#8e36ac"
     d="m 764.79501,1748.126 c -0.121,-15.75 -0.07,-16.218 4.368,-16.289 4.437,-0.07 8.301,-0.934 8.345,14.09 0.026,8.748 0.085,12.23 -0.195,21.281 -0.281,9.051 -1.505,10.487 -7.178,11.118 -5.015,0.557 -5.254,-1.962 -5.472,-12.96 -0.217,-11 0.195,-9.077 0.132,-17.24 z" />
  <path
     inkscape:connector-curvature="0"
     id="path764"
     fill="#ac7c2b"
     d="m 731.50901,1799.893 c 5.977,13.239 5.185,13.468 0.361,17.743 -4.823,4.274 -10.286,2.401 -14.747,-8.397 -4.461,-10.798 -5.093,-12.193 -6.347,-19.656 -1.016,-6.046 3.379,-9.613 7.61,-11.03 4.23,-1.416 4.641,3.263 13.124,21.34 z" />
  <path
     inkscape:connector-curvature="0"
     id="path766"
     fill="#aca82b"
     d="m 706.34401,1731.687 c 0.465,-15.088 0.734,-15.102 6.24,-15.258 5.506,-0.156 8.443,2.107 9.177,12.14 0.734,10.034 0.734,19.418 0.734,29.472 0,10.054 -1.835,14.798 -6.974,14.943 -5.14,0.146 -6.975,-2.149 -8.076,-14.182 -1.101,-12.034 -1.37,-18.369 -1.101,-27.115 z" />
  <path
     inkscape:connector-curvature="0"
     id="path768"
     fill="#ac4a2b"
     d="m 741.84601,1827.667 c 18.838,4.44 19.58,7.676 17.04,12.03 -2.538,4.354 -5.396,6.134 -21.271,0.771 -15.875,-5.362 -16.51,-7.739 -14.395,-12.753 2.116,-5.015 6.56,-3.625 18.626,-0.048 z" />
  <path
     inkscape:connector-curvature="0"
     id="path770"
     fill="#ac4361"
     d="m 761.59101,1806.412 c 4.538,-18.398 6.353,-20.777 12.032,-19.489 5.679,1.288 5.06,7.193 1.299,21.013 -3.761,13.821 -7.45,22.698 -13.312,21.73 -5.861,-0.967 -4.328,-8.473 -0.02,-23.254 z" />
  <path
     inkscape:connector-curvature="0"
     id="path774"
     fill="#626262"
     d="m 445.56301,1880.657 c 47.513,1.098 62.56,-72.45 60.975,-139.772 -1.583,-67.321 -35.635,-103.967 -63.351,-104.938 -27.716,-0.97 -57.808,55.852 -55.433,136.64 2.376,80.789 38.011,108.735 57.809,108.07 z" />
  <path
     inkscape:connector-curvature="0"
     id="path776"
     fill="#383838"
     d="m 475.14001,1651.982 c -25.716,16.354 -43.418,68.283 -42.9,113.722 0.375,32.916 11.895,85.728 48.879,96.528 19.746,-25.905 26.508,-75.095 25.42,-121.346 -0.987,-41.953 -14.585,-71.986 -31.399,-88.904 z" />
  <path
     inkscape:connector-curvature="0"
     id="path778"
     fill="#474747"
     d="m 497.60301,1689.357 c -13.818,5.911 -31.155,29.823 -29.525,75.459 1.527,42.785 8.616,53.189 29.681,61.167 6.986,-25.053 9.472,-55.67 8.78,-85.097 -0.469,-19.91 -3.792,-37.114 -8.936,-51.529 z" />
  <path
     inkscape:connector-curvature="0"
     id="path780"
     fill="#1e1e1e"
     d="m 486.80001,1697.372 c -4.273,4.606 -8.346,10.944 -11.605,19.105 8.384,1.75 18.22,2.82 20.076,-0.738 2.173,-4.166 2.735,-9.801 -8.47,-18.367 z m -18.523,51.966 a 155.162,155.162 0 0 0 -0.2,15.478 c 0.16,4.47 0.398,8.51 0.688,12.307 17.462,-2.156 20.371,-11.456 20.371,-13.88 0,-2.44 0.353,-13.14 -20.859,-13.905 z m 20.46,60.117 c -3.512,-0.091 -7.749,0.663 -11.628,1.636 3.745,5.918 8.86,9.72 15.754,12.86 6.714,-10.975 2.682,-14.32 -4.125,-14.496 z" />
  <path
     d="m 2386.817,611.774 c 0,-15.54 -0.536,-16.075 14.468,-16.611 15.003,-0.536 169.321,-4.287 235.228,-4.287 65.907,0 500.464,1.072 516.539,1.608 16.075,0.536 17.146,6.43 18.218,20.897 1.072,14.468 3.215,120.562 2.68,128.063 -0.537,7.502 1.607,14.467 -14.468,16.075 -16.075,1.607 -368.24,5.316 -409.917,6.073 -41.678,0.758 -309.93,3.032 -331.148,3.79 -21.218,0.757 -26.522,-4.547 -27.28,-18.187 -0.758,-13.64 -4.092,-115.71 -4.32,-137.421 z"
     fill="#212121"
     id="path784"
     inkscape:connector-curvature="0" />
  <path
     d="m 2461.782,722.69 c 0.918,20.37 3.215,22.505 30.006,22.505 26.792,0 317.641,-2.063 375.232,-2.82 57.59,-0.758 208.337,-2.003 223.34,-2.003 15.003,0 16.61,-6.965 17.146,-20.361 0.536,-13.396 -0.535,-90.02 -1.607,-100.2 -1.072,-10.18 -2.68,-17.682 -20.361,-18.754 -17.683,-1.072 -253.376,1.13 -344.309,0.371 -90.933,-0.757 -241.73,1.516 -257.644,2.274 -15.913,0.757 -20.46,5.304 -21.217,21.975 -0.758,16.671 -1.679,72.783 -0.586,97.013 z"
     fill="#1c1c1c"
     id="path786"
     inkscape:connector-curvature="0" />
  <path
     d="m 2416.901,666.219 c 16.671,-0.759 21.218,-12.125 21.597,-23.113 0.379,-10.988 -8.336,-21.976 -21.218,-23.112 -12.882,-1.137 -20.081,11.366 -20.081,25.006 0,13.64 7.199,20.84 19.702,21.218 z"
     fill="#de8131"
     id="path788"
     inkscape:connector-curvature="0" />
  <path
     d="m 2418.417,682.132 c 17.807,0 21.217,14.018 21.217,23.87 0,9.85 -6.44,19.323 -22.354,20.46 -15.913,1.136 -19.702,-12.504 -20.081,-21.218 -0.379,-8.715 6.062,-23.87 21.218,-23.112 z"
     fill="#a9a9a9"
     id="path790"
     inkscape:connector-curvature="0" />
  <path
     d="m 3143.943,661.069 c 17.177,0.331 20.101,-14.471 20.361,-21.968 0.38,-10.912 -8.573,-23.577 -20.897,-24.648 -12.324,-1.072 -20.361,10.9 -19.29,25.368 1.072,14.467 8.991,21.04 19.826,21.249 z"
     fill="#de8131"
     id="path792"
     inkscape:connector-curvature="0" />
  <path
     d="m 3143.407,678.752 c 15.54,-0.536 20.362,9.11 20.362,22.505 0,13.396 -6.43,20.361 -17.683,21.433 -11.252,1.072 -19.29,-8.573 -19.826,-20.361 -0.535,-11.789 1.608,-21.97 17.147,-23.577 z"
     fill="#a9a9a9"
     id="path794"
     inkscape:connector-curvature="0" />
  <path
     d="m 885.24201,1407.711 c -1.075,0 -2.22,0.018 -3.438,0.053 -19.492,0.557 -17.822,2.784 -17.822,17.82 0,13.168 2.336,303.298 3.975,382.651 2.607,0 17.598,-0.164 40.927,-0.435 -1.505,-121.706 -7.03,-374.97 -7.03,-385.555 0,-10.443 -0.49,-14.523 -16.612,-14.533 z m 78.487,-1.509 c -1.596,0.028 -3.368,0.152 -5.337,0.35 -15.752,1.574 -17.328,6.3 -17.328,19.689 0,12.427 6.774,309.444 7.12,381.087 12.145,-0.145 22.35,-0.265 36.724,-0.439 -0.725,-47.903 -6.09,-363.722 -6.826,-380.648 -0.69,-15.851 -3.187,-20.244 -14.354,-20.04 z"
     fill="#666666"
     id="path796"
     inkscape:connector-curvature="0" />
  <path
     d="m 963.67301,1594.335 c 10.025,-1.671 13.366,25.619 13.923,56.25 0.557,30.63 -7.24,46.782 -12.81,46.782 -5.568,0 -12.808,-7.24 -13.365,-47.34 -0.557,-40.098 2.227,-55.692 12.252,-55.692 z m -77.417,-80.832 c 10.071,-1.285 13.428,19.698 13.987,43.25 0.56,23.553 -7.273,35.971 -12.868,35.971 -5.595,0 -12.868,-5.566 -13.428,-36.399 -0.56,-30.832 2.238,-42.822 12.31,-42.822 z"
     fill="#1d1d1d"
     id="path798"
     inkscape:connector-curvature="0" />
  <path
     inkscape:connector-curvature="0"
     id="path800"
     fill="#1e3779"
     d="m 963.72901,1406.202 c -1.596,0.028 -3.368,0.152 -5.337,0.35 -13.426,1.342 -16.545,4.994 -17.176,14.327 13.954,-0.114 26.308,-0.292 36.46,-0.527 -1.135,-11.07 -4.315,-14.327 -13.948,-14.15 z" />
  <path
     inkscape:connector-curvature="0"
     id="path802"
     fill="#902924"
     d="m 885.24201,1407.711 c -1.075,0 -2.22,0.018 -3.438,0.053 -17.203,0.492 -17.922,2.317 -17.853,13.069 12.348,0.118 25.097,0.195 37.896,0.203 -0.06,-9.536 -1.13,-13.315 -16.605,-13.324 z" />
  <path
     inkscape:connector-curvature="0"
     id="path806"
     d="m 2928.799,619.549 a 22.317,22.317 0 0 0 -2.186,0.037 c -19.28,-0.376 -26.286,15.739 -25.876,31.142 0.41,15.404 12.385,20.753 11.865,26.627 -0.52,5.875 -11.287,7.773 -11.492,25.446 -0.206,17.673 10.242,29.187 25.122,29.403 14.88,0.216 26.523,-6.89 25.617,-28.205 -0.905,-21.315 -9.453,-24.901 -9.566,-29.162 -0.114,-4.26 10.783,-14.012 10.095,-27.134 -0.655,-12.506 -9.059,-27.676 -23.578,-28.155 z m -1.251,18.104 c 7.528,0.478 9.727,7.265 9.889,13.327 0.166,6.257 -1.96,16.135 -10.09,16.07 -8.129,-0.065 -9.756,-7.302 -10.389,-13.113 -0.633,-5.812 -1.15,-16.248 9.844,-16.31 0.255,0 0.503,0.01 0.746,0.027 z m -1.4,47.18 c 6.227,0.458 9.921,4.53 10.187,14.495 0.265,9.965 -3.894,15.369 -10.127,14.678 -6.234,-0.69 -9.468,-5.439 -9.727,-15.172 -0.26,-9.733 3.691,-13.988 9.667,-14.001 z m 76.926,-66.812 a 45.146,45.146 0 0 0 -2.863,-0.028 c -8.599,0.149 -9.688,2.422 -13.436,9.226 -3.477,7.508 -17.602,43.083 -21.253,51.972 -3.652,8.89 -5.985,15.283 -5.226,21.326 0.758,6.043 1.574,8.154 5.165,8.285 3.592,0.131 13.616,-0.197 20.55,-0.175 6.932,0.022 5.81,1.6 5.97,10.166 0.158,8.566 -1.64,11.045 7.72,11.85 9.36,0.804 9.503,-1.273 9.705,-12.37 0.202,-11.098 1.4,-11.055 4.012,-11.422 2.612,-0.367 3.537,-1.028 2.9,-9.61 -0.637,-8.584 -1.127,-8.833 -3.75,-8.697 -2.623,0.135 -3.166,-1.273 -3.12,-5.436 0.046,-4.162 0.679,-47.17 0.292,-55.513 -0.339,-7.3 -0.797,-9.29 -6.667,-9.574 z m -12.825,40.592 c 1.666,0 2.358,4.382 2.9,13.259 0.993,16.23 0.11,17.818 -2.752,17.945 -2.863,0.126 -8.12,0.166 -10.275,0.088 -2.155,-0.08 -2.699,-1.487 -2.828,-4.268 -0.129,-2.78 0.157,-6.935 6.334,-18.046 3.19,-5.964 5.24,-8.976 6.62,-8.978 z m 59.41,-43.025 a 32.775,32.775 0 0 0 -1.992,-0.027 c -20.103,-0.503 -25.565,15.724 -26.67,27.946 -1.107,12.22 -1.289,44.372 0.75,57.402 2.039,13.03 8.017,28.518 26.454,29.19 18.437,0.674 27.827,-13.328 28.618,-27.18 0.792,-13.852 0.693,-31.438 -0.135,-49.283 -0.802,-17.286 -6.884,-37.154 -27.024,-38.048 z m -0.882,18.752 c 8.13,0.065 9.89,7.071 10.807,21.68 0.917,14.609 1.113,34.28 0.303,42.58 -0.81,8.299 -2.173,14.23 -11.719,14.575 -9.546,0.346 -10.237,-9.396 -10.777,-15.894 -0.54,-6.497 -1.448,-40.736 -1.03,-47.199 0.416,-6.463 3.317,-16.074 12.416,-15.742 z"
     style="fill:#e1e1e1" />
  <path
     d="m 2586.18,626.283 c -9.49,-0.346 -10.349,1.243 -9.798,7.972 0.552,6.73 0.852,31.032 1.242,34.285 0.39,3.253 0.79,6.738 3.892,6.62 3.102,-0.118 3.92,-3.096 3.73,-12.357 -0.191,-9.261 1.757,-8.496 7.732,-8.51 5.976,-0.012 8.884,-4.302 8.443,-13.803 -0.44,-9.502 -4.226,-13.805 -15.24,-14.207 z m 2.83,5.929 c 4.063,0.148 6.677,5.478 6.953,7.778 0.276,2.3 -1.644,8.284 -6.054,7.96 -4.41,-0.325 -4.718,0.317 -4.914,-7.542 -0.195,-7.86 -0.049,-8.345 4.015,-8.196 z m 36.572,10.183 a 9.951,9.951 0 0 0 -0.647,-0.01 c -3.461,0.105 -10.52,-0.037 -14.58,0.046 -4.06,0.083 -4.187,5.053 1.31,5.022 13.751,0.155 13.816,1.545 13.902,3.4 0.054,1.158 -0.48,2.526 -9.933,2.297 -9.453,-0.23 -11.775,6.395 -11.62,12.3 0.154,5.905 3.325,9.839 10.987,10.118 7.662,0.28 7.87,-2.952 9.432,-2.779 1.562,0.173 3.493,3.135 6.002,3.111 2.508,-0.024 3.205,-0.461 2.24,-16.113 -0.905,-14.673 -3.874,-17.222 -7.093,-17.396 z m -7.508,16.377 c 4.168,0.13 6.025,1.675 6.217,5.803 0.204,4.403 -1.096,4.703 -5.989,4.871 -4.892,0.169 -5.974,-2.531 -6.348,-5.437 -0.1,-4.746 0.477,-5.188 5.255,-5.245 0.299,0 0.587,0 0.865,0.01 z m 18.165,10.867 c 0.167,3.591 0.106,4.862 2.381,4.945 2.275,0.083 3.565,-0.449 3.54,-3.573 -0.026,-3.124 -0.818,-7.317 2.42,-7.083 3.238,0.234 4.369,1.432 6.467,5.441 2.099,4.01 3.964,5.582 6.468,5.442 2.503,-0.14 4.386,-0.766 0.303,-6.352 -4.084,-5.585 -6.232,-8.093 -3.29,-14.232 2.942,-6.14 7.68,-12.213 3.375,-12.254 -4.304,-0.041 -5.078,1.318 -9.387,8.911 -4.309,7.593 -6.387,6.592 -6.608,1.841 -0.22,-4.75 -0.853,-20.968 -0.846,-23.397 0.01,-2.43 -0.385,-3.138 -2.774,-3.109 -2.389,0.029 -3.341,0.11 -3.43,3.345 -0.09,3.236 1.155,35.208 1.381,40.074 z m 42.224,-28.445 c -0.324,-0.01 -0.655,-0.013 -0.995,-0.01 -12.294,0.36 -14.65,8.834 -13.785,19.74 0.865,10.904 8.073,14.29 13.352,14.715 5.278,0.424 10.796,0.856 12.432,-5.1 1.636,-5.955 0.582,-8.075 -0.74,-8.24 -1.323,-0.163 -3.217,0.23 -3.665,3.453 -0.448,3.222 -1.504,3.647 -4.96,3.868 -3.456,0.22 -6.687,-2.442 -8.045,-5.962 -1.359,-3.52 -1.08,-5.245 1.673,-5.145 2.754,0.1 11.602,0.193 14.704,0.074 3.102,-0.118 3.43,-0.8 3.062,-6.135 -0.355,-5.168 -2.983,-10.961 -13.033,-11.258 z m 0.694,5.488 c 2.64,0.212 6.203,2.308 6.398,3.935 0.195,1.626 0.33,1.978 -6.358,2.081 -5.86,-0.098 -5.774,-0.789 -5.86,-2.643 -0.086,-1.854 3.18,-3.585 5.82,-3.373 z m 15.744,-0.698 c 0.155,-4.39 0.498,-4.725 1.82,-4.56 1.323,0.163 2.137,4.82 3.818,4.997 1.682,0.177 1.282,-5.853 8.215,-5.831 6.933,0.022 10.26,7.315 10.943,11.736 0.683,4.42 1.39,14.51 1.4,17.286 0.01,2.777 0.111,4.979 -3.23,5.088 -3.342,0.11 -4.157,-2.003 -4.53,-4.908 -0.374,-2.906 -0.788,-11.828 -0.689,-14.832 0.1,-3.004 -1.187,-7.562 -3.696,-7.538 -2.509,0.024 -5.002,0.396 -5.541,11.944 -0.54,11.548 -0.513,12.127 -0.47,13.054 0.043,0.927 -1.085,2.39 -3.604,2.182 -2.52,-0.208 -3.896,-1.53 -4.036,-4.543 -0.14,-3.013 -0.581,-20.264 -0.4,-24.075 z m 31.829,-21.833 c 2.363,-0.077 3.579,0.621 3.723,3.735 0.145,3.113 0.525,11.307 0.5,14.414 -0.025,3.107 2.85,0.711 4.51,-1.144 2.411,-2.693 14.642,-5.028 16.144,5.497 1.503,10.524 1.782,20.186 1.934,23.464 0.152,3.277 -0.788,4.879 -2.989,4.798 -2.2,-0.08 -4.116,-1.295 -4.114,-4.894 0,-3.599 -0.072,-8.836 -0.154,-14.238 -0.082,-5.401 -0.873,-7.884 -4.274,-8.335 -3.402,-0.452 -9.878,5.692 -9.884,16.489 -0.01,10.796 -1.345,11.075 -4.216,11.134 -2.87,0.059 -3.323,-2.412 -3.506,-6.345 -0.182,-3.933 -1.374,-33.259 -1.425,-38.005 -0.051,-4.746 0.373,-6.53 3.751,-6.57 z m 51.915,16.633 a 9.955,9.955 0 0 0 -0.647,-0.01 c -3.461,0.105 -10.52,-0.037 -14.58,0.046 -4.059,0.083 -4.187,5.052 1.31,5.022 13.752,0.155 13.816,1.545 13.902,3.399 0.054,1.159 -0.48,2.527 -9.933,2.297 -9.452,-0.229 -11.775,6.396 -11.62,12.3 0.154,5.906 3.325,9.84 10.987,10.119 7.662,0.28 7.87,-2.952 9.432,-2.78 1.562,0.173 3.493,3.136 6.002,3.112 2.509,-0.024 3.205,-0.462 2.24,-16.113 -0.905,-14.673 -3.874,-17.222 -7.093,-17.397 z m -7.508,16.376 c 4.168,0.13 6.026,1.676 6.217,5.804 0.204,4.403 -1.096,4.702 -5.989,4.87 -4.892,0.17 -5.974,-2.53 -6.348,-5.436 -0.1,-4.747 0.477,-5.188 5.255,-5.245 0.299,0 0.587,0 0.865,0.01 z m 17.776,-12.56 c -0.012,-4.93 0.492,-5.75 2.332,-5.788 1.84,-0.038 2.982,5.877 4.393,5.929 1.411,0.051 1.138,-5.832 5.895,-6.078 4.757,-0.246 5.621,6.708 7.58,6.884 1.959,0.176 0.457,-6.486 7.597,-6.75 7.14,-0.264 10.34,5.622 10.992,12.672 0.652,7.051 0.859,16.184 0.887,19.121 0.028,2.938 -1.393,2.676 -4.092,2.892 -2.7,0.216 -3.655,-1.706 -3.758,-3.912 -0.102,-2.207 -0.498,-17.744 -0.605,-20.055 -0.108,-2.311 -0.378,-3.475 -2.658,-3.558 -2.28,-0.083 -4.324,2.57 -4.367,8.65 -0.042,6.082 0.224,14.168 0.223,16.475 0,2.307 -1.714,2.77 -4.319,2.674 -2.605,-0.095 -3.537,-1.492 -3.625,-3.383 -0.087,-1.891 -0.055,-15.21 -0.384,-17.634 -0.33,-2.425 -1.383,-6.449 -3.771,-6.536 -2.388,-0.087 -3.303,3.55 -3.434,7.741 -0.13,4.19 -0.244,13.416 -0.24,15.828 0,2.413 -0.477,3.759 -3.294,3.76 -2.817,0 -3.576,-2.332 -3.876,-4.126 -0.3,-1.794 -1.232,-19.553 -1.476,-24.806 z"
     id="path808"
     inkscape:connector-curvature="0"
     style="fill:#e1e1e1" />
  <path
     d="m 2607.351,694.923 c -0.096,-4.408 4.468,-4.137 4.653,-0.144 0.185,3.992 0.464,17.007 0.581,19.529 0.117,2.521 0.526,4.319 1.502,4.355 0.977,0.036 1.546,-1.727 1.464,-5.82 -0.082,-4.094 2.939,-4.403 3.38,0.438 0.441,4.84 0.352,5.257 1.33,5.292 0.976,0.036 2.131,-0.761 1.912,-5.489 -0.22,-4.727 -0.555,-14.284 -0.706,-17.54 -0.15,-3.257 3.684,-4.69 4.115,-0.06 0.432,4.63 1.027,17.447 0.966,20.801 -0.061,3.354 -3.42,8.056 -4.826,8.11 -1.406,0.054 -2.672,-3.874 -4.404,-3.832 -1.732,0.042 -1.66,3.925 -3.83,3.846 -2.172,-0.08 -4.799,-5.315 -5.245,-10.26 -0.446,-4.946 -0.92,-15.137 -0.892,-19.226 z m 30.058,1.816 c -0.198,-0.01 -0.4,-0.01 -0.607,-0.01 -4.441,0.048 -8.33,2.633 -8.134,13.862 0.196,11.23 4.886,14.233 9.983,14.314 5.097,0.08 8.859,-2.928 8.05,-13.34 -0.782,-10.088 -3.138,-14.622 -9.291,-14.83 z m 0.913,5.083 c 3.127,0.203 4.284,3.3 4.476,9.708 0.2,6.615 -0.965,7.201 -4.43,7.285 -3.463,0.083 -4.588,-0.797 -5.083,-6.793 -0.495,-5.996 0.283,-10.268 4.728,-10.21 0.105,0 0.208,0 0.309,0.01 z m 20.16,-5.042 c -0.199,-0.01 -0.402,-0.01 -0.608,-0.01 -4.441,0.048 -8.33,2.632 -8.134,13.862 0.196,11.23 4.886,14.232 9.983,14.314 5.097,0.08 8.859,-2.928 8.05,-13.341 -0.782,-10.087 -3.138,-14.622 -9.291,-14.828 z m 0.912,5.082 c 3.127,0.204 4.284,3.3 4.476,9.709 0.199,6.614 -0.966,7.201 -4.43,7.285 -3.463,0.083 -4.588,-0.797 -5.083,-6.793 -0.495,-5.997 0.283,-10.268 4.728,-10.211 0.105,0 0.208,0 0.309,0.01 z m 48.015,-4.753 c -0.198,-0.01 -0.401,-0.01 -0.607,-0.01 -4.441,0.048 -8.33,2.633 -8.135,13.862 0.196,11.23 4.887,14.233 9.984,14.314 5.097,0.08 8.859,-2.928 8.05,-13.34 -0.783,-10.088 -3.138,-14.622 -9.291,-14.829 z m 0.912,5.083 c 3.128,0.203 4.285,3.3 4.477,9.708 0.199,6.615 -0.966,7.201 -4.43,7.285 -3.463,0.083 -4.588,-0.797 -5.083,-6.793 -0.495,-5.996 0.282,-10.268 4.728,-10.21 0.105,0 0.208,0 0.309,0.01 z m -38.005,-7.173 c 0.362,-3.867 3.915,-4.367 4.234,0.155 0.318,4.521 0.534,23.198 0.483,26.762 -0.051,3.564 -4.058,3.627 -4.381,-1 -0.323,-4.626 -0.293,-22.664 -0.336,-25.917 z m 6.603,4.507 c -0.096,-4.408 4.468,-4.119 4.654,-0.127 0.185,3.993 0.26,12.63 0.378,15.15 0.117,2.522 0.525,4.321 1.502,4.36 0.977,0.04 1.546,-1.72 1.464,-5.812 -0.082,-4.093 2.94,-4.391 3.38,0.45 0.442,4.842 0.353,5.258 1.33,5.297 0.977,0.04 2.132,-0.753 1.913,-5.48 -0.22,-4.728 -0.385,-10.637 -0.536,-13.893 -0.151,-3.257 3.684,-4.676 4.116,-0.044 0.431,4.63 0.857,13.8 0.796,17.154 -0.061,3.353 -3.42,8.041 -4.827,8.09 -1.406,0.047 -2.672,-3.884 -4.404,-3.849 -1.733,0.035 -1.66,3.918 -3.832,3.83 -2.172,-0.087 -4.799,-5.33 -5.245,-10.277 -0.446,-4.947 -0.716,-10.76 -0.69,-14.849 z m 42.825,-0.031 c 0.168,-2.801 0.668,-3.27 1.711,-3.27 1.988,0 1.854,4.767 3.788,4.766 1.933,0 1.113,-4.854 5.437,-4.624 4.325,0.23 4.158,1.447 4.232,3.034 0.074,1.586 -0.344,2.218 -2.941,2.34 -2.597,0.12 -7.23,6.07 -7.366,12.759 -0.135,6.689 0.286,9.367 -1.79,9.508 -2.075,0.14 -2.444,-1.385 -2.635,-3.911 -0.192,-2.527 -0.468,-18.084 -0.436,-20.602 z m 21.831,-5.538 c 0.247,-4.31 4.37,-3.583 4.62,0.169 0.248,3.752 0.091,5.186 0.22,6.342 0.127,1.157 0.59,1.533 1.342,1.705 0.752,0.171 1.47,1.205 1.55,2.935 0.08,1.73 -0.143,1.723 -1.183,1.757 -1.04,0.034 -1.927,0.145 -1.795,6.196 0.132,6.051 0.823,6.509 1.795,6.616 0.971,0.107 2.608,4.918 0.9,5 -1.706,0.081 -6.688,1.699 -7.123,-7.674 -0.435,-9.374 -0.448,-9.662 -1.715,-9.708 -1.266,-0.046 -1.953,-0.431 -1.898,-2.445 0.055,-2.013 1.136,-2.766 1.806,-2.741 0.67,0.024 1.768,-0.367 1.837,-2.092 0.069,-1.725 -0.316,-3.61 -0.356,-6.06 z m 11.144,0.293 c 0.016,-4.173 4.038,-3.619 4.094,-0.156 0.055,3.463 0.222,4.793 0.27,5.812 0.047,1.02 0.731,2.165 4.418,2.3 3.688,0.134 8.992,-0.69 9.922,9.828 0.807,9.11 0.731,10.247 0.778,11.257 0.075,1.622 -3.636,2.566 -3.917,-0.287 -0.335,-3.398 -0.572,-7.507 -0.702,-10.319 -0.13,-2.812 -1.637,-4.81 -5.96,-5.04 -4.325,-0.23 -4.428,2.358 -4.244,6.323 0.184,3.966 0.077,8.065 0.134,9.29 0.057,1.226 -3.67,2.674 -3.989,-1.009 -0.32,-3.682 -0.76,-24.872 -0.805,-27.999 z m 36.412,2.019 c 4.175,0.224 4.32,1.741 4.407,3.616 0.087,1.874 -1.247,1.97 -3.628,1.955 -2.38,-0.015 -4.609,0.048 -6.911,0.107 -2.303,0.06 -3.543,0.59 -3.534,2.39 0.01,1.8 0.29,3.034 4.61,3.192 4.322,0.158 9.477,3.873 9.898,8.135 0.42,4.262 -2.426,8.62 -6.805,8.821 -4.379,0.2 -8.472,0.123 -9.891,0 -1.419,-0.124 -2.822,-4.71 -0.444,-4.767 2.377,-0.057 7.598,0.277 9.085,0.26 1.486,-0.018 3.82,-5.835 -0.515,-6.281 -4.334,-0.446 -10.04,-1.59 -10.503,-8.373 -0.463,-6.783 1.526,-8.798 3.97,-8.997 2.446,-0.198 8.1,-0.136 10.261,-0.057 z"
     id="path812"
     inkscape:connector-curvature="0"
     style="fill:#e1e1e1" />
</svg>
