<?xml version="1.0" encoding="UTF-8" standalone="no"?>
<svg
   xmlns:dc="http://purl.org/dc/elements/1.1/"
   xmlns:cc="http://creativecommons.org/ns#"
   xmlns:rdf="http://www.w3.org/1999/02/22-rdf-syntax-ns#"
   xmlns:svg="http://www.w3.org/2000/svg"
   xmlns="http://www.w3.org/2000/svg"
   width="1184.391mm"
   height="545.00696mm"
   viewBox="0 0 1184.391 545.00695"
   version="1.1"
   id="svg4975">
  <metadata
     id="metadata4972">
    <rdf:RDF>
      <cc:Work
         rdf:about="">
        <dc:format>image/svg+xml</dc:format>
        <dc:type
           rdf:resource="http://purl.org/dc/dcmitype/StillImage" />
        <dc:title></dc:title>
      </cc:Work>
    </rdf:RDF>
  </metadata>
  <path
     id="path1196"
     d="m 18.42401,226.27801 c -6.20834,-0.40054 -8.41132,0 -8.81184,-8.01077 -0.40053,-8.01076 0.20026,-36.44898 0.40052,-41.05517 0.20029,-4.60619 -0.60078,-7.20969 6.40864,-7.61023 7.00942,-0.40054 9.81318,-0.40054 10.01344,2.20296 0.20027,2.6035 -8.01076,54.47321 -8.01076,54.47321 z"
     style="fill:#353535;fill-opacity:1;stroke:none;stroke-width:0.264583px;stroke-linecap:butt;stroke-linejoin:miter;stroke-opacity:1" />
  <path
     id="path1179"
     d="m 217.08385,0 c 42.76672,1.41612 68.82327,2.83224 81.99315,6.37253 13.16989,3.54029 14.16117,5.23963 14.16117,8.63831 0,3.39868 -0.84967,5.23963 -4.38996,4.8148 -3.54029,-0.42484 -75.33741,-2.97385 -75.33741,-2.97385 z"
     style="fill:#faf2e2;fill-opacity:1;stroke:none;stroke-width:0.264583px;stroke-linecap:butt;stroke-linejoin:miter;stroke-opacity:1" />
  <path
     id="path1175"
     d="m 1164.5643,378.28228 c 18.625,0.20029 19.8267,0 19.8267,4.0054 0,4.00536 -0.6009,12.81721 -0.8011,16.42205 -0.2003,3.60487 0.2002,4.20566 -7.8105,8.41131 -8.0108,4.20566 -10.6143,5.80782 -11.2151,-0.20026 -0.6008,-6.00808 0,-28.6385 0,-28.6385 z"
     style="fill:#f3c300;fill-opacity:1;stroke:none;stroke-width:0.264583px;stroke-linecap:butt;stroke-linejoin:miter;stroke-opacity:1" />
  <path
     id="path1171"
     d="m 1030.5013,420.30343 c -24.074,0 -30.0217,0.28324 -34.55327,0.56645 -4.53158,0.28324 -42.48352,-104.50941 -42.48352,-104.50941 0,0 58.62729,-27.47266 65.70779,-3.39868 7.0806,24.07399 11.329,107.34164 11.329,107.34164 z"
     style="fill:#161616;fill-opacity:1;stroke:none;stroke-width:0.264583px;stroke-linecap:butt;stroke-linejoin:miter;stroke-opacity:1" />
  <path
     id="path1173"
     d="m 979.94592,328.68069 c -22.09144,0 -27.89751,-0.42484 -31.01298,0.14161 -3.11544,0.56645 -4.38994,36.53581 1.98258,35.54453 6.37251,-0.99128 29.0304,-35.68614 29.0304,-35.68614 z"
     style="fill:#1b1b1b;fill-opacity:1;stroke:none;stroke-width:0.264583px;stroke-linecap:butt;stroke-linejoin:miter;stroke-opacity:1" />
  <path
     id="path1165"
     d="m 979.52108,460.52116 c -41.35062,-0.84969 -65.42461,-0.28324 -73.35486,-1.98258 -7.93025,-1.69934 -26.33977,-20.95852 -24.64043,-42.48348 1.69934,-21.52499 72.78841,-16.71019 72.78841,-16.71019 z"
     style="fill:#0c0c0c;fill-opacity:1;stroke:none;stroke-width:0.264583px;stroke-linecap:butt;stroke-linejoin:miter;stroke-opacity:1" />
  <path
     id="path1153"
     d="m 979.23784,460.80437 c 25.20686,-0.84966 34.27006,-42.76672 33.70356,-69.38971 -0.5664,-26.623 -12.4618,-61.74269 -32.28743,-62.59236 -19.82562,-0.84967 -33.13713,30.87134 -33.70358,58.344 -0.56644,27.47267 4.53158,74.20451 32.28745,73.63807 z"
     style="fill:#282828;fill-opacity:1;stroke:none;stroke-width:0.264583px;stroke-linecap:butt;stroke-linejoin:miter;stroke-opacity:1" />
  <path
     id="path1151"
     d="m 668.89818,399.91136 c 12.81724,48.06458 18.42477,60.88182 67.29042,59.27966 48.86569,-1.60216 58.47861,-28.83877 63.28506,-45.66137 4.80647,-16.82261 -130.57548,-13.61829 -130.57548,-13.61829 z"
     style="fill:#131313;fill-opacity:1;stroke:none;stroke-width:0.264583px;stroke-linecap:butt;stroke-linejoin:miter;stroke-opacity:1" />
  <path
     id="path1149"
     d="m 609.81879,433.55657 c -21.02826,0.60082 -29.63983,-0.20026 -34.44629,-1.2016 -4.80646,-1.00135 -64.2864,-103.13862 -64.2864,-103.13862 0,0 55.07402,-55.27429 76.30254,-16.82261 21.22854,38.45168 22.43015,121.16283 22.43015,121.16283 z"
     style="fill:#161616;fill-opacity:1;stroke:none;stroke-width:0.264583px;stroke-linecap:butt;stroke-linejoin:miter;stroke-opacity:1" />
  <path
     id="path1147"
     d="m 545.73266,480.8201 c -42.85759,0.80107 -49.00427,-0.28631 -57.0767,-6.00808 -9.66799,-6.85271 -26.52236,-36.5431 -23.83203,-45.4611 -1.00135,-7.8105 54.47321,3.80512 54.47321,3.80512 z"
     style="fill:#0c0c0c;fill-opacity:1;stroke:none;stroke-width:0.264583px;stroke-linecap:butt;stroke-linejoin:miter;stroke-opacity:1" />
  <path
     id="path1087"
     d="m 541.37457,324.85717 c -32.00424,1.41612 -37.6687,2.83224 -40.78416,6.51414 -3.11546,3.6819 25.77332,20.10885 25.77332,20.10885 z"
     style="fill:#1c1c1c;fill-opacity:1;stroke:none;stroke-width:0.264583px;stroke-linecap:butt;stroke-linejoin:miter;stroke-opacity:1" />
  <path
     id="path1085"
     d="m 540.5249,325.14039 c 29.73845,0.56645 45.31573,36.53582 46.44863,68.54006 1.13289,32.00424 -15.29406,86.38312 -40.21772,87.23278 -24.92365,0.84968 -51.54664,-36.25257 -54.94532,-65.14137 -3.39868,-28.88877 18.12629,-90.91469 48.71441,-90.63147 z"
     style="fill:#282828;fill-opacity:1;stroke:none;stroke-width:0.264583px;stroke-linecap:butt;stroke-linejoin:miter;stroke-opacity:1" />
  <path
     id="path1089"
     d="m 543.72997,358.45564 c 20.43629,0 26.6358,25.63446 27.03634,42.85759 0.40053,17.22316 -8.21104,48.66542 -27.63714,48.86568 -19.42611,0.20027 -25.23392,-25.63444 -24.43284,-51.26889 0.80108,-25.63445 15.40196,-40.45438 25.03364,-40.45438 z"
     style="fill:#756f69;fill-opacity:1;stroke:none;stroke-width:0.264583px;stroke-linecap:butt;stroke-linejoin:miter;stroke-opacity:1" />
  <path
     id="path1099"
     d="m 531.70699,364.57756 c -6.66598,6.60995 -12.51191,18.3752 -13.01057,34.33227 -0.52922,16.93474 1.82757,33.95459 9.08781,43.50017 0.84233,0.29147 1.65462,0.44919 2.40296,0.40982 5.38124,-0.28321 13.87799,-1.13305 23.6492,-6.93912 0,0 0.70818,-59.61854 -0.99115,-63.8669 -1.45429,-3.63572 -9.04329,-6.02339 -21.13825,-7.43624 z"
     style="fill:#c2c2ba;fill-opacity:1;stroke:none;stroke-width:0.264583px;stroke-linecap:butt;stroke-linejoin:miter;stroke-opacity:1" />
  <path
     id="path1083"
     d="m 211.21071,408.40806 c 9.6296,48.71442 24.92365,65.70781 56.64468,65.70781 31.72101,0 52.11309,-31.15458 55.51177,-56.07822 3.39868,-24.92365 -112.15645,-9.62959 -112.15645,-9.62959 z"
     style="fill:#131313;fill-opacity:1;stroke:none;stroke-width:0.264583px;stroke-linecap:butt;stroke-linejoin:miter;stroke-opacity:1" />
  <path
     id="path995"
     d="m 878.41035,423.70211 c -42.48351,0.84968 -93.18048,3.11547 -101.39397,3.39868 -8.21346,0.28324 -119.52026,-21.8082 -119.52026,-21.8082 l -75.90384,-96.29592 c 0,0 -68.25682,-8.21348 -71.93872,7.08058 -3.68191,15.29406 -32.00424,120.65313 -46.73185,121.21958 -14.72762,0.56644 -114.42223,1.13289 -120.0867,1.41613 -5.66447,0.28321 -1.69934,-54.6621 -1.69934,-54.6621 l -5.38124,-143.31102 3.39868,-176.73136 828.71149,55.51177 1.1329,147.84259 -284.92269,-2.83224 z"
     style="fill:#202020;fill-opacity:1;stroke:none;stroke-width:0.264583px;stroke-linecap:butt;stroke-linejoin:miter;stroke-opacity:1" />
  <path
     id="path1194"
     d="m 17.4114,251.50233 c -7.64704,-0.56645 -7.64704,-3.11546 -7.93025,-8.77993 -0.28324,-5.66446 1.69934,-22.37464 2.26578,-30.30489 0.56645,-7.93026 4.81478,-9.06315 4.81478,-1.98257 0,7.08059 -0.84965,21.8082 -1.4161,25.77333 -0.56645,3.96512 -0.28324,4.53157 1.69934,5.09802 1.98255,0.56644 0.56645,10.19604 0.56645,10.19604 z"
     style="fill:#222222;fill-opacity:1;stroke:none;stroke-width:0.264583px;stroke-linecap:butt;stroke-linejoin:miter;stroke-opacity:1" />
  <path
     id="path857"
     d="m 12.93425,270.28405 c 2.5346,-17.0181 11.04366,-162.93934 11.40576,-169.27587 0.36209,-6.33653 20.63899,0.54313 20.63899,0.54313 h 283.69549 l 6.15549,45.98511 -7.60384,129.6273 z"
     style="fill:#535353;fill-opacity:1;stroke:none;stroke-width:0.264583px;stroke-linecap:butt;stroke-linejoin:miter;stroke-opacity:1" />
  <path
     id="path852"
     d="m 28.53461,89.36593 c -2.03364,0.0559 -3.62791,1.40892 -3.96359,5.22707 -1.07413,12.21811 1.07405,11.27787 7.25022,11.27787 6.1762,0 117.34726,-0.53673 121.64373,-0.2682 4.29648,0.26853 4.83381,0.26862 4.83381,4.56509 0,4.29648 -2.95406,34.10323 -4.02817,47.2612 -1.07412,13.15797 -8.32432,103.38372 -8.72712,106.87461 -0.40279,3.49089 -0.93961,4.2968 -6.31021,4.16254 -5.3706,-0.13427 -118.28739,-2.01435 -122.04681,-2.01435 -3.75941,0 -4.29688,3.35689 -5.77381,7.78764 -1.42544,4.96497 279.02948,9.46557 279.02948,9.46557 l 41.77316,-8.54418 4.92424,-151.83517 -1.87947,-17.58859 -18.39422,-10.47275 -277.2575,0.13436 c 0,0 -6.59971,-6.15566 -11.07374,-6.03271 z m 178.09042,15.52515 c 29.40455,-0.0183 70.22979,0.10721 92.38351,0.44287 35.44594,0.53706 25.24192,17.72331 26.04751,33.02951 0.80559,15.3062 1.34259,85.92937 -0.80564,108.48588 -2.14824,22.55651 -28.59871,24.16752 -39.60844,24.16752 -11.00972,0 -123.65816,-2.28213 -128.22317,-2.41639 -4.56501,-0.13426 -4.83354,-0.26853 -4.43074,-4.43074 0.67132,-7.92164 11.14439,-143.52963 11.68145,-150.77994 0.53707,-7.25031 1.07411,-8.05551 8.86148,-8.32404 2.92026,-0.1007 16.45131,-0.16365 34.09404,-0.17467 z"
     style="fill:#303030;fill-opacity:1;stroke:none;stroke-width:0.264583px;stroke-linecap:butt;stroke-linejoin:miter;stroke-opacity:1" />
  <path
     id="path850"
     d="m 9.53065,282.22417 c 0.96597,-5.95681 1.44896,-7.08378 2.09293,-8.37174 0.64397,-1.28795 0.96597,-1.28795 5.63483,-1.28795 4.66884,0 125.09294,2.8979 136.68457,3.54188 11.59162,0.64398 131.37175,3.38089 145.2173,1.60995 13.84555,-1.77094 29.14006,-6.43979 31.71597,-28.81807 2.57592,-22.37827 5.63482,26.72514 5.63482,26.72514 L 311.0739,293.4938 c 0,0 -301.3954,23.13409 -301.54325,-11.26963 z"
     style="fill:#212121;fill-opacity:1;stroke:none;stroke-width:0.264583px;stroke-linecap:butt;stroke-linejoin:miter;stroke-opacity:1" />
  <path
     id="path7777"
     d="m 8.56468,330.52259 c -0.64397,7.08377 -0.32199,28.0131 0,30.75001 0.322,2.73691 68.42279,5.47382 68.42279,5.47382 L 75.8605,330.2006 c 0,0 -66.00785,-2.73691 -67.29582,0.32199 z"
     style="fill:#44444c;fill-opacity:1;stroke:none;stroke-width:0.264583px;stroke-linecap:butt;stroke-linejoin:miter;stroke-opacity:1" />
  <path
     id="path7766"
     d="m 212.70196,332.97313 -1.82145,40.29953 126.59064,2.73219 -0.91072,-40.07187 z"
     style="fill:#44444c;fill-opacity:1;stroke:none;stroke-width:0.264583px;stroke-linecap:butt;stroke-linejoin:miter;stroke-opacity:1" />
  <path
     id="path6633"
     d="m 10.22992,366.76993 c -2.13815,0 -3.74177,4.40996 -1.73726,4.81085 2.00454,0.4009 333.55238,11.75986 333.55238,11.75986 0,0 2.53906,-4.00905 -1.73725,-4.54359 -4.27632,-0.53453 -197.11128,-5.21176 -197.11128,-5.21176 0,0 -133.10023,-4.81084 -132.96659,-6.81536 z"
     style="fill:#1b1b1b;fill-opacity:1;stroke:none;stroke-width:0.264583px;stroke-linecap:butt;stroke-linejoin:miter;stroke-opacity:1" />
  <path
     id="path6642"
     d="m 3.96609,324.03275 c 0,3.30728 1.6e-4,5.4805 0.18913,7.0869 0.18899,1.6064 -0.47231,3.02366 4.81936,3.11816 5.29164,0.0945 5.66941,-0.47256 5.66941,-2.07895 0,-1.6064 0.0946,-2.07886 2.74039,-1.98437 2.64584,0.0945 47.53028,1.32314 51.31007,1.60662 3.77975,0.28348 4.725,0.3779 5.00845,3.21272 0.2835,2.83482 0.28356,24.19033 0.0946,26.2692 -0.18899,2.07887 -1.03952,2.17351 -3.40188,2.17351 -2.36236,0 -47.81436,-1.79539 -51.40513,-1.98437 -3.59079,-0.18899 -4.5357,-0.47262 -4.6302,-2.17351 -0.0945,-1.70091 -0.85014,-2.17315 -4.25194,-2.36214 -3.40177,-0.18899 -4.44119,0.0944 -4.63021,3.21273 -0.18896,3.11831 -1.22832,8.31548 2.07894,8.59895 3.30729,0.28348 45.35689,1.89003 51.87696,2.17353 6.5201,0.28345 117.64522,4.81896 125.20475,5.00795 7.55952,0.189 119.25127,3.30753 125.39337,3.59101 6.14212,0.28347 29.29323,0.66135 31.18311,0.56687 1.88989,-0.0945 2.45722,-7.55973 2.45722,-7.55973 l -0.66146,-39.68751 z m 213.8872,11.52591 c 0.16372,-0.004 0.33678,-0.004 0.51986,0.002 2.92932,0.0945 54.31456,1.65607 60.46246,2.07688 3.88699,0.26606 4.17132,0.66345 4.17132,1.89187 0,1.22842 0.4724,1.88801 3.21272,1.88801 2.74033,0 39.59323,0.0941 42.61704,0.18862 3.02381,0.0945 3.59056,1.0419 3.68505,3.49874 0.0945,2.45685 -0.3779,14.92977 -0.56689,17.48111 -0.18899,2.55134 -0.75581,3.21294 -3.77962,3.49642 -3.0238,0.28348 -37.04144,0.0944 -40.72671,-0.18913 -3.68526,-0.28348 -4.53593,0.56696 -4.91391,2.64584 -0.37798,2.07886 -0.47254,3.02411 -4.06332,3.02411 -3.59077,0 -57.45244,-1.89005 -60.94873,-2.17352 -3.49627,-0.28348 -3.96869,-1.22817 -3.87418,-4.34651 0.0945,-3.1183 1.03935,-23.62366 1.22835,-25.98601 0.17717,-2.2147 0.52066,-3.43274 2.97656,-3.49849 z"
     style="fill:#a0dbec;fill-opacity:1;stroke:none;stroke-width:0.264583px;stroke-linecap:butt;stroke-linejoin:miter;stroke-opacity:1" />
  <path
     id="path6645"
     d="m 100.76747,367.0372 c 1.00227,1.00227 1.00227,1.60361 9.42125,2.00451 8.419,0.40092 62.44085,2.43884 67.38533,2.17157 4.94449,-0.26727 5.27858,-1.00225 7.11606,-3.94222 1.75822,-2.81315 19.00954,-30.03441 21.01406,-32.17257 1.81248,-1.93331 5.31198,-2.73951 6.98242,-2.93997 1.67043,-0.20045 -5.87993,0.20046 -5.87993,0.20046 l -10.82442,13.56392 -13.43029,22.85155 c 0,0 0.46772,2.00451 -9.28762,1.53681 -9.75534,-0.46773 -68.28736,-1.73726 -72.49686,-3.27406 z"
     style="fill:#82b6b8;fill-opacity:1;stroke:none;stroke-width:0.264583px;stroke-linecap:butt;stroke-linejoin:miter;stroke-opacity:1" />
  <path
     id="path6638"
     d="m 4.88454,320.46548 c -0.86863,1.60362 -0.86863,2.60588 -0.86863,3.87541 0,1.26953 0.20045,2.13816 1.73726,2.27179 1.53678,0.13363 65.68149,2.07134 69.28961,2.33861 3.60815,0.26727 4.14269,0.26727 6.01355,3.74177 1.8709,3.47451 15.10074,27.12786 17.37254,31.1369 2.27179,4.00903 2.80633,4.00903 7.61718,4.5436 4.81085,0.53453 66.68374,2.53904 71.49459,2.4054 4.81086,-0.13364 5.61267,-1.73725 7.08265,-4.2763 1.46998,-2.53906 17.63978,-28.59784 19.91158,-31.00327 2.27179,-2.40542 2.93996,-3.20723 7.21627,-3.0736 4.27632,0.13364 69.89099,2.53906 84.32354,2.40543 14.43255,-0.13364 33.00779,-0.26727 35.54685,-0.26727 2.53906,0 9.08716,0 11.22532,-0.13364 2.13815,-0.13363 -1.87089,-7.08264 -1.87089,-7.08264 l -23.25245,-0.13363 c 0,0 -302.54911,-8.95353 -312.83897,-6.74856 z"
     style="fill:#a6dfee;fill-opacity:1;stroke:none;stroke-width:0.264583px;stroke-linecap:butt;stroke-linejoin:miter;stroke-opacity:1" />
  <path
     id="path873"
     d="m 1150.432,84.35229 c 0,0 3.2426,39.04182 7.8512,39.29786 4.6086,0.25603 3.9685,1.02425 4.2246,4.3527 0.256,3.32845 2.0482,125.45663 1.7921,130.83336 -0.256,5.37672 0.2564,5.8888 -4.8643,6.14484 -5.1207,0.25603 -270.62861,-6.65696 -275.49327,-6.65696 -4.86465,0 -5.37696,0.7684 -5.88904,6.40116 -0.51207,5.63276 -2.81612,146.70781 -3.07215,152.34058 -0.25604,5.63274 -0.51205,6.65695 3.32845,6.65695 3.84051,0 60.93595,-0.7682 65.28853,-1.02423 4.35258,-0.25601 4.09692,-1.79245 4.09692,-14.33814 0,-12.54565 -3e-5,-56.58333 14.59394,-79.88246 14.59396,-23.29914 34.82059,-19.20286 49.41452,-0.25631 14.594,18.94654 11.5218,76.5543 11.5218,82.95515 0,6.40088 0.2557,9.2175 4.8643,9.2175 4.6086,0 41.7338,-2.6e-4 51.9751,-0.2563 10.2414,-0.25601 54.6633,-6.40067 70.6655,-8.32094 16.0021,-1.92024 14.978,-3.58468 15.106,-6.78513 0.1281,-3.2004 0.1282,-24.45144 0.1282,-27.01179 0,-2.56034 0.8958,-2.94399 6.7846,-2.94399 5.8888,0 5.3771,-0.89628 5.5051,-3.45665 0.128,-2.56032 0.384,-76.93841 0.384,-91.53238 0,-14.59397 -1.2306,-105.39436 -1.5927,-116.25699 -0.3621,-10.86262 -2.625,-67.61936 -3.8923,-72.68858 -1.2673,-5.06923 -8.3281,-5.15986 -22.7211,-6.78925 z M 466.86238,252.43556 c -5.63277,0 -5.63274,0.76789 -5.63274,6.40065 0,5.63276 -2.20899,162.00099 -2.38486,173.30106 -0.18105,5.25026 -0.90513,5.25031 3.62096,5.25031 4.52609,0 31.68256,-1.08657 36.20865,-1.26762 4.5261,-0.18103 4.32373,-0.36378 4.7072,-5.25034 0.3836,-4.88815 -1.59102,-46.8326 9.05475,-80.11706 10.80886,-33.79439 33.55427,-47.06281 57.86365,-36.86855 15.87414,6.6569 26.62767,33.54002 30.72422,53.76673 4.09656,20.22674 3.07264,51.46334 2.56057,57.86419 -0.51207,6.40088 0.25567,8.19277 4.8643,8.19277 4.60861,0 161.30208,-6.1446 167.70293,-6.40064 6.40088,-0.25601 7.16883,-0.25585 7.42487,-6.91277 0.25604,-6.65689 4.60851,-155.28488 4.60851,-158.86936 0,-3.58448 -0.25609,-3.45691 -3.32848,-3.71295 -3.07242,-0.25603 -312.36178,-5.37642 -317.99453,-5.37642 z"
     style="fill:#86c1d6;fill-opacity:1;stroke:none;stroke-width:0.264583px;stroke-linecap:butt;stroke-linejoin:miter;stroke-opacity:1" />
  <path
     id="path871"
     d="m 327.32337,18.16395 c 34.69267,4.60862 540.74481,44.03793 567.11636,46.0862 26.37155,2.04828 242.72067,18.94656 254.49827,19.97069 11.7776,1.02414 13.3138,2.81638 13.8259,13.56983 0.512,10.75345 0.128,19.84267 0,22.53103 -0.128,2.68837 -0.6401,3.58449 -3.4565,3.45647 -2.8164,-0.12802 -46.8947,-3.21727 -67.3526,-4.84666 C 1071.4969,117.30211 787.49521,99.1886 765.9481,97.78422 744.59196,96.39229 362.28965,71.80624 352.75331,70.59283 c -6.65474,-0.84675 -6.51758,-0.27156 -8.05645,-0.36208 -1.53887,-0.0905 -2.17252,0.81469 -2.26305,1.44835 -0.0905,0.63365 -0.81469,-9.32375 -0.81469,-9.32375 z"
     style="fill:#88d0e6;fill-opacity:1;stroke:none;stroke-width:0.264583px;stroke-linecap:butt;stroke-linejoin:miter;stroke-opacity:1" />
  <path
     id="path1177"
     d="m 169.42694,14.99406 c 3.60485,-12.016144 21.62907,-15.22045 46.46245,-14.81991 24.83337,0.40053 32.04306,4.005379 33.24467,8.01076 1.20162,4.00539 2.40323,10.81454 -5.207,10.81454 -7.61022,0 -74.50012,-4.00539 -74.50012,-4.00539 z"
     style="fill:#fcf8ef;fill-opacity:1;stroke:none;stroke-width:0.264583px;stroke-linecap:butt;stroke-linejoin:miter;stroke-opacity:1" />
  <path
     id="path6631"
     d="m 203.94303,12.06471 c -3.9748,-0.007 -8.01109,0.005 -12.10366,0.0388 -65.48103,0.53454 -130.96196,9.08699 -144.59271,11.22515 -13.63075,2.13816 -15.23442,5.07806 -16.03624,10.95799 -0.80182,5.87993 -5.61239,51.04838 -6.1469,56.92831 -0.53454,5.87993 -1.06897,7.2162 3.74187,6.94893 4.81086,-0.26727 109.84766,-0.26717 135.23826,-0.26717 25.39061,0 130.96178,-2.13805 146.46341,-0.26717 15.50164,1.87089 21.11458,10.15643 22.18366,21.11448 1.06908,10.95805 -1.06908,99.69125 -1.33635,119.46919 -0.26727,19.77795 -1.33652,43.29784 -18.44177,48.10869 -17.10525,4.81085 -87.93171,4.5437 -122.67675,3.74189 -34.74504,-0.80181 -117.5985,-2.40554 -143.25637,-3.74189 -25.65786,-1.33635 -35.81434,-0.26718 -35.81434,-3.60805 0,-3.34087 -0.66797,-6.01377 -3.20704,-0.80202 -2.53905,5.21176 -2.53918,9.75522 -3.07372,23.5196 -0.30067,7.74217 -0.29631,10.73384 -0.42127,14.67161 -0.0616,1.94001 1.36708,1.68263 2.64427,1.71715 3.49629,0.0945 123.95335,3.91348 133.96972,4.19696 10.01637,0.28349 122.93682,2.8346 140.98519,3.02359 18.04836,0.18899 48.66443,0.0946 53.57812,0.18913 4.91369,0.0945 5.76399,0.28319 5.76399,2.26757 0,1.98437 -0.47254,46.4915 -0.75603,48.1924 -0.0127,0.0764 -0.0571,0.14891 -0.12764,0.2186 0.25294,0.1501 0.34464,0.3529 0.31678,0.63148 -0.0945,0.94493 -0.18914,4.25246 -0.18914,4.25246 l -3.21375,53.87319 c 2.87314,0.0668 4.74395,0.13348 5.61257,0.0667 0.86863,-0.0668 1.00237,-0.40068 1.06919,-1.87068 0.0668,-1.46998 -0.8221,-22.9651 -0.0661,-32.98145 0.75595,-10.01639 1.32292,-36.28565 1.32292,-44.22314 0,-7.9375 0.7558,-58.20847 1.13378,-74.27246 0.37797,-16.06399 0.75602,-27.78119 0.75602,-30.99398 0,-3.21279 -0.37797,-4.3465 -2.64583,-4.3465 -2.26786,0 -2.26756,-0.94531 -2.26756,-6.42596 v -92.41503 c 0,-13.22917 0.3779,-69.73661 0.56689,-74.08334 0.18899,-4.34672 -0.3779,-6.72901 2.07894,-6.918 2.45685,-0.18899 2.83445,-1.20834 2.83445,-6.12203 0,-4.91369 -0.7558,-29.29352 -1.13378,-35.53013 -0.37797,-6.2366 -3.96875,-8.6933 -21.16667,-10.3942 C 309.40636,16.5608 263.56495,12.16735 203.94303,12.0648 Z"
     style="fill:#99dff3;fill-opacity:1;stroke:none;stroke-width:0.264583px;stroke-linecap:butt;stroke-linejoin:miter;stroke-opacity:1" />
  <path
     id="path5444"
     d="m 336.43238,380.93521 c 6.41447,0.26728 5.61266,1.06907 5.87993,5.3454 0.26727,4.2763 -1.60362,40.35769 -1.87089,46.50489 -0.26727,6.14719 -1.06908,7.21627 -8.81989,4.54358 -7.75082,-2.67269 -34.47777,-14.69983 -106.106,-17.6398 -71.62824,-2.93994 -179.60512,-7.75081 -194.30495,-6.68173 -14.69982,1.06907 -13.63075,3.74179 -14.16529,6.41448 -0.53453,2.67268 -11.49257,-2.93997 -14.96708,-12.82894 -3.47451,-9.88898 -1.60361,-24.32153 -1.33636,-29.66693 0.26729,-5.34538 1.60362,-7.21627 5.87994,-7.21627 4.27631,0 110.38231,5.07812 140.04922,6.14719 29.66692,1.06908 129.09118,4.00905 150.20548,4.81087 21.11429,0.80179 32.07234,0.26726 39.55589,0.26726 z"
     style="fill:#ffe428;fill-opacity:1;stroke:none;stroke-width:0.264583px;stroke-linecap:butt;stroke-linejoin:miter;stroke-opacity:1" />
  <path
     id="path5448"
     d="m 161.90538,386.28061 c 2.93996,0.13361 2.93996,0.20045 3.00678,3.27403 0.0668,3.07361 -0.20045,12.82896 -0.46772,15.3012 -0.26727,2.47224 -0.66817,2.53905 -4.14268,2.40541 -3.4745,-0.13362 -37.41773,-1.60362 -40.69178,-1.93771 -3.27406,-0.33406 -3.14042,-1.60361 -3.14042,-4.2763 0,-2.67269 0.4009,-11.49258 0.66817,-13.69757 0.26727,-2.20495 1.26953,-2.60588 4.27632,-2.47224 3.00678,0.13364 36.48228,1.20273 40.49133,1.40318 z"
     style="fill:#e3e3e3;fill-opacity:1;stroke:#06436b;stroke-width:0.965;stroke-linecap:butt;stroke-linejoin:miter;stroke-miterlimit:4;stroke-dasharray:none;stroke-opacity:1" />
  <path
     id="path7751"
     d="m 5.29883,295.44947 c -0.14386,2.70252 -0.25713,5.93097 -0.41445,9.98183 -0.18788,4.83738 -0.25495,7.76465 -0.31057,10.28257 0.27202,0.11168 0.55521,0.19394 0.85162,0.23875 6.92277,1.04647 58.76298,2.73702 67.69819,2.89801 8.93522,0.161 12.87974,0.0801 15.29467,0.0801 2.41493,0 1.69034,0.72455 1.69034,2.17351 0,1.44895 -0.16084,22.61973 -0.24133,25.03465 -0.0805,2.41492 3e-5,3.54213 2.81739,3.70313 2.81743,0.16099 99.09215,2.34047 103.6805,2.25997 3.21989,0.0805 3.30006,-0.16079 3.30006,-2.33422 0,-2.17343 0.40268,-24.39714 0.48317,-26.16807 0.0805,-1.77096 -0.40252,-2.17339 2.0929,-2.0929 2.49542,0.0805 26.96698,1.28789 41.537,1.36839 14.57003,0.0805 53.45007,0.4028 65.52468,0.56379 11.4111,0.15215 31.49975,0.1608 36.52904,0.29714 0.10632,-6.93664 0.21453,-13.88722 0.32504,-20.24062 -0.10136,-0.009 -0.20323,-0.0172 -0.30851,-0.0202 -8.53272,-0.24149 -38.4774,-0.24128 -49.18356,-0.56327 -10.70615,-0.32199 -84.03943,-1.20763 -93.29663,-1.52962 -9.2572,-0.32199 -118.00913,-1.77098 -136.92601,-2.49546 -18.91689,-0.72448 -31.79633,-0.32171 -47.57383,-1.93166 -6.65515,-0.6791 -10.80106,-1.16289 -13.56971,-1.50585 z"
     style="fill:#36648a;fill-opacity:1;stroke:none;stroke-width:0.264583px;stroke-linecap:butt;stroke-linejoin:miter;stroke-opacity:1" />
  <path
     id="rect7569"
     d="m 119.43337,319.57236 -0.5761,0.78937 c -0.31673,0.43415 -2.02149,2.62548 -3.78848,4.86961 -1.76699,2.24413 -3.5623,4.53957 -3.98941,5.10097 -0.4271,0.56141 -0.77846,0.92495 -0.78087,0.80779 -0.004,-0.20737 0.66921,-2.01442 2.67986,-7.19185 1.16362,-2.99635 1.27312,-3.5466 0.82087,-4.12206 -0.3188,-0.40565 -0.38559,-0.41135 -6.10087,-0.50819 l -5.77874,-0.098 -0.74383,1.65973 c -0.40917,0.91292 -0.74383,1.73446 -0.74383,1.82564 0,0.0914 2.14431,0.22063 4.77947,0.28787 3.8842,0.0991 4.77946,0.16912 4.77946,0.37434 0,0.13888 -0.23897,0.85887 -0.53105,1.59975 -0.29208,0.74089 -0.53105,1.37901 -0.53105,1.41795 0,0.0389 -0.26459,0.77471 -0.58795,1.63525 -0.54651,1.4544 -0.78357,2.09517 -1.68739,4.56369 -0.18873,0.51546 -0.57328,1.55464 -0.85466,2.30946 -0.28139,0.75482 -0.5115,1.40615 -0.5115,1.44727 0,0.0411 -0.27311,0.76458 -0.60691,1.6078 -0.33381,0.84322 -0.60692,1.60545 -0.60692,1.69352 0,0.0881 0.59743,0.16498 1.32763,0.17097 l 1.32763,0.011 1.44409,-1.87945 c 2.84065,-3.69682 6.4726,-8.39297 8.04846,-10.40636 0.8815,-1.12625 1.96631,-2.5274 2.41077,-3.11373 l 0.80814,-1.06612 11.46888,0.24425 11.46917,0.24426 0.70323,-1.68478 c 0.38684,-0.92663 0.67448,-1.74937 0.63922,-1.82831 -0.0353,-0.0789 -5.51422,-0.2826 -12.17567,-0.45259 z m 28.04676,0.71569 -0.43414,1.17137 c -0.23883,0.64425 -0.62919,1.69849 -0.86741,2.34276 l -0.43296,1.1714 -1.75615,-0.0419 c -0.96589,-0.0231 -1.83209,0.0187 -1.92476,0.0928 -0.0927,0.0741 -0.28679,0.41963 -0.43148,0.76793 -0.35856,0.8631 -0.20095,0.9565 1.70013,1.00855 0.85538,0.0233 1.55523,0.10908 1.55523,0.19008 0,0.22692 -1.30099,3.87447 -2.05901,5.77287 -0.95782,2.39876 -2.09152,3.74317 -3.64387,4.32198 -0.73011,0.27223 -1.10796,0.20352 -1.3297,-0.24123 -0.1246,-0.24989 0.0359,-1.05271 0.70441,-3.52272 1.20122,-4.43833 1.17043,-5.7499 -0.14551,-6.19531 -0.5996,-0.20295 -1.68451,0.18305 -2.5542,0.9085 -0.79933,0.66676 -0.96059,0.60027 -0.70916,-0.29265 0.0842,-0.29896 0.11313,-0.59434 0.0643,-0.65646 -0.12846,-0.16346 -2.20818,-0.18708 -2.39951,-0.0272 -0.0888,0.0742 -0.48407,1.16163 -0.87837,2.41639 -0.3943,1.25476 -0.9773,2.77234 -1.29533,3.3724 -1.04601,1.97363 -2.70617,3.45071 -4.85059,4.31595 -0.94904,0.38292 -3.00843,0.40564 -3.82997,0.0423 -0.68644,-0.30358 -1.30467,-1.05964 -1.51225,-1.84921 -0.31504,-1.19831 -0.31385,-1.19859 2.95397,-1.1152 l 2.95309,0.0754 0.29634,-0.51271 c 0.79187,-1.36961 1.03662,-3.63693 0.55061,-5.10004 -0.89867,-2.70547 -3.68136,-3.36129 -6.74364,-1.5888 -1.13939,0.65949 -2.68628,2.60349 -3.2524,4.08735 l -0.44511,1.16666 -0.87926,-0.0224 c -0.86852,-0.0222 -0.88312,-0.0133 -1.17945,0.70339 -0.16502,0.39913 -0.25743,0.77989 -0.20537,0.84613 0.0521,0.0662 0.52231,0.1312 1.04521,0.14454 1.02839,0.0262 0.98506,-0.0222 1.20672,1.34885 0.12882,0.7968 0.2937,1.18745 0.95246,2.25655 1.13745,1.84594 3.57667,2.61059 6.34447,1.98915 2.01687,-0.45284 3.4907,-1.19236 4.87666,-2.44739 l 0.80162,-0.72596 -0.10283,0.52837 c -0.0565,0.29071 -0.22943,0.93307 -0.38436,1.42723 -0.15494,0.49416 -0.28153,0.98047 -0.28153,1.08067 0,0.10391 0.61459,0.19785 1.43046,0.21867 l 1.43046,0.0365 0.2996,-0.98562 c 0.28009,-0.92091 1.13464,-3.7828 1.63969,-5.49201 0.32331,-1.09417 1.1549,-2.40855 1.73688,-2.74515 0.27825,-0.16094 0.55992,-0.24976 0.62588,-0.19724 0.18978,0.15109 0.13983,0.99043 -0.0919,1.54334 -0.40231,0.96008 -1.18293,4.06845 -1.26243,5.02681 -0.0918,1.1068 0.16272,1.89904 0.82621,2.57074 0.6197,0.62736 2.48001,0.53252 3.75856,-0.19157 1.03959,-0.58876 2.33694,-1.72202 2.61851,-2.28737 0.31638,-0.63525 0.45182,-0.4355 0.52157,0.7686 0.0538,0.9294 0.14392,1.24367 0.47771,1.66762 0.39031,0.49574 0.48279,0.52331 1.81067,0.53951 1.28769,0.0157 1.48549,-0.0348 2.4819,-0.63321 0.59551,-0.35765 1.37495,-0.98935 1.73184,-1.40357 0.35689,-0.41422 0.67104,-0.75257 0.69819,-0.75188 0.0272,6.9e-4 0.0922,0.33654 0.14462,0.74642 0.1278,0.9998 0.57546,1.88542 1.08433,2.14536 0.62555,0.31954 2.13909,0.1411 2.88018,-0.33963 0.35321,-0.22911 0.99047,-0.83278 1.41624,-1.34178 0.80213,-0.95892 1.044,-0.95446 1.04966,0.0198 0.006,1.07019 1.16241,1.99437 2.53909,2.0295 3.07174,0.0784 5.91297,-2.79262 7.62912,-7.70925 0.35001,-1.00273 0.77377,-1.96869 0.94179,-2.1465 0.31972,-0.33835 1.03069,-0.4295 1.03069,-0.13222 0,0.0948 -0.22718,0.83398 -0.50467,1.64255 -0.73414,2.13911 -1.0383,3.67917 -1.05262,5.33184 -0.0105,1.20763 0.0439,1.56073 0.31412,2.04072 1.18021,2.0968 4.18716,1.43927 6.74602,-1.47515 0.62756,-0.71477 1.18224,-1.29861 1.2328,-1.29732 0.0506,10e-4 0.0926,0.23648 0.0933,0.52266 0.002,0.80931 0.83567,2.46223 1.54604,3.06615 0.55045,0.46796 0.76847,0.53697 1.70399,0.53863 1.33228,0.002 2.25033,-0.44527 3.24914,-1.58471 l 0.73197,-0.83528 0.29071,0.69324 c 0.15991,0.38137 0.55324,0.96469 0.87393,1.29602 0.5622,0.58087 0.6355,0.60375 2.04834,0.6398 1.34402,0.0343 1.53325,-0.008 2.28661,-0.50886 2.01183,-1.33787 3.51614,-4.09901 2.89737,-5.3184 -0.11814,-0.23282 -0.36,-0.0199 -1.27073,1.11935 -1.58194,1.97884 -3.03153,2.68943 -3.76359,1.84466 -0.4066,-0.46919 -0.3544,-0.92104 0.45963,-3.98088 1.00812,-3.78945 1.38719,-5.32588 1.38719,-5.62336 0,-0.18965 -0.30943,-0.25913 -1.25176,-0.28099 -1.35448,-0.0314 -1.49181,0.0204 -1.76948,0.67059 l -0.18403,0.4306 -0.50853,-0.56984 c -1.11608,-1.25035 -2.83265,-1.36875 -4.49527,-0.30981 -1.2341,0.78601 -2.22381,1.97265 -6.66749,7.99467 -0.86636,1.17408 -1.48308,1.61167 -2.24363,1.59226 -1.19098,-0.0304 -1.14527,-0.86428 0.22611,-4.13723 0.45731,-1.09144 0.93277,-2.47006 1.05677,-3.06366 0.20573,-0.9849 0.20291,-1.13955 -0.0335,-1.76677 -0.34859,-0.92487 -0.75911,-1.08936 -2.44129,-0.97832 -0.77713,0.0513 -1.41269,0.0542 -1.41269,0.006 0,-0.0477 0.10832,-0.4808 0.24093,-0.96273 0.22569,-0.82014 0.22327,-0.92207 -0.0379,-1.59283 -1.04394,-2.6809 -3.95774,-0.36232 -3.40471,2.70924 0.15517,0.86187 0.41149,1.45302 0.7293,1.6829 0.23272,0.16833 0.21691,0.2972 -0.17958,1.46979 -1.24046,3.66856 -3.18501,6.03937 -4.91697,5.99517 -0.67424,-0.0172 -0.92786,-0.29345 -0.92786,-1.00954 0,-0.46347 1.2745,-4.44651 2.36632,-7.39495 0.20061,-0.54175 0.3648,-1.07535 0.3648,-1.18607 0,-0.12791 -0.5164,-0.21457 -1.41594,-0.23752 -1.31657,-0.0336 -1.42784,-0.007 -1.58634,0.3852 -0.37492,0.92676 -1.85305,4.87657 -1.85305,4.95152 0,0.23509 -1.17021,2.30792 -1.64679,2.91705 -1.0446,1.33511 -2.19288,1.88114 -2.67245,1.27093 -0.20528,-0.2612 -0.23817,-0.51016 -0.15677,-1.18497 0.14139,-1.17202 0.33627,-1.75452 2.425,-7.2475 0.19543,-0.51394 0.32325,-1.00021 0.2839,-1.08061 -0.0393,-0.0804 -0.71448,-0.16271 -1.5001,-0.18276 l -1.42839,-0.0365 -1.43905,3.52208 c -1.56973,3.84202 -2.2102,4.90755 -3.42784,5.70283 -0.88954,0.581 -1.89834,0.69603 -2.12539,0.24249 -0.36035,-0.71982 -0.18495,-1.49184 1.87972,-8.27352 l 0.48571,-1.59573 1.74044,-0.002 c 2.27993,-0.003 2.34096,-0.0244 2.63363,-0.92901 0.13454,-0.41584 0.24478,-0.79667 0.24478,-0.84659 0,-0.0499 -0.84951,-0.11258 -1.88772,-0.13907 -1.03821,-0.0265 -1.91816,-0.1128 -1.95529,-0.19179 -0.0371,-0.079 0.25756,-1.08938 0.65492,-2.24546 0.39736,-1.15608 0.68567,-2.14907 0.64041,-2.20666 -0.0453,-0.0576 -0.64866,-0.11928 -1.34067,-0.13694 z m -23.54023,7.88707 c 0.23219,0.0121 0.44348,0.0855 0.61699,0.22674 0.36303,0.29544 0.22881,1.65937 -0.29279,2.97636 l -0.46378,1.17062 -1.6702,-0.0426 c -0.91861,-0.0234 -1.66991,-0.0826 -1.66991,-0.13167 0,-0.36877 0.82292,-2.21114 1.26599,-2.83402 0.63081,-0.88682 1.51713,-1.4017 2.2137,-1.36541 z m 57.90864,1.69274 c 0.5967,0.0152 0.70731,0.0879 0.9738,0.63973 0.34277,0.70974 0.4083,2.40846 0.13631,3.53345 -0.22498,0.93061 -1.15773,2.58596 -1.81867,3.2275 -0.67952,0.65957 -1.45646,0.81436 -1.92358,0.38362 -0.79234,-0.73064 -0.9802,-2.01393 -0.55802,-3.81397 0.51427,-2.19267 1.9677,-4.00152 3.19016,-3.97033 z"
     style="vector-effect:none;fill:#fed402;fill-opacity:1;stroke:none;stroke-width:0.617945;stroke-linecap:round;stroke-linejoin:round;stroke-miterlimit:4;stroke-dasharray:none;stroke-dashoffset:0;stroke-opacity:1;paint-order:fill markers stroke" />
  <path
     id="path7596"
     d="m 172.56536,320.74794 c 0.43361,0.0228 0.49029,-0.0815 0.62229,-0.40736 0.132,-0.32581 0.0754,-0.44482 -0.22629,-0.45252 -0.30172,-0.008 -0.47143,0.0115 -0.56572,0.24421 -0.0943,0.23272 -0.26431,0.59284 0.16972,0.61567 z"
     style="fill:#fed402;fill-opacity:1;stroke:none;stroke-width:0.169428px;stroke-linecap:butt;stroke-linejoin:miter;stroke-opacity:1" />
  <path
     id="path7592"
     d="m 171.22649,319.89081 c 0.66,0.0168 0.71657,0.0888 0.69772,0.48807 -0.0189,0.39925 -0.18858,0.536 -0.67887,0.49997 -0.49029,-0.036 -0.96172,0.0225 -0.67886,0.57051 0.28286,0.54803 0.67886,0.98137 0.528,1.4713 -0.15085,0.48993 -0.264,1.40406 -1.58401,1.2293 -1.32001,-0.17476 -1.16916,-1.13496 -0.56572,-1.04902 0.60343,0.0859 1.1503,0.17043 1.22573,-0.15683 0.0754,-0.32726 -0.20744,-0.59313 -0.50915,-1.02406 -0.30172,-0.43094 -0.45258,-2.10424 1.56516,-2.02924 z"
     style="fill:#fed402;fill-opacity:1;stroke:none;stroke-width:0.169428px;stroke-linecap:butt;stroke-linejoin:miter;stroke-opacity:1" />
  <path
     id="path7594"
     d="m 172.32021,321.21196 c 0.43372,0.0816 0.35829,0.24427 0.16972,0.73324 -0.18858,0.48897 -0.54687,1.37333 -0.69772,1.72218 -0.15086,0.34885 -0.24515,0.41698 -0.56572,0.4088 -0.32058,-0.008 -0.28286,-0.1483 -0.11315,-0.70828 0.16972,-0.55999 0.47144,-1.30472 0.66001,-1.69963 0.18857,-0.39492 0.24514,-0.4405 0.54686,-0.45631 z"
     style="fill:#fed402;fill-opacity:1;stroke:none;stroke-width:0.169428px;stroke-linecap:butt;stroke-linejoin:miter;stroke-opacity:1" />
  <path
     id="path7598"
     d="m 172.95478,321.62122 c 0.23568,-0.58646 0.65348,-0.66501 1.28019,-0.64902 0.6267,0.016 0.93853,0.43961 0.80574,1.08465 -0.1328,0.64505 -0.39598,1.13712 -0.56386,1.53187 -0.16788,0.39475 -0.19815,0.57687 -0.42483,0.57109 -0.22668,-0.006 -0.35707,-0.15875 -0.25783,-0.4555 0.0992,-0.29674 0.32373,-0.85631 0.408,-1.0703 0.0843,-0.214 0.11716,-0.52906 -0.17488,-0.60302 -0.29204,-0.074 -0.5643,0.20175 -0.83174,0.90986 -0.26745,0.70811 -0.23695,1.19106 -0.69031,1.17949 -0.45336,-0.0116 -0.41041,-0.16011 -0.21193,-0.7536 0.19848,-0.59349 0.43404,-1.17964 0.66145,-1.74552 z"
     style="fill:#fed402;fill-opacity:1;stroke:none;stroke-width:0.169428px;stroke-linecap:butt;stroke-linejoin:miter;stroke-opacity:1" />
  <path
     id="path7600"
     d="m 176.74365,321.10272 c 0.82816,0.10015 0.70671,0.53346 0.60004,0.7635 -0.10667,0.23005 -0.41824,0.0592 -0.69338,-10e-4 -0.38669,-0.0847 -0.76004,0.14687 -0.86672,0.77595 -0.10667,0.62909 0.0533,0.9657 0.36003,1.05665 0.30668,0.091 0.64004,0.46525 0.0267,0.53273 -0.61337,0.0675 -1.30294,-0.52836 -1.06673,-1.50697 0.28681,-1.18827 0.88449,-1.71217 1.6401,-1.6208 z"
     style="fill:#fed402;fill-opacity:1;stroke:none;stroke-width:0.169428px;stroke-linecap:butt;stroke-linejoin:miter;stroke-opacity:1" />
  <path
     id="path7602"
     d="m 178.29843,321.23334 c -0.30286,0.0749 -0.35472,0.13998 -0.68141,0.53172 -0.37336,0.4477 -0.73996,1.33619 -0.61995,1.95443 0.12,0.61824 1.34678,0.52507 1.6868,0.36748 0.34002,-0.15759 -0.0602,-0.3426 -0.72694,-0.34298 -0.66671,-3.9e-4 -0.29988,-0.72267 -0.0599,-0.76643 0.24001,-0.0438 0.82669,0.067 1.11337,0.0868 0.27714,0.0191 0.31992,-0.0168 0.44659,-0.4542 0.12668,-0.43737 0.002,-1.25855 -0.66649,-1.39922 -0.14201,-0.0299 -0.26859,-0.0328 -0.49211,0.0224 z m -0.0857,0.90053 c 0.23429,-0.19992 0.44796,-0.17334 0.59783,-0.002 0.29601,0.33916 0.25807,0.47566 -0.45354,0.40811 -0.47757,-0.0453 -0.37315,-0.21119 -0.14429,-0.40648 z"
     style="fill:#fed402;fill-opacity:1;stroke:none;stroke-width:0.169428px;stroke-linecap:butt;stroke-linejoin:miter;stroke-opacity:1" />
  <path
     id="path7627"
     d="m 182.68232,320.3007 c 0.35829,0.0679 0.36771,0.0211 0.198,0.80451 -0.16972,0.78336 -0.90515,2.61039 -1.09373,2.97004 -0.18857,0.35964 -0.16028,0.38387 -0.462,0.37617 -0.30172,-0.008 -0.33943,-0.20852 -0.18857,-0.53386 0.15086,-0.32533 0.61286,-1.3834 0.75429,-1.74425 0.14143,-0.36084 -0.0189,-0.42372 -0.264,-0.45349 -0.24515,-0.0298 -0.33943,-0.16149 -0.10372,-0.51994 0.23572,-0.35844 0.72601,-0.93376 1.15973,-0.89918 z"
     style="fill:#fed402;fill-opacity:1;stroke:none;stroke-width:0.169428px;stroke-linecap:butt;stroke-linejoin:miter;stroke-opacity:1" />
  <path
     id="path7629"
     d="m 184.56811,320.25468 c -0.64124,-0.0356 -1.00896,0.52698 -1.19754,1.08649 -0.18857,0.5595 -0.42436,1.42323 0.0376,1.4938 0.46201,0.0706 0.58376,0.20512 0.43385,0.66954 -0.13103,0.40593 -0.41132,0.30612 -0.94876,0.28065 -0.53743,-0.0255 -0.64474,0.64276 0.37355,0.66874 1.0183,0.026 2.08391,-1.67516 2.18763,-2.58953 0.10371,-0.91438 0.0376,-1.55835 -0.88637,-1.60969 z m -0.16121,1.02794 c 0.29695,0.0138 0.36499,0.49747 0.31205,0.75143 -0.0636,0.30486 -0.11674,0.57009 -0.57521,0.47899 -0.22452,-0.0446 -0.28287,-0.23053 -0.20744,-0.69887 0.066,-0.4098 0.26915,-0.54092 0.4706,-0.53155 z"
     style="fill:#fed402;fill-opacity:1;stroke:none;stroke-width:0.169428px;stroke-linecap:butt;stroke-linejoin:miter;stroke-opacity:1" />
  <path
     id="path7634"
     d="m 187.02428,320.32851 c 1.0138,0.061 1.13341,1.12627 0.74672,1.86459 -0.3867,0.73832 -1.24008,1.34835 -1.50676,1.52443 -0.26669,0.17609 -0.36003,0.33997 0.28001,0.40618 0.64004,0.0662 0.73338,0.43438 0.20002,0.48727 -0.53337,0.0529 -1.22675,0.0186 -1.68011,-0.0928 -0.45336,-0.11132 -0.21334,-0.77026 0.37336,-1.10444 0.5867,-0.33418 1.33341,-0.88043 1.58676,-1.37276 0.25335,-0.49232 0.0533,-0.92971 -0.5467,-0.79539 -0.60003,0.13433 -0.73338,-0.2016 -0.52003,-0.47881 0.21335,-0.2772 0.6402,-0.46398 1.06673,-0.43832 z"
     style="fill:#fed402;fill-opacity:1;stroke:none;stroke-width:0.169428px;stroke-linecap:butt;stroke-linejoin:miter;stroke-opacity:1" />
  <path
     id="path7636"
     d="m 190.00102,320.62722 c -0.16236,0.009 -0.39002,0.13931 -0.67004,0.42521 -0.36002,0.35659 -1.23995,1.34818 -1.55997,1.85544 -0.32002,0.50725 -0.18664,0.81001 0.32006,0.83957 0.5067,0.0296 0.48007,0.11206 0.38673,0.42558 -0.0933,0.31352 0.0667,0.48391 0.29338,0.4897 0.22668,0.006 0.27977,-0.10929 0.43978,-0.42111 0.16001,-0.31182 0.28006,-0.42519 0.44007,-0.4211 0.16001,0.004 0.21338,-0.0112 0.28005,-0.24228 0.0667,-0.23107 0.0133,-0.53176 -0.12002,-0.53517 -0.13334,-0.003 -0.18669,-0.10418 -0.13336,-0.26908 0.0533,-0.1649 0.29341,-0.5247 0.53342,-1.33327 0.15001,-0.50536 0.0605,-0.82834 -0.2101,-0.81349 z m -0.92223,1.7457 c 0.0811,0.0129 0.0755,0.18195 -0.0145,0.38541 -0.16001,0.36169 -0.21309,0.32675 -0.3331,0.32369 -0.12,-0.003 -0.21334,-0.0716 0,-0.39871 0.16918,-0.23572 0.28452,-0.32038 0.34762,-0.31039 z"
     style="fill:#fed402;fill-opacity:1;stroke:none;stroke-width:0.169428px;stroke-linecap:butt;stroke-linejoin:miter;stroke-opacity:1" />
  <path
     id="path7759"
     d="m 231.88705,340.26224 c -1.67114,-0.01 -3.27589,0.0252 -4.72736,0.11059 -3.87057,0.22768 -5.57843,0.91069 -6.37532,9.67641 -0.79688,8.76572 -0.11336,11.83956 4.66794,12.63644 4.78129,0.79692 10.59815,1.16277 15.428,0.84078 4.82983,-0.32199 6.4394,-3.542 6.4394,-12.07472 0,-8.53273 -1.28776,-10.46443 -6.92258,-10.78642 -2.75487,-0.24407 -5.72484,-0.38635 -8.51008,-0.40308 z m 32.3665,1.14464 c -1.83167,-0.0113 -3.53944,0.0473 -4.9909,0.21807 -3.87058,0.45536 -5.46433,2.39071 -5.80585,9.22114 -0.34153,6.83043 -0.22742,12.5225 4.44004,13.09171 4.66746,0.5692 12.0668,1.13852 16.05121,0.68316 3.98442,-0.45536 5.23674,-2.73253 5.35058,-10.92905 0.11384,-8.1965 -0.11376,-11.61139 -5.46426,-11.83906 -3.13062,-0.21345 -6.52802,-0.42707 -9.58082,-0.44597 z"
     style="fill:#e4e4e4;fill-opacity:1;stroke:none;stroke-width:0.264583px;stroke-linecap:butt;stroke-linejoin:miter;stroke-opacity:1" />
  <path
     id="path7764"
     d="m 323.81029,343.21878 c 3.64438,0.0461 3.98442,0.68304 4.2121,3.87057 0.22768,3.18754 0,10.24565 -0.34152,13.31934 -0.34152,3.07369 -0.79689,3.75674 -3.30138,3.98442 -2.50449,0.22768 -26.18331,0.22768 -30.85077,-0.22768 -4.66747,-0.45536 -5.46435,-0.45536 -5.69203,-3.98442 -0.22768,-3.52905 -0.22768,-10.81485 0.22768,-13.43318 0.45536,-2.61833 0.45536,-3.87058 3.75674,-3.87058 3.30137,0 26.63911,0.27381 31.98918,0.34153 z"
     style="fill:#ce7f35;fill-opacity:1;stroke:none;stroke-width:0.264583px;stroke-linecap:butt;stroke-linejoin:miter;stroke-opacity:1" />
  <path
     id="path7768"
     d="m 30.65697,335.36384 c -2.40488,0 -4.65347,0.0566 -6.58876,0.22737 -3.87059,0.34152 -4.78153,3.07404 -5.23687,9.79062 -0.45538,6.71659 0.22778,10.92879 4.55371,11.498 4.32594,0.56921 11.72552,0.68289 15.48226,0.11369 3.75674,-0.56921 4.21253,-3.75679 4.32636,-11.15642 0.11385,-7.39964 -0.34158,-9.79038 -5.00899,-10.35958 -2.56143,-0.0569 -5.12283,-0.11368 -7.52771,-0.11368 z m 31.35569,0.0977 c -3.11616,-0.0122 -6.28264,0.0586 -8.91522,0.12971 -4.21208,0.11384 -5.12273,3.41525 -5.46425,10.01799 -0.34152,6.60274 -0.22757,11.04264 4.55372,11.49801 4.78131,0.45536 9.67631,1.02483 15.14067,0.56948 5.46434,-0.45537 5.12271,-2.84637 5.12271,-10.92905 0,-8.08267 -0.7969,-10.70107 -5.00902,-11.15643 -1.70759,-0.0854 -3.55891,-0.12237 -5.42861,-0.12971 z"
     style="fill:#e4e4e4;fill-opacity:1;stroke:none;stroke-width:0.264583px;stroke-linecap:butt;stroke-linejoin:miter;stroke-opacity:1" />
  <path
     id="path7774"
     d="m 9.77214,335.35244 c 4.50786,0.0805 4.99083,0.80497 5.07134,3.0589 0.0805,2.25393 0,11.67212 -0.0805,14.32854 -0.0805,2.65641 -1.36845,3.30039 -4.82984,3.21989 -3.46138,-0.0805 -5.15183,-0.24149 -5.23232,-4.18586 -0.0805,-3.94438 0,-12.3966 0.161,-14.24804 0.161,-1.85144 0.80497,-2.17343 4.91033,-2.17343 z"
     style="fill:#ce7f35;fill-opacity:1;stroke:none;stroke-width:0.264583px;stroke-linecap:butt;stroke-linejoin:miter;stroke-opacity:1" />
  <path
     id="path859"
     d="m 306.45656,36.34239 c 6.04433,0.50793 6.27284,1.15216 6.01681,5.50475 -0.25604,4.35258 -1.02414,9.47327 -1.79225,13.18577 -0.7681,3.7125 -2.04827,4.22457 -9.60129,3.7125 -7.55302,-0.51207 -7.68103,-1.92026 -7.55302,-5.88879 0.12802,-3.96853 1.28018,-11.77759 1.92026,-14.46595 0.64009,-2.68836 1.81046,-2.8213 11.00949,-2.04828 z"
     style="fill:#e0e0e0;fill-opacity:1;stroke:none;stroke-width:0.264583px;stroke-linecap:butt;stroke-linejoin:miter;stroke-opacity:1" />
  <path
     id="path861"
     d="m 300.05569,64.89024 c 8.96121,0.51207 8.96121,0.7681 8.70518,4.99267 -0.25604,4.22457 -1.02414,11.9056 -2.04828,14.97802 -1.02414,3.07241 -3.7125,3.20043 -8.96121,2.9444 -5.2487,-0.25604 -6.91293,-0.25604 -6.91293,-5.37673 0,-5.12069 0.76811,-11.9056 1.66423,-14.59396 0.89612,-2.68837 1.28017,-2.9444 7.55301,-2.9444 z"
     style="fill:#cc7e2d;fill-opacity:1;stroke:none;stroke-width:0.264583px;stroke-linecap:butt;stroke-linejoin:miter;stroke-opacity:1" />
  <path
     id="path863"
     d="m 44.0212,38.00662 c 6.91296,-0.12802 6.91296,1.15215 6.52889,5.37672 -0.38404,4.22457 -1.15216,9.6013 -2.17628,12.80173 -1.02415,3.20043 -1.79226,4.09655 -7.16896,3.96853 -5.37673,-0.12801 -6.40088,-0.7681 -6.01681,-6.65689 0.38404,-5.8888 1.02412,-8.57716 1.6642,-11.77759 0.64011,-3.20043 2.43234,-3.45647 7.16896,-3.7125 z"
     style="fill:#e0e0e0;fill-opacity:1;stroke:none;stroke-width:0.264583px;stroke-linecap:butt;stroke-linejoin:miter;stroke-opacity:1" />
  <path
     id="path865"
     d="m 39.79665,65.65834 c 6.91293,0 7.04094,0 6.91293,5.12069 -0.12803,5.12069 -0.89612,11.39354 -1.79223,14.33793 -0.89615,2.9444 -1.92027,2.9444 -6.91296,3.07242 -4.99266,0.12801 -6.65689,-0.89612 -6.65689,-4.48061 0,-3.58448 1.02415,-11.39353 1.79224,-14.33793 0.76811,-2.94439 1.28018,-3.45646 6.65691,-3.7125 z"
     style="fill:#cc7e2d;fill-opacity:1;stroke:none;stroke-width:0.264583px;stroke-linecap:butt;stroke-linejoin:miter;stroke-opacity:1" />
  <path
     id="path867"
     d="m 279.06852,31.66844 c 6.15548,0.36208 5.97444,0.36208 5.43131,5.97444 -0.54314,5.61235 -4.5261,42.90736 -4.70714,47.25241 -0.18104,4.34505 -1.08626,5.43131 -5.7934,5.43131 -4.70714,0 -210.01072,0 -214.8989,-0.18104 -4.88818,-0.18105 -5.25026,-0.72418 -4.70712,-6.33653 0.54313,-5.61236 4.88817,-41.27797 5.61234,-45.07989 0.72419,-3.80192 2.17252,-4.34505 6.51759,-4.52609 4.34504,-0.18104 203.49313,-2.53461 212.54532,-2.53461 z"
     style="fill:#4a4a4a;fill-opacity:1;stroke:none;stroke-width:0.264583px;stroke-linecap:butt;stroke-linejoin:miter;stroke-opacity:1" />
  <path
     id="path869"
     d="m 264.9471,39.09123 c 5.43132,0 5.97445,1.08626 5.61236,5.06922 -0.36209,3.98297 -1.44835,11.22471 -1.99148,15.75081 -0.54313,4.52609 -0.54313,5.97444 -4.52609,6.33653 -3.98296,0.36208 -186.24493,1.02193 -190.40891,1.20297 -4.16401,0.18105 -4.16401,-1.2673 -3.80193,-4.52609 0.36208,-3.25879 1.76138,-15.68647 2.12346,-18.22109 0.36208,-2.53461 1.08625,-2.8967 3.98296,-3.25878 2.89668,-0.36209 181.22475,-2.53462 189.00963,-2.35357 z"
     style="fill:#808080;fill-opacity:1;stroke:none;stroke-width:0.264583px;stroke-linecap:butt;stroke-linejoin:miter;stroke-opacity:1" />
  <path
     id="path878"
     d="m 514.31116,256.12785 c -2.20705,0.0262 -2.51504,0.62798 -3.41116,3.09231 -1.02414,2.81638 -13.69783,38.78958 -14.59395,41.34993 -0.89611,2.56034 -1.02406,2.43203 -3.71243,2.56005 -2.46528,0.1174 -20.25663,-0.40493 -31.92673,-0.78961 -0.10213,7.49002 -0.2096,15.29189 -0.32557,23.67504 10.20425,0.0282 32.35612,0.39222 34.89348,0.39222 3.07775,0 3.62061,-0.36253 4.52582,-3.25923 0.90522,-2.8967 3.80234,-14.48312 4.34548,-17.37982 0.54314,-2.8967 0.90497,-2.53455 3.43958,-2.71559 2.53462,-0.18105 19.73394,0.18086 31.1397,0.18086 11.40575,0 216.89028,0.72433 225.76141,0.90538 2.06981,0.0422 10.77788,0.0529 22.55676,0.0475 0.64913,-22.62167 1.18184,-41.47336 1.18184,-42.662 0,-0.32681 -0.006,-0.59118 -0.0124,-0.85938 -12.55176,-0.12218 -100.09423,-1.43342 -110.62735,-1.6061 -11.04368,-0.18104 -158.96435,-2.78344 -162.16478,-2.91145 -0.40005,-0.016 -0.75441,-0.0239 -1.0697,-0.0202 z m 364.12453,5.57743 c -0.1566,0.80781 -0.27082,1.79268 -0.3824,3.01997 -0.16544,1.81981 -0.52427,18.34421 -0.93432,39.30355 17.69496,-0.039 32.6096,-0.0708 37.77496,-0.0708 17.74227,0 251.10757,1.8104 257.08197,1.62936 2.6313,-0.0797 4.7537,-0.1617 6.6027,-0.28784 0.034,-11.19816 0.059,-20.9457 0.059,-25.21241 0,-2.34147 -0.04,-7.10493 -0.095,-12.72481 -19.001,-0.25989 -261.82306,-4.8731 -273.78792,-5.225 -3.41794,-0.10053 -13.62149,-0.25859 -26.31985,-0.43202 z"
     style="fill:#2d5270;fill-opacity:1;stroke:none;stroke-width:0.264583px;stroke-linecap:butt;stroke-linejoin:miter;stroke-opacity:1" />
  <path
     id="rect7569-7"
     d="m 982.89788,278.66789 -0.18358,0.40539 c -0.10094,0.22296 -0.64095,1.34925 -1.20006,2.50285 -0.55912,1.15361 -1.12753,2.33348 -1.2631,2.62195 -0.13557,0.28847 -0.2449,0.4759 -0.24297,0.41649 0.003,-0.10517 0.23781,-1.02768 0.93274,-3.67147 0.40218,-1.53006 0.44603,-1.81015 0.32866,-2.09821 -0.0827,-0.20307 -0.10185,-0.20539 -1.74568,-0.2056 l -1.66209,-2.2e-4 -0.25136,0.84837 c -0.13827,0.46664 -0.25304,0.88628 -0.25508,0.93254 -0.002,0.0464 0.61262,0.0936 1.37004,0.10513 1.11644,0.017 1.37271,0.0449 1.36811,0.149 -0.003,0.0705 -0.088,0.43776 -0.18874,0.81612 -0.1007,0.37836 -0.1838,0.70414 -0.18467,0.7239 -8.8e-4,0.0197 -0.0935,0.39528 -0.20593,0.83462 -0.18994,0.74251 -0.27255,1.06961 -0.58809,2.32967 -0.0659,0.26311 -0.1999,0.7936 -0.29783,1.17894 -0.0979,0.38534 -0.17878,0.71774 -0.1797,0.7386 -9.2e-4,0.0209 -0.0958,0.39022 -0.21077,0.82085 -0.115,0.43063 -0.21072,0.81966 -0.21269,0.86434 -0.002,0.0447 0.16837,0.0786 0.37853,0.0754 l 0.38212,-0.006 0.45795,-0.96583 c 0.90084,-1.89977 2.05193,-4.31328 2.55084,-5.3482 0.27907,-0.5789 0.62285,-1.29901 0.76398,-1.60027 l 0.2566,-0.54778 3.29757,0.0258 3.29766,0.0257 0.24023,-0.86073 c 0.13215,-0.47341 0.2334,-0.89326 0.22501,-0.933 -0.008,-0.0398 -1.58177,-0.0962 -3.49646,-0.12539 z m 8.06145,0.12301 -0.15125,0.59797 c -0.0832,0.32888 -0.21921,0.86706 -0.30224,1.19594 l -0.1509,0.59798 -0.50484,-0.006 c -0.27766,-0.003 -0.52806,0.0252 -0.55641,0.0636 -0.0283,0.0384 -0.092,0.21534 -0.14145,0.39327 -0.12258,0.44094 -0.0793,0.48697 0.46707,0.49711 0.24583,0.005 0.44547,0.042 0.44365,0.0831 -0.005,0.11512 -0.46138,1.97671 -0.72218,2.94629 -0.32953,1.22512 -0.68612,1.91687 -1.14615,2.22379 -0.21636,0.14436 -0.32365,0.11273 -0.37756,-0.11099 -0.0303,-0.12571 0.0339,-0.53437 0.28171,-1.79316 0.44527,-2.26192 0.46575,-2.92703 0.0967,-3.14173 -0.16815,-0.0978 -0.48924,0.10728 -0.75594,0.48276 -0.24513,0.3451 -0.29008,0.31275 -0.19769,-0.14239 0.0309,-0.15239 0.0459,-0.30249 0.0332,-0.33359 -0.0333,-0.0818 -0.63177,-0.076 -0.69045,0.007 -0.0272,0.0384 -0.16541,0.59346 -0.30704,1.23339 -0.14164,0.63993 -0.34351,1.41481 -0.44853,1.72195 -0.34541,1.01021 -0.85659,1.77377 -1.49355,2.23107 -0.28189,0.20238 -0.87551,0.23154 -1.10398,0.0543 -0.1909,-0.14814 -0.35203,-0.5264 -0.39415,-0.92519 -0.0639,-0.60522 -0.0636,-0.60538 0.8757,-0.59104 l 0.84881,0.0129 0.0968,-0.26265 c 0.25871,-0.7016 0.37993,-1.85394 0.2727,-2.59203 -0.19827,-1.36484 -0.98501,-1.67373 -1.90661,-0.74831 -0.3429,0.34433 -0.83191,1.34379 -1.02816,2.10142 l -0.1543,0.59567 -0.25272,-0.004 c -0.24964,-0.004 -0.25405,8e-4 -0.35543,0.36693 -0.0565,0.2039 -0.0916,0.39785 -0.0781,0.43101 0.0135,0.0332 0.14749,0.0621 0.29779,0.0644 0.29559,0.005 0.28419,-0.0197 0.31735,0.67397 0.0193,0.40312 0.058,0.5999 0.22381,1.13662 0.28627,0.92674 0.97166,1.29378 1.78269,0.95482 0.591,-0.24699 1.03201,-0.63478 1.45925,-1.28333 l 0.24711,-0.37516 -0.0414,0.26893 c -0.0228,0.14797 -0.087,0.47533 -0.14263,0.72735 -0.0557,0.25202 -0.10302,0.49981 -0.10527,0.55065 -0.002,0.0527 0.17258,0.0951 0.40708,0.0987 l 0.41116,0.006 0.10834,-0.50258 c 0.10128,-0.46959 0.41143,-1.92878 0.59513,-2.80021 0.1176,-0.55786 0.38651,-1.23178 0.56166,-1.40752 0.0837,-0.084 0.16684,-0.1315 0.18466,-0.10542 0.0513,0.075 0.0181,0.50126 -0.061,0.78374 -0.13735,0.49051 -0.43173,2.07411 -0.47607,2.56099 -0.0512,0.56228 0.004,0.96201 0.18042,1.2971 0.16443,0.31296 0.70232,0.24892 1.08675,-0.12936 0.31258,-0.30759 0.71157,-0.89361 0.80532,-1.18283 0.10533,-0.32498 0.13987,-0.2248 0.13301,0.38546 -0.005,0.47104 0.0136,0.6297 0.10026,0.84192 0.10132,0.24815 0.12734,0.26134 0.5094,0.2582 0.37051,-0.003 0.4286,-0.0304 0.72896,-0.34248 0.17951,-0.18654 0.41813,-0.51368 0.53018,-0.72688 0.11205,-0.21319 0.2101,-0.38753 0.2179,-0.38741 0.008,1.2e-4 0.019,0.16994 0.025,0.37743 0.0144,0.50612 0.12354,0.95157 0.26428,1.07909 0.173,0.15675 0.6129,0.0533 0.83709,-0.19695 0.10685,-0.11926 0.30389,-0.43096 0.4379,-0.69283 0.25248,-0.49334 0.32204,-0.49315 0.30186,0.001 -0.0222,0.54287 0.29015,1.00183 0.68585,1.00787 0.8829,0.0135 1.76543,-1.46735 2.3697,-3.97632 0.12324,-0.5117 0.2669,-1.00537 0.31927,-1.09702 0.0996,-0.17438 0.30645,-0.22671 0.2998,-0.0759 -0.002,0.0481 -0.0841,0.42504 -0.1821,0.83761 -0.2593,1.09149 -0.38137,1.87539 -0.42248,2.71394 -0.03,0.61274 -0.0223,0.7914 0.0448,1.0326 0.29297,1.05363 1.17369,0.69432 1.97586,-0.80611 0.19673,-0.36799 0.36955,-0.66893 0.38408,-0.6687 0.0145,2.2e-4 0.0214,0.11918 0.0152,0.26435 -0.0175,0.41056 0.18557,1.24197 0.37664,1.54227 0.14806,0.23269 0.2093,0.26583 0.4787,0.25867 0.38364,-0.0102 0.65805,-0.24515 0.97125,-0.83176 l 0.2295,-0.43001 0.068,0.3492 c 0.038,0.1921 0.1377,0.48466 0.2227,0.65001 0.1489,0.28987 0.1695,0.30085 0.5756,0.30705 0.3863,0.006 0.4417,-0.0171 0.6699,-0.27773 0.6093,-0.69594 1.1044,-2.10958 0.9535,-2.7229 -0.029,-0.1171 -0.1033,-0.007 -0.3911,0.57874 -0.4998,1.01743 -0.9332,1.39033 -1.1252,0.96804 -0.1066,-0.23455 -0.082,-0.46423 0.2215,-2.0235 0.3751,-1.93107 0.5187,-2.71377 0.5253,-2.86468 0,-0.0962 -0.083,-0.12882 -0.3542,-0.13184 -0.3894,-0.004 -0.4301,0.0231 -0.5246,0.35535 l -0.063,0.22002 -0.1337,-0.28473 c -0.2934,-0.62477 -0.7852,-0.67015 -1.2877,-0.1187 -0.37301,0.40932 -0.6846,1.01979 -2.09914,4.11289 -0.27579,0.60304 -0.4632,0.83031 -0.6818,0.82698 -0.34233,-0.005 -0.3105,-0.42866 0.1577,-2.10082 0.15613,-0.55761 0.32392,-1.26108 0.37291,-1.56328 0.0813,-0.50142 0.0839,-0.57985 0.0299,-0.89602 -0.0797,-0.46622 -0.19424,-0.54616 -0.6812,-0.47542 -0.22496,0.0327 -0.40806,0.0396 -0.40699,0.0154 10e-4,-0.0242 0.042,-0.24485 0.0909,-0.49047 0.0833,-0.418 0.0849,-0.46969 0.0247,-0.80774 -0.24066,-1.35112 -1.13172,-0.14994 -1.04119,1.40358 0.0254,0.43591 0.086,0.73362 0.17238,0.84752 0.0633,0.0834 0.0558,0.14892 -0.0846,0.74718 -0.43935,1.87173 -1.05243,3.09113 -1.55025,3.08353 -0.1938,-0.003 -0.26066,-0.14093 -0.24463,-0.50422 0.0104,-0.23512 0.46656,-2.26669 0.84699,-3.77182 0.0699,-0.27655 0.12912,-0.54866 0.1316,-0.60483 0.003,-0.0649 -0.14392,-0.10444 -0.40248,-0.10838 -0.37841,-0.006 -0.41106,0.009 -0.46548,0.209 -0.12872,0.47337 -0.64281,2.48981 -0.64449,2.52784 -0.005,0.11926 -0.38866,1.18086 -0.53955,1.49396 -0.33072,0.68626 -0.67365,0.9731 -0.79811,0.66763 -0.0533,-0.13075 -0.0572,-0.25677 -0.0186,-0.59981 0.067,-0.59579 0.13611,-0.89297 0.86059,-3.69752 0.0678,-0.2624 0.11548,-0.51019 0.10594,-0.55064 -0.01,-0.0404 -0.20213,-0.0764 -0.42794,-0.0799 l -0.41056,-0.006 -0.49326,1.79912 c -0.53806,1.96255 -0.74636,2.50859 -1.11484,2.92247 -0.26919,0.30236 -0.5623,0.36936 -0.61754,0.14121 -0.0877,-0.36209 -0.0199,-0.75525 0.72651,-4.21336 l 0.17559,-0.8137 0.5013,-0.016 c 0.65668,-0.0209 0.67474,-0.0324 0.77927,-0.49384 0.0481,-0.21212 0.0883,-0.40626 0.0894,-0.43159 10e-4,-0.0253 -0.24214,-0.0498 -0.54055,-0.0544 -0.29841,-0.005 -0.5499,-0.0408 -0.55883,-0.0806 -0.009,-0.0398 0.0986,-0.55487 0.23887,-1.14476 0.14031,-0.5899 0.24556,-1.09613 0.23382,-1.12496 -0.0118,-0.0288 -0.18415,-0.055 -0.38305,-0.058 z m -6.95609,4.20273 c 0.0666,0.004 0.12581,0.0396 0.17262,0.10974 0.0979,0.14678 0.0288,0.83986 -0.15093,1.51246 l -0.15976,0.59784 -0.48007,-0.007 c -0.26403,-0.004 -0.47908,-0.0276 -0.47799,-0.0525 0.008,-0.18708 0.28649,-1.12878 0.42803,-1.44858 0.20152,-0.45529 0.4683,-0.72409 0.6681,-0.71163 z m 16.63986,0.36308 c 0.1715,0.003 0.2017,0.0385 0.2661,0.3162 0.083,0.35713 0.064,1.21836 -0.04,1.79141 -0.086,0.47404 -0.3913,1.3218 -0.596,1.65293 -0.2105,0.34042 -0.4377,0.4256 -0.56259,0.21107 -0.21184,-0.36388 -0.23723,-1.0133 -0.0754,-1.9301 0.19718,-1.11678 0.65619,-2.04687 1.00759,-2.04151 z"
     style="vector-effect:none;fill:#fed402;fill-opacity:1;stroke:none;stroke-width:0.236048;stroke-linecap:round;stroke-linejoin:round;stroke-miterlimit:4;stroke-dasharray:none;stroke-dashoffset:0;stroke-opacity:1;paint-order:fill markers stroke" />
  <path
     id="path7596-3"
     d="m 998.17358,278.8095 c 0.12438,0.008 0.14303,-0.0456 0.18834,-0.21199 0.0453,-0.16642 0.0317,-0.22631 -0.055,-0.22764 -0.0867,-10e-4 -0.13603,0.01 -0.1684,0.12874 -0.0324,0.11887 -0.0894,0.30301 0.0351,0.31089 z"
     style="fill:#fed402;fill-opacity:1;stroke:none;stroke-width:0.0647196px;stroke-linecap:butt;stroke-linejoin:miter;stroke-opacity:1" />
  <path
     id="path7592-8"
     d="m 997.80717,278.38612 c 0.18971,0.003 0.20439,0.0389 0.19002,0.24163 -0.0144,0.20271 -0.0663,0.27354 -0.2067,0.25946 -0.1404,-0.0141 -0.27748,0.0196 -0.20828,0.29524 0.0692,0.2756 0.17355,0.49205 0.11914,0.74189 -0.0544,0.24984 -0.10745,0.71456 -0.4837,0.6372 -0.37626,-0.0774 -0.31132,-0.56578 -0.13946,-0.52734 0.17187,0.0384 0.32747,0.0766 0.35652,-0.0901 0.029,-0.16667 -0.0465,-0.29912 -0.12372,-0.51516 -0.0773,-0.21604 -0.0833,-1.06364 0.49618,-1.04286 z"
     style="fill:#fed402;fill-opacity:1;stroke:none;stroke-width:0.0647196px;stroke-linecap:butt;stroke-linejoin:miter;stroke-opacity:1" />
  <path
     id="path7594-0"
     d="m 998.0926,279.04699 c 0.12308,0.0377 0.0977,0.12086 0.0325,0.37054 -0.0652,0.24967 -0.18823,0.70139 -0.23948,0.87966 -0.0513,0.17826 -0.0799,0.21364 -0.17208,0.21223 -0.0921,-10e-4 -0.0782,-0.0728 -0.0167,-0.35835 0.0614,-0.28555 0.16497,-0.66594 0.22812,-0.8679 0.0632,-0.20196 0.0805,-0.22557 0.16771,-0.23618 z"
     style="fill:#fed402;fill-opacity:1;stroke:none;stroke-width:0.0647196px;stroke-linecap:butt;stroke-linejoin:miter;stroke-opacity:1" />
  <path
     id="path7598-2"
     d="m 998.2662,279.24919 c 0.081,-0.29954 0.20308,-0.34296 0.38321,-0.34022 0.18014,0.003 0.26046,0.21499 0.20778,0.54337 -0.0527,0.32837 -0.13948,0.58026 -0.19667,0.78196 -0.0572,0.2017 -0.07,0.29435 -0.13513,0.29336 -0.0652,-9.9e-4 -0.0993,-0.0775 -0.0641,-0.22887 0.0352,-0.15139 0.1124,-0.43719 0.14145,-0.54648 0.0291,-0.10928 0.0456,-0.2694 -0.0369,-0.30442 -0.0825,-0.035 -0.16704,0.10718 -0.25991,0.46871 -0.0929,0.36152 -0.0949,0.60626 -0.2252,0.60428 -0.13031,-0.002 -0.11462,-0.0777 -0.0442,-0.3805 0.0704,-0.30278 0.1514,-0.60217 0.22956,-0.89119 z"
     style="fill:#fed402;fill-opacity:1;stroke:none;stroke-width:0.0647196px;stroke-linecap:butt;stroke-linejoin:miter;stroke-opacity:1" />
  <path
     id="path7600-4"
     d="m 999.369,278.95372 c 0.23626,0.0437 0.19159,0.26458 0.15572,0.3822 -0.0359,0.11762 -0.12178,0.0336 -0.19967,0.005 -0.10947,-0.0396 -0.22218,0.081 -0.26698,0.40107 -0.0448,0.32006 -0.006,0.48946 0.08,0.53298 0.0863,0.0435 0.17392,0.23054 -0.004,0.27003 -0.17816,0.0395 -0.36342,-0.25689 -0.27349,-0.75538 0.10919,-0.60528 0.29304,-0.87618 0.50862,-0.83629 z"
     style="fill:#fed402;fill-opacity:1;stroke:none;stroke-width:0.0647196px;stroke-linecap:butt;stroke-linejoin:miter;stroke-opacity:1" />
  <path
     id="path7602-8"
     d="m 999.81385,279.00667 c -0.0889,0.0406 -0.1053,0.074 -0.20815,0.27558 -0.11754,0.23032 -0.24301,0.68421 -0.22228,0.99682 0.0207,0.31262 0.37612,0.25485 0.47757,0.17199 0.10146,-0.0829 -0.01,-0.17329 -0.20168,-0.16778 -0.192,0.006 -0.0702,-0.36405 -9e-5,-0.3883 0.0701,-0.0242 0.23659,0.0269 0.31871,0.0345 0.0794,0.007 0.0925,-0.0113 0.13877,-0.23424 0.046,-0.22297 0.029,-0.6385 -0.16062,-0.70415 -0.0402,-0.0139 -0.0766,-0.0144 -0.14223,0.0156 z m -0.0448,0.45759 c 0.072,-0.10343 0.13289,-0.0918 0.17221,-0.006 0.0777,0.16953 0.0637,0.2391 -0.13975,0.21092 -0.13653,-0.0189 -0.10274,-0.10394 -0.0325,-0.20498 z"
     style="fill:#fed402;fill-opacity:1;stroke:none;stroke-width:0.0647196px;stroke-linecap:butt;stroke-linejoin:miter;stroke-opacity:1" />
  <path
     id="path7627-9"
     d="m 1001.0973,278.496 c 0.1017,0.0314 0.1054,0.008 0.039,0.40645 -0.066,0.39886 -0.3191,1.33204 -0.3815,1.5161 -0.062,0.18407 -0.055,0.19612 -0.1414,0.1948 -0.087,-0.001 -0.093,-0.10288 -0.042,-0.26922 0.051,-0.16634 0.2074,-0.70707 0.2562,-0.89134 0.049,-0.18428 0,-0.2148 -0.066,-0.22781 -0.07,-0.013 -0.094,-0.079 -0.018,-0.26288 0.076,-0.18386 0.23,-0.47993 0.3541,-0.4661 z"
     style="fill:#fed402;fill-opacity:1;stroke:none;stroke-width:0.0647196px;stroke-linecap:butt;stroke-linejoin:miter;stroke-opacity:1" />
  <path
     id="path7629-0"
     d="m 1001.6414,278.45652 c -0.1839,-0.0126 -0.3023,0.27598 -0.3692,0.56144 -0.067,0.28546 -0.154,0.72565 -0.023,0.7575 0.1315,0.0319 0.1636,0.0991 0.11,0.33596 -0.047,0.20705 -0.1253,0.15882 -0.2795,0.1505 -0.1543,-0.008 -0.2001,0.3316 0.093,0.33606 0.2926,0.004 0.6376,-0.86767 0.6879,-1.33243 0.05,-0.46477 0.046,-0.7909 -0.2192,-0.80903 z m -0.069,0.52287 c 0.085,0.004 0.094,0.24924 0.073,0.37853 -0.025,0.15521 -0.046,0.29022 -0.1763,0.24793 -0.064,-0.0207 -0.076,-0.11453 -0.044,-0.35277 0.028,-0.20847 0.09,-0.27673 0.1474,-0.27369 z"
     style="fill:#fed402;fill-opacity:1;stroke:none;stroke-width:0.0647196px;stroke-linecap:butt;stroke-linejoin:miter;stroke-opacity:1" />
  <path
     id="path7634-5"
     d="m 1002.3472,278.47295 c 0.2906,0.0223 0.3012,0.56167 0.1733,0.93954 -0.1279,0.37787 -0.3873,0.69465 -0.4681,0.78626 -0.081,0.0916 -0.1113,0.17556 0.072,0.20367 0.1829,0.0281 0.2015,0.21409 0.047,0.24549 -0.1548,0.0314 -0.3537,0.0199 -0.4818,-0.0327 -0.1281,-0.0526 -0.044,-0.38893 0.1323,-0.56349 0.1764,-0.17456 0.4037,-0.45807 0.4877,-0.71 0.084,-0.25194 0.036,-0.47212 -0.1397,-0.39884 -0.1758,0.0733 -0.2067,-0.096 -0.139,-0.23846 0.068,-0.14245 0.1947,-0.24086 0.317,-0.23149 z"
     style="fill:#fed402;fill-opacity:1;stroke:none;stroke-width:0.0647196px;stroke-linecap:butt;stroke-linejoin:miter;stroke-opacity:1" />
  <path
     id="path7636-2"
     d="m 1003.1978,278.59901 c -0.047,0.006 -0.1155,0.074 -0.2025,0.22145 -0.1117,0.18398 -0.3873,0.69456 -0.4908,0.95464 -0.1035,0.26008 -0.072,0.41253 0.073,0.42319 0.1452,0.0107 0.1357,0.0527 0.1018,0.21259 -0.034,0.15985 0.01,0.24493 0.073,0.24592 0.065,0.001 0.083,-0.0578 0.1361,-0.2174 0.053,-0.15956 0.09,-0.2181 0.1362,-0.2174 0.046,7.1e-4 0.062,-0.008 0.086,-0.1253 0.024,-0.1178 0.016,-0.26989 -0.023,-0.27047 -0.038,-5.9e-4 -0.051,-0.0513 -0.032,-0.13537 0.019,-0.0841 0.096,-0.2687 0.1834,-0.68096 0.054,-0.25766 0.036,-0.42074 -0.042,-0.41089 z m -0.3047,0.89351 c 0.023,0.006 0.018,0.0917 -0.013,0.19565 -0.054,0.18486 -0.069,0.16759 -0.1032,0.16706 -0.034,-5.2e-4 -0.06,-0.0345 0.01,-0.20227 0.054,-0.12103 0.089,-0.16497 0.1071,-0.16044 z"
     style="fill:#fed402;fill-opacity:1;stroke:none;stroke-width:0.0647196px;stroke-linecap:butt;stroke-linejoin:miter;stroke-opacity:1" />
  <path
     id="path976"
     d="m 1025.9225,371.16573 c 3.9141,0.0725 4.0071,-0.33308 4.0267,-2.79625 0.027,-3.39409 -0.783,-3.35552 -3.5793,-3.35552 -2.7962,0 -3.1318,0.4474 -3.1318,3.01995 0,2.57257 0.5567,3.09242 2.6844,3.13182 z"
     style="fill:#ea953d;fill-opacity:1;stroke:none;stroke-width:0.264583px;stroke-linecap:butt;stroke-linejoin:miter;stroke-opacity:1" />
  <path
     id="path978"
     d="m 946.59374,371.89162 c 2.90996,0.03 2.90996,-0.03 2.90996,-3.26996 0,-3.23997 -0.86997,-3.02998 -3.05996,-3.02998 -2.18998,0 -3.02998,-0.14999 -3.02998,2.93996 0,3.08999 0.24,3.33 3.17998,3.35998 z"
     style="fill:#ea953d;fill-opacity:1;stroke:none;stroke-width:0.264583px;stroke-linecap:butt;stroke-linejoin:miter;stroke-opacity:1" />
  <path
     id="path968"
     d="m 944.7625,357.83529 c 5.6945,0 6.32722,0.15818 6.01086,3.95452 -0.31636,3.79634 -0.94909,3.95452 -5.0618,4.27088 -4.11268,0.31636 -60.89957,0.94908 -64.85408,0.7909 -3.95452,-0.15818 -4.11269,-1.10726 -4.11269,-4.42906 0,-3.32179 0.47453,-3.79633 2.68907,-3.95452 2.21454,-0.15818 59.0014,-0.63272 65.32864,-0.63272 z"
     style="fill:#252525;fill-opacity:1;stroke:none;stroke-width:0.264583px;stroke-linecap:butt;stroke-linejoin:miter;stroke-opacity:1" />
  <path
     id="path970"
     d="m 1022.5874,360.84073 c -0.4143,-3.64551 -0.3164,-4.1127 2.2145,-4.27088 2.5309,-0.15818 50.6178,-0.31636 60.1087,-0.63273 9.4908,-0.31636 69.2831,-1.73998 73.7122,-1.73998 4.429,0 4.9036,0.31636 4.7454,3.63815 -0.1582,3.3218 -0.9491,4.1127 -3.3218,4.27088 -2.3727,0.15818 -64.5377,2.53089 -71.3395,2.68907 -6.8018,0.15818 -17.8744,0.47454 -24.518,0.31636 -6.6436,-0.15818 -35.5907,0 -38.5961,0 -3.0054,0 -2.6287,-0.95539 -3.0054,-4.27087 z"
     style="fill:#252525;fill-opacity:1;stroke:none;stroke-width:0.264583px;stroke-linecap:butt;stroke-linejoin:miter;stroke-opacity:1" />
  <path
     id="path980"
     d="m 1156.9246,369.53434 c 3.6487,-0.0849 3.5638,-0.59397 3.7335,-3.13952 0.1697,-2.54556 -0.085,-3.39408 -3.4789,-3.22438 -3.3941,0.1697 -3.3092,0.50911 -3.3092,3.13953 0,2.6304 -0.1698,3.13951 3.0546,3.22437 z"
     style="fill:#ea953d;fill-opacity:1;stroke:none;stroke-width:0.264583px;stroke-linecap:butt;stroke-linejoin:miter;stroke-opacity:1" />
  <path
     id="path982"
     d="m 781.83531,376.27158 c 3.95927,-0.0747 4.19997,-0.35999 4.19997,-3.35997 0,-2.99998 -0.006,-3.47994 -3.72599,-3.23995 -3.71996,0.23999 -3.6085,0.89571 -3.6085,3.5357 0,2.63996 0.73197,3.10955 3.13452,3.06422 z"
     style="fill:#ea953d;fill-opacity:1;stroke:none;stroke-width:0.264583px;stroke-linecap:butt;stroke-linejoin:miter;stroke-opacity:1" />
  <path
     id="path984"
     d="m 613.70214,374.37089 c 5.26083,-0.1697 6.44875,0.50911 6.5336,4.58203 0.0849,4.07289 -0.0849,4.66685 -5.34567,4.83656 -5.26083,0.1697 -5.85479,-0.84852 -6.02449,-4.49715 -0.16971,-3.64863 0.25455,-4.75173 4.83656,-4.92144 z"
     style="fill:#ea953d;fill-opacity:1;stroke:none;stroke-width:0.264583px;stroke-linecap:butt;stroke-linejoin:miter;stroke-opacity:1" />
  <path
     id="path986"
     d="m 501.01869,374.88 c 4.32745,0 4.75171,0.33941 4.75171,3.47895 0,3.13952 -0.76367,3.73349 -4.75171,3.64864 -3.98805,-0.0849 -4.41231,-0.42426 -4.49716,-3.73348 -0.0849,-3.30925 0.84852,-3.39411 4.49716,-3.39411 z"
     style="fill:#ea953d;fill-opacity:1;stroke:none;stroke-width:0.264583px;stroke-linecap:butt;stroke-linejoin:miter;stroke-opacity:1" />
  <path
     id="path988"
     d="m 782.42811,358.64252 c -0.1793,0.002 -0.37171,0.007 -0.57824,0.0134 -3.30444,0.10014 -93.32556,1.60221 -102.53792,1.80247 -9.2124,0.20028 -74.50003,1.30145 -76.40259,1.50172 -1.90255,0.20027 -1.90241,0.90121 -1.20147,5.70766 0.3004,4.40592 0.70116,4.60631 3.7052,4.50617 3.00403,-0.10012 34.7464,-1.00132 45.46078,-1.30173 10.71441,-0.30038 130.2749,-2.40318 132.17747,-2.60344 1.90254,-0.20027 1.80247,-0.80088 1.80247,-5.10667 0,-4.03668 0.26411,-4.55335 -2.4257,-4.51962 z m -277.2518,4.44314 c -3.05467,0 -41.32297,0.13886 -43.10486,0.22376 -1.78189,0.0849 -1.9956,0.87897 -1.9513,6.05545 0.0406,4.75152 0.17395,4.87513 2.0407,4.87513 1.86674,0 41.82785,-0.25614 43.18548,-0.34104 1.35763,-0.0849 1.86656,-1.734 2.29082,-5.80689 0.42425,-4.07289 0.59384,-5.00641 -2.46084,-5.00641 z"
     style="fill:#252525;fill-opacity:1;stroke:none;stroke-width:0.264583px;stroke-linecap:butt;stroke-linejoin:miter;stroke-opacity:1" />
  <path
     id="path993"
     d="m 514.04352,308.85505 c 6.65575,-0.28322 6.0893,0.99128 6.0893,6.37253 0,5.38124 -0.84967,5.66447 -6.65575,5.66447 -5.80608,0 -5.80608,-1.27451 -5.80608,-6.51414 0,-5.23963 1.27451,-5.52286 6.37253,-5.52286 z"
     style="fill:#3e8294;fill-opacity:1;stroke:none;stroke-width:0.264583px;stroke-linecap:butt;stroke-linejoin:miter;stroke-opacity:1" />
  <path
     id="path997"
     d="m 788.85939,400.51218 c 0,4.80644 0.80108,5.20697 4.20566,5.20697 3.40458,0 22.22987,-0.40053 25.63445,-0.40053 3.40458,0 5.00674,0.20027 5.207,-3.60484 0.20026,-3.8051 1.00134,-117.15745 1.20163,-129.57414 0.20026,-12.41668 -2.20297,-152.60508 -2.20297,-156.61047 0,-4.00538 -0.20027,-4.80646 -4.80645,-5.20699 -4.60621,-0.40054 -20.02692,-1.20162 -23.83205,-1.20162 -3.80511,0 -4.20563,0.40054 -4.40592,4.60619 -0.20027,4.20565 1.40189,149.80132 1.20163,165.82285 -0.20027,16.02153 -2.20298,113.95316 -2.20298,120.96258 z"
     style="fill:#323232;fill-opacity:1;stroke:none;stroke-width:0.264583px;stroke-linecap:butt;stroke-linejoin:miter;stroke-opacity:1" />
  <path
     id="path999"
     d="m 831.31647,399.51081 c 0,5.207 0.20027,5.207 5.00671,5.207 4.80648,0 20.62774,-0.40053 26.035,-0.60079 5.40727,-0.20029 5.80779,-1.20163 6.00808,-6.00808 0.20026,-4.80647 1.40187,-134.58087 1.40187,-146.79729 0,-12.21642 -1.80242,-124.96794 -2.00268,-129.97467 -0.20027,-5.00673 -0.60082,-7.40996 -6.00808,-8.01077 -5.40727,-0.6008 -19.02556,-1.40188 -23.03095,-1.40188 -4.0054,0 -5.00674,0.40054 -5.00674,5.8078 0,5.40727 -0.20026,149.20052 -0.20026,160.21532 0,11.0148 -2.40324,112.75152 -2.20295,121.56336 z"
     style="fill:#323232;fill-opacity:1;stroke:none;stroke-width:0.264583px;stroke-linecap:butt;stroke-linejoin:miter;stroke-opacity:1" />
  <path
     style="fill:#494949;fill-opacity:1;stroke:none;stroke-width:0.264583px;stroke-linecap:butt;stroke-linejoin:miter;stroke-opacity:1"
     d="m 804.78181,128.91339 c -2.39035,-0.004 -4.45572,0.11702 -6.35828,0.31729 -3.80511,0.40054 -3.40445,2.2027 -3.40445,6.80889 0,4.60619 1.33302,139.30461 1.13276,151.12049 -0.20029,11.81588 -3.4186,73.4984 -3.4186,78.10459 0,4.60618 0.40029,8.01111 4.60592,8.21137 4.20565,0.20026 9.14402,0.20024 14.75155,0.4005 6.00808,0 6.80884,-0.60079 7.20939,-7.00939 0.40053,-6.40861 1.60245,-160.81649 1.40216,-170.62968 -0.20026,-9.81319 -0.80118,-52.87107 -1.00147,-58.47861 -0.20027,-5.60753 -0.20029,-7.81004 -6.6089,-8.41085 -3.20431,-0.3004 -5.91976,-0.4303 -8.31008,-0.4346 z m 36.96517,1.2113 c -3.71763,-0.0477 -4.4097,1.12555 -4.22195,8.63564 v 0 c 0,8.81185 -0.19998,80.50829 -0.19998,89.32013 0,8.81184 -2.60342,133.57944 -2.40315,138.58617 0.20026,5.00673 0.40028,7.40983 4.60592,7.81036 4.20565,0.40055 15.91844,0.60076 19.92383,0.4005 4.0054,-0.20026 5.05974,-1.80242 5.00695,-6.80889 0,0 1.41335,-61.14885 1.31898,-70.09421 -0.093,-8.81135 -1.20174,-151.00297 -1.402,-157.41158 -0.20029,-6.40861 -1.00153,-8.41105 -5.00692,-9.01185 -4.0054,-0.60081 -12.43079,-1.20172 -16.83671,-1.40199 -0.27535,-0.0125 -0.5366,-0.0211 -0.78444,-0.0243 z"
     id="path1001" />
  <path
     id="path1013"
     d="m 440.39109,88.29257 c 8.21104,0.40054 7.61023,1.80242 7.8105,9.01211 0.20027,7.20969 1.40188,145.99621 1.40188,161.01639 0,15.02019 -1.80242,146.99755 -1.80242,151.20321 0,4.20566 -0.40054,5.00671 -4.60619,5.207 -4.20565,0.20026 -30.04037,0.60079 -34.04575,0.60079 -4.00538,0 -3.80512,-0.40053 -4.00538,-5.00671 -0.20027,-4.60621 2.40323,-95.72866 2.80376,-110.54857 0.40054,-14.81992 1.40189,-174.43443 1.40189,-184.24762 0,-9.81318 0,-15.82126 0,-21.02826 0,-5.20699 0.20027,-8.4113 4.00538,-8.4113 3.80511,0 21.62907,1.60215 27.03633,2.20296 z"
     style="fill:#323232;fill-opacity:1;stroke:none;stroke-width:0.264583px;stroke-linecap:butt;stroke-linejoin:miter;stroke-opacity:1" />
  <path
     id="path1015"
     d="m 388.8588,84.40056 c 5.52286,0.28322 4.95641,1.55773 5.23963,4.95641 0.28323,3.39868 0,24.64043 0,32.8539 0,8.21348 0.83157,123.29298 0.6313,133.30643 -0.20027,10.01346 -2.20296,149.00024 -2.20296,153.60643 0,4.60621 0,6.60889 -4.20565,6.80916 -4.20565,0.20026 -27.83741,0.20026 -32.84414,0.20026 -5.00673,0 -5.80781,0.20029 -6.00808,-6.00808 -0.20027,-6.20834 1.29636,-73.37252 1.29636,-81.86922 0,-8.4967 1.98257,-118.67058 2.26579,-131.41563 0.28322,-12.74505 -0.28322,-99.41139 -0.28322,-105.35908 0,-5.94769 0.56644,-9.06315 5.94769,-8.77992 5.38124,0.28322 22.09142,1.13289 30.16328,1.69934 z"
     style="fill:#323232;fill-opacity:1;stroke:none;stroke-width:0.264583px;stroke-linecap:butt;stroke-linejoin:miter;stroke-opacity:1" />
  <path
     id="path1017"
     d="m 367.85602,94.49017 c -1.8144,0 -3.42548,0.0357 -4.62918,0.10645 -4.8148,0.28323 -5.66422,3.39866 -5.94744,8.21345 -0.28322,4.8148 -0.84956,96.57939 -0.84956,110.45734 0,13.87794 -1.41645,148.1258 -1.41645,152.51576 0,4.38998 0.42523,6.08897 4.9568,6.51381 4.53158,0.42482 17.41803,0.70798 21.66638,0.56637 4.24835,-0.14163 6.23115,-0.56608 6.23115,-6.797 0.84966,-11.18732 2.54868,-98.98674 2.54868,-114.84725 0,-15.8605 0.28322,-135.66382 0,-145.57664 -0.28323,-9.91282 -1.41583,-9.34661 -6.23063,-10.19628 -3.6111,-0.63725 -10.88656,-0.95601 -16.32975,-0.95601 z m 48.334,1.52239 c -2.83224,0 -3.9651,0.84979 -4.24832,7.0807 -0.28323,6.23091 0.28318,62.02588 0.28318,76.47027 0,14.44439 -0.56637,109.32414 -0.56637,124.90142 0,15.57729 -1.13326,50.69736 -1.13326,61.17662 -0.28323,7.08057 0.8499,7.93026 6.23114,8.21347 5.38124,0.28321 15.57713,0 21.2416,0 5.66446,0 7.0807,-2.54921 7.0807,-6.51435 0,-3.96512 0.28319,-88.36552 0.28319,-97.42867 0,-9.06314 -0.28319,-98.562 -0.28319,-110.17416 0,-11.61215 -0.56633,-48.99779 -0.84956,-54.94548 -0.28322,-5.94769 -1.1332,-7.36334 -5.66477,-7.64656 -4.53157,-0.28322 -19.54211,-1.13326 -22.37434,-1.13326 z"
     style="fill:#494949;fill-opacity:1;stroke:none;stroke-width:0.264583px;stroke-linecap:butt;stroke-linejoin:miter;stroke-opacity:1" />
  <path
     id="path1026"
     d="m 446.21153,426.39274 c 4.38996,0 4.67318,1.2745 3.6819,3.54028 -0.99128,2.26579 -1.98256,2.26579 -5.23963,2.40742 -3.25707,0.1416 -84.82539,2.83223 -88.93213,2.83223 -4.10674,0 -4.24835,-0.70808 -4.53157,-2.83223 -0.28323,-2.12418 0.42483,-3.25707 2.54901,-3.39868 2.12417,-0.14163 86.66634,-2.54902 92.47242,-2.54902 z"
     style="fill:#cccccc;fill-opacity:1;stroke:none;stroke-width:0.264583px;stroke-linecap:butt;stroke-linejoin:miter;stroke-opacity:1" />
  <path
     id="path1028"
     d="m 862.26661,412.23158 c 5.38125,-0.14161 5.52286,0.28321 5.66446,1.84094 0.14161,1.55774 -0.99128,2.26579 -4.53157,2.40739 -3.54028,0.14163 -66.41586,3.25708 -70.52259,3.11547 -4.10676,-0.1416 -4.10676,-0.28324 -4.10676,-1.84094 0,-1.55774 -0.28321,-2.54903 2.97386,-2.69063 3.25705,-0.14161 63.01719,-2.69063 70.5226,-2.83223 z"
     style="fill:#cccccc;fill-opacity:1;stroke:none;stroke-width:0.264583px;stroke-linecap:butt;stroke-linejoin:miter;stroke-opacity:1" />
  <path
     id="path1041"
     d="m 472.23389,124.34102 c 0,15.22045 0,93.72595 0,100.13457 0,6.40861 0,7.20969 8.4113,7.61023 8.41131,0.40053 104.54049,2.00268 110.54857,2.40322 6.00807,0.40054 7.20969,-0.40054 7.61023,-7.61022 0.40054,-7.20969 1.60215,-126.16956 1.20161,-128.97333 -0.40054,-2.80377 -126.16956,-8.4113 -126.16956,-8.4113 z"
     style="fill:#494949;fill-opacity:1;stroke:none;stroke-width:0.264583px;stroke-linecap:butt;stroke-linejoin:miter;stroke-opacity:1" />
  <path
     id="path1043"
     d="m 606.79916,135.38076 c 0,10.76248 -0.56645,87.51601 -0.56645,92.61403 0,5.09802 0.56645,6.51414 5.66447,6.79736 5.09802,0.28322 45.88218,1.69934 50.9802,1.69934 5.09802,0 4.53157,-0.56645 4.81481,-6.51414 0.28321,-5.94769 0,-89.49857 0,-92.61403 0,-3.11545 2.54899,-9.06315 2.54899,-9.06315 l -0.56644,-26.62299 -64.2917,-3.6819 z"
     style="fill:#494949;fill-opacity:1;stroke:none;stroke-width:0.264583px;stroke-linecap:butt;stroke-linejoin:miter;stroke-opacity:1" />
  <path
     id="path1045"
     d="m 672.36854,138.59743 c 0,5.60754 0.13843,31.6198 0.13843,41.24939 0,8.21836 0.84968,46.73185 0.84968,51.26343 0,4.53157 0.84966,5.66446 5.38123,5.94769 4.53157,0.28322 25.77333,0.56644 33.42037,0.28322 7.64701,-0.28322 11.04569,1.13289 11.32893,-8.21348 0.28321,-9.34637 0.56644,-85.81667 0.56644,-90.63147 0,-4.81479 1.1329,-32.28746 -0.84968,-32.8539 -1.98255,-0.56645 -53.81241,-9.06315 -53.81241,-3.11546 0,5.94769 2.97701,36.07058 2.97701,36.07058 z"
     style="fill:#494949;fill-opacity:1;stroke:none;stroke-width:0.264583px;stroke-linecap:butt;stroke-linejoin:miter;stroke-opacity:1" />
  <path
     id="path1047"
     d="m 730.85098,115.83835 c 0,-6.79736 0.84968,-6.51414 4.81481,-6.51414 3.96512,0 26.33977,1.46471 32.57068,2.03116 6.23091,0.56645 7.08057,1.13289 7.36381,6.23091 0.28321,5.09802 1.13289,107.29305 0.84965,113.52397 -0.28321,6.23091 -0.9812,6.96326 -5.94767,7.3638 -3.9523,0.31875 -33.13714,-0.81531 -36.2526,-0.81531 -3.11545,0 -3.68189,-3.39868 -3.68189,-8.4967 0,-5.09802 0.28321,-105.11022 0.28321,-113.32369 z"
     style="fill:#494949;fill-opacity:1;stroke:none;stroke-width:0.264583px;stroke-linecap:butt;stroke-linejoin:miter;stroke-opacity:1" />
  <path
     id="path1031"
     d="m 473.68676,84.92124 c -4.28652,0.0503 -6.26909,1.32021 -6.51691,6.27662 -0.28323,5.66447 -0.15179,22.37144 0,30.8715 0.13147,7.36263 1.9e-4,7.0806 6.51433,7.93027 6.51414,0.84967 244.13843,15.29416 249.51965,15.29416 5.38126,0 5.38152,-1.41642 5.66476,-5.66478 0.28321,-4.24834 -0.28318,-28.60553 -0.28318,-32.28743 0,-3.6819 -1.41619,-5.66418 -7.36389,-6.23063 -5.9477,-0.56644 -239.89006,-15.86049 -245.55452,-16.14371 -0.70805,-0.0354 -1.36788,-0.0532 -1.98024,-0.046 z m 6.12728,7.6693 c 0.29774,-0.002 0.61452,0.006 0.95085,0.0233 5.38123,0.28322 95.16316,6.23103 103.37663,7.0807 8.21348,0.84967 11.61217,1.13316 11.8954,5.94796 0.28322,4.8148 0.28318,9.34621 0.28318,17.27646 0,7.36381 1.98237,8.77987 -6.51433,8.49664 -8.4967,-0.28322 -103.37643,-5.38103 -109.04088,-5.66425 -5.66447,-0.28322 -5.66474,-1.13313 -5.94796,-6.23114 -0.28323,-5.09803 -0.28323,-18.12611 0,-21.52479 0.26552,-3.18626 0.53094,-5.37683 4.99711,-5.40484 z m 137.18129,8.8036 c 7.64703,0 39.65119,2.50012 44.74921,3.06657 5.09802,0.56645 5.58461,2.00362 5.94744,5.09788 0.40052,3.41586 0.60076,13.01134 0.28318,18.12654 -0.29887,4.81385 0.11758,6.29692 -6.23062,6.23115 -5.97429,-0.0619 -39.65149,-1.65105 -46.44885,-2.50072 -6.79736,-0.84967 -6.93848,-1.41151 -7.08019,-7.93026 -0.14158,-6.5126 0.28315,-13.31138 0.56638,-16.99328 0.28322,-3.6819 0.56642,-5.09788 8.21345,-5.09788 z m 59.68407,3.70933 c 4.74334,-0.0732 36.00278,2.03332 39.88297,2.61535 4.00539,0.60081 4.60592,2.20292 4.60592,4.80642 0,2.6035 0.20029,16.62239 0,19.8267 -0.20026,3.2043 -1.60224,3.60471 -5.8079,3.40444 -4.20568,-0.20027 -34.84671,-1.4017 -38.45155,-1.60197 -3.60487,-0.20027 -4.13036,-1.20236 -4.20544,-4.80642 -0.1252,-6.01011 -0.33438,-16.81897 -0.20051,-19.8267 0.1745,-3.92039 1.82701,-4.38154 4.17651,-4.41782 z"
     style="fill:#303030;fill-opacity:1;stroke:none;stroke-width:0.264583px;stroke-linecap:butt;stroke-linejoin:miter;stroke-opacity:1" />
  <path
     id="path1066"
     d="m 884.92447,145.29358 c 0,14.16116 -0.84966,90.34824 -0.84966,95.16304 0,4.81479 1.13289,5.94769 7.36381,6.51413 6.23091,0.56645 79.30252,2.54901 86.66633,2.54901 7.3638,0 8.77993,-1.41611 8.77993,-6.79736 0,-5.38124 1.4161,-85.25022 1.98255,-92.33081 0.56645,-7.08058 0.28324,-30.58812 0.28324,-30.58812 l -103.37652,-6.79736 z"
     style="fill:#5f6261;fill-opacity:1;stroke:none;stroke-width:0.264583px;stroke-linecap:butt;stroke-linejoin:miter;stroke-opacity:1" />
  <path
     id="path1068"
     d="m 993.11579,152.9406 c 0,11.61216 -1.13289,84.96701 -1.13289,89.7818 0,4.8148 1.13289,7.36381 7.08059,7.64703 5.94771,0.28323 70.80581,1.98257 77.03671,1.69934 6.231,-0.28322 8.7799,-1.13289 9.0632,-7.3638 0.2832,-6.23092 1.4161,-80.71865 1.4161,-86.0999 0,-5.38124 0,-32.00423 0,-32.00423 l -94.87981,-5.66447 z"
     style="fill:#5f6261;fill-opacity:1;stroke:none;stroke-width:0.264583px;stroke-linecap:butt;stroke-linejoin:miter;stroke-opacity:1" />
  <path
     id="path1076"
     d="m 1095.0762,160.87086 c 0,8.4967 -1.9826,64.85814 -2.2658,70.23939 -0.2832,5.38124 1.1329,8.21347 6.2309,8.4967 5.0981,0.28322 47.0151,1.41611 52.9628,1.69934 5.9477,0.28322 7.3638,-2.54901 7.647,-8.21348 0.2832,-5.66447 -0.5664,-64.57492 -0.2832,-69.10649 0.2832,-4.53158 1.1329,-33.13713 1.1329,-33.13713 l -69.673,-4.24835 c 0,0 -1.4161,32.8539 4.2484,34.27002 z"
     style="fill:#5f6261;fill-opacity:1;stroke:none;stroke-width:0.264583px;stroke-linecap:butt;stroke-linejoin:miter;stroke-opacity:1" />
  <path
     id="path1055"
     d="m 886.55769,109.5461 c -4.36785,-0.0271 -5.91717,0.84033 -6.16501,4.30981 -0.28321,3.96513 0.28369,22.94121 0.5669,31.15469 -0.56645,7.36381 1.41579,7.36334 6.5138,7.64656 5.09802,0.28322 263.96412,13.87819 269.06212,14.16141 5.098,0.28322 4.8152,-0.28308 5.0984,-5.09788 0.2832,-4.8148 0,-25.20725 -0.2837,-29.17238 -0.2832,-3.96513 0,-5.38099 -6.797,-5.94744 -6.7973,-0.56645 -259.99935,-16.71005 -265.94706,-16.99328 -0.74347,-0.0354 -1.42449,-0.0576 -2.04845,-0.0615 z m 6.24147,6.98458 c 4.00539,0 84.00004,5.57303 88.40596,5.77329 4.40595,0.20027 5.80769,1.80263 5.60742,5.00693 -0.20026,3.20431 -0.20015,14.21879 -0.80099,18.62471 -0.60079,4.40592 -1.60219,5.40747 -8.81185,5.00693 -7.20968,-0.40054 -77.59155,-4.77228 -83.19907,-5.17281 -5.60755,-0.40054 -7.20966,-0.80105 -7.0094,-7.0094 -0.20026,-5.00672 0.20024,-15.0199 0.4005,-18.22421 0.20029,-3.2043 1.40206,-4.00544 5.40743,-4.00544 z m 103.73942,7.00939 c 2.6035,0 76.70312,4.40589 82.31072,4.80643 5.6075,0.40054 5.0066,1.80248 5.2069,4.00544 0.2003,2.20296 0.2,17.22315 0.2,20.22719 0,3.00403 -1.0011,4.0052 -4.6059,3.80493 -3.6049,-0.20027 -76.7034,-3.6049 -81.10928,-4.00544 -4.40592,-0.40053 -4.68548,-0.79878 -4.80642,-7.20938 -0.0797,-4.22392 -0.40023,-15.02018 -0.2,-18.02422 0.20026,-3.00404 0.40048,-3.60495 3.00398,-3.60495 z m 99.51692,6.00222 c 0.3814,0.001 0.8088,0.0149 1.2867,0.0326 3.8235,0.14161 52.5379,2.97343 56.6446,3.25665 4.1068,0.28322 4.8148,1.27482 4.6731,5.52317 -0.1416,4.24835 -0.1415,12.88654 -0.4247,16.99328 -0.2833,4.10674 -0.4249,5.2395 -4.1068,5.09788 -3.6819,-0.14161 -53.5291,-2.40709 -56.3614,-2.40709 -2.8322,0 -4.3904,-1.27475 -4.532,-6.08955 -0.1416,-4.81479 -0.2832,-13.16961 -0.2832,-18.12602 0,-3.71731 0.4338,-4.29056 3.1037,-4.28088 z"
     style="fill:#303030;fill-opacity:1;stroke:none;stroke-width:0.264583px;stroke-linecap:butt;stroke-linejoin:miter;stroke-opacity:1" />
  <path
     id="path1093"
     d="m 552.14128,371.99901 c -11.36675,0.11357 -13.46575,3.10379 -17.82396,9.58992 -4.51317,6.71675 -5.49022,19.94656 -5.00673,31.39987 0.43873,10.39294 5.98795,25.42879 20.40733,24.37726 14.41937,-1.05152 2.42336,-65.36705 2.42336,-65.36705 z"
     style="fill:#a9a398;fill-opacity:1;stroke:none;stroke-width:0.272586px;stroke-linecap:butt;stroke-linejoin:miter;stroke-opacity:1" />
  <path
     id="path1091"
     d="m 551.54047,371.75218 c 11.81588,0.63772 15.42072,16.58023 16.02153,28.90911 0.60081,12.32886 -6.80915,36.77407 -18.42476,36.56148 -11.61561,-0.21255 -16.2218,-16.15506 -16.2218,-37.19917 0,-21.04413 11.81588,-27.84627 18.62503,-28.27142 z"
     style="fill:#b2aea1;fill-opacity:1;stroke:none;stroke-width:0.272586px;stroke-linecap:butt;stroke-linejoin:miter;stroke-opacity:1" />
  <path
     id="path1106"
     d="m 531.70699,364.57756 c -0.99126,0.98292 -1.96359,2.08248 -2.90369,3.29025 9.90047,3.2739 11.45074,2.57931 12.57132,1.73889 0.70979,-0.53234 -0.35958,-2.39888 -2.44119,-3.96254 -2.18885,-0.40271 -4.59384,-0.75908 -7.22644,-1.0666 z m -6.55929,8.90073 c -1.69012,3.10235 -3.15412,6.65422 -4.26072,10.63141 6.95102,-0.11239 14.30721,-3.42304 4.7687,-10.25466 -0.18203,-0.13039 -0.34011,-0.2517 -0.50798,-0.37675 z m -6.08903,20.26648 c -0.18157,1.66994 -0.30678,3.39003 -0.36225,5.16506 -0.0897,2.86899 -0.0941,5.73961 -0.008,8.57674 6.72679,-3.0234 9.00354,-8.61119 0.37052,-13.7418 z m 0.51315,24.99796 c 0.50231,3.7872 1.21817,7.40408 2.17247,10.75024 7.48157,-1.90318 8.0785,-8.73766 -2.17247,-10.75024 z m 11.74088,17.86763 c -1.5476,0.0106 -3.4974,0.17294 -5.9402,0.54468 -0.24818,0.0378 -0.48107,0.0657 -0.71882,0.0966 0.92264,1.89124 1.96247,3.62257 3.13055,5.15834 0.21501,0.0744 0.4282,0.13994 0.63873,0.19588 3.62314,-0.82445 6.7399,-1.2214 7.71219,-2.19366 1.03553,-1.03553 1.88381,-3.84723 -4.82245,-3.80186 z"
     style="fill:#171717;fill-opacity:1;stroke:none;stroke-width:0.264583px;stroke-linecap:butt;stroke-linejoin:miter;stroke-opacity:1" />
  <path
     id="path1116"
     d="m 551.24007,383.28902 c 7.40995,0.50067 10.51412,12.41668 10.7144,21.7292 0.20026,9.31251 -4.50606,20.12706 -12.91736,20.92811 -8.41131,0.80108 -10.51414,-13.41802 -10.1136,-24.53296 0.40054,-11.11493 6.90929,-18.42476 12.31656,-18.12435 z"
     style="fill:#9a8e81;fill-opacity:1;stroke:none;stroke-width:0.264583px;stroke-linecap:butt;stroke-linejoin:miter;stroke-opacity:1" />
  <path
     id="path1120"
     d="m 548.23622,397.00761 c -4.36465,0.34459 -7.1184,0.5711 -8.94106,0.73742 -0.196,1.1697 -0.32558,2.39281 -0.37155,3.66853 -0.10841,3.00823 -0.0315,6.2425 0.30231,9.34619 3.14195,0.6005 7.14851,1.01801 9.11003,0.86712 2.6035,-0.20029 -0.0997,-14.61926 -0.0997,-14.61926 z"
     style="fill:#7e776c;fill-opacity:1;stroke:none;stroke-width:0.264583px;stroke-linecap:butt;stroke-linejoin:miter;stroke-opacity:1" />
  <path
     id="path1118"
     d="m 548.03576,397.1076 c 4.00538,0.10012 5.00673,4.90659 5.10686,8.11088 0.10014,3.20431 -2.10282,6.10822 -4.70632,6.30849 -2.6035,0.20026 -4.50606,-3.70499 -4.50606,-7.5101 0,-3.8051 1.40189,-6.80915 4.10552,-6.90927 z"
     style="fill:#b4aea6;fill-opacity:1;stroke:none;stroke-width:0.264583px;stroke-linecap:butt;stroke-linejoin:miter;stroke-opacity:1" />
  <path
     id="path1130"
     d="m 544.91486,380.08573 c -3.04465,1.98255 -2.54901,6.37252 0.99128,5.31043 3.54029,-1.06209 7.08059,-2.90303 8.99234,-3.75272 1.91176,-0.84965 2.54902,-5.87689 -1.3453,-4.8856 -3.89432,0.99129 -6.0185,1.91177 -8.63832,3.32789 z"
     style="fill:#c2a962;fill-opacity:1;stroke:none;stroke-width:0.264583px;stroke-linecap:butt;stroke-linejoin:miter;stroke-opacity:1" />
  <path
     id="path1132"
     d="m 536.9138,395.5922 c 0.70806,-5.38123 5.45205,-4.74398 5.59366,-0.0708 0.14161,4.67318 -0.49564,13.80715 -0.92047,16.35615 -0.42484,2.54902 -6.44333,4.31916 -6.16011,-1.55774 0.28322,-5.87687 1.06209,-11.54133 1.48692,-14.7276 z"
     style="fill:#c2a962;fill-opacity:1;stroke:none;stroke-width:0.264583px;stroke-linecap:butt;stroke-linejoin:miter;stroke-opacity:1" />
  <path
     id="path1134"
     d="m 542.43666,427.24242 c -3.68191,-3.3987 -1.2037,-6.79738 1.77014,-5.16885 2.97385,1.62854 6.65575,4.74401 8.07187,6.44335 1.41612,1.69934 0.77886,5.38123 -2.76143,3.89432 -3.54029,-1.48693 -5.09802,-3.25707 -7.08058,-5.16882 z"
     style="fill:#c2a962;fill-opacity:1;stroke:none;stroke-width:0.264583px;stroke-linecap:butt;stroke-linejoin:miter;stroke-opacity:1" />
  <path
     id="path1136"
     d="m 558.43877,424.55179 c -1.2745,4.67318 1.62854,6.65576 3.96513,2.69063 2.3366,-3.96515 4.74399,-7.85945 5.45205,-11.11652 0.70806,-3.25707 -1.62853,-6.58495 -3.82351,-2.97386 -2.19498,3.61111 -4.74399,8.56752 -5.59367,11.39975 z"
     style="fill:#c2a962;fill-opacity:1;stroke:none;stroke-width:0.264583px;stroke-linecap:butt;stroke-linejoin:miter;stroke-opacity:1" />
  <path
     id="path1138"
     d="m 564.31566,399.06168 c 2.19498,5.45205 6.0185,3.68191 5.02722,-0.92046 -0.99129,-4.60238 -2.83224,-10.55008 -4.24836,-14.01956 -1.41611,-3.46948 -6.1601,-3.39868 -4.81479,1.84095 1.34531,5.23962 3.11546,10.12523 4.03593,13.09907 z"
     style="fill:#c2a962;fill-opacity:1;stroke:none;stroke-width:0.264583px;stroke-linecap:butt;stroke-linejoin:miter;stroke-opacity:1" />
  <path
     id="path1155"
     d="m 979.4061,434.4646 c 16.90943,0 20.7903,-27.63569 20.7903,-41.31394 0,-13.67828 -5.26689,-36.01015 -19.95868,-36.28929 -14.6918,-0.27915 -19.68146,21.21526 -19.12706,38.52248 0.55441,17.30719 6.09848,38.24331 18.29544,39.08075 z"
     style="fill:#c2c2ba;fill-opacity:1;stroke:none;stroke-width:0.259866px;stroke-linecap:butt;stroke-linejoin:miter;stroke-opacity:1" />
  <path
     id="path1157"
     d="m 969.34531,361.99515 c -6.33556,7.3712 -8.61912,21.38565 -8.23464,33.38857 0.0155,0.48128 0.036,0.96622 0.0592,1.4526 0.006,0.12126 0.0119,0.24265 0.0181,0.36417 0.0238,0.46244 0.0506,0.92662 0.0814,1.3925 0.003,0.0308 0.004,0.0614 0.005,0.0922 0.0326,0.48481 0.0705,0.97165 0.11076,1.45923 0.0117,0.13954 0.0238,0.27942 0.0359,0.41917 0.036,0.41302 0.0743,0.82658 0.11584,1.24072 0.009,0.0858 0.0166,0.17141 0.0254,0.2572 0.0504,0.48914 0.1056,0.9788 0.16389,1.46841 0.0142,0.1197 0.0293,0.23939 0.044,0.35906 0.0514,0.41787 0.10568,0.83561 0.16286,1.25296 0.0135,0.0973 0.0259,0.19461 0.0394,0.29186 0.0674,0.47998 0.13888,0.95903 0.21395,1.43732 0.022,0.13991 0.0451,0.27945 0.0678,0.41917 0.0593,0.36613 0.12075,0.73161 0.18461,1.09607 0.0256,0.14559 0.0506,0.29124 0.0769,0.43652 0.0826,0.45721 0.16855,0.9129 0.25844,1.36652 0.0302,0.15213 0.0621,0.30315 0.0931,0.45482 0.0676,0.33095 0.13735,0.66065 0.20888,0.98912 0.0366,0.16802 0.0726,0.3364 0.11026,0.50372 0.1005,0.44676 0.20414,0.89128 0.31207,1.33241 0.028,0.11451 0.0575,0.22766 0.086,0.34177 0.0877,0.35075 0.17814,0.69909 0.27061,1.04564 0.0445,0.16661 0.089,0.33306 0.13453,0.49863 0.10724,0.38965 0.21737,0.77683 0.33077,1.16027 0.0452,0.15284 0.0919,0.30404 0.13808,0.45584 0.0983,0.32295 0.19867,0.6437 0.30145,0.96161 0.0543,0.16807 0.10928,0.33562 0.16488,0.50221 0.10701,0.32065 0.21657,0.63809 0.32826,0.95295 0.0635,0.17889 0.12769,0.35685 0.19269,0.53379 0.11622,0.31634 0.23449,0.62943 0.35558,0.93918 0.0643,0.16445 0.12956,0.32749 0.19523,0.48998 0.11482,0.28411 0.23244,0.56458 0.35151,0.84243 0.1849,0.43143 0.37277,0.85796 0.568,1.27332 1.3e-4,0 -1.2e-4,0 0,0 0.41929,0.89212 0.86325,1.74569 1.3307,2.5548 0.005,0.009 0.0104,0.0188 0.0158,0.028 0.30933,0.53412 0.62878,1.04887 0.95947,1.54226 0.007,0.0104 0.0143,0.0203 0.0212,0.0306 0.16234,0.24143 0.32714,0.47798 0.49466,0.70898 0.003,0.003 0.003,0.004 0.004,0.006 5.5566,-6.62088 9.66394,-18.86347 9.66394,-26.81312 0,-9.55654 1.18474,-23.8006 -10.06098,-39.53005 z"
     style="fill:#424240;fill-opacity:1;stroke:none;stroke-width:0.259867px;stroke-linecap:butt;stroke-linejoin:miter;stroke-opacity:1" />
  <path
     id="path1192"
     d="m 322.93857,115.41351 c 5.09802,0.28323 5.66447,2.12418 5.87688,7.2222 0.21242,5.09802 0.56645,45.59896 0.21242,48.99763 -0.35403,3.39869 -1.69934,4.17755 -4.8856,4.46077 -3.18626,0.28323 -12.39102,0.63726 -16.00212,0.0708 -3.6111,-0.56644 -4.67318,-0.99128 -5.45205,-8.49669 -0.77886,-7.50542 -0.28322,-40.85497 0.14161,-44.8909 0.42484,-4.03594 1.1329,-5.73528 4.8148,-6.23092 3.6819,-0.49564 11.68296,-1.13289 15.29406,-1.13289 z"
     style="fill:#2b2d2e;fill-opacity:1;stroke:none;stroke-width:0.264583px;stroke-linecap:butt;stroke-linejoin:miter;stroke-opacity:1" />
  <path
     id="path1181"
     d="m 335.97476,76.60134 c -0.53243,0.004 -1.12323,0.0103 -1.77819,0.0103 -5.55915,0.53577 -4.85488,1.06642 -4.75475,2.66857 0.10014,1.60216 -0.8011,1.50207 -3.1042,1.80248 -2.30309,0.3004 -17.0226,2.20299 -20.42718,3.1042 -3.40457,0.90121 -4.40574,3.20461 -3.80493,8.61188 0.60081,5.40726 2.10267,21.82912 2.50321,26.63558 0.40053,4.80646 1.20147,25.13374 1.20147,28.53831 0,3.40458 0.6007,4.40621 2.10272,4.20595 1.50201,-0.20027 1.80271,-1.30202 2.00297,-5.50768 0.20027,-4.20565 -1.70257,-22.12964 -2.00297,-26.73583 -0.30041,-4.60619 -1.80222,-17.42357 -0.70074,-23.43165 1.10148,-6.00807 4.30584,-6.00788 9.71311,-5.10666 5.40726,0.90121 7.61015,1.00109 9.61284,1.10122 2.00269,0.10014 3.70481,-0.20024 3.80494,0.90124 0.10013,1.10148 0.87998,1.48049 5.41156,1.76372 4.53157,0.28322 4.95627,-0.99142 5.09788,-2.97398 0.14161,-1.98257 -0.28319,-8.35507 -0.28319,-12.17859 0,-3.34557 -0.86757,-3.43813 -4.59455,-3.40909 z m -7.05384,6.37635 c 0.85846,0.0165 1.12828,0.89667 1.22215,3.71295 0.10014,3.00404 -2.6e-4,3.80466 -1.10174,4.00493 -1.10148,0.20027 -1.30185,-0.90115 -1.40198,-3.90519 0,-3.60484 0.10039,-3.7048 1.10174,-3.80494 0.0626,-0.006 0.1226,-0.009 0.17983,-0.008 z m -7.18612,1.17874 c 2.06997,0.0383 2.30012,0.8819 2.30012,3.3352 0,2.80377 -0.40073,2.6035 -2.80396,2.20297 -2.40323,-0.40054 -3.25463,-0.65079 -4.60644,-0.80099 -1.35182,-0.1502 -2.00234,-0.45089 -1.90221,-2.00298 0.10014,-1.55208 -0.15052,-2.00264 1.0511,-2.15284 1.20161,-0.1502 3.25451,-0.3506 4.9568,-0.55087 0.37551,-0.025 0.70888,-0.036 1.00459,-0.0305 z m -10.76782,1.48363 c 0.53567,0.0299 0.67674,0.29807 0.66559,1.1529 -0.0147,1.12474 -0.85104,1.23201 -2.55333,2.58383 -1.70229,1.35181 -2.51819,1.56914 -2.51819,0.017 0,-1.55209 0.10031,-1.95253 0.15038,-2.55333 0.0501,-0.60081 0.1,-0.75098 0.75085,-0.85112 0.65088,-0.10013 1.39636,-0.13907 2.30323,-0.25011 0.38694,-0.0474 0.6983,-0.0869 0.94722,-0.0987 0.0933,-0.004 0.17773,-0.005 0.25425,-5.3e-4 z"
     style="fill:#3a3a3a;fill-opacity:1;stroke:none;stroke-width:0.264583px;stroke-linecap:butt;stroke-linejoin:miter;stroke-opacity:1" />
  <path
     id="path2276"
     d="m 107.63251,41.83604 c 2.83371,0.0738 2.83371,0.49876 2.56638,2.30786 -0.26733,1.80911 -0.58813,2.02525 -2.94065,2.05217 -2.35252,0.0269 -3.63571,0.0416 -5.02582,0.0575 -1.39013,0.0159 -1.49706,-0.036 -1.81787,2.41116 -0.32079,2.44714 -1.06932,3.35872 2.61985,3.36963 3.68918,0.0109 3.79611,0.27528 3.58225,2.03065 -0.21387,1.75537 -0.802,2.08081 -2.24559,2.04421 -1.44359,-0.0366 -2.94065,-0.0195 -3.68918,-0.0109 -0.74852,0.009 -1.01586,0.38346 -1.33665,2.56501 -0.32081,2.18154 -0.32081,2.92521 1.12279,3.01493 1.44359,0.0897 4.06344,0.0597 5.5605,0.0957 1.49705,0.036 1.81786,0.29791 1.60399,2.21264 -0.21387,1.91473 -0.3208,2.12843 -2.61985,2.15473 -2.29905,0.0263 -7.96649,0.0913 -9.62394,0.11035 -1.65746,0.019 -1.97825,-0.13672 -1.81786,-1.83836 0.1604,-1.70164 2.61985,-19.09967 2.83371,-20.37698 0.21388,-1.2773 0.16041,-1.96724 1.65746,-2.0906 1.49706,-0.12337 7.37836,-0.19066 9.57048,-0.10949 z"
     style="fill:#9cb77a;fill-opacity:1;stroke:none;stroke-width:0.128708px;stroke-linecap:butt;stroke-linejoin:miter;stroke-opacity:1" />
  <path
     id="path2278"
     d="m 121.31989,42.05338 c 2.56638,0.13084 2.51291,0.23839 2.40598,1.95054 -0.10693,1.71216 -0.26733,4.17346 -0.37426,5.51135 -0.10694,1.33788 0.32079,1.70722 1.60398,1.74591 1.2832,0.0387 2.13866,0.18923 2.35252,-1.52415 0.21387,-1.71339 0.6416,-4.97976 0.69507,-6.26357 0.0535,-1.2838 0.53466,-1.39628 2.61984,-1.31336 2.08519,0.0829 2.08519,0.18985 2.08519,1.74037 0,1.55053 -0.16039,2.51477 -0.42773,3.64064 -0.26733,1.12587 -4.56567,5.2075 -4.6726,6.59885 -0.10693,1.39136 1.25076,3.33183 2.26662,4.44292 1.01586,1.11109 1.39012,2.38998 1.17625,4.63803 -0.21386,2.24804 -0.58812,2.94742 -2.40598,2.91489 -1.81785,-0.0325 -2.29905,-0.34779 -2.19212,-1.89955 0.10694,-1.55175 0.26734,-2.89026 0.3208,-4.38793 0.0535,-1.49767 -0.64159,-3.14712 -1.92479,-3.29274 -1.28319,-0.14562 -2.67331,0.88625 -2.94064,3.40224 -0.26734,2.516 -0.42773,3.85451 -0.53467,4.81813 -0.10693,0.96363 -0.37426,1.50137 -2.13865,1.41476 -1.76439,-0.0866 -2.51292,-0.45226 -2.45945,-2.0034 0.0535,-1.55114 0.21386,-3.10351 0.64159,-4.07083 0.42773,-0.96732 1.17626,-1.671 2.72679,-2.75818 1.55052,-1.08719 1.92747,-1.94699 2.0344,-3.12448 0.10694,-1.17749 -0.85814,-2.93077 -1.98094,-3.82676 -1.12279,-0.896 -1.55052,-1.58613 -1.44359,-3.03096 0.10693,-1.44482 0.37427,-3.69348 0.4812,-4.33631 0.10693,-0.64283 0.26733,-1.01894 2.08519,-0.98641 z"
     style="fill:#9cb77a;fill-opacity:1;stroke:none;stroke-width:0.129128px;stroke-linecap:butt;stroke-linejoin:miter;stroke-opacity:1" />
  <path
     id="path2280"
     d="m 150.0312,41.88305 c -1.55052,0.0179 -4.54447,0.10581 -5.98806,0.28284 -1.44359,0.17702 -1.49708,0.65886 -1.71094,2.05145 -0.21387,1.39259 -2.35256,17.93832 -2.56642,19.75864 -0.21387,1.82032 -0.1069,2.19338 2.19215,2.11344 2.29905,-0.0799 2.24561,-0.50709 2.40601,-1.84559 0.1604,-1.33851 0.48121,-3.80173 0.69508,-5.72898 0.21386,-1.92725 0.26735,-1.98136 1.39014,-2.04776 1.12279,-0.0664 0.64139,-0.007 3.1543,-0.0898 2.51292,-0.0824 5.07937,-2.62472 5.50711,-6.85349 0.42772,-4.22876 -0.37433,-7.48107 -5.07937,-7.64075 z m -2.44713,4.22283 c 0.25771,-0.008 0.5691,0.003 0.95005,0.0183 2.03172,0.0835 2.19214,0.18865 1.81788,2.27814 -0.37426,2.0895 -0.53445,2.83991 -2.5127,2.80923 -1.97825,-0.0307 -2.40601,-0.29313 -1.87134,-2.75874 0.39097,-1.91592 0.49936,-2.31101 1.61611,-2.34695 z"
     style="fill:#9cb77a;fill-opacity:1;stroke:none;stroke-width:0.129128px;stroke-linecap:butt;stroke-linejoin:miter;stroke-opacity:1" />
  <path
     id="path2285"
     d="m 166.98,41.32741 c -1.39012,0.0149 -1.33642,0.81067 -1.65722,2.74248 -0.3208,1.93182 -2.51296,18.27284 -2.56643,20.08511 -0.0535,1.81226 0.3743,2.11067 2.08522,2.08006 1.71092,-0.0306 2.40577,-0.22439 2.6731,-3.64388 0.26733,-3.41949 0.90896,-3.29129 2.19215,-2.13 1.28319,1.16129 1.92481,2.88633 1.87135,4.11312 -0.0535,1.22679 0.90896,1.39255 2.56642,1.36455 1.65745,-0.028 2.35255,-0.64756 2.40601,-1.9808 0.0535,-1.33324 -0.32082,-2.00687 -2.08521,-3.78328 -1.76439,-1.77641 -1.81786,-3.10447 -0.10694,-4.25281 1.71092,-1.14833 3.15456,-3.50759 3.36843,-7.40349 0.21386,-3.89589 -1.44368,-7.22116 -6.46951,-7.18777 -1.65746,-0.0252 -2.88724,-0.0182 -4.27737,-0.003 z m 3.68066,5.61418 c 0.10288,-0.004 0.21241,-0.007 0.32937,-0.009 1.87132,-0.0385 2.40602,-0.0114 2.29908,2.17604 -0.10693,2.18746 -0.42776,2.94836 -2.40601,2.93886 -1.97826,-0.01 -2.40602,-0.25471 -2.13869,-2.71615 0.35087,-2.06303 0.37295,-2.33233 1.91625,-2.38964 z"
     style="fill:#9cb77a;fill-opacity:1;stroke:none;stroke-width:0.128836px;stroke-linecap:butt;stroke-linejoin:miter;stroke-opacity:1" />
  <path
     style="fill:#9cb77a;fill-opacity:1;stroke:none;stroke-width:0.126609px;stroke-linecap:butt;stroke-linejoin:miter;stroke-opacity:1"
     d="m 198.41386,41.1087 c 2.77844,0.0728 2.77844,0.49223 2.51633,2.27764 -0.26212,1.78542 -0.57666,1.99874 -2.88329,2.0253 -2.30663,0.0266 -3.56479,0.0411 -4.92779,0.0568 -1.36301,0.0157 -1.46786,-0.0355 -1.78241,2.37958 -0.31453,2.4151 -1.04846,3.31475 2.56875,3.32551 3.61722,0.0108 3.72206,0.27168 3.51237,2.00406 -0.20969,1.73239 -0.78635,2.05357 -2.20178,2.01745 -1.41543,-0.0361 -2.88329,-0.0192 -3.61722,-0.0108 -0.73392,0.008 -0.99604,0.37843 -1.31058,2.53142 -0.31455,2.15298 -0.31455,2.88691 1.10089,2.97545 1.41543,0.0885 3.98418,0.059 5.45203,0.0945 1.46786,0.0355 1.7824,0.29401 1.5727,2.18367 -0.20969,1.88965 -0.31454,2.10056 -2.56874,2.12652 -2.2542,0.026 -7.81109,0.09 -9.43621,0.10867 -1.62513,0.0187 -1.93967,-0.13493 -1.7824,-1.81429 0.15727,-1.67935 2.56874,-18.84957 2.77843,-20.11015 0.20971,-1.26058 0.15728,-1.94148 1.62513,-2.06323 1.46786,-0.12175 7.23443,-0.18817 9.38379,-0.10808 z"
     id="path2290" />
  <path
     id="path2292"
     d="m 216.88639,40.61476 c 4.8672,0.0641 6.36942,3.29162 6.36942,5.27455 0,1.98293 -0.24036,2.46641 -1.98293,2.42639 -1.74258,-0.04 -2.1632,-0.21544 -2.10311,-1.23764 0.0601,-1.02221 -0.60089,-1.61548 -2.58382,-1.59264 -1.98293,0.0228 -2.58382,0.81091 -2.82418,2.91679 -0.24035,2.10587 0.60089,2.75716 2.76409,2.79234 2.1632,0.0352 5.8887,1.13395 5.46808,7.0275 -0.42062,5.89355 -3.78559,7.13408 -7.81154,7.12035 -4.02595,-0.0137 -6.06897,-3.41525 -6.00888,-4.91816 0.0601,-1.50291 -0.18027,-2.10103 1.86275,-2.06447 2.04302,0.0366 2.28337,0.39432 2.40355,1.35436 0.12018,0.96004 0.42062,1.67764 2.28338,1.71627 1.86275,0.0386 2.46364,-0.86961 2.70399,-2.55487 0.24036,-1.68525 -0.42062,-2.87942 -2.58382,-2.97468 -2.16319,-0.0953 -5.94879,-0.83282 -5.28781,-7.63047 0.66098,-6.79765 5.10755,-7.6901 7.33083,-7.65562 z"
     style="fill:#9cb77a;fill-opacity:1;stroke:none;stroke-width:0.129128px;stroke-linecap:butt;stroke-linejoin:miter;stroke-opacity:1" />
  <path
     style="fill:#9cb77a;fill-opacity:1;stroke:none;stroke-width:0.129128px;stroke-linecap:butt;stroke-linejoin:miter;stroke-opacity:1"
     d="m 239.72014,40.35178 c 4.8672,0.0641 6.36942,3.29162 6.36942,5.27455 0,1.98293 -0.24036,2.46641 -1.98294,2.42639 -1.74257,-0.04 -2.16319,-0.21544 -2.1031,-1.23764 0.0601,-1.0222 -0.60089,-1.61548 -2.58382,-1.59264 -1.98293,0.0228 -2.58382,0.81091 -2.82418,2.91679 -0.24035,2.10587 0.60089,2.75716 2.76409,2.79234 2.1632,0.0352 5.8887,1.13395 5.46808,7.0275 -0.42062,5.89355 -3.78559,7.13408 -7.81155,7.12036 -4.02595,-0.0137 -6.06896,-3.41526 -6.00888,-4.91817 0.0601,-1.50291 -0.18026,-2.10103 1.86276,-2.06447 2.04302,0.0366 2.28337,0.39432 2.40355,1.35436 0.12018,0.96004 0.42062,1.67764 2.28337,1.71628 1.86276,0.0386 2.46365,-0.86962 2.704,-2.55488 0.24036,-1.68525 -0.42062,-2.87941 -2.58382,-2.97468 -2.16319,-0.0953 -5.94879,-0.83282 -5.28781,-7.63047 0.66097,-6.79764 5.10755,-7.6901 7.33083,-7.65562 z"
     id="path2294" />
  <path
     style="fill:#c5c5c5;fill-opacity:1;stroke-width:0.873363"
     d="m 537.92197,521.38581 c -10.45437,2.52524 -9.88002,2.69382 -85.06687,-25.00113 -38.73427,-14.2677 -72.07077,-26.91473 -74.08098,-28.10437 -2.01026,-1.18997 -5.12989,-3.64729 -6.93375,-5.46058 -1.80324,-1.81321 -3.43978,-3.38517 -3.63632,-3.49202 -0.19941,-0.10552 -2.43453,3.04938 -4.9722,7.01423 -16.72303,26.12652 -43.01377,48.58568 -73.05385,62.40738 -42.52749,19.56727 -88.47583,21.51289 -132.55584,5.61279 -35.11865,-12.6676 -64.86841,-36.23336 -86.322,-68.37842 C 64.17452,455.3065 53.04358,431.17252 49.83321,419.43425 41.5411,389.13208 40.54923,361.41862 46.7135,332.23514 c 2.17426,-10.29373 11.31415,-34.99856 16.36341,-44.22982 14.43357,-26.38812 34.85436,-48.37069 60.75993,-65.40686 8.73121,-5.74172 34.20534,-17.17945 44.96823,-20.19129 50.10284,-14.015 100.03781,-6.67689 143.75013,21.12462 43.88288,27.90992 73.91072,77.67914 78.88634,130.74895 1.01868,10.86104 0.72155,27.59833 -0.66478,37.48647 -1.25736,8.9673 -1.23039,9.55808 0.39818,8.80877 0.59616,-0.2743 4.11003,-0.39525 7.80904,-0.26893 6.13685,0.20978 12.98355,2.54786 78.24067,26.71928 62.28081,23.06876 72.0475,26.94789 75.63539,30.04096 23.24654,20.03986 14.62233,57.17724 -14.93585,64.31628 z M 291.24163,477.74378 c 35.47116,-24.31307 56.71774,-64.57552 56.69962,-107.44601 -0.0137,-32.50495 -12.99021,-65.74301 -34.61254,-88.65669 -24.21874,-25.66525 -54.82764,-39.8807 -89.812,-41.71065 -45.08131,-2.35808 -90.45388,20.75458 -115.23455,58.7002 -10.04618,15.38328 -17.91118,36.6455 -20.31876,54.92958 -4.45356,33.82276 5.8617,70.80493 27.21964,97.58744 42.93949,53.84556 119.44292,65.40246 176.05859,26.59613 z"
     id="path1458" />
</svg>
