<svg width="4254.4" height="1965.3" version="1.1" viewBox="0 0 4254.4 1965.3" xmlns="http://www.w3.org/2000/svg">
 <g transform="translate(-110.24 -959.09)">
  <path d="m2320.7 998.17c-387.2 5.0286-817.14 42.743-965.49 55.314s-223.77 52.8-226.29 168.46c-2.5143 115.66 812.11-32.686 812.11-32.686z" fill="#c9c9c9"/>
  <path d="m2778.3 1252.1 143.31 326.86 123.2 696.46-402.89-88.65-2499.7 14.223-24.89-348.46 28.446-465.8z" fill="#151515"/>
  <g fill="#090909">
   <path d="m2211.7 2720.1c-17.779 138.67-67.559 170.68-209.79 177.79s-248.9-46.225-256.01-152.9c-7.1114-106.67 465.8-24.89 465.8-24.89z"/>
   <path d="m1084.5 2826.8c184.9-7.1115 704.04-24.89 746.7-24.89 42.669 0-21.334-209.79-21.334-209.79l-768.04 99.561z"/>
   <path d="m4306 2492.6c21.334 186.68 42.669 369.8-160.01 375.13s-186.68-113.78-190.23-240.01c-3.5558-126.23 350.24-135.12 350.24-135.12z"/>
  </g>
  <g>
   <path d="m3987.8 2716.6c-72.893 42.669-49.78 33.78-458.69 53.336-408.91 19.556-545.81 19.556-572.47 21.334s53.336-163.56 53.336-163.56l995.61 17.779z" fill="#0f0f0f"/>
   <path d="m2559.5 2765.7c77.943-2.5143 119.43-2.5143 133.26-2.5143s194.86-411.09 194.86-411.09l-228.8-101.83-191.09 139.54z" fill="#0d0d0d"/>
   <path d="m2777 2924.1c120.69 1.2571 167.2 0 193.6-45.257 26.4-45.257 41.486-132 44-216.23 2.5143-84.229-111.89-221.26-111.89-221.26s10.057-44-23.886-52.8c-33.943-8.8-116.91-2.5143-128.86-2.5143s14.457 88 14.457 88z" fill="#151515"/>
   <path d="m587.59 2752.1c84.449 0 120.01-2.6668 123.56-0.8889 3.5557 1.7779 134.23-340.46 134.23-340.46l-115.56-80.004-132.45 56.003z" fill="#0d0d0d"/>
   <path d="m783.2 2902.7c155.89-3.7715 214.97-5.0286 264-7.5429 49.029-2.5143 82.971-27.657 95.543-99.314 12.571-71.657 0-109.37-3.7715-128.23-3.7714-18.857-257.71-242.63-257.71-242.63s-67.882-4.4607-90.106-3.5717c-22.223 0.8889-7.9515 481.29-7.9515 481.29z" fill="#151515"/>
   <path d="m784.46 2902.7c91.771-2.5143 109.37-154.63 104.34-237.6-5.0286-82.972-35.2-247.66-103.09-245.14-67.886 2.5143-118.17 81.714-116.91 238.86 1.2572 157.14 40.229 245.14 115.66 243.89z" fill="#1b1b1b"/>
   <path d="m3053.9 2438.3c-40.002-1.3334-165.34-3.1112-176.45-2.6668-11.112 0.4445-14.667-4.4447-22.668-16.001s-51.384-105.28-144.41-102.76-135.14 164.69-137.03 246.4 5.6572 174.74 5.6572 187.94-1.2572 15.714-22.629 15.714-826.57-2.5143-913.31-5.0285c-86.743-2.5143-718.59-7.1357-739.04-8.0246-20.445-0.889-32.891-0.889-37.335-46.225-4.4447-45.336-8.8893-118.23-27.557-188.45s-61.336-161.79-120.01-161.79-89.782 88.893-103.12 148.45c-13.334 59.559-4.4447 181.34-4.4447 208.9 0 27.557 6.2225 37.335-20.445 38.224-26.668 0.889-179.56 0-258.68-2.6668-79.115-2.6668-143.12-2.6668-168.9-37.335s-38.224-169.79-40.891-240.9c-2.6668-71.115-10.787-444.35-12.044-538.64s0-281.6 11.314-416.11c11.314-134.51 5.0286-248.91 115.66-257.71s1206.9-72.914 1362.7-88c155.89-15.086 246.4-38.971 393.49-91.771s252.69-86.743 372.11-91.771c119.43-5.0286 181.03-8.8 230.69 5.6571 49.657 14.457 54.686 64.114 54.686 64.114s191.5 216.85 120.38 220.4c-71.115 3.5558-2536 141.03-2575.6 145.43s-43.371 10.686-44.629 28.286c-1.2571 17.6-20.743 237.6-22 321.83-1.2571 84.228 11.314 232.57 17.6 305.49 6.2857 72.914 25.143 101.83 113.14 98.057 88-3.7714 470.17-8.8 550.63-10.057 80.457-1.2572 1644.3-33.943 1746.2-36.457 101.83-2.5142 203.66 6.2858 300.46 42.743s154.63 56.571 178.51 79.2 17.934 185.55 17.934 185.55z" fill="#dedede"/>
   <path d="m3091.3 2295.5-59.086 10.057 15.434 115.04-187.07 7.0371c8.4449 15.112 7.5556 17.334 11.111 24.445 3.5557 7.1115 191.57 10.668 191.57 10.668l-0.1719-4.1094 299.13 23.545 33.943 155.26-50.223 49.762s-40.607 15.609 3.707 14.98c44.314-0.6286 49.03-20.742 65.688-20.113 16.657 0.6286 15.398-43.373 15.398-43.373l-12.346-114.17-78.168-164.29-126.34-57.199z" fill="#2b2b2b"/>
   <path d="m3122.8 2699.7c-20.446 18.668-91.56 16.001-128.01-15.112s-57.505-70.353-71.962-118.75c-14.457-48.4-36.932-90.147-45.377-104.37-8.4448-14.223-10.667-20.446 3.1113-20.446s164.45 1.7779 172.45 1.7779c8.0004 0 69.781 256.9 69.781 256.9z" fill="#cd5c3f"/>
   <path d="m3975.1 2649.1c-7.4162 18.293-6.9218 29.665-6.1802 30.901 0.7416 1.2361 14.585-6.6745 14.585-6.6745l32.137-26.698 48.947-59.824 16.316-68.723 21.354-60.338 244.72-43.351s11.537-0.3496 8.7401-6.6425c-2.7968-6.2928-7.3417-11.886-6.2929-15.732 1.0489-3.8456-6.6424-123.06-6.6424-123.06l-51.741-16.781-68.522 25.171-91.596 41.952-57.335 122.36-50.343 138.44z" fill="#2b2b2b"/>
   <path d="m4359.5 2274.5c-0.3496-63.977-26.919-113.62-52.091-118.86-25.171-5.2441-2.7968 57.335-2.7968 57.335z" fill="#e3af7e"/>
   <path d="m4298.9 2198.2c30.159 1.4832 62.296 12.36 64.768 84.05 2.4721 71.69-0.4944 97.894-3.4609 106.79-2.9664 8.8995-16.316 10.383-17.304 1.4833-0.9888-8.8995 1.4832-77.128-5.4386-97.399-6.9217-20.271-15.327-26.698-37.575-21.754-22.249 4.9442-22.869-1.3624-25.317-5.5576-2.4472-4.1953-12.586-43.7-12.586-43.7z" fill="#e3e3e3"/>
  </g>
  <g>
   <path d="m2022.7 2505.5-5.0957 0.4864c-8.3948 43.275-18.06 120.14-26.646 194.07 29.725 25.138 63.16 51.074 85.986 65.121 38.561 0.1773 76.206 0.3587 114.04 0.5156z" fill="#aa3f38"/>
   <path d="m2575.3 2535.2-25.82 5.4355-30.892 226.18c15.603 0.046 35.721 0.1074 37.807 0.1074 21.371 0 22.629-2.5129 22.629-15.713s-7.5439-106.23-5.6582-187.94c0.1975-8.5607 0.8426-18.014 1.9355-28.064z" fill="#b7503f"/>
   <path d="m2559.5 2572.1-146.39 194.4c76.108 0.2624 133.55 0.442 140.93 0.4492-4.5654-36.846 0.4393-122.62 5.4551-194.85z" fill="#aa3f38"/>
   <path d="m2310 2136.2c-44.109 0.9362-101.91 2.1492-153.43 3.2363l34.65 64.232z" fill="#ca4f3a"/>
   <path d="m3040.2 2393.5c-31.486-0.2765-169.52 22.73-169.52 22.73l-1.8593 18.227c2.3826 0.9688 5.1394 1.3652 8.6543 1.2246 11.112-0.4444 136.45 1.3326 176.45 2.666 0 0 0.5852-16.028 0.6523-38.715-3.3025-3.4471-7.1623-5.6931-11.672-6.0313-0.7858-0.059-1.6894-0.093-2.7051-0.1016z" fill="#b7503f"/>
   <path d="m2231.3 2137.9c-23.38 0.4946-49.4 1.0416-74.357 1.5683l-0.3965 0.2364 32.891 60.447c10.667-36.446 14.222-54.224 41.779-62.225 0.031-0.01 0.053-0.018 0.084-0.027z" fill="#cd5c3f"/>
   <path d="m2216.3 2138.2c-45.188 0.9554-91.455 1.9313-141.64 2.9883 39.55 29.402 115.82 82.903 111.2 54.504-5.7027-35.031-4.6592-43.933 30.447-57.492z" fill="#aa3f38"/>
   <path d="m2098.1 2140.7c-54.33 1.1449-97.336 2.0607-155.44 3.2813 29.519 85.29 51.462 146.59 59.248 163.72 35.557 78.226 35.556 106.67 17.777 188.45-1.2233 5.6274-2.4817 12.12-3.7637 19.268l8.1055 5.1778 168.46-158.4-1.2578-163.43s-48.47-29.331-93.127-58.072z" fill="#e18656"/>
   <path d="m1991.7 2694.1c-2.822 24.178-5.5443 48.168-8.0625 70.631 34.586 0.1761 70.313 0.3248 105.85 0.4863z" fill="#b7503f"/>
   <path d="m2186.2 2196.2-166.86 301.54c-2.0041 9.4209-4.092 20.957-6.2344 34.15 4.7033 10.891 58.357 134.96 78.807 173.46 16.925 31.859 24.408 51.879 49.26 60.084 18.792 0.081 36.479 0.164 54.941 0.2402l31.57-514.15z" fill="#e29360"/>
   <path d="m2189.9 2200s-15.609 447.25-15.609 491.69c0 33.463 4.033 54.832 14.371 73.973 31.091 0.1292 58.498 0.2305 87.807 0.3438l44.174-157.44-30.172-261.49z" fill="#cd5c3f"/>
   <path d="m2290.5 2624.9s-36.176 60.556-49.51 95.225c-7.5604 19.657-11.116 34.447-12.457 45.684 49.702 0.1996 98.161 0.3901 140.65 0.5429z" fill="#ca4f3a"/>
   <path d="m2533.1 2530.6-242.63 94.285s10.058 81.714 12.572 101.83c1.7181 13.744 6.3783 29.831 19.982 39.447 75.923 0.283 139.09 0.5024 180.57 0.6308 2.5048-3.947 3.1074-10.191 3.1074-21.221 0-22.629 49.029-155.88 55.314-170.97 6.2858-15.086-28.914-44-28.914-44z" fill="#be5a4d"/>
   <path d="m2564.6 2564.6-274.06 60.343-104.34-427.43 80.457-1.2571 301.71 346.97z" fill="#e18656"/>
   <path d="m2518 2131.7c-45.398 1.0067-133.69 2.8941-244.32 5.2383-68.526 16.396-88.308 63.341-83.689 66.805 5.0285 3.7715 286.63 280.34 377.14 355.77z" fill="#cd5c3f"/>
   <path d="m2585.7 2130.5c-9.5423 0.023-19.088 0.1608-28.635 0.3965-11.018 0.2721-43.82 0.9927-87.193 1.9297-11.576 10.329-6.8608 29.592-2.1543 50.436 6.2225 27.557 95.115 368.02 95.115 368.02l66.807-420.04c-14.627-0.5461-29.278-0.7801-43.939-0.7442z" fill="#e29360"/>
   <path d="m2589.4 2130.5c-19.424 13.778-21.766 25.474-20.396 74.092 1.7778 63.114-7.1113 351.13-7.1113 351.13l11.691 1.2188c3.2936-71.564 34.853-195 100.92-230.32l-10.34-193.47c-24.839-1.8303-49.784-2.6295-74.762-2.6465z" fill="#cd5c3f"/>
   <path d="m2637.9 2131.5c-10.423 19.157-7.7023 33.484 2.084 87.309 8.0678 44.373 16.755 87.069 21.772 115.94 14.334-10.827 30.511-17.393 48.629-17.883 77.711-2.1004 120.68 62.809 137.42 91.025l29.783-10.568-127.22-253.3c-37.132-6.8992-74.707-10.796-112.47-12.52z" fill="#aa3f38"/>
   <path d="m2717.4 2138.7c-1.1242 10.949 6.6428 27.349 17.527 54.359 16.971 42.114 59.086 133.26 121.94 206.8l8.7988 1.2578 15.617-218.62c-7.7706-2.9127-15.44-5.784-23.787-8.9277-45.753-17.232-92.631-28.273-140.1-34.873z" fill="#ca4f3a"/>
   <path d="m2864.2 2176.1c-22.094 4.3222-23.843 15.894-24.35 37.695-0.6286 27.028 8.1729 84.857 17.602 186.06l9.4278 1.2578 88.629-176s-5.6116-9.4839-15.197-20.264c-21.807-8.437-47.266-17.904-76.111-28.746z" fill="#e18656"/>
   <path d="m2919.3 2196.8c-16.371 1.2202-27.842 7.8134-34.117 31.467-8.1715 30.8-15.086 89.258-22 170.34l14.457 11.314 143.54-168.37c-21.132-13.332-54.84-26.952-101.88-44.76z" fill="#e29360"/>
   <path d="m3000.8 2230.4c-23.492 0.9687-41.832 10.206-54.707 28.033-16.343 22.629-35.2 56.572-77.314 147.09l-2.5156 18.228 187.95 3.5019c-7.5127-36.562-21.779-97.363-31.462-139.19-1.2133-4.5028 20.78-20.734 19.462-24.746-1.8113-4.679-3.8756-8.2985-6.2344-10.533-7.9224-7.5054-19.604-14.736-35.178-22.377z" fill="#cd5c3f"/>
   <g fill="#dedede">
    <path d="m2858.2 2389.2c-7.7663 0.022-12.437 4.4051-14.537 11.953 5.6456 9.0269 9.3156 15.927 11.135 18.555 6.0145 8.6876 9.518 13.604 15.607 15.322 5.5048-2.3329 10.102-7.3886 9.6953-18.774-0.6286-17.6-8.1726-26.401-20.744-27.029-0.3929-0.02-0.7781-0.028-1.1563-0.027z"/>
    <path d="m2565.2 2538.8c-6.2857 0-10.686 5.6558-10.686 23.256s1.8865 23.258 8.8008 23.258c3.8882 0 7.3783-1.9879 9.8007-4.3985 0.045-5.901 0.1216-11.782 0.2559-17.602 0.1548-6.7073 0.5863-13.964 1.2891-21.623-2.6972-2.8793-5.6017-2.8906-9.461-2.8906z"/>
    <path d="m2189 2210.8c7.5559-0.4445 7.1114-6.667 5.778-12.89-1.3334-6.2225-3.5557-10.667-8.0004-9.7783-4.4446 0.889-5.778 3.1113-4.8891 11.112s0.4445 11.556 7.1115 11.556z"/>
   </g>
  </g>
  <path d="m3033.5 2234.6c-27.657-2.5143-32.686 3.7715-28.286 45.886 4.4 42.114 28.914 130.74 32.686 144.57 3.7714 13.828 6.2857 13.2 12.571 13.828 6.2858 0.6286 13.829 0 9.4286-16.971s-12.7-42.371-17.843-67.243c-4.3741-21.154-4.1572-27.672 5.9-38.357 10.057-10.686 25.143-15.086 44-12.571 18.857 2.5143 22.866 2.6389 20.888-10.336-2.0233-13.271-1.6155-21.971-6.0155-27s-73.329-31.807-73.329-31.807z" fill="#dfdfdf"/>
  <path d="m2315.7 1199.3 5.9942 103.88c18.153-1.0111 39.844-2.2233 57.168-3.1875l-5.3321-90.639z" fill="#e18656"/>
  <g>
   <path d="m2707.9 1149-75.428 20.113-29.605 118.43c90.535-5.0147 158.92-8.7868 168.85-9.2832 22.76-1.138 18.588-24.142 2.4355-54.873z" fill="#e29360"/>
   <path d="m2677.7 1184.2-105.6 12.572-2.5156 90.514 8.2207 1.6445c18.754-1.0397 44.056-2.4476 60.221-3.3418z" fill="#e18656"/>
   <path d="m2612.3 1184.2-103.09 2.5137 6.0977 105.68c40.961-2.2744 84.441-4.6888 116.19-6.4453z" fill="#ca4f3a"/>
   <path d="m2363.4 1191.8-29.818 110.76c104.04-5.7944 189.64-10.551 260.54-14.478l-92.43-96.281z" fill="#be5a4d"/>
   <path d="m2240.2 1181.7-39.453 128.22c43.853-2.4456 87.038-4.8544 127.24-7.0937l15.295-93.471z" fill="#e29360"/>
   <path d="m2164.8 1196.8-135.77 35.199-41.938 89.865c66.562-3.7193 126.7-7.0773 188.12-10.504z" fill="#e29360"/>
   <path d="m2184.9 1206.9-9.084 104.47c27.458-1.5317 52.366-2.9183 78.535-4.377l38.664-97.578z" fill="#b7503f"/>
   <path d="m1936.1 1201.8 4.541 122.62c18.88-1.0554 38.816-2.172 57.377-3.209l39.42-85.635zm206.23 17.777-1.5117 93.662c27.617-1.5411 51.083-2.8484 77.516-4.3223l-22.668-78.672z" fill="#e18656"/>
   <path d="m1831.2 1216.1-55.883 117.65c67.053-3.7531 132.41-7.4094 196.48-10.99l-19.707-90.656z" fill="#ca4f3a"/>
   <path d="m1859.7 1241-160.01 10.666 17.359 85.352c34.327-1.9223 65.945-3.6879 99.726-5.5781z" fill="#b7503f"/>
   <path d="m1662.4 1227.7-26.732 2.5782s15.292 46.144 36.238 109.21c26.002-1.4566 49.389-2.7609 75.148-4.2031l-27.254-93.234z" fill="#cd5c3f"/>
  </g>
  <g>
   <path d="m364.76 1332.6-17.789 10.057-5.084 72.186c12.063-0.7044 22.9-1.3427 36.139-2.1114-6.6739-43.713-11.528-73.73-13.266-80.131z" fill="#e18656"/>
   <path d="m360.8 1348.9-134.52 5.0293-21.029 69.094c21.013-1.4225 78.337-4.8352 157.63-9.4492z" fill="#be5a4d"/>
   <path d="m250.13 1332.7c-39.083 4.0067-80.111 9.2554-108.86 13.137-12.489 45.992-13.843 106.4-19.32 171.52-0.88006 10.463-1.6932 21.275-2.4551 32.309l6.2266 67.006 13.08-6.2968c5.6918-76.584 11.994-148.63 12.691-158.39 1.2572-17.6 5.0289-23.885 44.629-28.285 1.6325-0.1813 8.2872-0.6386 18.33-1.2812z" fill="#aa3f38"/>
   <path d="m153.74 1344.2c-4.2127 0.5572-8.6631 1.1376-12.477 1.6524-12.489 45.992-13.843 106.4-19.32 171.52-5.37 63.843-8.4561 139.53-10.102 211.57l19.266 0.4102c1.8942-38.169 5.147-85.352 8.5352-130.23-7.7544-48.131-11.29-79.249-6.3848-119.47 5.7163-46.874 18.175-121.69 20.482-135.45z" fill="#e18656"/>
   <path d="m112.26 1711.3c-0.50869 19.53-0.90564 38.881-1.209 57.756l17.18-42.955z" fill="#be5a4d"/>
   <path d="m125.34 1727.2-13.947 23.086c-1.3736 71.688-1.3648 138.11-0.76367 183.2 0.2861 21.458 0.95863 58.484 1.8105 101.99l31.523 7.0391c-6.5682-78.539-15.55-196.8-14.477-268.69 0.18679-12.515 0.80957-28.258 1.6816-45.658z" fill="#e29360"/>
   <path d="m112.05 2015.1c1.178 61.78 2.843 141.28 4.5938 219.4l31.699 54.752 104.34-5.0293-3.4102-106.57c-78.603 0.8923-96.175-28.569-102.19-98.34-1.3554-15.723-3.0254-35.4-4.7637-56.738z" fill="#e18656"/>
   <path d="m387.03 2174.1c-56.104 1.1162-102.69 2.2399-126.8 3.2734-17.666 0.7571-32.541 0.1936-45.092-1.7754-6.7141 9.5612-6.647 23.921-1.793 52.074 8.8893 51.558 14.223 88.893 14.223 88.893l188.46-44.447z" fill="#cd5c3f"/>
   <path d="m421.35 2173.4c-31.55 0.588-61.058 1.1805-86.623 1.7695-28.135 34.787-49.116 93.063-52.041 116.46-3.5557 28.446 16 140.45 16 140.45l200.9-10.668z" fill="#e18656"/>
   <path d="m114.37 2130.1c2.9105 137.85 6.6556 297.94 8.3086 342.02 0.71871 19.166 2.1546 42.994 4.3633 68.238l9.9922 22.949 46.514-203.66z" fill="#aa3f38"/>
   <path d="m122.55 2468.5c0.0379 1.0678 0.0851 2.6521 0.1211 3.6114 2.6668 71.115 15.112 206.23 40.891 240.9 3.0474 4.0983 6.6353 7.7075 10.713 10.898l49.494-38.668z" fill="#be5a4d"/>
   <path d="m321.83 2564.6-81.713 21.371-36.459 64.113c-6.1775 16.988-27.526 39.654-45.414 54.041 1.7077 3.4444 3.4796 6.4516 5.3223 8.9296 25.5 34.294 88.462 34.669 166.4 37.254l9.4668-2.166 41.486-138.29z" fill="#e18656"/>
   <path d="m437.49 2381-165.47 35.094 26.668 152.9 72.893 71.115 62.225-136.9z" fill="#aa3f38"/>
   <path d="m515.35 2171.8c-25.627 0.4237-50.942 0.8619-75.406 1.3047l144.34 246.07c1.8524-6.3586 3.307-11.681 4.1856-15.488 5.3336-23.112 8.2e-4 -58.669-16-88.892-9.0664-17.126-34.679-83.322-57.123-143z" fill="#be5a4d"/>
   <path d="m479.4 2172.4c-26.381 0.4535-52.519 0.9099-76.762 1.377l34.852 207.24 120.84 118.89c14.753-43.82 26.663-81.126 30.152-96.246 1.6826-7.2912 2.2999-15.823 1.8594-25.033z" fill="#e29360"/>
   <path d="m437.49 2381-86.744 246.4 12.572 15.086 159.11-32.508c2.8181-12.082 6.4006-24.478 10.934-37.43 13.166-37.617 26.242-76.005 36.514-107.46-51.826-36.16-132.39-84.092-132.39-84.092z" fill="#be5a4d"/>
   <path d="m368.34 2631.2c-69.262 36.94-100.35 86.583-110.81 115.87 22.594 1.781 47.876 2.383 74.928 3.2949 24.975 0.8419 57.279 1.5022 90.633 1.9883z" fill="#e29360"/>
   <path d="m536.57 2563.4c-90.81 32.564-178.67 69.255-184.57 71.615-6.2857 2.5143 18.857 37.715 18.857 37.715l144.74 78.947c-4.1514-64.598-4.599-115.16 17.766-179.06 1.0734-3.0669 2.1352-6.1451 3.207-9.2207z" fill="#cd5c3f"/>
   <path d="m352 2633.7c-14.879 69.815-15.163 96.907 3.877 117.33 13.049 0.3363 27.119 0.6377 41.861 0.9004 2.9698-4.0671 4.5469-7.5996 4.5469-7.5996z" fill="#cd5c3f"/>
   <path d="m353.51 2634c-1.8367 0.1698-0.3235 5.6741-1.4902 15.008-1.6252 13.002-12.898 77.253 21.848 102.45 44.728 0.9725 98.473 1.5673 141.83 1.7871-0.39911-6.1423-0.7511-12.122-1.0703-18.031-65.734-39.041-144.93-88.805-154.61-96.873-3.6669-3.0557-5.5477-4.4307-6.5098-4.3418z" fill="#e29360"/>
   <path d="m339.57 2637.5c0-17.779 0-23.112 8.8893-24.89 8.8893-1.7778 12.445 5.3336 13.334 21.334 0.88893 16.001-3.5557 22.223-11.556 22.223s-10.667-7.1115-10.667-18.668z" fill="#dedede"/>
   <path d="m128 1715.4c-2.7795 0.1473-6.3711 3.608-6.3711 10.385 0 7.2285 2.1988 8.1722 5.0273 8.8008 1.2588 0.2797 2.8185 0.1087 4.2012-0.2891 0.2795-5.8835 0.58957-11.98 0.93555-18.303-1.0468-0.4222-2.1234-0.4549-3.25-0.5801-0.17679-0.02-0.35767-0.024-0.54297-0.014z" fill="#dedede"/>
  </g>
  <g>
   <path d="m2420.6 1028.1c-17.706-0.024-36.874 0.4216-57.764 1.3105-167.12 7.1115-307.57 80.004-416.02 120.89-108.45 40.891-208.01 69.337-334.24 78.227-126.23 8.8894-503.14 32-718.26 44.445-195.42 11.305-604.96 40.213-747.67 56.076-5.3981 14.621-9.2234 31.126-12.113 49.106 30.012-4.0371 77.557-9.3184 158.86-16.287 186.68-16.001 2107.8-134.88 2454.8-157.5 0-1e-4 -1.3084-36.284-81.312-98.51-70.004-54.447-122.31-77.588-246.25-77.758z" fill="#cf7344"/>
   <path d="m4163.7 1239.5c60.343 0 67.886 12.571 74.172 90.514 6.2857 77.943 7.5428 119.43-2.5143 120.69-10.057 1.2571-40.229-42.743-30.171-89.257 10.057-46.514 21.371-91.771-33.943-91.771s-7.5429-30.171-7.5429-30.171z" fill="#1e1e1e"/>
   <path d="m4211.4 1403c46.514 8.8 55.314 28.914 62.857 80.457 7.5429 51.543-7.5428 120.69-15.086 121.94-7.5429 1.2572-47.771-202.4-47.771-202.4z" fill="#151515"/>
   <path d="m4259.8 2217.9c23.112 16.89 49.78 32.891 51.558-25.779 1.7778-58.67-0.5882-303.88-9.3882-415.77-8.8-111.89-30.172-256.46-94.286-455.09-64.114-198.63-176-296.69-276.57-339.43-100.57-42.743-271.54-12.571-299.2-10.057-27.657 2.5143-130.74 5.0286-222.51 5.0286-91.771 0-463.89 11.314-515.43 12.571-51.543 1.2571-168.46-1.2571-245.14-1.2571s-118.17 13.829-54.057 74.171c64.114 60.343 120.69 118.17 169.71 226.29 49.029 108.11 150.86 470.17 167.2 533.03 16.343 62.857 68.438 335.66 74.968 380.73 4.3293 29.875 4.9833 36.666 16.827 45.579 11.049 8.315 25.596 15 44.211 17.741 21.049 3.0993 29.762 5.4673 48.952-4.9577 7.2367-3.9314-32.236-113.02-32.236-113.02l-133.12-896.05-220.46-192.01 1201.8-14.223 188.45 280.9 103.12 504.91z" fill="#d9d9d9"/>
   <path d="m4268 2241.5c1.8857-48.4 1.8857-77.943 2.5143-128.86s-1.8521-276.09-24.964-443.21-71.836-336.85-115.84-438.68c-44-101.83-136.62-188.02-155.29-202.25-18.668-14.223-28.446-15.112-57.781-15.112-29.335 0-345.8-3.5557-447.13-2.6668-101.34 0.889-518.25 15.112-581.36 17.779-63.114 2.6668-170.68 8.0004-194.68 9.7783-24.001 1.7779-20.445 4.4447-7.1114 16.89 13.334 12.445 97.783 106.67 141.34 208.9s143.12 378.69 182.23 563.58 51.115 263.92 67.559 336.02c16.4 71.904 21.779 92.449 28.446 113.34 6.667 20.89 41.336 13.778 41.336 13.778l504.73 34.931 497.83-30.171z" fill="#171717"/>
   <path d="m3516.6 1010.6c-18.409-0.012-34.438 0.03-47.105 0.1407-101.34 0.889-518.25 15.11-581.36 17.777-63.114 2.6668-170.67 8.0014-194.68 9.7793-24.001 1.7779-20.445 4.4437-7.1113 16.889 13.334 12.445 97.782 106.67 141.34 208.9 8.5173 19.99 19.194 46.709 31.123 78.035 242.31-2.6793 526.49-5.4643 673.56-10.812 120.8-4.3927 458.15-13.932 628.92-17.838-10.529-30.73-21.192-58.634-31.594-82.707-44-101.83-136.62-188.02-155.29-202.25-18.668-14.223-28.446-15.111-57.781-15.111-25.668 0-271.17-2.7216-400.03-2.8067z" fill="#242424"/>
   <path d="m2885.6 2441.1c103.37 127.95 159.22 169.5 212.03 173.8 1.5548 0.1266 2.9965 0.086 4.3399-0.096-18.724-74.827-43.973-171.97-48.895-171.97-7.6858 0-144.31-1.6053-167.48-1.7344z" fill="#b7503f"/>
   <path d="m3051.7 2473.9c-7.0137-30.247-13.334-33.78 12.445-30.224 25.779 3.5558 150.23 16.89 224.01 22.223 73.782 5.3336 80.004 1.7779 88.893 20.446 8.8893 18.668 29.335 74.67 32.89 115.56 3.5558 40.891-4.4446 63.114-18.668 80.893-14.223 17.779-26.668 19.557-50.669 19.557s-158.23 1.7779-192.01 3.5557c-33.78 1.7779-40.002 1.7779-44.447-14.223-4.4447-16.001-45.238-186.7-52.447-217.79z" fill="#cecece"/>
   <path d="m4265.5 2235.9c-2.0395-0.017-4.6537 0.6334-8.1894 1.2226-11.314 1.8857-139.77 28.807-244.67 42.141-104.89 13.334-224.9 17.78-280.9 20.447-56.003 2.6668-158.23 0.8881-277.35-3.5566-119.12-4.4446-269.62-20.37-292.32-22.761-18.89-1.9901-52.825-5.44-58.217-5.6992-6.0023-0.2885-1.4421 12.625 3.4062 23.678 7.4888 17.071 10.664 17.329 20.385 19.924 14.457 3.7715 79.943 17.598 127.09 30.17 47.143 12.571 69.547 28.546 95.543 77.314 32.344 60.677 64.072 145 69.142 179.77 4.4 30.171 0.6288 50.286-10.686 69.772-8.2063 14.133-7.5425 13.2 26.4 15.086 33.943 1.8857 229.43-3.1432 297.94-4.4004 68.514-1.2571 179.14-8.1712 206.17-10.686 27.029-2.5143 39.599-5.0273 74.799-41.484s53.429-103.72 67.258-140.8 27.657-95.542 50.914-133.88c23.257-38.343 117.54-66.63 131.37-71.658 13.829-5.0285 14.457-6.2865 10.686-27.029-2.5929-14.261-4.2944-17.527-8.7813-17.564z" fill="#d2d2d2"/>
   <path d="m3984.5 2663.9c-18.828 15.899-22 18.857-1.2572 16.971 20.743-1.8857 152.11-13.828 180.4-15.086 28.286-1.2571 60.972 5.6572 93.029-10.686 32.057-16.343 71.029-49.657 82.343-91.143 11.314-41.486 22-96.8 22-126.97 0-30.171 0.6285-33.314-15.714-30.171-16.343 3.1429-82.971 16.971-123.2 23.886s-98.686 16.343-109.37 17.6c-10.686 1.2572-16.343 1.2572-18.857 14.457s-20.114 69.771-33.943 98.686c-13.829 28.914-26.4 58.457-42.743 74.171s-23.177 20.256-32.686 28.286z" fill="#d4d4d4"/>
   <path d="m3375.6 2577.3c-54.314-0.2431-114.5 8.7015-154.94 53.037-33.737 36.981-74.506 61.602-99.984 76.033 6.2924 0.6185 15.143 0.203 27.98-0.4727 33.78-1.7778 168.01-3.5566 192.01-3.5566s36.445-1.778 50.668-19.557c14.223-17.779 22.224-40.002 18.668-80.892-0.6511-7.4878-1.8734-15.483-3.4824-23.662-2.5348-0.1085-5.8128-0.2367-8.0723-0.3378-7.4448-0.3334-15.085-0.5571-22.844-0.5918z" fill="#bbb"/>
   <path d="m4124.3 2552.1c-4.3208-0.029-8.8172 0.1422-13.492 0.5351-12.79 1.0748-29.757 2.6498-48.939 4.5039-0.6629 1.4696-1.3264 2.9396-1.9746 4.2949-13.829 28.914-26.401 58.458-42.744 74.172s-23.177 20.256-32.686 28.285c-18.828 15.899-21.999 18.858-1.2559 16.973 20.743-1.8857 152.11-13.829 180.4-15.086 8.3414-0.3707 17.073-0.034 26.051 0.2109 20.384-17.919 26.016-24.429 25.492-44.84-0.5893-22.982-26.037-68.614-90.85-69.049z" fill="#bebebe"/>
   <path d="m4055.2 2557.8c-93.322 9.0975-236.42 24.537-263.03 28.133-32.891 4.4447-70.227 5.3328-122.67 2.666-48.322-2.4571-186.26-7.1517-254.39-9.9649 2.0284 7.6764 3.4959 14.41 4.2968 19.902 4.4 30.171 0.6288 50.286-10.686 69.772-8.2063 14.133-7.5425 13.2 26.4 15.086 33.943 1.8857 229.43-3.1432 297.94-4.4004 68.514-1.2571 179.14-8.1712 206.17-10.686 27.029-2.5143 39.599-5.0273 74.799-41.484 17.342-17.962 30.559-43.401 41.166-69.024z" fill="#b9b9b9"/>
   <path d="m4121.7 2365.4c-4.3544-0.1004-9.8675 0.6536-15.701 1.8203-13.334 2.6668-208.01 40.891-249.79 48.002-41.78 7.1115-77.337 9.779-105.78 10.668-28.446 0.889-80.005-2.6667-135.12-7.1113-55.114-4.4447-245.35-26.67-261.79-28.447-16.445-1.778-12.192 2.3566-5.334 12.002 5.8683 8.2533 4.0009 9.4822 20.344 12.625 16.343 3.1429 318.06 39.601 341.31 42.115 23.257 2.5143 37.086 5.0286 66.629 0 28.579-4.8645 293.01-58.545 338.69-70.01 3.0218-7.4207 6.2222-14.608 9.6367-21.402-0.9498-0.1453-1.9761-0.236-3.0918-0.2617z" fill="#ababab"/>
   <path d="m4110.4 2418.3c-5.985 19.631-11.112 26.224 12.89 22.223s183.12-31.557 202.68-36.891c19.556-5.3336 19.556-9.7783 21.779-25.779 2.2223-16.001 3.5557-47.558 1.7778-65.337-1.7778-17.779-9.3338-38.669-26.668-38.224-17.334 0.4444-43.558 5.778-87.56 23.112-44.002 17.334-84.449 35.557-100.89 65.337-17.978 32.555-18.874 38.74-24.001 55.558z" fill="#888"/>
   <g fill="#656565">
    <path d="m4173.5 2346.3c18.668-0.4444 34.224-0.8889 34.224 33.78 0 34.668-14.223 36.891-27.557 38.669-13.334 1.7778-33.78-6.2226-34.224-33.335s11.112-38.224 27.557-39.113z"/>
    <path d="m4234 2322.3c20.446-0.4445 38.669 2.6668 38.669 34.668 0 32.002-9.7782 40.446-28.446 42.224-18.668 1.7779-31.113-9.3338-32.002-35.113s4.4447-40.446 21.779-41.78z"/>
    <path d="m4275.8 2349c-0.8889-20.446 3.5557-44.002 22.668-44.891 19.112-0.889 38.669 2.2223 39.558 33.78 0.8889 31.557-8.8893 41.78-27.112 42.669s-34.224-7.1115-35.113-31.557z"/>
   </g>
   <path d="m4177.1 2352.6c18.64-1.1095 24.001 10.667 25.335 26.668 1.3334 16.001-6.2225 32.446-20.001 34.224-13.778 1.7778-28.89-7.556-30.224-27.112-1.3334-19.557 6.1711-32.665 24.89-33.78z" fill="#e3e3e3"/>
   <path d="m4241.1 2328.6c17.333-0.2194 26.668 15.112 27.112 29.335 0.4444 14.223-7.1115 34.668-23.557 36.002s-25.779-13.334-26.668-31.113 5.3294-33.999 23.112-34.224z" fill="#e3e3e3"/>
   <path d="m4280.7 2343.7c-0.4445-19.112 8.0004-33.78 26.224-33.78 18.223 0 25.779 11.112 25.779 31.557 0 20.445-7.1115 32.446-23.112 33.335-16.001 0.889-28.446-13.334-28.89-31.113z" fill="#e09226"/>
   <path d="m3064.2 2423.2c2.9392 13.644 2.2967 13.551 17.334 15.556 20.001 2.6668 246.68 23.112 264.46 24.001 17.779 0.889 13.334-9.7783 8.4449-20.446s-20.001-48.447-42.224-66.226c-22.223-17.779-34.224-24.001-105.34-40.891-71.115-16.89-96.005-27.112-127.12-25.779s-38.669 20.445-32.446 47.114c6.2225 26.668 13.167 49.392 16.89 66.67z" fill="#888"/>
   <g fill="#656565">
    <path d="m3104.5 2337c19.486 0.9428 34.886 9.4286 35.514 37.086 0.6286 27.657-14.143 40.543-32.057 40.543s-36.771-1.8858-36.771-36.772 16.028-39.914 33.314-40.857z"/>
    <path d="m3187.5 2352.4c24.514 1.5714 34.886 10.371 34.886 37.714 0 27.343-7.8571 35.828-32.057 35.828s-32.686-10.686-33-37.086 13.829-35.829 30.171-36.457z"/>
    <path d="m3266.1 2368.8c28.6 0.6286 37.086 9.1143 36.772 36.457-0.3143 27.343-5.3429 37.4-29.229 37.4s-34.571-9.7429-34.571-35.829 11-37.714 27.028-38.029z"/>
   </g>
   <path d="m3104.2 2341.9c17.334 0.4444 31.557 12.445 32.002 30.668 0.4445 18.223-6.2225 36.002-28.001 36.446s-32.891-10.223-32.891-31.113c0-20.89 13.778-35.557 28.89-36.002z" fill="#e09226"/>
   <g fill="#e3e3e3">
    <path d="m3189.1 2357.9c18.223 0.4444 29.779 14.667 29.335 33.335-0.4444 18.668-8.8893 29.779-27.112 30.224-18.223 0.4444-29.779-9.7783-29.779-30.668 0-20.89 13.778-32.446 27.557-32.89z"/>
    <path d="m3271.7 2374.3c16.89 0.4444 28.001 12.001 27.557 32.002-0.4444 20.001-8.4448 31.113-26.668 31.113-18.223 0-29.335-12.445-29.335-32.891s10.223-29.779 28.446-30.224z"/>
   </g>
   <path d="m3872.2 2576.8c-38.399 4.1805-69.111 7.6605-79.976 9.129-32.891 4.4447-70.227 5.3328-122.67 2.666-15.188-0.7723-40.415-1.7924-68.359-2.8789-51.178 12.206-41.7 49.039-40.258 96.832 64.554-1.1939 135.97-2.8941 172.18-3.5586 48.624-0.8922 118-4.6213 164.11-7.6172 0.8107-9.8525 0.6766-21.889-0.1055-36.553-2.0838-39.071-9.9804-53.094-24.918-58.02z" fill="#c5c5c5"/>
   <path d="m3618.7 2614.2c1.2572-18.229 0.6286-18.857 16.971-19.486 16.343-0.6286 170.97-6.9143 185.43-6.9143 14.457 0 16.343 2.5143 17.6 18.228 1.2572 15.714 2.5143 48.4 2.5143 59.086 0 10.686-6.9143 12.571-16.971 13.828-10.057 1.2572-178.51 6.9143-189.83 6.9143s-16.971-6.9143-16.971-16.343c0-9.4286 1.2571-38.343 1.2571-55.314z" fill="#2c483a" stroke="#bbb" stroke-width="7"/>
   <path d="m4265.6 2122.2c-4.6506-0.019-9.9043 0.1557-15.559 0.5352-102.38 6.8713-511.5 37.334-584.82 37.334-102.24 0-521.02-7.9998-553.91-8.8887-32.89-0.889-27.556 13.335-3.5547 16.891s70.972 8.673 306.54 18.451c235.57 9.7782 285.49 4.6612 466.83-6.006 171.18-10.07 350.22-36.767 389.19-46.457 0.042-3.8226 0.086-7.6909 0.1328-11.754-1.5366-0.059-3.1423-0.098-4.8516-0.1055z" fill="#5e5e5e"/>
   <path d="m4243.8 2065.9c-1.2317 30.212 2.6668 29.335-32.891 30.224-35.557 0.889-369.8 17.779-501.36 21.334-131.56 3.5557-575.14 7.1114-593.81 6.2225s-19.556-1.7779-24.89-28.446c-5.3337-26.668-59.853-288.7-81.224-371.68-21.371-82.972-88-289.14-99.314-316.8-11.314-27.657-11.314-26.4 20.114-27.657 31.429-1.2571 489.03-10.057 612.23-13.829 123.2-3.7714 550.63-11.314 574.51-12.571 23.886-1.2571 32.686-2.5143 40.228 30.171 7.5429 32.686 54.057 217.49 67.886 331.89 13.829 114.4 20.344 306.27 18.515 351.14z" fill="#313131"/>
   <path d="m2861.1 1290.7c14.54 35.622 16.781 40.554 58.733 37.757 41.952-2.7969 493.64-9.7889 626.49-13.984 132.85-4.1953 510.42-12.586 545.38-12.586 34.96 0 40.554-1.3984 29.367-33.562-11.187-32.164-39.156-86.702-65.725-124.46-26.57-37.757-71.319-76.913-268.5-76.913s-215.36-1.3984-385.96 1.3985c-170.61 2.7968-422.32 9.7888-502.03 15.382-79.71 5.5936-139.2 23.904-100.69 88.1 25.171 41.952 49.456 85.856 62.928 118.86z" fill="#313131"/>
   <path d="m2959.8 1273.6c-0.9888 35.598 4.9441 34.609 38.564 34.609s783.15-22.743 802.93-23.732c19.777-0.9889 23.732-3.9554 22.743-21.754-0.9888-17.799-4.9441-105.85-6.9217-126.61-1.9777-20.765 2.9664-30.654-24.721-30.654s-790.07 16.81-811.83 19.776c-21.754 2.9665-25.709 5.933-25.709 23.732 0 17.799 4.9441 93.983 4.9441 124.64z" fill="#2b2b2b"/>
   <path d="m3841.7 1178.9c0-17.48-4.1953-21.675 24.472-22.375 28.667-0.6992 31.464 0 32.863 16.781s0 19.578-27.269 21.675-29.367-0.6992-30.066-16.082z" fill="#e09226"/>
   <path d="m3907.5 1105.4c-0.6992-17.48-1.3984-20.976 6.2929-20.976 7.6912 0 12.586 1.3984 12.586 19.578 0 18.179-0.6993 21.675-10.488 21.675-9.7889 0-7.6913-2.7968-8.3905-20.277z" fill="#e3e3e3"/>
   <path d="m2873.5 1200.4c-0.9888-16.81 0-20.765 27.687-21.754 27.687-0.9889 29.665 2.9664 30.654 18.788 0.9888 15.821 1.9776 20.765-27.687 21.754-29.665 0.9889-30.654-5.9329-30.654-18.788z" fill="#e09226"/>
   <path d="m2834 1131.2c-0.9888-21.754-3.9553-19.776 5.933-21.754 9.8882-1.9776 15.821 0 15.821 19.776 0 19.777-0.9888 20.765-9.8883 21.754-8.8994 0.9888-12.855-4.9441-11.866-19.776z" fill="#e3e3e3"/>
   <path d="m128.9 2306.8c0-37.335 5.3336-39.113 32.891-40.891 27.557-1.7779 87.116-3.5558 113.78-3.5558 26.668 0 38.224 1.7779 40.002 52.447 1.7779 50.669 12.445 264.9 12.445 305.79 0 40.891-0.88893 54.225-31.113 57.781-30.224 3.5557-113.78 2.6668-126.23 2.6668s-17.779-7.1115-21.334-40.002c-3.5557-32.89-20.445-283.57-20.445-334.24z" fill="#181818"/>
   <path d="m768.04 2523.7c56.003-0.8889 72.004 79.115 72.004 155.56 0 76.448-22.223 139.56-62.225 142.23-40.002 2.6668-72.004-69.337-72.004-151.12 0-81.782 20.445-144.9 62.225-146.67z" fill="#5c5c5c"/>
   <path d="m815.09 2551.8c-22.229 17.958-37.27 70.135-37.27 110.54 0 42.804 7.3399 108.35 42.68 123.32 12.779-26.148 19.545-64.255 19.545-106.43 0-48.074-6.3313-97.549-24.955-127.44z" fill="#292929"/>
   <path d="m2774.5 2924.1c89.257-1.2572 124.46-123.2 121.94-251.43-2.5142-128.23-41.486-285.37-147.09-286.63-105.6-1.2571-108.11 186.06-108.11 277.83s35.2 261.49 133.26 260.23z" fill="#1b1b1b"/>
   <path d="m2752.5 2494.8c45.257 0.6286 83.6 64.114 85.486 162.8s-30.8 162.8-70.4 162.17c-39.6-0.6285-81.714-76.057-80.457-167.2 1.2571-91.143 29.543-156.51 65.371-157.77z" fill="#2e2e2e"/>
   <path d="m2787.6 2509c-40.895 13.915-59.372 30.827-64.66 54.33-5.6571 25.143-7.5428 132 3.7715 170.34 10.549 35.75 35.857 67.664 68.272 75.385 26.107-22.088 44.411-76.897 42.986-151.44-1.3677-71.576-21.916-124.63-50.369-148.62z" fill="#a6a6a6"/>
   <path d="m2734.9 2553.9c30.178 0 57.2 38.971 58.457 104.97 1.2572 66-21.371 102.46-44 103.09-22.628 0.6285-53.428-33.314-53.428-108.11s21.988-99.943 38.971-99.943z" fill="#9a9a9a"/>
   <path d="m2735.7 2603.7c17.779-0.4445 30.668 20.001 31.113 54.669 0.4445 34.668-7.5559 52.447-21.334 54.225-13.778 1.7779-29.779-23.557-28.446-54.225 1.3334-30.668 3.1113-55.558 18.668-54.669z" fill="#191919"/>
  </g>
  <g fill="#cfbf35">
   <path d="m2743.4 2608.6c-3.4289-12.924-4.7143-14.457 0-17.286s8.8-0.9428 11.314 4.4c2.5143 5.3429 17.914 54.371 19.486 64.114s0.9429 11-2.5143 12.571c-3.4571 1.5715-5.9714 1.2571-9.1143-6.9143-3.1428-8.1714-16.235-45.816-19.171-56.886z"/>
   <path d="m2715.7 2582.5c6.5717 3.7553 5.9714 9.7429 3.4571 17.6-2.5143 7.8572-11.943 49.657-14.143 56.257s-5.9714 7.8571-9.4285 5.9714c-3.4572-1.8857-6.2857-5.0286-4.4-12.571 1.8857-7.5429 13.2-51.857 15.4-58.457s4.3487-11.523 9.1143-8.8z"/>
   <path d="m2707.3 2717c0.9429-9.1143 3.4572-11.314 9.1143-10.686 5.6572 0.6286 33 4.0857 36.457 5.0286 3.4571 0.9428 6.2857 2.2 5.9714 13.514-0.3143 11.314-6.2857 9.7429-11.629 9.7429-5.3428 0-32.686-5.0286-36.457-5.6571-3.7714-0.6286-4.0857-3.7715-3.4572-11.943z"/>
  </g>
  <path d="m2787.6 2509c-9.7609 3.3212-18.23 6.8157-25.562 10.527-9.923 12.07-11.252 16.028-2.8164 18.84 10.667 3.5558 21.335-5.3339 25.779-12.445 2.2328-3.5724 5.8085-8.1534 7.5215-12.392-1.6126-1.6054-3.2526-3.1219-4.9218-4.5293zm38.205 65.232c-15.053 5.8227-21.539 14.596-17.693 30.361 4.0774 16.718 16.01 18.839 27.562 18.391-2.0672-17.853-5.4301-34.18-9.8692-48.752zm-1.248 130.7c-7.7782-0.1111-15.555 3.2227-17.777 16.557-4.0894 24.536 9.8203 29.866 19.35 33.68 4.3671-14.125 7.6814-30.287 9.6914-48.215-3.2507-0.9912-7.2492-1.9641-11.264-2.0215zm-63.635 71.703c-4.0406 0.01-7.6721 1.1803-10.135 3.0411 12.014 14.524 27.116 25.313 44.195 29.381 3.09-2.6143 6.0663-5.7014 8.9179-9.2109-14.278-7.2182-23.371-15.158-31.791-20.133-3.6668-2.1668-7.5831-3.0834-11.188-3.0782z" fill="#1d1d1d"/>
  <g fill="#232323" fill-opacity=".88306">
   <path d="m195.57 1899c0 35.557-1.7779 51.558 26.668 53.336 28.446 1.7779 62.225 0 85.338-0.8889s26.668-11.556 26.668-47.114c0-35.557-3.5557-141.57-5.3336-188.68s2.6668-230.23 2.6668-243.57-0.88893-25.779-16.89-24.89c-16.001 0.889-64.892 3.5558-78.226 4.4447-13.334 0.8889-18.668 5.3336-21.334 27.557-2.6668 22.223-12.445 205.34-13.334 266.68-0.88893 61.336-6.2225 103.34-6.2225 153.12z"/>
   <path d="m379.57 1906.8c1.7779 40.891 4.4447 45.336 35.557 46.225 31.113 0.889 61.336 0 78.226-0.8889s26.668-8.8894 26.668-40.002c0-31.113-4.4447-362.69-4.4447-380.46s-6.2225-24.001-21.334-24.001-66.67 1.7778-84.449 3.5557c-17.779 1.7779-26.668 5.3336-26.668 38.224 0 32.89-5.3336 312.02-3.5557 357.35z"/>
   <path d="m576.03 1920.1c-0.88894 25.779 7.1115 24.001 20.445 24.001 13.334 0 283.57-8.8894 302.24-9.7783s29.335-3.5557 29.335-28.446c0-24.89-2.6668-445.36-2.6668-464.02 0-18.668-4.4447-29.335-22.223-29.335-17.779 0-282.68 16.89-296.9 18.668-14.223 1.7779-19.557 8.8894-20.445 19.557-0.88893 10.667-10.667 429.36-9.7783 469.36z"/>
   <path d="m968 2100.7c0 23.886 5.0286 28.914 27.657 27.657 22.629-1.2572 309.26-8.8 324.34-10.057 15.086-1.2571 22.629-7.5428 21.371-25.143-1.2571-17.6-12.571-250.17-12.571-315.54s7.5429-324.34 8.8-349.49c1.2571-25.143 2.5143-36.457-25.143-37.714-27.657-1.2571-291.66 15.086-311.77 18.857-20.114 3.7715-28.914 2.5143-31.429 35.2-2.5143 32.686-11.314 269.03-10.057 341.94s6.2857 281.6 8.8 314.29z"/>
   <path d="m1366.5 2085.6c1.2571 21.371 5.0286 26.4 20.114 26.4s137.03-7.5429 145.83-7.5429 15.086-6.2857 13.829-26.4c-1.2571-20.114-8.8-255.2-8.8-345.71 0-90.514 6.2857-304.23 7.5429-326.86 1.2571-22.629-8.8-30.171-31.429-30.171s-82.971 5.0286-106.86 7.5428c-23.886 2.5143-38.972 17.6-41.486 42.743-2.5142 25.143-8.8 255.2-7.5428 324.34 1.2571 69.143 6.2857 302.97 8.8 335.66z"/>
   <path d="m1573.9 2066.7c0 27.657 0 31.428 18.857 30.171 18.857-1.2572 326.86-8.8 346.97-10.057 20.114-1.2571 35.2-1.2571 33.943-30.171-1.2572-28.914-11.314-271.54-11.314-350.74s6.2857-291.66 10.057-319.31c3.7715-27.657-1.2571-28.914-17.6-30.172-16.343-1.2571-323.09 13.829-348.23 16.343-25.143 2.5143-28.914 8.8-31.429 42.743-2.5143 33.943-10.057 251.43-10.057 331.89 0 80.457 7.5428 285.37 8.8 319.31z"/>
   <path d="m1996.3 2049.1c0.5442 32.778 5.0285 33.943 37.714 32.686 32.686-1.2572 46.514-1.2572 46.514-30.172 0-28.914-10.057-330.63-8.8-399.77 1.2572-69.143 7.5429-246.4 8.8-270.29 1.2572-23.886-6.2857-31.429-36.457-30.171-30.171 1.2571-38.971 2.5143-42.743 35.2-3.7714 32.686-12.477 194.81-11.314 333.14 1.2572 149.6 5.4294 277.79 6.2858 329.37z"/>
   <path d="m2132.1 1844.2c0 22.628 6.2857 28.914 36.457 27.657 30.172-1.2571 301.71-11.314 321.83-12.571 20.114-1.2572 32.686-6.2857 32.686-26.4s-7.5428-429.94-8.8-451.31c-1.2571-21.371-1.2571-35.2-18.857-36.457-17.6-1.2572-309.26 12.571-330.63 16.343s-25.143 6.2857-27.657 31.429c-2.5143 25.143-6.2858 416.11-5.0286 451.31z"/>
   <path d="m2114.5 1966.2c1.2571-28.914 7.5428-35.2 35.2-36.457 27.657-1.2572 316.8-12.571 335.66-11.314 18.857 1.2571 28.914 11.314 28.914 32.686s2.5143 75.429 2.5143 99.314-2.5143 40.229-23.886 42.743c-21.371 2.5142-330.63 13.829-348.23 15.086-17.6 1.2572-26.4-16.343-27.657-35.2-1.2571-18.857-1.2572-74.172-2.5143-106.86z"/>
   <path d="m2585.9 2061.7c0 26.4 1.2571 28.914 28.914 31.429 27.657 2.5142 118.17-2.5143 167.2 0 49.029 2.5142 139.54 15.086 162.17 21.371 22.628 6.2857 33.943 7.5428 30.171-18.857s-60.343-285.37-82.971-372.11c-22.629-86.743-98.057-318.06-115.66-362.06s-26.4-59.086-82.971-59.086c-30.171 0-42.743 1.2572-64.114 2.5143-21.334 1.255-37.714 5.0286-38.971 36.457-1.2572 31.429-11.314 306.74-11.314 412.34s6.2857 271.54 7.5429 308z"/>
  </g>
  <path d="m2542.4 1394.7c52.447 0 64.892-1.7778 68.448 39.113 3.5557 40.891 4.4446 156.45-0.889 187.57s-6.2225 42.669-64.003 42.669c-57.781 0-64.003-7.1115-68.448-37.335-4.4446-30.224-6.2225-134.23-2.6668-175.12 3.5558-40.891 5.3336-56.003 67.559-56.892z" fill="#1b1b1b"/>
  <path d="m2530.8 1287.2c-0.889-18.668-0.889-22.223 11.556-23.112s18.668 3.5557 19.557 26.668c0.8889 23.112-0.889 78.226-5.3336 106.67-4.4447 28.446-8.0004 27.557-16.89 28.446-8.8893 0.889-13.334-6.2225-11.556-20.446 1.7778-14.223 4.4447-73.782 2.6668-118.23z" fill="#1a1a1a"/>
 </g>
</svg>
