<?xml version="1.0"?>
<svg width="32px" height="35px" viewBox="0 0 526 574" version="1.1" xmlns="http://www.w3.org/2000/svg">
<path fill="#030085" d="M 274.00,14.21 C 287.00,14.16 307.22,17.93 320.00,21.13 389.02,38.38 447.35,85.31 479.19,149.00 491.97,174.56 503.96,215.36 504.00,244.00 504.00,244.00 504.00,273.00 504.00,273.00 503.98,287.78 500.02,308.64 496.15,323.00 485.19,363.66 463.25,403.37 432.91,432.83 423.10,442.36 412.35,451.68 401.00,459.33 401.00,459.33 373.00,478.04 373.00,478.04 373.00,478.04 310.00,541.00 310.00,541.00 298.11,552.89 286.65,566.27 269.00,568.83 254.40,570.95 241.21,568.98 229.00,560.07 223.69,556.20 213.19,545.19 208.00,540.00 208.00,540.00 166.00,498.00 166.00,498.00 166.00,498.00 143.00,475.39 143.00,475.39 143.00,475.39 127.00,465.58 127.00,465.58 119.72,461.04 112.70,455.90 106.00,450.55 75.28,426.01 49.93,393.22 34.43,357.00 -10.79,251.33 21.68,126.83 116.00,59.43 140.50,41.92 169.75,28.20 199.00,20.89 199.00,20.89 239.00,14.21 239.00,14.21 239.00,14.21 274.00,14.21 274.00,14.21 Z" />
<path fill="white" d="M 132.92,137.00C 130.18,146.72 131.00,157.00 131.00,167.00 131.00,167.00 131.00,213.00 131.00,213.00 131.00,213.00 131.00,325.00 131.00,325.00 131.04,352.05 150.62,372.96 178.00,373.00 178.00,373.00 347.00,373.00 347.00,373.00 374.38,372.96 393.96,352.05 394.00,325.00 394.00,325.00 394.00,151.00 394.00,151.00 393.96,125.01 374.29,104.04 348.00,104.10 348.00,104.10 231.00,104.10 231.00,104.10 231.00,104.10 170.00,104.10 170.00,104.10 152.55,107.60 137.84,119.57 132.92,137.00 ZM 155.00,149.00C 155.03,131.94 165.04,126.02 181.00,126.00 181.00,126.00 344.00,126.00 344.00,126.00 353.80,126.05 364.93,129.58 368.20,140.00 369.10,142.89 369.00,146.01 369.00,149.00 369.00,149.00 369.00,278.00 369.00,278.00 369.00,278.00 155.00,278.00 155.00,278.00 155.00,278.00 155.00,149.00 155.00,149.00 ZM 354.47,317.04C 364.31,329.30 355.63,345.22 341.00,347.68 327.64,349.92 315.31,341.21 316.04,327.00 316.27,322.53 317.97,318.47 321.21,315.33 324.63,312.00 328.48,310.54 333.00,309.47 340.94,308.38 349.28,310.58 354.47,317.04 ZM 200.96,316.56C 216.53,328.76 204.82,352.41 185.00,350.67 166.90,349.08 158.21,329.59 172.04,317.21 175.03,314.54 177.27,313.64 181.00,312.53 187.95,311.39 195.22,312.06 200.96,316.56 ZM 296.00,320.00C 296.00,320.00 296.00,334.00 296.00,334.00 296.00,334.00 224.00,334.00 224.00,334.00 224.00,334.00 224.00,320.00 224.00,320.00 224.00,320.00 296.00,320.00 296.00,320.00 ZM 163.00,377.00C 163.00,377.00 163.00,396.00 163.00,396.00 163.01,398.30 162.96,400.79 163.65,403.00 168.11,417.22 187.34,414.02 199.00,414.00 204.54,413.99 209.31,414.01 213.96,410.43 216.43,408.53 218.41,406.00 219.35,403.00 220.46,399.46 220.00,381.93 220.00,377.00 220.00,377.00 163.00,377.00 163.00,377.00 ZM 312.00,377.00C 312.00,385.30 310.35,400.45 315.42,406.98 322.59,416.23 336.54,414.02 347.00,414.00 351.22,413.99 354.95,413.96 359.00,412.52 362.53,411.27 365.21,409.11 367.30,406.00 371.41,399.89 370.00,384.61 370.00,377.00 370.00,377.00 312.00,377.00 312.00,377.00 Z" />
</svg>