<?xml version="1.0" encoding="UTF-8" standalone="no"?>
<svg
   xmlns:dc="http://purl.org/dc/elements/1.1/"
   xmlns:cc="http://creativecommons.org/ns#"
   xmlns:rdf="http://www.w3.org/1999/02/22-rdf-syntax-ns#"
   xmlns:svg="http://www.w3.org/2000/svg"
   xmlns="http://www.w3.org/2000/svg"
   width="129.99982mm"
   height="152.452mm"
   viewBox="0 0 129.99982 152.452"
   version="1.1"
   id="svg8">
  <defs
     id="defs2" />
  <metadata
     id="metadata5">
    <rdf:RDF>
      <cc:Work
         rdf:about="">
        <dc:format>image/svg+xml</dc:format>
        <dc:type
           rdf:resource="http://purl.org/dc/dcmitype/StillImage" />
        <dc:title></dc:title>
      </cc:Work>
    </rdf:RDF>
  </metadata>
  <path
     id="rect815"
     d="M 32.000113,0 C 15.380117,0 2.4522505,13.386379 2.0003947,30.000236 L 0,108.83315 H 0.10490316 C 0.03693908,109.30568 0,109.78868 0,110.2806 v 13.67566 c 0,5.54 4.4599063,10.00042 9.9999063,10.00042 H 19.51147 v 14.49524 c 0,2.216 1.784273,4.00027 4.000273,4.00027 h 9.477456 c 2.216002,0 3.999757,-1.78427 3.999757,-4.00027 v -14.49524 h 56.021903 v 14.49524 c 0,2.216 1.783755,4.00027 3.999757,4.00027 h 9.477454 c 2.216,0 4.00027,-1.78427 4.00027,-4.00027 v -14.49524 h 9.51157 c 5.54,0 9.99991,-4.46042 9.99991,-10.00042 V 110.2806 c 0,-0.4919 -0.0364,-0.97494 -0.10439,-1.44745 h 0.10439 L 127.99994,30.000236 C 127.57849,13.38558 114.6197,0 97.999702,0 Z m 3.481959,11.492322 h 59.035671 c 2.493,0 4.499983,2.230212 4.499983,5.000211 v 5.119068 c 0,2.769999 -2.006983,4.999693 -4.499983,4.999693 H 35.482072 c -2.493,0 -4.499983,-2.229694 -4.499983,-4.999693 v -5.119068 c 0,-2.769999 2.006983,-5.000211 4.499983,-5.000211 z M 19.134749,33.51785 h 91.730321 c 3.90579,0 7.05021,3.390614 7.05021,7.60212 v 45.547091 c 0,4.211505 -3.14442,7.602119 -7.05021,7.602119 H 19.134749 c -3.905795,0 -7.050215,-3.390614 -7.050215,-7.602119 V 41.11997 c 0,-4.211506 3.14442,-7.60212 7.050215,-7.60212 z m 1.42937,72.46844 h 10.252605 c 1.661999,0 3.000333,1.33834 3.000333,3.00034 v 10.2526 c 0,1.662 -1.338334,3.00033 -3.000333,3.00033 H 20.564119 c -1.662,0 -3.000333,-1.33833 -3.000334,-3.00033 v -10.2526 c 1e-6,-1.662 1.338334,-3.00034 3.000334,-3.00034 z m 78.618972,0 h 10.252599 c 1.66201,0 3.00034,1.33834 3.00034,3.00034 v 10.2526 c 0,1.662 -1.33833,3.00033 -3.00034,3.00033 H 99.183091 c -1.661999,0 -3.000333,-1.33833 -3.000333,-3.00033 v -10.2526 c 0,-1.662 1.338334,-3.00034 3.000333,-3.00034 z m -57.373758,1.6459 h 46.381149 c 0.554,0 0.999939,0.44594 0.999939,0.99994 0,0.554 -0.445939,0.99994 -0.999939,0.99994 H 41.809333 c -0.554,0 -0.999939,-0.44594 -0.999939,-0.99994 0,-0.554 0.445939,-0.99994 0.999939,-0.99994 z m 0,10.9616 h 46.381149 c 0.554,0 0.999939,0.44594 0.999939,0.99994 0,0.554 -0.445939,0.99994 -0.999939,0.99994 H 41.809333 c -0.554,0 -0.999939,-0.44594 -0.999939,-0.99994 0,-0.554 0.445939,-0.99994 0.999939,-0.99994 z"
     style="vector-effect:none;fill:#c5c5c5;fill-opacity:1;stroke:none;stroke-width:1.32292;stroke-linecap:round;stroke-linejoin:round;stroke-miterlimit:4;stroke-dasharray:none;stroke-dashoffset:0;stroke-opacity:1;paint-order:fill markers stroke" />
</svg>
