<?xml version="1.0" encoding="UTF-8" standalone="no"?>
<svg
   xmlns:dc="http://purl.org/dc/elements/1.1/"
   xmlns:cc="http://creativecommons.org/ns#"
   xmlns:rdf="http://www.w3.org/1999/02/22-rdf-syntax-ns#"
   xmlns:svg="http://www.w3.org/2000/svg"
   xmlns="http://www.w3.org/2000/svg"
   xmlns:sodipodi="http://sodipodi.sourceforge.net/DTD/sodipodi-0.dtd"
   xmlns:inkscape="http://www.inkscape.org/namespaces/inkscape"
   inkscape:version="1.1-dev (ddb55ca, 2020-02-02)"
   sodipodi:docname="ferry.svg"
   viewBox="0 0 15.391873 16.969006"
   version="1.1"
   width="15.391873"
   height="16.969006"
   id="svg4145">
  <metadata
     id="metadata964">
    <rdf:RDF>
      <cc:Work
         rdf:about="">
        <dc:format>image/svg+xml</dc:format>
        <dc:type
           rdf:resource="http://purl.org/dc/dcmitype/StillImage" />
        <dc:title></dc:title>
      </cc:Work>
    </rdf:RDF>
  </metadata>
  <defs
     id="defs962" />
  <sodipodi:namedview
     inkscape:current-layer="svg4145"
     inkscape:window-maximized="0"
     inkscape:window-y="23"
     inkscape:window-x="0"
     inkscape:cy="10.165099"
     inkscape:cx="7.8654818"
     inkscape:zoom="25.877374"
     showgrid="false"
     id="namedview960"
     inkscape:window-height="811"
     inkscape:window-width="1440"
     inkscape:pageshadow="2"
     inkscape:pageopacity="0"
     guidetolerance="10"
     gridtolerance="10"
     objecttolerance="10"
     borderopacity="1"
     bordercolor="#666666"
     pagecolor="#ffffff"
     showguides="false"
     inkscape:snap-global="false">
    <sodipodi:guide
       position="-0.36062911,45.14214"
       orientation="0,-1"
       id="guide2182" />
  </sodipodi:namedview>
  <path
     inkscape:connector-curvature="0"
     d="m 3.664686,0 c -0.277,0 -0.491091,0.2231433 -0.5,0.5 L 2.996718,5.7363285 0.277968,7.0039065 C 0.065719,7.1091505 -0.04355,7.3488885 0.016249,7.5781255 L 2.62953,15.056641 2.086561,15.59961 1.084608,14.597656 a 0.56751502,0.56751502 0 0 0 -0.40039,-0.166015 0.56751502,0.56751502 0 0 0 -0.402344,0.166015 0.56751502,0.56751502 0 0 0 0,0.802735 l 1.402344,1.402343 a 0.56757177,0.56757177 0 0 0 0.802734,0 l 1.001953,-0.999999 1,0.999999 a 0.56757177,0.56757177 0 0 0 0.802734,0 l 1.001954,-0.999999 1,0.999999 a 0.56757177,0.56757177 0 0 0 0.802734,0 l 1.001953,-0.999999 1,0.999999 a 0.56757177,0.56757177 0 0 0 0.802735,0 l 1.001953,-0.999999 1,0.999999 a 0.56757177,0.56757177 0 0 0 0.802734,0 l 1.402344,-1.402343 a 0.56751502,0.56751502 0 0 0 0,-0.802735 0.56751502,0.56751502 0 0 0 -0.802735,0 l -1,1.001954 -0.542968,-0.542969 2.613281,-7.4785155 c 0.0598,-0.229237 -0.04947,-0.468975 -0.261719,-0.574219 L 12.395155,5.7363285 12.225233,0.5 c -0.0089,-0.2768562 -0.223,-0.5 -0.5,-0.5 z m 1.16211,1.0371094 h 5.736328 c 0.197128,0 0.355469,0.160293 0.355469,0.3574219 l 0.169922,3.7343752 -3.171876,-1.478516 c -0.13971,-0.0691 -0.303649,-0.0691 -0.443359,0 L 4.303358,5.1289065 4.471327,1.3945313 C 4.480227,1.1976037 4.629668,1.0371093 4.826796,1.0371094 Z M 7.56703,4.4843755 a 0.30001499,0.30001499 0 0 1 0.257813,0 l 6.5,3.08789 a 0.29998499,0.29998499 0 0 1 0.142578,0.400391 0.29998499,0.29998499 0 0 1 -0.400391,0.142578 L 7.695936,5.0878905 1.324843,8.1152345 A 0.29998499,0.29998499 0 0 1 0.924452,7.9726565 0.29998499,0.29998499 0 0 1 1.06703,7.5722655 Z"
     style="fill:#f9f9f9;fill-opacity:1;stroke:none;stroke-width:0.75;stroke-linecap:round;stroke-linejoin:round"
     id="rect2180" />
</svg>
