<?xml version="1.0" encoding="UTF-8" standalone="no"?>
<!-- Created with Inkscape (http://www.inkscape.org/) -->

<svg
   xmlns:dc="http://purl.org/dc/elements/1.1/"
   xmlns:cc="http://creativecommons.org/ns#"
   xmlns:rdf="http://www.w3.org/1999/02/22-rdf-syntax-ns#"
   xmlns:svg="http://www.w3.org/2000/svg"
   xmlns="http://www.w3.org/2000/svg"
   xmlns:sodipodi="http://sodipodi.sourceforge.net/DTD/sodipodi-0.dtd"
   xmlns:inkscape="http://www.inkscape.org/namespaces/inkscape"
   width="161.07776mm"
   height="185.64676mm"
   viewBox="0 0 161.07776 185.64677"
   version="1.1"
   id="svg1012"
   inkscape:version="0.92.2 5c3e80d, 2017-08-06"
   sodipodi:docname="train-raw.svg">
  <defs
     id="defs1006" />
  <sodipodi:namedview
     id="base"
     pagecolor="#000000"
     bordercolor="#666666"
     borderopacity="1.0"
     inkscape:pageopacity="0"
     inkscape:pageshadow="2"
     inkscape:zoom="0.58333333"
     inkscape:cx="243.81332"
     inkscape:cy="339.30884"
     inkscape:document-units="mm"
     inkscape:current-layer="layer1"
     showgrid="false"
     inkscape:window-width="1440"
     inkscape:window-height="855"
     inkscape:window-x="1920"
     inkscape:window-y="85"
     inkscape:window-maximized="1"
     inkscape:snap-global="false" />
  <metadata
     id="metadata1009">
    <rdf:RDF>
      <cc:Work
         rdf:about="">
        <dc:format>image/svg+xml</dc:format>
        <dc:type
           rdf:resource="http://purl.org/dc/dcmitype/StillImage" />
        <dc:title></dc:title>
      </cc:Work>
    </rdf:RDF>
  </metadata>
  <g
     inkscape:label="Layer 1"
     inkscape:groupmode="layer"
     id="layer1"
     transform="translate(111.91715,-7.999405)">
    <path
       style="opacity:1;vector-effect:none;fill:#f5f5f5;fill-opacity:1;stroke:none;stroke-width:1.32291663;stroke-linecap:round;stroke-linejoin:round;stroke-miterlimit:4;stroke-dasharray:none;stroke-dashoffset:0;stroke-opacity:1;paint-order:fill markers stroke"
       d="M -81.589292,7.999405 H 19.90356 c 13.85,0 24.375948,11.164067 25,25 l 4.233334,93.857745 c 0.624052,13.83593 -11.15,25 -25,25 H -86.880959 c -13.850001,0 -25.779621,-11.17196 -25.000001,-25 l 5.29167,-93.857745 c 0.77962,-13.828039 11.149997,-25 24.999998,-25 z"
       id="rect1780"
       inkscape:connector-curvature="0"
       sodipodi:nodetypes="sssssssss" />
    <rect
       style="opacity:1;vector-effect:none;fill:#111111;fill-opacity:1;stroke:none;stroke-width:1.17604709;stroke-linecap:round;stroke-linejoin:round;stroke-miterlimit:4;stroke-dasharray:none;stroke-dashoffset:0;stroke-opacity:1;paint-order:fill markers stroke"
       id="rect1649"
       width="114.29389"
       height="63.285515"
       x="-88.518982"
       y="36.895905"
       rx="2.8636336"
       ry="2.4837663" />
    <path
       style="opacity:1;vector-effect:none;fill:#f5f5f5;fill-opacity:1;stroke:none;stroke-width:1.40471697;stroke-linecap:round;stroke-linejoin:round;stroke-miterlimit:4;stroke-dasharray:none;stroke-dashoffset:0;stroke-opacity:1;paint-order:fill markers stroke"
       d="m -56.773582,126.36013 c -1.439201,-0.005 -2.867972,0.61148 -3.863332,1.81023 l -24.59488,29.62041 h -16.419666 c -2.77,0 -4.9997,2.23021 -4.9997,5.00021 v 4.7532 c 0,2.77 2.2297,4.9997 4.9997,4.9997 h 4.169251 l -8.192781,9.8671 c -1.76953,2.13111 -1.47844,5.27138 0.65267,7.04091 l 3.65714,3.03651 c 2.131119,1.76953 5.271389,1.47844 7.040918,-0.65268 l 16.018661,-19.29184 h 36.44842 20.970295 36.44842 l 16.018661,19.29184 c 1.769531,2.13112 4.909799,2.42221 7.040914,0.65268 l 3.657143,-3.03651 c 2.131115,-1.76953 2.422202,-4.9098 0.652671,-7.04091 l -8.19278,-9.8671 h 4.169254 c 2.769999,0 4.999696,-2.2297 4.999696,-4.9997 v -4.7532 c 0,-2.77 -2.229697,-5.00021 -4.999696,-5.00021 H 22.487728 L -2.1071524,128.17036 c -0.9953599,-1.19875 -2.424131,-1.81523 -3.863332,-1.81023 -1.119378,0.004 -2.2452198,0.38339 -3.1775823,1.15756 l -3.6566233,3.0365 c -2.131116,1.76954 -2.422205,4.9098 -0.652675,7.04092 L 3.3116385,157.79077 H -20.886886 -41.857181 -66.055705 l 16.769003,-20.19566 c 1.769531,-2.13112 1.478441,-5.27138 -0.652674,-7.04092 l -3.656624,-3.0365 c -0.932362,-0.77417 -2.058204,-1.15375 -3.177582,-1.15756 z"
       id="rect1772"
       inkscape:connector-curvature="0" />
    <g
       id="g1981"
       transform="translate(3.1857815)">
      <g
         transform="matrix(1.5304751,0,0,1.5304751,50.506467,-67.20076)"
         id="g1851">
        <g
           id="g1741"
           transform="translate(-2.021218,2.2678572)">
          <g
             transform="translate(-1.6036172,6.0937453)"
             id="g1703">
            <g
               id="g1677"
               transform="matrix(0.69144431,0,0,0.69144431,-23.280906,36.376001)">
              <g
                 transform="matrix(0.86560847,0,0,0.86560847,7.2127181,-0.69715589)"
                 id="g1662">
                <circle
                   style="opacity:1;vector-effect:none;fill:#111111;fill-opacity:1;stroke:none;stroke-width:1.22225296;stroke-linecap:round;stroke-linejoin:round;stroke-miterlimit:4;stroke-dasharray:none;stroke-dashoffset:0;stroke-opacity:1;paint-order:fill markers stroke"
                   id="path1651"
                   cx="-115"
                   cy="137"
                   r="10" />
              </g>
              <g
                 id="g1669"
                 transform="matrix(0.86560847,0,0,0.86560847,118.71569,-0.69715589)" />
            </g>
            <g
               transform="matrix(0.69144431,0,0,0.69144431,-8.4426607,36.376001)"
               id="g1693">
              <g
                 id="g1689"
                 transform="matrix(0.86560847,0,0,0.86560847,7.2127181,-0.69715589)" />
              <g
                 transform="matrix(0.86560847,0,0,0.86560847,118.71569,-0.69715589)"
                 id="g1691" />
            </g>
          </g>
          <g
             id="g1721"
             transform="translate(102.31078,6.0937453)">
            <g
               transform="matrix(0.69144431,0,0,0.69144431,-23.280906,36.376001)"
               id="g1711">
              <g
                 id="g1707"
                 transform="matrix(0.86560847,0,0,0.86560847,7.2127181,-0.69715589)" />
              <g
                 transform="matrix(0.86560847,0,0,0.86560847,118.71569,-0.69715589)"
                 id="g1709" />
            </g>
            <g
               id="g1719"
               transform="matrix(0.69144431,0,0,0.69144431,-8.4426607,36.376001)">
              <g
                 transform="matrix(0.86560847,0,0,0.86560847,7.2127181,-0.69715589)"
                 id="g1715" />
              <g
                 id="g1717"
                 transform="matrix(0.86560847,0,0,0.86560847,118.71569,-0.69715589)" />
            </g>
          </g>
        </g>
        <g
           transform="translate(103.66093,2.2678572)"
           id="g1815">
          <g
             id="g1799"
             transform="translate(-1.6036172,6.0937453)">
            <g
               transform="matrix(0.69144431,0,0,0.69144431,-23.280906,36.376001)"
               id="g1789">
              <g
                 id="g1785"
                 transform="matrix(0.86560847,0,0,0.86560847,7.2127181,-0.69715589)" />
              <g
                 transform="matrix(0.86560847,0,0,0.86560847,118.71569,-0.69715589)"
                 id="g1787" />
            </g>
            <g
               id="g1797"
               transform="matrix(0.69144431,0,0,0.69144431,-8.4426607,36.376001)">
              <g
                 transform="matrix(0.86560847,0,0,0.86560847,7.2127181,-0.69715589)"
                 id="g1793" />
              <g
                 id="g1795"
                 transform="matrix(0.86560847,0,0,0.86560847,118.71569,-0.69715589)" />
            </g>
          </g>
          <g
             transform="translate(102.31078,6.0937453)"
             id="g1813">
            <g
               id="g1805"
               transform="matrix(0.69144431,0,0,0.69144431,-23.280906,36.376001)">
              <g
                 transform="matrix(0.86560847,0,0,0.86560847,7.2127181,-0.69715589)"
                 id="g1801" />
              <g
                 id="g1803"
                 transform="matrix(0.86560847,0,0,0.86560847,118.71569,-0.69715589)" />
            </g>
            <g
               transform="matrix(0.69144431,0,0,0.69144431,-8.4426607,36.376001)"
               id="g1811">
              <g
                 id="g1807"
                 transform="matrix(0.86560847,0,0,0.86560847,7.2127181,-0.69715589)" />
              <g
                 transform="matrix(0.86560847,0,0,0.86560847,118.71569,-0.69715589)"
                 id="g1809" />
            </g>
          </g>
        </g>
      </g>
      <g
         id="g1915"
         transform="matrix(1.5304751,0,0,1.5304751,163.44575,-67.20076)">
        <g
           transform="translate(-2.021218,2.2678572)"
           id="g1883">
          <g
             id="g1867"
             transform="translate(-1.6036172,6.0937453)">
            <g
               transform="matrix(0.69144431,0,0,0.69144431,-23.280906,36.376001)"
               id="g1859">
              <g
                 id="g1855"
                 transform="matrix(0.86560847,0,0,0.86560847,7.2127181,-0.69715589)">
                <circle
                   r="10"
                   cy="137"
                   cx="-120.77679"
                   id="circle1853"
                   style="opacity:1;vector-effect:none;fill:#111111;fill-opacity:1;stroke:none;stroke-width:1.22225296;stroke-linecap:round;stroke-linejoin:round;stroke-miterlimit:4;stroke-dasharray:none;stroke-dashoffset:0;stroke-opacity:1;paint-order:fill markers stroke" />
              </g>
              <g
                 transform="matrix(0.86560847,0,0,0.86560847,118.71569,-0.69715589)"
                 id="g1857" />
            </g>
            <g
               id="g1865"
               transform="matrix(0.69144431,0,0,0.69144431,-8.4426607,36.376001)">
              <g
                 transform="matrix(0.86560847,0,0,0.86560847,7.2127181,-0.69715589)"
                 id="g1861" />
              <g
                 id="g1863"
                 transform="matrix(0.86560847,0,0,0.86560847,118.71569,-0.69715589)" />
            </g>
          </g>
          <g
             transform="translate(102.31078,6.0937453)"
             id="g1881">
            <g
               id="g1873"
               transform="matrix(0.69144431,0,0,0.69144431,-23.280906,36.376001)">
              <g
                 transform="matrix(0.86560847,0,0,0.86560847,7.2127181,-0.69715589)"
                 id="g1869" />
              <g
                 id="g1871"
                 transform="matrix(0.86560847,0,0,0.86560847,118.71569,-0.69715589)" />
            </g>
            <g
               transform="matrix(0.69144431,0,0,0.69144431,-8.4426607,36.376001)"
               id="g1879">
              <g
                 id="g1875"
                 transform="matrix(0.86560847,0,0,0.86560847,7.2127181,-0.69715589)" />
              <g
                 transform="matrix(0.86560847,0,0,0.86560847,118.71569,-0.69715589)"
                 id="g1877" />
            </g>
          </g>
        </g>
        <g
           id="g1913"
           transform="translate(103.66093,2.2678572)">
          <g
             transform="translate(-1.6036172,6.0937453)"
             id="g1897">
            <g
               id="g1889"
               transform="matrix(0.69144431,0,0,0.69144431,-23.280906,36.376001)">
              <g
                 transform="matrix(0.86560847,0,0,0.86560847,7.2127181,-0.69715589)"
                 id="g1885" />
              <g
                 id="g1887"
                 transform="matrix(0.86560847,0,0,0.86560847,118.71569,-0.69715589)" />
            </g>
            <g
               transform="matrix(0.69144431,0,0,0.69144431,-8.4426607,36.376001)"
               id="g1895">
              <g
                 id="g1891"
                 transform="matrix(0.86560847,0,0,0.86560847,7.2127181,-0.69715589)" />
              <g
                 transform="matrix(0.86560847,0,0,0.86560847,118.71569,-0.69715589)"
                 id="g1893" />
            </g>
          </g>
          <g
             id="g1911"
             transform="translate(102.31078,6.0937453)">
            <g
               transform="matrix(0.69144431,0,0,0.69144431,-23.280906,36.376001)"
               id="g1903">
              <g
                 id="g1899"
                 transform="matrix(0.86560847,0,0,0.86560847,7.2127181,-0.69715589)" />
              <g
                 transform="matrix(0.86560847,0,0,0.86560847,118.71569,-0.69715589)"
                 id="g1901" />
            </g>
            <g
               id="g1909"
               transform="matrix(0.69144431,0,0,0.69144431,-8.4426607,36.376001)">
              <g
                 transform="matrix(0.86560847,0,0,0.86560847,7.2127181,-0.69715589)"
                 id="g1905" />
              <g
                 id="g1907"
                 transform="matrix(0.86560847,0,0,0.86560847,118.71569,-0.69715589)" />
            </g>
          </g>
        </g>
      </g>
    </g>
  </g>
</svg>
