<?xml version="1.0" encoding="UTF-8" standalone="no"?>
<svg
   xmlns:dc="http://purl.org/dc/elements/1.1/"
   xmlns:cc="http://creativecommons.org/ns#"
   xmlns:rdf="http://www.w3.org/1999/02/22-rdf-syntax-ns#"
   xmlns:svg="http://www.w3.org/2000/svg"
   xmlns="http://www.w3.org/2000/svg"
   width="138.49127mm"
   height="144.65318mm"
   viewBox="0 0 138.49127 144.65318"
   version="1.1"
   id="svg8">
  <defs
     id="defs2" />
  <metadata
     id="metadata5">
    <rdf:RDF>
      <cc:Work
         rdf:about="">
        <dc:format>image/svg+xml</dc:format>
        <dc:type
           rdf:resource="http://purl.org/dc/dcmitype/StillImage" />
        <dc:title></dc:title>
      </cc:Work>
    </rdf:RDF>
  </metadata>
  <path
     id="path1017"
     d="m 80.147535,82.05764 c 0.0964,-0.56184 0.4785,-1.23194 3.36905,-5.90871 1.67425,-2.70885 4.38491,-7.10318 6.02369,-9.76517 1.63877,-2.66199 3.69047,-5.98732 4.55934,-7.38963 0.86887,-1.4023 2.3559,-3.8179 3.30452,-5.36801 0.94862,-1.55011 1.8657,-3.03887 2.03796,-3.30837 0.46471,-0.72701 0.44862,-1.60835 -0.0423,-2.31503 l -0.43559,-0.62706 -7.94358,-2.14851 c -8.9031,-2.40804 -8.92966,-2.41959 -9.19421,-3.88163 l -0.14208,-0.78566 2.50926,-4.15278 c 1.3801,-2.28404 3.1413,-5.18287 3.91379,-6.44186 1.20404,-1.96234 10.52709,-17.31248 15.208175,-25.03988 0.82285,-1.35831 1.64384,-2.6986 1.82445,-2.97845 0.55065,-0.85325 1.55001,-1.4799 2.74167,-1.71916 L 109.01585,0 123.18294,3.83212 c 13.10817,3.54569 14.20965,3.87045 14.73646,4.34509 0.37466,0.33753 0.57025,0.72384 0.57186,1.12955 0.003,0.69923 -0.53414,1.32146 -13.9667,16.18474 -7.97786,8.82761 -7.95033,8.79016 -7.24223,9.84975 0.26729,0.39997 0.88975,0.59993 7.07594,2.27313 6.71991,1.81755 7.34623,2.04456 7.58325,2.74903 0.24014,0.7137 -0.25998,1.33507 -2.48189,3.08366 -1.26119,0.99252 -4.10872,3.25362 -6.32788,5.02467 -2.21915,1.77105 -6.63833,5.28753 -9.82042,7.8144 -3.18208,2.52686 -7.08105,5.62972 -8.66438,6.89524 -1.58332,1.26551 -6.863865,5.47289 -11.734525,9.34973 -4.87065,3.87683 -9.60414,7.64567 -10.51886,8.3752 -1.6047,1.2798 -2.33204,1.65265 -2.24602,1.15134 z"
     style="fill:#c5c5c5;fill-opacity:1;stroke-width:0.198183" />
  <path
     id="path1015"
     d="m 61.104645,144.48984 c -8.61367,-0.83327 -16.10656,-2.95691 -23.87636,-6.76706 C 19.752257,129.15289 6.716727,113.04315 1.960017,94.13709 0.414687,87.99502 -0.004543,84.46062 3.7e-5,77.61324 c 0.005,-6.73526 0.39219,-10.10699 1.84966,-16.08667 5.78385,-23.72974 24.7586,-42.83469 48.498988,-48.83176 3.50632,-0.88573 8.03143,-1.68305 9.56235,-1.68488 0.88102,-0.001 0.92291,0.0383 0.56445,0.53049 -4.48569,6.15881 -8.33497,13.30714 -10.35184,19.22393 -8.17115,23.97127 -2.43992,49.87627 15.11618,68.32472 12.70607,13.35191 31.61454,21.10903 50.022585,20.52155 3.71291,-0.1185 3.90171,-0.0985 3.64225,0.3863 -0.54293,1.01449 -7.15539,7.61794 -9.67389,9.66072 -9.361925,7.59356 -20.848155,12.62171 -32.914705,14.40857 -3.67079,0.54358 -11.66887,0.76632 -15.21142,0.42363 z"
     style="fill:#c5c5c5;fill-opacity:1;stroke-width:0.282222" />
</svg>
