<?xml version="1.0" encoding="UTF-8" standalone="no"?>
<svg
   xmlns:dc="http://purl.org/dc/elements/1.1/"
   xmlns:cc="http://creativecommons.org/ns#"
   xmlns:rdf="http://www.w3.org/1999/02/22-rdf-syntax-ns#"
   xmlns:svg="http://www.w3.org/2000/svg"
   xmlns="http://www.w3.org/2000/svg"
   width="110.78682mm"
   height="153.10814mm"
   viewBox="0 0 110.78682 153.10814"
   version="1.1"
   id="svg1159">
  <defs
     id="defs1153" />
  <metadata
     id="metadata1156">
    <rdf:RDF>
      <cc:Work
         rdf:about="">
        <dc:format>image/svg+xml</dc:format>
        <dc:type
           rdf:resource="http://purl.org/dc/dcmitype/StillImage" />
        <dc:title></dc:title>
      </cc:Work>
    </rdf:RDF>
  </metadata>
  <path
     d="m 24.846545,0 c -1.108,0 -1.999878,0.89187791 -1.999878,1.9998779 V 3.990454 c 0,1.1080001 0.891878,1.999878 1.999878,1.999878 H 51.001022 V 15.55564 H 18.995223 c -9.0533872,0 -16.0652,7.29249 -16.3421549,16.341637 L 0.0072347,118.34626 c -0.26603271,8.69226 6.7050912,15.75962 15.2791703,16.30392 l -7.1241127,9.50691 c -1.6610981,2.21668 -1.2136363,5.33847 1.0030396,6.99957 l 1.2650391,0.94827 c 2.216676,1.66109 5.338475,1.21363 6.999573,-1.00304 l 12.299507,-16.41347 h 51.32865 l 12.299508,16.41347 c 1.661096,2.21667 4.782897,2.66413 6.999571,1.00304 l 1.26556,-0.94827 c 2.21667,-1.6611 2.66362,-4.78289 1.00252,-6.99957 l -7.123597,-9.50639 c 8.570607,-0.54368 15.493077,-7.61037 15.280207,-16.30444 L 108.6652,31.897277 C 108.44361,22.846605 101.37694,15.55564 92.323562,15.55564 H 59.78653 V 5.990332 h 26.154477 c 1.107999,0 1.999877,-0.8918779 1.999877,-1.999878 V 1.9998779 C 87.940884,0.89187791 87.049006,0 85.941007,0 Z m 2.01228,29.406474 h 57.068351 c 6.648,0 12.000302,5.351788 12.000302,11.999783 V 87.40655 c 0,6.648 -5.352302,11.999783 -12.000302,11.999783 H 26.858825 c -6.647998,0 -11.999784,-5.351783 -11.999784,-11.999783 V 41.406257 c 0,-6.647995 5.351786,-11.999783 11.999784,-11.999783 z m -9.650573,83.349946 h 12.87415 c 2.031331,0 3.666443,1.63563 3.666443,3.66696 v 1.45211 c 0,2.03133 -1.635112,3.66696 -3.666443,3.66696 h -12.87415 c -2.031333,0 -3.666443,-1.63563 -3.666443,-3.66696 v -1.45211 c 0,-2.03133 1.63511,-3.66696 3.666443,-3.66696 z m 63.496897,0 h 12.874152 c 2.031328,0 3.666442,1.63563 3.666442,3.66696 v 1.45211 c 0,2.03133 -1.635114,3.66696 -3.666442,3.66696 H 80.705149 c -2.031338,0 -3.666442,-1.63563 -3.666442,-3.66696 v -1.45211 c 0,-2.03133 1.635104,-3.66696 3.666442,-3.66696 z"
     style="fill:#c5c5c5;fill-opacity:1;stroke-width:0"
     id="rect2643" />
</svg>
