<?xml version="1.0" encoding="UTF-8" standalone="no"?>
<svg
   xmlns:dc="http://purl.org/dc/elements/1.1/"
   xmlns:cc="http://creativecommons.org/ns#"
   xmlns:rdf="http://www.w3.org/1999/02/22-rdf-syntax-ns#"
   xmlns:svg="http://www.w3.org/2000/svg"
   xmlns="http://www.w3.org/2000/svg"
   xmlns:sodipodi="http://sodipodi.sourceforge.net/DTD/sodipodi-0.dtd"
   xmlns:inkscape="http://www.inkscape.org/namespaces/inkscape"
   inkscape:version="1.1-dev (ddb55ca, 2020-02-02)"
   sodipodi:docname="vline.svg"
   id="svg8"
   version="1.1"
   viewBox="0 0 118.69135 156.1944"
   height="156.1944mm"
   width="118.69138mm">
  <sodipodi:namedview
     inkscape:current-layer="svg8"
     inkscape:window-maximized="1"
     inkscape:window-y="23"
     inkscape:window-x="0"
     inkscape:cy="295.17051"
     inkscape:cx="224.29868"
     inkscape:zoom="1.1264675"
     showgrid="false"
     id="namedview3965"
     inkscape:window-height="855"
     inkscape:window-width="1440"
     inkscape:pageshadow="2"
     inkscape:pageopacity="0"
     guidetolerance="10"
     gridtolerance="10"
     objecttolerance="10"
     borderopacity="1"
     bordercolor="#666666"
     pagecolor="#ffffff" />
  <defs
     id="defs2" />
  <metadata
     id="metadata5">
    <rdf:RDF>
      <cc:Work
         rdf:about="">
        <dc:format>image/svg+xml</dc:format>
        <dc:type
           rdf:resource="http://purl.org/dc/dcmitype/StillImage" />
        <dc:title />
      </cc:Work>
    </rdf:RDF>
  </metadata>
  <path
     style="vector-effect:none;fill:#f9f9f9;fill-opacity:1;stroke:none;stroke-width:1.32292;stroke-linecap:round;stroke-linejoin:round;stroke-miterlimit:4;stroke-dasharray:none;stroke-dashoffset:0;stroke-opacity:1;paint-order:fill markers stroke"
     d="m 82.545348,2.6727049 a 4.6772165,4.6772165 0 0 0 -4.677233,4.677234 4.6772165,4.6772165 0 0 0 4.677233,4.6772341 4.6772165,4.6772165 0 0 0 4.677235,-4.6772341 4.6772165,4.6772165 0 0 0 -4.677235,-4.677234 z M 72.387311,4.2359172 a 3.1137696,3.1137696 0 0 0 -3.113503,3.1140217 3.1137696,3.1137696 0 0 0 3.113503,3.1135051 3.1137696,3.1137696 0 0 0 3.114024,-3.1135051 3.1137696,3.1137696 0 0 0 -3.114024,-3.1140217 z m 20.316589,0 A 3.1137696,3.1137696 0 0 0 89.589879,7.3499389 3.1137696,3.1137696 0 0 0 92.7039,10.463444 3.1137696,3.1137696 0 0 0 95.817406,7.3499389 3.1137696,3.1137696 0 0 0 92.7039,4.2359172 Z M 29.99972,5.0756592 C 13.379715,5.0756592 0,18.455897 0,35.075894 c 0.0614336,29.073697 0.00238125,55.838121 0,82.289036 0,3.878 3.1220889,7.00009 7.0000894,7.00009 H 25.437723 l -4.949568,5.96087 H 8.6418496 c -1.9984479,0 -3.6070148,1.60908 -3.6070148,3.60754 v 3.42924 c 0,1.99845 1.6085669,3.60702 3.6070148,3.60702 h 3.0080854 l -5.9107506,7.11894 c -1.2766479,1.53751 -1.0667415,3.80314 0.4707724,5.0798 l 2.6385985,2.19056 c 1.5375207,1.27664 3.8026277,1.06676 5.0792767,-0.47077 l 11.556917,-13.91853 h 67.721963 l 11.556398,13.91853 c 1.27666,1.53753 3.54229,1.74741 5.0798,0.47077 l 2.63859,-2.19056 c 1.53753,-1.27666 1.74743,-3.54229 0.47078,-5.0798 l -5.91075,-7.11894 h 3.00808 c 1.99845,0 3.60702,-1.60857 3.60702,-3.60702 v -3.42924 c 0,-1.99846 -1.60857,-3.60754 -3.60702,-3.60754 H 98.203307 l -4.949568,-5.96087 h 18.430401 c 3.878,0 7.00009,-3.12209 7.00009,-7.00009 0.0161,-29.404977 0,-56.094395 0,-82.289036 0,-13.549389 -8.8931,-24.944348 -21.184238,-28.6928212 a 4.8930663,4.8930663 0 0 1 0.09663,0.9668661 4.8930663,4.8930663 0 0 1 -4.892725,4.8932411 4.8930663,4.8930663 0 0 1 -3.602363,-1.588533 7.3499117,7.3499117 0 0 1 -6.556189,4.045231 7.3499117,7.3499117 0 0 1 -6.561357,-4.041614 4.8930663,4.8930663 0 0 1 -3.59668,1.584916 4.8930663,4.8930663 0 0 1 -4.892723,-4.8932411 4.8930663,4.8930663 0 0 1 0.56379,-2.2742797 z M 14.474052,31.782557 h 33.876485 c 4.346744,0 7.846031,3.16957 7.846031,7.106541 v 21.473107 c 0,3.936973 -3.499287,7.106544 -7.846031,7.106544 H 14.474052 c -4.346746,0 -7.8460329,-3.169571 -7.8460329,-7.106544 V 38.889098 c 0,-3.936971 3.4992869,-7.106541 7.8460329,-7.106541 z m 55.859637,0 h 33.876481 c 4.34675,0 7.84604,3.16957 7.84604,7.106541 v 21.473107 c 0,3.936973 -3.49929,7.106544 -7.84604,7.106544 H 70.333689 c -4.346739,0 -7.846031,-3.169571 -7.846031,-7.106544 V 38.889098 c 0,-3.936971 3.499292,-7.106541 7.846031,-7.106541 z M 12.687597,78.256203 a 3.7417729,3.7417729 0 0 1 3.741891,3.741891 3.7417729,3.7417729 0 0 1 -3.741891,3.741891 3.7417729,3.7417729 0 0 1 -3.7418899,-3.741891 3.7417729,3.7417729 0 0 1 3.7418899,-3.741891 z m 9.354468,0 a 3.7417729,3.7417729 0 0 1 3.741891,3.741891 3.7417729,3.7417729 0 0 1 -3.741891,3.741891 3.7417729,3.7417729 0 0 1 -3.74189,-3.741891 3.7417729,3.7417729 0 0 1 3.74189,-3.741891 z m 74.600097,0 a 3.7417729,3.7417729 0 0 1 3.741888,3.741891 3.7417729,3.7417729 0 0 1 -3.741888,3.741891 3.7417729,3.7417729 0 0 1 -3.741891,-3.741891 3.7417729,3.7417729 0 0 1 3.741891,-3.741891 z m 9.354468,0 a 3.7417729,3.7417729 0 0 1 3.74189,3.741891 3.7417729,3.7417729 0 0 1 -3.74189,3.741891 3.7417729,3.7417729 0 0 1 -3.74189,-3.741891 3.7417729,3.7417729 0 0 1 3.74189,-3.741891 z M 39.272538,124.36502 h 40.146387 l 4.949568,5.96087 H 34.322969 Z"
     id="rect834" />
</svg>
