<?xml version="1.0" encoding="UTF-8" standalone="no"?>
<!-- Created with Inkscape (http://www.inkscape.org/) -->

<svg
   xmlns:dc="http://purl.org/dc/elements/1.1/"
   xmlns:cc="http://creativecommons.org/ns#"
   xmlns:rdf="http://www.w3.org/1999/02/22-rdf-syntax-ns#"
   xmlns:svg="http://www.w3.org/2000/svg"
   xmlns="http://www.w3.org/2000/svg"
   xmlns:sodipodi="http://sodipodi.sourceforge.net/DTD/sodipodi-0.dtd"
   xmlns:inkscape="http://www.inkscape.org/namespaces/inkscape"
   width="118.69138mm"
   height="158.31107mm"
   viewBox="0 0 118.69136 158.31107"
   version="1.1"
   id="svg8"
   inkscape:version="0.92.2 5c3e80d, 2017-08-06"
   sodipodi:docname="vline-raw.svg">
  <defs
     id="defs2" />
  <sodipodi:namedview
     id="base"
     pagecolor="#0a0a0a"
     bordercolor="#666666"
     borderopacity="1.0"
     inkscape:pageopacity="0"
     inkscape:pageshadow="2"
     inkscape:zoom="1.0957247"
     inkscape:cx="187.79316"
     inkscape:cy="297.17047"
     inkscape:document-units="mm"
     inkscape:current-layer="layer1"
     showgrid="false"
     inkscape:window-width="1440"
     inkscape:window-height="855"
     inkscape:window-x="1920"
     inkscape:window-y="181"
     inkscape:window-maximized="1"
     inkscape:snap-global="false" />
  <metadata
     id="metadata5">
    <rdf:RDF>
      <cc:Work
         rdf:about="">
        <dc:format>image/svg+xml</dc:format>
        <dc:type
           rdf:resource="http://purl.org/dc/dcmitype/StillImage" />
        <dc:title />
      </cc:Work>
    </rdf:RDF>
  </metadata>
  <g
     inkscape:label="Layer 1"
     inkscape:groupmode="layer"
     id="layer1"
     transform="translate(-27.970384,-36.412208)">
    <path
       style="opacity:1;vector-effect:none;fill:#f5f5f5;fill-opacity:1;stroke:none;stroke-width:5;stroke-linecap:round;stroke-linejoin:round;stroke-miterlimit:4;stroke-dasharray:none;stroke-dashoffset:0;stroke-opacity:1;paint-order:fill markers stroke"
       d="m 219.09961,156.80469 c -62.81575,0 -113.38477,50.57097 -113.38477,113.38672 0.23219,109.88484 0.009,211.04168 0,311.01367 0,14.65701 11.80003,26.45703 26.45704,26.45703 h 395.65624 c 14.65701,0 26.45704,-11.80002 26.45704,-26.45703 0.0608,-111.13695 0,-212.0103 0,-311.01367 0,-62.81575 -50.56902,-113.38672 -113.38477,-113.38672 z"
       transform="scale(0.26458333)"
       id="rect834"
       inkscape:connector-curvature="0"
       sodipodi:nodetypes="sccssccss" />
    <g
       id="g854"
       transform="matrix(1,0,0,1.0152066,2.119439,1.1336609)"
       style="fill:#0d0d0d;fill-opacity:1">
      <rect
         ry="7.0000014"
         rx="7.8461123"
         y="66.056549"
         x="32.479092"
         height="35.151787"
         width="49.568604"
         id="rect842"
         style="opacity:1;vector-effect:none;fill:#0d0d0d;fill-opacity:1;stroke:none;stroke-width:1.40058887;stroke-linecap:round;stroke-linejoin:round;stroke-miterlimit:4;stroke-dasharray:none;stroke-dashoffset:0;stroke-opacity:1;paint-order:fill markers stroke" />
      <rect
         style="opacity:1;vector-effect:none;fill:#0d0d0d;fill-opacity:1;stroke:none;stroke-width:1.40058887;stroke-linecap:round;stroke-linejoin:round;stroke-miterlimit:4;stroke-dasharray:none;stroke-dashoffset:0;stroke-opacity:1;paint-order:fill markers stroke"
         id="rect844"
         width="49.568604"
         height="35.151787"
         x="88.338425"
         y="66.056549"
         rx="7.8461123"
         ry="7.0000014" />
    </g>
    <g
       id="g869"
       transform="translate(0.0489394,5.2916666)">
      <path
         id="path856"
         d="m 40.608891,109.37679 a 3.7417729,3.7417729 0 0 0 -3.741891,3.74189 3.7417729,3.7417729 0 0 0 3.741891,3.74188 3.7417729,3.7417729 0 0 0 3.741891,-3.74188 3.7417729,3.7417729 0 0 0 -3.741891,-3.74189 z m 9.354468,0 a 3.7417729,3.7417729 0 0 0 -3.741891,3.74189 3.7417729,3.7417729 0 0 0 3.741891,3.74188 3.7417729,3.7417729 0 0 0 3.741891,-3.74188 3.7417729,3.7417729 0 0 0 -3.741891,-3.74189 z"
         style="opacity:1;vector-effect:none;fill:#0d0d0d;fill-opacity:1;stroke:none;stroke-width:1.02893507;stroke-linecap:round;stroke-linejoin:round;stroke-miterlimit:4;stroke-dasharray:none;stroke-dashoffset:0;stroke-opacity:1;paint-order:fill markers stroke"
         inkscape:connector-curvature="0" />
      <path
         inkscape:connector-curvature="0"
         style="opacity:1;vector-effect:none;fill:#0d0d0d;fill-opacity:1;stroke:none;stroke-width:1.02893507;stroke-linecap:round;stroke-linejoin:round;stroke-miterlimit:4;stroke-dasharray:none;stroke-dashoffset:0;stroke-opacity:1;paint-order:fill markers stroke"
         d="m 124.56375,109.37679 a 3.7417729,3.7417729 0 0 0 -3.74189,3.74189 3.7417729,3.7417729 0 0 0 3.74189,3.74188 3.7417729,3.7417729 0 0 0 3.74189,-3.74188 3.7417729,3.7417729 0 0 0 -3.74189,-3.74189 z m 9.35446,0 a 3.7417729,3.7417729 0 0 0 -3.74189,3.74189 3.7417729,3.7417729 0 0 0 3.74189,3.74188 3.7417729,3.7417729 0 0 0 3.7419,-3.74188 3.7417729,3.7417729 0 0 0 -3.7419,-3.74189 z"
         id="path865" />
    </g>
    <g
       id="g877"
       transform="translate(-5.3453906,-7.4835468)">
      <circle
         style="opacity:1;vector-effect:none;fill:#0d0d0d;fill-opacity:1;stroke:none;stroke-width:1.54809391;stroke-linecap:round;stroke-linejoin:round;stroke-miterlimit:4;stroke-dasharray:none;stroke-dashoffset:0;stroke-opacity:1;paint-order:fill markers stroke"
         id="circle873"
         cx="115.86134"
         cy="51.245667"
         r="7.3499117" />
      <circle
         r="4.6772165"
         cy="51.245667"
         cx="115.86134"
         id="path871"
         style="opacity:1;vector-effect:none;fill:#f5f5f5;fill-opacity:1;stroke:none;stroke-width:0.98515069;stroke-linecap:round;stroke-linejoin:round;stroke-miterlimit:4;stroke-dasharray:none;stroke-dashoffset:0;stroke-opacity:1;paint-order:fill markers stroke" />
    </g>
    <g
       id="g897"
       transform="translate(-0.04724628)">
      <g
         id="g883"
         transform="matrix(0.66573132,0,0,0.66573132,43.588784,9.6462742)">
        <circle
           style="opacity:1;vector-effect:none;fill:#0d0d0d;fill-opacity:1;stroke:none;stroke-width:1.54809391;stroke-linecap:round;stroke-linejoin:round;stroke-miterlimit:4;stroke-dasharray:none;stroke-dashoffset:0;stroke-opacity:1;paint-order:fill markers stroke"
           id="circle879"
           cx="115.86134"
           cy="51.245667"
           r="7.3499117" />
        <circle
           r="4.6772165"
           cy="51.245667"
           cx="115.86134"
           id="circle881"
           style="opacity:1;vector-effect:none;fill:#f5f5f5;fill-opacity:1;stroke:none;stroke-width:0.98515069;stroke-linecap:round;stroke-linejoin:round;stroke-miterlimit:4;stroke-dasharray:none;stroke-dashoffset:0;stroke-opacity:1;paint-order:fill markers stroke" />
      </g>
      <g
         transform="matrix(0.66573132,0,0,0.66573132,23.272564,9.6462742)"
         id="g889">
        <circle
           r="7.3499117"
           cy="51.245667"
           cx="115.86134"
           id="circle885"
           style="opacity:1;vector-effect:none;fill:#0d0d0d;fill-opacity:1;stroke:none;stroke-width:1.54809391;stroke-linecap:round;stroke-linejoin:round;stroke-miterlimit:4;stroke-dasharray:none;stroke-dashoffset:0;stroke-opacity:1;paint-order:fill markers stroke" />
        <circle
           style="opacity:1;vector-effect:none;fill:#f5f5f5;fill-opacity:1;stroke:none;stroke-width:0.98515069;stroke-linecap:round;stroke-linejoin:round;stroke-miterlimit:4;stroke-dasharray:none;stroke-dashoffset:0;stroke-opacity:1;paint-order:fill markers stroke"
           id="circle887"
           cx="115.86134"
           cy="51.245667"
           r="4.6772165" />
      </g>
    </g>
    <g
       transform="translate(357.76235,-25.879256)"
       id="layer1-9"
       inkscape:label="Layer 1">
      <g
         id="g1815"
         transform="matrix(1.5304751,0,0,1.5304751,212.34272,-63.729861)">
        <g
           transform="translate(-1.6036172,6.0937453)"
           id="g1799">
          <g
             id="g1789"
             transform="matrix(0.69144431,0,0,0.69144431,-23.280906,36.376001)">
            <g
               transform="matrix(0.86560847,0,0,0.86560847,7.2127181,-0.69715589)"
               id="g1785" />
            <g
               id="g1787"
               transform="matrix(0.86560847,0,0,0.86560847,118.71569,-0.69715589)" />
          </g>
          <g
             transform="matrix(0.69144431,0,0,0.69144431,-8.4426607,36.376001)"
             id="g1797">
            <g
               id="g1793"
               transform="matrix(0.86560847,0,0,0.86560847,7.2127181,-0.69715589)" />
            <g
               transform="matrix(0.86560847,0,0,0.86560847,118.71569,-0.69715589)"
               id="g1795" />
          </g>
        </g>
        <g
           id="g1813"
           transform="translate(102.31078,6.0937453)">
          <g
             transform="matrix(0.69144431,0,0,0.69144431,-23.280906,36.376001)"
             id="g1805">
            <g
               id="g1801"
               transform="matrix(0.86560847,0,0,0.86560847,7.2127181,-0.69715589)" />
            <g
               transform="matrix(0.86560847,0,0,0.86560847,118.71569,-0.69715589)"
               id="g1803" />
          </g>
          <g
             id="g1811"
             transform="matrix(0.69144431,0,0,0.69144431,-8.4426607,36.376001)">
            <g
               transform="matrix(0.86560847,0,0,0.86560847,7.2127181,-0.69715589)"
               id="g1807" />
            <g
               id="g1809"
               transform="matrix(0.86560847,0,0,0.86560847,118.71569,-0.69715589)" />
          </g>
        </g>
      </g>
      <g
         transform="matrix(1.5304751,0,0,1.5304751,320.12221,-54.403536)"
         id="g1881">
        <g
           id="g1873"
           transform="matrix(0.69144431,0,0,0.69144431,-23.280906,36.376001)">
          <g
             transform="matrix(0.86560847,0,0,0.86560847,7.2127181,-0.69715589)"
             id="g1869" />
          <g
             id="g1871"
             transform="matrix(0.86560847,0,0,0.86560847,118.71569,-0.69715589)" />
        </g>
        <g
           transform="matrix(0.69144431,0,0,0.69144431,-8.4426607,36.376001)"
           id="g1879">
          <g
             id="g1875"
             transform="matrix(0.86560847,0,0,0.86560847,7.2127181,-0.69715589)" />
          <g
             transform="matrix(0.86560847,0,0,0.86560847,118.71569,-0.69715589)"
             id="g1877" />
        </g>
      </g>
      <g
         transform="matrix(1.5304751,0,0,1.5304751,325.282,-63.729861)"
         id="g1913">
        <g
           id="g1897"
           transform="translate(-1.6036172,6.0937453)">
          <g
             transform="matrix(0.69144431,0,0,0.69144431,-23.280906,36.376001)"
             id="g1889">
            <g
               id="g1885"
               transform="matrix(0.86560847,0,0,0.86560847,7.2127181,-0.69715589)" />
            <g
               transform="matrix(0.86560847,0,0,0.86560847,118.71569,-0.69715589)"
               id="g1887" />
          </g>
          <g
             id="g1895"
             transform="matrix(0.69144431,0,0,0.69144431,-8.4426607,36.376001)">
            <g
               transform="matrix(0.86560847,0,0,0.86560847,7.2127181,-0.69715589)"
               id="g1891" />
            <g
               id="g1893"
               transform="matrix(0.86560847,0,0,0.86560847,118.71569,-0.69715589)" />
          </g>
        </g>
        <g
           transform="translate(102.31078,6.0937453)"
           id="g1911">
          <g
             id="g1903"
             transform="matrix(0.69144431,0,0,0.69144431,-23.280906,36.376001)">
            <g
               transform="matrix(0.86560847,0,0,0.86560847,7.2127181,-0.69715589)"
               id="g1899" />
            <g
               id="g1901"
               transform="matrix(0.86560847,0,0,0.86560847,118.71569,-0.69715589)" />
          </g>
          <g
             transform="matrix(0.69144431,0,0,0.69144431,-8.4426607,36.376001)"
             id="g1909">
            <g
               id="g1905"
               transform="matrix(0.86560847,0,0,0.86560847,7.2127181,-0.69715589)" />
            <g
               transform="matrix(0.86560847,0,0,0.86560847,118.71569,-0.69715589)"
               id="g1907" />
          </g>
        </g>
      </g>
    </g>
    <path
       style="opacity:1;vector-effect:none;fill:#f5f5f5;fill-opacity:1;stroke:none;stroke-width:1.01344955;stroke-linecap:round;stroke-linejoin:round;stroke-miterlimit:4;stroke-dasharray:none;stroke-dashoffset:0;stroke-opacity:1;paint-order:fill markers stroke"
       d="m 68.98982,144.06231 c -1.038328,-0.003 -2.069126,0.44116 -2.787242,1.30602 L 48.458316,166.73831 H 36.612153 c -1.998448,0 -3.607091,1.60902 -3.607091,3.60747 v 3.42925 c 0,1.99845 1.608643,3.60709 3.607091,3.60709 h 3.007954 l -5.910776,7.11873 c -1.276648,1.53751 -1.066638,3.80309 0.470876,5.07975 l 2.638487,2.19072 c 1.537521,1.27664 3.803105,1.06664 5.079754,-0.47089 l 11.556849,-13.91831 h 67.721543 l 11.55685,13.91831 c 1.27666,1.53753 3.54224,1.74753 5.07975,0.47089 l 2.63849,-2.19072 c 1.53753,-1.27666 1.74753,-3.54224 0.47088,-5.07975 l -5.91077,-7.11873 H 138.02 c 1.99845,0 3.60708,-1.60864 3.60708,-3.60709 v -3.42925 c 0,-1.99845 -1.60863,-3.60747 -3.60708,-3.60747 h -11.84617 l -17.74427,-21.36998 c -0.71812,-0.86486 -1.74892,-1.30962 -2.78724,-1.30602 -0.8076,0.003 -1.61984,0.2766 -2.29252,0.83514 l -2.63811,2.19071 c -1.537527,1.27667 -1.747537,3.54224 -0.47089,5.07976 l 12.09822,14.57039 H 62.293124 l 12.098191,-14.57039 c 1.276654,-1.53752 1.066641,-3.80309 -0.470878,-5.07976 l -2.638114,-2.19071 c -0.672665,-0.55854 -1.48491,-0.83238 -2.292503,-0.83514 z"
       id="rect1772"
       inkscape:connector-curvature="0"
       sodipodi:nodetypes="cccssssccccccccccccsssscccccccccccc" />
  </g>
</svg>
