<svg xmlns="http://www.w3.org/2000/svg" width="10.916" height="17.634" viewBox="0 0 10.916 17.634">
    <path fill="#f9f9f9" d="M.76 17.634a.758.758 0 0 1-.447-.16c-.545-.4-.274-.926.023-1.342l1.914-2.685.721-2.425 1.4 1.862c-.151.4-.39 1-.45 1.148a2.671 2.671 0 0 1-.428.714c-.137.166-.422.538-.723.931-.417.545-.89 1.163-1.056 1.343l-.028.03c-.234.25-.547.584-.926.584zm8.074 0c-.316 0-.592-.186-.954-.641-.316-.4-2.117-3.149-3.193-4.792l-.049-.075c-.39-.6-.695-1.062-.766-1.166l-.014-.02a2.077 2.077 0 0 1-.5-1.618c.106-.519.348-1.665.576-2.7l-1.471 1.1-.014.082-.006.035c-.391 2.223-.474 2.66-.492 2.744a.569.569 0 0 1-.586.426A.592.592 0 0 1 1.25 11a.606.606 0 0 1-.512-.767l.49-3.151a.842.842 0 0 1 .384-.518L3.873 4.7l.118-.066a1.3 1.3 0 0 1 .756-.224h.831c.544 0 .8.227 1.173 1.057.4.883 1.189 2.479 1.194 2.488l.063.031c1.407.685 2.286 1.109 2.474 1.193a.775.775 0 0 1 .405.45.529.529 0 0 1-.042.441.55.55 0 0 1-.511.249 1.619 1.619 0 0 1-.619-.144l-.147-.064-.068-.034c-.58-.252-1.776-.777-2.046-.921a1.007 1.007 0 0 1-.447-.356c-.181-.273-.526-.753-.594-.846l-.576 2.364.152.241.037.058c2.134 3.377 3.3 5.222 3.457 5.485a1.283 1.283 0 0 1 .2.958.675.675 0 0 1-.345.431 1.039 1.039 0 0 1-.504.143zM6.185 3.674a1.837 1.837 0 1 1 1.82-1.836 1.83 1.83 0 0 1-1.82 1.836z"/>
</svg>