<?xml version="1.0" encoding="UTF-8" standalone="no"?>
<svg
   xmlns:dc="http://purl.org/dc/elements/1.1/"
   xmlns:cc="http://creativecommons.org/ns#"
   xmlns:rdf="http://www.w3.org/1999/02/22-rdf-syntax-ns#"
   xmlns:svg="http://www.w3.org/2000/svg"
   xmlns="http://www.w3.org/2000/svg"
   id="svg4807"
   version="1.1"
   viewBox="0 0 135.34124 118.42687"
   height="118.42687mm"
   width="135.34123mm">
  <defs
     id="defs4801" />
  <metadata
     id="metadata4804">
    <rdf:RDF>
      <cc:Work
         rdf:about="">
        <dc:format>image/svg+xml</dc:format>
        <dc:type
           rdf:resource="http://purl.org/dc/dcmitype/StillImage" />
        <dc:title></dc:title>
      </cc:Work>
    </rdf:RDF>
  </metadata>
  <g
     transform="translate(-63.860478,-176.54531)"
     id="layer1">
    <path
       id="path5444"
       d="m 163.24502,294.95942 c -0.8213,0.0314 -1.70571,-0.1771 -2.34845,-0.55356 -1.00793,-0.59034 -1.12711,-0.7701 -5.31536,-8.01585 -3.95495,-6.84218 -4.30737,-7.38355 -4.58357,-7.04253 -0.16458,0.20321 -1.69383,2.73368 -3.39834,5.62329 -4.05206,6.8694 -3.96615,6.74618 -5.20141,7.45937 -2.10506,1.21535 -4.52502,0.7125 -5.9659,-1.23965 -0.8647,-1.17152 -1.13906,-3.23044 -0.57967,-4.35006 0.21641,-0.43318 2.54997,-4.45033 5.18568,-8.92699 l 4.7922,-8.13937 -2.70885,-4.83424 -2.70882,-4.83424 -8.73636,0.0114 c -4.80499,0.006 -8.79701,0.0712 -8.87113,0.14425 -0.0741,0.0731 -1.36093,2.2489 -2.85955,4.83525 l -2.72477,4.70246 5.03923,8.571 c 2.77164,4.71401 5.10215,8.87837 5.17906,9.25404 0.38357,1.87397 -0.54709,3.96121 -2.19731,4.92809 -1.26254,0.73932 -3.16437,0.73453 -4.47698,-0.012 -1.14018,-0.64846 -1.2008,-0.73329 -5.00722,-7.00896 -2.1192,-3.49393 -3.88013,-6.33697 -3.9132,-6.31788 -0.0331,0.0192 -1.83899,3.11038 -4.01318,6.86955 -2.1742,3.75916 -4.32227,7.20492 -4.7735,7.65726 -2.53735,2.54362 -7.161331,0.90712 -7.624733,-2.69851 -0.187603,-1.45977 0.415897,-2.77254 4.526195,-9.84565 2.126448,-3.65927 3.831438,-6.70588 3.788858,-6.77022 -0.0428,-0.0642 -3.2612,-0.13484 -7.152449,-0.15667 -3.891254,-0.0218 -7.48457,-0.1875 -7.985146,-0.36816 -2.756719,-0.99489 -3.844149,-4.14622 -2.322853,-6.73158 0.785295,-1.33458 1.848336,-1.93947 3.67265,-2.0898 0.802005,-0.0661 5.460841,-0.0731 10.352958,-0.0156 l 8.89476,0.10454 2.76696,-4.7767 2.76695,-4.7767 -4.39611,-7.61425 -4.39609,-7.61426 -5.47377,0.005 c -4.697799,0.004 -5.520631,0.0794 -5.804359,0.52989 -0.181833,0.28872 -2.225742,3.88128 -4.542006,7.98348 -2.316281,4.10218 -4.524887,7.89676 -4.908027,8.43238 -0.925271,1.29353 -2.037727,1.90028 -3.506375,1.9124 -3.000384,0.0248 -5.186826,-2.49474 -4.6671,-5.37813 0.09449,-0.52422 1.748873,-3.71964 3.676402,-7.10095 1.927535,-3.38131 3.475236,-6.20363 3.439352,-6.27184 -0.03592,-0.0682 -3.528391,-0.10968 -7.761107,-0.0922 -8.268532,0.0342 -10.247656,-0.22574 -11.330903,-1.48846 -1.98583,-2.31484 -1.47027,-5.61165 1.110549,-7.10169 1.094803,-0.63209 1.714343,-0.67617 9.48474,-0.67507 4.57239,6.5e-4 8.345377,-0.0173 8.384416,-0.0398 0.03906,-0.0226 -1.537522,-2.97671 -3.503498,-6.56482 -3.521209,-6.42661 -3.574354,-6.54346 -3.565928,-7.84109 0.02498,-3.84853 4.679952,-5.87856 7.597204,-3.31313 0.288378,0.25358 2.728082,4.35409 5.421569,9.11223 l 4.897282,8.65114 5.455759,0.001 c 3.00066,6e-4 5.55898,-0.0582 5.68516,-0.13068 0.27988,-0.16061 8.24564,-13.91473 8.53261,-14.7326 0.18513,-0.52768 -0.0563,-1.0205 -2.56486,-5.23623 l -2.76929,-4.65372 -9.837783,0.0812 c -5.410796,0.0446 -10.061851,0.0429 -10.335675,-0.004 -0.873402,-0.14914 -2.363874,-1.27733 -2.876597,-2.17739 -1.248538,-2.19173 -0.684505,-4.6182 1.402345,-6.03309 1.446183,-0.9805 1.2362,-0.95828 9.674837,-1.02447 3.197743,-0.0251 6.019813,-0.0782 6.271253,-0.11809 0.41713,-0.0661 0.0824,-0.72238 -3.819598,-7.48879 -4.181108,-7.24989 -4.276965,-7.44312 -4.284245,-8.61116 -0.0088,-1.40464 1.009865,-3.20284 2.205275,-3.89302 1.282167,-0.74025 3.184798,-0.74389 4.477748,-0.009 l 1.13076,0.64309 4.26894,7.39402 c 3.94112,6.82623 4.29193,7.36564 4.56817,7.02457 0.16458,-0.20321 1.69384,-2.73367 3.39834,-5.62329 1.7045,-2.88962 3.34766,-5.63543 3.65144,-6.10179 0.77176,-1.1848 2.88797,-2.1915 4.3195,-2.05483 1.24798,0.11914 2.81035,1.15071 3.46798,2.28978 0.6306,1.09223 0.78189,3.04788 0.30938,3.99838 -0.21419,0.43082 -2.54708,4.4468 -5.18422,8.9244 l -4.7948,8.14109 2.64897,4.73092 c 2.39977,4.28596 2.70606,4.74164 3.25563,4.84516 0.85176,0.16042 16.74598,0.13881 17.0251,-0.0231 0.12589,-0.073 1.45444,-2.25659 2.95239,-4.85234 l 2.72353,-4.71957 -5.19004,-8.81922 -5.19005,-8.81921 0.082,-1.34203 c 0.2068,-3.38576 3.84868,-5.42133 6.74864,-3.77205 1.12798,0.64151 1.20261,0.74597 5.00761,7.00873 2.12443,3.49662 3.89451,6.33907 3.93355,6.31652 0.0391,-0.0226 1.94105,-3.28108 4.22667,-7.24121 3.88426,-6.72992 4.23221,-7.2444 5.327,-7.87648 2.58083,-1.49005 5.69373,-0.28813 6.70553,2.58907 0.55191,1.56948 -0.2125,3.41346 -4.37641,10.55708 -2.13152,3.65688 -3.84083,6.70161 -3.79844,6.76607 0.0429,0.0642 3.26008,0.13549 7.15039,0.15785 3.89033,0.0224 7.48382,0.18793 7.98551,0.36793 0.5017,0.18002 1.26108,0.65633 1.6875,1.05847 2.49327,2.35129 1.31705,6.84875 -1.99631,7.63329 -0.5416,0.12825 -4.99257,0.19457 -9.89106,0.14737 -4.89849,-0.0472 -9.25318,-0.0722 -9.67711,-0.0556 -0.73059,0.0286 -0.91355,0.27698 -3.51101,4.76664 l -2.74027,4.73644 4.39553,7.61327 4.39553,7.61329 5.47378,-0.005 c 4.69781,-0.004 5.52063,-0.0793 5.80437,-0.52986 0.18183,-0.28871 2.22573,-3.88128 4.542,-7.98347 2.31628,-4.10219 4.52488,-7.89678 4.90802,-8.43239 0.92527,-1.29352 2.03774,-1.90027 3.50638,-1.9124 3.00092,-0.0248 5.1881,2.49628 4.66625,5.37862 -0.095,0.52449 -1.74831,3.71932 -3.6741,7.09962 -1.92579,3.38032 -3.47312,6.20242 -3.43849,6.27136 0.0342,0.0692 3.52569,0.11559 7.75796,0.10365 4.23225,-0.0119 8.2254,0.0824 8.87368,0.20958 2.12884,0.41773 3.41339,1.85994 3.62991,4.07552 0.17147,1.75479 -0.71026,3.39517 -2.30282,4.2842 -1.1546,0.64455 -1.7411,0.68686 -9.50415,0.68576 -4.55048,-6.6e-4 -8.30548,0.0172 -8.34443,0.0397 -0.039,0.0226 1.53757,2.98547 3.50338,6.5844 3.50207,6.41147 3.57403,6.56969 3.56576,7.84118 -0.0249,3.82914 -4.69228,5.85254 -7.59639,3.29318 -0.28801,-0.25381 -2.72855,-4.35431 -5.42345,-9.11223 l -4.89983,-8.65076 -5.43608,0.008 c -2.98985,0.005 -5.51819,0.0311 -5.61852,0.0588 -0.10033,0.0277 -2.15254,3.45242 -4.56048,7.61051 l -4.37807,7.5602 2.83216,4.76304 2.83216,4.76305 9.445,-0.0805 c 5.19477,-0.0443 9.84048,-0.0566 10.32385,-0.0274 1.24931,0.0754 2.89521,1.34244 3.47743,2.67705 0.97017,2.22392 0.19566,4.57109 -1.90938,5.78644 -1.23528,0.71319 -1.08564,0.70035 -9.06073,0.77487 -3.35474,0.0313 -6.31081,0.0905 -6.56907,0.13141 -0.43345,0.0687 -0.14077,0.64457 3.80722,7.49074 4.18111,7.24989 4.27697,7.44311 4.28426,8.61116 0.009,1.42019 -1.01319,3.20475 -2.24158,3.91397 -0.46447,0.26815 -1.43732,0.51019 -2.16192,0.53787 z m -18.68529,-51.55786 4.32058,-7.50287 -4.39386,-7.6104 -4.39385,-7.61037 -8.63637,-0.01 -8.63639,-0.01 -4.3098,7.48415 -4.30981,7.48417 4.39399,7.6106 4.39399,7.61058 8.57376,0.0335 c 4.71557,0.0184 8.59703,0.0311 8.62547,0.0282 0.0283,-0.002 1.99597,-3.38162 4.37228,-7.50821 z"
       style="fill:#2e2e2e;stroke-width:0.26458332" />
  </g>
</svg>
