<svg xmlns="http://www.w3.org/2000/svg" width="511.526" height="447.598" viewBox="0 0 135.341 118.427"><path d="M99.385 118.414c-.822.032-1.706-.177-2.349-.553-1.008-.59-1.127-.77-5.315-8.016-3.955-6.842-4.308-7.384-4.584-7.043-.164.203-1.694 2.734-3.398 5.623-4.052 6.87-3.966 6.747-5.202 7.46-2.105 1.215-4.525.712-5.965-1.24-.865-1.171-1.14-3.23-.58-4.35.216-.433 2.55-4.45 5.186-8.927l4.792-8.14-2.71-4.833-2.708-4.835-8.736.012c-4.805.006-8.797.07-8.871.144-.075.073-1.361 2.249-2.86 4.835l-2.725 4.703 5.04 8.57c2.771 4.715 5.102 8.879 5.179 9.255.383 1.874-.548 3.96-2.198 4.928-1.262.74-3.164.734-4.477-.012-1.14-.649-1.2-.734-5.007-7.01-2.12-3.493-3.88-6.336-3.913-6.317-.033.02-1.84 3.11-4.013 6.87-2.175 3.759-4.323 7.204-4.774 7.657-2.537 2.543-7.161.907-7.625-2.699-.187-1.46.416-2.772 4.527-9.845 2.126-3.66 3.831-6.706 3.788-6.77-.042-.065-3.26-.135-7.152-.157-3.891-.022-7.485-.188-7.985-.368-2.757-.995-3.844-4.147-2.323-6.732.785-1.335 1.848-1.94 3.673-2.09.802-.066 5.46-.073 10.353-.015l8.894.104 2.767-4.777 2.767-4.776-4.396-7.615-4.396-7.614-5.474.005c-4.697.004-5.52.08-5.804.53-.182.289-2.226 3.881-4.542 7.984-2.316 4.102-4.525 7.896-4.908 8.432-.925 1.293-2.038 1.9-3.506 1.912-3 .025-5.187-2.494-4.668-5.378.095-.524 1.75-3.72 3.677-7.1 1.927-3.382 3.475-6.204 3.44-6.273-.037-.068-3.53-.11-7.762-.092-8.268.034-10.248-.226-11.33-1.488-1.987-2.315-1.471-5.612 1.11-7.102 1.095-.632 1.714-.676 9.484-.675 4.573 0 8.346-.017 8.385-.04.039-.022-1.538-2.977-3.504-6.565-3.52-6.426-3.574-6.543-3.566-7.84.025-3.85 4.68-5.88 7.598-3.314.288.254 2.728 4.354 5.421 9.112l4.898 8.652h5.455c3.001.001 5.56-.058 5.685-.13.28-.16 8.246-13.915 8.533-14.733.185-.527-.056-1.02-2.565-5.236l-2.77-4.654-9.837.081c-5.41.045-10.062.043-10.336-.004-.873-.149-2.363-1.277-2.876-2.177-1.249-2.192-.685-4.618 1.402-6.033 1.446-.98 1.236-.958 9.675-1.024 3.198-.026 6.02-.079 6.271-.119.417-.066.083-.722-3.82-7.488-4.18-7.25-4.276-7.443-4.284-8.611-.008-1.405 1.01-3.203 2.206-3.894 1.282-.74 3.185-.743 4.477-.009l1.131.644 4.27 7.394c3.94 6.826 4.291 7.365 4.567 7.024.165-.203 1.694-2.734 3.399-5.623 1.704-2.89 3.347-5.636 3.651-6.102.772-1.185 2.888-2.191 4.32-2.055 1.248.12 2.81 1.151 3.468 2.29.63 1.092.781 3.048.309 3.998-.214.431-2.547 4.447-5.184 8.925l-4.795 8.14 2.649 4.732c2.4 4.286 2.706 4.741 3.256 4.845.851.16 16.746.139 17.025-.023.126-.073 1.454-2.257 2.952-4.852l2.724-4.72-5.19-8.82-5.19-8.818.081-1.342c.207-3.386 3.85-5.422 6.75-3.773 1.127.642 1.202.746 5.007 7.01 2.124 3.496 3.894 6.338 3.933 6.316.04-.023 1.941-3.281 4.227-7.241 3.884-6.73 4.232-7.245 5.327-7.877 2.58-1.49 5.694-.288 6.705 2.59.552 1.569-.212 3.413-4.376 10.556-2.131 3.657-3.84 6.702-3.798 6.766.043.064 3.26.136 7.15.158 3.89.022 7.484.188 7.986.368.501.18 1.26.656 1.687 1.058 2.493 2.352 1.317 6.85-1.996 7.634-.542.128-4.993.194-9.891.147-4.899-.047-9.254-.072-9.677-.055-.731.028-.914.277-3.511 4.766l-2.74 4.737 4.395 7.613 4.395 7.613 5.474-.005c4.698-.004 5.52-.08 5.804-.53.182-.288 2.226-3.88 4.542-7.983 2.317-4.102 4.525-7.897 4.909-8.433.925-1.293 2.037-1.9 3.506-1.912 3-.025 5.188 2.496 4.666 5.379-.095.524-1.748 3.719-3.674 7.1-1.926 3.38-3.473 6.202-3.438 6.27.034.07 3.525.116 7.758.104 4.232-.012 8.225.083 8.873.21 2.129.418 3.414 1.86 3.63 4.075.172 1.755-.71 3.396-2.303 4.285-1.154.644-1.74.686-9.504.685-4.55 0-8.305.018-8.344.04-.04.023 1.537 2.986 3.503 6.584 3.502 6.412 3.574 6.57 3.566 7.842-.025 3.829-4.692 5.852-7.597 3.293-.288-.254-2.728-4.354-5.423-9.112l-4.9-8.651-5.436.008c-2.99.005-5.518.031-5.618.059-.1.027-2.153 3.452-4.56 7.61l-4.379 7.56 2.832 4.763 2.832 4.763 9.445-.08c5.195-.044 9.84-.057 10.324-.027 1.25.075 2.895 1.342 3.478 2.677.97 2.224.195 4.57-1.91 5.786-1.235.713-1.085.7-9.06.775-3.355.031-6.311.09-6.57.131-.433.069-.14.645 3.808 7.491 4.18 7.25 4.277 7.443 4.284 8.611.009 1.42-1.013 3.205-2.242 3.914-.464.268-1.437.51-2.162.538zM80.699 66.856l4.32-7.503-4.393-7.61-4.394-7.61-8.636-.01-8.637-.01-4.31 7.484-4.31 7.484 4.395 7.61 4.394 7.611 8.573.034c4.716.018 8.598.03 8.626.028.028-.002 1.996-3.382 4.372-7.508z" fill="#2e2e2e"/></svg>