<svg xmlns="http://www.w3.org/2000/svg" height="1459.97" width="824.338"><path d="M27.262 30.665l7.79 1405.938 366.088-221.99 393.351 214.2 3.895-1402.042z" fill="#a8a8a8" stroke="#000"/><path d="M21.17 1458.149c-9.667-3.34-17.078-11.028-19.861-20.6-1.297-4.462-1.446-90.823-1.224-710.065L.338 22.5l2.137-4.622C5.455 11.435 11.052 5.57 17.1 2.558L22.23 0h777.532l5.508 2.061c6.67 2.495 13.249 8.615 16.614 15.455l2.453 4.984v1415l-2.293 4.295c-7.49 14.028-23.395 21.25-37.283 16.93-2.516-.784-27.716-14.937-56-31.454a984618.72 984618.72 0 01-181.898-106.273c-71.76-41.935-131.46-76.694-132.664-77.243-1.896-.864-14.256 6.053-92.026 51.5l-182.836 106.841c-51.15 29.89-95.25 55.13-98 56.092-6.399 2.235-13.626 2.221-20.168-.04zm210.475-183.837c91.13-53.19 168.168-97.567 171.193-98.617 7.132-2.475 16.653-1.937 23 1.301 2.475 1.263 78.83 45.655 169.677 98.65C686.362 1328.64 760.949 1372 761.265 1372c.315 0 .573-294.525.573-654.5V63h-699v654.607c0 592.074.149 654.55 1.557 654.01.856-.329 76.118-44.116 167.25-97.305z"/></svg>