<svg xmlns="http://www.w3.org/2000/svg" width="573.928" height="593.402" version="1.0"><path d="M74.5 254.768a32.003 32.003 0 00-24.6 11.034 197.245 197.245 0 00-26.7 38.2C8.413 331.622 0 363.286 0 396.668c0 108.247 88.486 196.734 196.733 196.734 54.124 0 103.533-22.066 139.1-57.634a197.063 197.063 0 0042.134-62.533 32.003 32.003 0 10-58.934-24.933c-6.71 15.854-16.433 30.167-28.466 42.2-24.066 24.066-57.024 38.9-93.834 38.9A132.335 132.335 0 0164 396.668c0-22.697 5.632-43.846 15.6-62.466 4.984-9.31 11.078-17.965 18.067-25.8A32.003 32.003 0 0074.5 254.768z" fill="#2e2e2e" fill-rule="evenodd"/><path d="M141.767 0c-36.373 0-65.9 29.527-65.9 65.9-.015 3.36.288 6.71.767 10.033.004.022-.004.045 0 .067l39.733 244.967c2.507 15.418 15.78 26.774 31.4 26.866l208.267 1.3 71.967 167.034c6.682 15.473 24.219 23.112 40.1 17.466l84.533-30.066c16.651-5.928 25.361-24.249 19.433-40.9-5.927-16.652-24.248-25.328-40.9-19.4L474.901 463.3l-68.334-158.7a32.003 32.003 0 00-29.2-19.333L175.234 284l-3.133-19.233h142.966a32.014 32.014 0 0028.1-15.867 32.008 32.008 0 000-32.267 32.014 32.014 0 00-28.1-15.866H161.734l-11.3-69.567c32.28-4.25 57.2-31.866 57.2-65.3 0-36.373-29.493-65.9-65.867-65.9z" fill="#2e2e2e" fill-rule="evenodd"/></svg>