<?xml version="1.0" encoding="UTF-8" standalone="no"?>
<svg
   xmlns:dc="http://purl.org/dc/elements/1.1/"
   xmlns:cc="http://creativecommons.org/ns#"
   xmlns:rdf="http://www.w3.org/1999/02/22-rdf-syntax-ns#"
   xmlns:svg="http://www.w3.org/2000/svg"
   xmlns="http://www.w3.org/2000/svg"
   width="54.504166mm"
   height="54.504166mm"
   viewBox="0 0 54.504166 54.504166"
   version="1.1"
   id="svg994">
  <defs
     id="defs2295" />
  <metadata
     id="metadata991">
    <rdf:RDF>
      <cc:Work
         rdf:about="">
        <dc:format>image/svg+xml</dc:format>
        <dc:type
           rdf:resource="http://purl.org/dc/dcmitype/StillImage" />
        <dc:title></dc:title>
      </cc:Work>
    </rdf:RDF>
  </metadata>
  <path
     id="_447526552"
     style="clip-rule:evenodd;stroke-width:1.34185;image-rendering:optimizeQuality;shape-rendering:geometricPrecision;text-rendering:geometricPrecision"
     d="M 27.249498,0 C 12.223647,0 0,12.225724 0,27.253633 c 0,15.027865 12.22362,27.250532 27.249498,27.250532 15.029344,0 27.254668,-12.222722 27.254668,-27.250532 C 54.504166,12.225763 42.278911,0 27.249498,0 Z m 12.803354,10.626741 c 0.214199,-1.38e-4 0.428633,0.08192 0.592728,0.245462 4.194759,4.193537 6.796785,9.991164 6.794933,16.381946 0.0019,6.387883 -2.600174,12.188524 -6.794933,16.379362 v 0.0021 c -0.164092,0.163036 -0.378392,0.244946 -0.593762,0.244946 -0.212405,0 -0.428141,-0.0819 -0.591178,-0.244946 -0.328189,-0.328187 -0.328189,-0.855983 0,-1.183907 3.897257,-3.896519 6.306074,-9.267585 6.306074,-15.197521 0,-5.933226 -2.408576,-11.301976 -6.305042,-15.199072 -0.325278,-0.327395 -0.325278,-0.856562 0,-1.181841 0.163169,-0.164094 0.376979,-0.246358 0.59118,-0.246496 z m -3.280421,3.281971 c 0.21407,0 0.428647,0.08138 0.592212,0.244946 3.353972,3.351956 5.435113,7.990326 5.433261,13.100491 0.0019,5.106932 -2.079289,9.747502 -5.433261,13.099458 -0.163301,0.16383 -0.378666,0.24598 -0.593243,0.24598 -0.213469,0 -0.427906,-0.08214 -0.590146,-0.24598 -0.330043,-0.326338 -0.330043,-0.856814 0,-1.182357 3.05302,-3.056255 4.943367,-7.266787 4.943367,-11.917101 0,-4.651427 -1.890334,-8.860578 -4.943367,-11.917103 -0.328189,-0.327131 -0.328189,-0.855993 0,-1.183388 0.163169,-0.163566 0.377111,-0.244946 0.591177,-0.244946 z m -11.868525,0.01138 v 9.623187 c 1.775677,0.301995 3.128491,1.849381 3.128491,3.710884 0,1.863302 -1.352827,3.408833 -3.128491,3.710884 v 9.623184 C 20.189142,39.769663 16.316148,36.512986 14.62133,32.166523 h -2.43241 v -9.823691 h 2.43241 c 1.694818,-4.347528 5.567812,-7.604445 10.282576,-8.422743 z m 8.586039,3.269051 c 0.213968,-1.37e-4 0.428117,0.08191 0.592211,0.245981 2.513962,2.510149 4.074472,5.988835 4.07262,9.819039 0.0019,3.827306 -1.558658,7.305733 -4.07262,9.818005 -0.164094,0.164094 -0.378693,0.245464 -0.592211,0.245462 -0.21426,0 -0.427599,-0.08138 -0.591696,-0.245462 -0.327131,-0.327131 -0.327131,-0.855718 0,-1.183907 2.214033,-2.215508 3.583464,-5.264471 3.58531,-8.634098 -0.0019,-3.370744 -1.371062,-6.421435 -3.583241,-8.636167 -0.327131,-0.32713 -0.327131,-0.855765 0,-1.181838 0.162242,-0.164624 0.375658,-0.246877 0.589627,-0.247015 z m -3.283003,3.281455 c 0.214034,-5.29e-4 0.428514,0.08077 0.592211,0.243912 1.674974,1.673066 2.71353,3.990131 2.71353,6.539653 0,2.547361 -1.038551,4.864806 -2.71353,6.537068 h 0.0016 c -0.163301,0.164095 -0.378421,0.245981 -0.592728,0.245981 -0.213468,0 -0.427902,-0.0814 -0.590145,-0.24443 -0.328189,-0.328189 -0.32784,-0.857594 -0.0016,-1.182873 1.374827,-1.377635 2.223119,-3.266011 2.223119,-5.355746 0,-2.090047 -0.848596,-3.979233 -2.221569,-5.353161 -0.328189,-0.327396 -0.32784,-0.856512 -0.0016,-1.183907 0.163168,-0.163566 0.376626,-0.245928 0.590661,-0.246497 z M 6.2528476,22.342832 H 10.29498 v 9.823691 H 6.2528476 Z" />
</svg>
