<svg xmlns="http://www.w3.org/2000/svg" viewBox="0 0 54.504 54.504" height="206" width="206"><path d="M27.25 1.191C12.88 1.191 1.19 12.883 1.19 27.254c0 14.37 11.69 26.059 26.059 26.059 14.372 0 26.063-11.689 26.063-26.06 0-14.37-11.691-26.062-26.063-26.062z" clip-rule="evenodd" image-rendering="optimizeQuality" shape-rendering="geometricPrecision" text-rendering="geometricPrecision" fill="#fff"/><path d="M27.25 0C12.223 0 0 12.226 0 27.254c0 15.027 12.224 27.25 27.25 27.25 15.029 0 27.254-12.223 27.254-27.25C54.504 12.226 42.28 0 27.25 0zm12.803 10.627c.214 0 .428.082.593.245 4.194 4.194 6.796 9.991 6.795 16.382.001 6.388-2.6 12.189-6.795 16.38v.002a.84.84 0 01-1.185 0 .835.835 0 010-1.184c3.897-3.897 6.306-9.268 6.306-15.198 0-5.933-2.409-11.302-6.305-15.199a.838.838 0 01.59-1.428zm-3.28 3.282c.214 0 .428.081.592.245a18.47 18.47 0 015.433 13.1 18.474 18.474 0 01-5.433 13.1.836.836 0 01-1.184 0 .83.83 0 010-1.183c3.053-3.056 4.944-7.267 4.944-11.917 0-4.651-1.89-8.86-4.944-11.917a.834.834 0 01.591-1.428zm-11.87.011v9.623a3.766 3.766 0 010 7.422v9.623c-4.714-.818-8.587-4.075-10.282-8.421H12.19v-9.824h2.432c1.695-4.348 5.568-7.605 10.283-8.423zm8.587 3.27c.214-.001.428.081.592.245a13.838 13.838 0 014.073 9.82 13.844 13.844 0 01-4.073 9.817.835.835 0 01-1.184 0 .837.837 0 010-1.184 12.191 12.191 0 00.002-17.27.834.834 0 010-1.182.825.825 0 01.59-.247zm-3.283 3.28c.214 0 .428.081.592.245a9.225 9.225 0 012.714 6.54 9.221 9.221 0 01-2.714 6.536h.002a.834.834 0 01-1.183.002.835.835 0 01-.002-1.183 7.553 7.553 0 002.223-5.356c0-2.09-.848-3.98-2.221-5.353a.837.837 0 01.589-1.43zM6.253 22.344h4.042v9.824H6.253z" clip-rule="evenodd" image-rendering="optimizeQuality" shape-rendering="geometricPrecision" text-rendering="geometricPrecision"/></svg>