<?xml version="1.0" encoding="UTF-8" standalone="no"?>
<svg
   xmlns:dc="http://purl.org/dc/elements/1.1/"
   xmlns:cc="http://creativecommons.org/ns#"
   xmlns:rdf="http://www.w3.org/1999/02/22-rdf-syntax-ns#"
   xmlns:svg="http://www.w3.org/2000/svg"
   xmlns="http://www.w3.org/2000/svg"
   height="23.983999"
   width="23.983999"
   viewBox="-7747.984 15507 23.984 23.984"
   version="1.1"
   id="svg3599">
  <defs
     id="defs4276" />
  <metadata
     id="metadata3603">
    <rdf:RDF>
      <cc:Work
         rdf:about="">
        <dc:format>image/svg+xml</dc:format>
        <dc:type
           rdf:resource="http://purl.org/dc/dcmitype/StillImage" />
        <dc:title></dc:title>
      </cc:Work>
    </rdf:RDF>
  </metadata>
  <path
     style="fill:#0072ce;fill-opacity:1"
     d="m -7735.992,15507 a 11.992,11.992 0 1 1 -11.992,11.992 11.992,11.992 0 0 1 11.992,-11.992 z"
     class="cls-1"
     data-name="Path 9917"
     id="Path_9917" />
  <path
     id="Path_8343"
     d="m -7740.487,15511.447 a 1.609,1.609 0 0 0 -1.5997,1.599 v -0.04 l -0.6093,8.07 a 1.609,1.609 0 0 0 1.6015,1.6 h 2.5508 l -0.6836,1.068 h -2.207 a 0.2285,0.2285 0 0 0 0,0.455 h 1.8984 l -0.6836,0.954 h -2.5097 a 0.4570315,0.4570315 0 0 0 0,0.914 h 1.9004 l -0.6465,0.914 a 0.17,0.17 0 0 0 0,0.189 0.209,0.209 0 0 0 0.1894,0.115 h 1.3321 a 0.209,0.209 0 0 0 0.1894,-0.115 l 0.457,-1.099 h 6.7012 l 0.4551,1.099 a 0.209,0.209 0 0 0 0.1914,0.115 h 1.373 c 0.076,0 0.1524,-0.04 0.1524,-0.115 a 0.17,0.17 0 0 0 0,-0.189 l -0.6465,-0.914 h 1.9004 a 0.4570315,0.4570315 0 0 0 0,-0.914 v 0 h -2.5098 l -0.6464,-0.989 h 1.9003 a 0.2285155,0.2285155 0 0 0 0,-0.457 h -2.207 l -0.7246,-0.99 h 2.5527 a 1.609,1.609 0 0 0 1.5996,-1.601 l -0.6093,-8.108 v 0.04 a 1.609,1.609 0 0 0 -1.5996,-1.599 z m 1.2597,2.136 h 6.5488 a 0.764,0.764 0 0 1 0.7598,0.762 l 0.2285,2.893 v 0.04 a 0.764,0.764 0 0 1 -0.7617,0.761 h -7 a 0.773,0.773 0 0 1 -0.7598,-0.8 v 0 l 0.2266,-2.893 a 0.764,0.764 0 0 1 0.7617,-0.762 z m 0.1133,0.873 c 0,0.19 -0.1895,2.399 -0.1895,2.664 h 3.1231 v -2.664 z m 3.3906,0 v 2.664 h 3.1211 c -0.038,-0.265 -0.1914,-2.474 -0.1914,-2.664 z m 3.7676,5.409 a 0.544,0.544 0 0 1 0.5332,0.529 v 0 a 0.533,0.533 0 1 1 -0.5332,-0.533 z m -1.8223,0.152 a 0.533,0.533 0 0 1 0.9082,0.377 0.5,0.5 0 0 1 -0.5332,0.533 0.533,0.533 0 0 1 -0.375,-0.91 z m -6.5488,0 a 0.533,0.533 0 0 1 0.9102,0.377 0.544,0.544 0 0 1 -0.5332,0.529 v 0 a 0.533,0.533 0 0 1 -0.377,-0.91 z m 2.1621,0 a 0.533,0.533 0 0 1 -0.3769,0.91 0.544,0.544 0 0 1 -0.5313,-0.535 0.533,0.533 0 0 1 0.9082,-0.375 z m 0.1973,2.699 h 4.0742 l 0.377,1.027 h -4.8692 z m -0.6113,1.447 h 5.2148 l 0.3828,0.989 h -5.9785 z"
     style="fill:#ffffff;fill-opacity:1" />
</svg>
