<svg xmlns="http://www.w3.org/2000/svg" viewBox="-7747.984 15507 23.984 23.984">
  <defs>
    <style>
      .cls-1 {
        fill: #0072ce;
      }

      .cls-2 {
        fill: #fff;
      }

      .cls-3 {
        fill: #2a71b9;
      }
    </style>
  </defs>
  <g id="Group_6417" data-name="Group 6417" transform="translate(-7772.984 14643)">
    <path id="Path_9917" data-name="Path 9917" class="cls-1" d="M11.992,0A11.992,11.992,0,1,1,0,11.992,11.992,11.992,0,0,1,11.992,0Z" transform="translate(25 864)"/>
    <g id="Group_6416" data-name="Group 6416" transform="translate(29.797 868.454)">
      <path id="Path_8343" data-name="Path 8343" class="cls-2" d="M25.522,19.6H22.59c0,.19-.19,2.4-.19,2.665h3.122Z" transform="translate(-18.517 -16.592)"/>
      <path id="Path_8344" data-name="Path 8344" class="cls-2" d="M34.731,19.6H31.8v2.665h3.122C34.884,22,34.731,19.79,34.731,19.6Z" transform="translate(-24.338 -16.592)"/>
      <path id="Path_8345" data-name="Path 8345" class="cls-2" d="M26.21,25.405H23.7l-.647-.99h1.9a.228.228,0,0,0,0-.457H22.746l-.723-.99h2.551a1.609,1.609,0,0,0,1.6-1.6h0l-.609-8.109V13.3a1.609,1.609,0,0,0-1.6-1.6H14.9a1.609,1.609,0,0,0-1.6,1.6v-.038l-.609,8.071h0a1.609,1.609,0,0,0,1.6,1.6h2.551L16.159,24H13.951a.228.228,0,0,0,0,.457h1.9l-.685.952H12.657a.457.457,0,1,0,0,.914h1.9l-.647.914a.17.17,0,0,0,0,.19.209.209,0,0,0,.19.114h1.332a.209.209,0,0,0,.19-.114l.457-1.1h6.7l.457,1.1a.209.209,0,0,0,.19.114H24.8c.076,0,.152-.038.152-.114a.17.17,0,0,0,0-.19l-.647-.914h1.9a.457.457,0,0,0,0-.914ZM21.984,21.18a.533.533,0,1,1,.533-.533A.5.5,0,0,1,21.984,21.18ZM21.87,24H17l.419-1.028h4.074Zm2.094-3.35a.533.533,0,1,1-.533-.533A.544.544,0,0,1,23.964,20.647Zm-8.794-3.16.228-2.893a.764.764,0,0,1,.761-.761h6.548a.764.764,0,0,1,.761.761l.228,2.893v.038a.764.764,0,0,1-.761.761h-7a.773.773,0,0,1-.761-.8Zm.266,3.693a.533.533,0,1,1,.533-.533A.544.544,0,0,1,15.436,21.18Zm.876-.533a.533.533,0,1,1,.533.533A.544.544,0,0,1,16.312,20.647Zm.114,4.759.381-.99h5.216l.381.99Z" transform="translate(-12.2 -11.7)"/>
      <path id="Path_8346" data-name="Path 8346" class="cls-1" d="M20.761,21.754h7a.764.764,0,0,0,.761-.761v-.038L28.3,18.061a.764.764,0,0,0-.761-.761H20.99a.764.764,0,0,0-.761.761L20,20.955v.038A.764.764,0,0,0,20.761,21.754Zm3.731-3.579h2.931c0,.19.19,2.4.19,2.665H24.492Zm-3.388,0h2.931v2.665H20.914C20.914,20.574,21.1,18.366,21.1,18.176Z" transform="translate(-17.031 -15.168)"/>
      <circle id="Ellipse_3750" data-name="Ellipse 3750" class="cls-1" cx="0.533" cy="0.533" r="0.533" transform="translate(2.703 8.414)"/>
      <path id="Path_8347" data-name="Path 8347" class="cls-1" d="M37.033,33.8a.533.533,0,1,0,.533.533A.52.52,0,0,0,37.033,33.8Z" transform="translate(-27.249 -25.386)"/>
      <circle id="Ellipse_3751" data-name="Ellipse 3751" class="cls-1" cx="0.533" cy="0.533" r="0.533" transform="translate(10.698 8.414)"/>
      <path id="Path_8348" data-name="Path 8348" class="cls-1" d="M24.066,34.333a.533.533,0,1,0-.533.533A.52.52,0,0,0,24.066,34.333Z" transform="translate(-18.888 -25.386)"/>
      <path id="Path_8349" data-name="Path 8349" class="cls-3" d="M25.219,41.3,24.8,42.328h4.873L29.254,41.3Z" transform="translate(-20.003 -30.031)"/>
      <path id="Path_8350" data-name="Path 8350" class="cls-3" d="M23.681,45.2l-.381.952h6.015l-.381-.952Z" transform="translate(-19.074 -32.446)"/>
    </g>
  </g>
</svg>
