<svg xmlns="http://www.w3.org/2000/svg" height="23.984" width="23.984" viewBox="-7747.984 15507 23.984 23.984"><path d="M-7735.992 15507a11.992 11.992 0 11-11.992 11.992 11.992 11.992 0 0111.992-11.992z" class="cls-1" data-name="Path 9917" fill="#0072ce"/><path d="M-7740.487 15511.447a1.609 1.609 0 00-1.6 1.599v-.04l-.609 8.07a1.609 1.609 0 001.601 1.6h2.551l-.683 1.068h-2.207a.229.229 0 000 .455h1.898l-.684.954h-2.51a.457.457 0 000 .914h1.901l-.646.914a.17.17 0 000 .189.209.209 0 00.19.115h1.331a.209.209 0 00.19-.115l.457-1.099h6.7l.456 1.099a.209.209 0 00.191.115h1.373c.076 0 .153-.04.153-.115a.17.17 0 000-.189l-.647-.914h1.9a.457.457 0 000-.914h-2.51l-.646-.989h1.9a.229.229 0 000-.457h-2.206l-.725-.99h2.553a1.609 1.609 0 001.6-1.601l-.61-8.108v.04a1.609 1.609 0 00-1.6-1.599zm1.26 2.136h6.548a.764.764 0 01.76.762l.229 2.893v.04a.764.764 0 01-.762.761h-7a.773.773 0 01-.76-.8l.227-2.893a.764.764 0 01.762-.762zm.113.873c0 .19-.19 2.399-.19 2.664h3.124v-2.664zm3.39 0v2.664h3.122a73.074 73.074 0 01-.192-2.664zm3.768 5.409a.544.544 0 01.533.529.533.533 0 11-.533-.533zm-1.822.152a.533.533 0 01.908.377.5.5 0 01-.533.533.533.533 0 01-.375-.91zm-6.549 0a.533.533 0 01.91.377.544.544 0 01-.533.529.533.533 0 01-.377-.91zm2.162 0a.533.533 0 01-.377.91.544.544 0 01-.531-.535.533.533 0 01.908-.375zm.197 2.699h4.075l.377 1.027h-4.87zm-.61 1.447h5.214l.383.989h-5.979z" fill="#fff"/></svg>