<?xml version="1.0" encoding="UTF-8" standalone="no"?>
<svg
   xmlns:dc="http://purl.org/dc/elements/1.1/"
   xmlns:cc="http://creativecommons.org/ns#"
   xmlns:rdf="http://www.w3.org/1999/02/22-rdf-syntax-ns#"
   xmlns:svg="http://www.w3.org/2000/svg"
   xmlns="http://www.w3.org/2000/svg"
   xmlns:sodipodi="http://sodipodi.sourceforge.net/DTD/sodipodi-0.dtd"
   xmlns:inkscape="http://www.inkscape.org/namespaces/inkscape"
   viewBox="-7747.984 15507 101.6689 101.6689"
   version="1.1"
   id="svg19"
   sodipodi:docname="no-boarding-train.svg"
   inkscape:version="0.92.2 5c3e80d, 2017-08-06"
   width="101.66889"
   height="101.66889">
  <metadata
     id="metadata23">
    <rdf:RDF>
      <cc:Work
         rdf:about="">
        <dc:format>image/svg+xml</dc:format>
        <dc:type
           rdf:resource="http://purl.org/dc/dcmitype/StillImage" />
        <dc:title></dc:title>
      </cc:Work>
    </rdf:RDF>
  </metadata>
  <sodipodi:namedview
     pagecolor="#ffffff"
     bordercolor="#666666"
     borderopacity="1"
     objecttolerance="10"
     gridtolerance="10"
     guidetolerance="10"
     inkscape:pageopacity="0"
     inkscape:pageshadow="2"
     inkscape:window-width="1400"
     inkscape:window-height="827"
     id="namedview21"
     showgrid="false"
     inkscape:zoom="6.2162573"
     inkscape:cx="50.834446"
     inkscape:cy="50.834945"
     inkscape:window-x="0"
     inkscape:window-y="0"
     inkscape:window-maximized="0"
     inkscape:current-layer="svg19"
     inkscape:snap-global="false" />
  <defs
     id="defs4">
    <style
       id="style2">
      .cls-1 {
        fill: #0072ce;
      }

      .cls-2 {
        fill: #fff;
      }

      .cls-3 {
        fill: #2a71b9;
      }
    </style>
  </defs>
  <path
     style="opacity:1;fill:#ffffff;fill-opacity:1;stroke:#000000;stroke-width:4.06899977;stroke-miterlimit:4;stroke-dasharray:none;stroke-opacity:1"
     inkscape:connector-curvature="0"
     d="m -7697.1489,15509.034 a 48.800619,48.800619 0 1 1 -48.8006,48.801 48.800619,48.800619 0 0 1 48.8006,-48.801 z"
     class="cls-1"
     data-name="Path 9917"
     id="Path_9917" />
  <g
     id="g997"
     transform="translate(-200.27411,21.970296)">
    <circle
       r="3.0162613"
       cy="15512.686"
       cx="-7470.5884"
       id="path991"
       style="opacity:1;vector-effect:none;fill:#000000;fill-opacity:1;stroke:none;stroke-width:3.02362204;stroke-linecap:round;stroke-linejoin:round;stroke-miterlimit:4;stroke-dasharray:none;stroke-dashoffset:0;stroke-opacity:1;paint-order:fill markers stroke" />
    <path
       sodipodi:nodetypes="sssssssssssssssssssssssss"
       inkscape:connector-curvature="0"
       id="path993"
       d="m -7470.0066,15517.05 c 3.1408,-0.03 5.4744,0.995 6.9672,2.203 1.4932,1.209 2.5594,2.489 2.2039,6.328 -0.3555,3.839 -1.2797,4.123 -2.1328,3.981 -0.8531,-0.142 -1.1375,-0.995 -1.0664,-2.204 0.071,-1.208 0.071,-2.488 -0.071,-3.483 -0.1422,-0.996 -1.6353,-1.564 -1.7774,1.208 -0.1422,2.773 -0.2843,7.607 -0.1421,9.669 0.1421,2.062 1.1373,4.621 3.1281,7.394 1.9904,2.772 1.5641,3.412 0.8531,3.981 -0.7109,0.569 -1.5643,0.355 -2.5594,-0.782 -0.9956,-1.138 -2.7726,-3.27 -3.4125,-5.261 -0.6398,-1.991 -2.9859,-2.133 -2.9859,0.995 0,3.128 0,4.906 0.071,6.328 0.071,1.422 -0.6398,1.848 -1.1375,1.919 -0.4976,0.07 -1.4219,-0.213 -1.7063,-2.417 -0.2844,-2.204 -0.4975,-5.19 -0.071,-7.109 0.4267,-1.92 1.5641,-3.128 1.5641,-5.972 0,-2.844 -0.071,-4.479 -0.2133,-5.901 -0.1422,-1.422 -0.7109,-2.275 -2.4883,-1.493 -1.7773,0.782 -3.6258,1.422 -4.9766,1.635 -1.3507,0.213 -1.7062,-0.355 -1.9906,-1.564 -0.2844,-1.209 0.5689,-1.422 1.7063,-1.706 1.1376,-0.285 2.8949,-0.441 4.3367,-2.346 2.7204,-3.595 2.518,-5.367 5.9007,-5.403 z"
       style="fill:#000000;fill-opacity:1;stroke:none;stroke-width:1px;stroke-linecap:butt;stroke-linejoin:miter;stroke-opacity:1" />
  </g>
  <g
     id="g1026"
     style="opacity:1"
     transform="matrix(0.9040616,0,0,0.9040616,-922.93634,1512.6836)">
    <path
       sodipodi:nodetypes="ccccccccccccc"
       inkscape:connector-curvature="0"
       id="path980"
       d="m -7517.6175,15504.595 c -3.5876,0.02 -6.4911,2.923 -6.5115,6.51 v -0.154 l -2.4782,32.845 c 0.02,3.587 2.9239,6.49 6.5114,6.51 h 10.3806 l 21.084,0.146 c 7.9869,0 6.2318,0.06 10.3814,0 3.5877,-0.02 6.4909,-2.924 6.5105,-6.512 l -2.4782,-32.999 v 0.167 c -0.02,-3.588 -2.9233,-6.49 -6.5105,-6.511 z"
       style="fill:#ffffff;fill-opacity:1;stroke:#000000;stroke-width:4.0694313;stroke-opacity:1" />
    <path
       style="fill:#000000;fill-opacity:1;stroke-width:4.0694313"
       inkscape:connector-curvature="0"
       d="m -7513.4263,15531.396 h 28.486 a 3.1090455,3.1090455 0 0 0 3.0969,-3.097 v -0.155 l -0.9034,-11.777 a 3.1090455,3.1090455 0 0 0 -3.0969,-3.096 h -26.6507 a 3.1090455,3.1090455 0 0 0 -3.0968,3.096 l -0.9319,11.777 v 0.155 a 3.1090455,3.1090455 0 0 0 3.0968,3.097 z m 15.1831,-14.564 h 11.9275 c 0,0.773 0.7731,9.766 0.7731,10.845 h -12.7006 z m -13.7873,0 h 11.9275 v 10.845 h -12.7007 c 0,-1.083 0.7569,-10.068 0.7569,-10.841 z"
       class="cls-1"
       data-name="Path 8346"
       id="Path_8346" />
    <path
       inkscape:connector-curvature="0"
       id="path904"
       d="m -7509.7152,15550.306 -2.7792,4.342 h -8.9852 a 0.9305,0.9305 0 0 0 0,1.861 h 7.732 l -2.788,3.873 h -10.2101 a 1.86,1.86 0 0 0 0,3.72 h 7.7319 l -2.6326,3.719 a 0.6918033,0.6918033 0 0 0 0,0.773 0.85051109,0.85051109 0 0 0 0.7731,0.464 h 5.4206 a 0.85051109,0.85051109 0 0 0 0.7731,-0.464 l 1.8596,-4.476 h 27.2653 l 1.8595,4.476 a 0.85051109,0.85051109 0 0 0 0.7732,0.464 h 5.5918 c 0.3092,0 0.6186,-0.155 0.6186,-0.464 a 0.6918033,0.6918033 0 0 0 0,-0.773 l -2.6335,-3.719 h 7.732 a 1.86,1.86 0 0 0 0,-3.72 l 0.02,-0.01 h -10.2137 l -2.6335,-4.029 h 7.732 a 0.93,0.93 0 0 0 0,-1.86 h -8.9808 l -2.9424,-4.028 -2.1861,-0.01 v 0.03 h 0.025 l 1.5347,4.183 h -19.8184 l 1.7051,-4.183 0.033,-0.144 z m -0.1421,6.047 h 21.2261 l 1.5506,4.029 h -24.3274 z"
       style="fill:#060606;fill-opacity:1;stroke-width:4.0694313" />
    <circle
       id="circle917"
       data-name="Ellipse 3750"
       class="cls-1"
       cx="-7515.4365"
       cy="15541.004"
       r="2.1690068"
       style="fill:#000000;fill-opacity:1;stroke-width:4.0694313" />
    <path
       id="path919"
       data-name="Path 8347"
       class="cls-1"
       d="m -7488.7899,15538.835 a 2.1690069,2.1690069 0 1 0 2.169,2.169 2.1161043,2.1161043 0 0 0 -2.169,-2.169 z"
       inkscape:connector-curvature="0"
       style="fill:#000000;fill-opacity:1;stroke-width:4.0694313" />
    <circle
       id="circle921"
       data-name="Ellipse 3751"
       class="cls-1"
       cx="-7482.9014"
       cy="15541.004"
       r="2.1690068"
       style="fill:#000000;fill-opacity:1;stroke-width:4.0694313" />
    <path
       id="path923"
       data-name="Path 8348"
       class="cls-1"
       d="m -7507.5337,15541.004 a 2.1690069,2.1690069 0 1 0 -2.1691,2.169 2.1161043,2.1161043 0 0 0 2.1691,-2.169 z"
       inkscape:connector-curvature="0"
       style="fill:#000000;fill-opacity:1;stroke-width:4.0694313" />
  </g>
  <path
     style="fill:none;stroke:#000000;stroke-width:4.06899977;stroke-linecap:butt;stroke-linejoin:miter;stroke-miterlimit:4;stroke-dasharray:none;stroke-opacity:1"
     d="m -7732.5755,15524.682 70.3828,67.258"
     id="path1028"
     inkscape:connector-curvature="0" />
</svg>
