<svg xmlns="http://www.w3.org/2000/svg" viewBox="-7747.984 15507 101.669 101.669" width="101.669" height="101.669"><path d="M-7697.149 15509.034a48.8 48.8 0 11-48.8 48.801 48.8 48.8 0 0148.8-48.801z" class="cls-1" data-name="Path 9917" fill="#fff" stroke="#000" stroke-width="4.069"/><path d="M-7667.846 15534.656a3.016 3.016 0 01-3.016 3.017 3.016 3.016 0 01-3.017-3.017 3.016 3.016 0 013.017-3.016 3.016 3.016 0 013.016 3.016" paint-order="fill markers stroke"/><path d="M-7670.28 15539.02c3.14-.03 5.474.995 6.966 2.203 1.494 1.209 2.56 2.489 2.204 6.328-.355 3.839-1.28 4.123-2.132 3.981-.853-.142-1.138-.995-1.067-2.204.071-1.208.071-2.488-.07-3.483-.143-.996-1.636-1.564-1.778 1.208-.142 2.773-.284 7.607-.142 9.669.142 2.062 1.137 4.621 3.128 7.394 1.99 2.772 1.564 3.412.853 3.981-.711.569-1.564.355-2.56-.782-.995-1.138-2.772-3.27-3.412-5.261-.64-1.991-2.986-2.133-2.986.995s0 4.906.071 6.328c.071 1.422-.64 1.848-1.137 1.919-.498.07-1.422-.213-1.707-2.417-.284-2.204-.497-5.19-.07-7.109.426-1.92 1.563-3.128 1.563-5.972 0-2.844-.07-4.479-.213-5.901-.142-1.422-.71-2.275-2.488-1.493-1.778.782-3.626 1.422-4.977 1.635-1.35.213-1.706-.355-1.99-1.564-.285-1.209.569-1.422 1.706-1.706 1.137-.285 2.895-.441 4.337-2.346 2.72-3.595 2.518-5.367 5.9-5.403z"/><path d="M-7719.326 15529.793a5.92 5.92 0 00-5.886 5.885v-.139l-2.24 29.694a5.919 5.919 0 005.886 5.885h9.384l19.062.132c7.22 0 5.634.05 9.385 0a5.92 5.92 0 005.886-5.887l-2.24-29.833v.151a5.92 5.92 0 00-5.886-5.887z" fill="#fff" stroke="#000" stroke-width="3.679"/><path data-name="Path 8346" class="cls-1" d="M-7715.537 15554.022h25.754a2.81 2.81 0 002.8-2.8v-.14l-.817-10.647a2.81 2.81 0 00-2.8-2.799h-24.094a2.81 2.81 0 00-2.8 2.799l-.842 10.647v.14a2.81 2.81 0 002.8 2.8zm13.727-13.166h10.783c0 .698.699 8.829.699 9.804h-11.482zm-12.465 0h10.783v9.804h-11.482c0-.979.685-9.102.685-9.801z"/><path d="M-7712.181 15571.118l-2.513 3.926h-8.123a.841.841 0 000 1.682h6.99l-2.52 3.501h-9.231a1.682 1.682 0 000 3.364h6.99l-2.38 3.362a.625.625 0 000 .699.769.769 0 00.699.419h4.9a.769.769 0 00.7-.419l1.68-4.047h24.65l1.681 4.047a.769.769 0 00.7.419h5.055c.28 0 .559-.14.559-.419a.625.625 0 000-.699l-2.381-3.362h6.99a1.682 1.682 0 000-3.364h.018-9.234l-2.38-3.642h6.99a.841.841 0 000-1.682h-8.12l-2.66-3.641h-1.976v.03h.023l1.388 3.782h-17.917l1.541-3.782.03-.13zm-.129 5.467h19.19l1.402 3.642h-21.994z" fill="#060606"/><path d="M-7715.393 15562.708a1.96 1.96 0 01-1.961 1.961 1.96 1.96 0 01-1.96-1.961 1.96 1.96 0 011.96-1.961 1.96 1.96 0 011.96 1.961" class="cls-1"/><path d="M-7693.264 15560.748a1.96 1.96 0 101.961 1.961 1.913 1.913 0 00-1.96-1.961z" class="cls-1" data-name="Path 8347"/><path d="M-7685.979 15562.708a1.96 1.96 0 01-1.96 1.961 1.96 1.96 0 01-1.962-1.961 1.96 1.96 0 011.961-1.961 1.96 1.96 0 011.961 1.961" class="cls-1"/><path d="M-7710.21 15562.709a1.96 1.96 0 10-1.96 1.96 1.913 1.913 0 001.96-1.96z" class="cls-1" data-name="Path 8348"/><path d="M-7732.575 15524.682l70.382 67.258" fill="none" stroke="#000" stroke-width="4.069"/></svg>