<?xml version="1.0" encoding="UTF-8" standalone="no"?>
<svg
   xmlns:dc="http://purl.org/dc/elements/1.1/"
   xmlns:cc="http://creativecommons.org/ns#"
   xmlns:rdf="http://www.w3.org/1999/02/22-rdf-syntax-ns#"
   xmlns:svg="http://www.w3.org/2000/svg"
   xmlns="http://www.w3.org/2000/svg"
   viewBox="-7747.984 15507 101.6689 101.6689"
   version="1.1"
   id="svg19"
   width="101.66889"
   height="101.66889">
  <defs
     id="defs9127" />
  <metadata
     id="metadata23">
    <rdf:RDF>
      <cc:Work
         rdf:about="">
        <dc:format>image/svg+xml</dc:format>
        <dc:type
           rdf:resource="http://purl.org/dc/dcmitype/StillImage" />
        <dc:title></dc:title>
      </cc:Work>
    </rdf:RDF>
  </metadata>
  <path
     style="opacity:1;fill:#ffffff;fill-opacity:1;stroke:#000000;stroke-width:4.06899977;stroke-miterlimit:4;stroke-dasharray:none;stroke-opacity:1"
     d="m -7697.1489,15509.034 a 48.800619,48.800619 0 1 1 -48.8006,48.801 48.800619,48.800619 0 0 1 48.8006,-48.801 z"
     class="cls-1"
     data-name="Path 9917"
     id="Path_9917" />
  <path
     id="path991"
     style="vector-effect:none;fill:#000000;fill-opacity:1;stroke:none;stroke-width:3.02362;stroke-linecap:round;stroke-linejoin:round;stroke-miterlimit:4;stroke-dasharray:none;stroke-dashoffset:0;stroke-opacity:1;paint-order:fill markers stroke"
     d="m -7667.846,15534.656 a 3.0162613,3.0162613 0 0 1 -3.0163,3.017 3.0162613,3.0162613 0 0 1 -3.0163,-3.017 3.0162613,3.0162613 0 0 1 3.0163,-3.016 3.0162613,3.0162613 0 0 1 3.0163,3.016" />
  <path
     style="fill:#000000;fill-opacity:1;stroke:none;stroke-width:1px;stroke-linecap:butt;stroke-linejoin:miter;stroke-opacity:1"
     d="m -7670.2807,15539.02 c 3.1408,-0.03 5.4744,0.995 6.9672,2.203 1.4932,1.209 2.5594,2.489 2.2039,6.328 -0.3555,3.839 -1.2797,4.123 -2.1328,3.981 -0.8531,-0.142 -1.1375,-0.995 -1.0664,-2.204 0.071,-1.208 0.071,-2.488 -0.071,-3.483 -0.1422,-0.996 -1.6353,-1.564 -1.7774,1.208 -0.1422,2.773 -0.2843,7.607 -0.1421,9.669 0.1421,2.062 1.1373,4.621 3.1281,7.394 1.9904,2.772 1.5641,3.412 0.8531,3.981 -0.7109,0.569 -1.5643,0.355 -2.5594,-0.782 -0.9956,-1.138 -2.7726,-3.27 -3.4125,-5.261 -0.6398,-1.991 -2.9859,-2.133 -2.9859,0.995 0,3.128 0,4.906 0.071,6.328 0.071,1.422 -0.6398,1.848 -1.1375,1.919 -0.4976,0.07 -1.4219,-0.213 -1.7063,-2.417 -0.2844,-2.204 -0.4975,-5.19 -0.071,-7.109 0.4267,-1.92 1.5641,-3.128 1.5641,-5.972 0,-2.844 -0.071,-4.479 -0.2133,-5.901 -0.1422,-1.422 -0.7109,-2.275 -2.4883,-1.493 -1.7773,0.782 -3.6258,1.422 -4.9766,1.635 -1.3507,0.213 -1.7062,-0.355 -1.9906,-1.564 -0.2844,-1.209 0.5689,-1.422 1.7063,-1.706 1.1376,-0.285 2.8949,-0.441 4.3367,-2.346 2.7204,-3.595 2.518,-5.367 5.9007,-5.403 z"
     id="path993" />
  <path
     style="fill:#ffffff;fill-opacity:1;stroke:#000000;stroke-width:3.67902;stroke-opacity:1"
     d="m -7719.3256,15529.793 c -3.2435,0.02 -5.8684,2.642 -5.8868,5.885 v -0.139 l -2.2405,29.694 c 0.018,3.243 2.6434,5.867 5.8867,5.885 h 9.3847 l 19.0613,0.132 c 7.2206,0 5.6339,0.05 9.3854,0 3.2435,-0.02 5.8682,-2.643 5.8859,-5.887 l -2.2405,-29.833 v 0.151 c -0.018,-3.244 -2.6428,-5.868 -5.8859,-5.887 z"
     id="path980" />
  <path
     id="Path_8346"
     data-name="Path 8346"
     class="cls-1"
     d="m -7715.5365,15554.022 h 25.7531 a 2.8107686,2.8107686 0 0 0 2.7997,-2.8 v -0.14 l -0.8167,-10.647 a 2.8107686,2.8107686 0 0 0 -2.7998,-2.799 h -24.0938 a 2.8107686,2.8107686 0 0 0 -2.7997,2.799 l -0.8425,10.647 v 0.14 a 2.8107686,2.8107686 0 0 0 2.7997,2.8 z m 13.7264,-13.166 h 10.7832 c 0,0.698 0.6989,8.829 0.6989,9.804 h -11.4821 z m -12.4646,0 h 10.7832 v 9.804 h -11.4822 c 0,-0.979 0.6843,-9.102 0.6843,-9.801 z"
     style="fill:#000000;fill-opacity:1;stroke-width:3.67902" />
  <path
     style="fill:#060606;fill-opacity:1;stroke-width:3.67902"
     d="m -7712.1815,15571.118 -2.5125,3.926 h -8.1232 a 0.84122932,0.84122932 0 0 0 0,1.682 h 6.9902 l -2.5205,3.501 h -9.2306 a 1.682,1.682 0 0 0 0,3.364 h 6.9901 l -2.38,3.362 a 0.6254328,0.6254328 0 0 0 0,0.699 0.76891442,0.76891442 0 0 0 0.6989,0.419 h 4.9006 a 0.76891442,0.76891442 0 0 0 0.6989,-0.419 l 1.6812,-4.047 h 24.6495 l 1.6811,4.047 a 0.76891442,0.76891442 0 0 0 0.699,0.419 h 5.0554 c 0.2795,0 0.5592,-0.14 0.5592,-0.419 a 0.6254328,0.6254328 0 0 0 0,-0.699 l -2.3808,-3.362 h 6.9902 a 1.682,1.682 0 0 0 0,-3.364 h 0.018 -9.2338 l -2.3808,-3.642 h 6.9902 a 0.841,0.841 0 0 0 0,-1.682 h -8.1192 l -2.6601,-3.641 h -1.9764 v 0.03 h 0.023 l 1.3875,3.782 h -17.9171 l 1.5415,-3.782 0.03,-0.13 z m -0.1284,5.467 h 19.1897 l 1.4018,3.642 h -21.9935 z"
     id="path904" />
  <path
     id="circle917"
     style="fill:#000000;fill-opacity:1;stroke-width:3.67902"
     d="m -7715.3931,15562.708 a 1.9609158,1.9609158 0 0 1 -1.9609,1.961 1.9609158,1.9609158 0 0 1 -1.9609,-1.961 1.9609158,1.9609158 0 0 1 1.9609,-1.961 1.9609158,1.9609158 0 0 1 1.9609,1.961"
     class="cls-1" />
  <path
     style="fill:#000000;fill-opacity:1;stroke-width:3.67902"
     d="m -7693.2637,15560.748 a 1.9609158,1.9609158 0 1 0 1.9609,1.961 1.9130886,1.9130886 0 0 0 -1.9609,-1.961 z"
     class="cls-1"
     data-name="Path 8347"
     id="path919" />
  <path
     id="circle921"
     style="fill:#000000;fill-opacity:1;stroke-width:3.67902"
     d="m -7685.979,15562.708 a 1.9609158,1.9609158 0 0 1 -1.9609,1.961 1.9609158,1.9609158 0 0 1 -1.961,-1.961 1.9609158,1.9609158 0 0 1 1.961,-1.961 1.9609158,1.9609158 0 0 1 1.9609,1.961"
     class="cls-1" />
  <path
     style="fill:#000000;fill-opacity:1;stroke-width:3.67902"
     d="m -7710.2093,15562.709 a 1.9609158,1.9609158 0 1 0 -1.961,1.96 1.9130886,1.9130886 0 0 0 1.961,-1.96 z"
     class="cls-1"
     data-name="Path 8348"
     id="path923" />
  <path
     style="fill:none;stroke:#000000;stroke-width:4.06899977;stroke-linecap:butt;stroke-linejoin:miter;stroke-miterlimit:4;stroke-dasharray:none;stroke-opacity:1"
     d="m -7732.5755,15524.682 70.3828,67.258"
     id="path1028" />
</svg>
