<?xml version="1.0" encoding="UTF-8" standalone="no"?>
<svg
   xmlns:dc="http://purl.org/dc/elements/1.1/"
   xmlns:cc="http://creativecommons.org/ns#"
   xmlns:rdf="http://www.w3.org/1999/02/22-rdf-syntax-ns#"
   xmlns:svg="http://www.w3.org/2000/svg"
   xmlns="http://www.w3.org/2000/svg"
   id="svg8"
   version="1.1"
   viewBox="0 0 42 64.000221"
   height="64.000221mm"
   width="42mm">
  <defs
     id="defs2" />
  <metadata
     id="metadata5">
    <rdf:RDF>
      <cc:Work
         rdf:about="">
        <dc:format>image/svg+xml</dc:format>
        <dc:type
           rdf:resource="http://purl.org/dc/dcmitype/StillImage" />
        <dc:title></dc:title>
      </cc:Work>
    </rdf:RDF>
  </metadata>
  <g
     transform="translate(-15.54937,-53.750916)"
     id="layer1">
    <path
       id="rect1453"
       transform="matrix(0.26458333,0,0,0.26458333,15.54937,53.750916)"
       d="M 52.914062 0 L 52.914062 30.076172 L 105.82617 30.076172 L 105.82617 0 L 52.914062 0 z M 52.914062 60.3125 L 52.914062 90.548828 L 105.82617 90.548828 L 105.82617 60.3125 L 52.914062 60.3125 z M 52.914062 120.78516 L 52.914062 151.02148 L 105.82617 151.02148 L 105.82617 120.78516 L 52.914062 120.78516 z M 52.914062 181.25781 L 52.914062 211.49219 L 105.82617 211.49219 L 105.82617 181.25781 L 52.914062 181.25781 z M 52.914062 241.72852 L 52.914062 241.89062 L 105.82617 241.89062 L 105.82617 241.72852 L 52.914062 241.72852 z "
       style="opacity:1;vector-effect:none;fill:#000000;fill-opacity:1;stroke:none;stroke-width:3.02362204;stroke-linecap:round;stroke-linejoin:round;stroke-miterlimit:4;stroke-dasharray:none;stroke-dashoffset:0;stroke-opacity:1;paint-order:fill markers stroke" />
  </g>
</svg>
